%
M48
M72
T01C0.01378
T02C0.04000
T03C0.11811
%
T01
X145000Y111733
X153400Y109333
X163000Y118933
X173200Y112333
X159400Y126133
X160600Y138133
X147400Y130933
X159400Y157333
X163000Y157333
X171400Y173533
X182200Y167533
X188200Y158533
X187000Y154933
X188200Y148333
X188200Y127333
X216800Y128933
X227200Y143533
X236200Y152533
X239800Y152533
X231400Y160933
X225400Y163333
X213400Y163333
X209800Y174733
X212200Y177733
X215800Y176533
X225400Y177733
X223000Y189733
X219400Y189733
X210400Y189733
X206800Y189733
X196800Y183933
X201400Y175333
X211000Y200933
X222800Y200933
X240400Y184333
X199000Y211333
X212800Y229333
X205600Y241933
X210400Y244333
X212800Y250933
X216400Y255733
X223600Y255133
X228400Y250933
X235600Y248533
X236800Y241933
X236200Y237733
X247600Y245533
X254200Y237133
X263800Y246733
X269800Y249133
X217600Y246133
X196600Y251533
X199000Y257533
X188200Y270133
X187000Y273733
X175600Y285733
X166800Y263933
X181800Y258933
X141800Y278933
X174400Y191533
X159400Y175933
X221800Y107533
X246800Y103933
X247000Y112333
X261800Y118933
X281800Y138933
T02
X326800Y159169
X326800Y169012
X326800Y178854
X326800Y188697
X306564Y93933
X296721Y93933
X286879Y93933
X277036Y93933
X101800Y159169
X101800Y169012
X101800Y178854
X101800Y188697
T03
X76800Y73933
X76800Y288933
X351800Y288933
X351800Y73933
M30
