G75*
%MOIN*%
%OFA0B0*%
%FSLAX25Y25*%
%IPPOS*%
%LPD*%
%AMOC8*
5,1,8,0,0,1.08239X$1,22.5*
%
%ADD10C,0.00000*%
%ADD11R,0.02500X0.05000*%
%ADD12R,0.04252X0.04134*%
%ADD13R,0.07874X0.08661*%
%ADD14R,0.03937X0.04331*%
%ADD15R,0.04331X0.03937*%
%ADD16R,0.03346X0.04134*%
%ADD17R,0.06000X0.06000*%
%ADD18C,0.06000*%
%ADD19R,0.03150X0.02362*%
%ADD20R,0.01500X0.04303*%
%ADD21R,0.01575X0.05315*%
%ADD22R,0.08268X0.06299*%
%ADD23R,0.07087X0.07480*%
%ADD24R,0.07480X0.07480*%
%ADD25R,0.04724X0.04724*%
%ADD26R,0.01772X0.07087*%
%ADD27R,0.29528X0.29528*%
%ADD28R,0.03346X0.05709*%
%ADD29R,0.05906X0.03543*%
%ADD30R,0.03543X0.05906*%
%ADD31R,0.23622X0.23622*%
%ADD32C,0.10000*%
%ADD33C,0.02000*%
%ADD34C,0.05000*%
%ADD35C,0.02578*%
%ADD36C,0.01600*%
%ADD37C,0.00600*%
%ADD38C,0.01200*%
%ADD39C,0.01000*%
D10*
X0076800Y0058933D02*
X0351800Y0058933D01*
X0352042Y0058936D01*
X0352283Y0058945D01*
X0352524Y0058959D01*
X0352765Y0058980D01*
X0353005Y0059006D01*
X0353245Y0059038D01*
X0353484Y0059076D01*
X0353721Y0059119D01*
X0353958Y0059169D01*
X0354193Y0059224D01*
X0354427Y0059284D01*
X0354659Y0059351D01*
X0354890Y0059422D01*
X0355119Y0059500D01*
X0355346Y0059583D01*
X0355571Y0059671D01*
X0355794Y0059765D01*
X0356014Y0059864D01*
X0356232Y0059969D01*
X0356447Y0060078D01*
X0356660Y0060193D01*
X0356870Y0060313D01*
X0357076Y0060438D01*
X0357280Y0060568D01*
X0357481Y0060703D01*
X0357678Y0060843D01*
X0357872Y0060987D01*
X0358062Y0061136D01*
X0358248Y0061290D01*
X0358431Y0061448D01*
X0358610Y0061610D01*
X0358785Y0061777D01*
X0358956Y0061948D01*
X0359123Y0062123D01*
X0359285Y0062302D01*
X0359443Y0062485D01*
X0359597Y0062671D01*
X0359746Y0062861D01*
X0359890Y0063055D01*
X0360030Y0063252D01*
X0360165Y0063453D01*
X0360295Y0063657D01*
X0360420Y0063863D01*
X0360540Y0064073D01*
X0360655Y0064286D01*
X0360764Y0064501D01*
X0360869Y0064719D01*
X0360968Y0064939D01*
X0361062Y0065162D01*
X0361150Y0065387D01*
X0361233Y0065614D01*
X0361311Y0065843D01*
X0361382Y0066074D01*
X0361449Y0066306D01*
X0361509Y0066540D01*
X0361564Y0066775D01*
X0361614Y0067012D01*
X0361657Y0067249D01*
X0361695Y0067488D01*
X0361727Y0067728D01*
X0361753Y0067968D01*
X0361774Y0068209D01*
X0361788Y0068450D01*
X0361797Y0068691D01*
X0361800Y0068933D01*
X0361800Y0293933D01*
X0361797Y0294175D01*
X0361788Y0294416D01*
X0361774Y0294657D01*
X0361753Y0294898D01*
X0361727Y0295138D01*
X0361695Y0295378D01*
X0361657Y0295617D01*
X0361614Y0295854D01*
X0361564Y0296091D01*
X0361509Y0296326D01*
X0361449Y0296560D01*
X0361382Y0296792D01*
X0361311Y0297023D01*
X0361233Y0297252D01*
X0361150Y0297479D01*
X0361062Y0297704D01*
X0360968Y0297927D01*
X0360869Y0298147D01*
X0360764Y0298365D01*
X0360655Y0298580D01*
X0360540Y0298793D01*
X0360420Y0299003D01*
X0360295Y0299209D01*
X0360165Y0299413D01*
X0360030Y0299614D01*
X0359890Y0299811D01*
X0359746Y0300005D01*
X0359597Y0300195D01*
X0359443Y0300381D01*
X0359285Y0300564D01*
X0359123Y0300743D01*
X0358956Y0300918D01*
X0358785Y0301089D01*
X0358610Y0301256D01*
X0358431Y0301418D01*
X0358248Y0301576D01*
X0358062Y0301730D01*
X0357872Y0301879D01*
X0357678Y0302023D01*
X0357481Y0302163D01*
X0357280Y0302298D01*
X0357076Y0302428D01*
X0356870Y0302553D01*
X0356660Y0302673D01*
X0356447Y0302788D01*
X0356232Y0302897D01*
X0356014Y0303002D01*
X0355794Y0303101D01*
X0355571Y0303195D01*
X0355346Y0303283D01*
X0355119Y0303366D01*
X0354890Y0303444D01*
X0354659Y0303515D01*
X0354427Y0303582D01*
X0354193Y0303642D01*
X0353958Y0303697D01*
X0353721Y0303747D01*
X0353484Y0303790D01*
X0353245Y0303828D01*
X0353005Y0303860D01*
X0352765Y0303886D01*
X0352524Y0303907D01*
X0352283Y0303921D01*
X0352042Y0303930D01*
X0351800Y0303933D01*
X0076800Y0303933D01*
X0076558Y0303930D01*
X0076317Y0303921D01*
X0076076Y0303907D01*
X0075835Y0303886D01*
X0075595Y0303860D01*
X0075355Y0303828D01*
X0075116Y0303790D01*
X0074879Y0303747D01*
X0074642Y0303697D01*
X0074407Y0303642D01*
X0074173Y0303582D01*
X0073941Y0303515D01*
X0073710Y0303444D01*
X0073481Y0303366D01*
X0073254Y0303283D01*
X0073029Y0303195D01*
X0072806Y0303101D01*
X0072586Y0303002D01*
X0072368Y0302897D01*
X0072153Y0302788D01*
X0071940Y0302673D01*
X0071730Y0302553D01*
X0071524Y0302428D01*
X0071320Y0302298D01*
X0071119Y0302163D01*
X0070922Y0302023D01*
X0070728Y0301879D01*
X0070538Y0301730D01*
X0070352Y0301576D01*
X0070169Y0301418D01*
X0069990Y0301256D01*
X0069815Y0301089D01*
X0069644Y0300918D01*
X0069477Y0300743D01*
X0069315Y0300564D01*
X0069157Y0300381D01*
X0069003Y0300195D01*
X0068854Y0300005D01*
X0068710Y0299811D01*
X0068570Y0299614D01*
X0068435Y0299413D01*
X0068305Y0299209D01*
X0068180Y0299003D01*
X0068060Y0298793D01*
X0067945Y0298580D01*
X0067836Y0298365D01*
X0067731Y0298147D01*
X0067632Y0297927D01*
X0067538Y0297704D01*
X0067450Y0297479D01*
X0067367Y0297252D01*
X0067289Y0297023D01*
X0067218Y0296792D01*
X0067151Y0296560D01*
X0067091Y0296326D01*
X0067036Y0296091D01*
X0066986Y0295854D01*
X0066943Y0295617D01*
X0066905Y0295378D01*
X0066873Y0295138D01*
X0066847Y0294898D01*
X0066826Y0294657D01*
X0066812Y0294416D01*
X0066803Y0294175D01*
X0066800Y0293933D01*
X0066800Y0068933D01*
X0066803Y0068691D01*
X0066812Y0068450D01*
X0066826Y0068209D01*
X0066847Y0067968D01*
X0066873Y0067728D01*
X0066905Y0067488D01*
X0066943Y0067249D01*
X0066986Y0067012D01*
X0067036Y0066775D01*
X0067091Y0066540D01*
X0067151Y0066306D01*
X0067218Y0066074D01*
X0067289Y0065843D01*
X0067367Y0065614D01*
X0067450Y0065387D01*
X0067538Y0065162D01*
X0067632Y0064939D01*
X0067731Y0064719D01*
X0067836Y0064501D01*
X0067945Y0064286D01*
X0068060Y0064073D01*
X0068180Y0063863D01*
X0068305Y0063657D01*
X0068435Y0063453D01*
X0068570Y0063252D01*
X0068710Y0063055D01*
X0068854Y0062861D01*
X0069003Y0062671D01*
X0069157Y0062485D01*
X0069315Y0062302D01*
X0069477Y0062123D01*
X0069644Y0061948D01*
X0069815Y0061777D01*
X0069990Y0061610D01*
X0070169Y0061448D01*
X0070352Y0061290D01*
X0070538Y0061136D01*
X0070728Y0060987D01*
X0070922Y0060843D01*
X0071119Y0060703D01*
X0071320Y0060568D01*
X0071524Y0060438D01*
X0071730Y0060313D01*
X0071940Y0060193D01*
X0072153Y0060078D01*
X0072368Y0059969D01*
X0072586Y0059864D01*
X0072806Y0059765D01*
X0073029Y0059671D01*
X0073254Y0059583D01*
X0073481Y0059500D01*
X0073710Y0059422D01*
X0073941Y0059351D01*
X0074173Y0059284D01*
X0074407Y0059224D01*
X0074642Y0059169D01*
X0074879Y0059119D01*
X0075116Y0059076D01*
X0075355Y0059038D01*
X0075595Y0059006D01*
X0075835Y0058980D01*
X0076076Y0058959D01*
X0076317Y0058945D01*
X0076558Y0058936D01*
X0076800Y0058933D01*
X0070894Y0073933D02*
X0070896Y0074086D01*
X0070902Y0074240D01*
X0070912Y0074393D01*
X0070926Y0074545D01*
X0070944Y0074698D01*
X0070966Y0074849D01*
X0070991Y0075000D01*
X0071021Y0075151D01*
X0071055Y0075301D01*
X0071092Y0075449D01*
X0071133Y0075597D01*
X0071178Y0075743D01*
X0071227Y0075889D01*
X0071280Y0076033D01*
X0071336Y0076175D01*
X0071396Y0076316D01*
X0071460Y0076456D01*
X0071527Y0076594D01*
X0071598Y0076730D01*
X0071673Y0076864D01*
X0071750Y0076996D01*
X0071832Y0077126D01*
X0071916Y0077254D01*
X0072004Y0077380D01*
X0072095Y0077503D01*
X0072189Y0077624D01*
X0072287Y0077742D01*
X0072387Y0077858D01*
X0072491Y0077971D01*
X0072597Y0078082D01*
X0072706Y0078190D01*
X0072818Y0078295D01*
X0072932Y0078396D01*
X0073050Y0078495D01*
X0073169Y0078591D01*
X0073291Y0078684D01*
X0073416Y0078773D01*
X0073543Y0078860D01*
X0073672Y0078942D01*
X0073803Y0079022D01*
X0073936Y0079098D01*
X0074071Y0079171D01*
X0074208Y0079240D01*
X0074347Y0079305D01*
X0074487Y0079367D01*
X0074629Y0079425D01*
X0074772Y0079480D01*
X0074917Y0079531D01*
X0075063Y0079578D01*
X0075210Y0079621D01*
X0075358Y0079660D01*
X0075507Y0079696D01*
X0075657Y0079727D01*
X0075808Y0079755D01*
X0075959Y0079779D01*
X0076112Y0079799D01*
X0076264Y0079815D01*
X0076417Y0079827D01*
X0076570Y0079835D01*
X0076723Y0079839D01*
X0076877Y0079839D01*
X0077030Y0079835D01*
X0077183Y0079827D01*
X0077336Y0079815D01*
X0077488Y0079799D01*
X0077641Y0079779D01*
X0077792Y0079755D01*
X0077943Y0079727D01*
X0078093Y0079696D01*
X0078242Y0079660D01*
X0078390Y0079621D01*
X0078537Y0079578D01*
X0078683Y0079531D01*
X0078828Y0079480D01*
X0078971Y0079425D01*
X0079113Y0079367D01*
X0079253Y0079305D01*
X0079392Y0079240D01*
X0079529Y0079171D01*
X0079664Y0079098D01*
X0079797Y0079022D01*
X0079928Y0078942D01*
X0080057Y0078860D01*
X0080184Y0078773D01*
X0080309Y0078684D01*
X0080431Y0078591D01*
X0080550Y0078495D01*
X0080668Y0078396D01*
X0080782Y0078295D01*
X0080894Y0078190D01*
X0081003Y0078082D01*
X0081109Y0077971D01*
X0081213Y0077858D01*
X0081313Y0077742D01*
X0081411Y0077624D01*
X0081505Y0077503D01*
X0081596Y0077380D01*
X0081684Y0077254D01*
X0081768Y0077126D01*
X0081850Y0076996D01*
X0081927Y0076864D01*
X0082002Y0076730D01*
X0082073Y0076594D01*
X0082140Y0076456D01*
X0082204Y0076316D01*
X0082264Y0076175D01*
X0082320Y0076033D01*
X0082373Y0075889D01*
X0082422Y0075743D01*
X0082467Y0075597D01*
X0082508Y0075449D01*
X0082545Y0075301D01*
X0082579Y0075151D01*
X0082609Y0075000D01*
X0082634Y0074849D01*
X0082656Y0074698D01*
X0082674Y0074545D01*
X0082688Y0074393D01*
X0082698Y0074240D01*
X0082704Y0074086D01*
X0082706Y0073933D01*
X0082704Y0073780D01*
X0082698Y0073626D01*
X0082688Y0073473D01*
X0082674Y0073321D01*
X0082656Y0073168D01*
X0082634Y0073017D01*
X0082609Y0072866D01*
X0082579Y0072715D01*
X0082545Y0072565D01*
X0082508Y0072417D01*
X0082467Y0072269D01*
X0082422Y0072123D01*
X0082373Y0071977D01*
X0082320Y0071833D01*
X0082264Y0071691D01*
X0082204Y0071550D01*
X0082140Y0071410D01*
X0082073Y0071272D01*
X0082002Y0071136D01*
X0081927Y0071002D01*
X0081850Y0070870D01*
X0081768Y0070740D01*
X0081684Y0070612D01*
X0081596Y0070486D01*
X0081505Y0070363D01*
X0081411Y0070242D01*
X0081313Y0070124D01*
X0081213Y0070008D01*
X0081109Y0069895D01*
X0081003Y0069784D01*
X0080894Y0069676D01*
X0080782Y0069571D01*
X0080668Y0069470D01*
X0080550Y0069371D01*
X0080431Y0069275D01*
X0080309Y0069182D01*
X0080184Y0069093D01*
X0080057Y0069006D01*
X0079928Y0068924D01*
X0079797Y0068844D01*
X0079664Y0068768D01*
X0079529Y0068695D01*
X0079392Y0068626D01*
X0079253Y0068561D01*
X0079113Y0068499D01*
X0078971Y0068441D01*
X0078828Y0068386D01*
X0078683Y0068335D01*
X0078537Y0068288D01*
X0078390Y0068245D01*
X0078242Y0068206D01*
X0078093Y0068170D01*
X0077943Y0068139D01*
X0077792Y0068111D01*
X0077641Y0068087D01*
X0077488Y0068067D01*
X0077336Y0068051D01*
X0077183Y0068039D01*
X0077030Y0068031D01*
X0076877Y0068027D01*
X0076723Y0068027D01*
X0076570Y0068031D01*
X0076417Y0068039D01*
X0076264Y0068051D01*
X0076112Y0068067D01*
X0075959Y0068087D01*
X0075808Y0068111D01*
X0075657Y0068139D01*
X0075507Y0068170D01*
X0075358Y0068206D01*
X0075210Y0068245D01*
X0075063Y0068288D01*
X0074917Y0068335D01*
X0074772Y0068386D01*
X0074629Y0068441D01*
X0074487Y0068499D01*
X0074347Y0068561D01*
X0074208Y0068626D01*
X0074071Y0068695D01*
X0073936Y0068768D01*
X0073803Y0068844D01*
X0073672Y0068924D01*
X0073543Y0069006D01*
X0073416Y0069093D01*
X0073291Y0069182D01*
X0073169Y0069275D01*
X0073050Y0069371D01*
X0072932Y0069470D01*
X0072818Y0069571D01*
X0072706Y0069676D01*
X0072597Y0069784D01*
X0072491Y0069895D01*
X0072387Y0070008D01*
X0072287Y0070124D01*
X0072189Y0070242D01*
X0072095Y0070363D01*
X0072004Y0070486D01*
X0071916Y0070612D01*
X0071832Y0070740D01*
X0071750Y0070870D01*
X0071673Y0071002D01*
X0071598Y0071136D01*
X0071527Y0071272D01*
X0071460Y0071410D01*
X0071396Y0071550D01*
X0071336Y0071691D01*
X0071280Y0071833D01*
X0071227Y0071977D01*
X0071178Y0072123D01*
X0071133Y0072269D01*
X0071092Y0072417D01*
X0071055Y0072565D01*
X0071021Y0072715D01*
X0070991Y0072866D01*
X0070966Y0073017D01*
X0070944Y0073168D01*
X0070926Y0073321D01*
X0070912Y0073473D01*
X0070902Y0073626D01*
X0070896Y0073780D01*
X0070894Y0073933D01*
X0070894Y0288933D02*
X0070896Y0289086D01*
X0070902Y0289240D01*
X0070912Y0289393D01*
X0070926Y0289545D01*
X0070944Y0289698D01*
X0070966Y0289849D01*
X0070991Y0290000D01*
X0071021Y0290151D01*
X0071055Y0290301D01*
X0071092Y0290449D01*
X0071133Y0290597D01*
X0071178Y0290743D01*
X0071227Y0290889D01*
X0071280Y0291033D01*
X0071336Y0291175D01*
X0071396Y0291316D01*
X0071460Y0291456D01*
X0071527Y0291594D01*
X0071598Y0291730D01*
X0071673Y0291864D01*
X0071750Y0291996D01*
X0071832Y0292126D01*
X0071916Y0292254D01*
X0072004Y0292380D01*
X0072095Y0292503D01*
X0072189Y0292624D01*
X0072287Y0292742D01*
X0072387Y0292858D01*
X0072491Y0292971D01*
X0072597Y0293082D01*
X0072706Y0293190D01*
X0072818Y0293295D01*
X0072932Y0293396D01*
X0073050Y0293495D01*
X0073169Y0293591D01*
X0073291Y0293684D01*
X0073416Y0293773D01*
X0073543Y0293860D01*
X0073672Y0293942D01*
X0073803Y0294022D01*
X0073936Y0294098D01*
X0074071Y0294171D01*
X0074208Y0294240D01*
X0074347Y0294305D01*
X0074487Y0294367D01*
X0074629Y0294425D01*
X0074772Y0294480D01*
X0074917Y0294531D01*
X0075063Y0294578D01*
X0075210Y0294621D01*
X0075358Y0294660D01*
X0075507Y0294696D01*
X0075657Y0294727D01*
X0075808Y0294755D01*
X0075959Y0294779D01*
X0076112Y0294799D01*
X0076264Y0294815D01*
X0076417Y0294827D01*
X0076570Y0294835D01*
X0076723Y0294839D01*
X0076877Y0294839D01*
X0077030Y0294835D01*
X0077183Y0294827D01*
X0077336Y0294815D01*
X0077488Y0294799D01*
X0077641Y0294779D01*
X0077792Y0294755D01*
X0077943Y0294727D01*
X0078093Y0294696D01*
X0078242Y0294660D01*
X0078390Y0294621D01*
X0078537Y0294578D01*
X0078683Y0294531D01*
X0078828Y0294480D01*
X0078971Y0294425D01*
X0079113Y0294367D01*
X0079253Y0294305D01*
X0079392Y0294240D01*
X0079529Y0294171D01*
X0079664Y0294098D01*
X0079797Y0294022D01*
X0079928Y0293942D01*
X0080057Y0293860D01*
X0080184Y0293773D01*
X0080309Y0293684D01*
X0080431Y0293591D01*
X0080550Y0293495D01*
X0080668Y0293396D01*
X0080782Y0293295D01*
X0080894Y0293190D01*
X0081003Y0293082D01*
X0081109Y0292971D01*
X0081213Y0292858D01*
X0081313Y0292742D01*
X0081411Y0292624D01*
X0081505Y0292503D01*
X0081596Y0292380D01*
X0081684Y0292254D01*
X0081768Y0292126D01*
X0081850Y0291996D01*
X0081927Y0291864D01*
X0082002Y0291730D01*
X0082073Y0291594D01*
X0082140Y0291456D01*
X0082204Y0291316D01*
X0082264Y0291175D01*
X0082320Y0291033D01*
X0082373Y0290889D01*
X0082422Y0290743D01*
X0082467Y0290597D01*
X0082508Y0290449D01*
X0082545Y0290301D01*
X0082579Y0290151D01*
X0082609Y0290000D01*
X0082634Y0289849D01*
X0082656Y0289698D01*
X0082674Y0289545D01*
X0082688Y0289393D01*
X0082698Y0289240D01*
X0082704Y0289086D01*
X0082706Y0288933D01*
X0082704Y0288780D01*
X0082698Y0288626D01*
X0082688Y0288473D01*
X0082674Y0288321D01*
X0082656Y0288168D01*
X0082634Y0288017D01*
X0082609Y0287866D01*
X0082579Y0287715D01*
X0082545Y0287565D01*
X0082508Y0287417D01*
X0082467Y0287269D01*
X0082422Y0287123D01*
X0082373Y0286977D01*
X0082320Y0286833D01*
X0082264Y0286691D01*
X0082204Y0286550D01*
X0082140Y0286410D01*
X0082073Y0286272D01*
X0082002Y0286136D01*
X0081927Y0286002D01*
X0081850Y0285870D01*
X0081768Y0285740D01*
X0081684Y0285612D01*
X0081596Y0285486D01*
X0081505Y0285363D01*
X0081411Y0285242D01*
X0081313Y0285124D01*
X0081213Y0285008D01*
X0081109Y0284895D01*
X0081003Y0284784D01*
X0080894Y0284676D01*
X0080782Y0284571D01*
X0080668Y0284470D01*
X0080550Y0284371D01*
X0080431Y0284275D01*
X0080309Y0284182D01*
X0080184Y0284093D01*
X0080057Y0284006D01*
X0079928Y0283924D01*
X0079797Y0283844D01*
X0079664Y0283768D01*
X0079529Y0283695D01*
X0079392Y0283626D01*
X0079253Y0283561D01*
X0079113Y0283499D01*
X0078971Y0283441D01*
X0078828Y0283386D01*
X0078683Y0283335D01*
X0078537Y0283288D01*
X0078390Y0283245D01*
X0078242Y0283206D01*
X0078093Y0283170D01*
X0077943Y0283139D01*
X0077792Y0283111D01*
X0077641Y0283087D01*
X0077488Y0283067D01*
X0077336Y0283051D01*
X0077183Y0283039D01*
X0077030Y0283031D01*
X0076877Y0283027D01*
X0076723Y0283027D01*
X0076570Y0283031D01*
X0076417Y0283039D01*
X0076264Y0283051D01*
X0076112Y0283067D01*
X0075959Y0283087D01*
X0075808Y0283111D01*
X0075657Y0283139D01*
X0075507Y0283170D01*
X0075358Y0283206D01*
X0075210Y0283245D01*
X0075063Y0283288D01*
X0074917Y0283335D01*
X0074772Y0283386D01*
X0074629Y0283441D01*
X0074487Y0283499D01*
X0074347Y0283561D01*
X0074208Y0283626D01*
X0074071Y0283695D01*
X0073936Y0283768D01*
X0073803Y0283844D01*
X0073672Y0283924D01*
X0073543Y0284006D01*
X0073416Y0284093D01*
X0073291Y0284182D01*
X0073169Y0284275D01*
X0073050Y0284371D01*
X0072932Y0284470D01*
X0072818Y0284571D01*
X0072706Y0284676D01*
X0072597Y0284784D01*
X0072491Y0284895D01*
X0072387Y0285008D01*
X0072287Y0285124D01*
X0072189Y0285242D01*
X0072095Y0285363D01*
X0072004Y0285486D01*
X0071916Y0285612D01*
X0071832Y0285740D01*
X0071750Y0285870D01*
X0071673Y0286002D01*
X0071598Y0286136D01*
X0071527Y0286272D01*
X0071460Y0286410D01*
X0071396Y0286550D01*
X0071336Y0286691D01*
X0071280Y0286833D01*
X0071227Y0286977D01*
X0071178Y0287123D01*
X0071133Y0287269D01*
X0071092Y0287417D01*
X0071055Y0287565D01*
X0071021Y0287715D01*
X0070991Y0287866D01*
X0070966Y0288017D01*
X0070944Y0288168D01*
X0070926Y0288321D01*
X0070912Y0288473D01*
X0070902Y0288626D01*
X0070896Y0288780D01*
X0070894Y0288933D01*
X0345894Y0288933D02*
X0345896Y0289086D01*
X0345902Y0289240D01*
X0345912Y0289393D01*
X0345926Y0289545D01*
X0345944Y0289698D01*
X0345966Y0289849D01*
X0345991Y0290000D01*
X0346021Y0290151D01*
X0346055Y0290301D01*
X0346092Y0290449D01*
X0346133Y0290597D01*
X0346178Y0290743D01*
X0346227Y0290889D01*
X0346280Y0291033D01*
X0346336Y0291175D01*
X0346396Y0291316D01*
X0346460Y0291456D01*
X0346527Y0291594D01*
X0346598Y0291730D01*
X0346673Y0291864D01*
X0346750Y0291996D01*
X0346832Y0292126D01*
X0346916Y0292254D01*
X0347004Y0292380D01*
X0347095Y0292503D01*
X0347189Y0292624D01*
X0347287Y0292742D01*
X0347387Y0292858D01*
X0347491Y0292971D01*
X0347597Y0293082D01*
X0347706Y0293190D01*
X0347818Y0293295D01*
X0347932Y0293396D01*
X0348050Y0293495D01*
X0348169Y0293591D01*
X0348291Y0293684D01*
X0348416Y0293773D01*
X0348543Y0293860D01*
X0348672Y0293942D01*
X0348803Y0294022D01*
X0348936Y0294098D01*
X0349071Y0294171D01*
X0349208Y0294240D01*
X0349347Y0294305D01*
X0349487Y0294367D01*
X0349629Y0294425D01*
X0349772Y0294480D01*
X0349917Y0294531D01*
X0350063Y0294578D01*
X0350210Y0294621D01*
X0350358Y0294660D01*
X0350507Y0294696D01*
X0350657Y0294727D01*
X0350808Y0294755D01*
X0350959Y0294779D01*
X0351112Y0294799D01*
X0351264Y0294815D01*
X0351417Y0294827D01*
X0351570Y0294835D01*
X0351723Y0294839D01*
X0351877Y0294839D01*
X0352030Y0294835D01*
X0352183Y0294827D01*
X0352336Y0294815D01*
X0352488Y0294799D01*
X0352641Y0294779D01*
X0352792Y0294755D01*
X0352943Y0294727D01*
X0353093Y0294696D01*
X0353242Y0294660D01*
X0353390Y0294621D01*
X0353537Y0294578D01*
X0353683Y0294531D01*
X0353828Y0294480D01*
X0353971Y0294425D01*
X0354113Y0294367D01*
X0354253Y0294305D01*
X0354392Y0294240D01*
X0354529Y0294171D01*
X0354664Y0294098D01*
X0354797Y0294022D01*
X0354928Y0293942D01*
X0355057Y0293860D01*
X0355184Y0293773D01*
X0355309Y0293684D01*
X0355431Y0293591D01*
X0355550Y0293495D01*
X0355668Y0293396D01*
X0355782Y0293295D01*
X0355894Y0293190D01*
X0356003Y0293082D01*
X0356109Y0292971D01*
X0356213Y0292858D01*
X0356313Y0292742D01*
X0356411Y0292624D01*
X0356505Y0292503D01*
X0356596Y0292380D01*
X0356684Y0292254D01*
X0356768Y0292126D01*
X0356850Y0291996D01*
X0356927Y0291864D01*
X0357002Y0291730D01*
X0357073Y0291594D01*
X0357140Y0291456D01*
X0357204Y0291316D01*
X0357264Y0291175D01*
X0357320Y0291033D01*
X0357373Y0290889D01*
X0357422Y0290743D01*
X0357467Y0290597D01*
X0357508Y0290449D01*
X0357545Y0290301D01*
X0357579Y0290151D01*
X0357609Y0290000D01*
X0357634Y0289849D01*
X0357656Y0289698D01*
X0357674Y0289545D01*
X0357688Y0289393D01*
X0357698Y0289240D01*
X0357704Y0289086D01*
X0357706Y0288933D01*
X0357704Y0288780D01*
X0357698Y0288626D01*
X0357688Y0288473D01*
X0357674Y0288321D01*
X0357656Y0288168D01*
X0357634Y0288017D01*
X0357609Y0287866D01*
X0357579Y0287715D01*
X0357545Y0287565D01*
X0357508Y0287417D01*
X0357467Y0287269D01*
X0357422Y0287123D01*
X0357373Y0286977D01*
X0357320Y0286833D01*
X0357264Y0286691D01*
X0357204Y0286550D01*
X0357140Y0286410D01*
X0357073Y0286272D01*
X0357002Y0286136D01*
X0356927Y0286002D01*
X0356850Y0285870D01*
X0356768Y0285740D01*
X0356684Y0285612D01*
X0356596Y0285486D01*
X0356505Y0285363D01*
X0356411Y0285242D01*
X0356313Y0285124D01*
X0356213Y0285008D01*
X0356109Y0284895D01*
X0356003Y0284784D01*
X0355894Y0284676D01*
X0355782Y0284571D01*
X0355668Y0284470D01*
X0355550Y0284371D01*
X0355431Y0284275D01*
X0355309Y0284182D01*
X0355184Y0284093D01*
X0355057Y0284006D01*
X0354928Y0283924D01*
X0354797Y0283844D01*
X0354664Y0283768D01*
X0354529Y0283695D01*
X0354392Y0283626D01*
X0354253Y0283561D01*
X0354113Y0283499D01*
X0353971Y0283441D01*
X0353828Y0283386D01*
X0353683Y0283335D01*
X0353537Y0283288D01*
X0353390Y0283245D01*
X0353242Y0283206D01*
X0353093Y0283170D01*
X0352943Y0283139D01*
X0352792Y0283111D01*
X0352641Y0283087D01*
X0352488Y0283067D01*
X0352336Y0283051D01*
X0352183Y0283039D01*
X0352030Y0283031D01*
X0351877Y0283027D01*
X0351723Y0283027D01*
X0351570Y0283031D01*
X0351417Y0283039D01*
X0351264Y0283051D01*
X0351112Y0283067D01*
X0350959Y0283087D01*
X0350808Y0283111D01*
X0350657Y0283139D01*
X0350507Y0283170D01*
X0350358Y0283206D01*
X0350210Y0283245D01*
X0350063Y0283288D01*
X0349917Y0283335D01*
X0349772Y0283386D01*
X0349629Y0283441D01*
X0349487Y0283499D01*
X0349347Y0283561D01*
X0349208Y0283626D01*
X0349071Y0283695D01*
X0348936Y0283768D01*
X0348803Y0283844D01*
X0348672Y0283924D01*
X0348543Y0284006D01*
X0348416Y0284093D01*
X0348291Y0284182D01*
X0348169Y0284275D01*
X0348050Y0284371D01*
X0347932Y0284470D01*
X0347818Y0284571D01*
X0347706Y0284676D01*
X0347597Y0284784D01*
X0347491Y0284895D01*
X0347387Y0285008D01*
X0347287Y0285124D01*
X0347189Y0285242D01*
X0347095Y0285363D01*
X0347004Y0285486D01*
X0346916Y0285612D01*
X0346832Y0285740D01*
X0346750Y0285870D01*
X0346673Y0286002D01*
X0346598Y0286136D01*
X0346527Y0286272D01*
X0346460Y0286410D01*
X0346396Y0286550D01*
X0346336Y0286691D01*
X0346280Y0286833D01*
X0346227Y0286977D01*
X0346178Y0287123D01*
X0346133Y0287269D01*
X0346092Y0287417D01*
X0346055Y0287565D01*
X0346021Y0287715D01*
X0345991Y0287866D01*
X0345966Y0288017D01*
X0345944Y0288168D01*
X0345926Y0288321D01*
X0345912Y0288473D01*
X0345902Y0288626D01*
X0345896Y0288780D01*
X0345894Y0288933D01*
X0345894Y0073933D02*
X0345896Y0074086D01*
X0345902Y0074240D01*
X0345912Y0074393D01*
X0345926Y0074545D01*
X0345944Y0074698D01*
X0345966Y0074849D01*
X0345991Y0075000D01*
X0346021Y0075151D01*
X0346055Y0075301D01*
X0346092Y0075449D01*
X0346133Y0075597D01*
X0346178Y0075743D01*
X0346227Y0075889D01*
X0346280Y0076033D01*
X0346336Y0076175D01*
X0346396Y0076316D01*
X0346460Y0076456D01*
X0346527Y0076594D01*
X0346598Y0076730D01*
X0346673Y0076864D01*
X0346750Y0076996D01*
X0346832Y0077126D01*
X0346916Y0077254D01*
X0347004Y0077380D01*
X0347095Y0077503D01*
X0347189Y0077624D01*
X0347287Y0077742D01*
X0347387Y0077858D01*
X0347491Y0077971D01*
X0347597Y0078082D01*
X0347706Y0078190D01*
X0347818Y0078295D01*
X0347932Y0078396D01*
X0348050Y0078495D01*
X0348169Y0078591D01*
X0348291Y0078684D01*
X0348416Y0078773D01*
X0348543Y0078860D01*
X0348672Y0078942D01*
X0348803Y0079022D01*
X0348936Y0079098D01*
X0349071Y0079171D01*
X0349208Y0079240D01*
X0349347Y0079305D01*
X0349487Y0079367D01*
X0349629Y0079425D01*
X0349772Y0079480D01*
X0349917Y0079531D01*
X0350063Y0079578D01*
X0350210Y0079621D01*
X0350358Y0079660D01*
X0350507Y0079696D01*
X0350657Y0079727D01*
X0350808Y0079755D01*
X0350959Y0079779D01*
X0351112Y0079799D01*
X0351264Y0079815D01*
X0351417Y0079827D01*
X0351570Y0079835D01*
X0351723Y0079839D01*
X0351877Y0079839D01*
X0352030Y0079835D01*
X0352183Y0079827D01*
X0352336Y0079815D01*
X0352488Y0079799D01*
X0352641Y0079779D01*
X0352792Y0079755D01*
X0352943Y0079727D01*
X0353093Y0079696D01*
X0353242Y0079660D01*
X0353390Y0079621D01*
X0353537Y0079578D01*
X0353683Y0079531D01*
X0353828Y0079480D01*
X0353971Y0079425D01*
X0354113Y0079367D01*
X0354253Y0079305D01*
X0354392Y0079240D01*
X0354529Y0079171D01*
X0354664Y0079098D01*
X0354797Y0079022D01*
X0354928Y0078942D01*
X0355057Y0078860D01*
X0355184Y0078773D01*
X0355309Y0078684D01*
X0355431Y0078591D01*
X0355550Y0078495D01*
X0355668Y0078396D01*
X0355782Y0078295D01*
X0355894Y0078190D01*
X0356003Y0078082D01*
X0356109Y0077971D01*
X0356213Y0077858D01*
X0356313Y0077742D01*
X0356411Y0077624D01*
X0356505Y0077503D01*
X0356596Y0077380D01*
X0356684Y0077254D01*
X0356768Y0077126D01*
X0356850Y0076996D01*
X0356927Y0076864D01*
X0357002Y0076730D01*
X0357073Y0076594D01*
X0357140Y0076456D01*
X0357204Y0076316D01*
X0357264Y0076175D01*
X0357320Y0076033D01*
X0357373Y0075889D01*
X0357422Y0075743D01*
X0357467Y0075597D01*
X0357508Y0075449D01*
X0357545Y0075301D01*
X0357579Y0075151D01*
X0357609Y0075000D01*
X0357634Y0074849D01*
X0357656Y0074698D01*
X0357674Y0074545D01*
X0357688Y0074393D01*
X0357698Y0074240D01*
X0357704Y0074086D01*
X0357706Y0073933D01*
X0357704Y0073780D01*
X0357698Y0073626D01*
X0357688Y0073473D01*
X0357674Y0073321D01*
X0357656Y0073168D01*
X0357634Y0073017D01*
X0357609Y0072866D01*
X0357579Y0072715D01*
X0357545Y0072565D01*
X0357508Y0072417D01*
X0357467Y0072269D01*
X0357422Y0072123D01*
X0357373Y0071977D01*
X0357320Y0071833D01*
X0357264Y0071691D01*
X0357204Y0071550D01*
X0357140Y0071410D01*
X0357073Y0071272D01*
X0357002Y0071136D01*
X0356927Y0071002D01*
X0356850Y0070870D01*
X0356768Y0070740D01*
X0356684Y0070612D01*
X0356596Y0070486D01*
X0356505Y0070363D01*
X0356411Y0070242D01*
X0356313Y0070124D01*
X0356213Y0070008D01*
X0356109Y0069895D01*
X0356003Y0069784D01*
X0355894Y0069676D01*
X0355782Y0069571D01*
X0355668Y0069470D01*
X0355550Y0069371D01*
X0355431Y0069275D01*
X0355309Y0069182D01*
X0355184Y0069093D01*
X0355057Y0069006D01*
X0354928Y0068924D01*
X0354797Y0068844D01*
X0354664Y0068768D01*
X0354529Y0068695D01*
X0354392Y0068626D01*
X0354253Y0068561D01*
X0354113Y0068499D01*
X0353971Y0068441D01*
X0353828Y0068386D01*
X0353683Y0068335D01*
X0353537Y0068288D01*
X0353390Y0068245D01*
X0353242Y0068206D01*
X0353093Y0068170D01*
X0352943Y0068139D01*
X0352792Y0068111D01*
X0352641Y0068087D01*
X0352488Y0068067D01*
X0352336Y0068051D01*
X0352183Y0068039D01*
X0352030Y0068031D01*
X0351877Y0068027D01*
X0351723Y0068027D01*
X0351570Y0068031D01*
X0351417Y0068039D01*
X0351264Y0068051D01*
X0351112Y0068067D01*
X0350959Y0068087D01*
X0350808Y0068111D01*
X0350657Y0068139D01*
X0350507Y0068170D01*
X0350358Y0068206D01*
X0350210Y0068245D01*
X0350063Y0068288D01*
X0349917Y0068335D01*
X0349772Y0068386D01*
X0349629Y0068441D01*
X0349487Y0068499D01*
X0349347Y0068561D01*
X0349208Y0068626D01*
X0349071Y0068695D01*
X0348936Y0068768D01*
X0348803Y0068844D01*
X0348672Y0068924D01*
X0348543Y0069006D01*
X0348416Y0069093D01*
X0348291Y0069182D01*
X0348169Y0069275D01*
X0348050Y0069371D01*
X0347932Y0069470D01*
X0347818Y0069571D01*
X0347706Y0069676D01*
X0347597Y0069784D01*
X0347491Y0069895D01*
X0347387Y0070008D01*
X0347287Y0070124D01*
X0347189Y0070242D01*
X0347095Y0070363D01*
X0347004Y0070486D01*
X0346916Y0070612D01*
X0346832Y0070740D01*
X0346750Y0070870D01*
X0346673Y0071002D01*
X0346598Y0071136D01*
X0346527Y0071272D01*
X0346460Y0071410D01*
X0346396Y0071550D01*
X0346336Y0071691D01*
X0346280Y0071833D01*
X0346227Y0071977D01*
X0346178Y0072123D01*
X0346133Y0072269D01*
X0346092Y0072417D01*
X0346055Y0072565D01*
X0346021Y0072715D01*
X0345991Y0072866D01*
X0345966Y0073017D01*
X0345944Y0073168D01*
X0345926Y0073321D01*
X0345912Y0073473D01*
X0345902Y0073626D01*
X0345896Y0073780D01*
X0345894Y0073933D01*
D11*
X0256032Y0280764D03*
X0247568Y0280764D03*
X0247568Y0297102D03*
X0256032Y0297102D03*
X0186032Y0297102D03*
X0177568Y0297102D03*
X0177568Y0280764D03*
X0186032Y0280764D03*
D12*
X0191800Y0252378D03*
X0191800Y0245488D03*
X0241800Y0245488D03*
X0241800Y0252378D03*
X0236800Y0202378D03*
X0236800Y0195488D03*
D13*
X0137706Y0108933D03*
X0125894Y0108933D03*
D14*
X0261800Y0104780D03*
X0261800Y0098087D03*
D15*
X0135146Y0123933D03*
X0128454Y0123933D03*
X0291800Y0290587D03*
X0291800Y0297280D03*
D16*
X0276800Y0297378D03*
X0276800Y0290488D03*
X0261800Y0287378D03*
X0261800Y0280488D03*
X0221800Y0274878D03*
X0216800Y0274878D03*
X0211800Y0274878D03*
X0206800Y0274878D03*
X0206800Y0267988D03*
X0211800Y0267988D03*
X0216800Y0267988D03*
X0221800Y0267988D03*
X0254300Y0242319D03*
X0259300Y0242319D03*
X0264300Y0242319D03*
X0269300Y0242319D03*
X0171800Y0280488D03*
X0171800Y0287378D03*
X0151800Y0277378D03*
X0151800Y0270488D03*
X0131800Y0270488D03*
X0131800Y0277378D03*
X0276800Y0112378D03*
X0276800Y0105488D03*
X0286800Y0105488D03*
X0286800Y0112378D03*
D17*
X0277036Y0093933D03*
X0326800Y0159169D03*
X0101800Y0188697D03*
D18*
X0101800Y0178854D03*
X0101800Y0169012D03*
X0101800Y0159169D03*
X0286879Y0093933D03*
X0296721Y0093933D03*
X0306564Y0093933D03*
X0326800Y0169012D03*
X0326800Y0178854D03*
X0326800Y0188697D03*
D19*
X0231800Y0270587D03*
X0231800Y0277280D03*
D20*
X0228050Y0260270D03*
X0225550Y0260270D03*
X0223050Y0260270D03*
X0220550Y0260270D03*
X0218050Y0260270D03*
X0215550Y0260270D03*
X0213050Y0260270D03*
X0210550Y0260270D03*
X0208050Y0260270D03*
X0205550Y0260270D03*
X0205550Y0237596D03*
X0208050Y0237596D03*
X0210550Y0237596D03*
X0213050Y0237596D03*
X0215550Y0237596D03*
X0218050Y0237596D03*
X0220550Y0237596D03*
X0223050Y0237596D03*
X0225550Y0237596D03*
X0228050Y0237596D03*
D21*
X0221918Y0283402D03*
X0219359Y0283402D03*
X0216800Y0283402D03*
X0214241Y0283402D03*
X0211682Y0283402D03*
D22*
X0204595Y0283894D03*
X0229005Y0283894D03*
D23*
X0232548Y0293933D03*
X0201052Y0293933D03*
D24*
X0212076Y0293933D03*
X0221524Y0293933D03*
D25*
X0276800Y0283067D03*
X0276800Y0274799D03*
X0291800Y0274799D03*
X0291800Y0283067D03*
X0151800Y0284799D03*
X0151800Y0293067D03*
X0131800Y0293067D03*
X0131800Y0284799D03*
D26*
X0202755Y0214228D03*
X0205314Y0214228D03*
X0207873Y0214228D03*
X0210432Y0214228D03*
X0212991Y0214228D03*
X0215550Y0214228D03*
X0218109Y0214228D03*
X0220668Y0214228D03*
X0223227Y0214228D03*
X0225786Y0214228D03*
X0228345Y0214228D03*
X0230904Y0214228D03*
X0230845Y0183520D03*
X0228286Y0183520D03*
X0225727Y0183520D03*
X0223168Y0183520D03*
X0220609Y0183520D03*
X0218050Y0183520D03*
X0215491Y0183520D03*
X0212932Y0183520D03*
X0210373Y0183520D03*
X0207814Y0183520D03*
X0205255Y0183520D03*
X0202696Y0183520D03*
D27*
X0086800Y0218933D03*
X0086800Y0253933D03*
X0116800Y0078933D03*
X0151800Y0078933D03*
X0341800Y0218933D03*
X0341800Y0253933D03*
D28*
X0269300Y0264760D03*
X0264300Y0264760D03*
X0259300Y0264760D03*
X0254300Y0264760D03*
D29*
X0252233Y0163618D03*
X0252233Y0158618D03*
X0252233Y0153618D03*
X0252233Y0148618D03*
X0252233Y0143618D03*
X0252233Y0138618D03*
X0252233Y0133618D03*
X0252233Y0128618D03*
X0252233Y0123618D03*
X0252233Y0118618D03*
X0252233Y0113618D03*
X0252233Y0108618D03*
X0252233Y0103618D03*
X0252233Y0098618D03*
X0181367Y0098618D03*
X0181367Y0103618D03*
X0181367Y0108618D03*
X0181367Y0113618D03*
X0181367Y0118618D03*
X0181367Y0123618D03*
X0181367Y0128618D03*
X0181367Y0133618D03*
X0181367Y0138618D03*
X0181367Y0143618D03*
X0181367Y0148618D03*
X0181367Y0153618D03*
X0181367Y0158618D03*
X0181367Y0163618D03*
D30*
X0194300Y0169484D03*
X0199300Y0169484D03*
X0204300Y0169484D03*
X0209300Y0169484D03*
X0214300Y0169484D03*
X0219300Y0169484D03*
X0224300Y0169484D03*
X0229300Y0169484D03*
X0234300Y0169484D03*
X0239300Y0169484D03*
D31*
X0216800Y0128933D03*
D32*
X0151800Y0094839D02*
X0151800Y0078933D01*
X0151800Y0094839D02*
X0147253Y0099386D01*
X0137706Y0108933D01*
X0137706Y0123933D01*
X0125894Y0124333D02*
X0125894Y0153028D01*
X0156800Y0183933D01*
X0196800Y0183933D01*
X0198050Y0218933D02*
X0086800Y0218933D01*
X0086800Y0253933D02*
X0116800Y0253933D01*
X0141200Y0229533D01*
X0202441Y0229533D01*
X0207420Y0224553D01*
X0226800Y0223933D02*
X0226809Y0223933D01*
X0232409Y0229533D01*
X0287400Y0229533D01*
X0311800Y0253933D01*
X0341800Y0253933D01*
X0341800Y0218933D02*
X0236800Y0218933D01*
X0125894Y0124333D02*
X0125894Y0108933D01*
X0116800Y0099839D01*
X0116800Y0078933D01*
D33*
X0135146Y0123933D02*
X0137706Y0123933D01*
X0202282Y0183933D02*
X0202696Y0183520D01*
X0205255Y0183520D01*
X0211800Y0203933D02*
X0221800Y0203933D01*
X0225200Y0207333D01*
X0225786Y0207919D01*
X0225786Y0213110D01*
X0225786Y0214228D01*
X0223227Y0214228D01*
X0225745Y0213151D02*
X0225786Y0213110D01*
X0219300Y0214728D02*
X0219300Y0216993D01*
X0220270Y0217963D01*
X0219900Y0219214D02*
X0218609Y0217923D01*
X0218609Y0214728D01*
X0218609Y0214228D01*
X0218109Y0214228D01*
X0214550Y0215228D02*
X0214550Y0217424D01*
X0214300Y0217674D01*
X0214300Y0214228D01*
X0212991Y0214228D01*
X0212991Y0220124D01*
X0214300Y0221433D01*
X0219900Y0219714D02*
X0219900Y0219214D01*
X0207873Y0214228D02*
X0207873Y0207860D01*
X0211800Y0203933D01*
X0276800Y0112378D02*
X0286800Y0112378D01*
X0286800Y0105488D02*
X0286879Y0105409D01*
X0286879Y0093933D01*
X0277036Y0093933D02*
X0277036Y0105252D01*
X0276800Y0105488D01*
D34*
X0261800Y0104780D02*
X0260707Y0103687D01*
X0252302Y0103687D01*
X0247046Y0103687D01*
X0246800Y0103933D01*
X0252233Y0103618D02*
X0252302Y0103687D01*
X0252400Y0098018D02*
X0216800Y0098018D01*
X0216800Y0128933D01*
X0216800Y0098018D02*
X0211055Y0098018D01*
X0210455Y0098618D01*
X0181367Y0098618D01*
X0148020Y0098618D01*
X0147253Y0099386D01*
X0196800Y0183933D02*
X0196800Y0189933D01*
X0202800Y0195933D01*
X0229782Y0195933D01*
X0230572Y0195143D02*
X0230800Y0195143D01*
X0230800Y0190163D01*
X0232272Y0190163D01*
X0232272Y0183520D01*
X0202282Y0183933D02*
X0196800Y0183933D01*
X0202755Y0214228D02*
X0198050Y0218933D01*
X0207420Y0224553D02*
X0211180Y0224553D01*
X0214300Y0221433D01*
X0214300Y0219232D01*
X0214270Y0219203D01*
X0219900Y0219714D02*
X0224119Y0223933D01*
X0226809Y0223933D01*
X0235609Y0218933D02*
X0230904Y0214228D01*
X0235609Y0218933D02*
X0236800Y0218933D01*
X0252400Y0098018D02*
X0254553Y0098018D01*
X0254621Y0098087D01*
X0261800Y0098087D01*
D35*
X0246800Y0103933D03*
X0247000Y0112333D03*
X0261800Y0118933D03*
X0281800Y0138933D03*
X0239800Y0152533D03*
X0236200Y0152533D03*
X0227200Y0143533D03*
X0231400Y0160933D03*
X0225400Y0163333D03*
X0213400Y0163333D03*
X0209800Y0174733D03*
X0212200Y0177733D03*
X0215800Y0176533D03*
X0225400Y0177733D03*
X0223000Y0189733D03*
X0219400Y0189733D03*
X0210400Y0189733D03*
X0206800Y0189733D03*
X0196800Y0183933D03*
X0201400Y0175333D03*
X0182200Y0167533D03*
X0171400Y0173533D03*
X0159400Y0175933D03*
X0159400Y0157333D03*
X0163000Y0157333D03*
X0187000Y0154933D03*
X0188200Y0158533D03*
X0188200Y0148333D03*
X0188200Y0127333D03*
X0173200Y0112333D03*
X0163000Y0118933D03*
X0153400Y0109333D03*
X0145000Y0111733D03*
X0159400Y0126133D03*
X0160600Y0138133D03*
X0147400Y0130933D03*
X0216800Y0128933D03*
X0221800Y0107533D03*
X0240400Y0184333D03*
X0222800Y0200933D03*
X0211000Y0200933D03*
X0199000Y0211333D03*
X0212800Y0229333D03*
X0205600Y0241933D03*
X0210400Y0244333D03*
X0212800Y0250933D03*
X0216400Y0255733D03*
X0223600Y0255133D03*
X0228400Y0250933D03*
X0235600Y0248533D03*
X0236800Y0241933D03*
X0236200Y0237733D03*
X0247600Y0245533D03*
X0254200Y0237133D03*
X0263800Y0246733D03*
X0269800Y0249133D03*
X0217600Y0246133D03*
X0196600Y0251533D03*
X0199000Y0257533D03*
X0188200Y0270133D03*
X0187000Y0273733D03*
X0175600Y0285733D03*
X0166800Y0263933D03*
X0181800Y0258933D03*
X0141800Y0278933D03*
X0174400Y0191533D03*
D36*
X0070385Y0065664D02*
X0071709Y0063842D01*
X0073531Y0062518D01*
X0075674Y0061822D01*
X0076800Y0061733D01*
X0170750Y0061733D01*
X0170750Y0094368D01*
X0171365Y0094983D01*
X0258295Y0094983D01*
X0258154Y0095226D01*
X0258031Y0095684D01*
X0258031Y0097902D01*
X0261616Y0097902D01*
X0261616Y0098271D01*
X0258031Y0098271D01*
X0258031Y0099787D01*
X0256986Y0099787D01*
X0256986Y0098704D01*
X0252319Y0098704D01*
X0252319Y0098532D01*
X0252319Y0095046D01*
X0255423Y0095046D01*
X0255881Y0095169D01*
X0256291Y0095406D01*
X0256626Y0095741D01*
X0256863Y0096152D01*
X0256986Y0096609D01*
X0256986Y0098532D01*
X0252319Y0098532D01*
X0252147Y0098532D01*
X0252147Y0095046D01*
X0249043Y0095046D01*
X0248586Y0095169D01*
X0248175Y0095406D01*
X0247840Y0095741D01*
X0247603Y0096152D01*
X0247480Y0096609D01*
X0247480Y0098532D01*
X0252147Y0098532D01*
X0252147Y0098704D01*
X0247480Y0098704D01*
X0247480Y0099787D01*
X0246271Y0099787D01*
X0244837Y0100380D01*
X0243740Y0101477D01*
X0243494Y0101724D01*
X0242900Y0103157D01*
X0242900Y0104709D01*
X0243494Y0106142D01*
X0244591Y0107239D01*
X0246024Y0107833D01*
X0247576Y0107833D01*
X0247880Y0107707D01*
X0247880Y0109049D01*
X0247285Y0109644D01*
X0246465Y0109644D01*
X0245477Y0110053D01*
X0244720Y0110810D01*
X0244311Y0111798D01*
X0244311Y0112868D01*
X0244720Y0113856D01*
X0245477Y0114613D01*
X0246465Y0115022D01*
X0247535Y0115022D01*
X0247880Y0114879D01*
X0247880Y0115970D01*
X0248029Y0116118D01*
X0247880Y0116267D01*
X0247880Y0120970D01*
X0248029Y0121118D01*
X0247880Y0121267D01*
X0247880Y0121433D01*
X0238104Y0121433D01*
X0224489Y0107818D01*
X0224489Y0106998D01*
X0224080Y0106010D01*
X0223323Y0105253D01*
X0222335Y0104844D01*
X0221265Y0104844D01*
X0220277Y0105253D01*
X0219520Y0106010D01*
X0219111Y0106998D01*
X0219111Y0108068D01*
X0219520Y0109056D01*
X0220277Y0109813D01*
X0221265Y0110222D01*
X0222085Y0110222D01*
X0227185Y0115322D01*
X0217600Y0115322D01*
X0217600Y0128133D01*
X0216000Y0128133D01*
X0216000Y0115322D01*
X0204752Y0115322D01*
X0204294Y0115445D01*
X0203884Y0115682D01*
X0203549Y0116017D01*
X0203312Y0116427D01*
X0203189Y0116885D01*
X0203189Y0128133D01*
X0216000Y0128133D01*
X0216000Y0129733D01*
X0203189Y0129733D01*
X0203189Y0140981D01*
X0203312Y0141439D01*
X0203549Y0141849D01*
X0203884Y0142184D01*
X0204294Y0142421D01*
X0204752Y0142544D01*
X0216000Y0142544D01*
X0216000Y0129733D01*
X0217600Y0129733D01*
X0230411Y0129733D01*
X0230411Y0137918D01*
X0236096Y0132233D01*
X0247880Y0132233D01*
X0247880Y0131267D01*
X0248029Y0131118D01*
X0247880Y0130970D01*
X0247880Y0126267D01*
X0248029Y0126118D01*
X0247880Y0125970D01*
X0247880Y0124833D01*
X0236696Y0124833D01*
X0230411Y0118548D01*
X0230411Y0128133D01*
X0217600Y0128133D01*
X0217600Y0129733D01*
X0217600Y0142544D01*
X0224699Y0142544D01*
X0224511Y0142998D01*
X0224511Y0144068D01*
X0224920Y0145056D01*
X0225677Y0145813D01*
X0226665Y0146222D01*
X0227735Y0146222D01*
X0228723Y0145813D01*
X0229480Y0145056D01*
X0229889Y0144068D01*
X0229889Y0143248D01*
X0237504Y0135633D01*
X0247880Y0135633D01*
X0247880Y0135970D01*
X0248029Y0136118D01*
X0247880Y0136267D01*
X0247880Y0138449D01*
X0236485Y0149844D01*
X0235665Y0149844D01*
X0234677Y0150253D01*
X0233920Y0151010D01*
X0233511Y0151998D01*
X0233511Y0153068D01*
X0233920Y0154056D01*
X0234677Y0154813D01*
X0235665Y0155222D01*
X0236735Y0155222D01*
X0237723Y0154813D01*
X0238000Y0154536D01*
X0238277Y0154813D01*
X0239265Y0155222D01*
X0240335Y0155222D01*
X0241323Y0154813D01*
X0242080Y0154056D01*
X0242489Y0153068D01*
X0242489Y0152248D01*
X0247880Y0146857D01*
X0247880Y0150970D01*
X0248029Y0151118D01*
X0247880Y0151267D01*
X0247880Y0155970D01*
X0248029Y0156118D01*
X0247880Y0156267D01*
X0247880Y0160970D01*
X0248029Y0161118D01*
X0247880Y0161267D01*
X0247880Y0165970D01*
X0248700Y0166790D01*
X0255766Y0166790D01*
X0256586Y0165970D01*
X0256586Y0161267D01*
X0256437Y0161118D01*
X0256586Y0160970D01*
X0256586Y0160833D01*
X0322400Y0160833D01*
X0322400Y0162749D01*
X0323220Y0163569D01*
X0327760Y0163569D01*
X0326717Y0164612D01*
X0325925Y0164612D01*
X0324308Y0165282D01*
X0323070Y0166519D01*
X0322400Y0168137D01*
X0322400Y0169887D01*
X0323070Y0171504D01*
X0324308Y0172742D01*
X0325925Y0173412D01*
X0327675Y0173412D01*
X0328240Y0173178D01*
X0329300Y0174237D01*
X0329300Y0175132D01*
X0329292Y0175124D01*
X0327675Y0174454D01*
X0325925Y0174454D01*
X0324308Y0175124D01*
X0323070Y0176362D01*
X0322400Y0177979D01*
X0322400Y0179730D01*
X0323070Y0181347D01*
X0324308Y0182584D01*
X0325925Y0183254D01*
X0327675Y0183254D01*
X0329292Y0182584D01*
X0329300Y0182577D01*
X0329300Y0184584D01*
X0328643Y0184249D01*
X0327924Y0184015D01*
X0327178Y0183897D01*
X0327000Y0183897D01*
X0327000Y0188497D01*
X0326600Y0188497D01*
X0322000Y0188497D01*
X0322000Y0188319D01*
X0322118Y0187573D01*
X0322352Y0186854D01*
X0322695Y0186181D01*
X0323139Y0185570D01*
X0323673Y0185036D01*
X0324284Y0184592D01*
X0324957Y0184249D01*
X0325676Y0184015D01*
X0326422Y0183897D01*
X0326600Y0183897D01*
X0326600Y0188497D01*
X0326600Y0188897D01*
X0322000Y0188897D01*
X0322000Y0189075D01*
X0322118Y0189821D01*
X0322352Y0190539D01*
X0322695Y0191213D01*
X0323139Y0191824D01*
X0323673Y0192358D01*
X0324284Y0192802D01*
X0324957Y0193145D01*
X0325581Y0193348D01*
X0318296Y0200633D01*
X0240326Y0200633D01*
X0240326Y0199731D01*
X0239752Y0199157D01*
X0240031Y0198995D01*
X0240366Y0198660D01*
X0240603Y0198250D01*
X0240726Y0197792D01*
X0240726Y0195722D01*
X0237034Y0195722D01*
X0237034Y0195255D01*
X0240726Y0195255D01*
X0240726Y0193184D01*
X0240603Y0192726D01*
X0240366Y0192316D01*
X0240031Y0191981D01*
X0239621Y0191744D01*
X0239163Y0191621D01*
X0237033Y0191621D01*
X0237033Y0195255D01*
X0236567Y0195255D01*
X0236567Y0191621D01*
X0235889Y0191621D01*
X0236172Y0190939D01*
X0236172Y0182744D01*
X0236006Y0182343D01*
X0237711Y0184048D01*
X0237711Y0184868D01*
X0238120Y0185856D01*
X0238877Y0186613D01*
X0239865Y0187022D01*
X0240935Y0187022D01*
X0241923Y0186613D01*
X0242680Y0185856D01*
X0243089Y0184868D01*
X0243089Y0183798D01*
X0242680Y0182810D01*
X0241923Y0182053D01*
X0240935Y0181644D01*
X0240115Y0181644D01*
X0236100Y0177629D01*
X0236100Y0173837D01*
X0236383Y0173837D01*
X0236423Y0173877D01*
X0236834Y0174114D01*
X0237291Y0174237D01*
X0239214Y0174237D01*
X0239214Y0169570D01*
X0239386Y0169570D01*
X0242872Y0169570D01*
X0242872Y0172674D01*
X0242749Y0173132D01*
X0242512Y0173542D01*
X0242177Y0173877D01*
X0241766Y0174114D01*
X0241309Y0174237D01*
X0239386Y0174237D01*
X0239386Y0169570D01*
X0239386Y0169398D01*
X0239386Y0164731D01*
X0241309Y0164731D01*
X0241766Y0164854D01*
X0242177Y0165091D01*
X0242512Y0165426D01*
X0242749Y0165837D01*
X0242872Y0166295D01*
X0242872Y0169398D01*
X0239386Y0169398D01*
X0239214Y0169398D01*
X0239214Y0164731D01*
X0237291Y0164731D01*
X0236834Y0164854D01*
X0236423Y0165091D01*
X0236383Y0165131D01*
X0231948Y0165131D01*
X0231800Y0165280D01*
X0231652Y0165131D01*
X0227404Y0165131D01*
X0227680Y0164856D01*
X0228089Y0163868D01*
X0228089Y0162798D01*
X0228021Y0162633D01*
X0229297Y0162633D01*
X0229877Y0163213D01*
X0230865Y0163622D01*
X0231935Y0163622D01*
X0232923Y0163213D01*
X0233680Y0162456D01*
X0234089Y0161468D01*
X0234089Y0160398D01*
X0233680Y0159410D01*
X0232923Y0158653D01*
X0231935Y0158244D01*
X0230865Y0158244D01*
X0229877Y0158653D01*
X0229297Y0159233D01*
X0195896Y0159233D01*
X0193500Y0161629D01*
X0193500Y0117029D01*
X0192504Y0116033D01*
X0185720Y0109249D01*
X0185720Y0106267D01*
X0185571Y0106118D01*
X0185720Y0105970D01*
X0185720Y0101535D01*
X0185760Y0101495D01*
X0185997Y0101085D01*
X0186120Y0100627D01*
X0186120Y0098704D01*
X0181453Y0098704D01*
X0181453Y0098532D01*
X0186120Y0098532D01*
X0186120Y0096609D01*
X0185997Y0096152D01*
X0185760Y0095741D01*
X0185425Y0095406D01*
X0185014Y0095169D01*
X0184557Y0095046D01*
X0181453Y0095046D01*
X0181453Y0098532D01*
X0181281Y0098532D01*
X0181281Y0095046D01*
X0178177Y0095046D01*
X0177719Y0095169D01*
X0177309Y0095406D01*
X0176974Y0095741D01*
X0176737Y0096152D01*
X0176614Y0096609D01*
X0176614Y0098532D01*
X0181281Y0098532D01*
X0181281Y0098704D01*
X0176614Y0098704D01*
X0176614Y0100627D01*
X0176737Y0101085D01*
X0176974Y0101495D01*
X0177014Y0101535D01*
X0177014Y0102233D01*
X0152096Y0102233D01*
X0145285Y0109044D01*
X0144465Y0109044D01*
X0143477Y0109453D01*
X0143197Y0109733D01*
X0138506Y0109733D01*
X0138506Y0108133D01*
X0143442Y0108133D01*
X0143443Y0104365D01*
X0143320Y0103908D01*
X0143083Y0103497D01*
X0142748Y0103162D01*
X0142337Y0102925D01*
X0141879Y0102802D01*
X0138505Y0102802D01*
X0138505Y0108133D01*
X0136906Y0108133D01*
X0136906Y0102802D01*
X0133532Y0102802D01*
X0133074Y0102925D01*
X0132663Y0103162D01*
X0132328Y0103497D01*
X0132091Y0103908D01*
X0131969Y0104365D01*
X0131969Y0106873D01*
X0131320Y0105308D01*
X0131231Y0105219D01*
X0131231Y0104022D01*
X0130411Y0103202D01*
X0129215Y0103202D01*
X0123200Y0097188D01*
X0123200Y0095097D01*
X0132144Y0095097D01*
X0132964Y0094277D01*
X0132964Y0063589D01*
X0132144Y0062769D01*
X0101456Y0062769D01*
X0100636Y0063589D01*
X0100636Y0094277D01*
X0101456Y0095097D01*
X0110400Y0095097D01*
X0110400Y0101112D01*
X0111374Y0103464D01*
X0119494Y0111584D01*
X0119494Y0154301D01*
X0120469Y0156653D01*
X0151374Y0187558D01*
X0153175Y0189359D01*
X0155527Y0190333D01*
X0171987Y0190333D01*
X0171711Y0190998D01*
X0171711Y0192068D01*
X0172120Y0193056D01*
X0172877Y0193813D01*
X0173865Y0194222D01*
X0174685Y0194222D01*
X0192996Y0212533D01*
X0102964Y0212533D01*
X0102964Y0203589D01*
X0102144Y0202769D01*
X0071456Y0202769D01*
X0070636Y0203589D01*
X0070636Y0234277D01*
X0071456Y0235097D01*
X0102144Y0235097D01*
X0102964Y0234277D01*
X0102964Y0225333D01*
X0136349Y0225333D01*
X0135774Y0225908D01*
X0114149Y0247533D01*
X0102964Y0247533D01*
X0102964Y0238589D01*
X0102144Y0237769D01*
X0071456Y0237769D01*
X0070636Y0238589D01*
X0070636Y0269277D01*
X0071456Y0270097D01*
X0102144Y0270097D01*
X0102964Y0269277D01*
X0102964Y0260333D01*
X0118073Y0260333D01*
X0120425Y0259359D01*
X0143851Y0235933D01*
X0203400Y0235933D01*
X0203400Y0240327D01*
X0203402Y0240329D01*
X0203320Y0240410D01*
X0202911Y0241398D01*
X0202911Y0242468D01*
X0203320Y0243456D01*
X0204077Y0244213D01*
X0205065Y0244622D01*
X0206135Y0244622D01*
X0206300Y0244554D01*
X0206300Y0246237D01*
X0209300Y0249237D01*
X0210296Y0250233D01*
X0218296Y0250233D01*
X0217496Y0251033D01*
X0217496Y0251033D01*
X0216500Y0252029D01*
X0216500Y0253044D01*
X0215865Y0253044D01*
X0214877Y0253453D01*
X0214120Y0254210D01*
X0213711Y0255198D01*
X0213711Y0256268D01*
X0213845Y0256592D01*
X0213695Y0256679D01*
X0213654Y0256719D01*
X0204220Y0256719D01*
X0204205Y0256734D01*
X0199289Y0251818D01*
X0199289Y0250998D01*
X0198880Y0250010D01*
X0198123Y0249253D01*
X0197135Y0248844D01*
X0196065Y0248844D01*
X0195077Y0249253D01*
X0194963Y0249368D01*
X0194752Y0249157D01*
X0195031Y0248995D01*
X0195366Y0248660D01*
X0195603Y0248250D01*
X0195726Y0247792D01*
X0195726Y0245722D01*
X0192034Y0245722D01*
X0192034Y0245255D01*
X0195726Y0245255D01*
X0195726Y0243184D01*
X0195603Y0242726D01*
X0195366Y0242316D01*
X0195031Y0241981D01*
X0194621Y0241744D01*
X0194163Y0241621D01*
X0192033Y0241621D01*
X0192033Y0245255D01*
X0191567Y0245255D01*
X0191567Y0241621D01*
X0189437Y0241621D01*
X0188979Y0241744D01*
X0188569Y0241981D01*
X0188234Y0242316D01*
X0187997Y0242726D01*
X0187874Y0243184D01*
X0187874Y0245255D01*
X0191566Y0245255D01*
X0191566Y0245722D01*
X0187874Y0245722D01*
X0187874Y0247792D01*
X0187997Y0248250D01*
X0188234Y0248660D01*
X0188569Y0248995D01*
X0188848Y0249157D01*
X0188274Y0249731D01*
X0188274Y0251033D01*
X0168896Y0251033D01*
X0152908Y0267021D01*
X0149547Y0267021D01*
X0148727Y0267841D01*
X0148727Y0269033D01*
X0134873Y0269033D01*
X0134873Y0267841D01*
X0134053Y0267021D01*
X0129547Y0267021D01*
X0128727Y0267841D01*
X0128727Y0273135D01*
X0129525Y0273933D01*
X0128727Y0274731D01*
X0128727Y0280025D01*
X0129547Y0280845D01*
X0129600Y0280845D01*
X0129600Y0281037D01*
X0128858Y0281037D01*
X0128038Y0281857D01*
X0128038Y0287741D01*
X0128858Y0288561D01*
X0133768Y0288561D01*
X0133024Y0289305D01*
X0128858Y0289305D01*
X0128038Y0290125D01*
X0128038Y0296009D01*
X0128858Y0296829D01*
X0134742Y0296829D01*
X0135562Y0296009D01*
X0135562Y0291575D01*
X0136104Y0291033D01*
X0148038Y0291033D01*
X0148038Y0296009D01*
X0148858Y0296829D01*
X0154742Y0296829D01*
X0155562Y0296009D01*
X0155562Y0291975D01*
X0168727Y0278810D01*
X0168727Y0283135D01*
X0169525Y0283933D01*
X0168727Y0284731D01*
X0168727Y0290025D01*
X0169547Y0290845D01*
X0174053Y0290845D01*
X0174873Y0290025D01*
X0174873Y0288633D01*
X0175104Y0288633D01*
X0175315Y0288422D01*
X0176135Y0288422D01*
X0177123Y0288013D01*
X0177880Y0287256D01*
X0178289Y0286268D01*
X0178289Y0285198D01*
X0178068Y0284664D01*
X0179398Y0284664D01*
X0180218Y0283844D01*
X0180218Y0280520D01*
X0183082Y0277655D01*
X0182982Y0278027D01*
X0182982Y0280764D01*
X0186032Y0280764D01*
X0186032Y0280764D01*
X0186032Y0285064D01*
X0184545Y0285064D01*
X0184087Y0284941D01*
X0183677Y0284704D01*
X0183342Y0284369D01*
X0183105Y0283959D01*
X0182982Y0283501D01*
X0182982Y0280764D01*
X0186032Y0280764D01*
X0186032Y0280764D01*
X0186032Y0285064D01*
X0187519Y0285064D01*
X0187977Y0284941D01*
X0188387Y0284704D01*
X0188723Y0284369D01*
X0188960Y0283959D01*
X0189082Y0283501D01*
X0189082Y0280764D01*
X0186032Y0280764D01*
X0186032Y0280764D01*
X0186032Y0276464D01*
X0184545Y0276464D01*
X0184174Y0276563D01*
X0185101Y0275637D01*
X0185477Y0276013D01*
X0186465Y0276422D01*
X0187535Y0276422D01*
X0188523Y0276013D01*
X0189280Y0275256D01*
X0189689Y0274268D01*
X0189689Y0273198D01*
X0189416Y0272540D01*
X0189723Y0272413D01*
X0190480Y0271656D01*
X0190889Y0270668D01*
X0190889Y0269598D01*
X0190480Y0268610D01*
X0189723Y0267853D01*
X0188735Y0267444D01*
X0187665Y0267444D01*
X0186677Y0267853D01*
X0186097Y0268433D01*
X0176704Y0268433D01*
X0178704Y0266433D01*
X0203727Y0266433D01*
X0203727Y0270635D01*
X0204301Y0271209D01*
X0204022Y0271371D01*
X0203686Y0271706D01*
X0203449Y0272116D01*
X0203327Y0272574D01*
X0203327Y0274841D01*
X0206763Y0274841D01*
X0206763Y0274915D01*
X0206763Y0278745D01*
X0204890Y0278745D01*
X0204432Y0278622D01*
X0204022Y0278385D01*
X0203686Y0278050D01*
X0203449Y0277640D01*
X0203327Y0277182D01*
X0203327Y0274915D01*
X0206763Y0274915D01*
X0206837Y0274915D01*
X0206837Y0278745D01*
X0208710Y0278745D01*
X0209168Y0278622D01*
X0209578Y0278385D01*
X0209600Y0278364D01*
X0209600Y0279168D01*
X0209424Y0279067D01*
X0208966Y0278944D01*
X0205370Y0278944D01*
X0205370Y0283119D01*
X0205370Y0284669D01*
X0209094Y0284669D01*
X0209094Y0283402D01*
X0211682Y0283402D01*
X0211682Y0283402D01*
X0211682Y0287859D01*
X0212706Y0287859D01*
X0213164Y0287736D01*
X0213575Y0287499D01*
X0213615Y0287459D01*
X0223119Y0287459D01*
X0223194Y0287738D01*
X0223430Y0288149D01*
X0223675Y0288393D01*
X0222324Y0288393D01*
X0222324Y0293133D01*
X0220724Y0293133D01*
X0212876Y0293133D01*
X0212876Y0294733D01*
X0217616Y0294733D01*
X0220724Y0294733D01*
X0220724Y0293133D01*
X0220724Y0288393D01*
X0217547Y0288393D01*
X0217089Y0288516D01*
X0216800Y0288683D01*
X0216511Y0288516D01*
X0216053Y0288393D01*
X0212876Y0288393D01*
X0212876Y0293133D01*
X0211276Y0293133D01*
X0211276Y0288393D01*
X0209925Y0288393D01*
X0210169Y0288149D01*
X0210380Y0287785D01*
X0210658Y0287859D01*
X0211682Y0287859D01*
X0211682Y0283402D01*
X0211682Y0283402D01*
X0211682Y0293539D01*
X0211288Y0293933D01*
X0201052Y0293933D01*
X0201052Y0287437D01*
X0204595Y0283894D01*
X0204595Y0277083D01*
X0206800Y0274878D01*
X0206763Y0276331D02*
X0206837Y0276331D01*
X0206837Y0277929D02*
X0206763Y0277929D01*
X0205370Y0279528D02*
X0203820Y0279528D01*
X0203820Y0278944D02*
X0203820Y0283119D01*
X0198661Y0283119D01*
X0198661Y0280507D01*
X0198784Y0280049D01*
X0199021Y0279639D01*
X0199356Y0279304D01*
X0199767Y0279067D01*
X0200224Y0278944D01*
X0203820Y0278944D01*
X0203617Y0277929D02*
X0189056Y0277929D01*
X0189082Y0278027D02*
X0189082Y0280764D01*
X0186032Y0280764D01*
X0186032Y0280764D01*
X0186032Y0276464D01*
X0187519Y0276464D01*
X0187977Y0276586D01*
X0188387Y0276823D01*
X0188723Y0277159D01*
X0188960Y0277569D01*
X0189082Y0278027D01*
X0189082Y0279528D02*
X0199132Y0279528D01*
X0198661Y0281126D02*
X0189082Y0281126D01*
X0189082Y0282725D02*
X0198661Y0282725D01*
X0198661Y0284669D02*
X0203820Y0284669D01*
X0203820Y0283119D01*
X0205370Y0283119D01*
X0209094Y0283119D01*
X0209094Y0283402D01*
X0211682Y0283402D01*
X0211682Y0284323D02*
X0211682Y0284323D01*
X0211682Y0285922D02*
X0211682Y0285922D01*
X0211682Y0287520D02*
X0211682Y0287520D01*
X0211276Y0289119D02*
X0212876Y0289119D01*
X0212876Y0290717D02*
X0211276Y0290717D01*
X0211276Y0292316D02*
X0212876Y0292316D01*
X0212876Y0293914D02*
X0220724Y0293914D01*
X0221524Y0293933D02*
X0232548Y0293933D01*
X0232548Y0287437D01*
X0229005Y0283894D01*
X0229780Y0284323D02*
X0244851Y0284323D01*
X0244877Y0284369D02*
X0244640Y0283959D01*
X0244518Y0283501D01*
X0244518Y0280764D01*
X0247568Y0280764D01*
X0247568Y0280764D01*
X0247568Y0285064D01*
X0249055Y0285064D01*
X0249512Y0284941D01*
X0249923Y0284704D01*
X0250258Y0284369D01*
X0250495Y0283959D01*
X0250618Y0283501D01*
X0250618Y0283355D01*
X0255896Y0288633D01*
X0258727Y0288633D01*
X0258727Y0290025D01*
X0259547Y0290845D01*
X0264053Y0290845D01*
X0264873Y0290025D01*
X0264873Y0284731D01*
X0264075Y0283933D01*
X0264873Y0283135D01*
X0264873Y0279864D01*
X0273900Y0270837D01*
X0273900Y0261029D01*
X0272904Y0260033D01*
X0261300Y0248429D01*
X0261300Y0247724D01*
X0261520Y0248256D01*
X0262277Y0249013D01*
X0263265Y0249422D01*
X0264085Y0249422D01*
X0288038Y0273375D01*
X0288038Y0277741D01*
X0288858Y0278561D01*
X0294742Y0278561D01*
X0295562Y0277741D01*
X0295562Y0271857D01*
X0294742Y0271037D01*
X0290508Y0271037D01*
X0271012Y0251541D01*
X0271323Y0251413D01*
X0272080Y0250656D01*
X0272489Y0249668D01*
X0272489Y0248598D01*
X0272080Y0247610D01*
X0271500Y0247030D01*
X0271500Y0245786D01*
X0271553Y0245786D01*
X0272373Y0244966D01*
X0272373Y0239672D01*
X0271553Y0238852D01*
X0267047Y0238852D01*
X0266800Y0239099D01*
X0266553Y0238852D01*
X0262047Y0238852D01*
X0261800Y0239099D01*
X0261553Y0238852D01*
X0257047Y0238852D01*
X0256800Y0239099D01*
X0256553Y0238852D01*
X0256284Y0238852D01*
X0256480Y0238656D01*
X0256889Y0237668D01*
X0256889Y0236598D01*
X0256613Y0235933D01*
X0284749Y0235933D01*
X0308175Y0259359D01*
X0310527Y0260333D01*
X0325636Y0260333D01*
X0325636Y0269277D01*
X0326456Y0270097D01*
X0357144Y0270097D01*
X0357964Y0269277D01*
X0357964Y0238589D01*
X0357144Y0237769D01*
X0326456Y0237769D01*
X0325636Y0238589D01*
X0325636Y0247533D01*
X0314451Y0247533D01*
X0292826Y0225908D01*
X0292251Y0225333D01*
X0325636Y0225333D01*
X0325636Y0234277D01*
X0326456Y0235097D01*
X0357144Y0235097D01*
X0357964Y0234277D01*
X0357964Y0203589D01*
X0357144Y0202769D01*
X0326456Y0202769D01*
X0325636Y0203589D01*
X0325636Y0212533D01*
X0235527Y0212533D01*
X0234960Y0212768D01*
X0233190Y0210999D01*
X0233190Y0210105D01*
X0232370Y0209285D01*
X0227818Y0209285D01*
X0227777Y0209245D01*
X0227367Y0209008D01*
X0226909Y0208885D01*
X0225786Y0208885D01*
X0225786Y0209983D01*
X0225786Y0209983D01*
X0225786Y0208885D01*
X0224663Y0208885D01*
X0224507Y0208927D01*
X0224350Y0208885D01*
X0223227Y0208885D01*
X0223227Y0209983D01*
X0223227Y0208885D01*
X0222104Y0208885D01*
X0221647Y0209008D01*
X0221236Y0209245D01*
X0221196Y0209285D01*
X0212463Y0209285D01*
X0212423Y0209245D01*
X0212012Y0209008D01*
X0211555Y0208885D01*
X0210432Y0208885D01*
X0210432Y0209983D01*
X0210432Y0209983D01*
X0210432Y0208885D01*
X0209309Y0208885D01*
X0209152Y0208927D01*
X0208996Y0208885D01*
X0207873Y0208885D01*
X0207873Y0209983D01*
X0207873Y0209983D01*
X0207873Y0208885D01*
X0206750Y0208885D01*
X0206292Y0209008D01*
X0205882Y0209245D01*
X0205841Y0209285D01*
X0201289Y0209285D01*
X0201022Y0209552D01*
X0200523Y0209053D01*
X0199535Y0208644D01*
X0198465Y0208644D01*
X0197477Y0209053D01*
X0196897Y0209633D01*
X0194904Y0209633D01*
X0177089Y0191818D01*
X0177089Y0190998D01*
X0176813Y0190333D01*
X0192900Y0190333D01*
X0192900Y0190709D01*
X0193494Y0192142D01*
X0200591Y0199239D01*
X0202024Y0199833D01*
X0208545Y0199833D01*
X0208311Y0200398D01*
X0208311Y0201468D01*
X0208720Y0202456D01*
X0209477Y0203213D01*
X0210465Y0203622D01*
X0211535Y0203622D01*
X0212523Y0203213D01*
X0213103Y0202633D01*
X0220697Y0202633D01*
X0221277Y0203213D01*
X0222265Y0203622D01*
X0223335Y0203622D01*
X0224323Y0203213D01*
X0225080Y0202456D01*
X0225489Y0201468D01*
X0225489Y0200398D01*
X0225255Y0199833D01*
X0230558Y0199833D01*
X0231991Y0199239D01*
X0232620Y0198610D01*
X0233009Y0198449D01*
X0233074Y0198384D01*
X0233234Y0198660D01*
X0233569Y0198995D01*
X0233848Y0199157D01*
X0233274Y0199731D01*
X0233274Y0205025D01*
X0234094Y0205845D01*
X0239506Y0205845D01*
X0240326Y0205025D01*
X0240326Y0204033D01*
X0319704Y0204033D01*
X0331704Y0192033D01*
X0332700Y0191037D01*
X0332700Y0172829D01*
X0330778Y0170907D01*
X0331200Y0169887D01*
X0331200Y0168137D01*
X0330530Y0166519D01*
X0330074Y0166063D01*
X0331704Y0164433D01*
X0332700Y0163437D01*
X0332700Y0154829D01*
X0289873Y0112002D01*
X0289873Y0110264D01*
X0293304Y0106833D01*
X0294300Y0105837D01*
X0294300Y0098087D01*
X0294879Y0098381D01*
X0295597Y0098615D01*
X0296343Y0098733D01*
X0296521Y0098733D01*
X0296521Y0094133D01*
X0296921Y0094133D01*
X0296921Y0098733D01*
X0297099Y0098733D01*
X0297845Y0098615D01*
X0298564Y0098381D01*
X0299237Y0098038D01*
X0299848Y0097594D01*
X0300382Y0097060D01*
X0300827Y0096449D01*
X0301170Y0095776D01*
X0301403Y0095057D01*
X0301521Y0094311D01*
X0301521Y0094133D01*
X0296921Y0094133D01*
X0296921Y0093733D01*
X0301521Y0093733D01*
X0301521Y0093555D01*
X0301403Y0092809D01*
X0301170Y0092091D01*
X0300827Y0091417D01*
X0300693Y0091233D01*
X0301496Y0091233D01*
X0302503Y0092240D01*
X0302164Y0093058D01*
X0302164Y0094808D01*
X0302834Y0096425D01*
X0304071Y0097663D01*
X0305689Y0098333D01*
X0307439Y0098333D01*
X0309056Y0097663D01*
X0310294Y0096425D01*
X0310964Y0094808D01*
X0310964Y0093058D01*
X0310294Y0091441D01*
X0309056Y0090203D01*
X0307439Y0089533D01*
X0305689Y0089533D01*
X0304922Y0089851D01*
X0302904Y0087833D01*
X0294896Y0087833D01*
X0293900Y0088829D01*
X0292000Y0090729D01*
X0288900Y0087629D01*
X0287904Y0086633D01*
X0272696Y0086633D01*
X0264896Y0094433D01*
X0264857Y0094471D01*
X0264463Y0094244D01*
X0264005Y0094121D01*
X0262850Y0094121D01*
X0262850Y0061733D01*
X0351800Y0061733D01*
X0352926Y0061822D01*
X0355069Y0062518D01*
X0356891Y0063842D01*
X0358215Y0065664D01*
X0358911Y0067807D01*
X0358990Y0068812D01*
X0356731Y0066553D01*
X0353532Y0065228D01*
X0350068Y0065228D01*
X0346869Y0066553D01*
X0344420Y0069002D01*
X0343094Y0072201D01*
X0343094Y0075665D01*
X0344420Y0078864D01*
X0346869Y0081313D01*
X0350068Y0082639D01*
X0353532Y0082639D01*
X0356731Y0081313D01*
X0359000Y0079045D01*
X0359000Y0283822D01*
X0356731Y0281553D01*
X0353532Y0280228D01*
X0350068Y0280228D01*
X0346869Y0281553D01*
X0344420Y0284002D01*
X0343094Y0287201D01*
X0343094Y0290665D01*
X0344420Y0293864D01*
X0346869Y0296313D01*
X0350068Y0297639D01*
X0353532Y0297639D01*
X0356731Y0296313D01*
X0358990Y0294054D01*
X0358911Y0295059D01*
X0358215Y0297202D01*
X0356891Y0299024D01*
X0355069Y0300348D01*
X0352926Y0301044D01*
X0351800Y0301133D01*
X0279127Y0301133D01*
X0279168Y0301122D01*
X0279578Y0300885D01*
X0279914Y0300550D01*
X0280151Y0300140D01*
X0280273Y0299682D01*
X0280273Y0297415D01*
X0276837Y0297415D01*
X0276837Y0297341D01*
X0280273Y0297341D01*
X0280273Y0295074D01*
X0280151Y0294616D01*
X0279914Y0294206D01*
X0279578Y0293871D01*
X0279299Y0293709D01*
X0279873Y0293135D01*
X0279873Y0287841D01*
X0279053Y0287021D01*
X0279000Y0287021D01*
X0279000Y0286829D01*
X0279742Y0286829D01*
X0280562Y0286009D01*
X0280562Y0280125D01*
X0279742Y0279305D01*
X0273858Y0279305D01*
X0273038Y0280125D01*
X0273038Y0286009D01*
X0273858Y0286829D01*
X0274600Y0286829D01*
X0274600Y0287021D01*
X0274547Y0287021D01*
X0273727Y0287841D01*
X0273727Y0293135D01*
X0274301Y0293709D01*
X0274022Y0293871D01*
X0273686Y0294206D01*
X0273449Y0294616D01*
X0273327Y0295074D01*
X0273327Y0297341D01*
X0276763Y0297341D01*
X0276763Y0297415D01*
X0273327Y0297415D01*
X0273327Y0299682D01*
X0273449Y0300140D01*
X0273686Y0300550D01*
X0274022Y0300885D01*
X0274432Y0301122D01*
X0274473Y0301133D01*
X0076800Y0301133D01*
X0075674Y0301044D01*
X0073531Y0300348D01*
X0071709Y0299024D01*
X0070385Y0297202D01*
X0069689Y0295059D01*
X0069610Y0294054D01*
X0071869Y0296313D01*
X0075068Y0297639D01*
X0078532Y0297639D01*
X0081731Y0296313D01*
X0084180Y0293864D01*
X0085505Y0290665D01*
X0085505Y0287201D01*
X0084180Y0284002D01*
X0081731Y0281553D01*
X0078532Y0280228D01*
X0075068Y0280228D01*
X0071869Y0281553D01*
X0069600Y0283822D01*
X0069600Y0079045D01*
X0071869Y0081313D01*
X0075068Y0082639D01*
X0078532Y0082639D01*
X0081731Y0081313D01*
X0084180Y0078864D01*
X0085505Y0075665D01*
X0085505Y0072201D01*
X0084180Y0069002D01*
X0081731Y0066553D01*
X0078532Y0065228D01*
X0075068Y0065228D01*
X0071869Y0066553D01*
X0069609Y0068812D01*
X0069689Y0067807D01*
X0070385Y0065664D01*
X0070630Y0065327D02*
X0074828Y0065327D01*
X0074725Y0062130D02*
X0170750Y0062130D01*
X0170750Y0063729D02*
X0168309Y0063729D01*
X0168364Y0063932D02*
X0168364Y0078133D01*
X0152600Y0078133D01*
X0152600Y0062369D01*
X0166801Y0062369D01*
X0167259Y0062492D01*
X0167669Y0062729D01*
X0168004Y0063064D01*
X0168241Y0063475D01*
X0168364Y0063932D01*
X0168364Y0065327D02*
X0170750Y0065327D01*
X0170750Y0066926D02*
X0168364Y0066926D01*
X0168364Y0068524D02*
X0170750Y0068524D01*
X0170750Y0070123D02*
X0168364Y0070123D01*
X0168364Y0071721D02*
X0170750Y0071721D01*
X0170750Y0073320D02*
X0168364Y0073320D01*
X0168364Y0074918D02*
X0170750Y0074918D01*
X0170750Y0076517D02*
X0168364Y0076517D01*
X0168364Y0078115D02*
X0170750Y0078115D01*
X0170750Y0079714D02*
X0152600Y0079714D01*
X0152600Y0079733D02*
X0168364Y0079733D01*
X0168364Y0093934D01*
X0168241Y0094392D01*
X0168004Y0094802D01*
X0167669Y0095137D01*
X0167259Y0095374D01*
X0166801Y0095497D01*
X0152600Y0095497D01*
X0152600Y0079733D01*
X0152600Y0078133D01*
X0151000Y0078133D01*
X0151000Y0062369D01*
X0136799Y0062369D01*
X0136341Y0062492D01*
X0135931Y0062729D01*
X0135596Y0063064D01*
X0135359Y0063475D01*
X0135236Y0063932D01*
X0135236Y0078133D01*
X0151000Y0078133D01*
X0151000Y0079733D01*
X0135236Y0079733D01*
X0135236Y0093934D01*
X0135359Y0094392D01*
X0135596Y0094802D01*
X0135931Y0095137D01*
X0136341Y0095374D01*
X0136799Y0095497D01*
X0151000Y0095497D01*
X0151000Y0079733D01*
X0152600Y0079733D01*
X0152600Y0081312D02*
X0151000Y0081312D01*
X0151000Y0079714D02*
X0132964Y0079714D01*
X0132964Y0081312D02*
X0135236Y0081312D01*
X0135236Y0082911D02*
X0132964Y0082911D01*
X0132964Y0084509D02*
X0135236Y0084509D01*
X0135236Y0086108D02*
X0132964Y0086108D01*
X0132964Y0087706D02*
X0135236Y0087706D01*
X0135236Y0089305D02*
X0132964Y0089305D01*
X0132964Y0090903D02*
X0135236Y0090903D01*
X0135236Y0092502D02*
X0132964Y0092502D01*
X0132964Y0094100D02*
X0135281Y0094100D01*
X0128105Y0102093D02*
X0177014Y0102093D01*
X0176614Y0100494D02*
X0126507Y0100494D01*
X0124908Y0098896D02*
X0176614Y0098896D01*
X0176614Y0097297D02*
X0123310Y0097297D01*
X0123200Y0095699D02*
X0177016Y0095699D01*
X0181281Y0095699D02*
X0181453Y0095699D01*
X0181453Y0097297D02*
X0181281Y0097297D01*
X0185718Y0095699D02*
X0247882Y0095699D01*
X0247480Y0097297D02*
X0186120Y0097297D01*
X0186120Y0098896D02*
X0247480Y0098896D01*
X0244723Y0100494D02*
X0186120Y0100494D01*
X0185720Y0102093D02*
X0243341Y0102093D01*
X0242900Y0103691D02*
X0185720Y0103691D01*
X0185720Y0105290D02*
X0220240Y0105290D01*
X0219156Y0106888D02*
X0185720Y0106888D01*
X0185720Y0108487D02*
X0219285Y0108487D01*
X0220935Y0110085D02*
X0186557Y0110085D01*
X0188155Y0111684D02*
X0223547Y0111684D01*
X0225145Y0113282D02*
X0189754Y0113282D01*
X0191352Y0114881D02*
X0226744Y0114881D01*
X0228355Y0111684D02*
X0244358Y0111684D01*
X0244483Y0113282D02*
X0229954Y0113282D01*
X0231552Y0114881D02*
X0246125Y0114881D01*
X0247875Y0114881D02*
X0247880Y0114881D01*
X0247880Y0116479D02*
X0233151Y0116479D01*
X0234749Y0118078D02*
X0247880Y0118078D01*
X0247880Y0119677D02*
X0236348Y0119677D01*
X0237946Y0121275D02*
X0247880Y0121275D01*
X0247981Y0126071D02*
X0230411Y0126071D01*
X0230411Y0127669D02*
X0247880Y0127669D01*
X0247880Y0129268D02*
X0217600Y0129268D01*
X0217600Y0130866D02*
X0216000Y0130866D01*
X0216000Y0129268D02*
X0193500Y0129268D01*
X0193500Y0130866D02*
X0203189Y0130866D01*
X0203189Y0132465D02*
X0193500Y0132465D01*
X0193500Y0134063D02*
X0203189Y0134063D01*
X0203189Y0135662D02*
X0193500Y0135662D01*
X0193500Y0137260D02*
X0203189Y0137260D01*
X0203189Y0138859D02*
X0193500Y0138859D01*
X0193500Y0140457D02*
X0203189Y0140457D01*
X0203755Y0142056D02*
X0193500Y0142056D01*
X0193500Y0143654D02*
X0224511Y0143654D01*
X0225117Y0145253D02*
X0193500Y0145253D01*
X0193500Y0146851D02*
X0239478Y0146851D01*
X0241076Y0145253D02*
X0229283Y0145253D01*
X0229889Y0143654D02*
X0242675Y0143654D01*
X0244273Y0142056D02*
X0231082Y0142056D01*
X0232680Y0140457D02*
X0245872Y0140457D01*
X0247470Y0138859D02*
X0234279Y0138859D01*
X0235877Y0137260D02*
X0247880Y0137260D01*
X0247880Y0135662D02*
X0237476Y0135662D01*
X0235864Y0132465D02*
X0230411Y0132465D01*
X0230411Y0134063D02*
X0234266Y0134063D01*
X0232667Y0135662D02*
X0230411Y0135662D01*
X0230411Y0137260D02*
X0231069Y0137260D01*
X0230411Y0130866D02*
X0247880Y0130866D01*
X0256437Y0131118D02*
X0256586Y0131267D01*
X0256586Y0135970D01*
X0256437Y0136118D01*
X0256586Y0136267D01*
X0256586Y0140970D01*
X0256437Y0141118D01*
X0256586Y0141267D01*
X0256586Y0142943D01*
X0271100Y0128429D01*
X0271100Y0093037D01*
X0267300Y0096837D01*
X0267300Y0101037D01*
X0265300Y0103037D01*
X0265700Y0104004D01*
X0265700Y0105555D01*
X0265168Y0106838D01*
X0265168Y0107525D01*
X0264348Y0108345D01*
X0263384Y0108345D01*
X0262576Y0108680D01*
X0261024Y0108680D01*
X0260216Y0108345D01*
X0259252Y0108345D01*
X0258493Y0107587D01*
X0256586Y0107587D01*
X0256586Y0110970D01*
X0256437Y0111118D01*
X0256586Y0111267D01*
X0256586Y0115970D01*
X0256437Y0116118D01*
X0256586Y0116267D01*
X0256586Y0120970D01*
X0256437Y0121118D01*
X0256586Y0121267D01*
X0256586Y0125970D01*
X0256437Y0126118D01*
X0256586Y0126267D01*
X0256586Y0130970D01*
X0256437Y0131118D01*
X0256586Y0130866D02*
X0268663Y0130866D01*
X0270261Y0129268D02*
X0256586Y0129268D01*
X0256586Y0127669D02*
X0271100Y0127669D01*
X0271100Y0126071D02*
X0256485Y0126071D01*
X0256586Y0124472D02*
X0271100Y0124472D01*
X0271100Y0122874D02*
X0256586Y0122874D01*
X0256586Y0121275D02*
X0271100Y0121275D01*
X0271100Y0119677D02*
X0256586Y0119677D01*
X0256586Y0118078D02*
X0271100Y0118078D01*
X0271100Y0116479D02*
X0256586Y0116479D01*
X0256586Y0114881D02*
X0271100Y0114881D01*
X0271100Y0113282D02*
X0256586Y0113282D01*
X0256586Y0111684D02*
X0271100Y0111684D01*
X0271100Y0110085D02*
X0256586Y0110085D01*
X0256586Y0108487D02*
X0260559Y0108487D01*
X0263041Y0108487D02*
X0271100Y0108487D01*
X0271100Y0106888D02*
X0265168Y0106888D01*
X0265700Y0105290D02*
X0271100Y0105290D01*
X0271100Y0103691D02*
X0265571Y0103691D01*
X0266244Y0102093D02*
X0271100Y0102093D01*
X0271100Y0100494D02*
X0267300Y0100494D01*
X0267300Y0098896D02*
X0271100Y0098896D01*
X0271100Y0097297D02*
X0267300Y0097297D01*
X0268438Y0095699D02*
X0271100Y0095699D01*
X0271100Y0094100D02*
X0270037Y0094100D01*
X0268426Y0090903D02*
X0262850Y0090903D01*
X0262850Y0089305D02*
X0270024Y0089305D01*
X0271623Y0087706D02*
X0262850Y0087706D01*
X0262850Y0086108D02*
X0359000Y0086108D01*
X0359000Y0087706D02*
X0288977Y0087706D01*
X0290576Y0089305D02*
X0293424Y0089305D01*
X0296921Y0094100D02*
X0302164Y0094100D01*
X0302394Y0092502D02*
X0301303Y0092502D01*
X0301195Y0095699D02*
X0302533Y0095699D01*
X0303706Y0097297D02*
X0300145Y0097297D01*
X0296921Y0097297D02*
X0296521Y0097297D01*
X0296521Y0095699D02*
X0296921Y0095699D01*
X0294300Y0098896D02*
X0359000Y0098896D01*
X0359000Y0100494D02*
X0294300Y0100494D01*
X0294300Y0102093D02*
X0359000Y0102093D01*
X0359000Y0103691D02*
X0294300Y0103691D01*
X0294300Y0105290D02*
X0359000Y0105290D01*
X0359000Y0106888D02*
X0293249Y0106888D01*
X0291650Y0108487D02*
X0359000Y0108487D01*
X0359000Y0110085D02*
X0290052Y0110085D01*
X0289873Y0111684D02*
X0359000Y0111684D01*
X0359000Y0113282D02*
X0291154Y0113282D01*
X0292752Y0114881D02*
X0359000Y0114881D01*
X0359000Y0116479D02*
X0294351Y0116479D01*
X0295949Y0118078D02*
X0359000Y0118078D01*
X0359000Y0119677D02*
X0297548Y0119677D01*
X0299146Y0121275D02*
X0359000Y0121275D01*
X0359000Y0122874D02*
X0300745Y0122874D01*
X0302343Y0124472D02*
X0359000Y0124472D01*
X0359000Y0126071D02*
X0303942Y0126071D01*
X0305540Y0127669D02*
X0359000Y0127669D01*
X0359000Y0129268D02*
X0307139Y0129268D01*
X0308737Y0130866D02*
X0359000Y0130866D01*
X0359000Y0132465D02*
X0310336Y0132465D01*
X0311934Y0134063D02*
X0359000Y0134063D01*
X0359000Y0135662D02*
X0313533Y0135662D01*
X0315131Y0137260D02*
X0359000Y0137260D01*
X0359000Y0138859D02*
X0316730Y0138859D01*
X0318328Y0140457D02*
X0359000Y0140457D01*
X0359000Y0142056D02*
X0319927Y0142056D01*
X0321525Y0143654D02*
X0359000Y0143654D01*
X0359000Y0145253D02*
X0323124Y0145253D01*
X0324722Y0146851D02*
X0359000Y0146851D01*
X0359000Y0148450D02*
X0326321Y0148450D01*
X0327919Y0150048D02*
X0359000Y0150048D01*
X0359000Y0151647D02*
X0329518Y0151647D01*
X0331116Y0153245D02*
X0359000Y0153245D01*
X0359000Y0154844D02*
X0332700Y0154844D01*
X0332700Y0156442D02*
X0359000Y0156442D01*
X0359000Y0158041D02*
X0332700Y0158041D01*
X0332700Y0159639D02*
X0359000Y0159639D01*
X0359000Y0161238D02*
X0332700Y0161238D01*
X0332700Y0162836D02*
X0359000Y0162836D01*
X0359000Y0164435D02*
X0331702Y0164435D01*
X0330104Y0166033D02*
X0359000Y0166033D01*
X0359000Y0167632D02*
X0330991Y0167632D01*
X0331200Y0169230D02*
X0359000Y0169230D01*
X0359000Y0170829D02*
X0330810Y0170829D01*
X0332298Y0172427D02*
X0359000Y0172427D01*
X0359000Y0174026D02*
X0332700Y0174026D01*
X0332700Y0175624D02*
X0359000Y0175624D01*
X0359000Y0177223D02*
X0332700Y0177223D01*
X0332700Y0178821D02*
X0359000Y0178821D01*
X0359000Y0180420D02*
X0332700Y0180420D01*
X0332700Y0182018D02*
X0359000Y0182018D01*
X0359000Y0183617D02*
X0332700Y0183617D01*
X0332700Y0185215D02*
X0359000Y0185215D01*
X0359000Y0186814D02*
X0332700Y0186814D01*
X0332700Y0188412D02*
X0359000Y0188412D01*
X0359000Y0190011D02*
X0332700Y0190011D01*
X0332128Y0191610D02*
X0359000Y0191610D01*
X0359000Y0193208D02*
X0330529Y0193208D01*
X0328931Y0194807D02*
X0359000Y0194807D01*
X0359000Y0196405D02*
X0327332Y0196405D01*
X0325734Y0198004D02*
X0359000Y0198004D01*
X0359000Y0199602D02*
X0324135Y0199602D01*
X0322537Y0201201D02*
X0359000Y0201201D01*
X0359000Y0202799D02*
X0357173Y0202799D01*
X0357964Y0204398D02*
X0359000Y0204398D01*
X0359000Y0205996D02*
X0357964Y0205996D01*
X0357964Y0207595D02*
X0359000Y0207595D01*
X0359000Y0209193D02*
X0357964Y0209193D01*
X0357964Y0210792D02*
X0359000Y0210792D01*
X0359000Y0212390D02*
X0357964Y0212390D01*
X0357964Y0213989D02*
X0359000Y0213989D01*
X0359000Y0215587D02*
X0357964Y0215587D01*
X0357964Y0217186D02*
X0359000Y0217186D01*
X0359000Y0218784D02*
X0357964Y0218784D01*
X0357964Y0220383D02*
X0359000Y0220383D01*
X0359000Y0221981D02*
X0357964Y0221981D01*
X0357964Y0223580D02*
X0359000Y0223580D01*
X0359000Y0225178D02*
X0357964Y0225178D01*
X0357964Y0226777D02*
X0359000Y0226777D01*
X0359000Y0228375D02*
X0357964Y0228375D01*
X0357964Y0229974D02*
X0359000Y0229974D01*
X0359000Y0231572D02*
X0357964Y0231572D01*
X0357964Y0233171D02*
X0359000Y0233171D01*
X0359000Y0234769D02*
X0357471Y0234769D01*
X0359000Y0236368D02*
X0303286Y0236368D01*
X0304884Y0237966D02*
X0326259Y0237966D01*
X0325636Y0239565D02*
X0306483Y0239565D01*
X0308081Y0241163D02*
X0325636Y0241163D01*
X0325636Y0242762D02*
X0309680Y0242762D01*
X0311278Y0244360D02*
X0325636Y0244360D01*
X0325636Y0245959D02*
X0312877Y0245959D01*
X0302767Y0253951D02*
X0273423Y0253951D01*
X0275021Y0255550D02*
X0304366Y0255550D01*
X0305964Y0257148D02*
X0276620Y0257148D01*
X0278218Y0258747D02*
X0307563Y0258747D01*
X0301169Y0252353D02*
X0271824Y0252353D01*
X0271981Y0250754D02*
X0299570Y0250754D01*
X0297972Y0249156D02*
X0272489Y0249156D01*
X0272027Y0247557D02*
X0296373Y0247557D01*
X0294775Y0245959D02*
X0271500Y0245959D01*
X0272373Y0244360D02*
X0293176Y0244360D01*
X0291578Y0242762D02*
X0272373Y0242762D01*
X0272373Y0241163D02*
X0289979Y0241163D01*
X0288381Y0239565D02*
X0272266Y0239565D01*
X0269300Y0242319D02*
X0264300Y0242319D01*
X0259300Y0242319D02*
X0254300Y0242319D01*
X0249222Y0245959D02*
X0245726Y0245959D01*
X0245726Y0245722D02*
X0245726Y0247792D01*
X0245603Y0248250D01*
X0245366Y0248660D01*
X0245031Y0248995D01*
X0244752Y0249157D01*
X0245326Y0249731D01*
X0245326Y0255025D01*
X0244506Y0255845D01*
X0241716Y0255845D01*
X0244704Y0258833D01*
X0256704Y0258833D01*
X0258377Y0260506D01*
X0261553Y0260506D01*
X0261800Y0260752D01*
X0262047Y0260506D01*
X0263768Y0260506D01*
X0246896Y0243633D01*
X0245726Y0243633D01*
X0245726Y0245255D01*
X0242034Y0245255D01*
X0242034Y0245722D01*
X0245726Y0245722D01*
X0245726Y0244360D02*
X0247623Y0244360D01*
X0245726Y0247557D02*
X0250820Y0247557D01*
X0252419Y0249156D02*
X0244753Y0249156D01*
X0245326Y0250754D02*
X0254017Y0250754D01*
X0255616Y0252353D02*
X0245326Y0252353D01*
X0245326Y0253951D02*
X0257214Y0253951D01*
X0258813Y0255550D02*
X0244801Y0255550D01*
X0243020Y0257148D02*
X0260411Y0257148D01*
X0262010Y0258747D02*
X0244618Y0258747D01*
X0238605Y0263543D02*
X0233100Y0263543D01*
X0233100Y0265141D02*
X0240204Y0265141D01*
X0241802Y0266740D02*
X0233100Y0266740D01*
X0233100Y0268006D02*
X0233955Y0268006D01*
X0234775Y0268826D01*
X0234775Y0272348D01*
X0233955Y0273168D01*
X0229645Y0273168D01*
X0228825Y0272348D01*
X0228825Y0268826D01*
X0229645Y0268006D01*
X0229700Y0268006D01*
X0229700Y0263502D01*
X0229500Y0263702D01*
X0229500Y0267837D01*
X0225300Y0272037D01*
X0225165Y0272172D01*
X0225273Y0272574D01*
X0225273Y0274841D01*
X0221837Y0274841D01*
X0221837Y0274915D01*
X0221837Y0278687D01*
X0221271Y0279253D01*
X0221271Y0279344D01*
X0221200Y0279344D01*
X0221200Y0278745D01*
X0221763Y0278745D01*
X0221763Y0274915D01*
X0221837Y0274915D01*
X0225273Y0274915D01*
X0225273Y0275251D01*
X0225444Y0275080D01*
X0229264Y0275080D01*
X0229645Y0274698D01*
X0233955Y0274698D01*
X0234775Y0275519D01*
X0234775Y0279041D01*
X0234378Y0279438D01*
X0234579Y0279639D01*
X0234816Y0280049D01*
X0234939Y0280507D01*
X0234939Y0283119D01*
X0229780Y0283119D01*
X0229780Y0284669D01*
X0234939Y0284669D01*
X0234939Y0287280D01*
X0234816Y0287738D01*
X0234579Y0288149D01*
X0234335Y0288393D01*
X0236328Y0288393D01*
X0236786Y0288516D01*
X0237197Y0288753D01*
X0237532Y0289088D01*
X0237769Y0289498D01*
X0237891Y0289956D01*
X0237891Y0293133D01*
X0233348Y0293133D01*
X0233348Y0294733D01*
X0237891Y0294733D01*
X0237891Y0297910D01*
X0237769Y0298368D01*
X0237532Y0298778D01*
X0237197Y0299114D01*
X0236786Y0299351D01*
X0236328Y0299473D01*
X0233348Y0299473D01*
X0233348Y0294733D01*
X0231748Y0294733D01*
X0231748Y0293133D01*
X0227205Y0293133D01*
X0227205Y0289956D01*
X0227327Y0289498D01*
X0227564Y0289088D01*
X0227809Y0288843D01*
X0226461Y0288843D01*
X0226705Y0289088D01*
X0226942Y0289498D01*
X0227065Y0289956D01*
X0227065Y0293133D01*
X0222324Y0293133D01*
X0222324Y0294733D01*
X0220724Y0294733D01*
X0220724Y0299473D01*
X0217547Y0299473D01*
X0217089Y0299351D01*
X0216800Y0299183D01*
X0216511Y0299351D01*
X0216053Y0299473D01*
X0212876Y0299473D01*
X0212876Y0294733D01*
X0211276Y0294733D01*
X0211276Y0299473D01*
X0208098Y0299473D01*
X0207641Y0299351D01*
X0207230Y0299114D01*
X0206895Y0298778D01*
X0206658Y0298368D01*
X0206535Y0297910D01*
X0206535Y0294733D01*
X0211276Y0294733D01*
X0211276Y0293133D01*
X0206535Y0293133D01*
X0206535Y0289956D01*
X0206658Y0289498D01*
X0206895Y0289088D01*
X0207139Y0288843D01*
X0205791Y0288843D01*
X0206036Y0289088D01*
X0206273Y0289498D01*
X0206395Y0289956D01*
X0206395Y0293133D01*
X0201852Y0293133D01*
X0201852Y0294733D01*
X0206395Y0294733D01*
X0206395Y0297910D01*
X0206273Y0298368D01*
X0206036Y0298778D01*
X0205700Y0299114D01*
X0205290Y0299351D01*
X0204832Y0299473D01*
X0201852Y0299473D01*
X0201852Y0294733D01*
X0200252Y0294733D01*
X0200252Y0293133D01*
X0195709Y0293133D01*
X0195709Y0289956D01*
X0195831Y0289498D01*
X0196068Y0289088D01*
X0196403Y0288753D01*
X0196814Y0288516D01*
X0197272Y0288393D01*
X0199265Y0288393D01*
X0199021Y0288149D01*
X0198784Y0287738D01*
X0198661Y0287280D01*
X0198661Y0284669D01*
X0198661Y0285922D02*
X0178289Y0285922D01*
X0177616Y0287520D02*
X0198726Y0287520D01*
X0196050Y0289119D02*
X0174873Y0289119D01*
X0174181Y0290717D02*
X0195709Y0290717D01*
X0195709Y0292316D02*
X0155562Y0292316D01*
X0155562Y0293914D02*
X0175026Y0293914D01*
X0174918Y0294022D02*
X0175738Y0293202D01*
X0179398Y0293202D01*
X0180218Y0294022D01*
X0180218Y0300182D01*
X0179398Y0301002D01*
X0175738Y0301002D01*
X0174918Y0300182D01*
X0174918Y0294022D01*
X0174918Y0295513D02*
X0155562Y0295513D01*
X0156820Y0290717D02*
X0169419Y0290717D01*
X0168727Y0289119D02*
X0158419Y0289119D01*
X0160017Y0287520D02*
X0168727Y0287520D01*
X0168727Y0285922D02*
X0161616Y0285922D01*
X0163214Y0284323D02*
X0169135Y0284323D01*
X0168727Y0282725D02*
X0164813Y0282725D01*
X0166411Y0281126D02*
X0168727Y0281126D01*
X0168727Y0279528D02*
X0168010Y0279528D01*
X0163998Y0276331D02*
X0154873Y0276331D01*
X0154873Y0277929D02*
X0162400Y0277929D01*
X0160801Y0279528D02*
X0154873Y0279528D01*
X0154873Y0280025D02*
X0154053Y0280845D01*
X0154000Y0280845D01*
X0154000Y0281037D01*
X0154742Y0281037D01*
X0155562Y0281857D01*
X0155562Y0284767D01*
X0177296Y0263033D01*
X0178704Y0263033D01*
X0203431Y0263033D01*
X0203400Y0263002D01*
X0203400Y0260737D01*
X0201408Y0258746D01*
X0201280Y0259056D01*
X0200523Y0259813D01*
X0199535Y0260222D01*
X0198465Y0260222D01*
X0197477Y0259813D01*
X0196897Y0259233D01*
X0195896Y0259233D01*
X0192508Y0255845D01*
X0189094Y0255845D01*
X0188274Y0255025D01*
X0188274Y0254433D01*
X0170304Y0254433D01*
X0154873Y0269864D01*
X0154873Y0273135D01*
X0154075Y0273933D01*
X0154873Y0274731D01*
X0154873Y0280025D01*
X0154831Y0281126D02*
X0159203Y0281126D01*
X0157604Y0282725D02*
X0155562Y0282725D01*
X0155562Y0284323D02*
X0156006Y0284323D01*
X0151800Y0284799D02*
X0151800Y0277378D01*
X0148727Y0277929D02*
X0134873Y0277929D01*
X0134873Y0276331D02*
X0148727Y0276331D01*
X0148727Y0274732D02*
X0134873Y0274732D01*
X0134873Y0274731D02*
X0134873Y0280025D01*
X0134053Y0280845D01*
X0134000Y0280845D01*
X0134000Y0281037D01*
X0134742Y0281037D01*
X0135562Y0281857D01*
X0135562Y0287633D01*
X0148038Y0287633D01*
X0148038Y0281857D01*
X0148858Y0281037D01*
X0149600Y0281037D01*
X0149600Y0280845D01*
X0149547Y0280845D01*
X0148727Y0280025D01*
X0148727Y0274731D01*
X0149525Y0273933D01*
X0148727Y0273135D01*
X0148727Y0272433D01*
X0134873Y0272433D01*
X0134873Y0273135D01*
X0134075Y0273933D01*
X0134873Y0274731D01*
X0134873Y0273134D02*
X0148727Y0273134D01*
X0148727Y0268338D02*
X0134873Y0268338D01*
X0128727Y0268338D02*
X0102964Y0268338D01*
X0102964Y0266740D02*
X0153189Y0266740D01*
X0154788Y0265141D02*
X0102964Y0265141D01*
X0102964Y0263543D02*
X0156386Y0263543D01*
X0157985Y0261944D02*
X0102964Y0261944D01*
X0102964Y0260345D02*
X0159583Y0260345D01*
X0161182Y0258747D02*
X0121037Y0258747D01*
X0122636Y0257148D02*
X0162780Y0257148D01*
X0164379Y0255550D02*
X0124234Y0255550D01*
X0125833Y0253951D02*
X0165977Y0253951D01*
X0167576Y0252353D02*
X0127431Y0252353D01*
X0129030Y0250754D02*
X0188274Y0250754D01*
X0188847Y0249156D02*
X0130628Y0249156D01*
X0132227Y0247557D02*
X0187874Y0247557D01*
X0187874Y0245959D02*
X0133825Y0245959D01*
X0135424Y0244360D02*
X0187874Y0244360D01*
X0187987Y0242762D02*
X0137022Y0242762D01*
X0138621Y0241163D02*
X0203008Y0241163D01*
X0203033Y0242762D02*
X0195613Y0242762D01*
X0195726Y0244360D02*
X0204433Y0244360D01*
X0206300Y0245959D02*
X0195726Y0245959D01*
X0195726Y0247557D02*
X0207620Y0247557D01*
X0209219Y0249156D02*
X0197888Y0249156D01*
X0199188Y0250754D02*
X0217774Y0250754D01*
X0216500Y0252353D02*
X0199824Y0252353D01*
X0201423Y0253951D02*
X0214379Y0253951D01*
X0213711Y0255550D02*
X0203021Y0255550D01*
X0201410Y0258747D02*
X0201408Y0258747D01*
X0203008Y0260345D02*
X0164392Y0260345D01*
X0165990Y0258747D02*
X0195410Y0258747D01*
X0193811Y0257148D02*
X0167589Y0257148D01*
X0169187Y0255550D02*
X0188799Y0255550D01*
X0194753Y0249156D02*
X0195312Y0249156D01*
X0192033Y0244360D02*
X0191567Y0244360D01*
X0191567Y0242762D02*
X0192033Y0242762D01*
X0203400Y0239565D02*
X0140219Y0239565D01*
X0141818Y0237966D02*
X0203400Y0237966D01*
X0203400Y0236368D02*
X0143416Y0236368D01*
X0133307Y0228375D02*
X0102964Y0228375D01*
X0102964Y0226777D02*
X0134905Y0226777D01*
X0131708Y0229974D02*
X0102964Y0229974D01*
X0102964Y0231572D02*
X0130110Y0231572D01*
X0128511Y0233171D02*
X0102964Y0233171D01*
X0102471Y0234769D02*
X0126913Y0234769D01*
X0125314Y0236368D02*
X0069600Y0236368D01*
X0069600Y0237966D02*
X0071259Y0237966D01*
X0070636Y0239565D02*
X0069600Y0239565D01*
X0069600Y0241163D02*
X0070636Y0241163D01*
X0070636Y0242762D02*
X0069600Y0242762D01*
X0069600Y0244360D02*
X0070636Y0244360D01*
X0070636Y0245959D02*
X0069600Y0245959D01*
X0069600Y0247557D02*
X0070636Y0247557D01*
X0070636Y0249156D02*
X0069600Y0249156D01*
X0069600Y0250754D02*
X0070636Y0250754D01*
X0070636Y0252353D02*
X0069600Y0252353D01*
X0069600Y0253951D02*
X0070636Y0253951D01*
X0070636Y0255550D02*
X0069600Y0255550D01*
X0069600Y0257148D02*
X0070636Y0257148D01*
X0070636Y0258747D02*
X0069600Y0258747D01*
X0069600Y0260345D02*
X0070636Y0260345D01*
X0070636Y0261944D02*
X0069600Y0261944D01*
X0069600Y0263543D02*
X0070636Y0263543D01*
X0070636Y0265141D02*
X0069600Y0265141D01*
X0069600Y0266740D02*
X0070636Y0266740D01*
X0070636Y0268338D02*
X0069600Y0268338D01*
X0069600Y0269937D02*
X0071296Y0269937D01*
X0069600Y0271535D02*
X0128727Y0271535D01*
X0128727Y0269937D02*
X0102304Y0269937D01*
X0084313Y0284323D02*
X0128038Y0284323D01*
X0128038Y0282725D02*
X0082903Y0282725D01*
X0080701Y0281126D02*
X0128769Y0281126D01*
X0128727Y0279528D02*
X0069600Y0279528D01*
X0069600Y0281126D02*
X0072899Y0281126D01*
X0070697Y0282725D02*
X0069600Y0282725D01*
X0069600Y0277929D02*
X0128727Y0277929D01*
X0128727Y0276331D02*
X0069600Y0276331D01*
X0069600Y0274732D02*
X0128727Y0274732D01*
X0128727Y0273134D02*
X0069600Y0273134D01*
X0084975Y0285922D02*
X0128038Y0285922D01*
X0128038Y0287520D02*
X0085505Y0287520D01*
X0085505Y0289119D02*
X0133210Y0289119D01*
X0135562Y0287520D02*
X0148038Y0287520D01*
X0148038Y0285922D02*
X0135562Y0285922D01*
X0135562Y0284323D02*
X0148038Y0284323D01*
X0148038Y0282725D02*
X0135562Y0282725D01*
X0134831Y0281126D02*
X0148769Y0281126D01*
X0148727Y0279528D02*
X0134873Y0279528D01*
X0131800Y0277378D02*
X0131800Y0284799D01*
X0128038Y0290717D02*
X0085484Y0290717D01*
X0084822Y0292316D02*
X0128038Y0292316D01*
X0128038Y0293914D02*
X0084130Y0293914D01*
X0082532Y0295513D02*
X0128038Y0295513D01*
X0135562Y0295513D02*
X0148038Y0295513D01*
X0148038Y0293914D02*
X0135562Y0293914D01*
X0135562Y0292316D02*
X0148038Y0292316D01*
X0154873Y0274732D02*
X0165597Y0274732D01*
X0167195Y0273134D02*
X0154873Y0273134D01*
X0154873Y0271535D02*
X0168794Y0271535D01*
X0170392Y0269937D02*
X0154873Y0269937D01*
X0156399Y0268338D02*
X0171991Y0268338D01*
X0173589Y0266740D02*
X0157998Y0266740D01*
X0159596Y0265141D02*
X0175188Y0265141D01*
X0176786Y0263543D02*
X0161195Y0263543D01*
X0162793Y0261944D02*
X0203400Y0261944D01*
X0203727Y0266740D02*
X0178398Y0266740D01*
X0176799Y0268338D02*
X0186192Y0268338D01*
X0190208Y0268338D02*
X0203727Y0268338D01*
X0203727Y0269937D02*
X0190889Y0269937D01*
X0190530Y0271535D02*
X0203857Y0271535D01*
X0203327Y0273134D02*
X0189662Y0273134D01*
X0189497Y0274732D02*
X0203327Y0274732D01*
X0203327Y0276331D02*
X0187756Y0276331D01*
X0186244Y0276331D02*
X0184407Y0276331D01*
X0183008Y0277929D02*
X0182808Y0277929D01*
X0182982Y0279528D02*
X0181210Y0279528D01*
X0180218Y0281126D02*
X0182982Y0281126D01*
X0182982Y0282725D02*
X0180218Y0282725D01*
X0179738Y0284323D02*
X0183315Y0284323D01*
X0186032Y0284323D02*
X0186032Y0284323D01*
X0186032Y0282725D02*
X0186032Y0282725D01*
X0186032Y0281126D02*
X0186032Y0281126D01*
X0186032Y0279528D02*
X0186032Y0279528D01*
X0186032Y0277929D02*
X0186032Y0277929D01*
X0188749Y0284323D02*
X0203820Y0284323D01*
X0205370Y0284323D02*
X0209094Y0284323D01*
X0205370Y0282725D02*
X0203820Y0282725D01*
X0203820Y0281126D02*
X0205370Y0281126D01*
X0211800Y0278402D02*
X0212743Y0279344D01*
X0215608Y0279344D01*
X0216428Y0280164D01*
X0216428Y0283030D01*
X0216800Y0283402D01*
X0219000Y0283043D02*
X0219000Y0279625D01*
X0216800Y0277425D01*
X0216800Y0274878D01*
X0211800Y0274878D02*
X0211800Y0278402D01*
X0219000Y0283043D02*
X0219359Y0283402D01*
X0221918Y0283402D02*
X0223471Y0281849D01*
X0223471Y0280164D01*
X0226356Y0277280D01*
X0231800Y0277280D01*
X0234775Y0277929D02*
X0244544Y0277929D01*
X0244518Y0278027D02*
X0244640Y0277569D01*
X0244877Y0277159D01*
X0245212Y0276823D01*
X0245623Y0276586D01*
X0246081Y0276464D01*
X0247568Y0276464D01*
X0248300Y0276464D01*
X0248300Y0273237D01*
X0228685Y0253622D01*
X0228093Y0253622D01*
X0232104Y0257633D01*
X0232104Y0257633D01*
X0233100Y0258629D01*
X0233100Y0268006D01*
X0234287Y0268338D02*
X0243401Y0268338D01*
X0244999Y0269937D02*
X0234775Y0269937D01*
X0234775Y0271535D02*
X0246598Y0271535D01*
X0248196Y0273134D02*
X0233989Y0273134D01*
X0233988Y0274732D02*
X0248300Y0274732D01*
X0248300Y0276331D02*
X0234775Y0276331D01*
X0234468Y0279528D02*
X0244518Y0279528D01*
X0244518Y0280764D02*
X0244518Y0278027D01*
X0244518Y0280764D02*
X0247568Y0280764D01*
X0247568Y0285064D01*
X0246081Y0285064D01*
X0245623Y0284941D01*
X0245212Y0284704D01*
X0244877Y0284369D01*
X0244518Y0282725D02*
X0234939Y0282725D01*
X0234939Y0281126D02*
X0244518Y0281126D01*
X0247568Y0281126D02*
X0247568Y0281126D01*
X0247568Y0280764D02*
X0247568Y0280764D01*
X0247568Y0276464D01*
X0247568Y0280764D01*
X0247568Y0280764D01*
X0247568Y0279528D02*
X0247568Y0279528D01*
X0247568Y0277929D02*
X0247568Y0277929D01*
X0247568Y0282725D02*
X0247568Y0282725D01*
X0247568Y0284323D02*
X0247568Y0284323D01*
X0250285Y0284323D02*
X0251586Y0284323D01*
X0253184Y0285922D02*
X0234939Y0285922D01*
X0234874Y0287520D02*
X0254783Y0287520D01*
X0258727Y0289119D02*
X0237550Y0289119D01*
X0237891Y0290717D02*
X0259419Y0290717D01*
X0257862Y0293202D02*
X0254202Y0293202D01*
X0253382Y0294022D01*
X0253382Y0300182D01*
X0254202Y0301002D01*
X0257862Y0301002D01*
X0258682Y0300182D01*
X0258682Y0294022D01*
X0257862Y0293202D01*
X0258574Y0293914D02*
X0273978Y0293914D01*
X0273727Y0292316D02*
X0237891Y0292316D01*
X0237891Y0295513D02*
X0244918Y0295513D01*
X0244918Y0294022D02*
X0245738Y0293202D01*
X0249398Y0293202D01*
X0250218Y0294022D01*
X0250218Y0300182D01*
X0249398Y0301002D01*
X0245738Y0301002D01*
X0244918Y0300182D01*
X0244918Y0294022D01*
X0245026Y0293914D02*
X0233348Y0293914D01*
X0233348Y0295513D02*
X0231748Y0295513D01*
X0231748Y0294733D02*
X0231748Y0299473D01*
X0228768Y0299473D01*
X0228310Y0299351D01*
X0227899Y0299114D01*
X0227564Y0298778D01*
X0227327Y0298368D01*
X0227205Y0297910D01*
X0227205Y0294733D01*
X0231748Y0294733D01*
X0231748Y0293914D02*
X0222324Y0293914D01*
X0221524Y0293933D02*
X0212076Y0293933D01*
X0211682Y0293539D01*
X0211276Y0293914D02*
X0201852Y0293914D01*
X0201852Y0295513D02*
X0200252Y0295513D01*
X0200252Y0294733D02*
X0200252Y0299473D01*
X0197272Y0299473D01*
X0196814Y0299351D01*
X0196403Y0299114D01*
X0196068Y0298778D01*
X0195831Y0298368D01*
X0195709Y0297910D01*
X0195709Y0294733D01*
X0200252Y0294733D01*
X0200252Y0293914D02*
X0188574Y0293914D01*
X0188682Y0294022D02*
X0188682Y0300182D01*
X0187862Y0301002D01*
X0184202Y0301002D01*
X0183382Y0300182D01*
X0183382Y0294022D01*
X0184202Y0293202D01*
X0187862Y0293202D01*
X0188682Y0294022D01*
X0188682Y0295513D02*
X0195709Y0295513D01*
X0195709Y0297111D02*
X0188682Y0297111D01*
X0188682Y0298710D02*
X0196029Y0298710D01*
X0200252Y0298710D02*
X0201852Y0298710D01*
X0201852Y0297111D02*
X0200252Y0297111D01*
X0206075Y0298710D02*
X0206855Y0298710D01*
X0206535Y0297111D02*
X0206395Y0297111D01*
X0206395Y0295513D02*
X0206535Y0295513D01*
X0206535Y0292316D02*
X0206395Y0292316D01*
X0206395Y0290717D02*
X0206535Y0290717D01*
X0206877Y0289119D02*
X0206054Y0289119D01*
X0213539Y0287520D02*
X0223135Y0287520D01*
X0222324Y0289119D02*
X0220724Y0289119D01*
X0220724Y0290717D02*
X0222324Y0290717D01*
X0222324Y0292316D02*
X0220724Y0292316D01*
X0222324Y0294733D02*
X0227065Y0294733D01*
X0227065Y0297910D01*
X0226942Y0298368D01*
X0226705Y0298778D01*
X0226370Y0299114D01*
X0225959Y0299351D01*
X0225502Y0299473D01*
X0222324Y0299473D01*
X0222324Y0294733D01*
X0222324Y0295513D02*
X0220724Y0295513D01*
X0220724Y0297111D02*
X0222324Y0297111D01*
X0222324Y0298710D02*
X0220724Y0298710D01*
X0212876Y0298710D02*
X0211276Y0298710D01*
X0211276Y0297111D02*
X0212876Y0297111D01*
X0212876Y0295513D02*
X0211276Y0295513D01*
X0227065Y0295513D02*
X0227205Y0295513D01*
X0227205Y0297111D02*
X0227065Y0297111D01*
X0226745Y0298710D02*
X0227525Y0298710D01*
X0231748Y0298710D02*
X0233348Y0298710D01*
X0233348Y0297111D02*
X0231748Y0297111D01*
X0237571Y0298710D02*
X0244918Y0298710D01*
X0244918Y0297111D02*
X0237891Y0297111D01*
X0245044Y0300308D02*
X0188556Y0300308D01*
X0183508Y0300308D02*
X0180092Y0300308D01*
X0180218Y0298710D02*
X0183382Y0298710D01*
X0183382Y0297111D02*
X0180218Y0297111D01*
X0180218Y0295513D02*
X0183382Y0295513D01*
X0183491Y0293914D02*
X0180109Y0293914D01*
X0174918Y0297111D02*
X0079805Y0297111D01*
X0073795Y0297111D02*
X0070355Y0297111D01*
X0069836Y0295513D02*
X0071068Y0295513D01*
X0071480Y0298710D02*
X0174918Y0298710D01*
X0175044Y0300308D02*
X0073476Y0300308D01*
X0102964Y0245959D02*
X0115723Y0245959D01*
X0117322Y0244360D02*
X0102964Y0244360D01*
X0102964Y0242762D02*
X0118920Y0242762D01*
X0120519Y0241163D02*
X0102964Y0241163D01*
X0102964Y0239565D02*
X0122117Y0239565D01*
X0123716Y0237966D02*
X0102341Y0237966D01*
X0102964Y0212390D02*
X0192853Y0212390D01*
X0191254Y0210792D02*
X0102964Y0210792D01*
X0102964Y0209193D02*
X0189656Y0209193D01*
X0188057Y0207595D02*
X0102964Y0207595D01*
X0102964Y0205996D02*
X0186459Y0205996D01*
X0184860Y0204398D02*
X0102964Y0204398D01*
X0102173Y0202799D02*
X0183262Y0202799D01*
X0181663Y0201201D02*
X0069600Y0201201D01*
X0069600Y0202799D02*
X0071427Y0202799D01*
X0070636Y0204398D02*
X0069600Y0204398D01*
X0069600Y0205996D02*
X0070636Y0205996D01*
X0070636Y0207595D02*
X0069600Y0207595D01*
X0069600Y0209193D02*
X0070636Y0209193D01*
X0070636Y0210792D02*
X0069600Y0210792D01*
X0069600Y0212390D02*
X0070636Y0212390D01*
X0070636Y0213989D02*
X0069600Y0213989D01*
X0069600Y0215587D02*
X0070636Y0215587D01*
X0070636Y0217186D02*
X0069600Y0217186D01*
X0069600Y0218784D02*
X0070636Y0218784D01*
X0070636Y0220383D02*
X0069600Y0220383D01*
X0069600Y0221981D02*
X0070636Y0221981D01*
X0070636Y0223580D02*
X0069600Y0223580D01*
X0069600Y0225178D02*
X0070636Y0225178D01*
X0070636Y0226777D02*
X0069600Y0226777D01*
X0069600Y0228375D02*
X0070636Y0228375D01*
X0070636Y0229974D02*
X0069600Y0229974D01*
X0069600Y0231572D02*
X0070636Y0231572D01*
X0070636Y0233171D02*
X0069600Y0233171D01*
X0069600Y0234769D02*
X0071129Y0234769D01*
X0069600Y0199602D02*
X0180065Y0199602D01*
X0178466Y0198004D02*
X0069600Y0198004D01*
X0069600Y0196405D02*
X0176868Y0196405D01*
X0175269Y0194807D02*
X0069600Y0194807D01*
X0069600Y0193208D02*
X0172272Y0193208D01*
X0171711Y0191610D02*
X0106200Y0191610D01*
X0106200Y0192277D02*
X0105380Y0193097D01*
X0098220Y0193097D01*
X0097400Y0192277D01*
X0097400Y0185117D01*
X0098220Y0184297D01*
X0105380Y0184297D01*
X0106200Y0185117D01*
X0106200Y0192277D01*
X0106200Y0190011D02*
X0154749Y0190011D01*
X0152228Y0188412D02*
X0106200Y0188412D01*
X0106200Y0186814D02*
X0150630Y0186814D01*
X0149031Y0185215D02*
X0106200Y0185215D01*
X0104292Y0182584D02*
X0102675Y0183254D01*
X0100925Y0183254D01*
X0099308Y0182584D01*
X0098070Y0181347D01*
X0097400Y0179730D01*
X0097400Y0177979D01*
X0098070Y0176362D01*
X0099308Y0175124D01*
X0100925Y0174454D01*
X0102675Y0174454D01*
X0104292Y0175124D01*
X0105530Y0176362D01*
X0106200Y0177979D01*
X0106200Y0179730D01*
X0105530Y0181347D01*
X0104292Y0182584D01*
X0104858Y0182018D02*
X0145834Y0182018D01*
X0144236Y0180420D02*
X0105914Y0180420D01*
X0106200Y0178821D02*
X0142637Y0178821D01*
X0141039Y0177223D02*
X0105887Y0177223D01*
X0104793Y0175624D02*
X0139440Y0175624D01*
X0137842Y0174026D02*
X0069600Y0174026D01*
X0069600Y0175624D02*
X0098807Y0175624D01*
X0097713Y0177223D02*
X0069600Y0177223D01*
X0069600Y0178821D02*
X0097400Y0178821D01*
X0097686Y0180420D02*
X0069600Y0180420D01*
X0069600Y0182018D02*
X0098742Y0182018D01*
X0097400Y0185215D02*
X0069600Y0185215D01*
X0069600Y0183617D02*
X0147433Y0183617D01*
X0156888Y0174970D02*
X0157120Y0174410D01*
X0157877Y0173653D01*
X0158865Y0173244D01*
X0159935Y0173244D01*
X0160923Y0173653D01*
X0161503Y0174233D01*
X0168779Y0174233D01*
X0168711Y0174068D01*
X0168711Y0172998D01*
X0169120Y0172010D01*
X0169877Y0171253D01*
X0170865Y0170844D01*
X0171685Y0170844D01*
X0177014Y0165515D01*
X0177014Y0161267D01*
X0177163Y0161118D01*
X0177014Y0160970D01*
X0177014Y0156267D01*
X0177163Y0156118D01*
X0177014Y0155970D01*
X0177014Y0151267D01*
X0177163Y0151118D01*
X0177014Y0150970D01*
X0177014Y0146267D01*
X0177163Y0146118D01*
X0177014Y0145970D01*
X0177014Y0141267D01*
X0177163Y0141118D01*
X0177014Y0140970D01*
X0177014Y0139833D01*
X0162703Y0139833D01*
X0162123Y0140413D01*
X0161135Y0140822D01*
X0160065Y0140822D01*
X0159077Y0140413D01*
X0158320Y0139656D01*
X0157911Y0138668D01*
X0157911Y0137598D01*
X0158320Y0136610D01*
X0159077Y0135853D01*
X0160065Y0135444D01*
X0161135Y0135444D01*
X0162123Y0135853D01*
X0162703Y0136433D01*
X0177014Y0136433D01*
X0177014Y0136267D01*
X0177163Y0136118D01*
X0177014Y0135970D01*
X0177014Y0135033D01*
X0150304Y0135033D01*
X0164700Y0149429D01*
X0164700Y0155230D01*
X0165280Y0155810D01*
X0165689Y0156798D01*
X0165689Y0157868D01*
X0165280Y0158856D01*
X0164523Y0159613D01*
X0163535Y0160022D01*
X0162465Y0160022D01*
X0161477Y0159613D01*
X0161200Y0159336D01*
X0160923Y0159613D01*
X0159935Y0160022D01*
X0158865Y0160022D01*
X0157877Y0159613D01*
X0157120Y0158856D01*
X0156711Y0157868D01*
X0156711Y0156798D01*
X0157120Y0155810D01*
X0157700Y0155230D01*
X0157700Y0149037D01*
X0143096Y0134433D01*
X0142100Y0133437D01*
X0142100Y0115829D01*
X0143788Y0114141D01*
X0143477Y0114013D01*
X0143342Y0113877D01*
X0143320Y0113959D01*
X0143083Y0114369D01*
X0142748Y0114704D01*
X0142337Y0114941D01*
X0141879Y0115064D01*
X0138505Y0115064D01*
X0138505Y0109733D01*
X0136906Y0109733D01*
X0136906Y0115064D01*
X0133532Y0115064D01*
X0133074Y0114941D01*
X0132663Y0114704D01*
X0132328Y0114369D01*
X0132294Y0114311D01*
X0132294Y0120285D01*
X0132744Y0120165D01*
X0134962Y0120165D01*
X0134962Y0123749D01*
X0135331Y0123749D01*
X0135331Y0124117D01*
X0139112Y0124117D01*
X0139112Y0126139D01*
X0138989Y0126596D01*
X0138752Y0127007D01*
X0138417Y0127342D01*
X0138007Y0127579D01*
X0137549Y0127702D01*
X0135331Y0127702D01*
X0135331Y0124117D01*
X0134962Y0124117D01*
X0134962Y0127702D01*
X0132744Y0127702D01*
X0132294Y0127581D01*
X0132294Y0150377D01*
X0156888Y0174970D01*
X0157504Y0174026D02*
X0155944Y0174026D01*
X0154345Y0172427D02*
X0168947Y0172427D01*
X0168711Y0174026D02*
X0161296Y0174026D01*
X0152747Y0170829D02*
X0171700Y0170829D01*
X0173299Y0169230D02*
X0151148Y0169230D01*
X0149550Y0167632D02*
X0174897Y0167632D01*
X0176496Y0166033D02*
X0147951Y0166033D01*
X0146353Y0164435D02*
X0177014Y0164435D01*
X0177014Y0162836D02*
X0144754Y0162836D01*
X0143156Y0161238D02*
X0177043Y0161238D01*
X0177014Y0159639D02*
X0164459Y0159639D01*
X0165617Y0158041D02*
X0177014Y0158041D01*
X0177014Y0156442D02*
X0165542Y0156442D01*
X0164700Y0154844D02*
X0177014Y0154844D01*
X0177014Y0153245D02*
X0164700Y0153245D01*
X0164700Y0151647D02*
X0177014Y0151647D01*
X0177014Y0150048D02*
X0164700Y0150048D01*
X0163721Y0148450D02*
X0177014Y0148450D01*
X0177014Y0146851D02*
X0162122Y0146851D01*
X0160524Y0145253D02*
X0177014Y0145253D01*
X0177014Y0143654D02*
X0158925Y0143654D01*
X0157327Y0142056D02*
X0177014Y0142056D01*
X0177014Y0140457D02*
X0162016Y0140457D01*
X0159184Y0140457D02*
X0155728Y0140457D01*
X0154130Y0138859D02*
X0157990Y0138859D01*
X0158051Y0137260D02*
X0152531Y0137260D01*
X0150933Y0135662D02*
X0159540Y0135662D01*
X0161660Y0135662D02*
X0177014Y0135662D01*
X0193500Y0127669D02*
X0203189Y0127669D01*
X0203189Y0126071D02*
X0193500Y0126071D01*
X0193500Y0124472D02*
X0203189Y0124472D01*
X0203189Y0122874D02*
X0193500Y0122874D01*
X0193500Y0121275D02*
X0203189Y0121275D01*
X0203189Y0119677D02*
X0193500Y0119677D01*
X0193500Y0118078D02*
X0203189Y0118078D01*
X0203298Y0116479D02*
X0192951Y0116479D01*
X0216000Y0116479D02*
X0217600Y0116479D01*
X0217600Y0118078D02*
X0216000Y0118078D01*
X0216000Y0119677D02*
X0217600Y0119677D01*
X0217600Y0121275D02*
X0216000Y0121275D01*
X0216000Y0122874D02*
X0217600Y0122874D01*
X0217600Y0124472D02*
X0216000Y0124472D01*
X0216000Y0126071D02*
X0217600Y0126071D01*
X0217600Y0127669D02*
X0216000Y0127669D01*
X0216000Y0132465D02*
X0217600Y0132465D01*
X0217600Y0134063D02*
X0216000Y0134063D01*
X0216000Y0135662D02*
X0217600Y0135662D01*
X0217600Y0137260D02*
X0216000Y0137260D01*
X0216000Y0138859D02*
X0217600Y0138859D01*
X0217600Y0140457D02*
X0216000Y0140457D01*
X0216000Y0142056D02*
X0217600Y0142056D01*
X0233657Y0151647D02*
X0193500Y0151647D01*
X0193500Y0153245D02*
X0233584Y0153245D01*
X0234752Y0154844D02*
X0193500Y0154844D01*
X0193500Y0156442D02*
X0247880Y0156442D01*
X0247880Y0154844D02*
X0241248Y0154844D01*
X0242416Y0153245D02*
X0247880Y0153245D01*
X0247880Y0151647D02*
X0243090Y0151647D01*
X0244689Y0150048D02*
X0247880Y0150048D01*
X0247880Y0148450D02*
X0246287Y0148450D01*
X0237879Y0148450D02*
X0193500Y0148450D01*
X0193500Y0150048D02*
X0235172Y0150048D01*
X0237648Y0154844D02*
X0238352Y0154844D01*
X0233775Y0159639D02*
X0247880Y0159639D01*
X0247880Y0158041D02*
X0193500Y0158041D01*
X0193500Y0159639D02*
X0195490Y0159639D01*
X0193891Y0161238D02*
X0193500Y0161238D01*
X0214572Y0176433D02*
X0214889Y0177198D01*
X0214889Y0178176D01*
X0215491Y0178176D01*
X0216614Y0178176D01*
X0217072Y0178299D01*
X0217426Y0178503D01*
X0217496Y0178433D01*
X0219896Y0176033D01*
X0223297Y0176033D01*
X0223497Y0175833D01*
X0215304Y0175833D01*
X0214704Y0176433D01*
X0214572Y0176433D01*
X0214889Y0177223D02*
X0218706Y0177223D01*
X0215491Y0178176D02*
X0215491Y0183520D01*
X0215491Y0183520D01*
X0215491Y0188863D01*
X0216614Y0188863D01*
X0216879Y0188792D01*
X0216711Y0189198D01*
X0216711Y0190268D01*
X0216779Y0190433D01*
X0213021Y0190433D01*
X0213089Y0190268D01*
X0213089Y0189198D01*
X0212784Y0188463D01*
X0213460Y0188463D01*
X0213500Y0188503D01*
X0213910Y0188740D01*
X0214368Y0188863D01*
X0215491Y0188863D01*
X0215491Y0183520D01*
X0215491Y0183520D01*
X0215491Y0178176D01*
X0215491Y0178821D02*
X0215491Y0178821D01*
X0215491Y0180420D02*
X0215491Y0180420D01*
X0215491Y0182018D02*
X0215491Y0182018D01*
X0215491Y0183617D02*
X0215491Y0183617D01*
X0215491Y0185215D02*
X0215491Y0185215D01*
X0215491Y0186814D02*
X0215491Y0186814D01*
X0215491Y0188412D02*
X0215491Y0188412D01*
X0216711Y0190011D02*
X0213089Y0190011D01*
X0202800Y0195933D02*
X0200196Y0193329D01*
X0197757Y0196405D02*
X0181676Y0196405D01*
X0180078Y0194807D02*
X0196158Y0194807D01*
X0194560Y0193208D02*
X0178479Y0193208D01*
X0177089Y0191610D02*
X0193273Y0191610D01*
X0199355Y0198004D02*
X0183275Y0198004D01*
X0184873Y0199602D02*
X0201467Y0199602D01*
X0208311Y0201201D02*
X0186472Y0201201D01*
X0188070Y0202799D02*
X0209063Y0202799D01*
X0212937Y0202799D02*
X0220863Y0202799D01*
X0224737Y0202799D02*
X0233274Y0202799D01*
X0233274Y0201201D02*
X0225489Y0201201D01*
X0231115Y0199602D02*
X0233403Y0199602D01*
X0236567Y0198911D02*
X0236567Y0195722D01*
X0237033Y0195722D01*
X0237033Y0198911D01*
X0236567Y0198911D01*
X0236567Y0198004D02*
X0237033Y0198004D01*
X0237033Y0196405D02*
X0236567Y0196405D01*
X0236567Y0194807D02*
X0237033Y0194807D01*
X0237033Y0193208D02*
X0236567Y0193208D01*
X0235894Y0191610D02*
X0322983Y0191610D01*
X0322180Y0190011D02*
X0236172Y0190011D01*
X0236172Y0188412D02*
X0322000Y0188412D01*
X0322372Y0186814D02*
X0241437Y0186814D01*
X0239363Y0186814D02*
X0236172Y0186814D01*
X0236172Y0185215D02*
X0237855Y0185215D01*
X0237280Y0183617D02*
X0236172Y0183617D01*
X0238891Y0180420D02*
X0322686Y0180420D01*
X0322400Y0178821D02*
X0237292Y0178821D01*
X0236100Y0177223D02*
X0322713Y0177223D01*
X0323807Y0175624D02*
X0236100Y0175624D01*
X0236100Y0174026D02*
X0236680Y0174026D01*
X0239214Y0174026D02*
X0239386Y0174026D01*
X0239386Y0172427D02*
X0239214Y0172427D01*
X0239214Y0170829D02*
X0239386Y0170829D01*
X0239386Y0169230D02*
X0239214Y0169230D01*
X0239214Y0167632D02*
X0239386Y0167632D01*
X0239386Y0166033D02*
X0239214Y0166033D01*
X0242802Y0166033D02*
X0247944Y0166033D01*
X0247880Y0164435D02*
X0227854Y0164435D01*
X0228089Y0162836D02*
X0229500Y0162836D01*
X0233300Y0162836D02*
X0247880Y0162836D01*
X0247909Y0161238D02*
X0234089Y0161238D01*
X0242872Y0167632D02*
X0322609Y0167632D01*
X0322400Y0169230D02*
X0242872Y0169230D01*
X0242872Y0170829D02*
X0322790Y0170829D01*
X0323993Y0172427D02*
X0242872Y0172427D01*
X0241920Y0174026D02*
X0329089Y0174026D01*
X0329300Y0183617D02*
X0243014Y0183617D01*
X0242945Y0185215D02*
X0323493Y0185215D01*
X0326600Y0185215D02*
X0327000Y0185215D01*
X0327000Y0186814D02*
X0326600Y0186814D01*
X0326600Y0188412D02*
X0327000Y0188412D01*
X0325151Y0193208D02*
X0240726Y0193208D01*
X0240726Y0194807D02*
X0324122Y0194807D01*
X0322524Y0196405D02*
X0240726Y0196405D01*
X0240669Y0198004D02*
X0320925Y0198004D01*
X0319327Y0199602D02*
X0240197Y0199602D01*
X0240326Y0204398D02*
X0325636Y0204398D01*
X0325636Y0205996D02*
X0191267Y0205996D01*
X0189669Y0204398D02*
X0233274Y0204398D01*
X0233190Y0210792D02*
X0325636Y0210792D01*
X0325636Y0212390D02*
X0234582Y0212390D01*
X0230904Y0214228D02*
X0228345Y0214228D01*
X0225786Y0214228D02*
X0223227Y0214228D01*
X0223227Y0214228D01*
X0225786Y0214228D01*
X0225786Y0214228D01*
X0223227Y0209983D02*
X0223227Y0209983D01*
X0223227Y0209193D02*
X0223227Y0209193D01*
X0221325Y0209193D02*
X0212334Y0209193D01*
X0210432Y0209193D02*
X0210432Y0209193D01*
X0207873Y0209193D02*
X0207873Y0209193D01*
X0205971Y0209193D02*
X0200663Y0209193D01*
X0197337Y0209193D02*
X0194464Y0209193D01*
X0192866Y0207595D02*
X0325636Y0207595D01*
X0325636Y0209193D02*
X0227688Y0209193D01*
X0225786Y0209193D02*
X0225786Y0209193D01*
X0220668Y0214228D02*
X0218109Y0214228D01*
X0210432Y0214228D02*
X0207873Y0214228D01*
X0207873Y0214228D01*
X0210432Y0214228D01*
X0210432Y0214228D01*
X0207873Y0214228D01*
X0205314Y0214228D02*
X0202755Y0214228D01*
X0214486Y0226763D02*
X0214486Y0226763D01*
X0214233Y0227016D01*
X0214323Y0227053D01*
X0215080Y0227810D01*
X0215489Y0228798D01*
X0215489Y0229868D01*
X0215080Y0230856D01*
X0214500Y0231436D01*
X0214500Y0234044D01*
X0216154Y0234044D01*
X0216195Y0234004D01*
X0216605Y0233767D01*
X0217063Y0233644D01*
X0218050Y0233644D01*
X0219037Y0233644D01*
X0219495Y0233767D01*
X0219905Y0234004D01*
X0219946Y0234044D01*
X0227869Y0234044D01*
X0223191Y0229365D01*
X0223175Y0229359D01*
X0221374Y0227558D01*
X0220770Y0226100D01*
X0217813Y0223143D01*
X0217606Y0223642D01*
X0214486Y0226763D01*
X0214472Y0226777D02*
X0221051Y0226777D01*
X0222191Y0228375D02*
X0215314Y0228375D01*
X0215445Y0229974D02*
X0223799Y0229974D01*
X0225398Y0231572D02*
X0214500Y0231572D01*
X0214500Y0233171D02*
X0226996Y0233171D01*
X0230200Y0239433D02*
X0230200Y0240327D01*
X0229380Y0241147D01*
X0219946Y0241147D01*
X0219905Y0241188D01*
X0219495Y0241425D01*
X0219037Y0241547D01*
X0218050Y0241547D01*
X0218050Y0237596D01*
X0218050Y0237596D01*
X0218050Y0241547D01*
X0217063Y0241547D01*
X0216605Y0241425D01*
X0216195Y0241188D01*
X0216154Y0241147D01*
X0212100Y0241147D01*
X0212100Y0242230D01*
X0212680Y0242810D01*
X0213089Y0243798D01*
X0213089Y0244868D01*
X0212680Y0245856D01*
X0211923Y0246613D01*
X0211612Y0246741D01*
X0211704Y0246833D01*
X0232704Y0246833D01*
X0233192Y0247321D01*
X0233320Y0247010D01*
X0234077Y0246253D01*
X0235065Y0245844D01*
X0236135Y0245844D01*
X0237123Y0246253D01*
X0237874Y0247004D01*
X0237874Y0245722D01*
X0241566Y0245722D01*
X0241566Y0245255D01*
X0237874Y0245255D01*
X0237874Y0244399D01*
X0237335Y0244622D01*
X0236265Y0244622D01*
X0235277Y0244213D01*
X0234520Y0243456D01*
X0234111Y0242468D01*
X0234111Y0241398D01*
X0234520Y0240410D01*
X0234847Y0240083D01*
X0234677Y0240013D01*
X0234097Y0239433D01*
X0230200Y0239433D01*
X0230200Y0239565D02*
X0234229Y0239565D01*
X0234208Y0241163D02*
X0219929Y0241163D01*
X0218050Y0241163D02*
X0218050Y0241163D01*
X0218050Y0239565D02*
X0218050Y0239565D01*
X0218050Y0237966D02*
X0218050Y0237966D01*
X0218050Y0237596D02*
X0218050Y0233644D01*
X0218050Y0237596D01*
X0218050Y0237596D01*
X0218050Y0236368D02*
X0218050Y0236368D01*
X0218050Y0234769D02*
X0218050Y0234769D01*
X0216171Y0241163D02*
X0212100Y0241163D01*
X0212632Y0242762D02*
X0234233Y0242762D01*
X0235633Y0244360D02*
X0213089Y0244360D01*
X0212577Y0245959D02*
X0234788Y0245959D01*
X0236412Y0245959D02*
X0237874Y0245959D01*
X0241567Y0245255D02*
X0241567Y0243633D01*
X0242033Y0243633D01*
X0242033Y0245255D01*
X0241567Y0245255D01*
X0241567Y0244360D02*
X0242033Y0244360D01*
X0229014Y0253951D02*
X0228423Y0253951D01*
X0230021Y0255550D02*
X0230613Y0255550D01*
X0231620Y0257148D02*
X0232211Y0257148D01*
X0233100Y0258747D02*
X0233810Y0258747D01*
X0233100Y0260345D02*
X0235408Y0260345D01*
X0237007Y0261944D02*
X0233100Y0261944D01*
X0229700Y0263543D02*
X0229659Y0263543D01*
X0229700Y0265141D02*
X0229500Y0265141D01*
X0229500Y0266740D02*
X0229700Y0266740D01*
X0229313Y0268338D02*
X0228999Y0268338D01*
X0228825Y0269937D02*
X0227401Y0269937D01*
X0228825Y0271535D02*
X0225802Y0271535D01*
X0225273Y0273134D02*
X0229611Y0273134D01*
X0229612Y0274732D02*
X0225273Y0274732D01*
X0221837Y0276331D02*
X0221763Y0276331D01*
X0221763Y0277929D02*
X0221837Y0277929D01*
X0221800Y0267988D02*
X0216800Y0267988D01*
X0216537Y0264222D02*
X0215550Y0264222D01*
X0215550Y0260271D01*
X0215550Y0264222D01*
X0214563Y0264222D01*
X0214105Y0264099D01*
X0213695Y0263862D01*
X0213685Y0263852D01*
X0213016Y0264521D01*
X0214053Y0264521D01*
X0214300Y0264768D01*
X0214547Y0264521D01*
X0219053Y0264521D01*
X0219300Y0264768D01*
X0219547Y0264521D01*
X0223208Y0264521D01*
X0223700Y0264029D01*
X0223700Y0263822D01*
X0217446Y0263822D01*
X0217405Y0263862D01*
X0216995Y0264099D01*
X0216537Y0264222D01*
X0215550Y0263543D02*
X0215550Y0263543D01*
X0215550Y0261944D02*
X0215550Y0261944D01*
X0215550Y0260345D02*
X0215550Y0260345D01*
X0215550Y0260271D02*
X0215550Y0260271D01*
X0211800Y0267988D02*
X0206800Y0267988D01*
X0226723Y0289119D02*
X0227546Y0289119D01*
X0227205Y0290717D02*
X0227065Y0290717D01*
X0227065Y0292316D02*
X0227205Y0292316D01*
X0250109Y0293914D02*
X0253491Y0293914D01*
X0253382Y0295513D02*
X0250218Y0295513D01*
X0250218Y0297111D02*
X0253382Y0297111D01*
X0253382Y0298710D02*
X0250218Y0298710D01*
X0250092Y0300308D02*
X0253508Y0300308D01*
X0258556Y0300308D02*
X0273547Y0300308D01*
X0273327Y0298710D02*
X0258682Y0298710D01*
X0258682Y0297111D02*
X0273327Y0297111D01*
X0273327Y0295513D02*
X0258682Y0295513D01*
X0264181Y0290717D02*
X0273727Y0290717D01*
X0273727Y0289119D02*
X0264873Y0289119D01*
X0264873Y0287520D02*
X0274048Y0287520D01*
X0273038Y0285922D02*
X0264873Y0285922D01*
X0264465Y0284323D02*
X0273038Y0284323D01*
X0273038Y0282725D02*
X0264873Y0282725D01*
X0264873Y0281126D02*
X0273038Y0281126D01*
X0273635Y0279528D02*
X0265210Y0279528D01*
X0266808Y0277929D02*
X0273226Y0277929D01*
X0273038Y0277741D02*
X0273038Y0271857D01*
X0273858Y0271037D01*
X0279742Y0271037D01*
X0280562Y0271857D01*
X0280562Y0277741D01*
X0279742Y0278561D01*
X0273858Y0278561D01*
X0273038Y0277741D01*
X0273038Y0276331D02*
X0268407Y0276331D01*
X0270005Y0274732D02*
X0273038Y0274732D01*
X0273038Y0273134D02*
X0271604Y0273134D01*
X0273202Y0271535D02*
X0273360Y0271535D01*
X0273900Y0269937D02*
X0284599Y0269937D01*
X0286198Y0271535D02*
X0280240Y0271535D01*
X0280562Y0273134D02*
X0287796Y0273134D01*
X0288038Y0274732D02*
X0280562Y0274732D01*
X0280562Y0276331D02*
X0288038Y0276331D01*
X0288226Y0277929D02*
X0280374Y0277929D01*
X0279965Y0279528D02*
X0288635Y0279528D01*
X0288858Y0279305D02*
X0288038Y0280125D01*
X0288038Y0286009D01*
X0288858Y0286829D01*
X0289600Y0286829D01*
X0289600Y0287218D01*
X0289055Y0287218D01*
X0288235Y0288038D01*
X0288235Y0293135D01*
X0288809Y0293709D01*
X0288529Y0293871D01*
X0288194Y0294206D01*
X0287957Y0294616D01*
X0287835Y0295074D01*
X0287835Y0297095D01*
X0291616Y0297095D01*
X0291616Y0297464D01*
X0291616Y0301048D01*
X0289398Y0301048D01*
X0288940Y0300925D01*
X0288529Y0300688D01*
X0288194Y0300353D01*
X0287957Y0299943D01*
X0287835Y0299485D01*
X0287835Y0297464D01*
X0291616Y0297464D01*
X0291984Y0297464D01*
X0291984Y0301048D01*
X0294202Y0301048D01*
X0294660Y0300925D01*
X0295071Y0300688D01*
X0295406Y0300353D01*
X0295643Y0299943D01*
X0295765Y0299485D01*
X0295765Y0297464D01*
X0291984Y0297464D01*
X0291984Y0297095D01*
X0295765Y0297095D01*
X0295765Y0295074D01*
X0295643Y0294616D01*
X0295406Y0294206D01*
X0295071Y0293871D01*
X0294791Y0293709D01*
X0295365Y0293135D01*
X0295365Y0288038D01*
X0294545Y0287218D01*
X0294000Y0287218D01*
X0294000Y0286829D01*
X0294742Y0286829D01*
X0295562Y0286009D01*
X0295562Y0280125D01*
X0294742Y0279305D01*
X0288858Y0279305D01*
X0288038Y0281126D02*
X0280562Y0281126D01*
X0280562Y0282725D02*
X0288038Y0282725D01*
X0288038Y0284323D02*
X0280562Y0284323D01*
X0280562Y0285922D02*
X0288038Y0285922D01*
X0288753Y0287520D02*
X0279552Y0287520D01*
X0279873Y0289119D02*
X0288235Y0289119D01*
X0288235Y0290717D02*
X0279873Y0290717D01*
X0279873Y0292316D02*
X0288235Y0292316D01*
X0288486Y0293914D02*
X0279622Y0293914D01*
X0280273Y0295513D02*
X0287835Y0295513D01*
X0287835Y0298710D02*
X0280273Y0298710D01*
X0280273Y0297111D02*
X0291616Y0297111D01*
X0291984Y0297111D02*
X0348795Y0297111D01*
X0346068Y0295513D02*
X0295765Y0295513D01*
X0295114Y0293914D02*
X0344470Y0293914D01*
X0343778Y0292316D02*
X0295365Y0292316D01*
X0295365Y0290717D02*
X0343116Y0290717D01*
X0343094Y0289119D02*
X0295365Y0289119D01*
X0294847Y0287520D02*
X0343094Y0287520D01*
X0343625Y0285922D02*
X0295562Y0285922D01*
X0295562Y0284323D02*
X0344287Y0284323D01*
X0345697Y0282725D02*
X0295562Y0282725D01*
X0295562Y0281126D02*
X0347899Y0281126D01*
X0355701Y0281126D02*
X0359000Y0281126D01*
X0359000Y0279528D02*
X0294965Y0279528D01*
X0295374Y0277929D02*
X0359000Y0277929D01*
X0359000Y0276331D02*
X0295562Y0276331D01*
X0295562Y0274732D02*
X0359000Y0274732D01*
X0359000Y0273134D02*
X0295562Y0273134D01*
X0295240Y0271535D02*
X0359000Y0271535D01*
X0359000Y0269937D02*
X0357304Y0269937D01*
X0357964Y0268338D02*
X0359000Y0268338D01*
X0359000Y0266740D02*
X0357964Y0266740D01*
X0357964Y0265141D02*
X0359000Y0265141D01*
X0359000Y0263543D02*
X0357964Y0263543D01*
X0357964Y0261944D02*
X0359000Y0261944D01*
X0359000Y0260345D02*
X0357964Y0260345D01*
X0357964Y0258747D02*
X0359000Y0258747D01*
X0359000Y0257148D02*
X0357964Y0257148D01*
X0357964Y0255550D02*
X0359000Y0255550D01*
X0359000Y0253951D02*
X0357964Y0253951D01*
X0357964Y0252353D02*
X0359000Y0252353D01*
X0359000Y0250754D02*
X0357964Y0250754D01*
X0357964Y0249156D02*
X0359000Y0249156D01*
X0359000Y0247557D02*
X0357964Y0247557D01*
X0357964Y0245959D02*
X0359000Y0245959D01*
X0359000Y0244360D02*
X0357964Y0244360D01*
X0357964Y0242762D02*
X0359000Y0242762D01*
X0359000Y0241163D02*
X0357964Y0241163D01*
X0357964Y0239565D02*
X0359000Y0239565D01*
X0359000Y0237966D02*
X0357341Y0237966D01*
X0326129Y0234769D02*
X0301687Y0234769D01*
X0300089Y0233171D02*
X0325636Y0233171D01*
X0325636Y0231572D02*
X0298490Y0231572D01*
X0296892Y0229974D02*
X0325636Y0229974D01*
X0325636Y0228375D02*
X0295293Y0228375D01*
X0293695Y0226777D02*
X0325636Y0226777D01*
X0326427Y0202799D02*
X0320938Y0202799D01*
X0323742Y0182018D02*
X0241839Y0182018D01*
X0230572Y0195143D02*
X0229782Y0195933D01*
X0202696Y0183520D02*
X0200196Y0186020D01*
X0161541Y0159639D02*
X0160859Y0159639D01*
X0157941Y0159639D02*
X0141557Y0159639D01*
X0139959Y0158041D02*
X0156783Y0158041D01*
X0156858Y0156442D02*
X0138360Y0156442D01*
X0136762Y0154844D02*
X0157700Y0154844D01*
X0157700Y0153245D02*
X0135163Y0153245D01*
X0133565Y0151647D02*
X0157700Y0151647D01*
X0157700Y0150048D02*
X0132294Y0150048D01*
X0132294Y0148450D02*
X0157112Y0148450D01*
X0155514Y0146851D02*
X0132294Y0146851D01*
X0132294Y0145253D02*
X0153915Y0145253D01*
X0152317Y0143654D02*
X0132294Y0143654D01*
X0132294Y0142056D02*
X0150718Y0142056D01*
X0149120Y0140457D02*
X0132294Y0140457D01*
X0132294Y0138859D02*
X0147521Y0138859D01*
X0145923Y0137260D02*
X0132294Y0137260D01*
X0132294Y0135662D02*
X0144324Y0135662D01*
X0142726Y0134063D02*
X0132294Y0134063D01*
X0132294Y0132465D02*
X0142100Y0132465D01*
X0142100Y0130866D02*
X0132294Y0130866D01*
X0132294Y0129268D02*
X0142100Y0129268D01*
X0142100Y0127669D02*
X0137670Y0127669D01*
X0139112Y0126071D02*
X0142100Y0126071D01*
X0142100Y0124472D02*
X0139112Y0124472D01*
X0139112Y0123749D02*
X0135331Y0123749D01*
X0135331Y0120165D01*
X0137549Y0120165D01*
X0138007Y0120287D01*
X0138417Y0120524D01*
X0138752Y0120859D01*
X0138989Y0121270D01*
X0139112Y0121728D01*
X0139112Y0123749D01*
X0139112Y0122874D02*
X0142100Y0122874D01*
X0142100Y0121275D02*
X0138991Y0121275D01*
X0142100Y0119677D02*
X0132294Y0119677D01*
X0132294Y0118078D02*
X0142100Y0118078D01*
X0142100Y0116479D02*
X0132294Y0116479D01*
X0132294Y0114881D02*
X0132970Y0114881D01*
X0136906Y0114881D02*
X0138505Y0114881D01*
X0138505Y0113282D02*
X0136906Y0113282D01*
X0136906Y0111684D02*
X0138505Y0111684D01*
X0138505Y0110085D02*
X0136906Y0110085D01*
X0138506Y0108487D02*
X0145842Y0108487D01*
X0147440Y0106888D02*
X0143443Y0106888D01*
X0143443Y0105290D02*
X0149039Y0105290D01*
X0150638Y0103691D02*
X0143195Y0103691D01*
X0138505Y0103691D02*
X0136906Y0103691D01*
X0136906Y0105290D02*
X0138505Y0105290D01*
X0138505Y0106888D02*
X0136906Y0106888D01*
X0132216Y0103691D02*
X0130900Y0103691D01*
X0131302Y0105290D02*
X0131969Y0105290D01*
X0119494Y0111684D02*
X0069600Y0111684D01*
X0069600Y0113282D02*
X0119494Y0113282D01*
X0119494Y0114881D02*
X0069600Y0114881D01*
X0069600Y0116479D02*
X0119494Y0116479D01*
X0119494Y0118078D02*
X0069600Y0118078D01*
X0069600Y0119677D02*
X0119494Y0119677D01*
X0119494Y0121275D02*
X0069600Y0121275D01*
X0069600Y0122874D02*
X0119494Y0122874D01*
X0119494Y0124472D02*
X0069600Y0124472D01*
X0069600Y0126071D02*
X0119494Y0126071D01*
X0119494Y0127669D02*
X0069600Y0127669D01*
X0069600Y0129268D02*
X0119494Y0129268D01*
X0119494Y0130866D02*
X0069600Y0130866D01*
X0069600Y0132465D02*
X0119494Y0132465D01*
X0119494Y0134063D02*
X0069600Y0134063D01*
X0069600Y0135662D02*
X0119494Y0135662D01*
X0119494Y0137260D02*
X0069600Y0137260D01*
X0069600Y0138859D02*
X0119494Y0138859D01*
X0119494Y0140457D02*
X0069600Y0140457D01*
X0069600Y0142056D02*
X0119494Y0142056D01*
X0119494Y0143654D02*
X0069600Y0143654D01*
X0069600Y0145253D02*
X0119494Y0145253D01*
X0119494Y0146851D02*
X0069600Y0146851D01*
X0069600Y0148450D02*
X0119494Y0148450D01*
X0119494Y0150048D02*
X0069600Y0150048D01*
X0069600Y0151647D02*
X0119494Y0151647D01*
X0119494Y0153245D02*
X0069600Y0153245D01*
X0069600Y0154844D02*
X0099716Y0154844D01*
X0099957Y0154721D02*
X0100676Y0154487D01*
X0101422Y0154369D01*
X0101600Y0154369D01*
X0101600Y0158969D01*
X0102000Y0158969D01*
X0102000Y0154369D01*
X0102178Y0154369D01*
X0102924Y0154487D01*
X0103643Y0154721D01*
X0104316Y0155064D01*
X0104927Y0155508D01*
X0105461Y0156042D01*
X0105905Y0156654D01*
X0106248Y0157327D01*
X0106482Y0158045D01*
X0106600Y0158792D01*
X0106600Y0158969D01*
X0102000Y0158969D01*
X0102000Y0159369D01*
X0106600Y0159369D01*
X0106600Y0159547D01*
X0106482Y0160293D01*
X0106248Y0161012D01*
X0105905Y0161685D01*
X0105461Y0162296D01*
X0104927Y0162831D01*
X0104316Y0163275D01*
X0103643Y0163618D01*
X0102924Y0163851D01*
X0102178Y0163969D01*
X0102000Y0163969D01*
X0102000Y0159369D01*
X0101600Y0159369D01*
X0101600Y0158969D01*
X0097000Y0158969D01*
X0097000Y0158792D01*
X0097118Y0158045D01*
X0097352Y0157327D01*
X0097695Y0156654D01*
X0098139Y0156042D01*
X0098673Y0155508D01*
X0099284Y0155064D01*
X0099957Y0154721D01*
X0101600Y0154844D02*
X0102000Y0154844D01*
X0102000Y0156442D02*
X0101600Y0156442D01*
X0101600Y0158041D02*
X0102000Y0158041D01*
X0101600Y0159369D02*
X0097000Y0159369D01*
X0097000Y0159547D01*
X0097118Y0160293D01*
X0097352Y0161012D01*
X0097695Y0161685D01*
X0098139Y0162296D01*
X0098673Y0162831D01*
X0099284Y0163275D01*
X0099957Y0163618D01*
X0100676Y0163851D01*
X0101422Y0163969D01*
X0101600Y0163969D01*
X0101600Y0159369D01*
X0101600Y0159639D02*
X0102000Y0159639D01*
X0102000Y0161238D02*
X0101600Y0161238D01*
X0101600Y0162836D02*
X0102000Y0162836D01*
X0102675Y0164612D02*
X0100925Y0164612D01*
X0099308Y0165282D01*
X0098070Y0166519D01*
X0097400Y0168137D01*
X0097400Y0169887D01*
X0098070Y0171504D01*
X0099308Y0172742D01*
X0100925Y0173412D01*
X0102675Y0173412D01*
X0104292Y0172742D01*
X0105530Y0171504D01*
X0106200Y0169887D01*
X0106200Y0168137D01*
X0105530Y0166519D01*
X0104292Y0165282D01*
X0102675Y0164612D01*
X0105044Y0166033D02*
X0129849Y0166033D01*
X0128251Y0164435D02*
X0069600Y0164435D01*
X0069600Y0166033D02*
X0098556Y0166033D01*
X0097609Y0167632D02*
X0069600Y0167632D01*
X0069600Y0169230D02*
X0097400Y0169230D01*
X0097790Y0170829D02*
X0069600Y0170829D01*
X0069600Y0172427D02*
X0098993Y0172427D01*
X0104607Y0172427D02*
X0136243Y0172427D01*
X0134645Y0170829D02*
X0105810Y0170829D01*
X0106200Y0169230D02*
X0133046Y0169230D01*
X0131448Y0167632D02*
X0105991Y0167632D01*
X0104919Y0162836D02*
X0126652Y0162836D01*
X0125054Y0161238D02*
X0106133Y0161238D01*
X0106585Y0159639D02*
X0123455Y0159639D01*
X0121857Y0158041D02*
X0106480Y0158041D01*
X0105752Y0156442D02*
X0120382Y0156442D01*
X0119719Y0154844D02*
X0103884Y0154844D01*
X0097848Y0156442D02*
X0069600Y0156442D01*
X0069600Y0158041D02*
X0097120Y0158041D01*
X0097015Y0159639D02*
X0069600Y0159639D01*
X0069600Y0161238D02*
X0097467Y0161238D01*
X0098681Y0162836D02*
X0069600Y0162836D01*
X0069600Y0186814D02*
X0097400Y0186814D01*
X0097400Y0188412D02*
X0069600Y0188412D01*
X0069600Y0190011D02*
X0097400Y0190011D01*
X0097400Y0191610D02*
X0069600Y0191610D01*
X0132294Y0127669D02*
X0132623Y0127669D01*
X0134962Y0127669D02*
X0135331Y0127669D01*
X0135331Y0126071D02*
X0134962Y0126071D01*
X0134962Y0124472D02*
X0135331Y0124472D01*
X0135331Y0122874D02*
X0134962Y0122874D01*
X0134962Y0121275D02*
X0135331Y0121275D01*
X0142441Y0114881D02*
X0143048Y0114881D01*
X0151000Y0094100D02*
X0152600Y0094100D01*
X0152600Y0092502D02*
X0151000Y0092502D01*
X0151000Y0090903D02*
X0152600Y0090903D01*
X0152600Y0089305D02*
X0151000Y0089305D01*
X0151000Y0087706D02*
X0152600Y0087706D01*
X0152600Y0086108D02*
X0151000Y0086108D01*
X0151000Y0084509D02*
X0152600Y0084509D01*
X0152600Y0082911D02*
X0151000Y0082911D01*
X0151000Y0078115D02*
X0152600Y0078115D01*
X0152600Y0076517D02*
X0151000Y0076517D01*
X0151000Y0074918D02*
X0152600Y0074918D01*
X0152600Y0073320D02*
X0151000Y0073320D01*
X0151000Y0071721D02*
X0152600Y0071721D01*
X0152600Y0070123D02*
X0151000Y0070123D01*
X0151000Y0068524D02*
X0152600Y0068524D01*
X0152600Y0066926D02*
X0151000Y0066926D01*
X0151000Y0065327D02*
X0152600Y0065327D01*
X0152600Y0063729D02*
X0151000Y0063729D01*
X0135291Y0063729D02*
X0132964Y0063729D01*
X0132964Y0065327D02*
X0135236Y0065327D01*
X0135236Y0066926D02*
X0132964Y0066926D01*
X0132964Y0068524D02*
X0135236Y0068524D01*
X0135236Y0070123D02*
X0132964Y0070123D01*
X0132964Y0071721D02*
X0135236Y0071721D01*
X0135236Y0073320D02*
X0132964Y0073320D01*
X0132964Y0074918D02*
X0135236Y0074918D01*
X0135236Y0076517D02*
X0132964Y0076517D01*
X0132964Y0078115D02*
X0135236Y0078115D01*
X0110400Y0095699D02*
X0069600Y0095699D01*
X0069600Y0097297D02*
X0110400Y0097297D01*
X0110400Y0098896D02*
X0069600Y0098896D01*
X0069600Y0100494D02*
X0110400Y0100494D01*
X0110806Y0102093D02*
X0069600Y0102093D01*
X0069600Y0103691D02*
X0111602Y0103691D01*
X0113200Y0105290D02*
X0069600Y0105290D01*
X0069600Y0106888D02*
X0114799Y0106888D01*
X0116397Y0108487D02*
X0069600Y0108487D01*
X0069600Y0110085D02*
X0117996Y0110085D01*
X0100636Y0094100D02*
X0069600Y0094100D01*
X0069600Y0092502D02*
X0100636Y0092502D01*
X0100636Y0090903D02*
X0069600Y0090903D01*
X0069600Y0089305D02*
X0100636Y0089305D01*
X0100636Y0087706D02*
X0069600Y0087706D01*
X0069600Y0086108D02*
X0100636Y0086108D01*
X0100636Y0084509D02*
X0069600Y0084509D01*
X0069600Y0082911D02*
X0100636Y0082911D01*
X0100636Y0081312D02*
X0081732Y0081312D01*
X0083331Y0079714D02*
X0100636Y0079714D01*
X0100636Y0078115D02*
X0084490Y0078115D01*
X0085153Y0076517D02*
X0100636Y0076517D01*
X0100636Y0074918D02*
X0085505Y0074918D01*
X0085505Y0073320D02*
X0100636Y0073320D01*
X0100636Y0071721D02*
X0085307Y0071721D01*
X0084644Y0070123D02*
X0100636Y0070123D01*
X0100636Y0068524D02*
X0083703Y0068524D01*
X0082104Y0066926D02*
X0100636Y0066926D01*
X0100636Y0065327D02*
X0078772Y0065327D01*
X0071865Y0063729D02*
X0100636Y0063729D01*
X0071496Y0066926D02*
X0069975Y0066926D01*
X0069897Y0068524D02*
X0069632Y0068524D01*
X0069600Y0079714D02*
X0070269Y0079714D01*
X0069600Y0081312D02*
X0071868Y0081312D01*
X0168364Y0081312D02*
X0170750Y0081312D01*
X0170750Y0082911D02*
X0168364Y0082911D01*
X0168364Y0084509D02*
X0170750Y0084509D01*
X0170750Y0086108D02*
X0168364Y0086108D01*
X0168364Y0087706D02*
X0170750Y0087706D01*
X0170750Y0089305D02*
X0168364Y0089305D01*
X0168364Y0090903D02*
X0170750Y0090903D01*
X0170750Y0092502D02*
X0168364Y0092502D01*
X0168319Y0094100D02*
X0170750Y0094100D01*
X0223360Y0105290D02*
X0243141Y0105290D01*
X0244240Y0106888D02*
X0224443Y0106888D01*
X0225158Y0108487D02*
X0247880Y0108487D01*
X0245445Y0110085D02*
X0226757Y0110085D01*
X0230411Y0119677D02*
X0231539Y0119677D01*
X0230411Y0121275D02*
X0233138Y0121275D01*
X0234736Y0122874D02*
X0230411Y0122874D01*
X0230411Y0124472D02*
X0236335Y0124472D01*
X0256586Y0132465D02*
X0267064Y0132465D01*
X0265466Y0134063D02*
X0256586Y0134063D01*
X0256586Y0135662D02*
X0263867Y0135662D01*
X0262269Y0137260D02*
X0256586Y0137260D01*
X0256586Y0138859D02*
X0260670Y0138859D01*
X0259072Y0140457D02*
X0256586Y0140457D01*
X0256586Y0142056D02*
X0257473Y0142056D01*
X0262886Y0146851D02*
X0319914Y0146851D01*
X0318315Y0145253D02*
X0264485Y0145253D01*
X0266083Y0143654D02*
X0316717Y0143654D01*
X0315118Y0142056D02*
X0267682Y0142056D01*
X0269280Y0140457D02*
X0313520Y0140457D01*
X0311921Y0138859D02*
X0270879Y0138859D01*
X0272477Y0137260D02*
X0310323Y0137260D01*
X0308724Y0135662D02*
X0274076Y0135662D01*
X0274704Y0135033D02*
X0256586Y0153151D01*
X0256586Y0155970D01*
X0256437Y0156118D01*
X0256586Y0156267D01*
X0256586Y0157433D01*
X0322400Y0157433D01*
X0322400Y0155589D01*
X0323220Y0154769D01*
X0327832Y0154769D01*
X0288908Y0115845D01*
X0284547Y0115845D01*
X0283727Y0115025D01*
X0283727Y0114778D01*
X0279873Y0114778D01*
X0279873Y0115025D01*
X0279053Y0115845D01*
X0275700Y0115845D01*
X0275700Y0134037D01*
X0274704Y0135033D01*
X0275674Y0134063D02*
X0307126Y0134063D01*
X0305527Y0132465D02*
X0275700Y0132465D01*
X0275700Y0130866D02*
X0303929Y0130866D01*
X0302330Y0129268D02*
X0275700Y0129268D01*
X0275700Y0127669D02*
X0300732Y0127669D01*
X0299133Y0126071D02*
X0275700Y0126071D01*
X0275700Y0124472D02*
X0297535Y0124472D01*
X0295936Y0122874D02*
X0275700Y0122874D01*
X0275700Y0121275D02*
X0294338Y0121275D01*
X0292739Y0119677D02*
X0275700Y0119677D01*
X0275700Y0118078D02*
X0291141Y0118078D01*
X0289542Y0116479D02*
X0275700Y0116479D01*
X0279873Y0114881D02*
X0283727Y0114881D01*
X0265229Y0094100D02*
X0262850Y0094100D01*
X0262850Y0092502D02*
X0266827Y0092502D01*
X0258031Y0095699D02*
X0256584Y0095699D01*
X0256986Y0097297D02*
X0258031Y0097297D01*
X0258031Y0098896D02*
X0256986Y0098896D01*
X0252319Y0097297D02*
X0252147Y0097297D01*
X0252147Y0095699D02*
X0252319Y0095699D01*
X0262850Y0084509D02*
X0359000Y0084509D01*
X0359000Y0082911D02*
X0262850Y0082911D01*
X0262850Y0081312D02*
X0346868Y0081312D01*
X0345269Y0079714D02*
X0262850Y0079714D01*
X0262850Y0078115D02*
X0344110Y0078115D01*
X0343447Y0076517D02*
X0262850Y0076517D01*
X0262850Y0074918D02*
X0343094Y0074918D01*
X0343094Y0073320D02*
X0262850Y0073320D01*
X0262850Y0071721D02*
X0343293Y0071721D01*
X0343956Y0070123D02*
X0262850Y0070123D01*
X0262850Y0068524D02*
X0344897Y0068524D01*
X0346496Y0066926D02*
X0262850Y0066926D01*
X0262850Y0065327D02*
X0349828Y0065327D01*
X0353772Y0065327D02*
X0357970Y0065327D01*
X0358625Y0066926D02*
X0357104Y0066926D01*
X0358703Y0068524D02*
X0358968Y0068524D01*
X0356735Y0063729D02*
X0262850Y0063729D01*
X0262850Y0062130D02*
X0353875Y0062130D01*
X0358331Y0079714D02*
X0359000Y0079714D01*
X0359000Y0081312D02*
X0356732Y0081312D01*
X0359000Y0089305D02*
X0304376Y0089305D01*
X0309757Y0090903D02*
X0359000Y0090903D01*
X0359000Y0092502D02*
X0310733Y0092502D01*
X0310964Y0094100D02*
X0359000Y0094100D01*
X0359000Y0095699D02*
X0310595Y0095699D01*
X0309422Y0097297D02*
X0359000Y0097297D01*
X0321512Y0148450D02*
X0261288Y0148450D01*
X0259689Y0150048D02*
X0323111Y0150048D01*
X0324710Y0151647D02*
X0258090Y0151647D01*
X0256586Y0153245D02*
X0326308Y0153245D01*
X0323146Y0154844D02*
X0256586Y0154844D01*
X0256586Y0156442D02*
X0322400Y0156442D01*
X0322400Y0161238D02*
X0256557Y0161238D01*
X0256586Y0162836D02*
X0322487Y0162836D01*
X0323556Y0166033D02*
X0256522Y0166033D01*
X0256586Y0164435D02*
X0326894Y0164435D01*
X0285184Y0236368D02*
X0256794Y0236368D01*
X0256765Y0237966D02*
X0286782Y0237966D01*
X0268614Y0253951D02*
X0266823Y0253951D01*
X0267016Y0252353D02*
X0265224Y0252353D01*
X0265417Y0250754D02*
X0263626Y0250754D01*
X0262623Y0249156D02*
X0262027Y0249156D01*
X0268421Y0255550D02*
X0270213Y0255550D01*
X0270020Y0257148D02*
X0271811Y0257148D01*
X0271618Y0258747D02*
X0273410Y0258747D01*
X0273217Y0260345D02*
X0275008Y0260345D01*
X0273900Y0261944D02*
X0276607Y0261944D01*
X0278205Y0263543D02*
X0273900Y0263543D01*
X0273900Y0265141D02*
X0279804Y0265141D01*
X0281402Y0266740D02*
X0273900Y0266740D01*
X0273900Y0268338D02*
X0283001Y0268338D01*
X0284612Y0265141D02*
X0325636Y0265141D01*
X0325636Y0263543D02*
X0283014Y0263543D01*
X0281415Y0261944D02*
X0325636Y0261944D01*
X0325636Y0260345D02*
X0279817Y0260345D01*
X0286211Y0266740D02*
X0325636Y0266740D01*
X0325636Y0268338D02*
X0287809Y0268338D01*
X0289408Y0269937D02*
X0326296Y0269937D01*
X0357532Y0295513D02*
X0358764Y0295513D01*
X0358245Y0297111D02*
X0354805Y0297111D01*
X0357120Y0298710D02*
X0295765Y0298710D01*
X0295432Y0300308D02*
X0355124Y0300308D01*
X0357903Y0282725D02*
X0359000Y0282725D01*
X0291800Y0283067D02*
X0291800Y0290587D01*
X0291616Y0298710D02*
X0291984Y0298710D01*
X0291984Y0300308D02*
X0291616Y0300308D01*
X0288168Y0300308D02*
X0280053Y0300308D01*
X0276800Y0290488D02*
X0276800Y0283067D01*
X0263608Y0260345D02*
X0258217Y0260345D01*
X0219848Y0225178D02*
X0216070Y0225178D01*
X0217632Y0223580D02*
X0218250Y0223580D01*
D37*
X0212800Y0229333D02*
X0212800Y0237133D01*
X0213050Y0237596D01*
X0210550Y0237596D02*
X0210400Y0237733D01*
X0210400Y0244333D01*
X0208000Y0245533D02*
X0211000Y0248533D01*
X0232000Y0248533D01*
X0244000Y0260533D01*
X0256000Y0260533D01*
X0259000Y0263533D01*
X0259000Y0264733D01*
X0259300Y0264760D01*
X0259600Y0264733D01*
X0263800Y0264733D01*
X0264300Y0264760D01*
X0266200Y0268933D02*
X0269800Y0265333D01*
X0269300Y0264760D01*
X0269200Y0264733D01*
X0269200Y0263533D01*
X0247600Y0241933D01*
X0236800Y0241933D01*
X0241600Y0244933D02*
X0241800Y0245488D01*
X0242200Y0245533D01*
X0247600Y0245533D01*
X0254300Y0242319D02*
X0254200Y0241933D01*
X0254200Y0237133D01*
X0259300Y0242319D02*
X0259600Y0242533D01*
X0259600Y0249133D01*
X0272200Y0261733D01*
X0272200Y0270133D01*
X0262000Y0280333D01*
X0261800Y0280488D01*
X0261400Y0280933D01*
X0256600Y0280933D01*
X0256032Y0280764D01*
X0250000Y0280333D02*
X0256600Y0286933D01*
X0261400Y0286933D01*
X0261800Y0287378D01*
X0263800Y0297133D02*
X0247600Y0280933D01*
X0247568Y0280764D01*
X0247000Y0280333D01*
X0235600Y0280333D01*
X0234400Y0279133D01*
X0229600Y0283933D01*
X0229005Y0283894D01*
X0234400Y0279133D02*
X0234400Y0275533D01*
X0234400Y0260533D01*
X0224200Y0250333D01*
X0218800Y0250333D01*
X0218200Y0250933D01*
X0212800Y0250933D01*
X0210400Y0253333D01*
X0202600Y0245533D01*
X0191800Y0245533D01*
X0191800Y0245488D01*
X0196600Y0251533D02*
X0205000Y0259933D01*
X0205550Y0260270D01*
X0210400Y0264733D02*
X0178000Y0264733D01*
X0153400Y0289333D01*
X0135400Y0289333D01*
X0131800Y0292933D01*
X0131800Y0293067D01*
X0151800Y0293067D02*
X0152200Y0292933D01*
X0175000Y0270133D01*
X0188200Y0270133D01*
X0187000Y0273733D02*
X0184600Y0273733D01*
X0178000Y0280333D01*
X0177568Y0280764D01*
X0177400Y0280933D01*
X0172000Y0280933D01*
X0171800Y0280488D01*
X0175600Y0285733D02*
X0174400Y0286933D01*
X0172000Y0286933D01*
X0171800Y0287378D01*
X0186032Y0280764D02*
X0186400Y0280933D01*
X0203800Y0280933D01*
X0204595Y0283894D01*
X0214600Y0271333D02*
X0211600Y0268333D01*
X0211800Y0267988D01*
X0210400Y0264733D02*
X0212800Y0262333D01*
X0212800Y0260533D01*
X0213050Y0260270D01*
X0215200Y0259933D02*
X0215550Y0260270D01*
X0215200Y0259933D02*
X0215200Y0258133D01*
X0210400Y0253333D01*
X0216400Y0255733D02*
X0218200Y0255733D01*
X0218200Y0252733D01*
X0219400Y0251533D01*
X0223600Y0251533D01*
X0231400Y0259333D01*
X0231400Y0270133D01*
X0231800Y0270587D01*
X0233800Y0274933D02*
X0234400Y0275533D01*
X0233800Y0274933D02*
X0221800Y0274933D01*
X0221800Y0274878D01*
X0223600Y0271333D02*
X0214600Y0271333D01*
X0221800Y0267988D02*
X0222400Y0267733D01*
X0225400Y0264733D01*
X0225400Y0260533D01*
X0225550Y0260270D01*
X0223600Y0259933D02*
X0223050Y0260270D01*
X0223000Y0260533D01*
X0220600Y0260533D01*
X0220550Y0260270D01*
X0218200Y0259933D02*
X0218050Y0260270D01*
X0218200Y0259933D02*
X0218200Y0255733D01*
X0223600Y0255133D02*
X0223600Y0259933D01*
X0227800Y0260533D02*
X0228050Y0260270D01*
X0227800Y0260533D02*
X0227800Y0267133D01*
X0223600Y0271333D01*
X0241800Y0252378D02*
X0241600Y0252133D01*
X0239200Y0252133D01*
X0235600Y0248533D01*
X0241600Y0244933D02*
X0223600Y0244933D01*
X0221200Y0242533D01*
X0217600Y0246133D01*
X0221200Y0242533D02*
X0218200Y0239533D01*
X0218200Y0237733D01*
X0218050Y0237596D01*
X0228050Y0237596D02*
X0228400Y0237733D01*
X0236200Y0237733D01*
X0228400Y0250933D02*
X0250000Y0272533D01*
X0250000Y0280333D01*
X0257200Y0268933D02*
X0254800Y0266533D01*
X0254800Y0265333D01*
X0254300Y0264760D01*
X0257200Y0268933D02*
X0266200Y0268933D01*
X0269800Y0249133D02*
X0269800Y0242533D01*
X0269300Y0242319D01*
X0263800Y0246733D02*
X0291400Y0274333D01*
X0291800Y0274799D01*
X0291800Y0297280D02*
X0291400Y0297733D01*
X0277000Y0297733D01*
X0276800Y0297378D01*
X0276400Y0297133D01*
X0263800Y0297133D01*
X0199000Y0257533D02*
X0196600Y0257533D01*
X0191800Y0252733D01*
X0191800Y0252378D01*
X0191800Y0252733D02*
X0169600Y0252733D01*
X0152200Y0270133D01*
X0151800Y0270488D01*
X0151600Y0270733D01*
X0131800Y0270733D01*
X0131800Y0270488D01*
X0194200Y0211333D02*
X0174400Y0191533D01*
X0178000Y0175933D02*
X0159400Y0175933D01*
X0171400Y0173533D02*
X0181000Y0163933D01*
X0181367Y0163618D01*
X0182200Y0167533D02*
X0184000Y0167533D01*
X0185800Y0165733D01*
X0185800Y0164533D01*
X0190600Y0159733D01*
X0190600Y0125533D01*
X0188800Y0123733D01*
X0181600Y0123733D01*
X0181367Y0123618D01*
X0181000Y0118933D02*
X0181367Y0118618D01*
X0181000Y0118933D02*
X0179800Y0118933D01*
X0167800Y0130933D01*
X0164200Y0130933D01*
X0161800Y0128533D01*
X0146200Y0128533D01*
X0145000Y0129733D01*
X0145000Y0132133D01*
X0163000Y0150133D01*
X0163000Y0157333D01*
X0159400Y0157333D02*
X0159400Y0148333D01*
X0143800Y0132733D01*
X0143800Y0116533D01*
X0151000Y0109333D01*
X0151000Y0108133D01*
X0152200Y0106933D01*
X0173200Y0106933D01*
X0179800Y0113533D01*
X0181000Y0113533D01*
X0181367Y0113618D01*
X0181600Y0108733D02*
X0181367Y0108618D01*
X0181600Y0108733D02*
X0182800Y0108733D01*
X0191800Y0117733D01*
X0191800Y0162133D01*
X0178000Y0175933D01*
X0191200Y0172933D02*
X0191200Y0166333D01*
X0196600Y0160933D01*
X0231400Y0160933D01*
X0225400Y0163333D02*
X0213400Y0163333D01*
X0214600Y0174133D02*
X0225400Y0174133D01*
X0227800Y0176533D01*
X0227800Y0183133D01*
X0228286Y0183520D01*
X0225727Y0183520D02*
X0225400Y0183733D01*
X0225400Y0190933D01*
X0224200Y0192133D01*
X0209200Y0192133D01*
X0206800Y0189733D01*
X0208000Y0187333D02*
X0208000Y0183733D01*
X0207814Y0183520D01*
X0209800Y0183133D02*
X0209800Y0179533D01*
X0208000Y0177733D01*
X0196000Y0177733D01*
X0191200Y0172933D01*
X0199600Y0173533D02*
X0199600Y0169933D01*
X0199300Y0169484D01*
X0199600Y0173533D02*
X0201400Y0175333D01*
X0209800Y0174733D02*
X0214000Y0174733D01*
X0214600Y0174133D01*
X0215800Y0176533D02*
X0215800Y0183133D01*
X0215491Y0183520D01*
X0218050Y0183520D02*
X0218200Y0183133D01*
X0218200Y0180133D01*
X0220600Y0177733D01*
X0225400Y0177733D01*
X0223168Y0183520D02*
X0223000Y0183733D01*
X0223000Y0189733D01*
X0220600Y0188533D02*
X0219400Y0189733D01*
X0220600Y0188533D02*
X0220600Y0183733D01*
X0220609Y0183520D01*
X0212932Y0183520D02*
X0212800Y0183133D01*
X0212200Y0182533D01*
X0212200Y0177733D01*
X0209800Y0183133D02*
X0210373Y0183520D01*
X0208000Y0187333D02*
X0210400Y0189733D01*
X0211000Y0200933D02*
X0222800Y0200933D01*
X0225200Y0207333D02*
X0236800Y0195733D01*
X0236800Y0195488D01*
X0236800Y0195133D01*
X0242800Y0189133D01*
X0242800Y0188533D01*
X0326800Y0188533D01*
X0326800Y0188697D01*
X0331000Y0190333D02*
X0331000Y0173533D01*
X0326800Y0169333D01*
X0326800Y0169012D01*
X0326800Y0166933D01*
X0331000Y0162733D01*
X0331000Y0155533D01*
X0287200Y0111733D01*
X0286800Y0112378D01*
X0287200Y0111733D02*
X0287200Y0110533D01*
X0292600Y0105133D01*
X0292600Y0092533D01*
X0291400Y0092533D01*
X0287200Y0088333D01*
X0273400Y0088333D01*
X0265600Y0096133D01*
X0265600Y0100333D01*
X0263200Y0102733D01*
X0261800Y0104780D01*
X0261800Y0098087D02*
X0263200Y0096133D01*
X0272200Y0087133D01*
X0305800Y0087133D01*
X0310600Y0091933D01*
X0310600Y0095533D01*
X0308200Y0097933D01*
X0304600Y0097933D01*
X0301000Y0094333D01*
X0296800Y0094333D01*
X0296721Y0093933D01*
X0292600Y0092533D02*
X0295600Y0089533D01*
X0302200Y0089533D01*
X0306400Y0093733D01*
X0306564Y0093933D01*
X0286879Y0093933D02*
X0286000Y0093733D01*
X0281800Y0089533D01*
X0274000Y0089533D01*
X0272800Y0090733D01*
X0272800Y0129133D01*
X0253600Y0148333D01*
X0252400Y0148333D01*
X0252233Y0148618D01*
X0251800Y0144133D02*
X0248200Y0144133D01*
X0239800Y0152533D01*
X0236200Y0152533D02*
X0250000Y0138733D01*
X0251800Y0138733D01*
X0252233Y0138618D01*
X0251800Y0133933D02*
X0252233Y0133618D01*
X0251800Y0133933D02*
X0236800Y0133933D01*
X0227200Y0143533D01*
X0218200Y0138133D02*
X0218200Y0130933D01*
X0216800Y0128933D01*
X0218200Y0138133D02*
X0239200Y0159133D01*
X0239200Y0169333D01*
X0239300Y0169484D01*
X0239800Y0169933D01*
X0239800Y0180133D01*
X0242800Y0183133D01*
X0242800Y0188533D01*
X0240400Y0184333D02*
X0234400Y0178333D01*
X0234400Y0169933D01*
X0234300Y0169484D01*
X0252400Y0159133D02*
X0252233Y0158618D01*
X0252400Y0159133D02*
X0326800Y0159133D01*
X0326800Y0159169D01*
X0331000Y0190333D02*
X0319000Y0202333D01*
X0236800Y0202333D01*
X0236800Y0202378D01*
X0199000Y0211333D02*
X0194200Y0211333D01*
X0205550Y0237596D02*
X0205600Y0237733D01*
X0205600Y0241933D01*
X0208000Y0245533D02*
X0208000Y0237733D01*
X0208050Y0237596D01*
X0188200Y0158533D02*
X0181600Y0158533D01*
X0181367Y0158618D01*
X0181600Y0153733D02*
X0181367Y0153618D01*
X0181600Y0153733D02*
X0185800Y0153733D01*
X0187000Y0154933D01*
X0188200Y0148333D02*
X0181600Y0148333D01*
X0181367Y0148618D01*
X0181367Y0143618D02*
X0181600Y0143533D01*
X0182800Y0143533D01*
X0188200Y0138133D01*
X0188200Y0127333D01*
X0181367Y0133618D02*
X0181000Y0133333D01*
X0149800Y0133333D01*
X0147400Y0130933D01*
X0159400Y0126133D02*
X0173200Y0112333D01*
X0181000Y0103933D02*
X0181367Y0103618D01*
X0181000Y0103933D02*
X0152800Y0103933D01*
X0145000Y0111733D01*
X0153400Y0109333D02*
X0163000Y0118933D01*
X0160600Y0138133D02*
X0181000Y0138133D01*
X0181367Y0138618D01*
X0221800Y0107533D02*
X0237400Y0123133D01*
X0251800Y0123133D01*
X0252233Y0123618D01*
X0247000Y0112333D02*
X0250600Y0108733D01*
X0251800Y0108733D01*
X0252233Y0108618D01*
X0252233Y0098618D02*
X0252400Y0098533D01*
X0252400Y0098018D01*
X0274000Y0108733D02*
X0276400Y0106333D01*
X0276800Y0105488D01*
X0274000Y0108733D02*
X0274000Y0133333D01*
X0254200Y0153133D01*
X0252400Y0153133D01*
X0252233Y0153618D01*
X0251800Y0144133D02*
X0252233Y0143618D01*
X0128800Y0124333D02*
X0125894Y0124333D01*
X0128454Y0123933D02*
X0128800Y0124333D01*
D38*
X0230845Y0183520D02*
X0232272Y0183520D01*
D39*
X0215550Y0214228D02*
X0214300Y0214228D01*
X0218609Y0214728D02*
X0219300Y0214728D01*
M02*
