G75*
%MOIN*%
%OFA0B0*%
%FSLAX25Y25*%
%IPPOS*%
%LPD*%
%AMOC8*
5,1,8,0,0,1.08239X$1,22.5*
%
%ADD10C,0.00000*%
%ADD11C,0.00512*%
%ADD12C,0.00600*%
%ADD13C,0.00400*%
%ADD14C,0.00300*%
%ADD15C,0.00500*%
%ADD16C,0.00800*%
%ADD17C,0.00787*%
D10*
X0076800Y0058933D02*
X0351800Y0058933D01*
X0352042Y0058936D01*
X0352283Y0058945D01*
X0352524Y0058959D01*
X0352765Y0058980D01*
X0353005Y0059006D01*
X0353245Y0059038D01*
X0353484Y0059076D01*
X0353721Y0059119D01*
X0353958Y0059169D01*
X0354193Y0059224D01*
X0354427Y0059284D01*
X0354659Y0059351D01*
X0354890Y0059422D01*
X0355119Y0059500D01*
X0355346Y0059583D01*
X0355571Y0059671D01*
X0355794Y0059765D01*
X0356014Y0059864D01*
X0356232Y0059969D01*
X0356447Y0060078D01*
X0356660Y0060193D01*
X0356870Y0060313D01*
X0357076Y0060438D01*
X0357280Y0060568D01*
X0357481Y0060703D01*
X0357678Y0060843D01*
X0357872Y0060987D01*
X0358062Y0061136D01*
X0358248Y0061290D01*
X0358431Y0061448D01*
X0358610Y0061610D01*
X0358785Y0061777D01*
X0358956Y0061948D01*
X0359123Y0062123D01*
X0359285Y0062302D01*
X0359443Y0062485D01*
X0359597Y0062671D01*
X0359746Y0062861D01*
X0359890Y0063055D01*
X0360030Y0063252D01*
X0360165Y0063453D01*
X0360295Y0063657D01*
X0360420Y0063863D01*
X0360540Y0064073D01*
X0360655Y0064286D01*
X0360764Y0064501D01*
X0360869Y0064719D01*
X0360968Y0064939D01*
X0361062Y0065162D01*
X0361150Y0065387D01*
X0361233Y0065614D01*
X0361311Y0065843D01*
X0361382Y0066074D01*
X0361449Y0066306D01*
X0361509Y0066540D01*
X0361564Y0066775D01*
X0361614Y0067012D01*
X0361657Y0067249D01*
X0361695Y0067488D01*
X0361727Y0067728D01*
X0361753Y0067968D01*
X0361774Y0068209D01*
X0361788Y0068450D01*
X0361797Y0068691D01*
X0361800Y0068933D01*
X0361800Y0293933D01*
X0361797Y0294175D01*
X0361788Y0294416D01*
X0361774Y0294657D01*
X0361753Y0294898D01*
X0361727Y0295138D01*
X0361695Y0295378D01*
X0361657Y0295617D01*
X0361614Y0295854D01*
X0361564Y0296091D01*
X0361509Y0296326D01*
X0361449Y0296560D01*
X0361382Y0296792D01*
X0361311Y0297023D01*
X0361233Y0297252D01*
X0361150Y0297479D01*
X0361062Y0297704D01*
X0360968Y0297927D01*
X0360869Y0298147D01*
X0360764Y0298365D01*
X0360655Y0298580D01*
X0360540Y0298793D01*
X0360420Y0299003D01*
X0360295Y0299209D01*
X0360165Y0299413D01*
X0360030Y0299614D01*
X0359890Y0299811D01*
X0359746Y0300005D01*
X0359597Y0300195D01*
X0359443Y0300381D01*
X0359285Y0300564D01*
X0359123Y0300743D01*
X0358956Y0300918D01*
X0358785Y0301089D01*
X0358610Y0301256D01*
X0358431Y0301418D01*
X0358248Y0301576D01*
X0358062Y0301730D01*
X0357872Y0301879D01*
X0357678Y0302023D01*
X0357481Y0302163D01*
X0357280Y0302298D01*
X0357076Y0302428D01*
X0356870Y0302553D01*
X0356660Y0302673D01*
X0356447Y0302788D01*
X0356232Y0302897D01*
X0356014Y0303002D01*
X0355794Y0303101D01*
X0355571Y0303195D01*
X0355346Y0303283D01*
X0355119Y0303366D01*
X0354890Y0303444D01*
X0354659Y0303515D01*
X0354427Y0303582D01*
X0354193Y0303642D01*
X0353958Y0303697D01*
X0353721Y0303747D01*
X0353484Y0303790D01*
X0353245Y0303828D01*
X0353005Y0303860D01*
X0352765Y0303886D01*
X0352524Y0303907D01*
X0352283Y0303921D01*
X0352042Y0303930D01*
X0351800Y0303933D01*
X0076800Y0303933D01*
X0076558Y0303930D01*
X0076317Y0303921D01*
X0076076Y0303907D01*
X0075835Y0303886D01*
X0075595Y0303860D01*
X0075355Y0303828D01*
X0075116Y0303790D01*
X0074879Y0303747D01*
X0074642Y0303697D01*
X0074407Y0303642D01*
X0074173Y0303582D01*
X0073941Y0303515D01*
X0073710Y0303444D01*
X0073481Y0303366D01*
X0073254Y0303283D01*
X0073029Y0303195D01*
X0072806Y0303101D01*
X0072586Y0303002D01*
X0072368Y0302897D01*
X0072153Y0302788D01*
X0071940Y0302673D01*
X0071730Y0302553D01*
X0071524Y0302428D01*
X0071320Y0302298D01*
X0071119Y0302163D01*
X0070922Y0302023D01*
X0070728Y0301879D01*
X0070538Y0301730D01*
X0070352Y0301576D01*
X0070169Y0301418D01*
X0069990Y0301256D01*
X0069815Y0301089D01*
X0069644Y0300918D01*
X0069477Y0300743D01*
X0069315Y0300564D01*
X0069157Y0300381D01*
X0069003Y0300195D01*
X0068854Y0300005D01*
X0068710Y0299811D01*
X0068570Y0299614D01*
X0068435Y0299413D01*
X0068305Y0299209D01*
X0068180Y0299003D01*
X0068060Y0298793D01*
X0067945Y0298580D01*
X0067836Y0298365D01*
X0067731Y0298147D01*
X0067632Y0297927D01*
X0067538Y0297704D01*
X0067450Y0297479D01*
X0067367Y0297252D01*
X0067289Y0297023D01*
X0067218Y0296792D01*
X0067151Y0296560D01*
X0067091Y0296326D01*
X0067036Y0296091D01*
X0066986Y0295854D01*
X0066943Y0295617D01*
X0066905Y0295378D01*
X0066873Y0295138D01*
X0066847Y0294898D01*
X0066826Y0294657D01*
X0066812Y0294416D01*
X0066803Y0294175D01*
X0066800Y0293933D01*
X0066800Y0068933D01*
X0066803Y0068691D01*
X0066812Y0068450D01*
X0066826Y0068209D01*
X0066847Y0067968D01*
X0066873Y0067728D01*
X0066905Y0067488D01*
X0066943Y0067249D01*
X0066986Y0067012D01*
X0067036Y0066775D01*
X0067091Y0066540D01*
X0067151Y0066306D01*
X0067218Y0066074D01*
X0067289Y0065843D01*
X0067367Y0065614D01*
X0067450Y0065387D01*
X0067538Y0065162D01*
X0067632Y0064939D01*
X0067731Y0064719D01*
X0067836Y0064501D01*
X0067945Y0064286D01*
X0068060Y0064073D01*
X0068180Y0063863D01*
X0068305Y0063657D01*
X0068435Y0063453D01*
X0068570Y0063252D01*
X0068710Y0063055D01*
X0068854Y0062861D01*
X0069003Y0062671D01*
X0069157Y0062485D01*
X0069315Y0062302D01*
X0069477Y0062123D01*
X0069644Y0061948D01*
X0069815Y0061777D01*
X0069990Y0061610D01*
X0070169Y0061448D01*
X0070352Y0061290D01*
X0070538Y0061136D01*
X0070728Y0060987D01*
X0070922Y0060843D01*
X0071119Y0060703D01*
X0071320Y0060568D01*
X0071524Y0060438D01*
X0071730Y0060313D01*
X0071940Y0060193D01*
X0072153Y0060078D01*
X0072368Y0059969D01*
X0072586Y0059864D01*
X0072806Y0059765D01*
X0073029Y0059671D01*
X0073254Y0059583D01*
X0073481Y0059500D01*
X0073710Y0059422D01*
X0073941Y0059351D01*
X0074173Y0059284D01*
X0074407Y0059224D01*
X0074642Y0059169D01*
X0074879Y0059119D01*
X0075116Y0059076D01*
X0075355Y0059038D01*
X0075595Y0059006D01*
X0075835Y0058980D01*
X0076076Y0058959D01*
X0076317Y0058945D01*
X0076558Y0058936D01*
X0076800Y0058933D01*
X0070894Y0073933D02*
X0070896Y0074086D01*
X0070902Y0074240D01*
X0070912Y0074393D01*
X0070926Y0074545D01*
X0070944Y0074698D01*
X0070966Y0074849D01*
X0070991Y0075000D01*
X0071021Y0075151D01*
X0071055Y0075301D01*
X0071092Y0075449D01*
X0071133Y0075597D01*
X0071178Y0075743D01*
X0071227Y0075889D01*
X0071280Y0076033D01*
X0071336Y0076175D01*
X0071396Y0076316D01*
X0071460Y0076456D01*
X0071527Y0076594D01*
X0071598Y0076730D01*
X0071673Y0076864D01*
X0071750Y0076996D01*
X0071832Y0077126D01*
X0071916Y0077254D01*
X0072004Y0077380D01*
X0072095Y0077503D01*
X0072189Y0077624D01*
X0072287Y0077742D01*
X0072387Y0077858D01*
X0072491Y0077971D01*
X0072597Y0078082D01*
X0072706Y0078190D01*
X0072818Y0078295D01*
X0072932Y0078396D01*
X0073050Y0078495D01*
X0073169Y0078591D01*
X0073291Y0078684D01*
X0073416Y0078773D01*
X0073543Y0078860D01*
X0073672Y0078942D01*
X0073803Y0079022D01*
X0073936Y0079098D01*
X0074071Y0079171D01*
X0074208Y0079240D01*
X0074347Y0079305D01*
X0074487Y0079367D01*
X0074629Y0079425D01*
X0074772Y0079480D01*
X0074917Y0079531D01*
X0075063Y0079578D01*
X0075210Y0079621D01*
X0075358Y0079660D01*
X0075507Y0079696D01*
X0075657Y0079727D01*
X0075808Y0079755D01*
X0075959Y0079779D01*
X0076112Y0079799D01*
X0076264Y0079815D01*
X0076417Y0079827D01*
X0076570Y0079835D01*
X0076723Y0079839D01*
X0076877Y0079839D01*
X0077030Y0079835D01*
X0077183Y0079827D01*
X0077336Y0079815D01*
X0077488Y0079799D01*
X0077641Y0079779D01*
X0077792Y0079755D01*
X0077943Y0079727D01*
X0078093Y0079696D01*
X0078242Y0079660D01*
X0078390Y0079621D01*
X0078537Y0079578D01*
X0078683Y0079531D01*
X0078828Y0079480D01*
X0078971Y0079425D01*
X0079113Y0079367D01*
X0079253Y0079305D01*
X0079392Y0079240D01*
X0079529Y0079171D01*
X0079664Y0079098D01*
X0079797Y0079022D01*
X0079928Y0078942D01*
X0080057Y0078860D01*
X0080184Y0078773D01*
X0080309Y0078684D01*
X0080431Y0078591D01*
X0080550Y0078495D01*
X0080668Y0078396D01*
X0080782Y0078295D01*
X0080894Y0078190D01*
X0081003Y0078082D01*
X0081109Y0077971D01*
X0081213Y0077858D01*
X0081313Y0077742D01*
X0081411Y0077624D01*
X0081505Y0077503D01*
X0081596Y0077380D01*
X0081684Y0077254D01*
X0081768Y0077126D01*
X0081850Y0076996D01*
X0081927Y0076864D01*
X0082002Y0076730D01*
X0082073Y0076594D01*
X0082140Y0076456D01*
X0082204Y0076316D01*
X0082264Y0076175D01*
X0082320Y0076033D01*
X0082373Y0075889D01*
X0082422Y0075743D01*
X0082467Y0075597D01*
X0082508Y0075449D01*
X0082545Y0075301D01*
X0082579Y0075151D01*
X0082609Y0075000D01*
X0082634Y0074849D01*
X0082656Y0074698D01*
X0082674Y0074545D01*
X0082688Y0074393D01*
X0082698Y0074240D01*
X0082704Y0074086D01*
X0082706Y0073933D01*
X0082704Y0073780D01*
X0082698Y0073626D01*
X0082688Y0073473D01*
X0082674Y0073321D01*
X0082656Y0073168D01*
X0082634Y0073017D01*
X0082609Y0072866D01*
X0082579Y0072715D01*
X0082545Y0072565D01*
X0082508Y0072417D01*
X0082467Y0072269D01*
X0082422Y0072123D01*
X0082373Y0071977D01*
X0082320Y0071833D01*
X0082264Y0071691D01*
X0082204Y0071550D01*
X0082140Y0071410D01*
X0082073Y0071272D01*
X0082002Y0071136D01*
X0081927Y0071002D01*
X0081850Y0070870D01*
X0081768Y0070740D01*
X0081684Y0070612D01*
X0081596Y0070486D01*
X0081505Y0070363D01*
X0081411Y0070242D01*
X0081313Y0070124D01*
X0081213Y0070008D01*
X0081109Y0069895D01*
X0081003Y0069784D01*
X0080894Y0069676D01*
X0080782Y0069571D01*
X0080668Y0069470D01*
X0080550Y0069371D01*
X0080431Y0069275D01*
X0080309Y0069182D01*
X0080184Y0069093D01*
X0080057Y0069006D01*
X0079928Y0068924D01*
X0079797Y0068844D01*
X0079664Y0068768D01*
X0079529Y0068695D01*
X0079392Y0068626D01*
X0079253Y0068561D01*
X0079113Y0068499D01*
X0078971Y0068441D01*
X0078828Y0068386D01*
X0078683Y0068335D01*
X0078537Y0068288D01*
X0078390Y0068245D01*
X0078242Y0068206D01*
X0078093Y0068170D01*
X0077943Y0068139D01*
X0077792Y0068111D01*
X0077641Y0068087D01*
X0077488Y0068067D01*
X0077336Y0068051D01*
X0077183Y0068039D01*
X0077030Y0068031D01*
X0076877Y0068027D01*
X0076723Y0068027D01*
X0076570Y0068031D01*
X0076417Y0068039D01*
X0076264Y0068051D01*
X0076112Y0068067D01*
X0075959Y0068087D01*
X0075808Y0068111D01*
X0075657Y0068139D01*
X0075507Y0068170D01*
X0075358Y0068206D01*
X0075210Y0068245D01*
X0075063Y0068288D01*
X0074917Y0068335D01*
X0074772Y0068386D01*
X0074629Y0068441D01*
X0074487Y0068499D01*
X0074347Y0068561D01*
X0074208Y0068626D01*
X0074071Y0068695D01*
X0073936Y0068768D01*
X0073803Y0068844D01*
X0073672Y0068924D01*
X0073543Y0069006D01*
X0073416Y0069093D01*
X0073291Y0069182D01*
X0073169Y0069275D01*
X0073050Y0069371D01*
X0072932Y0069470D01*
X0072818Y0069571D01*
X0072706Y0069676D01*
X0072597Y0069784D01*
X0072491Y0069895D01*
X0072387Y0070008D01*
X0072287Y0070124D01*
X0072189Y0070242D01*
X0072095Y0070363D01*
X0072004Y0070486D01*
X0071916Y0070612D01*
X0071832Y0070740D01*
X0071750Y0070870D01*
X0071673Y0071002D01*
X0071598Y0071136D01*
X0071527Y0071272D01*
X0071460Y0071410D01*
X0071396Y0071550D01*
X0071336Y0071691D01*
X0071280Y0071833D01*
X0071227Y0071977D01*
X0071178Y0072123D01*
X0071133Y0072269D01*
X0071092Y0072417D01*
X0071055Y0072565D01*
X0071021Y0072715D01*
X0070991Y0072866D01*
X0070966Y0073017D01*
X0070944Y0073168D01*
X0070926Y0073321D01*
X0070912Y0073473D01*
X0070902Y0073626D01*
X0070896Y0073780D01*
X0070894Y0073933D01*
X0070894Y0288933D02*
X0070896Y0289086D01*
X0070902Y0289240D01*
X0070912Y0289393D01*
X0070926Y0289545D01*
X0070944Y0289698D01*
X0070966Y0289849D01*
X0070991Y0290000D01*
X0071021Y0290151D01*
X0071055Y0290301D01*
X0071092Y0290449D01*
X0071133Y0290597D01*
X0071178Y0290743D01*
X0071227Y0290889D01*
X0071280Y0291033D01*
X0071336Y0291175D01*
X0071396Y0291316D01*
X0071460Y0291456D01*
X0071527Y0291594D01*
X0071598Y0291730D01*
X0071673Y0291864D01*
X0071750Y0291996D01*
X0071832Y0292126D01*
X0071916Y0292254D01*
X0072004Y0292380D01*
X0072095Y0292503D01*
X0072189Y0292624D01*
X0072287Y0292742D01*
X0072387Y0292858D01*
X0072491Y0292971D01*
X0072597Y0293082D01*
X0072706Y0293190D01*
X0072818Y0293295D01*
X0072932Y0293396D01*
X0073050Y0293495D01*
X0073169Y0293591D01*
X0073291Y0293684D01*
X0073416Y0293773D01*
X0073543Y0293860D01*
X0073672Y0293942D01*
X0073803Y0294022D01*
X0073936Y0294098D01*
X0074071Y0294171D01*
X0074208Y0294240D01*
X0074347Y0294305D01*
X0074487Y0294367D01*
X0074629Y0294425D01*
X0074772Y0294480D01*
X0074917Y0294531D01*
X0075063Y0294578D01*
X0075210Y0294621D01*
X0075358Y0294660D01*
X0075507Y0294696D01*
X0075657Y0294727D01*
X0075808Y0294755D01*
X0075959Y0294779D01*
X0076112Y0294799D01*
X0076264Y0294815D01*
X0076417Y0294827D01*
X0076570Y0294835D01*
X0076723Y0294839D01*
X0076877Y0294839D01*
X0077030Y0294835D01*
X0077183Y0294827D01*
X0077336Y0294815D01*
X0077488Y0294799D01*
X0077641Y0294779D01*
X0077792Y0294755D01*
X0077943Y0294727D01*
X0078093Y0294696D01*
X0078242Y0294660D01*
X0078390Y0294621D01*
X0078537Y0294578D01*
X0078683Y0294531D01*
X0078828Y0294480D01*
X0078971Y0294425D01*
X0079113Y0294367D01*
X0079253Y0294305D01*
X0079392Y0294240D01*
X0079529Y0294171D01*
X0079664Y0294098D01*
X0079797Y0294022D01*
X0079928Y0293942D01*
X0080057Y0293860D01*
X0080184Y0293773D01*
X0080309Y0293684D01*
X0080431Y0293591D01*
X0080550Y0293495D01*
X0080668Y0293396D01*
X0080782Y0293295D01*
X0080894Y0293190D01*
X0081003Y0293082D01*
X0081109Y0292971D01*
X0081213Y0292858D01*
X0081313Y0292742D01*
X0081411Y0292624D01*
X0081505Y0292503D01*
X0081596Y0292380D01*
X0081684Y0292254D01*
X0081768Y0292126D01*
X0081850Y0291996D01*
X0081927Y0291864D01*
X0082002Y0291730D01*
X0082073Y0291594D01*
X0082140Y0291456D01*
X0082204Y0291316D01*
X0082264Y0291175D01*
X0082320Y0291033D01*
X0082373Y0290889D01*
X0082422Y0290743D01*
X0082467Y0290597D01*
X0082508Y0290449D01*
X0082545Y0290301D01*
X0082579Y0290151D01*
X0082609Y0290000D01*
X0082634Y0289849D01*
X0082656Y0289698D01*
X0082674Y0289545D01*
X0082688Y0289393D01*
X0082698Y0289240D01*
X0082704Y0289086D01*
X0082706Y0288933D01*
X0082704Y0288780D01*
X0082698Y0288626D01*
X0082688Y0288473D01*
X0082674Y0288321D01*
X0082656Y0288168D01*
X0082634Y0288017D01*
X0082609Y0287866D01*
X0082579Y0287715D01*
X0082545Y0287565D01*
X0082508Y0287417D01*
X0082467Y0287269D01*
X0082422Y0287123D01*
X0082373Y0286977D01*
X0082320Y0286833D01*
X0082264Y0286691D01*
X0082204Y0286550D01*
X0082140Y0286410D01*
X0082073Y0286272D01*
X0082002Y0286136D01*
X0081927Y0286002D01*
X0081850Y0285870D01*
X0081768Y0285740D01*
X0081684Y0285612D01*
X0081596Y0285486D01*
X0081505Y0285363D01*
X0081411Y0285242D01*
X0081313Y0285124D01*
X0081213Y0285008D01*
X0081109Y0284895D01*
X0081003Y0284784D01*
X0080894Y0284676D01*
X0080782Y0284571D01*
X0080668Y0284470D01*
X0080550Y0284371D01*
X0080431Y0284275D01*
X0080309Y0284182D01*
X0080184Y0284093D01*
X0080057Y0284006D01*
X0079928Y0283924D01*
X0079797Y0283844D01*
X0079664Y0283768D01*
X0079529Y0283695D01*
X0079392Y0283626D01*
X0079253Y0283561D01*
X0079113Y0283499D01*
X0078971Y0283441D01*
X0078828Y0283386D01*
X0078683Y0283335D01*
X0078537Y0283288D01*
X0078390Y0283245D01*
X0078242Y0283206D01*
X0078093Y0283170D01*
X0077943Y0283139D01*
X0077792Y0283111D01*
X0077641Y0283087D01*
X0077488Y0283067D01*
X0077336Y0283051D01*
X0077183Y0283039D01*
X0077030Y0283031D01*
X0076877Y0283027D01*
X0076723Y0283027D01*
X0076570Y0283031D01*
X0076417Y0283039D01*
X0076264Y0283051D01*
X0076112Y0283067D01*
X0075959Y0283087D01*
X0075808Y0283111D01*
X0075657Y0283139D01*
X0075507Y0283170D01*
X0075358Y0283206D01*
X0075210Y0283245D01*
X0075063Y0283288D01*
X0074917Y0283335D01*
X0074772Y0283386D01*
X0074629Y0283441D01*
X0074487Y0283499D01*
X0074347Y0283561D01*
X0074208Y0283626D01*
X0074071Y0283695D01*
X0073936Y0283768D01*
X0073803Y0283844D01*
X0073672Y0283924D01*
X0073543Y0284006D01*
X0073416Y0284093D01*
X0073291Y0284182D01*
X0073169Y0284275D01*
X0073050Y0284371D01*
X0072932Y0284470D01*
X0072818Y0284571D01*
X0072706Y0284676D01*
X0072597Y0284784D01*
X0072491Y0284895D01*
X0072387Y0285008D01*
X0072287Y0285124D01*
X0072189Y0285242D01*
X0072095Y0285363D01*
X0072004Y0285486D01*
X0071916Y0285612D01*
X0071832Y0285740D01*
X0071750Y0285870D01*
X0071673Y0286002D01*
X0071598Y0286136D01*
X0071527Y0286272D01*
X0071460Y0286410D01*
X0071396Y0286550D01*
X0071336Y0286691D01*
X0071280Y0286833D01*
X0071227Y0286977D01*
X0071178Y0287123D01*
X0071133Y0287269D01*
X0071092Y0287417D01*
X0071055Y0287565D01*
X0071021Y0287715D01*
X0070991Y0287866D01*
X0070966Y0288017D01*
X0070944Y0288168D01*
X0070926Y0288321D01*
X0070912Y0288473D01*
X0070902Y0288626D01*
X0070896Y0288780D01*
X0070894Y0288933D01*
X0345894Y0288933D02*
X0345896Y0289086D01*
X0345902Y0289240D01*
X0345912Y0289393D01*
X0345926Y0289545D01*
X0345944Y0289698D01*
X0345966Y0289849D01*
X0345991Y0290000D01*
X0346021Y0290151D01*
X0346055Y0290301D01*
X0346092Y0290449D01*
X0346133Y0290597D01*
X0346178Y0290743D01*
X0346227Y0290889D01*
X0346280Y0291033D01*
X0346336Y0291175D01*
X0346396Y0291316D01*
X0346460Y0291456D01*
X0346527Y0291594D01*
X0346598Y0291730D01*
X0346673Y0291864D01*
X0346750Y0291996D01*
X0346832Y0292126D01*
X0346916Y0292254D01*
X0347004Y0292380D01*
X0347095Y0292503D01*
X0347189Y0292624D01*
X0347287Y0292742D01*
X0347387Y0292858D01*
X0347491Y0292971D01*
X0347597Y0293082D01*
X0347706Y0293190D01*
X0347818Y0293295D01*
X0347932Y0293396D01*
X0348050Y0293495D01*
X0348169Y0293591D01*
X0348291Y0293684D01*
X0348416Y0293773D01*
X0348543Y0293860D01*
X0348672Y0293942D01*
X0348803Y0294022D01*
X0348936Y0294098D01*
X0349071Y0294171D01*
X0349208Y0294240D01*
X0349347Y0294305D01*
X0349487Y0294367D01*
X0349629Y0294425D01*
X0349772Y0294480D01*
X0349917Y0294531D01*
X0350063Y0294578D01*
X0350210Y0294621D01*
X0350358Y0294660D01*
X0350507Y0294696D01*
X0350657Y0294727D01*
X0350808Y0294755D01*
X0350959Y0294779D01*
X0351112Y0294799D01*
X0351264Y0294815D01*
X0351417Y0294827D01*
X0351570Y0294835D01*
X0351723Y0294839D01*
X0351877Y0294839D01*
X0352030Y0294835D01*
X0352183Y0294827D01*
X0352336Y0294815D01*
X0352488Y0294799D01*
X0352641Y0294779D01*
X0352792Y0294755D01*
X0352943Y0294727D01*
X0353093Y0294696D01*
X0353242Y0294660D01*
X0353390Y0294621D01*
X0353537Y0294578D01*
X0353683Y0294531D01*
X0353828Y0294480D01*
X0353971Y0294425D01*
X0354113Y0294367D01*
X0354253Y0294305D01*
X0354392Y0294240D01*
X0354529Y0294171D01*
X0354664Y0294098D01*
X0354797Y0294022D01*
X0354928Y0293942D01*
X0355057Y0293860D01*
X0355184Y0293773D01*
X0355309Y0293684D01*
X0355431Y0293591D01*
X0355550Y0293495D01*
X0355668Y0293396D01*
X0355782Y0293295D01*
X0355894Y0293190D01*
X0356003Y0293082D01*
X0356109Y0292971D01*
X0356213Y0292858D01*
X0356313Y0292742D01*
X0356411Y0292624D01*
X0356505Y0292503D01*
X0356596Y0292380D01*
X0356684Y0292254D01*
X0356768Y0292126D01*
X0356850Y0291996D01*
X0356927Y0291864D01*
X0357002Y0291730D01*
X0357073Y0291594D01*
X0357140Y0291456D01*
X0357204Y0291316D01*
X0357264Y0291175D01*
X0357320Y0291033D01*
X0357373Y0290889D01*
X0357422Y0290743D01*
X0357467Y0290597D01*
X0357508Y0290449D01*
X0357545Y0290301D01*
X0357579Y0290151D01*
X0357609Y0290000D01*
X0357634Y0289849D01*
X0357656Y0289698D01*
X0357674Y0289545D01*
X0357688Y0289393D01*
X0357698Y0289240D01*
X0357704Y0289086D01*
X0357706Y0288933D01*
X0357704Y0288780D01*
X0357698Y0288626D01*
X0357688Y0288473D01*
X0357674Y0288321D01*
X0357656Y0288168D01*
X0357634Y0288017D01*
X0357609Y0287866D01*
X0357579Y0287715D01*
X0357545Y0287565D01*
X0357508Y0287417D01*
X0357467Y0287269D01*
X0357422Y0287123D01*
X0357373Y0286977D01*
X0357320Y0286833D01*
X0357264Y0286691D01*
X0357204Y0286550D01*
X0357140Y0286410D01*
X0357073Y0286272D01*
X0357002Y0286136D01*
X0356927Y0286002D01*
X0356850Y0285870D01*
X0356768Y0285740D01*
X0356684Y0285612D01*
X0356596Y0285486D01*
X0356505Y0285363D01*
X0356411Y0285242D01*
X0356313Y0285124D01*
X0356213Y0285008D01*
X0356109Y0284895D01*
X0356003Y0284784D01*
X0355894Y0284676D01*
X0355782Y0284571D01*
X0355668Y0284470D01*
X0355550Y0284371D01*
X0355431Y0284275D01*
X0355309Y0284182D01*
X0355184Y0284093D01*
X0355057Y0284006D01*
X0354928Y0283924D01*
X0354797Y0283844D01*
X0354664Y0283768D01*
X0354529Y0283695D01*
X0354392Y0283626D01*
X0354253Y0283561D01*
X0354113Y0283499D01*
X0353971Y0283441D01*
X0353828Y0283386D01*
X0353683Y0283335D01*
X0353537Y0283288D01*
X0353390Y0283245D01*
X0353242Y0283206D01*
X0353093Y0283170D01*
X0352943Y0283139D01*
X0352792Y0283111D01*
X0352641Y0283087D01*
X0352488Y0283067D01*
X0352336Y0283051D01*
X0352183Y0283039D01*
X0352030Y0283031D01*
X0351877Y0283027D01*
X0351723Y0283027D01*
X0351570Y0283031D01*
X0351417Y0283039D01*
X0351264Y0283051D01*
X0351112Y0283067D01*
X0350959Y0283087D01*
X0350808Y0283111D01*
X0350657Y0283139D01*
X0350507Y0283170D01*
X0350358Y0283206D01*
X0350210Y0283245D01*
X0350063Y0283288D01*
X0349917Y0283335D01*
X0349772Y0283386D01*
X0349629Y0283441D01*
X0349487Y0283499D01*
X0349347Y0283561D01*
X0349208Y0283626D01*
X0349071Y0283695D01*
X0348936Y0283768D01*
X0348803Y0283844D01*
X0348672Y0283924D01*
X0348543Y0284006D01*
X0348416Y0284093D01*
X0348291Y0284182D01*
X0348169Y0284275D01*
X0348050Y0284371D01*
X0347932Y0284470D01*
X0347818Y0284571D01*
X0347706Y0284676D01*
X0347597Y0284784D01*
X0347491Y0284895D01*
X0347387Y0285008D01*
X0347287Y0285124D01*
X0347189Y0285242D01*
X0347095Y0285363D01*
X0347004Y0285486D01*
X0346916Y0285612D01*
X0346832Y0285740D01*
X0346750Y0285870D01*
X0346673Y0286002D01*
X0346598Y0286136D01*
X0346527Y0286272D01*
X0346460Y0286410D01*
X0346396Y0286550D01*
X0346336Y0286691D01*
X0346280Y0286833D01*
X0346227Y0286977D01*
X0346178Y0287123D01*
X0346133Y0287269D01*
X0346092Y0287417D01*
X0346055Y0287565D01*
X0346021Y0287715D01*
X0345991Y0287866D01*
X0345966Y0288017D01*
X0345944Y0288168D01*
X0345926Y0288321D01*
X0345912Y0288473D01*
X0345902Y0288626D01*
X0345896Y0288780D01*
X0345894Y0288933D01*
X0345894Y0073933D02*
X0345896Y0074086D01*
X0345902Y0074240D01*
X0345912Y0074393D01*
X0345926Y0074545D01*
X0345944Y0074698D01*
X0345966Y0074849D01*
X0345991Y0075000D01*
X0346021Y0075151D01*
X0346055Y0075301D01*
X0346092Y0075449D01*
X0346133Y0075597D01*
X0346178Y0075743D01*
X0346227Y0075889D01*
X0346280Y0076033D01*
X0346336Y0076175D01*
X0346396Y0076316D01*
X0346460Y0076456D01*
X0346527Y0076594D01*
X0346598Y0076730D01*
X0346673Y0076864D01*
X0346750Y0076996D01*
X0346832Y0077126D01*
X0346916Y0077254D01*
X0347004Y0077380D01*
X0347095Y0077503D01*
X0347189Y0077624D01*
X0347287Y0077742D01*
X0347387Y0077858D01*
X0347491Y0077971D01*
X0347597Y0078082D01*
X0347706Y0078190D01*
X0347818Y0078295D01*
X0347932Y0078396D01*
X0348050Y0078495D01*
X0348169Y0078591D01*
X0348291Y0078684D01*
X0348416Y0078773D01*
X0348543Y0078860D01*
X0348672Y0078942D01*
X0348803Y0079022D01*
X0348936Y0079098D01*
X0349071Y0079171D01*
X0349208Y0079240D01*
X0349347Y0079305D01*
X0349487Y0079367D01*
X0349629Y0079425D01*
X0349772Y0079480D01*
X0349917Y0079531D01*
X0350063Y0079578D01*
X0350210Y0079621D01*
X0350358Y0079660D01*
X0350507Y0079696D01*
X0350657Y0079727D01*
X0350808Y0079755D01*
X0350959Y0079779D01*
X0351112Y0079799D01*
X0351264Y0079815D01*
X0351417Y0079827D01*
X0351570Y0079835D01*
X0351723Y0079839D01*
X0351877Y0079839D01*
X0352030Y0079835D01*
X0352183Y0079827D01*
X0352336Y0079815D01*
X0352488Y0079799D01*
X0352641Y0079779D01*
X0352792Y0079755D01*
X0352943Y0079727D01*
X0353093Y0079696D01*
X0353242Y0079660D01*
X0353390Y0079621D01*
X0353537Y0079578D01*
X0353683Y0079531D01*
X0353828Y0079480D01*
X0353971Y0079425D01*
X0354113Y0079367D01*
X0354253Y0079305D01*
X0354392Y0079240D01*
X0354529Y0079171D01*
X0354664Y0079098D01*
X0354797Y0079022D01*
X0354928Y0078942D01*
X0355057Y0078860D01*
X0355184Y0078773D01*
X0355309Y0078684D01*
X0355431Y0078591D01*
X0355550Y0078495D01*
X0355668Y0078396D01*
X0355782Y0078295D01*
X0355894Y0078190D01*
X0356003Y0078082D01*
X0356109Y0077971D01*
X0356213Y0077858D01*
X0356313Y0077742D01*
X0356411Y0077624D01*
X0356505Y0077503D01*
X0356596Y0077380D01*
X0356684Y0077254D01*
X0356768Y0077126D01*
X0356850Y0076996D01*
X0356927Y0076864D01*
X0357002Y0076730D01*
X0357073Y0076594D01*
X0357140Y0076456D01*
X0357204Y0076316D01*
X0357264Y0076175D01*
X0357320Y0076033D01*
X0357373Y0075889D01*
X0357422Y0075743D01*
X0357467Y0075597D01*
X0357508Y0075449D01*
X0357545Y0075301D01*
X0357579Y0075151D01*
X0357609Y0075000D01*
X0357634Y0074849D01*
X0357656Y0074698D01*
X0357674Y0074545D01*
X0357688Y0074393D01*
X0357698Y0074240D01*
X0357704Y0074086D01*
X0357706Y0073933D01*
X0357704Y0073780D01*
X0357698Y0073626D01*
X0357688Y0073473D01*
X0357674Y0073321D01*
X0357656Y0073168D01*
X0357634Y0073017D01*
X0357609Y0072866D01*
X0357579Y0072715D01*
X0357545Y0072565D01*
X0357508Y0072417D01*
X0357467Y0072269D01*
X0357422Y0072123D01*
X0357373Y0071977D01*
X0357320Y0071833D01*
X0357264Y0071691D01*
X0357204Y0071550D01*
X0357140Y0071410D01*
X0357073Y0071272D01*
X0357002Y0071136D01*
X0356927Y0071002D01*
X0356850Y0070870D01*
X0356768Y0070740D01*
X0356684Y0070612D01*
X0356596Y0070486D01*
X0356505Y0070363D01*
X0356411Y0070242D01*
X0356313Y0070124D01*
X0356213Y0070008D01*
X0356109Y0069895D01*
X0356003Y0069784D01*
X0355894Y0069676D01*
X0355782Y0069571D01*
X0355668Y0069470D01*
X0355550Y0069371D01*
X0355431Y0069275D01*
X0355309Y0069182D01*
X0355184Y0069093D01*
X0355057Y0069006D01*
X0354928Y0068924D01*
X0354797Y0068844D01*
X0354664Y0068768D01*
X0354529Y0068695D01*
X0354392Y0068626D01*
X0354253Y0068561D01*
X0354113Y0068499D01*
X0353971Y0068441D01*
X0353828Y0068386D01*
X0353683Y0068335D01*
X0353537Y0068288D01*
X0353390Y0068245D01*
X0353242Y0068206D01*
X0353093Y0068170D01*
X0352943Y0068139D01*
X0352792Y0068111D01*
X0352641Y0068087D01*
X0352488Y0068067D01*
X0352336Y0068051D01*
X0352183Y0068039D01*
X0352030Y0068031D01*
X0351877Y0068027D01*
X0351723Y0068027D01*
X0351570Y0068031D01*
X0351417Y0068039D01*
X0351264Y0068051D01*
X0351112Y0068067D01*
X0350959Y0068087D01*
X0350808Y0068111D01*
X0350657Y0068139D01*
X0350507Y0068170D01*
X0350358Y0068206D01*
X0350210Y0068245D01*
X0350063Y0068288D01*
X0349917Y0068335D01*
X0349772Y0068386D01*
X0349629Y0068441D01*
X0349487Y0068499D01*
X0349347Y0068561D01*
X0349208Y0068626D01*
X0349071Y0068695D01*
X0348936Y0068768D01*
X0348803Y0068844D01*
X0348672Y0068924D01*
X0348543Y0069006D01*
X0348416Y0069093D01*
X0348291Y0069182D01*
X0348169Y0069275D01*
X0348050Y0069371D01*
X0347932Y0069470D01*
X0347818Y0069571D01*
X0347706Y0069676D01*
X0347597Y0069784D01*
X0347491Y0069895D01*
X0347387Y0070008D01*
X0347287Y0070124D01*
X0347189Y0070242D01*
X0347095Y0070363D01*
X0347004Y0070486D01*
X0346916Y0070612D01*
X0346832Y0070740D01*
X0346750Y0070870D01*
X0346673Y0071002D01*
X0346598Y0071136D01*
X0346527Y0071272D01*
X0346460Y0071410D01*
X0346396Y0071550D01*
X0346336Y0071691D01*
X0346280Y0071833D01*
X0346227Y0071977D01*
X0346178Y0072123D01*
X0346133Y0072269D01*
X0346092Y0072417D01*
X0346055Y0072565D01*
X0346021Y0072715D01*
X0345991Y0072866D01*
X0345966Y0073017D01*
X0345944Y0073168D01*
X0345926Y0073321D01*
X0345912Y0073473D01*
X0345902Y0073626D01*
X0345896Y0073780D01*
X0345894Y0073933D01*
D11*
X0094477Y0073933D02*
X0076800Y0073933D01*
X0086800Y0074189D02*
X0087824Y0084169D01*
X0088057Y0084169D02*
X0086800Y0074189D01*
X0085776Y0084169D01*
X0085543Y0084169D02*
X0088057Y0084169D01*
X0087312Y0084169D02*
X0086800Y0074189D01*
X0086288Y0084169D01*
X0085543Y0084169D02*
X0086800Y0074189D01*
X0086800Y0288677D01*
X0087824Y0278697D01*
X0088057Y0278697D02*
X0086800Y0288677D01*
X0085776Y0278697D01*
X0085543Y0278697D02*
X0088057Y0278697D01*
X0087312Y0278697D02*
X0086800Y0288677D01*
X0086288Y0278697D01*
X0085543Y0278697D02*
X0086800Y0288677D01*
X0087036Y0285190D02*
X0087036Y0282676D01*
X0077056Y0283933D01*
X0087036Y0282909D01*
X0087036Y0283421D02*
X0077056Y0283933D01*
X0087036Y0284957D01*
X0087036Y0285190D02*
X0077056Y0283933D01*
X0087036Y0284445D01*
X0094477Y0288933D02*
X0076800Y0288933D01*
X0076800Y0276256D01*
X0077056Y0283933D02*
X0351544Y0283933D01*
X0341564Y0282909D01*
X0341564Y0282676D02*
X0341564Y0285190D01*
X0351544Y0283933D01*
X0341564Y0284957D01*
X0341564Y0284445D02*
X0351544Y0283933D01*
X0341564Y0283421D01*
X0341564Y0282676D02*
X0351544Y0283933D01*
X0351800Y0288933D02*
X0351800Y0276256D01*
D12*
X0226563Y0288273D02*
X0226563Y0290050D01*
X0224430Y0290050D01*
X0226563Y0290050D02*
X0226561Y0290154D01*
X0226555Y0290258D01*
X0226546Y0290361D01*
X0226533Y0290464D01*
X0226516Y0290567D01*
X0226495Y0290668D01*
X0226471Y0290769D01*
X0226442Y0290869D01*
X0226411Y0290968D01*
X0226375Y0291066D01*
X0226336Y0291162D01*
X0226294Y0291257D01*
X0226248Y0291350D01*
X0226199Y0291442D01*
X0226147Y0291532D01*
X0226091Y0291619D01*
X0226032Y0291705D01*
X0225970Y0291788D01*
X0225905Y0291869D01*
X0225837Y0291948D01*
X0225766Y0292024D01*
X0225693Y0292097D01*
X0225617Y0292168D01*
X0225538Y0292236D01*
X0225457Y0292301D01*
X0225374Y0292363D01*
X0225288Y0292422D01*
X0225201Y0292478D01*
X0225111Y0292530D01*
X0225019Y0292579D01*
X0224926Y0292625D01*
X0224831Y0292667D01*
X0224735Y0292706D01*
X0224637Y0292742D01*
X0224538Y0292773D01*
X0224438Y0292802D01*
X0224337Y0292826D01*
X0224236Y0292847D01*
X0224133Y0292864D01*
X0224030Y0292877D01*
X0223927Y0292886D01*
X0223823Y0292892D01*
X0223719Y0292894D01*
X0220409Y0291117D02*
X0220409Y0290762D01*
X0220407Y0290688D01*
X0220401Y0290613D01*
X0220391Y0290540D01*
X0220378Y0290466D01*
X0220361Y0290394D01*
X0220339Y0290323D01*
X0220315Y0290252D01*
X0220286Y0290184D01*
X0220254Y0290116D01*
X0220218Y0290051D01*
X0220180Y0289988D01*
X0220137Y0289926D01*
X0220092Y0289867D01*
X0220044Y0289810D01*
X0219993Y0289756D01*
X0219939Y0289705D01*
X0219882Y0289657D01*
X0219823Y0289612D01*
X0219761Y0289569D01*
X0219698Y0289531D01*
X0219633Y0289495D01*
X0219565Y0289463D01*
X0219497Y0289434D01*
X0219426Y0289410D01*
X0219355Y0289388D01*
X0219283Y0289371D01*
X0219209Y0289358D01*
X0219136Y0289348D01*
X0219061Y0289342D01*
X0218987Y0289340D01*
X0218987Y0289339D02*
X0216853Y0289339D01*
X0216853Y0291117D01*
X0216855Y0291200D01*
X0216861Y0291283D01*
X0216871Y0291366D01*
X0216884Y0291449D01*
X0216902Y0291530D01*
X0216923Y0291611D01*
X0216948Y0291690D01*
X0216977Y0291768D01*
X0217009Y0291845D01*
X0217045Y0291920D01*
X0217084Y0291994D01*
X0217127Y0292065D01*
X0217173Y0292135D01*
X0217223Y0292202D01*
X0217275Y0292267D01*
X0217330Y0292329D01*
X0217389Y0292389D01*
X0217450Y0292446D01*
X0217513Y0292500D01*
X0217579Y0292551D01*
X0217648Y0292598D01*
X0217718Y0292643D01*
X0217791Y0292684D01*
X0217865Y0292721D01*
X0217941Y0292756D01*
X0218019Y0292786D01*
X0218097Y0292813D01*
X0218178Y0292836D01*
X0218259Y0292856D01*
X0218341Y0292871D01*
X0218423Y0292883D01*
X0218506Y0292891D01*
X0218589Y0292895D01*
X0218673Y0292895D01*
X0218756Y0292891D01*
X0218839Y0292883D01*
X0218921Y0292871D01*
X0219003Y0292856D01*
X0219084Y0292836D01*
X0219165Y0292813D01*
X0219243Y0292786D01*
X0219321Y0292756D01*
X0219397Y0292721D01*
X0219471Y0292684D01*
X0219544Y0292643D01*
X0219614Y0292598D01*
X0219683Y0292551D01*
X0219749Y0292500D01*
X0219812Y0292446D01*
X0219873Y0292389D01*
X0219932Y0292329D01*
X0219987Y0292267D01*
X0220039Y0292202D01*
X0220089Y0292135D01*
X0220135Y0292065D01*
X0220178Y0291994D01*
X0220217Y0291920D01*
X0220253Y0291845D01*
X0220285Y0291768D01*
X0220314Y0291690D01*
X0220339Y0291611D01*
X0220360Y0291530D01*
X0220378Y0291449D01*
X0220391Y0291366D01*
X0220401Y0291283D01*
X0220407Y0291200D01*
X0220409Y0291117D01*
X0216854Y0289339D02*
X0216856Y0289235D01*
X0216862Y0289131D01*
X0216871Y0289028D01*
X0216884Y0288925D01*
X0216901Y0288822D01*
X0216922Y0288721D01*
X0216946Y0288620D01*
X0216975Y0288520D01*
X0217006Y0288421D01*
X0217042Y0288323D01*
X0217081Y0288227D01*
X0217123Y0288132D01*
X0217169Y0288039D01*
X0217218Y0287947D01*
X0217270Y0287857D01*
X0217326Y0287770D01*
X0217385Y0287684D01*
X0217447Y0287601D01*
X0217512Y0287520D01*
X0217580Y0287441D01*
X0217651Y0287365D01*
X0217724Y0287292D01*
X0217800Y0287221D01*
X0217879Y0287153D01*
X0217960Y0287088D01*
X0218043Y0287026D01*
X0218129Y0286967D01*
X0218216Y0286911D01*
X0218306Y0286859D01*
X0218398Y0286810D01*
X0218491Y0286764D01*
X0218586Y0286722D01*
X0218682Y0286683D01*
X0218780Y0286647D01*
X0218879Y0286616D01*
X0218979Y0286587D01*
X0219080Y0286563D01*
X0219181Y0286542D01*
X0219284Y0286525D01*
X0219387Y0286512D01*
X0219490Y0286503D01*
X0219594Y0286497D01*
X0219698Y0286495D01*
X0223007Y0288273D02*
X0223007Y0288628D01*
X0223008Y0288628D02*
X0223010Y0288702D01*
X0223016Y0288777D01*
X0223026Y0288850D01*
X0223039Y0288924D01*
X0223056Y0288996D01*
X0223078Y0289067D01*
X0223102Y0289138D01*
X0223131Y0289206D01*
X0223163Y0289274D01*
X0223199Y0289339D01*
X0223237Y0289402D01*
X0223280Y0289464D01*
X0223325Y0289523D01*
X0223373Y0289580D01*
X0223424Y0289634D01*
X0223478Y0289685D01*
X0223535Y0289733D01*
X0223594Y0289778D01*
X0223656Y0289821D01*
X0223719Y0289859D01*
X0223784Y0289895D01*
X0223852Y0289927D01*
X0223920Y0289956D01*
X0223991Y0289980D01*
X0224062Y0290002D01*
X0224134Y0290019D01*
X0224208Y0290032D01*
X0224281Y0290042D01*
X0224356Y0290048D01*
X0224430Y0290050D01*
X0223007Y0288273D02*
X0223009Y0288190D01*
X0223015Y0288107D01*
X0223025Y0288024D01*
X0223038Y0287941D01*
X0223056Y0287860D01*
X0223077Y0287779D01*
X0223102Y0287700D01*
X0223131Y0287622D01*
X0223163Y0287545D01*
X0223199Y0287470D01*
X0223238Y0287396D01*
X0223281Y0287325D01*
X0223327Y0287255D01*
X0223377Y0287188D01*
X0223429Y0287123D01*
X0223484Y0287061D01*
X0223543Y0287001D01*
X0223604Y0286944D01*
X0223667Y0286890D01*
X0223733Y0286839D01*
X0223802Y0286792D01*
X0223872Y0286747D01*
X0223945Y0286706D01*
X0224019Y0286669D01*
X0224095Y0286634D01*
X0224173Y0286604D01*
X0224251Y0286577D01*
X0224332Y0286554D01*
X0224413Y0286534D01*
X0224495Y0286519D01*
X0224577Y0286507D01*
X0224660Y0286499D01*
X0224743Y0286495D01*
X0224827Y0286495D01*
X0224910Y0286499D01*
X0224993Y0286507D01*
X0225075Y0286519D01*
X0225157Y0286534D01*
X0225238Y0286554D01*
X0225319Y0286577D01*
X0225397Y0286604D01*
X0225475Y0286634D01*
X0225551Y0286669D01*
X0225625Y0286706D01*
X0225698Y0286747D01*
X0225768Y0286792D01*
X0225837Y0286839D01*
X0225903Y0286890D01*
X0225966Y0286944D01*
X0226027Y0287001D01*
X0226086Y0287061D01*
X0226141Y0287123D01*
X0226193Y0287188D01*
X0226243Y0287255D01*
X0226289Y0287325D01*
X0226332Y0287396D01*
X0226371Y0287470D01*
X0226407Y0287545D01*
X0226439Y0287622D01*
X0226468Y0287700D01*
X0226493Y0287779D01*
X0226514Y0287860D01*
X0226532Y0287941D01*
X0226545Y0288024D01*
X0226555Y0288107D01*
X0226561Y0288190D01*
X0226563Y0288273D01*
X0214501Y0286850D02*
X0214146Y0286850D01*
X0214146Y0286495D01*
X0214501Y0286495D01*
X0214501Y0286850D01*
X0211794Y0288273D02*
X0211792Y0288190D01*
X0211786Y0288107D01*
X0211776Y0288024D01*
X0211763Y0287941D01*
X0211745Y0287860D01*
X0211724Y0287779D01*
X0211699Y0287700D01*
X0211670Y0287622D01*
X0211638Y0287545D01*
X0211602Y0287470D01*
X0211563Y0287396D01*
X0211520Y0287325D01*
X0211474Y0287255D01*
X0211424Y0287188D01*
X0211372Y0287123D01*
X0211317Y0287061D01*
X0211258Y0287001D01*
X0211197Y0286944D01*
X0211134Y0286890D01*
X0211068Y0286839D01*
X0210999Y0286792D01*
X0210929Y0286747D01*
X0210856Y0286706D01*
X0210782Y0286669D01*
X0210706Y0286634D01*
X0210628Y0286604D01*
X0210550Y0286577D01*
X0210469Y0286554D01*
X0210388Y0286534D01*
X0210306Y0286519D01*
X0210224Y0286507D01*
X0210141Y0286499D01*
X0210058Y0286495D01*
X0209974Y0286495D01*
X0209891Y0286499D01*
X0209808Y0286507D01*
X0209726Y0286519D01*
X0209644Y0286534D01*
X0209563Y0286554D01*
X0209482Y0286577D01*
X0209404Y0286604D01*
X0209326Y0286634D01*
X0209250Y0286669D01*
X0209176Y0286706D01*
X0209103Y0286747D01*
X0209033Y0286792D01*
X0208964Y0286839D01*
X0208898Y0286890D01*
X0208835Y0286944D01*
X0208774Y0287001D01*
X0208715Y0287061D01*
X0208660Y0287123D01*
X0208608Y0287188D01*
X0208558Y0287255D01*
X0208512Y0287325D01*
X0208469Y0287396D01*
X0208430Y0287470D01*
X0208394Y0287545D01*
X0208362Y0287622D01*
X0208333Y0287700D01*
X0208308Y0287779D01*
X0208287Y0287860D01*
X0208269Y0287941D01*
X0208256Y0288024D01*
X0208246Y0288107D01*
X0208240Y0288190D01*
X0208238Y0288273D01*
X0208240Y0288356D01*
X0208246Y0288439D01*
X0208256Y0288522D01*
X0208269Y0288605D01*
X0208287Y0288686D01*
X0208308Y0288767D01*
X0208333Y0288846D01*
X0208362Y0288924D01*
X0208394Y0289001D01*
X0208430Y0289076D01*
X0208469Y0289150D01*
X0208512Y0289221D01*
X0208558Y0289291D01*
X0208608Y0289358D01*
X0208660Y0289423D01*
X0208715Y0289485D01*
X0208774Y0289545D01*
X0208835Y0289602D01*
X0208898Y0289656D01*
X0208964Y0289707D01*
X0209033Y0289754D01*
X0209103Y0289799D01*
X0209176Y0289840D01*
X0209250Y0289877D01*
X0209326Y0289912D01*
X0209404Y0289942D01*
X0209482Y0289969D01*
X0209563Y0289992D01*
X0209644Y0290012D01*
X0209726Y0290027D01*
X0209808Y0290039D01*
X0209891Y0290047D01*
X0209974Y0290051D01*
X0210058Y0290051D01*
X0210141Y0290047D01*
X0210224Y0290039D01*
X0210306Y0290027D01*
X0210388Y0290012D01*
X0210469Y0289992D01*
X0210550Y0289969D01*
X0210628Y0289942D01*
X0210706Y0289912D01*
X0210782Y0289877D01*
X0210856Y0289840D01*
X0210929Y0289799D01*
X0210999Y0289754D01*
X0211068Y0289707D01*
X0211134Y0289656D01*
X0211197Y0289602D01*
X0211258Y0289545D01*
X0211317Y0289485D01*
X0211372Y0289423D01*
X0211424Y0289358D01*
X0211474Y0289291D01*
X0211520Y0289221D01*
X0211563Y0289150D01*
X0211602Y0289076D01*
X0211638Y0289001D01*
X0211670Y0288924D01*
X0211699Y0288846D01*
X0211724Y0288767D01*
X0211745Y0288686D01*
X0211763Y0288605D01*
X0211776Y0288522D01*
X0211786Y0288439D01*
X0211792Y0288356D01*
X0211794Y0288273D01*
X0211438Y0291473D02*
X0211436Y0291399D01*
X0211430Y0291324D01*
X0211420Y0291251D01*
X0211407Y0291177D01*
X0211390Y0291105D01*
X0211368Y0291034D01*
X0211344Y0290963D01*
X0211315Y0290895D01*
X0211283Y0290827D01*
X0211247Y0290762D01*
X0211209Y0290699D01*
X0211166Y0290637D01*
X0211121Y0290578D01*
X0211073Y0290521D01*
X0211022Y0290467D01*
X0210968Y0290416D01*
X0210911Y0290368D01*
X0210852Y0290323D01*
X0210790Y0290280D01*
X0210727Y0290242D01*
X0210662Y0290206D01*
X0210594Y0290174D01*
X0210526Y0290145D01*
X0210455Y0290121D01*
X0210384Y0290099D01*
X0210312Y0290082D01*
X0210238Y0290069D01*
X0210165Y0290059D01*
X0210090Y0290053D01*
X0210016Y0290051D01*
X0209942Y0290053D01*
X0209867Y0290059D01*
X0209794Y0290069D01*
X0209720Y0290082D01*
X0209648Y0290099D01*
X0209577Y0290121D01*
X0209506Y0290145D01*
X0209438Y0290174D01*
X0209370Y0290206D01*
X0209305Y0290242D01*
X0209242Y0290280D01*
X0209180Y0290323D01*
X0209121Y0290368D01*
X0209064Y0290416D01*
X0209010Y0290467D01*
X0208959Y0290521D01*
X0208911Y0290578D01*
X0208866Y0290637D01*
X0208823Y0290699D01*
X0208785Y0290762D01*
X0208749Y0290827D01*
X0208717Y0290895D01*
X0208688Y0290963D01*
X0208664Y0291034D01*
X0208642Y0291105D01*
X0208625Y0291177D01*
X0208612Y0291251D01*
X0208602Y0291324D01*
X0208596Y0291399D01*
X0208594Y0291473D01*
X0208596Y0291547D01*
X0208602Y0291622D01*
X0208612Y0291695D01*
X0208625Y0291769D01*
X0208642Y0291841D01*
X0208664Y0291912D01*
X0208688Y0291983D01*
X0208717Y0292051D01*
X0208749Y0292119D01*
X0208785Y0292184D01*
X0208823Y0292247D01*
X0208866Y0292309D01*
X0208911Y0292368D01*
X0208959Y0292425D01*
X0209010Y0292479D01*
X0209064Y0292530D01*
X0209121Y0292578D01*
X0209180Y0292623D01*
X0209242Y0292666D01*
X0209305Y0292704D01*
X0209370Y0292740D01*
X0209438Y0292772D01*
X0209506Y0292801D01*
X0209577Y0292825D01*
X0209648Y0292847D01*
X0209720Y0292864D01*
X0209794Y0292877D01*
X0209867Y0292887D01*
X0209942Y0292893D01*
X0210016Y0292895D01*
X0210090Y0292893D01*
X0210165Y0292887D01*
X0210238Y0292877D01*
X0210312Y0292864D01*
X0210384Y0292847D01*
X0210455Y0292825D01*
X0210526Y0292801D01*
X0210594Y0292772D01*
X0210662Y0292740D01*
X0210727Y0292704D01*
X0210790Y0292666D01*
X0210852Y0292623D01*
X0210911Y0292578D01*
X0210968Y0292530D01*
X0211022Y0292479D01*
X0211073Y0292425D01*
X0211121Y0292368D01*
X0211166Y0292309D01*
X0211209Y0292247D01*
X0211247Y0292184D01*
X0211283Y0292119D01*
X0211315Y0292051D01*
X0211344Y0291983D01*
X0211368Y0291912D01*
X0211390Y0291841D01*
X0211407Y0291769D01*
X0211420Y0291695D01*
X0211430Y0291622D01*
X0211436Y0291547D01*
X0211438Y0291473D01*
X0205639Y0292895D02*
X0202084Y0292895D01*
X0203506Y0290050D02*
X0205639Y0290050D01*
X0205639Y0292895D01*
X0203506Y0290050D02*
X0203432Y0290048D01*
X0203357Y0290042D01*
X0203284Y0290032D01*
X0203210Y0290019D01*
X0203138Y0290002D01*
X0203067Y0289980D01*
X0202996Y0289956D01*
X0202928Y0289927D01*
X0202860Y0289895D01*
X0202795Y0289859D01*
X0202732Y0289821D01*
X0202670Y0289778D01*
X0202611Y0289733D01*
X0202554Y0289685D01*
X0202500Y0289634D01*
X0202449Y0289580D01*
X0202401Y0289523D01*
X0202356Y0289464D01*
X0202313Y0289402D01*
X0202275Y0289339D01*
X0202239Y0289274D01*
X0202207Y0289206D01*
X0202178Y0289138D01*
X0202154Y0289067D01*
X0202132Y0288996D01*
X0202115Y0288924D01*
X0202102Y0288850D01*
X0202092Y0288777D01*
X0202086Y0288702D01*
X0202084Y0288628D01*
X0202084Y0287917D01*
X0202086Y0287843D01*
X0202092Y0287768D01*
X0202102Y0287695D01*
X0202115Y0287621D01*
X0202132Y0287549D01*
X0202154Y0287478D01*
X0202178Y0287407D01*
X0202207Y0287339D01*
X0202239Y0287271D01*
X0202275Y0287206D01*
X0202313Y0287143D01*
X0202356Y0287081D01*
X0202401Y0287022D01*
X0202449Y0286965D01*
X0202500Y0286911D01*
X0202554Y0286860D01*
X0202611Y0286812D01*
X0202670Y0286767D01*
X0202732Y0286724D01*
X0202795Y0286686D01*
X0202860Y0286650D01*
X0202928Y0286618D01*
X0202996Y0286589D01*
X0203067Y0286565D01*
X0203138Y0286543D01*
X0203210Y0286526D01*
X0203284Y0286513D01*
X0203357Y0286503D01*
X0203432Y0286497D01*
X0203506Y0286495D01*
X0205639Y0286495D01*
X0084238Y0191918D02*
X0082816Y0190141D01*
X0084238Y0191918D02*
X0077838Y0191918D01*
X0077838Y0190141D02*
X0077838Y0193696D01*
X0079616Y0187542D02*
X0079972Y0187542D01*
X0080046Y0187540D01*
X0080121Y0187534D01*
X0080194Y0187524D01*
X0080268Y0187511D01*
X0080340Y0187494D01*
X0080411Y0187472D01*
X0080482Y0187448D01*
X0080550Y0187419D01*
X0080618Y0187387D01*
X0080683Y0187351D01*
X0080746Y0187313D01*
X0080808Y0187270D01*
X0080867Y0187225D01*
X0080924Y0187177D01*
X0080978Y0187126D01*
X0081029Y0187072D01*
X0081077Y0187015D01*
X0081122Y0186956D01*
X0081165Y0186894D01*
X0081203Y0186831D01*
X0081239Y0186766D01*
X0081271Y0186698D01*
X0081300Y0186630D01*
X0081324Y0186559D01*
X0081346Y0186488D01*
X0081363Y0186416D01*
X0081376Y0186342D01*
X0081386Y0186269D01*
X0081392Y0186194D01*
X0081394Y0186120D01*
X0081394Y0183986D01*
X0079616Y0183986D01*
X0079533Y0183988D01*
X0079450Y0183994D01*
X0079367Y0184004D01*
X0079284Y0184017D01*
X0079203Y0184035D01*
X0079122Y0184056D01*
X0079043Y0184081D01*
X0078965Y0184110D01*
X0078888Y0184142D01*
X0078813Y0184178D01*
X0078739Y0184217D01*
X0078668Y0184260D01*
X0078598Y0184306D01*
X0078531Y0184356D01*
X0078466Y0184408D01*
X0078404Y0184463D01*
X0078344Y0184522D01*
X0078287Y0184583D01*
X0078233Y0184646D01*
X0078182Y0184712D01*
X0078135Y0184781D01*
X0078090Y0184851D01*
X0078049Y0184924D01*
X0078012Y0184998D01*
X0077977Y0185074D01*
X0077947Y0185152D01*
X0077920Y0185230D01*
X0077897Y0185311D01*
X0077877Y0185392D01*
X0077862Y0185474D01*
X0077850Y0185556D01*
X0077842Y0185639D01*
X0077838Y0185722D01*
X0077838Y0185806D01*
X0077842Y0185889D01*
X0077850Y0185972D01*
X0077862Y0186054D01*
X0077877Y0186136D01*
X0077897Y0186217D01*
X0077920Y0186298D01*
X0077947Y0186376D01*
X0077977Y0186454D01*
X0078012Y0186530D01*
X0078049Y0186604D01*
X0078090Y0186677D01*
X0078135Y0186747D01*
X0078182Y0186816D01*
X0078233Y0186882D01*
X0078287Y0186945D01*
X0078344Y0187006D01*
X0078404Y0187065D01*
X0078466Y0187120D01*
X0078531Y0187172D01*
X0078598Y0187222D01*
X0078668Y0187268D01*
X0078739Y0187311D01*
X0078813Y0187350D01*
X0078888Y0187386D01*
X0078965Y0187418D01*
X0079043Y0187447D01*
X0079122Y0187472D01*
X0079203Y0187493D01*
X0079284Y0187511D01*
X0079367Y0187524D01*
X0079450Y0187534D01*
X0079533Y0187540D01*
X0079616Y0187542D01*
X0081394Y0183987D02*
X0081498Y0183989D01*
X0081602Y0183995D01*
X0081705Y0184004D01*
X0081808Y0184017D01*
X0081911Y0184034D01*
X0082012Y0184055D01*
X0082113Y0184079D01*
X0082213Y0184108D01*
X0082312Y0184139D01*
X0082410Y0184175D01*
X0082506Y0184214D01*
X0082601Y0184256D01*
X0082694Y0184302D01*
X0082786Y0184351D01*
X0082876Y0184403D01*
X0082963Y0184459D01*
X0083049Y0184518D01*
X0083132Y0184580D01*
X0083213Y0184645D01*
X0083292Y0184713D01*
X0083368Y0184784D01*
X0083441Y0184857D01*
X0083512Y0184933D01*
X0083580Y0185012D01*
X0083645Y0185093D01*
X0083707Y0185176D01*
X0083766Y0185262D01*
X0083822Y0185349D01*
X0083874Y0185439D01*
X0083923Y0185531D01*
X0083969Y0185624D01*
X0084011Y0185719D01*
X0084050Y0185815D01*
X0084086Y0185913D01*
X0084117Y0186012D01*
X0084146Y0186112D01*
X0084170Y0186213D01*
X0084191Y0186314D01*
X0084208Y0186417D01*
X0084221Y0186520D01*
X0084230Y0186623D01*
X0084236Y0186727D01*
X0084238Y0186831D01*
X0078194Y0181634D02*
X0077838Y0181634D01*
X0077838Y0181279D01*
X0078194Y0181279D01*
X0078194Y0181634D01*
X0079260Y0178926D02*
X0079260Y0175371D01*
X0084238Y0176793D01*
X0080683Y0177860D02*
X0077838Y0177860D01*
X0079260Y0172772D02*
X0079972Y0172772D01*
X0080046Y0172770D01*
X0080121Y0172764D01*
X0080194Y0172754D01*
X0080268Y0172741D01*
X0080340Y0172724D01*
X0080411Y0172702D01*
X0080482Y0172678D01*
X0080550Y0172649D01*
X0080618Y0172617D01*
X0080683Y0172581D01*
X0080746Y0172543D01*
X0080808Y0172500D01*
X0080867Y0172455D01*
X0080924Y0172407D01*
X0080978Y0172356D01*
X0081029Y0172302D01*
X0081077Y0172245D01*
X0081122Y0172186D01*
X0081165Y0172124D01*
X0081203Y0172061D01*
X0081239Y0171996D01*
X0081271Y0171928D01*
X0081300Y0171860D01*
X0081324Y0171789D01*
X0081346Y0171718D01*
X0081363Y0171646D01*
X0081376Y0171572D01*
X0081386Y0171499D01*
X0081392Y0171424D01*
X0081394Y0171350D01*
X0081394Y0169217D01*
X0084238Y0169217D01*
X0084238Y0172772D01*
X0079260Y0172772D02*
X0079186Y0172770D01*
X0079111Y0172764D01*
X0079038Y0172754D01*
X0078964Y0172741D01*
X0078892Y0172724D01*
X0078821Y0172702D01*
X0078750Y0172678D01*
X0078682Y0172649D01*
X0078614Y0172617D01*
X0078549Y0172581D01*
X0078486Y0172543D01*
X0078424Y0172500D01*
X0078365Y0172455D01*
X0078308Y0172407D01*
X0078254Y0172356D01*
X0078203Y0172302D01*
X0078155Y0172245D01*
X0078110Y0172186D01*
X0078067Y0172124D01*
X0078029Y0172061D01*
X0077993Y0171996D01*
X0077961Y0171928D01*
X0077932Y0171860D01*
X0077908Y0171789D01*
X0077886Y0171718D01*
X0077869Y0171646D01*
X0077856Y0171572D01*
X0077846Y0171499D01*
X0077840Y0171424D01*
X0077838Y0171350D01*
X0077838Y0169217D01*
D13*
X0187000Y0148733D02*
X0187000Y0146178D01*
X0189556Y0148350D01*
X0191600Y0147583D02*
X0191598Y0147509D01*
X0191593Y0147435D01*
X0191583Y0147361D01*
X0191570Y0147288D01*
X0191554Y0147215D01*
X0191533Y0147144D01*
X0191509Y0147074D01*
X0191482Y0147005D01*
X0191451Y0146937D01*
X0191417Y0146871D01*
X0191380Y0146807D01*
X0191339Y0146745D01*
X0191295Y0146685D01*
X0191249Y0146627D01*
X0191199Y0146571D01*
X0191147Y0146518D01*
X0191092Y0146468D01*
X0191035Y0146421D01*
X0190975Y0146377D01*
X0190913Y0146335D01*
X0190850Y0146297D01*
X0190784Y0146262D01*
X0190717Y0146231D01*
X0190648Y0146203D01*
X0190578Y0146178D01*
X0189556Y0148350D02*
X0189603Y0148397D01*
X0189653Y0148441D01*
X0189705Y0148483D01*
X0189759Y0148522D01*
X0189815Y0148557D01*
X0189873Y0148590D01*
X0189933Y0148620D01*
X0189994Y0148646D01*
X0190057Y0148669D01*
X0190121Y0148688D01*
X0190185Y0148704D01*
X0190251Y0148717D01*
X0190317Y0148726D01*
X0190383Y0148731D01*
X0190450Y0148733D01*
X0190517Y0148731D01*
X0190584Y0148725D01*
X0190650Y0148716D01*
X0190715Y0148702D01*
X0190780Y0148685D01*
X0190843Y0148664D01*
X0190905Y0148639D01*
X0190966Y0148611D01*
X0191025Y0148579D01*
X0191082Y0148544D01*
X0191137Y0148505D01*
X0191189Y0148464D01*
X0191239Y0148419D01*
X0191286Y0148372D01*
X0191331Y0148322D01*
X0191372Y0148270D01*
X0191411Y0148215D01*
X0191446Y0148158D01*
X0191478Y0148099D01*
X0191506Y0148038D01*
X0191531Y0147976D01*
X0191552Y0147913D01*
X0191569Y0147848D01*
X0191583Y0147783D01*
X0191592Y0147717D01*
X0191598Y0147650D01*
X0191600Y0147583D01*
X0191600Y0144459D02*
X0191600Y0143437D01*
X0191598Y0143375D01*
X0191593Y0143314D01*
X0191583Y0143253D01*
X0191570Y0143192D01*
X0191554Y0143133D01*
X0191534Y0143075D01*
X0191510Y0143018D01*
X0191483Y0142962D01*
X0191453Y0142908D01*
X0191419Y0142856D01*
X0191382Y0142807D01*
X0191343Y0142759D01*
X0191301Y0142714D01*
X0191256Y0142672D01*
X0191208Y0142632D01*
X0191159Y0142596D01*
X0191107Y0142562D01*
X0191053Y0142532D01*
X0190997Y0142505D01*
X0190940Y0142481D01*
X0190882Y0142461D01*
X0190823Y0142445D01*
X0190762Y0142432D01*
X0190701Y0142422D01*
X0190640Y0142417D01*
X0190578Y0142415D01*
X0190578Y0142414D02*
X0188022Y0142414D01*
X0188022Y0142415D02*
X0187960Y0142417D01*
X0187899Y0142422D01*
X0187838Y0142432D01*
X0187777Y0142445D01*
X0187718Y0142461D01*
X0187660Y0142481D01*
X0187603Y0142505D01*
X0187547Y0142532D01*
X0187493Y0142562D01*
X0187441Y0142596D01*
X0187392Y0142632D01*
X0187344Y0142672D01*
X0187299Y0142714D01*
X0187257Y0142759D01*
X0187217Y0142807D01*
X0187181Y0142856D01*
X0187147Y0142908D01*
X0187117Y0142962D01*
X0187090Y0143018D01*
X0187066Y0143075D01*
X0187046Y0143133D01*
X0187030Y0143192D01*
X0187017Y0143253D01*
X0187007Y0143314D01*
X0187002Y0143375D01*
X0187000Y0143437D01*
X0187000Y0144459D01*
X0227000Y0142455D02*
X0227000Y0141178D01*
X0227000Y0139459D02*
X0227000Y0138437D01*
X0227002Y0138375D01*
X0227007Y0138314D01*
X0227017Y0138253D01*
X0227030Y0138192D01*
X0227046Y0138133D01*
X0227066Y0138075D01*
X0227090Y0138018D01*
X0227117Y0137962D01*
X0227147Y0137908D01*
X0227181Y0137856D01*
X0227217Y0137807D01*
X0227257Y0137759D01*
X0227299Y0137714D01*
X0227344Y0137672D01*
X0227392Y0137632D01*
X0227441Y0137596D01*
X0227493Y0137562D01*
X0227547Y0137532D01*
X0227603Y0137505D01*
X0227660Y0137481D01*
X0227718Y0137461D01*
X0227777Y0137445D01*
X0227838Y0137432D01*
X0227899Y0137422D01*
X0227960Y0137417D01*
X0228022Y0137415D01*
X0228022Y0137414D02*
X0230578Y0137414D01*
X0230578Y0137415D02*
X0230640Y0137417D01*
X0230701Y0137422D01*
X0230762Y0137432D01*
X0230823Y0137445D01*
X0230882Y0137461D01*
X0230940Y0137481D01*
X0230997Y0137505D01*
X0231053Y0137532D01*
X0231107Y0137562D01*
X0231159Y0137596D01*
X0231208Y0137632D01*
X0231256Y0137672D01*
X0231301Y0137714D01*
X0231343Y0137759D01*
X0231382Y0137807D01*
X0231419Y0137856D01*
X0231453Y0137908D01*
X0231483Y0137962D01*
X0231510Y0138018D01*
X0231534Y0138075D01*
X0231554Y0138133D01*
X0231570Y0138192D01*
X0231583Y0138253D01*
X0231593Y0138314D01*
X0231598Y0138375D01*
X0231600Y0138437D01*
X0231600Y0139459D01*
X0231600Y0141178D02*
X0231600Y0142711D01*
X0231598Y0142774D01*
X0231592Y0142837D01*
X0231583Y0142899D01*
X0231569Y0142960D01*
X0231552Y0143021D01*
X0231531Y0143080D01*
X0231506Y0143138D01*
X0231478Y0143195D01*
X0231447Y0143249D01*
X0231412Y0143301D01*
X0231374Y0143352D01*
X0231333Y0143400D01*
X0231289Y0143445D01*
X0231243Y0143487D01*
X0231194Y0143527D01*
X0231143Y0143563D01*
X0231089Y0143596D01*
X0231034Y0143626D01*
X0230976Y0143652D01*
X0230918Y0143675D01*
X0230858Y0143694D01*
X0230797Y0143709D01*
X0230735Y0143721D01*
X0230672Y0143729D01*
X0230609Y0143733D01*
X0230547Y0143733D01*
X0230484Y0143729D01*
X0230421Y0143721D01*
X0230359Y0143709D01*
X0230298Y0143694D01*
X0230238Y0143675D01*
X0230180Y0143652D01*
X0230122Y0143626D01*
X0230067Y0143596D01*
X0230013Y0143563D01*
X0229962Y0143527D01*
X0229913Y0143487D01*
X0229867Y0143445D01*
X0229823Y0143400D01*
X0229782Y0143352D01*
X0229744Y0143301D01*
X0229709Y0143249D01*
X0229678Y0143195D01*
X0229650Y0143138D01*
X0229625Y0143080D01*
X0229604Y0143021D01*
X0229587Y0142960D01*
X0229573Y0142899D01*
X0229564Y0142837D01*
X0229558Y0142774D01*
X0229556Y0142711D01*
X0229556Y0141689D01*
X0229556Y0142455D02*
X0229554Y0142525D01*
X0229548Y0142596D01*
X0229539Y0142665D01*
X0229525Y0142734D01*
X0229508Y0142803D01*
X0229487Y0142870D01*
X0229462Y0142936D01*
X0229434Y0143000D01*
X0229402Y0143063D01*
X0229367Y0143124D01*
X0229328Y0143183D01*
X0229287Y0143240D01*
X0229242Y0143294D01*
X0229194Y0143346D01*
X0229144Y0143395D01*
X0229090Y0143442D01*
X0229035Y0143485D01*
X0228977Y0143525D01*
X0228917Y0143562D01*
X0228855Y0143595D01*
X0228791Y0143625D01*
X0228726Y0143652D01*
X0228660Y0143675D01*
X0228592Y0143694D01*
X0228523Y0143709D01*
X0228454Y0143721D01*
X0228384Y0143729D01*
X0228313Y0143733D01*
X0228243Y0143733D01*
X0228172Y0143729D01*
X0228102Y0143721D01*
X0228033Y0143709D01*
X0227964Y0143694D01*
X0227896Y0143675D01*
X0227830Y0143652D01*
X0227765Y0143625D01*
X0227701Y0143595D01*
X0227639Y0143562D01*
X0227579Y0143525D01*
X0227521Y0143485D01*
X0227466Y0143442D01*
X0227412Y0143395D01*
X0227362Y0143346D01*
X0227314Y0143294D01*
X0227269Y0143240D01*
X0227228Y0143183D01*
X0227189Y0143124D01*
X0227154Y0143063D01*
X0227122Y0143000D01*
X0227094Y0142936D01*
X0227069Y0142870D01*
X0227048Y0142803D01*
X0227031Y0142734D01*
X0227017Y0142665D01*
X0227008Y0142596D01*
X0227002Y0142525D01*
X0227000Y0142455D01*
X0278600Y0079436D02*
X0278600Y0077392D01*
X0274000Y0077392D01*
X0274000Y0075514D02*
X0274000Y0074492D01*
X0274002Y0074430D01*
X0274007Y0074369D01*
X0274017Y0074308D01*
X0274030Y0074247D01*
X0274046Y0074188D01*
X0274066Y0074130D01*
X0274090Y0074073D01*
X0274117Y0074017D01*
X0274147Y0073963D01*
X0274181Y0073911D01*
X0274218Y0073862D01*
X0274257Y0073814D01*
X0274299Y0073769D01*
X0274344Y0073727D01*
X0274392Y0073687D01*
X0274441Y0073651D01*
X0274493Y0073617D01*
X0274547Y0073587D01*
X0274603Y0073560D01*
X0274660Y0073536D01*
X0274718Y0073516D01*
X0274777Y0073500D01*
X0274838Y0073487D01*
X0274899Y0073477D01*
X0274960Y0073472D01*
X0275022Y0073470D01*
X0277578Y0073470D01*
X0277640Y0073472D01*
X0277701Y0073477D01*
X0277762Y0073487D01*
X0277823Y0073500D01*
X0277882Y0073516D01*
X0277940Y0073536D01*
X0277997Y0073560D01*
X0278053Y0073587D01*
X0278107Y0073617D01*
X0278159Y0073651D01*
X0278208Y0073687D01*
X0278256Y0073727D01*
X0278301Y0073769D01*
X0278343Y0073814D01*
X0278383Y0073862D01*
X0278419Y0073911D01*
X0278453Y0073963D01*
X0278483Y0074017D01*
X0278510Y0074073D01*
X0278534Y0074130D01*
X0278554Y0074188D01*
X0278570Y0074247D01*
X0278583Y0074308D01*
X0278593Y0074369D01*
X0278598Y0074430D01*
X0278600Y0074492D01*
X0278600Y0075514D01*
X0284500Y0074911D02*
X0284500Y0073633D01*
X0289100Y0073633D01*
X0289100Y0074911D01*
X0289098Y0074980D01*
X0289093Y0075049D01*
X0289083Y0075118D01*
X0289070Y0075186D01*
X0289053Y0075253D01*
X0289033Y0075319D01*
X0289009Y0075384D01*
X0288982Y0075448D01*
X0288951Y0075510D01*
X0288917Y0075570D01*
X0288880Y0075628D01*
X0288839Y0075684D01*
X0288796Y0075738D01*
X0288750Y0075790D01*
X0288701Y0075839D01*
X0288649Y0075885D01*
X0288595Y0075928D01*
X0288539Y0075969D01*
X0288481Y0076006D01*
X0288421Y0076040D01*
X0288359Y0076071D01*
X0288295Y0076098D01*
X0288230Y0076122D01*
X0288164Y0076142D01*
X0288097Y0076159D01*
X0288029Y0076172D01*
X0287960Y0076182D01*
X0287891Y0076187D01*
X0287822Y0076189D01*
X0285778Y0076189D01*
X0285709Y0076187D01*
X0285640Y0076182D01*
X0285571Y0076172D01*
X0285503Y0076159D01*
X0285436Y0076142D01*
X0285370Y0076122D01*
X0285305Y0076098D01*
X0285241Y0076071D01*
X0285179Y0076040D01*
X0285119Y0076006D01*
X0285061Y0075969D01*
X0285005Y0075928D01*
X0284951Y0075885D01*
X0284899Y0075839D01*
X0284850Y0075790D01*
X0284804Y0075738D01*
X0284761Y0075684D01*
X0284720Y0075628D01*
X0284683Y0075570D01*
X0284649Y0075510D01*
X0284618Y0075448D01*
X0284591Y0075384D01*
X0284567Y0075319D01*
X0284547Y0075253D01*
X0284530Y0075186D01*
X0284517Y0075118D01*
X0284507Y0075049D01*
X0284502Y0074980D01*
X0284500Y0074911D01*
X0287183Y0071178D02*
X0286417Y0069772D01*
X0284500Y0070283D02*
X0284502Y0070365D01*
X0284507Y0070447D01*
X0284516Y0070529D01*
X0284528Y0070610D01*
X0284544Y0070691D01*
X0284563Y0070771D01*
X0284586Y0070850D01*
X0284612Y0070928D01*
X0284641Y0071005D01*
X0284674Y0071080D01*
X0284710Y0071154D01*
X0284748Y0071227D01*
X0284790Y0071298D01*
X0284835Y0071366D01*
X0284883Y0071433D01*
X0286416Y0069772D02*
X0286382Y0069718D01*
X0286345Y0069667D01*
X0286305Y0069618D01*
X0286262Y0069571D01*
X0286216Y0069528D01*
X0286168Y0069487D01*
X0286117Y0069449D01*
X0286064Y0069414D01*
X0286009Y0069382D01*
X0285952Y0069354D01*
X0285894Y0069330D01*
X0285834Y0069309D01*
X0285773Y0069292D01*
X0285711Y0069278D01*
X0285648Y0069269D01*
X0285585Y0069263D01*
X0285522Y0069261D01*
X0285460Y0069263D01*
X0285399Y0069268D01*
X0285338Y0069278D01*
X0285277Y0069291D01*
X0285218Y0069307D01*
X0285160Y0069327D01*
X0285103Y0069351D01*
X0285047Y0069378D01*
X0284993Y0069408D01*
X0284941Y0069442D01*
X0284892Y0069478D01*
X0284844Y0069518D01*
X0284799Y0069560D01*
X0284757Y0069605D01*
X0284717Y0069653D01*
X0284681Y0069702D01*
X0284647Y0069754D01*
X0284617Y0069808D01*
X0284590Y0069864D01*
X0284566Y0069921D01*
X0284546Y0069979D01*
X0284530Y0070038D01*
X0284517Y0070099D01*
X0284507Y0070160D01*
X0284502Y0070221D01*
X0284500Y0070283D01*
X0288461Y0069133D02*
X0288524Y0069197D01*
X0288583Y0069265D01*
X0288640Y0069334D01*
X0288694Y0069406D01*
X0288745Y0069480D01*
X0288793Y0069556D01*
X0288837Y0069633D01*
X0288878Y0069713D01*
X0288916Y0069794D01*
X0288951Y0069877D01*
X0288982Y0069961D01*
X0289009Y0070047D01*
X0289033Y0070133D01*
X0289054Y0070221D01*
X0289070Y0070309D01*
X0289083Y0070398D01*
X0289093Y0070487D01*
X0289098Y0070576D01*
X0289100Y0070666D01*
X0289098Y0070728D01*
X0289093Y0070789D01*
X0289083Y0070850D01*
X0289070Y0070911D01*
X0289054Y0070970D01*
X0289034Y0071028D01*
X0289010Y0071085D01*
X0288983Y0071141D01*
X0288953Y0071195D01*
X0288919Y0071247D01*
X0288883Y0071296D01*
X0288843Y0071344D01*
X0288801Y0071389D01*
X0288756Y0071431D01*
X0288708Y0071471D01*
X0288659Y0071507D01*
X0288607Y0071541D01*
X0288553Y0071571D01*
X0288497Y0071598D01*
X0288440Y0071622D01*
X0288382Y0071642D01*
X0288323Y0071658D01*
X0288262Y0071671D01*
X0288201Y0071681D01*
X0288140Y0071686D01*
X0288078Y0071688D01*
X0288015Y0071686D01*
X0287952Y0071680D01*
X0287889Y0071671D01*
X0287827Y0071657D01*
X0287766Y0071640D01*
X0287706Y0071619D01*
X0287648Y0071595D01*
X0287591Y0071567D01*
X0287536Y0071535D01*
X0287483Y0071500D01*
X0287432Y0071462D01*
X0287384Y0071421D01*
X0287338Y0071378D01*
X0287295Y0071331D01*
X0287255Y0071282D01*
X0287218Y0071231D01*
X0287184Y0071177D01*
X0289100Y0078027D02*
X0284500Y0079561D01*
X0289100Y0081094D01*
X0287950Y0080711D02*
X0287950Y0078411D01*
X0295000Y0078733D02*
X0295000Y0080011D01*
X0295002Y0080080D01*
X0295007Y0080149D01*
X0295017Y0080218D01*
X0295030Y0080286D01*
X0295047Y0080353D01*
X0295067Y0080419D01*
X0295091Y0080484D01*
X0295118Y0080548D01*
X0295149Y0080610D01*
X0295183Y0080670D01*
X0295220Y0080728D01*
X0295261Y0080784D01*
X0295304Y0080838D01*
X0295350Y0080890D01*
X0295399Y0080939D01*
X0295451Y0080985D01*
X0295505Y0081028D01*
X0295561Y0081069D01*
X0295619Y0081106D01*
X0295679Y0081140D01*
X0295741Y0081171D01*
X0295805Y0081198D01*
X0295870Y0081222D01*
X0295936Y0081242D01*
X0296003Y0081259D01*
X0296071Y0081272D01*
X0296140Y0081282D01*
X0296209Y0081287D01*
X0296278Y0081289D01*
X0298322Y0081289D01*
X0298391Y0081287D01*
X0298460Y0081282D01*
X0298529Y0081272D01*
X0298597Y0081259D01*
X0298664Y0081242D01*
X0298730Y0081222D01*
X0298795Y0081198D01*
X0298859Y0081171D01*
X0298921Y0081140D01*
X0298981Y0081106D01*
X0299039Y0081069D01*
X0299095Y0081028D01*
X0299149Y0080985D01*
X0299201Y0080939D01*
X0299250Y0080890D01*
X0299296Y0080838D01*
X0299339Y0080784D01*
X0299380Y0080728D01*
X0299417Y0080670D01*
X0299451Y0080610D01*
X0299482Y0080548D01*
X0299509Y0080484D01*
X0299533Y0080419D01*
X0299553Y0080353D01*
X0299570Y0080286D01*
X0299583Y0080218D01*
X0299593Y0080149D01*
X0299598Y0080080D01*
X0299600Y0080011D01*
X0299600Y0078733D01*
X0295000Y0078733D01*
X0295000Y0076489D02*
X0299600Y0076489D01*
X0295000Y0073933D01*
X0299600Y0073933D01*
X0299600Y0071689D02*
X0299600Y0070155D01*
X0299598Y0070093D01*
X0299593Y0070032D01*
X0299583Y0069971D01*
X0299570Y0069910D01*
X0299554Y0069851D01*
X0299534Y0069793D01*
X0299510Y0069736D01*
X0299483Y0069680D01*
X0299453Y0069626D01*
X0299419Y0069574D01*
X0299383Y0069525D01*
X0299343Y0069477D01*
X0299301Y0069432D01*
X0299256Y0069390D01*
X0299208Y0069350D01*
X0299159Y0069314D01*
X0299107Y0069280D01*
X0299053Y0069250D01*
X0298997Y0069223D01*
X0298940Y0069199D01*
X0298882Y0069179D01*
X0298823Y0069163D01*
X0298762Y0069150D01*
X0298701Y0069140D01*
X0298640Y0069135D01*
X0298578Y0069133D01*
X0296022Y0069133D01*
X0295960Y0069135D01*
X0295899Y0069140D01*
X0295838Y0069150D01*
X0295777Y0069163D01*
X0295718Y0069179D01*
X0295660Y0069199D01*
X0295603Y0069223D01*
X0295547Y0069250D01*
X0295493Y0069280D01*
X0295441Y0069314D01*
X0295392Y0069350D01*
X0295344Y0069390D01*
X0295299Y0069432D01*
X0295257Y0069477D01*
X0295218Y0069525D01*
X0295181Y0069574D01*
X0295147Y0069626D01*
X0295117Y0069680D01*
X0295090Y0069736D01*
X0295066Y0069793D01*
X0295046Y0069851D01*
X0295030Y0069910D01*
X0295017Y0069971D01*
X0295007Y0070032D01*
X0295002Y0070093D01*
X0295000Y0070155D01*
X0295000Y0071689D01*
X0297044Y0071689D02*
X0299600Y0071689D01*
X0297044Y0071689D02*
X0297044Y0070922D01*
X0304500Y0069666D02*
X0304500Y0068133D01*
X0304500Y0069666D02*
X0304502Y0069729D01*
X0304508Y0069792D01*
X0304517Y0069854D01*
X0304531Y0069915D01*
X0304548Y0069976D01*
X0304569Y0070035D01*
X0304594Y0070093D01*
X0304622Y0070150D01*
X0304653Y0070204D01*
X0304688Y0070256D01*
X0304726Y0070307D01*
X0304767Y0070355D01*
X0304811Y0070400D01*
X0304857Y0070442D01*
X0304906Y0070482D01*
X0304957Y0070518D01*
X0305011Y0070551D01*
X0305066Y0070581D01*
X0305124Y0070607D01*
X0305182Y0070630D01*
X0305242Y0070649D01*
X0305303Y0070664D01*
X0305365Y0070676D01*
X0305428Y0070684D01*
X0305491Y0070688D01*
X0305553Y0070688D01*
X0305616Y0070684D01*
X0305679Y0070676D01*
X0305741Y0070664D01*
X0305802Y0070649D01*
X0305862Y0070630D01*
X0305920Y0070607D01*
X0305978Y0070581D01*
X0306033Y0070551D01*
X0306087Y0070518D01*
X0306138Y0070482D01*
X0306187Y0070442D01*
X0306233Y0070400D01*
X0306277Y0070355D01*
X0306318Y0070307D01*
X0306356Y0070256D01*
X0306391Y0070204D01*
X0306422Y0070150D01*
X0306450Y0070093D01*
X0306475Y0070035D01*
X0306496Y0069976D01*
X0306513Y0069915D01*
X0306527Y0069854D01*
X0306536Y0069792D01*
X0306542Y0069729D01*
X0306544Y0069666D01*
X0306544Y0068644D01*
X0306544Y0069411D02*
X0306546Y0069481D01*
X0306552Y0069552D01*
X0306561Y0069621D01*
X0306575Y0069690D01*
X0306592Y0069759D01*
X0306613Y0069826D01*
X0306638Y0069892D01*
X0306666Y0069956D01*
X0306698Y0070019D01*
X0306733Y0070080D01*
X0306772Y0070139D01*
X0306813Y0070196D01*
X0306858Y0070250D01*
X0306906Y0070302D01*
X0306956Y0070351D01*
X0307010Y0070398D01*
X0307065Y0070441D01*
X0307123Y0070481D01*
X0307183Y0070518D01*
X0307245Y0070551D01*
X0307309Y0070581D01*
X0307374Y0070608D01*
X0307440Y0070631D01*
X0307508Y0070650D01*
X0307577Y0070665D01*
X0307646Y0070677D01*
X0307716Y0070685D01*
X0307787Y0070689D01*
X0307857Y0070689D01*
X0307928Y0070685D01*
X0307998Y0070677D01*
X0308067Y0070665D01*
X0308136Y0070650D01*
X0308204Y0070631D01*
X0308270Y0070608D01*
X0308335Y0070581D01*
X0308399Y0070551D01*
X0308461Y0070518D01*
X0308521Y0070481D01*
X0308579Y0070441D01*
X0308634Y0070398D01*
X0308688Y0070351D01*
X0308738Y0070302D01*
X0308786Y0070250D01*
X0308831Y0070196D01*
X0308872Y0070139D01*
X0308911Y0070080D01*
X0308946Y0070019D01*
X0308978Y0069956D01*
X0309006Y0069892D01*
X0309031Y0069826D01*
X0309052Y0069759D01*
X0309069Y0069690D01*
X0309083Y0069621D01*
X0309092Y0069552D01*
X0309098Y0069481D01*
X0309100Y0069411D01*
X0309100Y0068133D01*
X0309100Y0072433D02*
X0309100Y0072689D01*
X0308844Y0072689D01*
X0308844Y0072433D01*
X0309100Y0072433D01*
X0309100Y0074433D02*
X0309100Y0075711D01*
X0309098Y0075781D01*
X0309092Y0075852D01*
X0309083Y0075921D01*
X0309069Y0075990D01*
X0309052Y0076059D01*
X0309031Y0076126D01*
X0309006Y0076192D01*
X0308978Y0076256D01*
X0308946Y0076319D01*
X0308911Y0076380D01*
X0308872Y0076439D01*
X0308831Y0076496D01*
X0308786Y0076550D01*
X0308738Y0076602D01*
X0308688Y0076651D01*
X0308634Y0076698D01*
X0308579Y0076741D01*
X0308521Y0076781D01*
X0308461Y0076818D01*
X0308399Y0076851D01*
X0308335Y0076881D01*
X0308270Y0076908D01*
X0308204Y0076931D01*
X0308136Y0076950D01*
X0308067Y0076965D01*
X0307998Y0076977D01*
X0307928Y0076985D01*
X0307857Y0076989D01*
X0307787Y0076989D01*
X0307716Y0076985D01*
X0307646Y0076977D01*
X0307577Y0076965D01*
X0307508Y0076950D01*
X0307440Y0076931D01*
X0307374Y0076908D01*
X0307309Y0076881D01*
X0307245Y0076851D01*
X0307183Y0076818D01*
X0307123Y0076781D01*
X0307065Y0076741D01*
X0307010Y0076698D01*
X0306956Y0076651D01*
X0306906Y0076602D01*
X0306858Y0076550D01*
X0306813Y0076496D01*
X0306772Y0076439D01*
X0306733Y0076380D01*
X0306698Y0076319D01*
X0306666Y0076256D01*
X0306638Y0076192D01*
X0306613Y0076126D01*
X0306592Y0076059D01*
X0306575Y0075990D01*
X0306561Y0075921D01*
X0306552Y0075852D01*
X0306546Y0075781D01*
X0306544Y0075711D01*
X0306544Y0075966D02*
X0306544Y0074944D01*
X0306544Y0075966D02*
X0306542Y0076029D01*
X0306536Y0076092D01*
X0306527Y0076154D01*
X0306513Y0076215D01*
X0306496Y0076276D01*
X0306475Y0076335D01*
X0306450Y0076393D01*
X0306422Y0076450D01*
X0306391Y0076504D01*
X0306356Y0076556D01*
X0306318Y0076607D01*
X0306277Y0076655D01*
X0306233Y0076700D01*
X0306187Y0076742D01*
X0306138Y0076782D01*
X0306087Y0076818D01*
X0306033Y0076851D01*
X0305978Y0076881D01*
X0305920Y0076907D01*
X0305862Y0076930D01*
X0305802Y0076949D01*
X0305741Y0076964D01*
X0305679Y0076976D01*
X0305616Y0076984D01*
X0305553Y0076988D01*
X0305491Y0076988D01*
X0305428Y0076984D01*
X0305365Y0076976D01*
X0305303Y0076964D01*
X0305242Y0076949D01*
X0305182Y0076930D01*
X0305124Y0076907D01*
X0305066Y0076881D01*
X0305011Y0076851D01*
X0304957Y0076818D01*
X0304906Y0076782D01*
X0304857Y0076742D01*
X0304811Y0076700D01*
X0304767Y0076655D01*
X0304726Y0076607D01*
X0304688Y0076556D01*
X0304653Y0076504D01*
X0304622Y0076450D01*
X0304594Y0076393D01*
X0304569Y0076335D01*
X0304548Y0076276D01*
X0304531Y0076215D01*
X0304517Y0076154D01*
X0304508Y0076092D01*
X0304502Y0076029D01*
X0304500Y0075966D01*
X0304500Y0074433D01*
X0304500Y0078677D02*
X0309100Y0080211D01*
X0304500Y0081744D01*
X0278600Y0070666D02*
X0278598Y0070728D01*
X0278593Y0070789D01*
X0278583Y0070850D01*
X0278570Y0070911D01*
X0278554Y0070970D01*
X0278534Y0071028D01*
X0278510Y0071085D01*
X0278483Y0071141D01*
X0278453Y0071195D01*
X0278419Y0071247D01*
X0278383Y0071296D01*
X0278343Y0071344D01*
X0278301Y0071389D01*
X0278256Y0071431D01*
X0278208Y0071471D01*
X0278159Y0071507D01*
X0278107Y0071541D01*
X0278053Y0071571D01*
X0277997Y0071598D01*
X0277940Y0071622D01*
X0277882Y0071642D01*
X0277823Y0071658D01*
X0277762Y0071671D01*
X0277701Y0071681D01*
X0277640Y0071686D01*
X0277578Y0071688D01*
X0276683Y0071178D02*
X0275917Y0069772D01*
X0274000Y0070283D02*
X0274002Y0070365D01*
X0274007Y0070447D01*
X0274016Y0070529D01*
X0274028Y0070610D01*
X0274044Y0070691D01*
X0274063Y0070771D01*
X0274086Y0070850D01*
X0274112Y0070928D01*
X0274141Y0071005D01*
X0274174Y0071080D01*
X0274210Y0071154D01*
X0274248Y0071227D01*
X0274290Y0071298D01*
X0274335Y0071366D01*
X0274383Y0071433D01*
X0275916Y0069772D02*
X0275882Y0069718D01*
X0275845Y0069667D01*
X0275805Y0069618D01*
X0275762Y0069571D01*
X0275716Y0069528D01*
X0275668Y0069487D01*
X0275617Y0069449D01*
X0275564Y0069414D01*
X0275509Y0069382D01*
X0275452Y0069354D01*
X0275394Y0069330D01*
X0275334Y0069309D01*
X0275273Y0069292D01*
X0275211Y0069278D01*
X0275148Y0069269D01*
X0275085Y0069263D01*
X0275022Y0069261D01*
X0274960Y0069263D01*
X0274899Y0069268D01*
X0274838Y0069278D01*
X0274777Y0069291D01*
X0274718Y0069307D01*
X0274660Y0069327D01*
X0274603Y0069351D01*
X0274547Y0069378D01*
X0274493Y0069408D01*
X0274441Y0069442D01*
X0274392Y0069478D01*
X0274344Y0069518D01*
X0274299Y0069560D01*
X0274257Y0069605D01*
X0274217Y0069653D01*
X0274181Y0069702D01*
X0274147Y0069754D01*
X0274117Y0069808D01*
X0274090Y0069864D01*
X0274066Y0069921D01*
X0274046Y0069979D01*
X0274030Y0070038D01*
X0274017Y0070099D01*
X0274007Y0070160D01*
X0274002Y0070221D01*
X0274000Y0070283D01*
X0277961Y0069133D02*
X0278024Y0069197D01*
X0278083Y0069265D01*
X0278140Y0069334D01*
X0278194Y0069406D01*
X0278245Y0069480D01*
X0278293Y0069556D01*
X0278337Y0069633D01*
X0278378Y0069713D01*
X0278416Y0069794D01*
X0278451Y0069877D01*
X0278482Y0069961D01*
X0278509Y0070047D01*
X0278533Y0070133D01*
X0278554Y0070221D01*
X0278570Y0070309D01*
X0278583Y0070398D01*
X0278593Y0070487D01*
X0278598Y0070576D01*
X0278600Y0070666D01*
X0277578Y0071688D02*
X0277515Y0071686D01*
X0277452Y0071680D01*
X0277389Y0071671D01*
X0277327Y0071657D01*
X0277266Y0071640D01*
X0277206Y0071619D01*
X0277148Y0071595D01*
X0277091Y0071567D01*
X0277036Y0071535D01*
X0276983Y0071500D01*
X0276932Y0071462D01*
X0276884Y0071421D01*
X0276838Y0071378D01*
X0276795Y0071331D01*
X0276755Y0071282D01*
X0276718Y0071231D01*
X0276684Y0071177D01*
D14*
X0210512Y0107845D02*
X0210512Y0110521D01*
X0208453Y0110521D02*
X0208453Y0107845D01*
X0208455Y0107782D01*
X0208461Y0107719D01*
X0208471Y0107656D01*
X0208484Y0107594D01*
X0208501Y0107533D01*
X0208522Y0107473D01*
X0208547Y0107415D01*
X0208575Y0107358D01*
X0208607Y0107303D01*
X0208642Y0107250D01*
X0208680Y0107200D01*
X0208722Y0107152D01*
X0208766Y0107106D01*
X0208813Y0107064D01*
X0208862Y0107024D01*
X0208914Y0106987D01*
X0208968Y0106954D01*
X0209023Y0106924D01*
X0209081Y0106897D01*
X0209140Y0106874D01*
X0209200Y0106855D01*
X0209262Y0106840D01*
X0209324Y0106828D01*
X0209387Y0106820D01*
X0209450Y0106816D01*
X0209514Y0106816D01*
X0209577Y0106820D01*
X0209640Y0106828D01*
X0209702Y0106840D01*
X0209764Y0106855D01*
X0209824Y0106874D01*
X0209883Y0106897D01*
X0209941Y0106924D01*
X0209997Y0106954D01*
X0210050Y0106987D01*
X0210102Y0107024D01*
X0210151Y0107064D01*
X0210198Y0107106D01*
X0210242Y0107152D01*
X0210284Y0107200D01*
X0210322Y0107250D01*
X0210357Y0107303D01*
X0210389Y0107358D01*
X0210417Y0107415D01*
X0210442Y0107473D01*
X0210463Y0107533D01*
X0210480Y0107594D01*
X0210493Y0107656D01*
X0210503Y0107719D01*
X0210509Y0107782D01*
X0210511Y0107845D01*
X0206787Y0106816D02*
X0204728Y0106816D01*
X0206787Y0106816D02*
X0205037Y0108875D01*
X0205654Y0110521D02*
X0205722Y0110519D01*
X0205790Y0110513D01*
X0205857Y0110504D01*
X0205924Y0110490D01*
X0205990Y0110473D01*
X0206054Y0110452D01*
X0206118Y0110427D01*
X0206179Y0110399D01*
X0206240Y0110367D01*
X0206298Y0110332D01*
X0206354Y0110293D01*
X0206408Y0110252D01*
X0206459Y0110207D01*
X0206508Y0110160D01*
X0206554Y0110110D01*
X0206597Y0110057D01*
X0206637Y0110002D01*
X0206674Y0109945D01*
X0206707Y0109885D01*
X0206737Y0109824D01*
X0206763Y0109762D01*
X0206786Y0109698D01*
X0205037Y0108874D02*
X0204993Y0108919D01*
X0204953Y0108965D01*
X0204915Y0109015D01*
X0204880Y0109066D01*
X0204849Y0109119D01*
X0204821Y0109175D01*
X0204797Y0109232D01*
X0204776Y0109290D01*
X0204759Y0109350D01*
X0204745Y0109410D01*
X0204736Y0109471D01*
X0204730Y0109533D01*
X0204728Y0109595D01*
X0204730Y0109656D01*
X0204736Y0109716D01*
X0204746Y0109776D01*
X0204760Y0109835D01*
X0204777Y0109893D01*
X0204798Y0109949D01*
X0204823Y0110005D01*
X0204852Y0110058D01*
X0204884Y0110109D01*
X0204919Y0110159D01*
X0204958Y0110206D01*
X0204999Y0110250D01*
X0205043Y0110291D01*
X0205090Y0110330D01*
X0205140Y0110365D01*
X0205191Y0110397D01*
X0205244Y0110426D01*
X0205300Y0110451D01*
X0205356Y0110472D01*
X0205414Y0110489D01*
X0205473Y0110503D01*
X0205533Y0110513D01*
X0205593Y0110519D01*
X0205654Y0110521D01*
X0157409Y0135933D02*
X0157409Y0136739D01*
X0157407Y0136794D01*
X0157401Y0136849D01*
X0157392Y0136903D01*
X0157379Y0136956D01*
X0157362Y0137009D01*
X0157342Y0137060D01*
X0157319Y0137110D01*
X0157292Y0137158D01*
X0157261Y0137204D01*
X0157228Y0137248D01*
X0157192Y0137289D01*
X0157153Y0137328D01*
X0157112Y0137364D01*
X0157068Y0137397D01*
X0157022Y0137428D01*
X0156974Y0137455D01*
X0156924Y0137478D01*
X0156873Y0137498D01*
X0156820Y0137515D01*
X0156767Y0137528D01*
X0156713Y0137537D01*
X0156658Y0137543D01*
X0156603Y0137545D01*
X0156548Y0137543D01*
X0156493Y0137537D01*
X0156439Y0137528D01*
X0156386Y0137515D01*
X0156333Y0137498D01*
X0156282Y0137478D01*
X0156232Y0137455D01*
X0156184Y0137428D01*
X0156138Y0137397D01*
X0156094Y0137364D01*
X0156053Y0137328D01*
X0156014Y0137289D01*
X0155978Y0137248D01*
X0155945Y0137204D01*
X0155914Y0137158D01*
X0155887Y0137110D01*
X0155864Y0137060D01*
X0155844Y0137009D01*
X0155827Y0136956D01*
X0155814Y0136903D01*
X0155805Y0136849D01*
X0155799Y0136794D01*
X0155797Y0136739D01*
X0155798Y0136739D02*
X0155798Y0135933D01*
X0155798Y0136900D02*
X0154509Y0137545D01*
X0154509Y0138793D02*
X0154509Y0140404D01*
X0154091Y0140966D02*
X0151835Y0140322D01*
X0151835Y0141933D01*
X0152409Y0142318D02*
X0150153Y0141673D01*
X0150153Y0143284D01*
X0150798Y0142801D02*
X0149509Y0142801D01*
X0147409Y0142640D02*
X0147409Y0141673D01*
X0147409Y0142640D02*
X0147407Y0142689D01*
X0147401Y0142738D01*
X0147392Y0142787D01*
X0147379Y0142834D01*
X0147362Y0142881D01*
X0147342Y0142926D01*
X0147319Y0142969D01*
X0147292Y0143011D01*
X0147262Y0143050D01*
X0147229Y0143087D01*
X0147193Y0143121D01*
X0147155Y0143152D01*
X0147115Y0143181D01*
X0147073Y0143206D01*
X0147028Y0143228D01*
X0146983Y0143246D01*
X0146936Y0143261D01*
X0146888Y0143272D01*
X0146839Y0143280D01*
X0146790Y0143284D01*
X0146740Y0143284D01*
X0146691Y0143280D01*
X0146642Y0143272D01*
X0146594Y0143261D01*
X0146547Y0143246D01*
X0146502Y0143228D01*
X0146457Y0143206D01*
X0146415Y0143181D01*
X0146375Y0143152D01*
X0146337Y0143121D01*
X0146301Y0143087D01*
X0146268Y0143050D01*
X0146238Y0143011D01*
X0146211Y0142969D01*
X0146188Y0142926D01*
X0146168Y0142881D01*
X0146151Y0142834D01*
X0146138Y0142787D01*
X0146129Y0142738D01*
X0146123Y0142689D01*
X0146121Y0142640D01*
X0146120Y0142640D02*
X0146120Y0141996D01*
X0146121Y0142479D02*
X0146119Y0142534D01*
X0146113Y0142589D01*
X0146104Y0142643D01*
X0146091Y0142696D01*
X0146074Y0142749D01*
X0146054Y0142800D01*
X0146031Y0142850D01*
X0146004Y0142898D01*
X0145973Y0142944D01*
X0145940Y0142988D01*
X0145904Y0143029D01*
X0145865Y0143068D01*
X0145824Y0143104D01*
X0145780Y0143137D01*
X0145734Y0143168D01*
X0145686Y0143195D01*
X0145636Y0143218D01*
X0145585Y0143238D01*
X0145532Y0143255D01*
X0145479Y0143268D01*
X0145425Y0143277D01*
X0145370Y0143283D01*
X0145315Y0143285D01*
X0145260Y0143283D01*
X0145205Y0143277D01*
X0145151Y0143268D01*
X0145098Y0143255D01*
X0145045Y0143238D01*
X0144994Y0143218D01*
X0144944Y0143195D01*
X0144896Y0143168D01*
X0144850Y0143137D01*
X0144806Y0143104D01*
X0144765Y0143068D01*
X0144726Y0143029D01*
X0144690Y0142988D01*
X0144657Y0142944D01*
X0144626Y0142898D01*
X0144599Y0142850D01*
X0144576Y0142800D01*
X0144556Y0142749D01*
X0144539Y0142696D01*
X0144526Y0142643D01*
X0144517Y0142589D01*
X0144511Y0142534D01*
X0144509Y0142479D01*
X0144509Y0141673D01*
X0144509Y0140404D02*
X0144509Y0138793D01*
X0144509Y0139599D02*
X0147409Y0139599D01*
X0146765Y0138793D01*
X0147409Y0136739D02*
X0147407Y0136794D01*
X0147401Y0136849D01*
X0147392Y0136903D01*
X0147379Y0136956D01*
X0147362Y0137009D01*
X0147342Y0137060D01*
X0147319Y0137110D01*
X0147292Y0137158D01*
X0147261Y0137204D01*
X0147228Y0137248D01*
X0147192Y0137289D01*
X0147153Y0137328D01*
X0147112Y0137364D01*
X0147068Y0137397D01*
X0147022Y0137428D01*
X0146974Y0137455D01*
X0146924Y0137478D01*
X0146873Y0137498D01*
X0146820Y0137515D01*
X0146767Y0137528D01*
X0146713Y0137537D01*
X0146658Y0137543D01*
X0146603Y0137545D01*
X0146548Y0137543D01*
X0146493Y0137537D01*
X0146439Y0137528D01*
X0146386Y0137515D01*
X0146333Y0137498D01*
X0146282Y0137478D01*
X0146232Y0137455D01*
X0146184Y0137428D01*
X0146138Y0137397D01*
X0146094Y0137364D01*
X0146053Y0137328D01*
X0146014Y0137289D01*
X0145978Y0137248D01*
X0145945Y0137204D01*
X0145914Y0137158D01*
X0145887Y0137110D01*
X0145864Y0137060D01*
X0145844Y0137009D01*
X0145827Y0136956D01*
X0145814Y0136903D01*
X0145805Y0136849D01*
X0145799Y0136794D01*
X0145797Y0136739D01*
X0145798Y0136739D02*
X0145798Y0135933D01*
X0145798Y0136900D02*
X0144509Y0137545D01*
X0144509Y0135933D02*
X0147409Y0135933D01*
X0147409Y0136739D01*
X0149509Y0135933D02*
X0152409Y0135933D01*
X0152409Y0136739D01*
X0152407Y0136794D01*
X0152401Y0136849D01*
X0152392Y0136903D01*
X0152379Y0136956D01*
X0152362Y0137009D01*
X0152342Y0137060D01*
X0152319Y0137110D01*
X0152292Y0137158D01*
X0152261Y0137204D01*
X0152228Y0137248D01*
X0152192Y0137289D01*
X0152153Y0137328D01*
X0152112Y0137364D01*
X0152068Y0137397D01*
X0152022Y0137428D01*
X0151974Y0137455D01*
X0151924Y0137478D01*
X0151873Y0137498D01*
X0151820Y0137515D01*
X0151767Y0137528D01*
X0151713Y0137537D01*
X0151658Y0137543D01*
X0151603Y0137545D01*
X0151548Y0137543D01*
X0151493Y0137537D01*
X0151439Y0137528D01*
X0151386Y0137515D01*
X0151333Y0137498D01*
X0151282Y0137478D01*
X0151232Y0137455D01*
X0151184Y0137428D01*
X0151138Y0137397D01*
X0151094Y0137364D01*
X0151053Y0137328D01*
X0151014Y0137289D01*
X0150978Y0137248D01*
X0150945Y0137204D01*
X0150914Y0137158D01*
X0150887Y0137110D01*
X0150864Y0137060D01*
X0150844Y0137009D01*
X0150827Y0136956D01*
X0150814Y0136903D01*
X0150805Y0136849D01*
X0150799Y0136794D01*
X0150797Y0136739D01*
X0150798Y0136739D02*
X0150798Y0135933D01*
X0151191Y0136193D02*
X0152480Y0135548D01*
X0152480Y0135387D02*
X0152480Y0134582D01*
X0152479Y0135387D02*
X0152481Y0135442D01*
X0152487Y0135497D01*
X0152496Y0135551D01*
X0152509Y0135604D01*
X0152526Y0135657D01*
X0152546Y0135708D01*
X0152569Y0135758D01*
X0152596Y0135806D01*
X0152627Y0135852D01*
X0152660Y0135896D01*
X0152696Y0135937D01*
X0152735Y0135976D01*
X0152776Y0136012D01*
X0152820Y0136045D01*
X0152866Y0136076D01*
X0152914Y0136103D01*
X0152964Y0136126D01*
X0153015Y0136146D01*
X0153068Y0136163D01*
X0153121Y0136176D01*
X0153175Y0136185D01*
X0153230Y0136191D01*
X0153285Y0136193D01*
X0153340Y0136191D01*
X0153395Y0136185D01*
X0153449Y0136176D01*
X0153502Y0136163D01*
X0153555Y0136146D01*
X0153606Y0136126D01*
X0153656Y0136103D01*
X0153704Y0136076D01*
X0153750Y0136045D01*
X0153794Y0136012D01*
X0153835Y0135976D01*
X0153874Y0135937D01*
X0153910Y0135896D01*
X0153943Y0135852D01*
X0153974Y0135806D01*
X0154001Y0135758D01*
X0154024Y0135708D01*
X0154044Y0135657D01*
X0154061Y0135604D01*
X0154074Y0135551D01*
X0154083Y0135497D01*
X0154089Y0135442D01*
X0154091Y0135387D01*
X0154091Y0134582D01*
X0151191Y0134582D01*
X0150798Y0136900D02*
X0149509Y0137545D01*
X0149509Y0138793D02*
X0149509Y0140404D01*
X0149509Y0139599D02*
X0152409Y0139599D01*
X0151765Y0138793D01*
X0151191Y0139053D02*
X0151191Y0137442D01*
X0152802Y0138811D01*
X0154091Y0138328D02*
X0154089Y0138269D01*
X0154084Y0138211D01*
X0154074Y0138153D01*
X0154062Y0138096D01*
X0154045Y0138040D01*
X0154026Y0137985D01*
X0154002Y0137931D01*
X0153976Y0137879D01*
X0153946Y0137829D01*
X0153913Y0137780D01*
X0153877Y0137734D01*
X0153838Y0137690D01*
X0153797Y0137649D01*
X0153753Y0137610D01*
X0153707Y0137574D01*
X0153658Y0137542D01*
X0153608Y0137512D01*
X0153556Y0137485D01*
X0153502Y0137462D01*
X0153447Y0137442D01*
X0152802Y0138811D02*
X0152839Y0138848D01*
X0152879Y0138882D01*
X0152921Y0138914D01*
X0152966Y0138942D01*
X0153012Y0138968D01*
X0153059Y0138990D01*
X0153108Y0139009D01*
X0153158Y0139025D01*
X0153209Y0139037D01*
X0153261Y0139046D01*
X0153313Y0139051D01*
X0153366Y0139053D01*
X0153418Y0139051D01*
X0153469Y0139046D01*
X0153520Y0139036D01*
X0153570Y0139024D01*
X0153619Y0139007D01*
X0153667Y0138987D01*
X0153713Y0138964D01*
X0153758Y0138938D01*
X0153800Y0138908D01*
X0153841Y0138876D01*
X0153879Y0138841D01*
X0153914Y0138803D01*
X0153946Y0138762D01*
X0153976Y0138720D01*
X0154002Y0138675D01*
X0154025Y0138629D01*
X0154045Y0138581D01*
X0154062Y0138532D01*
X0154074Y0138482D01*
X0154084Y0138431D01*
X0154089Y0138380D01*
X0154091Y0138328D01*
X0154509Y0138793D02*
X0156120Y0140163D01*
X0157409Y0139679D02*
X0157407Y0139620D01*
X0157402Y0139562D01*
X0157392Y0139504D01*
X0157380Y0139447D01*
X0157363Y0139391D01*
X0157344Y0139336D01*
X0157320Y0139282D01*
X0157294Y0139230D01*
X0157264Y0139180D01*
X0157231Y0139131D01*
X0157195Y0139085D01*
X0157156Y0139041D01*
X0157115Y0139000D01*
X0157071Y0138961D01*
X0157025Y0138925D01*
X0156976Y0138893D01*
X0156926Y0138863D01*
X0156874Y0138836D01*
X0156820Y0138813D01*
X0156765Y0138793D01*
X0156120Y0140163D02*
X0156157Y0140200D01*
X0156197Y0140234D01*
X0156239Y0140266D01*
X0156284Y0140294D01*
X0156330Y0140320D01*
X0156377Y0140342D01*
X0156426Y0140361D01*
X0156476Y0140377D01*
X0156527Y0140389D01*
X0156579Y0140398D01*
X0156631Y0140403D01*
X0156684Y0140405D01*
X0156684Y0140404D02*
X0156736Y0140402D01*
X0156787Y0140397D01*
X0156838Y0140387D01*
X0156888Y0140375D01*
X0156937Y0140358D01*
X0156985Y0140338D01*
X0157031Y0140315D01*
X0157076Y0140289D01*
X0157118Y0140259D01*
X0157159Y0140227D01*
X0157197Y0140192D01*
X0157232Y0140154D01*
X0157264Y0140113D01*
X0157294Y0140071D01*
X0157320Y0140026D01*
X0157343Y0139980D01*
X0157363Y0139932D01*
X0157380Y0139883D01*
X0157392Y0139833D01*
X0157402Y0139782D01*
X0157407Y0139731D01*
X0157409Y0139679D01*
X0157409Y0141673D02*
X0157409Y0142640D01*
X0157407Y0142689D01*
X0157401Y0142738D01*
X0157392Y0142787D01*
X0157379Y0142834D01*
X0157362Y0142881D01*
X0157342Y0142926D01*
X0157319Y0142969D01*
X0157292Y0143011D01*
X0157262Y0143050D01*
X0157229Y0143087D01*
X0157193Y0143121D01*
X0157155Y0143152D01*
X0157115Y0143181D01*
X0157073Y0143206D01*
X0157028Y0143228D01*
X0156983Y0143246D01*
X0156936Y0143261D01*
X0156888Y0143272D01*
X0156839Y0143280D01*
X0156790Y0143284D01*
X0156740Y0143284D01*
X0156691Y0143280D01*
X0156642Y0143272D01*
X0156594Y0143261D01*
X0156547Y0143246D01*
X0156502Y0143228D01*
X0156457Y0143206D01*
X0156415Y0143181D01*
X0156375Y0143152D01*
X0156337Y0143121D01*
X0156301Y0143087D01*
X0156268Y0143050D01*
X0156238Y0143011D01*
X0156211Y0142969D01*
X0156188Y0142926D01*
X0156168Y0142881D01*
X0156151Y0142834D01*
X0156138Y0142787D01*
X0156129Y0142738D01*
X0156123Y0142689D01*
X0156121Y0142640D01*
X0156120Y0142640D02*
X0156120Y0141996D01*
X0156121Y0142479D02*
X0156119Y0142534D01*
X0156113Y0142589D01*
X0156104Y0142643D01*
X0156091Y0142696D01*
X0156074Y0142749D01*
X0156054Y0142800D01*
X0156031Y0142850D01*
X0156004Y0142898D01*
X0155973Y0142944D01*
X0155940Y0142988D01*
X0155904Y0143029D01*
X0155865Y0143068D01*
X0155824Y0143104D01*
X0155780Y0143137D01*
X0155734Y0143168D01*
X0155686Y0143195D01*
X0155636Y0143218D01*
X0155585Y0143238D01*
X0155532Y0143255D01*
X0155479Y0143268D01*
X0155425Y0143277D01*
X0155370Y0143283D01*
X0155315Y0143285D01*
X0155260Y0143283D01*
X0155205Y0143277D01*
X0155151Y0143268D01*
X0155098Y0143255D01*
X0155045Y0143238D01*
X0154994Y0143218D01*
X0154944Y0143195D01*
X0154896Y0143168D01*
X0154850Y0143137D01*
X0154806Y0143104D01*
X0154765Y0143068D01*
X0154726Y0143029D01*
X0154690Y0142988D01*
X0154657Y0142944D01*
X0154626Y0142898D01*
X0154599Y0142850D01*
X0154576Y0142800D01*
X0154556Y0142749D01*
X0154539Y0142696D01*
X0154526Y0142643D01*
X0154517Y0142589D01*
X0154511Y0142534D01*
X0154509Y0142479D01*
X0154509Y0141673D01*
X0152480Y0141449D02*
X0151191Y0141449D01*
X0154509Y0135933D02*
X0157409Y0135933D01*
X0137409Y0135933D02*
X0137409Y0136739D01*
X0137407Y0136794D01*
X0137401Y0136849D01*
X0137392Y0136903D01*
X0137379Y0136956D01*
X0137362Y0137009D01*
X0137342Y0137060D01*
X0137319Y0137110D01*
X0137292Y0137158D01*
X0137261Y0137204D01*
X0137228Y0137248D01*
X0137192Y0137289D01*
X0137153Y0137328D01*
X0137112Y0137364D01*
X0137068Y0137397D01*
X0137022Y0137428D01*
X0136974Y0137455D01*
X0136924Y0137478D01*
X0136873Y0137498D01*
X0136820Y0137515D01*
X0136767Y0137528D01*
X0136713Y0137537D01*
X0136658Y0137543D01*
X0136603Y0137545D01*
X0136548Y0137543D01*
X0136493Y0137537D01*
X0136439Y0137528D01*
X0136386Y0137515D01*
X0136333Y0137498D01*
X0136282Y0137478D01*
X0136232Y0137455D01*
X0136184Y0137428D01*
X0136138Y0137397D01*
X0136094Y0137364D01*
X0136053Y0137328D01*
X0136014Y0137289D01*
X0135978Y0137248D01*
X0135945Y0137204D01*
X0135914Y0137158D01*
X0135887Y0137110D01*
X0135864Y0137060D01*
X0135844Y0137009D01*
X0135827Y0136956D01*
X0135814Y0136903D01*
X0135805Y0136849D01*
X0135799Y0136794D01*
X0135797Y0136739D01*
X0135798Y0136739D02*
X0135798Y0135933D01*
X0135798Y0136900D02*
X0134509Y0137545D01*
X0134509Y0138793D02*
X0134509Y0140404D01*
X0134509Y0139599D02*
X0137409Y0139599D01*
X0136765Y0138793D01*
X0136603Y0141673D02*
X0136442Y0141673D01*
X0136442Y0141674D02*
X0136394Y0141676D01*
X0136346Y0141681D01*
X0136299Y0141690D01*
X0136252Y0141703D01*
X0136207Y0141719D01*
X0136163Y0141738D01*
X0136120Y0141760D01*
X0136079Y0141786D01*
X0136040Y0141814D01*
X0136004Y0141846D01*
X0135970Y0141880D01*
X0135939Y0141916D01*
X0135910Y0141955D01*
X0135884Y0141996D01*
X0135862Y0142039D01*
X0135843Y0142083D01*
X0135827Y0142128D01*
X0135814Y0142175D01*
X0135805Y0142222D01*
X0135800Y0142270D01*
X0135798Y0142318D01*
X0135798Y0143284D01*
X0136603Y0143284D01*
X0136603Y0143285D02*
X0136658Y0143283D01*
X0136713Y0143277D01*
X0136767Y0143268D01*
X0136820Y0143255D01*
X0136873Y0143238D01*
X0136924Y0143218D01*
X0136974Y0143195D01*
X0137022Y0143168D01*
X0137068Y0143137D01*
X0137112Y0143104D01*
X0137153Y0143068D01*
X0137192Y0143029D01*
X0137228Y0142988D01*
X0137261Y0142944D01*
X0137292Y0142898D01*
X0137319Y0142850D01*
X0137342Y0142800D01*
X0137362Y0142749D01*
X0137379Y0142696D01*
X0137392Y0142643D01*
X0137401Y0142589D01*
X0137407Y0142534D01*
X0137409Y0142479D01*
X0137407Y0142424D01*
X0137401Y0142369D01*
X0137392Y0142315D01*
X0137379Y0142262D01*
X0137362Y0142209D01*
X0137342Y0142158D01*
X0137319Y0142108D01*
X0137292Y0142060D01*
X0137261Y0142014D01*
X0137228Y0141970D01*
X0137192Y0141929D01*
X0137153Y0141890D01*
X0137112Y0141854D01*
X0137068Y0141821D01*
X0137022Y0141790D01*
X0136974Y0141763D01*
X0136924Y0141740D01*
X0136873Y0141720D01*
X0136820Y0141703D01*
X0136767Y0141690D01*
X0136713Y0141681D01*
X0136658Y0141675D01*
X0136603Y0141673D01*
X0135798Y0143285D02*
X0135728Y0143283D01*
X0135659Y0143277D01*
X0135589Y0143268D01*
X0135521Y0143255D01*
X0135453Y0143238D01*
X0135386Y0143218D01*
X0135321Y0143193D01*
X0135257Y0143166D01*
X0135194Y0143135D01*
X0135133Y0143100D01*
X0135075Y0143063D01*
X0135018Y0143022D01*
X0134964Y0142978D01*
X0134912Y0142932D01*
X0134862Y0142882D01*
X0134816Y0142830D01*
X0134772Y0142776D01*
X0134731Y0142719D01*
X0134694Y0142661D01*
X0134659Y0142600D01*
X0134628Y0142537D01*
X0134601Y0142473D01*
X0134576Y0142408D01*
X0134556Y0142341D01*
X0134539Y0142273D01*
X0134526Y0142205D01*
X0134517Y0142135D01*
X0134511Y0142066D01*
X0134509Y0141996D01*
X0134509Y0135933D02*
X0137409Y0135933D01*
X0127409Y0135933D02*
X0127409Y0136739D01*
X0127407Y0136794D01*
X0127401Y0136849D01*
X0127392Y0136903D01*
X0127379Y0136956D01*
X0127362Y0137009D01*
X0127342Y0137060D01*
X0127319Y0137110D01*
X0127292Y0137158D01*
X0127261Y0137204D01*
X0127228Y0137248D01*
X0127192Y0137289D01*
X0127153Y0137328D01*
X0127112Y0137364D01*
X0127068Y0137397D01*
X0127022Y0137428D01*
X0126974Y0137455D01*
X0126924Y0137478D01*
X0126873Y0137498D01*
X0126820Y0137515D01*
X0126767Y0137528D01*
X0126713Y0137537D01*
X0126658Y0137543D01*
X0126603Y0137545D01*
X0126548Y0137543D01*
X0126493Y0137537D01*
X0126439Y0137528D01*
X0126386Y0137515D01*
X0126333Y0137498D01*
X0126282Y0137478D01*
X0126232Y0137455D01*
X0126184Y0137428D01*
X0126138Y0137397D01*
X0126094Y0137364D01*
X0126053Y0137328D01*
X0126014Y0137289D01*
X0125978Y0137248D01*
X0125945Y0137204D01*
X0125914Y0137158D01*
X0125887Y0137110D01*
X0125864Y0137060D01*
X0125844Y0137009D01*
X0125827Y0136956D01*
X0125814Y0136903D01*
X0125805Y0136849D01*
X0125799Y0136794D01*
X0125797Y0136739D01*
X0125798Y0136739D02*
X0125798Y0135933D01*
X0125798Y0136900D02*
X0124509Y0137545D01*
X0124509Y0138793D02*
X0124509Y0140404D01*
X0124091Y0141127D02*
X0124089Y0141173D01*
X0124084Y0141219D01*
X0124075Y0141264D01*
X0124063Y0141309D01*
X0124047Y0141352D01*
X0124028Y0141394D01*
X0124005Y0141435D01*
X0123980Y0141473D01*
X0123952Y0141510D01*
X0123921Y0141544D01*
X0123887Y0141576D01*
X0123851Y0141605D01*
X0123813Y0141631D01*
X0123773Y0141654D01*
X0123731Y0141674D01*
X0123688Y0141691D01*
X0123446Y0141772D02*
X0121835Y0140483D01*
X0121191Y0141127D02*
X0121193Y0141173D01*
X0121198Y0141219D01*
X0121207Y0141264D01*
X0121219Y0141309D01*
X0121235Y0141352D01*
X0121254Y0141394D01*
X0121277Y0141435D01*
X0121302Y0141473D01*
X0121330Y0141510D01*
X0121361Y0141544D01*
X0121395Y0141576D01*
X0121431Y0141605D01*
X0121469Y0141631D01*
X0121509Y0141654D01*
X0121551Y0141674D01*
X0121594Y0141691D01*
X0121191Y0141127D02*
X0121193Y0141081D01*
X0121198Y0141035D01*
X0121207Y0140990D01*
X0121219Y0140945D01*
X0121235Y0140902D01*
X0121254Y0140860D01*
X0121277Y0140819D01*
X0121302Y0140781D01*
X0121330Y0140744D01*
X0121361Y0140710D01*
X0121395Y0140678D01*
X0121431Y0140649D01*
X0121469Y0140623D01*
X0121509Y0140600D01*
X0121551Y0140580D01*
X0121594Y0140563D01*
X0122641Y0141933D02*
X0122731Y0141931D01*
X0122822Y0141926D01*
X0122911Y0141918D01*
X0123001Y0141906D01*
X0123090Y0141890D01*
X0123178Y0141872D01*
X0123266Y0141850D01*
X0123353Y0141825D01*
X0123438Y0141796D01*
X0123523Y0141764D01*
X0123606Y0141729D01*
X0123688Y0141691D01*
X0124091Y0141127D02*
X0124089Y0141081D01*
X0124084Y0141035D01*
X0124075Y0140990D01*
X0124063Y0140945D01*
X0124047Y0140902D01*
X0124028Y0140860D01*
X0124005Y0140819D01*
X0123980Y0140781D01*
X0123952Y0140744D01*
X0123921Y0140710D01*
X0123887Y0140678D01*
X0123851Y0140649D01*
X0123813Y0140623D01*
X0123773Y0140600D01*
X0123731Y0140580D01*
X0123688Y0140563D01*
X0124509Y0141673D02*
X0124509Y0143284D01*
X0124509Y0141673D02*
X0126120Y0143043D01*
X0127409Y0142559D02*
X0127407Y0142500D01*
X0127402Y0142442D01*
X0127392Y0142384D01*
X0127380Y0142327D01*
X0127363Y0142271D01*
X0127344Y0142216D01*
X0127320Y0142162D01*
X0127294Y0142110D01*
X0127264Y0142060D01*
X0127231Y0142011D01*
X0127195Y0141965D01*
X0127156Y0141921D01*
X0127115Y0141880D01*
X0127071Y0141841D01*
X0127025Y0141805D01*
X0126976Y0141773D01*
X0126926Y0141743D01*
X0126874Y0141716D01*
X0126820Y0141693D01*
X0126765Y0141673D01*
X0126120Y0143043D02*
X0126157Y0143080D01*
X0126197Y0143114D01*
X0126239Y0143146D01*
X0126284Y0143174D01*
X0126330Y0143200D01*
X0126377Y0143222D01*
X0126426Y0143241D01*
X0126476Y0143257D01*
X0126527Y0143269D01*
X0126579Y0143278D01*
X0126631Y0143283D01*
X0126684Y0143285D01*
X0126684Y0143284D02*
X0126736Y0143282D01*
X0126787Y0143277D01*
X0126838Y0143267D01*
X0126888Y0143255D01*
X0126937Y0143238D01*
X0126985Y0143218D01*
X0127031Y0143195D01*
X0127076Y0143169D01*
X0127118Y0143139D01*
X0127159Y0143107D01*
X0127197Y0143072D01*
X0127232Y0143034D01*
X0127264Y0142993D01*
X0127294Y0142951D01*
X0127320Y0142906D01*
X0127343Y0142860D01*
X0127363Y0142812D01*
X0127380Y0142763D01*
X0127392Y0142713D01*
X0127402Y0142662D01*
X0127407Y0142611D01*
X0127409Y0142559D01*
X0126120Y0140163D02*
X0124509Y0138793D01*
X0124091Y0138328D02*
X0124089Y0138380D01*
X0124084Y0138431D01*
X0124074Y0138482D01*
X0124062Y0138532D01*
X0124045Y0138581D01*
X0124025Y0138629D01*
X0124002Y0138675D01*
X0123976Y0138720D01*
X0123946Y0138762D01*
X0123914Y0138803D01*
X0123879Y0138841D01*
X0123841Y0138876D01*
X0123800Y0138908D01*
X0123758Y0138938D01*
X0123713Y0138964D01*
X0123667Y0138987D01*
X0123619Y0139007D01*
X0123570Y0139024D01*
X0123520Y0139036D01*
X0123469Y0139046D01*
X0123418Y0139051D01*
X0123366Y0139053D01*
X0122802Y0138811D02*
X0121191Y0137442D01*
X0121191Y0139053D01*
X0121594Y0141691D02*
X0121676Y0141729D01*
X0121759Y0141764D01*
X0121844Y0141796D01*
X0121929Y0141825D01*
X0122016Y0141850D01*
X0122104Y0141872D01*
X0122192Y0141890D01*
X0122281Y0141906D01*
X0122371Y0141918D01*
X0122460Y0141926D01*
X0122551Y0141931D01*
X0122641Y0141933D01*
X0122641Y0140321D02*
X0122731Y0140323D01*
X0122822Y0140328D01*
X0122911Y0140336D01*
X0123001Y0140348D01*
X0123090Y0140364D01*
X0123178Y0140382D01*
X0123266Y0140404D01*
X0123353Y0140429D01*
X0123438Y0140458D01*
X0123523Y0140490D01*
X0123606Y0140525D01*
X0123688Y0140563D01*
X0124091Y0138328D02*
X0124089Y0138269D01*
X0124084Y0138211D01*
X0124074Y0138153D01*
X0124062Y0138096D01*
X0124045Y0138040D01*
X0124026Y0137985D01*
X0124002Y0137931D01*
X0123976Y0137879D01*
X0123946Y0137829D01*
X0123913Y0137780D01*
X0123877Y0137734D01*
X0123838Y0137690D01*
X0123797Y0137649D01*
X0123753Y0137610D01*
X0123707Y0137574D01*
X0123658Y0137542D01*
X0123608Y0137512D01*
X0123556Y0137485D01*
X0123502Y0137462D01*
X0123447Y0137442D01*
X0122802Y0138811D02*
X0122839Y0138848D01*
X0122879Y0138882D01*
X0122921Y0138914D01*
X0122966Y0138942D01*
X0123012Y0138968D01*
X0123059Y0138990D01*
X0123108Y0139009D01*
X0123158Y0139025D01*
X0123209Y0139037D01*
X0123261Y0139046D01*
X0123313Y0139051D01*
X0123366Y0139053D01*
X0126765Y0138793D02*
X0126820Y0138813D01*
X0126874Y0138836D01*
X0126926Y0138863D01*
X0126976Y0138893D01*
X0127025Y0138925D01*
X0127071Y0138961D01*
X0127115Y0139000D01*
X0127156Y0139041D01*
X0127195Y0139085D01*
X0127231Y0139131D01*
X0127264Y0139180D01*
X0127294Y0139230D01*
X0127320Y0139282D01*
X0127344Y0139336D01*
X0127363Y0139391D01*
X0127380Y0139447D01*
X0127392Y0139504D01*
X0127402Y0139562D01*
X0127407Y0139620D01*
X0127409Y0139679D01*
X0127407Y0139731D01*
X0127402Y0139782D01*
X0127392Y0139833D01*
X0127380Y0139883D01*
X0127363Y0139932D01*
X0127343Y0139980D01*
X0127320Y0140026D01*
X0127294Y0140071D01*
X0127264Y0140113D01*
X0127232Y0140154D01*
X0127197Y0140192D01*
X0127159Y0140227D01*
X0127118Y0140259D01*
X0127076Y0140289D01*
X0127031Y0140315D01*
X0126985Y0140338D01*
X0126937Y0140358D01*
X0126888Y0140375D01*
X0126838Y0140387D01*
X0126787Y0140397D01*
X0126736Y0140402D01*
X0126684Y0140404D01*
X0126684Y0140405D02*
X0126631Y0140403D01*
X0126579Y0140398D01*
X0126527Y0140389D01*
X0126476Y0140377D01*
X0126426Y0140361D01*
X0126377Y0140342D01*
X0126330Y0140320D01*
X0126284Y0140294D01*
X0126239Y0140266D01*
X0126197Y0140234D01*
X0126157Y0140200D01*
X0126120Y0140163D01*
X0122641Y0140322D02*
X0122551Y0140324D01*
X0122460Y0140329D01*
X0122371Y0140337D01*
X0122281Y0140349D01*
X0122192Y0140365D01*
X0122104Y0140383D01*
X0122016Y0140405D01*
X0121929Y0140430D01*
X0121844Y0140459D01*
X0121759Y0140491D01*
X0121676Y0140526D01*
X0121594Y0140564D01*
X0121191Y0136193D02*
X0122480Y0135548D01*
X0122480Y0135387D02*
X0122480Y0134582D01*
X0122479Y0135387D02*
X0122481Y0135442D01*
X0122487Y0135497D01*
X0122496Y0135551D01*
X0122509Y0135604D01*
X0122526Y0135657D01*
X0122546Y0135708D01*
X0122569Y0135758D01*
X0122596Y0135806D01*
X0122627Y0135852D01*
X0122660Y0135896D01*
X0122696Y0135937D01*
X0122735Y0135976D01*
X0122776Y0136012D01*
X0122820Y0136045D01*
X0122866Y0136076D01*
X0122914Y0136103D01*
X0122964Y0136126D01*
X0123015Y0136146D01*
X0123068Y0136163D01*
X0123121Y0136176D01*
X0123175Y0136185D01*
X0123230Y0136191D01*
X0123285Y0136193D01*
X0123340Y0136191D01*
X0123395Y0136185D01*
X0123449Y0136176D01*
X0123502Y0136163D01*
X0123555Y0136146D01*
X0123606Y0136126D01*
X0123656Y0136103D01*
X0123704Y0136076D01*
X0123750Y0136045D01*
X0123794Y0136012D01*
X0123835Y0135976D01*
X0123874Y0135937D01*
X0123910Y0135896D01*
X0123943Y0135852D01*
X0123974Y0135806D01*
X0124001Y0135758D01*
X0124024Y0135708D01*
X0124044Y0135657D01*
X0124061Y0135604D01*
X0124074Y0135551D01*
X0124083Y0135497D01*
X0124089Y0135442D01*
X0124091Y0135387D01*
X0124091Y0134582D01*
X0121191Y0134582D01*
X0124509Y0135933D02*
X0127409Y0135933D01*
D15*
X0105265Y0127083D02*
X0159989Y0127083D01*
X0159989Y0064091D01*
X0105265Y0064091D01*
X0105265Y0127083D01*
X0113926Y0062909D02*
X0113926Y0058972D01*
X0113925Y0058972D02*
X0113927Y0059058D01*
X0113932Y0059144D01*
X0113942Y0059229D01*
X0113955Y0059314D01*
X0113972Y0059398D01*
X0113992Y0059482D01*
X0114016Y0059564D01*
X0114044Y0059645D01*
X0114075Y0059726D01*
X0114109Y0059804D01*
X0114147Y0059881D01*
X0114189Y0059957D01*
X0114233Y0060030D01*
X0114281Y0060101D01*
X0114332Y0060171D01*
X0114386Y0060238D01*
X0114442Y0060302D01*
X0114502Y0060364D01*
X0114564Y0060424D01*
X0114628Y0060480D01*
X0114695Y0060534D01*
X0114765Y0060585D01*
X0114836Y0060633D01*
X0114910Y0060677D01*
X0114985Y0060719D01*
X0115062Y0060757D01*
X0115140Y0060791D01*
X0115221Y0060822D01*
X0115302Y0060850D01*
X0115384Y0060874D01*
X0115468Y0060894D01*
X0115552Y0060911D01*
X0115637Y0060924D01*
X0115722Y0060934D01*
X0115808Y0060939D01*
X0115894Y0060941D01*
X0135580Y0062909D01*
X0155265Y0060941D01*
X0155351Y0060939D01*
X0155437Y0060934D01*
X0155522Y0060924D01*
X0155607Y0060911D01*
X0155691Y0060894D01*
X0155775Y0060874D01*
X0155857Y0060850D01*
X0155938Y0060822D01*
X0156019Y0060791D01*
X0156097Y0060757D01*
X0156174Y0060719D01*
X0156250Y0060677D01*
X0156323Y0060633D01*
X0156394Y0060585D01*
X0156464Y0060534D01*
X0156531Y0060480D01*
X0156595Y0060424D01*
X0156657Y0060364D01*
X0156717Y0060302D01*
X0156773Y0060238D01*
X0156827Y0060171D01*
X0156878Y0060101D01*
X0156926Y0060030D01*
X0156970Y0059957D01*
X0157012Y0059881D01*
X0157050Y0059804D01*
X0157084Y0059726D01*
X0157115Y0059645D01*
X0157143Y0059564D01*
X0157167Y0059482D01*
X0157187Y0059398D01*
X0157204Y0059314D01*
X0157217Y0059229D01*
X0157227Y0059144D01*
X0157232Y0059058D01*
X0157234Y0058972D01*
X0157233Y0058972D02*
X0157233Y0062909D01*
X0157234Y0058972D02*
X0157232Y0058886D01*
X0157227Y0058800D01*
X0157217Y0058715D01*
X0157204Y0058630D01*
X0157187Y0058546D01*
X0157167Y0058462D01*
X0157143Y0058380D01*
X0157115Y0058299D01*
X0157084Y0058218D01*
X0157050Y0058140D01*
X0157012Y0058063D01*
X0156970Y0057988D01*
X0156926Y0057914D01*
X0156878Y0057843D01*
X0156827Y0057773D01*
X0156773Y0057706D01*
X0156717Y0057642D01*
X0156657Y0057580D01*
X0156595Y0057520D01*
X0156531Y0057464D01*
X0156464Y0057410D01*
X0156394Y0057359D01*
X0156323Y0057311D01*
X0156250Y0057267D01*
X0156174Y0057225D01*
X0156097Y0057187D01*
X0156019Y0057153D01*
X0155938Y0057122D01*
X0155857Y0057094D01*
X0155775Y0057070D01*
X0155691Y0057050D01*
X0155607Y0057033D01*
X0155522Y0057020D01*
X0155437Y0057010D01*
X0155351Y0057005D01*
X0155265Y0057003D01*
X0155265Y0057004D02*
X0115894Y0057004D01*
X0115894Y0057003D02*
X0115808Y0057005D01*
X0115722Y0057010D01*
X0115637Y0057020D01*
X0115552Y0057033D01*
X0115468Y0057050D01*
X0115384Y0057070D01*
X0115302Y0057094D01*
X0115221Y0057122D01*
X0115140Y0057153D01*
X0115062Y0057187D01*
X0114985Y0057225D01*
X0114910Y0057267D01*
X0114836Y0057311D01*
X0114765Y0057359D01*
X0114695Y0057410D01*
X0114628Y0057464D01*
X0114564Y0057520D01*
X0114502Y0057580D01*
X0114442Y0057642D01*
X0114386Y0057706D01*
X0114332Y0057773D01*
X0114281Y0057843D01*
X0114233Y0057914D01*
X0114189Y0057988D01*
X0114147Y0058063D01*
X0114109Y0058140D01*
X0114075Y0058218D01*
X0114044Y0058299D01*
X0114016Y0058380D01*
X0113992Y0058462D01*
X0113972Y0058546D01*
X0113955Y0058630D01*
X0113942Y0058715D01*
X0113932Y0058800D01*
X0113927Y0058886D01*
X0113925Y0058972D01*
X0203532Y0118598D02*
X0203532Y0142614D01*
X0230068Y0142614D01*
X0230068Y0118598D01*
X0229091Y0118598D01*
X0204509Y0118598D02*
X0203532Y0118598D01*
D16*
X0151715Y0096031D02*
X0151715Y0093231D01*
X0150315Y0093231D02*
X0150315Y0096031D01*
X0149615Y0096031D02*
X0151715Y0096031D01*
X0149615Y0096031D02*
X0149565Y0096029D01*
X0149515Y0096024D01*
X0149466Y0096015D01*
X0149418Y0096003D01*
X0149370Y0095987D01*
X0149324Y0095968D01*
X0149280Y0095945D01*
X0149237Y0095920D01*
X0149196Y0095891D01*
X0149157Y0095860D01*
X0149120Y0095826D01*
X0149086Y0095789D01*
X0149055Y0095750D01*
X0149026Y0095709D01*
X0149001Y0095666D01*
X0148978Y0095622D01*
X0148959Y0095576D01*
X0148943Y0095528D01*
X0148931Y0095480D01*
X0148922Y0095431D01*
X0148917Y0095381D01*
X0148915Y0095331D01*
X0148915Y0093231D01*
X0146715Y0093231D02*
X0146715Y0096031D01*
X0146598Y0097197D02*
X0146832Y0097197D01*
X0146832Y0097431D01*
X0146598Y0097431D01*
X0146598Y0097197D01*
X0144790Y0095331D02*
X0144790Y0093931D01*
X0144788Y0093881D01*
X0144783Y0093831D01*
X0144774Y0093782D01*
X0144762Y0093734D01*
X0144746Y0093686D01*
X0144727Y0093640D01*
X0144704Y0093596D01*
X0144679Y0093553D01*
X0144650Y0093512D01*
X0144619Y0093473D01*
X0144585Y0093436D01*
X0144548Y0093402D01*
X0144509Y0093371D01*
X0144468Y0093342D01*
X0144425Y0093317D01*
X0144381Y0093294D01*
X0144335Y0093275D01*
X0144287Y0093259D01*
X0144239Y0093247D01*
X0144190Y0093238D01*
X0144140Y0093233D01*
X0144090Y0093231D01*
X0143157Y0093231D01*
X0141159Y0093231D02*
X0141159Y0096031D01*
X0139759Y0096031D01*
X0139759Y0095564D01*
X0138198Y0095097D02*
X0138198Y0094164D01*
X0138196Y0094104D01*
X0138190Y0094045D01*
X0138181Y0093986D01*
X0138167Y0093927D01*
X0138150Y0093870D01*
X0138130Y0093814D01*
X0138106Y0093759D01*
X0138078Y0093706D01*
X0138047Y0093655D01*
X0138013Y0093606D01*
X0137975Y0093559D01*
X0137935Y0093515D01*
X0137892Y0093473D01*
X0137847Y0093435D01*
X0137799Y0093399D01*
X0137749Y0093366D01*
X0137697Y0093337D01*
X0137643Y0093311D01*
X0137587Y0093288D01*
X0137530Y0093270D01*
X0137473Y0093254D01*
X0137414Y0093243D01*
X0137355Y0093235D01*
X0137295Y0093231D01*
X0137235Y0093231D01*
X0137175Y0093235D01*
X0137116Y0093243D01*
X0137057Y0093254D01*
X0137000Y0093270D01*
X0136943Y0093288D01*
X0136887Y0093311D01*
X0136833Y0093337D01*
X0136781Y0093366D01*
X0136731Y0093399D01*
X0136683Y0093435D01*
X0136638Y0093473D01*
X0136595Y0093515D01*
X0136555Y0093559D01*
X0136517Y0093606D01*
X0136483Y0093655D01*
X0136452Y0093706D01*
X0136424Y0093759D01*
X0136400Y0093814D01*
X0136380Y0093870D01*
X0136363Y0093927D01*
X0136349Y0093986D01*
X0136340Y0094045D01*
X0136334Y0094104D01*
X0136332Y0094164D01*
X0136332Y0095097D01*
X0136334Y0095157D01*
X0136340Y0095216D01*
X0136349Y0095275D01*
X0136363Y0095334D01*
X0136380Y0095391D01*
X0136400Y0095447D01*
X0136424Y0095502D01*
X0136452Y0095555D01*
X0136483Y0095606D01*
X0136517Y0095655D01*
X0136555Y0095702D01*
X0136595Y0095746D01*
X0136638Y0095788D01*
X0136683Y0095826D01*
X0136731Y0095862D01*
X0136781Y0095895D01*
X0136833Y0095924D01*
X0136887Y0095950D01*
X0136943Y0095973D01*
X0137000Y0095991D01*
X0137057Y0096007D01*
X0137116Y0096018D01*
X0137175Y0096026D01*
X0137235Y0096030D01*
X0137295Y0096030D01*
X0137355Y0096026D01*
X0137414Y0096018D01*
X0137473Y0096007D01*
X0137530Y0095991D01*
X0137587Y0095973D01*
X0137643Y0095950D01*
X0137697Y0095924D01*
X0137749Y0095895D01*
X0137799Y0095862D01*
X0137847Y0095826D01*
X0137892Y0095788D01*
X0137935Y0095746D01*
X0137975Y0095702D01*
X0138013Y0095655D01*
X0138047Y0095606D01*
X0138078Y0095555D01*
X0138106Y0095502D01*
X0138130Y0095447D01*
X0138150Y0095391D01*
X0138167Y0095334D01*
X0138181Y0095275D01*
X0138190Y0095216D01*
X0138196Y0095157D01*
X0138198Y0095097D01*
X0133798Y0095681D02*
X0132515Y0094981D01*
X0132982Y0093230D02*
X0133068Y0093232D01*
X0133155Y0093238D01*
X0133241Y0093247D01*
X0133326Y0093260D01*
X0133411Y0093277D01*
X0133495Y0093298D01*
X0133578Y0093322D01*
X0133660Y0093350D01*
X0133740Y0093382D01*
X0133820Y0093417D01*
X0133897Y0093455D01*
X0133973Y0093497D01*
X0134047Y0093542D01*
X0134118Y0093590D01*
X0134188Y0093642D01*
X0134255Y0093696D01*
X0134320Y0093753D01*
X0134382Y0093813D01*
X0132515Y0094981D02*
X0132466Y0094950D01*
X0132419Y0094916D01*
X0132374Y0094879D01*
X0132331Y0094840D01*
X0132291Y0094798D01*
X0132254Y0094754D01*
X0132219Y0094708D01*
X0132188Y0094659D01*
X0132159Y0094609D01*
X0132133Y0094557D01*
X0132111Y0094504D01*
X0132092Y0094449D01*
X0132076Y0094393D01*
X0132064Y0094337D01*
X0132055Y0094280D01*
X0132050Y0094222D01*
X0132048Y0094164D01*
X0132049Y0094164D02*
X0132051Y0094105D01*
X0132056Y0094047D01*
X0132066Y0093989D01*
X0132078Y0093932D01*
X0132095Y0093876D01*
X0132115Y0093821D01*
X0132138Y0093767D01*
X0132164Y0093715D01*
X0132194Y0093664D01*
X0132227Y0093616D01*
X0132263Y0093569D01*
X0132302Y0093525D01*
X0132343Y0093484D01*
X0132387Y0093445D01*
X0132434Y0093409D01*
X0132482Y0093376D01*
X0132533Y0093346D01*
X0132585Y0093320D01*
X0132639Y0093297D01*
X0132694Y0093277D01*
X0132750Y0093260D01*
X0132807Y0093248D01*
X0132865Y0093238D01*
X0132923Y0093233D01*
X0132982Y0093231D01*
X0132282Y0097081D02*
X0132347Y0097128D01*
X0132415Y0097171D01*
X0132484Y0097212D01*
X0132556Y0097249D01*
X0132629Y0097283D01*
X0132703Y0097314D01*
X0132779Y0097341D01*
X0132855Y0097365D01*
X0132933Y0097385D01*
X0133012Y0097402D01*
X0133091Y0097414D01*
X0133171Y0097424D01*
X0133252Y0097429D01*
X0133332Y0097431D01*
X0133332Y0097430D02*
X0133391Y0097428D01*
X0133449Y0097423D01*
X0133507Y0097413D01*
X0133564Y0097401D01*
X0133620Y0097384D01*
X0133675Y0097364D01*
X0133729Y0097341D01*
X0133781Y0097315D01*
X0133832Y0097285D01*
X0133880Y0097252D01*
X0133927Y0097216D01*
X0133971Y0097177D01*
X0134012Y0097136D01*
X0134051Y0097092D01*
X0134087Y0097045D01*
X0134120Y0096997D01*
X0134150Y0096946D01*
X0134176Y0096894D01*
X0134199Y0096840D01*
X0134219Y0096785D01*
X0134236Y0096729D01*
X0134248Y0096672D01*
X0134258Y0096614D01*
X0134263Y0096556D01*
X0134265Y0096497D01*
X0134263Y0096439D01*
X0134258Y0096381D01*
X0134249Y0096324D01*
X0134237Y0096268D01*
X0134221Y0096212D01*
X0134202Y0096157D01*
X0134180Y0096104D01*
X0134154Y0096052D01*
X0134125Y0096002D01*
X0134094Y0095953D01*
X0134059Y0095907D01*
X0134022Y0095863D01*
X0133982Y0095821D01*
X0133939Y0095782D01*
X0133894Y0095745D01*
X0133847Y0095711D01*
X0133798Y0095680D01*
X0129882Y0097431D02*
X0129882Y0093231D01*
X0128715Y0093231D01*
X0128715Y0093230D02*
X0128650Y0093232D01*
X0128584Y0093237D01*
X0128520Y0093246D01*
X0128455Y0093259D01*
X0128392Y0093276D01*
X0128330Y0093295D01*
X0128268Y0093319D01*
X0128209Y0093346D01*
X0128151Y0093376D01*
X0128094Y0093409D01*
X0128040Y0093445D01*
X0127987Y0093485D01*
X0127937Y0093527D01*
X0127890Y0093572D01*
X0127845Y0093619D01*
X0127803Y0093669D01*
X0127763Y0093722D01*
X0127727Y0093776D01*
X0127694Y0093832D01*
X0127664Y0093891D01*
X0127637Y0093950D01*
X0127613Y0094012D01*
X0127594Y0094074D01*
X0127577Y0094137D01*
X0127564Y0094202D01*
X0127555Y0094266D01*
X0127550Y0094332D01*
X0127548Y0094397D01*
X0127548Y0096264D01*
X0127550Y0096332D01*
X0127556Y0096399D01*
X0127566Y0096467D01*
X0127579Y0096533D01*
X0127597Y0096599D01*
X0127618Y0096663D01*
X0127643Y0096726D01*
X0127672Y0096788D01*
X0127704Y0096848D01*
X0127740Y0096905D01*
X0127779Y0096961D01*
X0127821Y0097014D01*
X0127866Y0097065D01*
X0127914Y0097113D01*
X0127965Y0097158D01*
X0128018Y0097200D01*
X0128074Y0097239D01*
X0128132Y0097275D01*
X0128191Y0097307D01*
X0128253Y0097336D01*
X0128316Y0097361D01*
X0128380Y0097382D01*
X0128446Y0097400D01*
X0128512Y0097413D01*
X0128580Y0097423D01*
X0128647Y0097429D01*
X0128715Y0097431D01*
X0129882Y0097431D01*
X0125251Y0096497D02*
X0125251Y0094164D01*
X0125249Y0094105D01*
X0125244Y0094047D01*
X0125234Y0093989D01*
X0125222Y0093932D01*
X0125205Y0093876D01*
X0125185Y0093821D01*
X0125162Y0093767D01*
X0125136Y0093715D01*
X0125106Y0093664D01*
X0125073Y0093616D01*
X0125037Y0093569D01*
X0124998Y0093525D01*
X0124957Y0093484D01*
X0124913Y0093445D01*
X0124866Y0093409D01*
X0124818Y0093376D01*
X0124767Y0093346D01*
X0124715Y0093320D01*
X0124661Y0093297D01*
X0124606Y0093277D01*
X0124550Y0093260D01*
X0124493Y0093248D01*
X0124435Y0093238D01*
X0124377Y0093233D01*
X0124318Y0093231D01*
X0123385Y0093231D01*
X0121437Y0090519D02*
X0120504Y0090519D01*
X0121437Y0090519D02*
X0121487Y0090517D01*
X0121537Y0090512D01*
X0121586Y0090503D01*
X0121634Y0090491D01*
X0121682Y0090475D01*
X0121728Y0090456D01*
X0121772Y0090433D01*
X0121815Y0090408D01*
X0121856Y0090379D01*
X0121895Y0090348D01*
X0121932Y0090314D01*
X0121966Y0090277D01*
X0121997Y0090238D01*
X0122026Y0090197D01*
X0122051Y0090154D01*
X0122074Y0090110D01*
X0122093Y0090064D01*
X0122109Y0090016D01*
X0122121Y0089968D01*
X0122130Y0089919D01*
X0122135Y0089869D01*
X0122137Y0089819D01*
X0122137Y0088419D01*
X0122135Y0088369D01*
X0122130Y0088319D01*
X0122121Y0088270D01*
X0122109Y0088222D01*
X0122093Y0088174D01*
X0122074Y0088128D01*
X0122051Y0088084D01*
X0122026Y0088041D01*
X0121997Y0088000D01*
X0121966Y0087961D01*
X0121932Y0087924D01*
X0121895Y0087890D01*
X0121856Y0087859D01*
X0121815Y0087830D01*
X0121772Y0087805D01*
X0121728Y0087782D01*
X0121682Y0087763D01*
X0121634Y0087747D01*
X0121586Y0087735D01*
X0121537Y0087726D01*
X0121487Y0087721D01*
X0121437Y0087719D01*
X0120504Y0087719D01*
X0118465Y0087719D02*
X0118465Y0091919D01*
X0116598Y0090519D02*
X0118465Y0089119D01*
X0117648Y0089702D02*
X0116598Y0087719D01*
X0114795Y0088419D02*
X0114795Y0089586D01*
X0114795Y0089119D02*
X0112928Y0089119D01*
X0112928Y0089586D01*
X0112930Y0089646D01*
X0112936Y0089705D01*
X0112945Y0089764D01*
X0112959Y0089823D01*
X0112976Y0089880D01*
X0112996Y0089936D01*
X0113020Y0089991D01*
X0113048Y0090044D01*
X0113079Y0090095D01*
X0113113Y0090144D01*
X0113151Y0090191D01*
X0113191Y0090235D01*
X0113234Y0090277D01*
X0113279Y0090315D01*
X0113327Y0090351D01*
X0113377Y0090384D01*
X0113429Y0090413D01*
X0113483Y0090439D01*
X0113539Y0090462D01*
X0113596Y0090480D01*
X0113653Y0090496D01*
X0113712Y0090507D01*
X0113771Y0090515D01*
X0113831Y0090519D01*
X0113891Y0090519D01*
X0113951Y0090515D01*
X0114010Y0090507D01*
X0114069Y0090496D01*
X0114126Y0090480D01*
X0114183Y0090462D01*
X0114239Y0090439D01*
X0114293Y0090413D01*
X0114345Y0090384D01*
X0114395Y0090351D01*
X0114443Y0090315D01*
X0114488Y0090277D01*
X0114531Y0090235D01*
X0114571Y0090191D01*
X0114609Y0090144D01*
X0114643Y0090095D01*
X0114674Y0090044D01*
X0114702Y0089991D01*
X0114726Y0089936D01*
X0114746Y0089880D01*
X0114763Y0089823D01*
X0114777Y0089764D01*
X0114786Y0089705D01*
X0114792Y0089646D01*
X0114794Y0089586D01*
X0114795Y0088419D02*
X0114793Y0088369D01*
X0114788Y0088319D01*
X0114779Y0088270D01*
X0114767Y0088222D01*
X0114751Y0088174D01*
X0114732Y0088128D01*
X0114709Y0088084D01*
X0114684Y0088041D01*
X0114655Y0088000D01*
X0114624Y0087961D01*
X0114590Y0087924D01*
X0114553Y0087890D01*
X0114514Y0087859D01*
X0114473Y0087830D01*
X0114430Y0087805D01*
X0114386Y0087782D01*
X0114340Y0087763D01*
X0114292Y0087747D01*
X0114244Y0087735D01*
X0114195Y0087726D01*
X0114145Y0087721D01*
X0114095Y0087719D01*
X0112928Y0087719D01*
X0110849Y0088419D02*
X0110849Y0091919D01*
X0111316Y0090519D02*
X0109916Y0090519D01*
X0110849Y0088419D02*
X0110847Y0088369D01*
X0110842Y0088319D01*
X0110833Y0088270D01*
X0110821Y0088222D01*
X0110805Y0088174D01*
X0110786Y0088128D01*
X0110763Y0088084D01*
X0110738Y0088041D01*
X0110709Y0088000D01*
X0110678Y0087961D01*
X0110644Y0087924D01*
X0110607Y0087890D01*
X0110568Y0087859D01*
X0110527Y0087830D01*
X0110484Y0087805D01*
X0110440Y0087782D01*
X0110394Y0087763D01*
X0110346Y0087747D01*
X0110298Y0087735D01*
X0110249Y0087726D01*
X0110199Y0087721D01*
X0110149Y0087719D01*
X0109916Y0087719D01*
X0114582Y0078533D02*
X0116915Y0078533D01*
X0115748Y0078533D02*
X0115748Y0074333D01*
X0118548Y0074333D02*
X0119948Y0078533D01*
X0121348Y0074333D01*
X0120998Y0075383D02*
X0118898Y0075383D01*
X0124215Y0076666D02*
X0125148Y0076666D01*
X0124215Y0076667D02*
X0124155Y0076669D01*
X0124096Y0076675D01*
X0124037Y0076684D01*
X0123978Y0076698D01*
X0123921Y0076715D01*
X0123865Y0076735D01*
X0123810Y0076759D01*
X0123757Y0076787D01*
X0123706Y0076818D01*
X0123657Y0076852D01*
X0123610Y0076890D01*
X0123566Y0076930D01*
X0123524Y0076973D01*
X0123486Y0077018D01*
X0123450Y0077066D01*
X0123417Y0077116D01*
X0123388Y0077168D01*
X0123362Y0077222D01*
X0123339Y0077278D01*
X0123321Y0077335D01*
X0123305Y0077392D01*
X0123294Y0077451D01*
X0123286Y0077510D01*
X0123282Y0077570D01*
X0123282Y0077630D01*
X0123286Y0077690D01*
X0123294Y0077749D01*
X0123305Y0077808D01*
X0123321Y0077865D01*
X0123339Y0077922D01*
X0123362Y0077978D01*
X0123388Y0078032D01*
X0123417Y0078084D01*
X0123450Y0078134D01*
X0123486Y0078182D01*
X0123524Y0078227D01*
X0123566Y0078270D01*
X0123610Y0078310D01*
X0123657Y0078348D01*
X0123706Y0078382D01*
X0123757Y0078413D01*
X0123810Y0078441D01*
X0123865Y0078465D01*
X0123921Y0078485D01*
X0123978Y0078502D01*
X0124037Y0078516D01*
X0124096Y0078525D01*
X0124155Y0078531D01*
X0124215Y0078533D01*
X0125615Y0078533D01*
X0127998Y0078533D02*
X0129398Y0076200D01*
X0130798Y0078533D01*
X0130798Y0074333D01*
X0133332Y0075500D02*
X0133332Y0077366D01*
X0133331Y0077366D02*
X0133333Y0077434D01*
X0133339Y0077501D01*
X0133349Y0077569D01*
X0133362Y0077635D01*
X0133380Y0077701D01*
X0133401Y0077765D01*
X0133426Y0077828D01*
X0133455Y0077890D01*
X0133487Y0077950D01*
X0133523Y0078007D01*
X0133562Y0078063D01*
X0133604Y0078116D01*
X0133649Y0078167D01*
X0133697Y0078215D01*
X0133748Y0078260D01*
X0133801Y0078302D01*
X0133857Y0078341D01*
X0133915Y0078377D01*
X0133974Y0078409D01*
X0134036Y0078438D01*
X0134099Y0078463D01*
X0134163Y0078484D01*
X0134229Y0078502D01*
X0134295Y0078515D01*
X0134363Y0078525D01*
X0134430Y0078531D01*
X0134498Y0078533D01*
X0135665Y0078533D01*
X0135665Y0074333D01*
X0134498Y0074333D01*
X0134433Y0074335D01*
X0134367Y0074340D01*
X0134303Y0074349D01*
X0134238Y0074362D01*
X0134175Y0074379D01*
X0134113Y0074398D01*
X0134051Y0074422D01*
X0133992Y0074449D01*
X0133934Y0074479D01*
X0133877Y0074512D01*
X0133823Y0074548D01*
X0133770Y0074588D01*
X0133720Y0074630D01*
X0133673Y0074675D01*
X0133628Y0074722D01*
X0133586Y0074772D01*
X0133546Y0074825D01*
X0133510Y0074879D01*
X0133477Y0074935D01*
X0133447Y0074994D01*
X0133420Y0075053D01*
X0133396Y0075115D01*
X0133377Y0075177D01*
X0133360Y0075240D01*
X0133347Y0075305D01*
X0133338Y0075369D01*
X0133333Y0075435D01*
X0133331Y0075500D01*
X0127998Y0074333D02*
X0127998Y0078533D01*
X0124448Y0076667D02*
X0124381Y0076665D01*
X0124315Y0076659D01*
X0124249Y0076650D01*
X0124184Y0076637D01*
X0124119Y0076620D01*
X0124056Y0076599D01*
X0123994Y0076575D01*
X0123933Y0076547D01*
X0123874Y0076516D01*
X0123817Y0076482D01*
X0123762Y0076444D01*
X0123709Y0076403D01*
X0123659Y0076360D01*
X0123611Y0076313D01*
X0123566Y0076264D01*
X0123524Y0076213D01*
X0123485Y0076159D01*
X0123449Y0076103D01*
X0123416Y0076045D01*
X0123386Y0075985D01*
X0123361Y0075923D01*
X0123338Y0075861D01*
X0123319Y0075797D01*
X0123304Y0075732D01*
X0123293Y0075666D01*
X0123285Y0075600D01*
X0123281Y0075533D01*
X0123281Y0075467D01*
X0123285Y0075400D01*
X0123293Y0075334D01*
X0123304Y0075268D01*
X0123319Y0075203D01*
X0123338Y0075139D01*
X0123361Y0075077D01*
X0123386Y0075015D01*
X0123416Y0074955D01*
X0123449Y0074897D01*
X0123485Y0074841D01*
X0123524Y0074787D01*
X0123566Y0074736D01*
X0123611Y0074687D01*
X0123659Y0074640D01*
X0123709Y0074597D01*
X0123762Y0074556D01*
X0123817Y0074518D01*
X0123874Y0074484D01*
X0123933Y0074453D01*
X0123994Y0074425D01*
X0124056Y0074401D01*
X0124119Y0074380D01*
X0124184Y0074363D01*
X0124249Y0074350D01*
X0124315Y0074341D01*
X0124381Y0074335D01*
X0124448Y0074333D01*
X0125615Y0074333D01*
X0128311Y0090285D02*
X0128402Y0090324D01*
X0128493Y0090359D01*
X0128587Y0090391D01*
X0128681Y0090420D01*
X0128776Y0090445D01*
X0128872Y0090466D01*
X0128969Y0090484D01*
X0129067Y0090498D01*
X0129164Y0090509D01*
X0129263Y0090515D01*
X0129361Y0090519D01*
X0129409Y0090518D01*
X0129457Y0090513D01*
X0129504Y0090504D01*
X0129550Y0090491D01*
X0129596Y0090475D01*
X0129639Y0090456D01*
X0129681Y0090433D01*
X0129722Y0090406D01*
X0129759Y0090377D01*
X0129795Y0090345D01*
X0129828Y0090310D01*
X0129858Y0090272D01*
X0129884Y0090232D01*
X0129908Y0090191D01*
X0129928Y0090147D01*
X0129945Y0090102D01*
X0129958Y0090056D01*
X0129967Y0090009D01*
X0129973Y0089961D01*
X0129975Y0089913D01*
X0129973Y0089866D01*
X0129967Y0089818D01*
X0129958Y0089771D01*
X0129945Y0089725D01*
X0129928Y0089680D01*
X0129908Y0089636D01*
X0129884Y0089595D01*
X0129857Y0089555D01*
X0129827Y0089518D01*
X0129794Y0089483D01*
X0129759Y0089450D01*
X0129721Y0089421D01*
X0129681Y0089395D01*
X0129638Y0089372D01*
X0129595Y0089352D01*
X0128428Y0088886D01*
X0128385Y0088866D01*
X0128342Y0088843D01*
X0128302Y0088817D01*
X0128264Y0088788D01*
X0128229Y0088755D01*
X0128196Y0088720D01*
X0128166Y0088683D01*
X0128139Y0088643D01*
X0128115Y0088602D01*
X0128095Y0088558D01*
X0128078Y0088513D01*
X0128065Y0088467D01*
X0128056Y0088420D01*
X0128050Y0088372D01*
X0128048Y0088325D01*
X0128050Y0088277D01*
X0128056Y0088229D01*
X0128065Y0088182D01*
X0128078Y0088136D01*
X0128095Y0088091D01*
X0128115Y0088047D01*
X0128139Y0088006D01*
X0128165Y0087966D01*
X0128195Y0087928D01*
X0128228Y0087893D01*
X0128264Y0087861D01*
X0128301Y0087832D01*
X0128342Y0087805D01*
X0128384Y0087782D01*
X0128427Y0087763D01*
X0128473Y0087747D01*
X0128519Y0087734D01*
X0128566Y0087725D01*
X0128614Y0087720D01*
X0128662Y0087719D01*
X0126045Y0088652D02*
X0126045Y0089586D01*
X0126044Y0089586D02*
X0126042Y0089646D01*
X0126036Y0089705D01*
X0126027Y0089764D01*
X0126013Y0089823D01*
X0125996Y0089880D01*
X0125976Y0089936D01*
X0125952Y0089991D01*
X0125924Y0090044D01*
X0125893Y0090095D01*
X0125859Y0090144D01*
X0125821Y0090191D01*
X0125781Y0090235D01*
X0125738Y0090277D01*
X0125693Y0090315D01*
X0125645Y0090351D01*
X0125595Y0090384D01*
X0125543Y0090413D01*
X0125489Y0090439D01*
X0125433Y0090462D01*
X0125376Y0090480D01*
X0125319Y0090496D01*
X0125260Y0090507D01*
X0125201Y0090515D01*
X0125141Y0090519D01*
X0125081Y0090519D01*
X0125021Y0090515D01*
X0124962Y0090507D01*
X0124903Y0090496D01*
X0124846Y0090480D01*
X0124789Y0090462D01*
X0124733Y0090439D01*
X0124679Y0090413D01*
X0124627Y0090384D01*
X0124577Y0090351D01*
X0124529Y0090315D01*
X0124484Y0090277D01*
X0124441Y0090235D01*
X0124401Y0090191D01*
X0124363Y0090144D01*
X0124329Y0090095D01*
X0124298Y0090044D01*
X0124270Y0089991D01*
X0124246Y0089936D01*
X0124226Y0089880D01*
X0124209Y0089823D01*
X0124195Y0089764D01*
X0124186Y0089705D01*
X0124180Y0089646D01*
X0124178Y0089586D01*
X0124178Y0088652D01*
X0124180Y0088592D01*
X0124186Y0088533D01*
X0124195Y0088474D01*
X0124209Y0088415D01*
X0124226Y0088358D01*
X0124246Y0088302D01*
X0124270Y0088247D01*
X0124298Y0088194D01*
X0124329Y0088143D01*
X0124363Y0088094D01*
X0124401Y0088047D01*
X0124441Y0088003D01*
X0124484Y0087961D01*
X0124529Y0087923D01*
X0124577Y0087887D01*
X0124627Y0087854D01*
X0124679Y0087825D01*
X0124733Y0087799D01*
X0124789Y0087776D01*
X0124846Y0087758D01*
X0124903Y0087742D01*
X0124962Y0087731D01*
X0125021Y0087723D01*
X0125081Y0087719D01*
X0125141Y0087719D01*
X0125201Y0087723D01*
X0125260Y0087731D01*
X0125319Y0087742D01*
X0125376Y0087758D01*
X0125433Y0087776D01*
X0125489Y0087799D01*
X0125543Y0087825D01*
X0125595Y0087854D01*
X0125645Y0087887D01*
X0125693Y0087923D01*
X0125738Y0087961D01*
X0125781Y0088003D01*
X0125821Y0088047D01*
X0125859Y0088094D01*
X0125893Y0088143D01*
X0125924Y0088194D01*
X0125952Y0088247D01*
X0125976Y0088302D01*
X0125996Y0088358D01*
X0126013Y0088415D01*
X0126027Y0088474D01*
X0126036Y0088533D01*
X0126042Y0088592D01*
X0126044Y0088652D01*
X0128661Y0087719D02*
X0128781Y0087723D01*
X0128899Y0087730D01*
X0129018Y0087741D01*
X0129136Y0087755D01*
X0129254Y0087773D01*
X0129371Y0087794D01*
X0129488Y0087819D01*
X0129604Y0087847D01*
X0129718Y0087879D01*
X0129832Y0087914D01*
X0129945Y0087953D01*
X0125251Y0096497D02*
X0125249Y0096558D01*
X0125243Y0096619D01*
X0125233Y0096679D01*
X0125219Y0096738D01*
X0125201Y0096797D01*
X0125180Y0096854D01*
X0125155Y0096910D01*
X0125126Y0096963D01*
X0125094Y0097015D01*
X0125058Y0097065D01*
X0125019Y0097112D01*
X0124978Y0097157D01*
X0124933Y0097198D01*
X0124886Y0097237D01*
X0124836Y0097273D01*
X0124785Y0097305D01*
X0124731Y0097334D01*
X0124675Y0097359D01*
X0124618Y0097380D01*
X0124559Y0097398D01*
X0124500Y0097412D01*
X0124440Y0097422D01*
X0124379Y0097428D01*
X0124318Y0097430D01*
X0124318Y0097431D02*
X0123385Y0097431D01*
X0143157Y0096031D02*
X0144090Y0096031D01*
X0144140Y0096029D01*
X0144190Y0096024D01*
X0144239Y0096015D01*
X0144287Y0096003D01*
X0144335Y0095987D01*
X0144381Y0095968D01*
X0144425Y0095945D01*
X0144468Y0095920D01*
X0144509Y0095891D01*
X0144548Y0095860D01*
X0144585Y0095826D01*
X0144619Y0095789D01*
X0144650Y0095750D01*
X0144679Y0095709D01*
X0144704Y0095666D01*
X0144727Y0095622D01*
X0144746Y0095576D01*
X0144762Y0095528D01*
X0144774Y0095480D01*
X0144783Y0095431D01*
X0144788Y0095381D01*
X0144790Y0095331D01*
X0145705Y0078533D02*
X0146871Y0078533D01*
X0146871Y0074333D01*
X0146871Y0076200D02*
X0145705Y0076200D01*
X0145471Y0076200D02*
X0144538Y0074333D01*
X0145705Y0076199D02*
X0145638Y0076201D01*
X0145572Y0076207D01*
X0145506Y0076216D01*
X0145441Y0076229D01*
X0145376Y0076246D01*
X0145313Y0076267D01*
X0145251Y0076291D01*
X0145190Y0076319D01*
X0145131Y0076350D01*
X0145074Y0076384D01*
X0145019Y0076422D01*
X0144966Y0076463D01*
X0144916Y0076506D01*
X0144868Y0076553D01*
X0144823Y0076602D01*
X0144781Y0076653D01*
X0144742Y0076707D01*
X0144706Y0076763D01*
X0144673Y0076821D01*
X0144643Y0076881D01*
X0144618Y0076943D01*
X0144595Y0077005D01*
X0144576Y0077069D01*
X0144561Y0077134D01*
X0144550Y0077200D01*
X0144542Y0077266D01*
X0144538Y0077333D01*
X0144538Y0077399D01*
X0144542Y0077466D01*
X0144550Y0077532D01*
X0144561Y0077598D01*
X0144576Y0077663D01*
X0144595Y0077727D01*
X0144618Y0077789D01*
X0144643Y0077851D01*
X0144673Y0077911D01*
X0144706Y0077969D01*
X0144742Y0078025D01*
X0144781Y0078079D01*
X0144823Y0078130D01*
X0144868Y0078179D01*
X0144916Y0078226D01*
X0144966Y0078269D01*
X0145019Y0078310D01*
X0145074Y0078348D01*
X0145131Y0078382D01*
X0145190Y0078413D01*
X0145251Y0078441D01*
X0145313Y0078465D01*
X0145376Y0078486D01*
X0145441Y0078503D01*
X0145506Y0078516D01*
X0145572Y0078525D01*
X0145638Y0078531D01*
X0145705Y0078533D01*
X0149382Y0078533D02*
X0149382Y0074333D01*
X0151715Y0074333D02*
X0151715Y0078533D01*
X0151715Y0076666D02*
X0149382Y0076666D01*
X0141982Y0076783D02*
X0140698Y0076083D01*
X0141165Y0074333D02*
X0141251Y0074335D01*
X0141338Y0074341D01*
X0141424Y0074350D01*
X0141509Y0074363D01*
X0141594Y0074380D01*
X0141678Y0074401D01*
X0141761Y0074425D01*
X0141843Y0074453D01*
X0141923Y0074485D01*
X0142003Y0074520D01*
X0142080Y0074558D01*
X0142156Y0074600D01*
X0142230Y0074645D01*
X0142301Y0074693D01*
X0142371Y0074745D01*
X0142438Y0074799D01*
X0142503Y0074856D01*
X0142565Y0074916D01*
X0140699Y0076083D02*
X0140650Y0076052D01*
X0140603Y0076018D01*
X0140558Y0075981D01*
X0140515Y0075942D01*
X0140475Y0075900D01*
X0140438Y0075856D01*
X0140403Y0075810D01*
X0140372Y0075761D01*
X0140343Y0075711D01*
X0140317Y0075659D01*
X0140295Y0075606D01*
X0140276Y0075551D01*
X0140260Y0075495D01*
X0140248Y0075439D01*
X0140239Y0075382D01*
X0140234Y0075324D01*
X0140232Y0075266D01*
X0140234Y0075207D01*
X0140239Y0075149D01*
X0140249Y0075091D01*
X0140261Y0075034D01*
X0140278Y0074978D01*
X0140298Y0074923D01*
X0140321Y0074869D01*
X0140347Y0074817D01*
X0140377Y0074766D01*
X0140410Y0074718D01*
X0140446Y0074671D01*
X0140485Y0074627D01*
X0140526Y0074586D01*
X0140570Y0074547D01*
X0140617Y0074511D01*
X0140665Y0074478D01*
X0140716Y0074448D01*
X0140768Y0074422D01*
X0140822Y0074399D01*
X0140877Y0074379D01*
X0140933Y0074362D01*
X0140990Y0074350D01*
X0141048Y0074340D01*
X0141106Y0074335D01*
X0141165Y0074333D01*
X0140465Y0078183D02*
X0140530Y0078230D01*
X0140598Y0078273D01*
X0140667Y0078314D01*
X0140739Y0078351D01*
X0140812Y0078385D01*
X0140886Y0078416D01*
X0140962Y0078443D01*
X0141038Y0078467D01*
X0141116Y0078487D01*
X0141195Y0078504D01*
X0141274Y0078516D01*
X0141354Y0078526D01*
X0141435Y0078531D01*
X0141515Y0078533D01*
X0141574Y0078531D01*
X0141632Y0078526D01*
X0141690Y0078516D01*
X0141747Y0078504D01*
X0141803Y0078487D01*
X0141858Y0078467D01*
X0141912Y0078444D01*
X0141964Y0078418D01*
X0142015Y0078388D01*
X0142063Y0078355D01*
X0142110Y0078319D01*
X0142154Y0078280D01*
X0142195Y0078239D01*
X0142234Y0078195D01*
X0142270Y0078148D01*
X0142303Y0078100D01*
X0142333Y0078049D01*
X0142359Y0077997D01*
X0142382Y0077943D01*
X0142402Y0077888D01*
X0142419Y0077832D01*
X0142431Y0077775D01*
X0142441Y0077717D01*
X0142446Y0077659D01*
X0142448Y0077600D01*
X0142446Y0077542D01*
X0142441Y0077484D01*
X0142432Y0077427D01*
X0142420Y0077371D01*
X0142404Y0077315D01*
X0142385Y0077260D01*
X0142363Y0077207D01*
X0142337Y0077155D01*
X0142308Y0077105D01*
X0142277Y0077056D01*
X0142242Y0077010D01*
X0142205Y0076966D01*
X0142165Y0076924D01*
X0142122Y0076885D01*
X0142077Y0076848D01*
X0142030Y0076814D01*
X0141981Y0076783D01*
D17*
X0203414Y0152043D02*
X0203416Y0152082D01*
X0203422Y0152121D01*
X0203432Y0152159D01*
X0203445Y0152196D01*
X0203462Y0152231D01*
X0203482Y0152265D01*
X0203506Y0152296D01*
X0203533Y0152325D01*
X0203562Y0152351D01*
X0203594Y0152374D01*
X0203628Y0152394D01*
X0203664Y0152410D01*
X0203701Y0152422D01*
X0203740Y0152431D01*
X0203779Y0152436D01*
X0203818Y0152437D01*
X0203857Y0152434D01*
X0203896Y0152427D01*
X0203933Y0152416D01*
X0203970Y0152402D01*
X0204005Y0152384D01*
X0204038Y0152363D01*
X0204069Y0152338D01*
X0204097Y0152311D01*
X0204122Y0152281D01*
X0204144Y0152248D01*
X0204163Y0152214D01*
X0204178Y0152178D01*
X0204190Y0152140D01*
X0204198Y0152102D01*
X0204202Y0152063D01*
X0204202Y0152023D01*
X0204198Y0151984D01*
X0204190Y0151946D01*
X0204178Y0151908D01*
X0204163Y0151872D01*
X0204144Y0151838D01*
X0204122Y0151805D01*
X0204097Y0151775D01*
X0204069Y0151748D01*
X0204038Y0151723D01*
X0204005Y0151702D01*
X0203970Y0151684D01*
X0203933Y0151670D01*
X0203896Y0151659D01*
X0203857Y0151652D01*
X0203818Y0151649D01*
X0203779Y0151650D01*
X0203740Y0151655D01*
X0203701Y0151664D01*
X0203664Y0151676D01*
X0203628Y0151692D01*
X0203594Y0151712D01*
X0203562Y0151735D01*
X0203533Y0151761D01*
X0203506Y0151790D01*
X0203482Y0151821D01*
X0203462Y0151855D01*
X0203445Y0151890D01*
X0203432Y0151927D01*
X0203422Y0151965D01*
X0203416Y0152004D01*
X0203414Y0152043D01*
M02*
