G75*
%MOIN*%
%OFA0B0*%
%FSLAX25Y25*%
%IPPOS*%
%LPD*%
%AMOC8*
5,1,8,0,0,1.08239X$1,22.5*
%
%ADD10C,0.00000*%
%ADD11R,0.02500X0.05000*%
%ADD12R,0.04252X0.04134*%
%ADD13R,0.07874X0.08661*%
%ADD14R,0.03937X0.04331*%
%ADD15R,0.04331X0.03937*%
%ADD16R,0.03346X0.04134*%
%ADD17R,0.06000X0.06000*%
%ADD18C,0.06000*%
%ADD19R,0.03150X0.02362*%
%ADD20R,0.01500X0.04303*%
%ADD21R,0.01575X0.05315*%
%ADD22R,0.08268X0.06299*%
%ADD23R,0.07087X0.07480*%
%ADD24R,0.07480X0.07480*%
%ADD25R,0.04724X0.04724*%
%ADD26R,0.01772X0.07087*%
%ADD27R,0.29528X0.29528*%
%ADD28C,0.11811*%
%ADD29R,0.03346X0.05709*%
%ADD30R,0.05906X0.03543*%
%ADD31R,0.03543X0.05906*%
%ADD32R,0.23622X0.23622*%
D10*
X0076800Y0058933D02*
X0351800Y0058933D01*
X0352042Y0058936D01*
X0352283Y0058945D01*
X0352524Y0058959D01*
X0352765Y0058980D01*
X0353005Y0059006D01*
X0353245Y0059038D01*
X0353484Y0059076D01*
X0353721Y0059119D01*
X0353958Y0059169D01*
X0354193Y0059224D01*
X0354427Y0059284D01*
X0354659Y0059351D01*
X0354890Y0059422D01*
X0355119Y0059500D01*
X0355346Y0059583D01*
X0355571Y0059671D01*
X0355794Y0059765D01*
X0356014Y0059864D01*
X0356232Y0059969D01*
X0356447Y0060078D01*
X0356660Y0060193D01*
X0356870Y0060313D01*
X0357076Y0060438D01*
X0357280Y0060568D01*
X0357481Y0060703D01*
X0357678Y0060843D01*
X0357872Y0060987D01*
X0358062Y0061136D01*
X0358248Y0061290D01*
X0358431Y0061448D01*
X0358610Y0061610D01*
X0358785Y0061777D01*
X0358956Y0061948D01*
X0359123Y0062123D01*
X0359285Y0062302D01*
X0359443Y0062485D01*
X0359597Y0062671D01*
X0359746Y0062861D01*
X0359890Y0063055D01*
X0360030Y0063252D01*
X0360165Y0063453D01*
X0360295Y0063657D01*
X0360420Y0063863D01*
X0360540Y0064073D01*
X0360655Y0064286D01*
X0360764Y0064501D01*
X0360869Y0064719D01*
X0360968Y0064939D01*
X0361062Y0065162D01*
X0361150Y0065387D01*
X0361233Y0065614D01*
X0361311Y0065843D01*
X0361382Y0066074D01*
X0361449Y0066306D01*
X0361509Y0066540D01*
X0361564Y0066775D01*
X0361614Y0067012D01*
X0361657Y0067249D01*
X0361695Y0067488D01*
X0361727Y0067728D01*
X0361753Y0067968D01*
X0361774Y0068209D01*
X0361788Y0068450D01*
X0361797Y0068691D01*
X0361800Y0068933D01*
X0361800Y0293933D01*
X0361797Y0294175D01*
X0361788Y0294416D01*
X0361774Y0294657D01*
X0361753Y0294898D01*
X0361727Y0295138D01*
X0361695Y0295378D01*
X0361657Y0295617D01*
X0361614Y0295854D01*
X0361564Y0296091D01*
X0361509Y0296326D01*
X0361449Y0296560D01*
X0361382Y0296792D01*
X0361311Y0297023D01*
X0361233Y0297252D01*
X0361150Y0297479D01*
X0361062Y0297704D01*
X0360968Y0297927D01*
X0360869Y0298147D01*
X0360764Y0298365D01*
X0360655Y0298580D01*
X0360540Y0298793D01*
X0360420Y0299003D01*
X0360295Y0299209D01*
X0360165Y0299413D01*
X0360030Y0299614D01*
X0359890Y0299811D01*
X0359746Y0300005D01*
X0359597Y0300195D01*
X0359443Y0300381D01*
X0359285Y0300564D01*
X0359123Y0300743D01*
X0358956Y0300918D01*
X0358785Y0301089D01*
X0358610Y0301256D01*
X0358431Y0301418D01*
X0358248Y0301576D01*
X0358062Y0301730D01*
X0357872Y0301879D01*
X0357678Y0302023D01*
X0357481Y0302163D01*
X0357280Y0302298D01*
X0357076Y0302428D01*
X0356870Y0302553D01*
X0356660Y0302673D01*
X0356447Y0302788D01*
X0356232Y0302897D01*
X0356014Y0303002D01*
X0355794Y0303101D01*
X0355571Y0303195D01*
X0355346Y0303283D01*
X0355119Y0303366D01*
X0354890Y0303444D01*
X0354659Y0303515D01*
X0354427Y0303582D01*
X0354193Y0303642D01*
X0353958Y0303697D01*
X0353721Y0303747D01*
X0353484Y0303790D01*
X0353245Y0303828D01*
X0353005Y0303860D01*
X0352765Y0303886D01*
X0352524Y0303907D01*
X0352283Y0303921D01*
X0352042Y0303930D01*
X0351800Y0303933D01*
X0076800Y0303933D01*
X0076558Y0303930D01*
X0076317Y0303921D01*
X0076076Y0303907D01*
X0075835Y0303886D01*
X0075595Y0303860D01*
X0075355Y0303828D01*
X0075116Y0303790D01*
X0074879Y0303747D01*
X0074642Y0303697D01*
X0074407Y0303642D01*
X0074173Y0303582D01*
X0073941Y0303515D01*
X0073710Y0303444D01*
X0073481Y0303366D01*
X0073254Y0303283D01*
X0073029Y0303195D01*
X0072806Y0303101D01*
X0072586Y0303002D01*
X0072368Y0302897D01*
X0072153Y0302788D01*
X0071940Y0302673D01*
X0071730Y0302553D01*
X0071524Y0302428D01*
X0071320Y0302298D01*
X0071119Y0302163D01*
X0070922Y0302023D01*
X0070728Y0301879D01*
X0070538Y0301730D01*
X0070352Y0301576D01*
X0070169Y0301418D01*
X0069990Y0301256D01*
X0069815Y0301089D01*
X0069644Y0300918D01*
X0069477Y0300743D01*
X0069315Y0300564D01*
X0069157Y0300381D01*
X0069003Y0300195D01*
X0068854Y0300005D01*
X0068710Y0299811D01*
X0068570Y0299614D01*
X0068435Y0299413D01*
X0068305Y0299209D01*
X0068180Y0299003D01*
X0068060Y0298793D01*
X0067945Y0298580D01*
X0067836Y0298365D01*
X0067731Y0298147D01*
X0067632Y0297927D01*
X0067538Y0297704D01*
X0067450Y0297479D01*
X0067367Y0297252D01*
X0067289Y0297023D01*
X0067218Y0296792D01*
X0067151Y0296560D01*
X0067091Y0296326D01*
X0067036Y0296091D01*
X0066986Y0295854D01*
X0066943Y0295617D01*
X0066905Y0295378D01*
X0066873Y0295138D01*
X0066847Y0294898D01*
X0066826Y0294657D01*
X0066812Y0294416D01*
X0066803Y0294175D01*
X0066800Y0293933D01*
X0066800Y0068933D01*
X0066803Y0068691D01*
X0066812Y0068450D01*
X0066826Y0068209D01*
X0066847Y0067968D01*
X0066873Y0067728D01*
X0066905Y0067488D01*
X0066943Y0067249D01*
X0066986Y0067012D01*
X0067036Y0066775D01*
X0067091Y0066540D01*
X0067151Y0066306D01*
X0067218Y0066074D01*
X0067289Y0065843D01*
X0067367Y0065614D01*
X0067450Y0065387D01*
X0067538Y0065162D01*
X0067632Y0064939D01*
X0067731Y0064719D01*
X0067836Y0064501D01*
X0067945Y0064286D01*
X0068060Y0064073D01*
X0068180Y0063863D01*
X0068305Y0063657D01*
X0068435Y0063453D01*
X0068570Y0063252D01*
X0068710Y0063055D01*
X0068854Y0062861D01*
X0069003Y0062671D01*
X0069157Y0062485D01*
X0069315Y0062302D01*
X0069477Y0062123D01*
X0069644Y0061948D01*
X0069815Y0061777D01*
X0069990Y0061610D01*
X0070169Y0061448D01*
X0070352Y0061290D01*
X0070538Y0061136D01*
X0070728Y0060987D01*
X0070922Y0060843D01*
X0071119Y0060703D01*
X0071320Y0060568D01*
X0071524Y0060438D01*
X0071730Y0060313D01*
X0071940Y0060193D01*
X0072153Y0060078D01*
X0072368Y0059969D01*
X0072586Y0059864D01*
X0072806Y0059765D01*
X0073029Y0059671D01*
X0073254Y0059583D01*
X0073481Y0059500D01*
X0073710Y0059422D01*
X0073941Y0059351D01*
X0074173Y0059284D01*
X0074407Y0059224D01*
X0074642Y0059169D01*
X0074879Y0059119D01*
X0075116Y0059076D01*
X0075355Y0059038D01*
X0075595Y0059006D01*
X0075835Y0058980D01*
X0076076Y0058959D01*
X0076317Y0058945D01*
X0076558Y0058936D01*
X0076800Y0058933D01*
X0070894Y0073933D02*
X0070896Y0074086D01*
X0070902Y0074240D01*
X0070912Y0074393D01*
X0070926Y0074545D01*
X0070944Y0074698D01*
X0070966Y0074849D01*
X0070991Y0075000D01*
X0071021Y0075151D01*
X0071055Y0075301D01*
X0071092Y0075449D01*
X0071133Y0075597D01*
X0071178Y0075743D01*
X0071227Y0075889D01*
X0071280Y0076033D01*
X0071336Y0076175D01*
X0071396Y0076316D01*
X0071460Y0076456D01*
X0071527Y0076594D01*
X0071598Y0076730D01*
X0071673Y0076864D01*
X0071750Y0076996D01*
X0071832Y0077126D01*
X0071916Y0077254D01*
X0072004Y0077380D01*
X0072095Y0077503D01*
X0072189Y0077624D01*
X0072287Y0077742D01*
X0072387Y0077858D01*
X0072491Y0077971D01*
X0072597Y0078082D01*
X0072706Y0078190D01*
X0072818Y0078295D01*
X0072932Y0078396D01*
X0073050Y0078495D01*
X0073169Y0078591D01*
X0073291Y0078684D01*
X0073416Y0078773D01*
X0073543Y0078860D01*
X0073672Y0078942D01*
X0073803Y0079022D01*
X0073936Y0079098D01*
X0074071Y0079171D01*
X0074208Y0079240D01*
X0074347Y0079305D01*
X0074487Y0079367D01*
X0074629Y0079425D01*
X0074772Y0079480D01*
X0074917Y0079531D01*
X0075063Y0079578D01*
X0075210Y0079621D01*
X0075358Y0079660D01*
X0075507Y0079696D01*
X0075657Y0079727D01*
X0075808Y0079755D01*
X0075959Y0079779D01*
X0076112Y0079799D01*
X0076264Y0079815D01*
X0076417Y0079827D01*
X0076570Y0079835D01*
X0076723Y0079839D01*
X0076877Y0079839D01*
X0077030Y0079835D01*
X0077183Y0079827D01*
X0077336Y0079815D01*
X0077488Y0079799D01*
X0077641Y0079779D01*
X0077792Y0079755D01*
X0077943Y0079727D01*
X0078093Y0079696D01*
X0078242Y0079660D01*
X0078390Y0079621D01*
X0078537Y0079578D01*
X0078683Y0079531D01*
X0078828Y0079480D01*
X0078971Y0079425D01*
X0079113Y0079367D01*
X0079253Y0079305D01*
X0079392Y0079240D01*
X0079529Y0079171D01*
X0079664Y0079098D01*
X0079797Y0079022D01*
X0079928Y0078942D01*
X0080057Y0078860D01*
X0080184Y0078773D01*
X0080309Y0078684D01*
X0080431Y0078591D01*
X0080550Y0078495D01*
X0080668Y0078396D01*
X0080782Y0078295D01*
X0080894Y0078190D01*
X0081003Y0078082D01*
X0081109Y0077971D01*
X0081213Y0077858D01*
X0081313Y0077742D01*
X0081411Y0077624D01*
X0081505Y0077503D01*
X0081596Y0077380D01*
X0081684Y0077254D01*
X0081768Y0077126D01*
X0081850Y0076996D01*
X0081927Y0076864D01*
X0082002Y0076730D01*
X0082073Y0076594D01*
X0082140Y0076456D01*
X0082204Y0076316D01*
X0082264Y0076175D01*
X0082320Y0076033D01*
X0082373Y0075889D01*
X0082422Y0075743D01*
X0082467Y0075597D01*
X0082508Y0075449D01*
X0082545Y0075301D01*
X0082579Y0075151D01*
X0082609Y0075000D01*
X0082634Y0074849D01*
X0082656Y0074698D01*
X0082674Y0074545D01*
X0082688Y0074393D01*
X0082698Y0074240D01*
X0082704Y0074086D01*
X0082706Y0073933D01*
X0082704Y0073780D01*
X0082698Y0073626D01*
X0082688Y0073473D01*
X0082674Y0073321D01*
X0082656Y0073168D01*
X0082634Y0073017D01*
X0082609Y0072866D01*
X0082579Y0072715D01*
X0082545Y0072565D01*
X0082508Y0072417D01*
X0082467Y0072269D01*
X0082422Y0072123D01*
X0082373Y0071977D01*
X0082320Y0071833D01*
X0082264Y0071691D01*
X0082204Y0071550D01*
X0082140Y0071410D01*
X0082073Y0071272D01*
X0082002Y0071136D01*
X0081927Y0071002D01*
X0081850Y0070870D01*
X0081768Y0070740D01*
X0081684Y0070612D01*
X0081596Y0070486D01*
X0081505Y0070363D01*
X0081411Y0070242D01*
X0081313Y0070124D01*
X0081213Y0070008D01*
X0081109Y0069895D01*
X0081003Y0069784D01*
X0080894Y0069676D01*
X0080782Y0069571D01*
X0080668Y0069470D01*
X0080550Y0069371D01*
X0080431Y0069275D01*
X0080309Y0069182D01*
X0080184Y0069093D01*
X0080057Y0069006D01*
X0079928Y0068924D01*
X0079797Y0068844D01*
X0079664Y0068768D01*
X0079529Y0068695D01*
X0079392Y0068626D01*
X0079253Y0068561D01*
X0079113Y0068499D01*
X0078971Y0068441D01*
X0078828Y0068386D01*
X0078683Y0068335D01*
X0078537Y0068288D01*
X0078390Y0068245D01*
X0078242Y0068206D01*
X0078093Y0068170D01*
X0077943Y0068139D01*
X0077792Y0068111D01*
X0077641Y0068087D01*
X0077488Y0068067D01*
X0077336Y0068051D01*
X0077183Y0068039D01*
X0077030Y0068031D01*
X0076877Y0068027D01*
X0076723Y0068027D01*
X0076570Y0068031D01*
X0076417Y0068039D01*
X0076264Y0068051D01*
X0076112Y0068067D01*
X0075959Y0068087D01*
X0075808Y0068111D01*
X0075657Y0068139D01*
X0075507Y0068170D01*
X0075358Y0068206D01*
X0075210Y0068245D01*
X0075063Y0068288D01*
X0074917Y0068335D01*
X0074772Y0068386D01*
X0074629Y0068441D01*
X0074487Y0068499D01*
X0074347Y0068561D01*
X0074208Y0068626D01*
X0074071Y0068695D01*
X0073936Y0068768D01*
X0073803Y0068844D01*
X0073672Y0068924D01*
X0073543Y0069006D01*
X0073416Y0069093D01*
X0073291Y0069182D01*
X0073169Y0069275D01*
X0073050Y0069371D01*
X0072932Y0069470D01*
X0072818Y0069571D01*
X0072706Y0069676D01*
X0072597Y0069784D01*
X0072491Y0069895D01*
X0072387Y0070008D01*
X0072287Y0070124D01*
X0072189Y0070242D01*
X0072095Y0070363D01*
X0072004Y0070486D01*
X0071916Y0070612D01*
X0071832Y0070740D01*
X0071750Y0070870D01*
X0071673Y0071002D01*
X0071598Y0071136D01*
X0071527Y0071272D01*
X0071460Y0071410D01*
X0071396Y0071550D01*
X0071336Y0071691D01*
X0071280Y0071833D01*
X0071227Y0071977D01*
X0071178Y0072123D01*
X0071133Y0072269D01*
X0071092Y0072417D01*
X0071055Y0072565D01*
X0071021Y0072715D01*
X0070991Y0072866D01*
X0070966Y0073017D01*
X0070944Y0073168D01*
X0070926Y0073321D01*
X0070912Y0073473D01*
X0070902Y0073626D01*
X0070896Y0073780D01*
X0070894Y0073933D01*
X0070894Y0288933D02*
X0070896Y0289086D01*
X0070902Y0289240D01*
X0070912Y0289393D01*
X0070926Y0289545D01*
X0070944Y0289698D01*
X0070966Y0289849D01*
X0070991Y0290000D01*
X0071021Y0290151D01*
X0071055Y0290301D01*
X0071092Y0290449D01*
X0071133Y0290597D01*
X0071178Y0290743D01*
X0071227Y0290889D01*
X0071280Y0291033D01*
X0071336Y0291175D01*
X0071396Y0291316D01*
X0071460Y0291456D01*
X0071527Y0291594D01*
X0071598Y0291730D01*
X0071673Y0291864D01*
X0071750Y0291996D01*
X0071832Y0292126D01*
X0071916Y0292254D01*
X0072004Y0292380D01*
X0072095Y0292503D01*
X0072189Y0292624D01*
X0072287Y0292742D01*
X0072387Y0292858D01*
X0072491Y0292971D01*
X0072597Y0293082D01*
X0072706Y0293190D01*
X0072818Y0293295D01*
X0072932Y0293396D01*
X0073050Y0293495D01*
X0073169Y0293591D01*
X0073291Y0293684D01*
X0073416Y0293773D01*
X0073543Y0293860D01*
X0073672Y0293942D01*
X0073803Y0294022D01*
X0073936Y0294098D01*
X0074071Y0294171D01*
X0074208Y0294240D01*
X0074347Y0294305D01*
X0074487Y0294367D01*
X0074629Y0294425D01*
X0074772Y0294480D01*
X0074917Y0294531D01*
X0075063Y0294578D01*
X0075210Y0294621D01*
X0075358Y0294660D01*
X0075507Y0294696D01*
X0075657Y0294727D01*
X0075808Y0294755D01*
X0075959Y0294779D01*
X0076112Y0294799D01*
X0076264Y0294815D01*
X0076417Y0294827D01*
X0076570Y0294835D01*
X0076723Y0294839D01*
X0076877Y0294839D01*
X0077030Y0294835D01*
X0077183Y0294827D01*
X0077336Y0294815D01*
X0077488Y0294799D01*
X0077641Y0294779D01*
X0077792Y0294755D01*
X0077943Y0294727D01*
X0078093Y0294696D01*
X0078242Y0294660D01*
X0078390Y0294621D01*
X0078537Y0294578D01*
X0078683Y0294531D01*
X0078828Y0294480D01*
X0078971Y0294425D01*
X0079113Y0294367D01*
X0079253Y0294305D01*
X0079392Y0294240D01*
X0079529Y0294171D01*
X0079664Y0294098D01*
X0079797Y0294022D01*
X0079928Y0293942D01*
X0080057Y0293860D01*
X0080184Y0293773D01*
X0080309Y0293684D01*
X0080431Y0293591D01*
X0080550Y0293495D01*
X0080668Y0293396D01*
X0080782Y0293295D01*
X0080894Y0293190D01*
X0081003Y0293082D01*
X0081109Y0292971D01*
X0081213Y0292858D01*
X0081313Y0292742D01*
X0081411Y0292624D01*
X0081505Y0292503D01*
X0081596Y0292380D01*
X0081684Y0292254D01*
X0081768Y0292126D01*
X0081850Y0291996D01*
X0081927Y0291864D01*
X0082002Y0291730D01*
X0082073Y0291594D01*
X0082140Y0291456D01*
X0082204Y0291316D01*
X0082264Y0291175D01*
X0082320Y0291033D01*
X0082373Y0290889D01*
X0082422Y0290743D01*
X0082467Y0290597D01*
X0082508Y0290449D01*
X0082545Y0290301D01*
X0082579Y0290151D01*
X0082609Y0290000D01*
X0082634Y0289849D01*
X0082656Y0289698D01*
X0082674Y0289545D01*
X0082688Y0289393D01*
X0082698Y0289240D01*
X0082704Y0289086D01*
X0082706Y0288933D01*
X0082704Y0288780D01*
X0082698Y0288626D01*
X0082688Y0288473D01*
X0082674Y0288321D01*
X0082656Y0288168D01*
X0082634Y0288017D01*
X0082609Y0287866D01*
X0082579Y0287715D01*
X0082545Y0287565D01*
X0082508Y0287417D01*
X0082467Y0287269D01*
X0082422Y0287123D01*
X0082373Y0286977D01*
X0082320Y0286833D01*
X0082264Y0286691D01*
X0082204Y0286550D01*
X0082140Y0286410D01*
X0082073Y0286272D01*
X0082002Y0286136D01*
X0081927Y0286002D01*
X0081850Y0285870D01*
X0081768Y0285740D01*
X0081684Y0285612D01*
X0081596Y0285486D01*
X0081505Y0285363D01*
X0081411Y0285242D01*
X0081313Y0285124D01*
X0081213Y0285008D01*
X0081109Y0284895D01*
X0081003Y0284784D01*
X0080894Y0284676D01*
X0080782Y0284571D01*
X0080668Y0284470D01*
X0080550Y0284371D01*
X0080431Y0284275D01*
X0080309Y0284182D01*
X0080184Y0284093D01*
X0080057Y0284006D01*
X0079928Y0283924D01*
X0079797Y0283844D01*
X0079664Y0283768D01*
X0079529Y0283695D01*
X0079392Y0283626D01*
X0079253Y0283561D01*
X0079113Y0283499D01*
X0078971Y0283441D01*
X0078828Y0283386D01*
X0078683Y0283335D01*
X0078537Y0283288D01*
X0078390Y0283245D01*
X0078242Y0283206D01*
X0078093Y0283170D01*
X0077943Y0283139D01*
X0077792Y0283111D01*
X0077641Y0283087D01*
X0077488Y0283067D01*
X0077336Y0283051D01*
X0077183Y0283039D01*
X0077030Y0283031D01*
X0076877Y0283027D01*
X0076723Y0283027D01*
X0076570Y0283031D01*
X0076417Y0283039D01*
X0076264Y0283051D01*
X0076112Y0283067D01*
X0075959Y0283087D01*
X0075808Y0283111D01*
X0075657Y0283139D01*
X0075507Y0283170D01*
X0075358Y0283206D01*
X0075210Y0283245D01*
X0075063Y0283288D01*
X0074917Y0283335D01*
X0074772Y0283386D01*
X0074629Y0283441D01*
X0074487Y0283499D01*
X0074347Y0283561D01*
X0074208Y0283626D01*
X0074071Y0283695D01*
X0073936Y0283768D01*
X0073803Y0283844D01*
X0073672Y0283924D01*
X0073543Y0284006D01*
X0073416Y0284093D01*
X0073291Y0284182D01*
X0073169Y0284275D01*
X0073050Y0284371D01*
X0072932Y0284470D01*
X0072818Y0284571D01*
X0072706Y0284676D01*
X0072597Y0284784D01*
X0072491Y0284895D01*
X0072387Y0285008D01*
X0072287Y0285124D01*
X0072189Y0285242D01*
X0072095Y0285363D01*
X0072004Y0285486D01*
X0071916Y0285612D01*
X0071832Y0285740D01*
X0071750Y0285870D01*
X0071673Y0286002D01*
X0071598Y0286136D01*
X0071527Y0286272D01*
X0071460Y0286410D01*
X0071396Y0286550D01*
X0071336Y0286691D01*
X0071280Y0286833D01*
X0071227Y0286977D01*
X0071178Y0287123D01*
X0071133Y0287269D01*
X0071092Y0287417D01*
X0071055Y0287565D01*
X0071021Y0287715D01*
X0070991Y0287866D01*
X0070966Y0288017D01*
X0070944Y0288168D01*
X0070926Y0288321D01*
X0070912Y0288473D01*
X0070902Y0288626D01*
X0070896Y0288780D01*
X0070894Y0288933D01*
X0345894Y0288933D02*
X0345896Y0289086D01*
X0345902Y0289240D01*
X0345912Y0289393D01*
X0345926Y0289545D01*
X0345944Y0289698D01*
X0345966Y0289849D01*
X0345991Y0290000D01*
X0346021Y0290151D01*
X0346055Y0290301D01*
X0346092Y0290449D01*
X0346133Y0290597D01*
X0346178Y0290743D01*
X0346227Y0290889D01*
X0346280Y0291033D01*
X0346336Y0291175D01*
X0346396Y0291316D01*
X0346460Y0291456D01*
X0346527Y0291594D01*
X0346598Y0291730D01*
X0346673Y0291864D01*
X0346750Y0291996D01*
X0346832Y0292126D01*
X0346916Y0292254D01*
X0347004Y0292380D01*
X0347095Y0292503D01*
X0347189Y0292624D01*
X0347287Y0292742D01*
X0347387Y0292858D01*
X0347491Y0292971D01*
X0347597Y0293082D01*
X0347706Y0293190D01*
X0347818Y0293295D01*
X0347932Y0293396D01*
X0348050Y0293495D01*
X0348169Y0293591D01*
X0348291Y0293684D01*
X0348416Y0293773D01*
X0348543Y0293860D01*
X0348672Y0293942D01*
X0348803Y0294022D01*
X0348936Y0294098D01*
X0349071Y0294171D01*
X0349208Y0294240D01*
X0349347Y0294305D01*
X0349487Y0294367D01*
X0349629Y0294425D01*
X0349772Y0294480D01*
X0349917Y0294531D01*
X0350063Y0294578D01*
X0350210Y0294621D01*
X0350358Y0294660D01*
X0350507Y0294696D01*
X0350657Y0294727D01*
X0350808Y0294755D01*
X0350959Y0294779D01*
X0351112Y0294799D01*
X0351264Y0294815D01*
X0351417Y0294827D01*
X0351570Y0294835D01*
X0351723Y0294839D01*
X0351877Y0294839D01*
X0352030Y0294835D01*
X0352183Y0294827D01*
X0352336Y0294815D01*
X0352488Y0294799D01*
X0352641Y0294779D01*
X0352792Y0294755D01*
X0352943Y0294727D01*
X0353093Y0294696D01*
X0353242Y0294660D01*
X0353390Y0294621D01*
X0353537Y0294578D01*
X0353683Y0294531D01*
X0353828Y0294480D01*
X0353971Y0294425D01*
X0354113Y0294367D01*
X0354253Y0294305D01*
X0354392Y0294240D01*
X0354529Y0294171D01*
X0354664Y0294098D01*
X0354797Y0294022D01*
X0354928Y0293942D01*
X0355057Y0293860D01*
X0355184Y0293773D01*
X0355309Y0293684D01*
X0355431Y0293591D01*
X0355550Y0293495D01*
X0355668Y0293396D01*
X0355782Y0293295D01*
X0355894Y0293190D01*
X0356003Y0293082D01*
X0356109Y0292971D01*
X0356213Y0292858D01*
X0356313Y0292742D01*
X0356411Y0292624D01*
X0356505Y0292503D01*
X0356596Y0292380D01*
X0356684Y0292254D01*
X0356768Y0292126D01*
X0356850Y0291996D01*
X0356927Y0291864D01*
X0357002Y0291730D01*
X0357073Y0291594D01*
X0357140Y0291456D01*
X0357204Y0291316D01*
X0357264Y0291175D01*
X0357320Y0291033D01*
X0357373Y0290889D01*
X0357422Y0290743D01*
X0357467Y0290597D01*
X0357508Y0290449D01*
X0357545Y0290301D01*
X0357579Y0290151D01*
X0357609Y0290000D01*
X0357634Y0289849D01*
X0357656Y0289698D01*
X0357674Y0289545D01*
X0357688Y0289393D01*
X0357698Y0289240D01*
X0357704Y0289086D01*
X0357706Y0288933D01*
X0357704Y0288780D01*
X0357698Y0288626D01*
X0357688Y0288473D01*
X0357674Y0288321D01*
X0357656Y0288168D01*
X0357634Y0288017D01*
X0357609Y0287866D01*
X0357579Y0287715D01*
X0357545Y0287565D01*
X0357508Y0287417D01*
X0357467Y0287269D01*
X0357422Y0287123D01*
X0357373Y0286977D01*
X0357320Y0286833D01*
X0357264Y0286691D01*
X0357204Y0286550D01*
X0357140Y0286410D01*
X0357073Y0286272D01*
X0357002Y0286136D01*
X0356927Y0286002D01*
X0356850Y0285870D01*
X0356768Y0285740D01*
X0356684Y0285612D01*
X0356596Y0285486D01*
X0356505Y0285363D01*
X0356411Y0285242D01*
X0356313Y0285124D01*
X0356213Y0285008D01*
X0356109Y0284895D01*
X0356003Y0284784D01*
X0355894Y0284676D01*
X0355782Y0284571D01*
X0355668Y0284470D01*
X0355550Y0284371D01*
X0355431Y0284275D01*
X0355309Y0284182D01*
X0355184Y0284093D01*
X0355057Y0284006D01*
X0354928Y0283924D01*
X0354797Y0283844D01*
X0354664Y0283768D01*
X0354529Y0283695D01*
X0354392Y0283626D01*
X0354253Y0283561D01*
X0354113Y0283499D01*
X0353971Y0283441D01*
X0353828Y0283386D01*
X0353683Y0283335D01*
X0353537Y0283288D01*
X0353390Y0283245D01*
X0353242Y0283206D01*
X0353093Y0283170D01*
X0352943Y0283139D01*
X0352792Y0283111D01*
X0352641Y0283087D01*
X0352488Y0283067D01*
X0352336Y0283051D01*
X0352183Y0283039D01*
X0352030Y0283031D01*
X0351877Y0283027D01*
X0351723Y0283027D01*
X0351570Y0283031D01*
X0351417Y0283039D01*
X0351264Y0283051D01*
X0351112Y0283067D01*
X0350959Y0283087D01*
X0350808Y0283111D01*
X0350657Y0283139D01*
X0350507Y0283170D01*
X0350358Y0283206D01*
X0350210Y0283245D01*
X0350063Y0283288D01*
X0349917Y0283335D01*
X0349772Y0283386D01*
X0349629Y0283441D01*
X0349487Y0283499D01*
X0349347Y0283561D01*
X0349208Y0283626D01*
X0349071Y0283695D01*
X0348936Y0283768D01*
X0348803Y0283844D01*
X0348672Y0283924D01*
X0348543Y0284006D01*
X0348416Y0284093D01*
X0348291Y0284182D01*
X0348169Y0284275D01*
X0348050Y0284371D01*
X0347932Y0284470D01*
X0347818Y0284571D01*
X0347706Y0284676D01*
X0347597Y0284784D01*
X0347491Y0284895D01*
X0347387Y0285008D01*
X0347287Y0285124D01*
X0347189Y0285242D01*
X0347095Y0285363D01*
X0347004Y0285486D01*
X0346916Y0285612D01*
X0346832Y0285740D01*
X0346750Y0285870D01*
X0346673Y0286002D01*
X0346598Y0286136D01*
X0346527Y0286272D01*
X0346460Y0286410D01*
X0346396Y0286550D01*
X0346336Y0286691D01*
X0346280Y0286833D01*
X0346227Y0286977D01*
X0346178Y0287123D01*
X0346133Y0287269D01*
X0346092Y0287417D01*
X0346055Y0287565D01*
X0346021Y0287715D01*
X0345991Y0287866D01*
X0345966Y0288017D01*
X0345944Y0288168D01*
X0345926Y0288321D01*
X0345912Y0288473D01*
X0345902Y0288626D01*
X0345896Y0288780D01*
X0345894Y0288933D01*
X0345894Y0073933D02*
X0345896Y0074086D01*
X0345902Y0074240D01*
X0345912Y0074393D01*
X0345926Y0074545D01*
X0345944Y0074698D01*
X0345966Y0074849D01*
X0345991Y0075000D01*
X0346021Y0075151D01*
X0346055Y0075301D01*
X0346092Y0075449D01*
X0346133Y0075597D01*
X0346178Y0075743D01*
X0346227Y0075889D01*
X0346280Y0076033D01*
X0346336Y0076175D01*
X0346396Y0076316D01*
X0346460Y0076456D01*
X0346527Y0076594D01*
X0346598Y0076730D01*
X0346673Y0076864D01*
X0346750Y0076996D01*
X0346832Y0077126D01*
X0346916Y0077254D01*
X0347004Y0077380D01*
X0347095Y0077503D01*
X0347189Y0077624D01*
X0347287Y0077742D01*
X0347387Y0077858D01*
X0347491Y0077971D01*
X0347597Y0078082D01*
X0347706Y0078190D01*
X0347818Y0078295D01*
X0347932Y0078396D01*
X0348050Y0078495D01*
X0348169Y0078591D01*
X0348291Y0078684D01*
X0348416Y0078773D01*
X0348543Y0078860D01*
X0348672Y0078942D01*
X0348803Y0079022D01*
X0348936Y0079098D01*
X0349071Y0079171D01*
X0349208Y0079240D01*
X0349347Y0079305D01*
X0349487Y0079367D01*
X0349629Y0079425D01*
X0349772Y0079480D01*
X0349917Y0079531D01*
X0350063Y0079578D01*
X0350210Y0079621D01*
X0350358Y0079660D01*
X0350507Y0079696D01*
X0350657Y0079727D01*
X0350808Y0079755D01*
X0350959Y0079779D01*
X0351112Y0079799D01*
X0351264Y0079815D01*
X0351417Y0079827D01*
X0351570Y0079835D01*
X0351723Y0079839D01*
X0351877Y0079839D01*
X0352030Y0079835D01*
X0352183Y0079827D01*
X0352336Y0079815D01*
X0352488Y0079799D01*
X0352641Y0079779D01*
X0352792Y0079755D01*
X0352943Y0079727D01*
X0353093Y0079696D01*
X0353242Y0079660D01*
X0353390Y0079621D01*
X0353537Y0079578D01*
X0353683Y0079531D01*
X0353828Y0079480D01*
X0353971Y0079425D01*
X0354113Y0079367D01*
X0354253Y0079305D01*
X0354392Y0079240D01*
X0354529Y0079171D01*
X0354664Y0079098D01*
X0354797Y0079022D01*
X0354928Y0078942D01*
X0355057Y0078860D01*
X0355184Y0078773D01*
X0355309Y0078684D01*
X0355431Y0078591D01*
X0355550Y0078495D01*
X0355668Y0078396D01*
X0355782Y0078295D01*
X0355894Y0078190D01*
X0356003Y0078082D01*
X0356109Y0077971D01*
X0356213Y0077858D01*
X0356313Y0077742D01*
X0356411Y0077624D01*
X0356505Y0077503D01*
X0356596Y0077380D01*
X0356684Y0077254D01*
X0356768Y0077126D01*
X0356850Y0076996D01*
X0356927Y0076864D01*
X0357002Y0076730D01*
X0357073Y0076594D01*
X0357140Y0076456D01*
X0357204Y0076316D01*
X0357264Y0076175D01*
X0357320Y0076033D01*
X0357373Y0075889D01*
X0357422Y0075743D01*
X0357467Y0075597D01*
X0357508Y0075449D01*
X0357545Y0075301D01*
X0357579Y0075151D01*
X0357609Y0075000D01*
X0357634Y0074849D01*
X0357656Y0074698D01*
X0357674Y0074545D01*
X0357688Y0074393D01*
X0357698Y0074240D01*
X0357704Y0074086D01*
X0357706Y0073933D01*
X0357704Y0073780D01*
X0357698Y0073626D01*
X0357688Y0073473D01*
X0357674Y0073321D01*
X0357656Y0073168D01*
X0357634Y0073017D01*
X0357609Y0072866D01*
X0357579Y0072715D01*
X0357545Y0072565D01*
X0357508Y0072417D01*
X0357467Y0072269D01*
X0357422Y0072123D01*
X0357373Y0071977D01*
X0357320Y0071833D01*
X0357264Y0071691D01*
X0357204Y0071550D01*
X0357140Y0071410D01*
X0357073Y0071272D01*
X0357002Y0071136D01*
X0356927Y0071002D01*
X0356850Y0070870D01*
X0356768Y0070740D01*
X0356684Y0070612D01*
X0356596Y0070486D01*
X0356505Y0070363D01*
X0356411Y0070242D01*
X0356313Y0070124D01*
X0356213Y0070008D01*
X0356109Y0069895D01*
X0356003Y0069784D01*
X0355894Y0069676D01*
X0355782Y0069571D01*
X0355668Y0069470D01*
X0355550Y0069371D01*
X0355431Y0069275D01*
X0355309Y0069182D01*
X0355184Y0069093D01*
X0355057Y0069006D01*
X0354928Y0068924D01*
X0354797Y0068844D01*
X0354664Y0068768D01*
X0354529Y0068695D01*
X0354392Y0068626D01*
X0354253Y0068561D01*
X0354113Y0068499D01*
X0353971Y0068441D01*
X0353828Y0068386D01*
X0353683Y0068335D01*
X0353537Y0068288D01*
X0353390Y0068245D01*
X0353242Y0068206D01*
X0353093Y0068170D01*
X0352943Y0068139D01*
X0352792Y0068111D01*
X0352641Y0068087D01*
X0352488Y0068067D01*
X0352336Y0068051D01*
X0352183Y0068039D01*
X0352030Y0068031D01*
X0351877Y0068027D01*
X0351723Y0068027D01*
X0351570Y0068031D01*
X0351417Y0068039D01*
X0351264Y0068051D01*
X0351112Y0068067D01*
X0350959Y0068087D01*
X0350808Y0068111D01*
X0350657Y0068139D01*
X0350507Y0068170D01*
X0350358Y0068206D01*
X0350210Y0068245D01*
X0350063Y0068288D01*
X0349917Y0068335D01*
X0349772Y0068386D01*
X0349629Y0068441D01*
X0349487Y0068499D01*
X0349347Y0068561D01*
X0349208Y0068626D01*
X0349071Y0068695D01*
X0348936Y0068768D01*
X0348803Y0068844D01*
X0348672Y0068924D01*
X0348543Y0069006D01*
X0348416Y0069093D01*
X0348291Y0069182D01*
X0348169Y0069275D01*
X0348050Y0069371D01*
X0347932Y0069470D01*
X0347818Y0069571D01*
X0347706Y0069676D01*
X0347597Y0069784D01*
X0347491Y0069895D01*
X0347387Y0070008D01*
X0347287Y0070124D01*
X0347189Y0070242D01*
X0347095Y0070363D01*
X0347004Y0070486D01*
X0346916Y0070612D01*
X0346832Y0070740D01*
X0346750Y0070870D01*
X0346673Y0071002D01*
X0346598Y0071136D01*
X0346527Y0071272D01*
X0346460Y0071410D01*
X0346396Y0071550D01*
X0346336Y0071691D01*
X0346280Y0071833D01*
X0346227Y0071977D01*
X0346178Y0072123D01*
X0346133Y0072269D01*
X0346092Y0072417D01*
X0346055Y0072565D01*
X0346021Y0072715D01*
X0345991Y0072866D01*
X0345966Y0073017D01*
X0345944Y0073168D01*
X0345926Y0073321D01*
X0345912Y0073473D01*
X0345902Y0073626D01*
X0345896Y0073780D01*
X0345894Y0073933D01*
D11*
X0256032Y0280764D03*
X0247568Y0280764D03*
X0247568Y0297102D03*
X0256032Y0297102D03*
X0186032Y0297102D03*
X0177568Y0297102D03*
X0177568Y0280764D03*
X0186032Y0280764D03*
D12*
X0191800Y0252378D03*
X0191800Y0245488D03*
X0241800Y0245488D03*
X0241800Y0252378D03*
X0236800Y0202378D03*
X0236800Y0195488D03*
D13*
X0137706Y0108933D03*
X0125894Y0108933D03*
D14*
X0261800Y0104780D03*
X0261800Y0098087D03*
D15*
X0135146Y0123933D03*
X0128454Y0123933D03*
X0291800Y0290587D03*
X0291800Y0297280D03*
D16*
X0276800Y0297378D03*
X0276800Y0290488D03*
X0261800Y0287378D03*
X0261800Y0280488D03*
X0221800Y0274878D03*
X0216800Y0274878D03*
X0211800Y0274878D03*
X0206800Y0274878D03*
X0206800Y0267988D03*
X0211800Y0267988D03*
X0216800Y0267988D03*
X0221800Y0267988D03*
X0254300Y0242319D03*
X0259300Y0242319D03*
X0264300Y0242319D03*
X0269300Y0242319D03*
X0171800Y0280488D03*
X0171800Y0287378D03*
X0151800Y0277378D03*
X0151800Y0270488D03*
X0131800Y0270488D03*
X0131800Y0277378D03*
X0276800Y0112378D03*
X0276800Y0105488D03*
X0286800Y0105488D03*
X0286800Y0112378D03*
D17*
X0277036Y0093933D03*
X0326800Y0159169D03*
X0101800Y0188697D03*
D18*
X0101800Y0178854D03*
X0101800Y0169012D03*
X0101800Y0159169D03*
X0286879Y0093933D03*
X0296721Y0093933D03*
X0306564Y0093933D03*
X0326800Y0169012D03*
X0326800Y0178854D03*
X0326800Y0188697D03*
D19*
X0231800Y0270587D03*
X0231800Y0277280D03*
D20*
X0228050Y0260270D03*
X0225550Y0260270D03*
X0223050Y0260270D03*
X0220550Y0260270D03*
X0218050Y0260270D03*
X0215550Y0260270D03*
X0213050Y0260270D03*
X0210550Y0260270D03*
X0208050Y0260270D03*
X0205550Y0260270D03*
X0205550Y0237596D03*
X0208050Y0237596D03*
X0210550Y0237596D03*
X0213050Y0237596D03*
X0215550Y0237596D03*
X0218050Y0237596D03*
X0220550Y0237596D03*
X0223050Y0237596D03*
X0225550Y0237596D03*
X0228050Y0237596D03*
D21*
X0221918Y0283402D03*
X0219359Y0283402D03*
X0216800Y0283402D03*
X0214241Y0283402D03*
X0211682Y0283402D03*
D22*
X0204595Y0283894D03*
X0229005Y0283894D03*
D23*
X0232548Y0293933D03*
X0201052Y0293933D03*
D24*
X0212076Y0293933D03*
X0221524Y0293933D03*
D25*
X0276800Y0283067D03*
X0276800Y0274799D03*
X0291800Y0274799D03*
X0291800Y0283067D03*
X0151800Y0284799D03*
X0151800Y0293067D03*
X0131800Y0293067D03*
X0131800Y0284799D03*
D26*
X0202755Y0214228D03*
X0205314Y0214228D03*
X0207873Y0214228D03*
X0210432Y0214228D03*
X0212991Y0214228D03*
X0215550Y0214228D03*
X0218109Y0214228D03*
X0220668Y0214228D03*
X0223227Y0214228D03*
X0225786Y0214228D03*
X0228345Y0214228D03*
X0230904Y0214228D03*
X0230845Y0183520D03*
X0228286Y0183520D03*
X0225727Y0183520D03*
X0223168Y0183520D03*
X0220609Y0183520D03*
X0218050Y0183520D03*
X0215491Y0183520D03*
X0212932Y0183520D03*
X0210373Y0183520D03*
X0207814Y0183520D03*
X0205255Y0183520D03*
X0202696Y0183520D03*
D27*
X0086800Y0218933D03*
X0086800Y0253933D03*
X0116800Y0078933D03*
X0151800Y0078933D03*
X0341800Y0218933D03*
X0341800Y0253933D03*
D28*
X0351800Y0288933D03*
X0351800Y0073933D03*
X0076800Y0073933D03*
X0076800Y0288933D03*
D29*
X0254300Y0264760D03*
X0259300Y0264760D03*
X0264300Y0264760D03*
X0269300Y0264760D03*
D30*
X0252233Y0163618D03*
X0252233Y0158618D03*
X0252233Y0153618D03*
X0252233Y0148618D03*
X0252233Y0143618D03*
X0252233Y0138618D03*
X0252233Y0133618D03*
X0252233Y0128618D03*
X0252233Y0123618D03*
X0252233Y0118618D03*
X0252233Y0113618D03*
X0252233Y0108618D03*
X0252233Y0103618D03*
X0252233Y0098618D03*
X0181367Y0098618D03*
X0181367Y0103618D03*
X0181367Y0108618D03*
X0181367Y0113618D03*
X0181367Y0118618D03*
X0181367Y0123618D03*
X0181367Y0128618D03*
X0181367Y0133618D03*
X0181367Y0138618D03*
X0181367Y0143618D03*
X0181367Y0148618D03*
X0181367Y0153618D03*
X0181367Y0158618D03*
X0181367Y0163618D03*
D31*
X0194300Y0169484D03*
X0199300Y0169484D03*
X0204300Y0169484D03*
X0209300Y0169484D03*
X0214300Y0169484D03*
X0219300Y0169484D03*
X0224300Y0169484D03*
X0229300Y0169484D03*
X0234300Y0169484D03*
X0239300Y0169484D03*
D32*
X0216800Y0128933D03*
M02*
