G75*
%MOIN*%
%OFA0B0*%
%FSLAX25Y25*%
%IPPOS*%
%LPD*%
%AMOC8*
5,1,8,0,0,1.08239X$1,22.5*
%
%ADD10C,0.00000*%
%ADD11R,0.05906X0.05118*%
%ADD12R,0.06000X0.06000*%
%ADD13C,0.06000*%
%ADD14R,0.03346X0.04134*%
%ADD15R,0.02756X0.04724*%
%ADD16R,0.03937X0.05512*%
%ADD17R,0.05906X0.07480*%
%ADD18R,0.04724X0.11024*%
%ADD19R,0.04724X0.03150*%
%ADD20R,0.04724X0.04724*%
%ADD21C,0.05320*%
%ADD22C,0.00907*%
%ADD23C,0.05000*%
%ADD24C,0.02578*%
%ADD25C,0.00600*%
%ADD26C,0.02000*%
%ADD27C,0.01600*%
D10*
X0076800Y0058933D02*
X0351800Y0058933D01*
X0352042Y0058936D01*
X0352283Y0058945D01*
X0352524Y0058959D01*
X0352765Y0058980D01*
X0353005Y0059006D01*
X0353245Y0059038D01*
X0353484Y0059076D01*
X0353721Y0059119D01*
X0353958Y0059169D01*
X0354193Y0059224D01*
X0354427Y0059284D01*
X0354659Y0059351D01*
X0354890Y0059422D01*
X0355119Y0059500D01*
X0355346Y0059583D01*
X0355571Y0059671D01*
X0355794Y0059765D01*
X0356014Y0059864D01*
X0356232Y0059969D01*
X0356447Y0060078D01*
X0356660Y0060193D01*
X0356870Y0060313D01*
X0357076Y0060438D01*
X0357280Y0060568D01*
X0357481Y0060703D01*
X0357678Y0060843D01*
X0357872Y0060987D01*
X0358062Y0061136D01*
X0358248Y0061290D01*
X0358431Y0061448D01*
X0358610Y0061610D01*
X0358785Y0061777D01*
X0358956Y0061948D01*
X0359123Y0062123D01*
X0359285Y0062302D01*
X0359443Y0062485D01*
X0359597Y0062671D01*
X0359746Y0062861D01*
X0359890Y0063055D01*
X0360030Y0063252D01*
X0360165Y0063453D01*
X0360295Y0063657D01*
X0360420Y0063863D01*
X0360540Y0064073D01*
X0360655Y0064286D01*
X0360764Y0064501D01*
X0360869Y0064719D01*
X0360968Y0064939D01*
X0361062Y0065162D01*
X0361150Y0065387D01*
X0361233Y0065614D01*
X0361311Y0065843D01*
X0361382Y0066074D01*
X0361449Y0066306D01*
X0361509Y0066540D01*
X0361564Y0066775D01*
X0361614Y0067012D01*
X0361657Y0067249D01*
X0361695Y0067488D01*
X0361727Y0067728D01*
X0361753Y0067968D01*
X0361774Y0068209D01*
X0361788Y0068450D01*
X0361797Y0068691D01*
X0361800Y0068933D01*
X0361800Y0293933D01*
X0361797Y0294175D01*
X0361788Y0294416D01*
X0361774Y0294657D01*
X0361753Y0294898D01*
X0361727Y0295138D01*
X0361695Y0295378D01*
X0361657Y0295617D01*
X0361614Y0295854D01*
X0361564Y0296091D01*
X0361509Y0296326D01*
X0361449Y0296560D01*
X0361382Y0296792D01*
X0361311Y0297023D01*
X0361233Y0297252D01*
X0361150Y0297479D01*
X0361062Y0297704D01*
X0360968Y0297927D01*
X0360869Y0298147D01*
X0360764Y0298365D01*
X0360655Y0298580D01*
X0360540Y0298793D01*
X0360420Y0299003D01*
X0360295Y0299209D01*
X0360165Y0299413D01*
X0360030Y0299614D01*
X0359890Y0299811D01*
X0359746Y0300005D01*
X0359597Y0300195D01*
X0359443Y0300381D01*
X0359285Y0300564D01*
X0359123Y0300743D01*
X0358956Y0300918D01*
X0358785Y0301089D01*
X0358610Y0301256D01*
X0358431Y0301418D01*
X0358248Y0301576D01*
X0358062Y0301730D01*
X0357872Y0301879D01*
X0357678Y0302023D01*
X0357481Y0302163D01*
X0357280Y0302298D01*
X0357076Y0302428D01*
X0356870Y0302553D01*
X0356660Y0302673D01*
X0356447Y0302788D01*
X0356232Y0302897D01*
X0356014Y0303002D01*
X0355794Y0303101D01*
X0355571Y0303195D01*
X0355346Y0303283D01*
X0355119Y0303366D01*
X0354890Y0303444D01*
X0354659Y0303515D01*
X0354427Y0303582D01*
X0354193Y0303642D01*
X0353958Y0303697D01*
X0353721Y0303747D01*
X0353484Y0303790D01*
X0353245Y0303828D01*
X0353005Y0303860D01*
X0352765Y0303886D01*
X0352524Y0303907D01*
X0352283Y0303921D01*
X0352042Y0303930D01*
X0351800Y0303933D01*
X0076800Y0303933D01*
X0076558Y0303930D01*
X0076317Y0303921D01*
X0076076Y0303907D01*
X0075835Y0303886D01*
X0075595Y0303860D01*
X0075355Y0303828D01*
X0075116Y0303790D01*
X0074879Y0303747D01*
X0074642Y0303697D01*
X0074407Y0303642D01*
X0074173Y0303582D01*
X0073941Y0303515D01*
X0073710Y0303444D01*
X0073481Y0303366D01*
X0073254Y0303283D01*
X0073029Y0303195D01*
X0072806Y0303101D01*
X0072586Y0303002D01*
X0072368Y0302897D01*
X0072153Y0302788D01*
X0071940Y0302673D01*
X0071730Y0302553D01*
X0071524Y0302428D01*
X0071320Y0302298D01*
X0071119Y0302163D01*
X0070922Y0302023D01*
X0070728Y0301879D01*
X0070538Y0301730D01*
X0070352Y0301576D01*
X0070169Y0301418D01*
X0069990Y0301256D01*
X0069815Y0301089D01*
X0069644Y0300918D01*
X0069477Y0300743D01*
X0069315Y0300564D01*
X0069157Y0300381D01*
X0069003Y0300195D01*
X0068854Y0300005D01*
X0068710Y0299811D01*
X0068570Y0299614D01*
X0068435Y0299413D01*
X0068305Y0299209D01*
X0068180Y0299003D01*
X0068060Y0298793D01*
X0067945Y0298580D01*
X0067836Y0298365D01*
X0067731Y0298147D01*
X0067632Y0297927D01*
X0067538Y0297704D01*
X0067450Y0297479D01*
X0067367Y0297252D01*
X0067289Y0297023D01*
X0067218Y0296792D01*
X0067151Y0296560D01*
X0067091Y0296326D01*
X0067036Y0296091D01*
X0066986Y0295854D01*
X0066943Y0295617D01*
X0066905Y0295378D01*
X0066873Y0295138D01*
X0066847Y0294898D01*
X0066826Y0294657D01*
X0066812Y0294416D01*
X0066803Y0294175D01*
X0066800Y0293933D01*
X0066800Y0068933D01*
X0066803Y0068691D01*
X0066812Y0068450D01*
X0066826Y0068209D01*
X0066847Y0067968D01*
X0066873Y0067728D01*
X0066905Y0067488D01*
X0066943Y0067249D01*
X0066986Y0067012D01*
X0067036Y0066775D01*
X0067091Y0066540D01*
X0067151Y0066306D01*
X0067218Y0066074D01*
X0067289Y0065843D01*
X0067367Y0065614D01*
X0067450Y0065387D01*
X0067538Y0065162D01*
X0067632Y0064939D01*
X0067731Y0064719D01*
X0067836Y0064501D01*
X0067945Y0064286D01*
X0068060Y0064073D01*
X0068180Y0063863D01*
X0068305Y0063657D01*
X0068435Y0063453D01*
X0068570Y0063252D01*
X0068710Y0063055D01*
X0068854Y0062861D01*
X0069003Y0062671D01*
X0069157Y0062485D01*
X0069315Y0062302D01*
X0069477Y0062123D01*
X0069644Y0061948D01*
X0069815Y0061777D01*
X0069990Y0061610D01*
X0070169Y0061448D01*
X0070352Y0061290D01*
X0070538Y0061136D01*
X0070728Y0060987D01*
X0070922Y0060843D01*
X0071119Y0060703D01*
X0071320Y0060568D01*
X0071524Y0060438D01*
X0071730Y0060313D01*
X0071940Y0060193D01*
X0072153Y0060078D01*
X0072368Y0059969D01*
X0072586Y0059864D01*
X0072806Y0059765D01*
X0073029Y0059671D01*
X0073254Y0059583D01*
X0073481Y0059500D01*
X0073710Y0059422D01*
X0073941Y0059351D01*
X0074173Y0059284D01*
X0074407Y0059224D01*
X0074642Y0059169D01*
X0074879Y0059119D01*
X0075116Y0059076D01*
X0075355Y0059038D01*
X0075595Y0059006D01*
X0075835Y0058980D01*
X0076076Y0058959D01*
X0076317Y0058945D01*
X0076558Y0058936D01*
X0076800Y0058933D01*
X0070894Y0073933D02*
X0070896Y0074086D01*
X0070902Y0074240D01*
X0070912Y0074393D01*
X0070926Y0074545D01*
X0070944Y0074698D01*
X0070966Y0074849D01*
X0070991Y0075000D01*
X0071021Y0075151D01*
X0071055Y0075301D01*
X0071092Y0075449D01*
X0071133Y0075597D01*
X0071178Y0075743D01*
X0071227Y0075889D01*
X0071280Y0076033D01*
X0071336Y0076175D01*
X0071396Y0076316D01*
X0071460Y0076456D01*
X0071527Y0076594D01*
X0071598Y0076730D01*
X0071673Y0076864D01*
X0071750Y0076996D01*
X0071832Y0077126D01*
X0071916Y0077254D01*
X0072004Y0077380D01*
X0072095Y0077503D01*
X0072189Y0077624D01*
X0072287Y0077742D01*
X0072387Y0077858D01*
X0072491Y0077971D01*
X0072597Y0078082D01*
X0072706Y0078190D01*
X0072818Y0078295D01*
X0072932Y0078396D01*
X0073050Y0078495D01*
X0073169Y0078591D01*
X0073291Y0078684D01*
X0073416Y0078773D01*
X0073543Y0078860D01*
X0073672Y0078942D01*
X0073803Y0079022D01*
X0073936Y0079098D01*
X0074071Y0079171D01*
X0074208Y0079240D01*
X0074347Y0079305D01*
X0074487Y0079367D01*
X0074629Y0079425D01*
X0074772Y0079480D01*
X0074917Y0079531D01*
X0075063Y0079578D01*
X0075210Y0079621D01*
X0075358Y0079660D01*
X0075507Y0079696D01*
X0075657Y0079727D01*
X0075808Y0079755D01*
X0075959Y0079779D01*
X0076112Y0079799D01*
X0076264Y0079815D01*
X0076417Y0079827D01*
X0076570Y0079835D01*
X0076723Y0079839D01*
X0076877Y0079839D01*
X0077030Y0079835D01*
X0077183Y0079827D01*
X0077336Y0079815D01*
X0077488Y0079799D01*
X0077641Y0079779D01*
X0077792Y0079755D01*
X0077943Y0079727D01*
X0078093Y0079696D01*
X0078242Y0079660D01*
X0078390Y0079621D01*
X0078537Y0079578D01*
X0078683Y0079531D01*
X0078828Y0079480D01*
X0078971Y0079425D01*
X0079113Y0079367D01*
X0079253Y0079305D01*
X0079392Y0079240D01*
X0079529Y0079171D01*
X0079664Y0079098D01*
X0079797Y0079022D01*
X0079928Y0078942D01*
X0080057Y0078860D01*
X0080184Y0078773D01*
X0080309Y0078684D01*
X0080431Y0078591D01*
X0080550Y0078495D01*
X0080668Y0078396D01*
X0080782Y0078295D01*
X0080894Y0078190D01*
X0081003Y0078082D01*
X0081109Y0077971D01*
X0081213Y0077858D01*
X0081313Y0077742D01*
X0081411Y0077624D01*
X0081505Y0077503D01*
X0081596Y0077380D01*
X0081684Y0077254D01*
X0081768Y0077126D01*
X0081850Y0076996D01*
X0081927Y0076864D01*
X0082002Y0076730D01*
X0082073Y0076594D01*
X0082140Y0076456D01*
X0082204Y0076316D01*
X0082264Y0076175D01*
X0082320Y0076033D01*
X0082373Y0075889D01*
X0082422Y0075743D01*
X0082467Y0075597D01*
X0082508Y0075449D01*
X0082545Y0075301D01*
X0082579Y0075151D01*
X0082609Y0075000D01*
X0082634Y0074849D01*
X0082656Y0074698D01*
X0082674Y0074545D01*
X0082688Y0074393D01*
X0082698Y0074240D01*
X0082704Y0074086D01*
X0082706Y0073933D01*
X0082704Y0073780D01*
X0082698Y0073626D01*
X0082688Y0073473D01*
X0082674Y0073321D01*
X0082656Y0073168D01*
X0082634Y0073017D01*
X0082609Y0072866D01*
X0082579Y0072715D01*
X0082545Y0072565D01*
X0082508Y0072417D01*
X0082467Y0072269D01*
X0082422Y0072123D01*
X0082373Y0071977D01*
X0082320Y0071833D01*
X0082264Y0071691D01*
X0082204Y0071550D01*
X0082140Y0071410D01*
X0082073Y0071272D01*
X0082002Y0071136D01*
X0081927Y0071002D01*
X0081850Y0070870D01*
X0081768Y0070740D01*
X0081684Y0070612D01*
X0081596Y0070486D01*
X0081505Y0070363D01*
X0081411Y0070242D01*
X0081313Y0070124D01*
X0081213Y0070008D01*
X0081109Y0069895D01*
X0081003Y0069784D01*
X0080894Y0069676D01*
X0080782Y0069571D01*
X0080668Y0069470D01*
X0080550Y0069371D01*
X0080431Y0069275D01*
X0080309Y0069182D01*
X0080184Y0069093D01*
X0080057Y0069006D01*
X0079928Y0068924D01*
X0079797Y0068844D01*
X0079664Y0068768D01*
X0079529Y0068695D01*
X0079392Y0068626D01*
X0079253Y0068561D01*
X0079113Y0068499D01*
X0078971Y0068441D01*
X0078828Y0068386D01*
X0078683Y0068335D01*
X0078537Y0068288D01*
X0078390Y0068245D01*
X0078242Y0068206D01*
X0078093Y0068170D01*
X0077943Y0068139D01*
X0077792Y0068111D01*
X0077641Y0068087D01*
X0077488Y0068067D01*
X0077336Y0068051D01*
X0077183Y0068039D01*
X0077030Y0068031D01*
X0076877Y0068027D01*
X0076723Y0068027D01*
X0076570Y0068031D01*
X0076417Y0068039D01*
X0076264Y0068051D01*
X0076112Y0068067D01*
X0075959Y0068087D01*
X0075808Y0068111D01*
X0075657Y0068139D01*
X0075507Y0068170D01*
X0075358Y0068206D01*
X0075210Y0068245D01*
X0075063Y0068288D01*
X0074917Y0068335D01*
X0074772Y0068386D01*
X0074629Y0068441D01*
X0074487Y0068499D01*
X0074347Y0068561D01*
X0074208Y0068626D01*
X0074071Y0068695D01*
X0073936Y0068768D01*
X0073803Y0068844D01*
X0073672Y0068924D01*
X0073543Y0069006D01*
X0073416Y0069093D01*
X0073291Y0069182D01*
X0073169Y0069275D01*
X0073050Y0069371D01*
X0072932Y0069470D01*
X0072818Y0069571D01*
X0072706Y0069676D01*
X0072597Y0069784D01*
X0072491Y0069895D01*
X0072387Y0070008D01*
X0072287Y0070124D01*
X0072189Y0070242D01*
X0072095Y0070363D01*
X0072004Y0070486D01*
X0071916Y0070612D01*
X0071832Y0070740D01*
X0071750Y0070870D01*
X0071673Y0071002D01*
X0071598Y0071136D01*
X0071527Y0071272D01*
X0071460Y0071410D01*
X0071396Y0071550D01*
X0071336Y0071691D01*
X0071280Y0071833D01*
X0071227Y0071977D01*
X0071178Y0072123D01*
X0071133Y0072269D01*
X0071092Y0072417D01*
X0071055Y0072565D01*
X0071021Y0072715D01*
X0070991Y0072866D01*
X0070966Y0073017D01*
X0070944Y0073168D01*
X0070926Y0073321D01*
X0070912Y0073473D01*
X0070902Y0073626D01*
X0070896Y0073780D01*
X0070894Y0073933D01*
X0070894Y0288933D02*
X0070896Y0289086D01*
X0070902Y0289240D01*
X0070912Y0289393D01*
X0070926Y0289545D01*
X0070944Y0289698D01*
X0070966Y0289849D01*
X0070991Y0290000D01*
X0071021Y0290151D01*
X0071055Y0290301D01*
X0071092Y0290449D01*
X0071133Y0290597D01*
X0071178Y0290743D01*
X0071227Y0290889D01*
X0071280Y0291033D01*
X0071336Y0291175D01*
X0071396Y0291316D01*
X0071460Y0291456D01*
X0071527Y0291594D01*
X0071598Y0291730D01*
X0071673Y0291864D01*
X0071750Y0291996D01*
X0071832Y0292126D01*
X0071916Y0292254D01*
X0072004Y0292380D01*
X0072095Y0292503D01*
X0072189Y0292624D01*
X0072287Y0292742D01*
X0072387Y0292858D01*
X0072491Y0292971D01*
X0072597Y0293082D01*
X0072706Y0293190D01*
X0072818Y0293295D01*
X0072932Y0293396D01*
X0073050Y0293495D01*
X0073169Y0293591D01*
X0073291Y0293684D01*
X0073416Y0293773D01*
X0073543Y0293860D01*
X0073672Y0293942D01*
X0073803Y0294022D01*
X0073936Y0294098D01*
X0074071Y0294171D01*
X0074208Y0294240D01*
X0074347Y0294305D01*
X0074487Y0294367D01*
X0074629Y0294425D01*
X0074772Y0294480D01*
X0074917Y0294531D01*
X0075063Y0294578D01*
X0075210Y0294621D01*
X0075358Y0294660D01*
X0075507Y0294696D01*
X0075657Y0294727D01*
X0075808Y0294755D01*
X0075959Y0294779D01*
X0076112Y0294799D01*
X0076264Y0294815D01*
X0076417Y0294827D01*
X0076570Y0294835D01*
X0076723Y0294839D01*
X0076877Y0294839D01*
X0077030Y0294835D01*
X0077183Y0294827D01*
X0077336Y0294815D01*
X0077488Y0294799D01*
X0077641Y0294779D01*
X0077792Y0294755D01*
X0077943Y0294727D01*
X0078093Y0294696D01*
X0078242Y0294660D01*
X0078390Y0294621D01*
X0078537Y0294578D01*
X0078683Y0294531D01*
X0078828Y0294480D01*
X0078971Y0294425D01*
X0079113Y0294367D01*
X0079253Y0294305D01*
X0079392Y0294240D01*
X0079529Y0294171D01*
X0079664Y0294098D01*
X0079797Y0294022D01*
X0079928Y0293942D01*
X0080057Y0293860D01*
X0080184Y0293773D01*
X0080309Y0293684D01*
X0080431Y0293591D01*
X0080550Y0293495D01*
X0080668Y0293396D01*
X0080782Y0293295D01*
X0080894Y0293190D01*
X0081003Y0293082D01*
X0081109Y0292971D01*
X0081213Y0292858D01*
X0081313Y0292742D01*
X0081411Y0292624D01*
X0081505Y0292503D01*
X0081596Y0292380D01*
X0081684Y0292254D01*
X0081768Y0292126D01*
X0081850Y0291996D01*
X0081927Y0291864D01*
X0082002Y0291730D01*
X0082073Y0291594D01*
X0082140Y0291456D01*
X0082204Y0291316D01*
X0082264Y0291175D01*
X0082320Y0291033D01*
X0082373Y0290889D01*
X0082422Y0290743D01*
X0082467Y0290597D01*
X0082508Y0290449D01*
X0082545Y0290301D01*
X0082579Y0290151D01*
X0082609Y0290000D01*
X0082634Y0289849D01*
X0082656Y0289698D01*
X0082674Y0289545D01*
X0082688Y0289393D01*
X0082698Y0289240D01*
X0082704Y0289086D01*
X0082706Y0288933D01*
X0082704Y0288780D01*
X0082698Y0288626D01*
X0082688Y0288473D01*
X0082674Y0288321D01*
X0082656Y0288168D01*
X0082634Y0288017D01*
X0082609Y0287866D01*
X0082579Y0287715D01*
X0082545Y0287565D01*
X0082508Y0287417D01*
X0082467Y0287269D01*
X0082422Y0287123D01*
X0082373Y0286977D01*
X0082320Y0286833D01*
X0082264Y0286691D01*
X0082204Y0286550D01*
X0082140Y0286410D01*
X0082073Y0286272D01*
X0082002Y0286136D01*
X0081927Y0286002D01*
X0081850Y0285870D01*
X0081768Y0285740D01*
X0081684Y0285612D01*
X0081596Y0285486D01*
X0081505Y0285363D01*
X0081411Y0285242D01*
X0081313Y0285124D01*
X0081213Y0285008D01*
X0081109Y0284895D01*
X0081003Y0284784D01*
X0080894Y0284676D01*
X0080782Y0284571D01*
X0080668Y0284470D01*
X0080550Y0284371D01*
X0080431Y0284275D01*
X0080309Y0284182D01*
X0080184Y0284093D01*
X0080057Y0284006D01*
X0079928Y0283924D01*
X0079797Y0283844D01*
X0079664Y0283768D01*
X0079529Y0283695D01*
X0079392Y0283626D01*
X0079253Y0283561D01*
X0079113Y0283499D01*
X0078971Y0283441D01*
X0078828Y0283386D01*
X0078683Y0283335D01*
X0078537Y0283288D01*
X0078390Y0283245D01*
X0078242Y0283206D01*
X0078093Y0283170D01*
X0077943Y0283139D01*
X0077792Y0283111D01*
X0077641Y0283087D01*
X0077488Y0283067D01*
X0077336Y0283051D01*
X0077183Y0283039D01*
X0077030Y0283031D01*
X0076877Y0283027D01*
X0076723Y0283027D01*
X0076570Y0283031D01*
X0076417Y0283039D01*
X0076264Y0283051D01*
X0076112Y0283067D01*
X0075959Y0283087D01*
X0075808Y0283111D01*
X0075657Y0283139D01*
X0075507Y0283170D01*
X0075358Y0283206D01*
X0075210Y0283245D01*
X0075063Y0283288D01*
X0074917Y0283335D01*
X0074772Y0283386D01*
X0074629Y0283441D01*
X0074487Y0283499D01*
X0074347Y0283561D01*
X0074208Y0283626D01*
X0074071Y0283695D01*
X0073936Y0283768D01*
X0073803Y0283844D01*
X0073672Y0283924D01*
X0073543Y0284006D01*
X0073416Y0284093D01*
X0073291Y0284182D01*
X0073169Y0284275D01*
X0073050Y0284371D01*
X0072932Y0284470D01*
X0072818Y0284571D01*
X0072706Y0284676D01*
X0072597Y0284784D01*
X0072491Y0284895D01*
X0072387Y0285008D01*
X0072287Y0285124D01*
X0072189Y0285242D01*
X0072095Y0285363D01*
X0072004Y0285486D01*
X0071916Y0285612D01*
X0071832Y0285740D01*
X0071750Y0285870D01*
X0071673Y0286002D01*
X0071598Y0286136D01*
X0071527Y0286272D01*
X0071460Y0286410D01*
X0071396Y0286550D01*
X0071336Y0286691D01*
X0071280Y0286833D01*
X0071227Y0286977D01*
X0071178Y0287123D01*
X0071133Y0287269D01*
X0071092Y0287417D01*
X0071055Y0287565D01*
X0071021Y0287715D01*
X0070991Y0287866D01*
X0070966Y0288017D01*
X0070944Y0288168D01*
X0070926Y0288321D01*
X0070912Y0288473D01*
X0070902Y0288626D01*
X0070896Y0288780D01*
X0070894Y0288933D01*
X0345894Y0288933D02*
X0345896Y0289086D01*
X0345902Y0289240D01*
X0345912Y0289393D01*
X0345926Y0289545D01*
X0345944Y0289698D01*
X0345966Y0289849D01*
X0345991Y0290000D01*
X0346021Y0290151D01*
X0346055Y0290301D01*
X0346092Y0290449D01*
X0346133Y0290597D01*
X0346178Y0290743D01*
X0346227Y0290889D01*
X0346280Y0291033D01*
X0346336Y0291175D01*
X0346396Y0291316D01*
X0346460Y0291456D01*
X0346527Y0291594D01*
X0346598Y0291730D01*
X0346673Y0291864D01*
X0346750Y0291996D01*
X0346832Y0292126D01*
X0346916Y0292254D01*
X0347004Y0292380D01*
X0347095Y0292503D01*
X0347189Y0292624D01*
X0347287Y0292742D01*
X0347387Y0292858D01*
X0347491Y0292971D01*
X0347597Y0293082D01*
X0347706Y0293190D01*
X0347818Y0293295D01*
X0347932Y0293396D01*
X0348050Y0293495D01*
X0348169Y0293591D01*
X0348291Y0293684D01*
X0348416Y0293773D01*
X0348543Y0293860D01*
X0348672Y0293942D01*
X0348803Y0294022D01*
X0348936Y0294098D01*
X0349071Y0294171D01*
X0349208Y0294240D01*
X0349347Y0294305D01*
X0349487Y0294367D01*
X0349629Y0294425D01*
X0349772Y0294480D01*
X0349917Y0294531D01*
X0350063Y0294578D01*
X0350210Y0294621D01*
X0350358Y0294660D01*
X0350507Y0294696D01*
X0350657Y0294727D01*
X0350808Y0294755D01*
X0350959Y0294779D01*
X0351112Y0294799D01*
X0351264Y0294815D01*
X0351417Y0294827D01*
X0351570Y0294835D01*
X0351723Y0294839D01*
X0351877Y0294839D01*
X0352030Y0294835D01*
X0352183Y0294827D01*
X0352336Y0294815D01*
X0352488Y0294799D01*
X0352641Y0294779D01*
X0352792Y0294755D01*
X0352943Y0294727D01*
X0353093Y0294696D01*
X0353242Y0294660D01*
X0353390Y0294621D01*
X0353537Y0294578D01*
X0353683Y0294531D01*
X0353828Y0294480D01*
X0353971Y0294425D01*
X0354113Y0294367D01*
X0354253Y0294305D01*
X0354392Y0294240D01*
X0354529Y0294171D01*
X0354664Y0294098D01*
X0354797Y0294022D01*
X0354928Y0293942D01*
X0355057Y0293860D01*
X0355184Y0293773D01*
X0355309Y0293684D01*
X0355431Y0293591D01*
X0355550Y0293495D01*
X0355668Y0293396D01*
X0355782Y0293295D01*
X0355894Y0293190D01*
X0356003Y0293082D01*
X0356109Y0292971D01*
X0356213Y0292858D01*
X0356313Y0292742D01*
X0356411Y0292624D01*
X0356505Y0292503D01*
X0356596Y0292380D01*
X0356684Y0292254D01*
X0356768Y0292126D01*
X0356850Y0291996D01*
X0356927Y0291864D01*
X0357002Y0291730D01*
X0357073Y0291594D01*
X0357140Y0291456D01*
X0357204Y0291316D01*
X0357264Y0291175D01*
X0357320Y0291033D01*
X0357373Y0290889D01*
X0357422Y0290743D01*
X0357467Y0290597D01*
X0357508Y0290449D01*
X0357545Y0290301D01*
X0357579Y0290151D01*
X0357609Y0290000D01*
X0357634Y0289849D01*
X0357656Y0289698D01*
X0357674Y0289545D01*
X0357688Y0289393D01*
X0357698Y0289240D01*
X0357704Y0289086D01*
X0357706Y0288933D01*
X0357704Y0288780D01*
X0357698Y0288626D01*
X0357688Y0288473D01*
X0357674Y0288321D01*
X0357656Y0288168D01*
X0357634Y0288017D01*
X0357609Y0287866D01*
X0357579Y0287715D01*
X0357545Y0287565D01*
X0357508Y0287417D01*
X0357467Y0287269D01*
X0357422Y0287123D01*
X0357373Y0286977D01*
X0357320Y0286833D01*
X0357264Y0286691D01*
X0357204Y0286550D01*
X0357140Y0286410D01*
X0357073Y0286272D01*
X0357002Y0286136D01*
X0356927Y0286002D01*
X0356850Y0285870D01*
X0356768Y0285740D01*
X0356684Y0285612D01*
X0356596Y0285486D01*
X0356505Y0285363D01*
X0356411Y0285242D01*
X0356313Y0285124D01*
X0356213Y0285008D01*
X0356109Y0284895D01*
X0356003Y0284784D01*
X0355894Y0284676D01*
X0355782Y0284571D01*
X0355668Y0284470D01*
X0355550Y0284371D01*
X0355431Y0284275D01*
X0355309Y0284182D01*
X0355184Y0284093D01*
X0355057Y0284006D01*
X0354928Y0283924D01*
X0354797Y0283844D01*
X0354664Y0283768D01*
X0354529Y0283695D01*
X0354392Y0283626D01*
X0354253Y0283561D01*
X0354113Y0283499D01*
X0353971Y0283441D01*
X0353828Y0283386D01*
X0353683Y0283335D01*
X0353537Y0283288D01*
X0353390Y0283245D01*
X0353242Y0283206D01*
X0353093Y0283170D01*
X0352943Y0283139D01*
X0352792Y0283111D01*
X0352641Y0283087D01*
X0352488Y0283067D01*
X0352336Y0283051D01*
X0352183Y0283039D01*
X0352030Y0283031D01*
X0351877Y0283027D01*
X0351723Y0283027D01*
X0351570Y0283031D01*
X0351417Y0283039D01*
X0351264Y0283051D01*
X0351112Y0283067D01*
X0350959Y0283087D01*
X0350808Y0283111D01*
X0350657Y0283139D01*
X0350507Y0283170D01*
X0350358Y0283206D01*
X0350210Y0283245D01*
X0350063Y0283288D01*
X0349917Y0283335D01*
X0349772Y0283386D01*
X0349629Y0283441D01*
X0349487Y0283499D01*
X0349347Y0283561D01*
X0349208Y0283626D01*
X0349071Y0283695D01*
X0348936Y0283768D01*
X0348803Y0283844D01*
X0348672Y0283924D01*
X0348543Y0284006D01*
X0348416Y0284093D01*
X0348291Y0284182D01*
X0348169Y0284275D01*
X0348050Y0284371D01*
X0347932Y0284470D01*
X0347818Y0284571D01*
X0347706Y0284676D01*
X0347597Y0284784D01*
X0347491Y0284895D01*
X0347387Y0285008D01*
X0347287Y0285124D01*
X0347189Y0285242D01*
X0347095Y0285363D01*
X0347004Y0285486D01*
X0346916Y0285612D01*
X0346832Y0285740D01*
X0346750Y0285870D01*
X0346673Y0286002D01*
X0346598Y0286136D01*
X0346527Y0286272D01*
X0346460Y0286410D01*
X0346396Y0286550D01*
X0346336Y0286691D01*
X0346280Y0286833D01*
X0346227Y0286977D01*
X0346178Y0287123D01*
X0346133Y0287269D01*
X0346092Y0287417D01*
X0346055Y0287565D01*
X0346021Y0287715D01*
X0345991Y0287866D01*
X0345966Y0288017D01*
X0345944Y0288168D01*
X0345926Y0288321D01*
X0345912Y0288473D01*
X0345902Y0288626D01*
X0345896Y0288780D01*
X0345894Y0288933D01*
X0345894Y0073933D02*
X0345896Y0074086D01*
X0345902Y0074240D01*
X0345912Y0074393D01*
X0345926Y0074545D01*
X0345944Y0074698D01*
X0345966Y0074849D01*
X0345991Y0075000D01*
X0346021Y0075151D01*
X0346055Y0075301D01*
X0346092Y0075449D01*
X0346133Y0075597D01*
X0346178Y0075743D01*
X0346227Y0075889D01*
X0346280Y0076033D01*
X0346336Y0076175D01*
X0346396Y0076316D01*
X0346460Y0076456D01*
X0346527Y0076594D01*
X0346598Y0076730D01*
X0346673Y0076864D01*
X0346750Y0076996D01*
X0346832Y0077126D01*
X0346916Y0077254D01*
X0347004Y0077380D01*
X0347095Y0077503D01*
X0347189Y0077624D01*
X0347287Y0077742D01*
X0347387Y0077858D01*
X0347491Y0077971D01*
X0347597Y0078082D01*
X0347706Y0078190D01*
X0347818Y0078295D01*
X0347932Y0078396D01*
X0348050Y0078495D01*
X0348169Y0078591D01*
X0348291Y0078684D01*
X0348416Y0078773D01*
X0348543Y0078860D01*
X0348672Y0078942D01*
X0348803Y0079022D01*
X0348936Y0079098D01*
X0349071Y0079171D01*
X0349208Y0079240D01*
X0349347Y0079305D01*
X0349487Y0079367D01*
X0349629Y0079425D01*
X0349772Y0079480D01*
X0349917Y0079531D01*
X0350063Y0079578D01*
X0350210Y0079621D01*
X0350358Y0079660D01*
X0350507Y0079696D01*
X0350657Y0079727D01*
X0350808Y0079755D01*
X0350959Y0079779D01*
X0351112Y0079799D01*
X0351264Y0079815D01*
X0351417Y0079827D01*
X0351570Y0079835D01*
X0351723Y0079839D01*
X0351877Y0079839D01*
X0352030Y0079835D01*
X0352183Y0079827D01*
X0352336Y0079815D01*
X0352488Y0079799D01*
X0352641Y0079779D01*
X0352792Y0079755D01*
X0352943Y0079727D01*
X0353093Y0079696D01*
X0353242Y0079660D01*
X0353390Y0079621D01*
X0353537Y0079578D01*
X0353683Y0079531D01*
X0353828Y0079480D01*
X0353971Y0079425D01*
X0354113Y0079367D01*
X0354253Y0079305D01*
X0354392Y0079240D01*
X0354529Y0079171D01*
X0354664Y0079098D01*
X0354797Y0079022D01*
X0354928Y0078942D01*
X0355057Y0078860D01*
X0355184Y0078773D01*
X0355309Y0078684D01*
X0355431Y0078591D01*
X0355550Y0078495D01*
X0355668Y0078396D01*
X0355782Y0078295D01*
X0355894Y0078190D01*
X0356003Y0078082D01*
X0356109Y0077971D01*
X0356213Y0077858D01*
X0356313Y0077742D01*
X0356411Y0077624D01*
X0356505Y0077503D01*
X0356596Y0077380D01*
X0356684Y0077254D01*
X0356768Y0077126D01*
X0356850Y0076996D01*
X0356927Y0076864D01*
X0357002Y0076730D01*
X0357073Y0076594D01*
X0357140Y0076456D01*
X0357204Y0076316D01*
X0357264Y0076175D01*
X0357320Y0076033D01*
X0357373Y0075889D01*
X0357422Y0075743D01*
X0357467Y0075597D01*
X0357508Y0075449D01*
X0357545Y0075301D01*
X0357579Y0075151D01*
X0357609Y0075000D01*
X0357634Y0074849D01*
X0357656Y0074698D01*
X0357674Y0074545D01*
X0357688Y0074393D01*
X0357698Y0074240D01*
X0357704Y0074086D01*
X0357706Y0073933D01*
X0357704Y0073780D01*
X0357698Y0073626D01*
X0357688Y0073473D01*
X0357674Y0073321D01*
X0357656Y0073168D01*
X0357634Y0073017D01*
X0357609Y0072866D01*
X0357579Y0072715D01*
X0357545Y0072565D01*
X0357508Y0072417D01*
X0357467Y0072269D01*
X0357422Y0072123D01*
X0357373Y0071977D01*
X0357320Y0071833D01*
X0357264Y0071691D01*
X0357204Y0071550D01*
X0357140Y0071410D01*
X0357073Y0071272D01*
X0357002Y0071136D01*
X0356927Y0071002D01*
X0356850Y0070870D01*
X0356768Y0070740D01*
X0356684Y0070612D01*
X0356596Y0070486D01*
X0356505Y0070363D01*
X0356411Y0070242D01*
X0356313Y0070124D01*
X0356213Y0070008D01*
X0356109Y0069895D01*
X0356003Y0069784D01*
X0355894Y0069676D01*
X0355782Y0069571D01*
X0355668Y0069470D01*
X0355550Y0069371D01*
X0355431Y0069275D01*
X0355309Y0069182D01*
X0355184Y0069093D01*
X0355057Y0069006D01*
X0354928Y0068924D01*
X0354797Y0068844D01*
X0354664Y0068768D01*
X0354529Y0068695D01*
X0354392Y0068626D01*
X0354253Y0068561D01*
X0354113Y0068499D01*
X0353971Y0068441D01*
X0353828Y0068386D01*
X0353683Y0068335D01*
X0353537Y0068288D01*
X0353390Y0068245D01*
X0353242Y0068206D01*
X0353093Y0068170D01*
X0352943Y0068139D01*
X0352792Y0068111D01*
X0352641Y0068087D01*
X0352488Y0068067D01*
X0352336Y0068051D01*
X0352183Y0068039D01*
X0352030Y0068031D01*
X0351877Y0068027D01*
X0351723Y0068027D01*
X0351570Y0068031D01*
X0351417Y0068039D01*
X0351264Y0068051D01*
X0351112Y0068067D01*
X0350959Y0068087D01*
X0350808Y0068111D01*
X0350657Y0068139D01*
X0350507Y0068170D01*
X0350358Y0068206D01*
X0350210Y0068245D01*
X0350063Y0068288D01*
X0349917Y0068335D01*
X0349772Y0068386D01*
X0349629Y0068441D01*
X0349487Y0068499D01*
X0349347Y0068561D01*
X0349208Y0068626D01*
X0349071Y0068695D01*
X0348936Y0068768D01*
X0348803Y0068844D01*
X0348672Y0068924D01*
X0348543Y0069006D01*
X0348416Y0069093D01*
X0348291Y0069182D01*
X0348169Y0069275D01*
X0348050Y0069371D01*
X0347932Y0069470D01*
X0347818Y0069571D01*
X0347706Y0069676D01*
X0347597Y0069784D01*
X0347491Y0069895D01*
X0347387Y0070008D01*
X0347287Y0070124D01*
X0347189Y0070242D01*
X0347095Y0070363D01*
X0347004Y0070486D01*
X0346916Y0070612D01*
X0346832Y0070740D01*
X0346750Y0070870D01*
X0346673Y0071002D01*
X0346598Y0071136D01*
X0346527Y0071272D01*
X0346460Y0071410D01*
X0346396Y0071550D01*
X0346336Y0071691D01*
X0346280Y0071833D01*
X0346227Y0071977D01*
X0346178Y0072123D01*
X0346133Y0072269D01*
X0346092Y0072417D01*
X0346055Y0072565D01*
X0346021Y0072715D01*
X0345991Y0072866D01*
X0345966Y0073017D01*
X0345944Y0073168D01*
X0345926Y0073321D01*
X0345912Y0073473D01*
X0345902Y0073626D01*
X0345896Y0073780D01*
X0345894Y0073933D01*
D11*
X0236800Y0140193D03*
X0236800Y0147673D03*
X0196800Y0147673D03*
X0196800Y0140193D03*
D12*
X0277036Y0093933D03*
X0326800Y0159169D03*
X0101800Y0188697D03*
D13*
X0101800Y0178854D03*
X0101800Y0169012D03*
X0101800Y0159169D03*
X0286879Y0093933D03*
X0296721Y0093933D03*
X0306564Y0093933D03*
X0326800Y0169012D03*
X0326800Y0178854D03*
X0326800Y0188697D03*
D14*
X0156800Y0142378D03*
X0151800Y0142378D03*
X0146800Y0142378D03*
X0141800Y0142378D03*
X0141800Y0135488D03*
X0146800Y0135488D03*
X0151800Y0135488D03*
X0156800Y0135488D03*
X0131800Y0135488D03*
X0126800Y0135488D03*
X0121800Y0135488D03*
X0121800Y0142378D03*
X0126800Y0142378D03*
X0131800Y0142378D03*
D15*
X0130461Y0126295D03*
X0126131Y0126295D03*
X0121800Y0126295D03*
X0134792Y0126295D03*
X0139123Y0126295D03*
X0143454Y0126295D03*
X0147784Y0126295D03*
X0152115Y0126295D03*
X0155855Y0126295D03*
D16*
X0115698Y0126689D03*
D17*
X0106052Y0068224D03*
D18*
X0159989Y0069996D03*
D19*
X0159989Y0084957D03*
D20*
X0159595Y0109366D03*
D21*
X0208378Y0114783D02*
X0208378Y0136391D01*
X0225222Y0136391D01*
X0225222Y0114783D01*
X0208378Y0114783D01*
X0208378Y0119837D02*
X0225222Y0119837D01*
X0225222Y0124891D02*
X0208378Y0124891D01*
X0208378Y0129945D02*
X0225222Y0129945D01*
X0225222Y0134999D02*
X0208378Y0134999D01*
D22*
X0206387Y0148717D02*
X0206387Y0155291D01*
X0209261Y0155291D01*
X0209261Y0148717D01*
X0206387Y0148717D01*
X0206387Y0149579D02*
X0209261Y0149579D01*
X0209261Y0150441D02*
X0206387Y0150441D01*
X0206387Y0151303D02*
X0209261Y0151303D01*
X0209261Y0152165D02*
X0206387Y0152165D01*
X0206387Y0153027D02*
X0209261Y0153027D01*
X0209261Y0153889D02*
X0206387Y0153889D01*
X0206387Y0154751D02*
X0209261Y0154751D01*
X0224339Y0155291D02*
X0224339Y0148717D01*
X0224339Y0155291D02*
X0227213Y0155291D01*
X0227213Y0148717D01*
X0224339Y0148717D01*
X0224339Y0149579D02*
X0227213Y0149579D01*
X0227213Y0150441D02*
X0224339Y0150441D01*
X0224339Y0151303D02*
X0227213Y0151303D01*
X0227213Y0152165D02*
X0224339Y0152165D01*
X0224339Y0153027D02*
X0227213Y0153027D01*
X0227213Y0153889D02*
X0224339Y0153889D01*
X0224339Y0154751D02*
X0227213Y0154751D01*
D23*
X0227469Y0152004D02*
X0231800Y0147673D01*
X0236800Y0147673D01*
X0238621Y0145852D01*
X0241037Y0145852D01*
X0242853Y0144036D01*
X0242853Y0133326D01*
X0236800Y0127273D01*
X0236800Y0113933D01*
X0246800Y0103933D01*
X0227194Y0125587D02*
X0236800Y0135193D01*
X0236800Y0140193D01*
X0227194Y0125587D02*
X0216800Y0125587D01*
X0216800Y0118933D01*
X0216800Y0125587D02*
X0206406Y0125587D01*
X0196800Y0135193D01*
X0196800Y0140193D01*
X0196800Y0147673D02*
X0201800Y0147673D01*
X0206131Y0152004D01*
X0207824Y0152004D01*
X0196800Y0163028D01*
X0196800Y0183933D01*
X0216800Y0128933D02*
X0216800Y0125587D01*
D24*
X0216800Y0128933D03*
X0227200Y0143533D03*
X0236200Y0152533D03*
X0239800Y0152533D03*
X0231400Y0160933D03*
X0225400Y0163333D03*
X0213400Y0163333D03*
X0209800Y0174733D03*
X0212200Y0177733D03*
X0215800Y0176533D03*
X0225400Y0177733D03*
X0223000Y0189733D03*
X0219400Y0189733D03*
X0210400Y0189733D03*
X0206800Y0189733D03*
X0196800Y0183933D03*
X0201400Y0175333D03*
X0182200Y0167533D03*
X0171400Y0173533D03*
X0159400Y0175933D03*
X0159400Y0157333D03*
X0163000Y0157333D03*
X0187000Y0154933D03*
X0188200Y0158533D03*
X0188200Y0148333D03*
X0188200Y0127333D03*
X0173200Y0112333D03*
X0163000Y0118933D03*
X0153400Y0109333D03*
X0145000Y0111733D03*
X0159400Y0126133D03*
X0160600Y0138133D03*
X0147400Y0130933D03*
X0174400Y0191533D03*
X0199000Y0211333D03*
X0211000Y0200933D03*
X0222800Y0200933D03*
X0240400Y0184333D03*
X0212800Y0229333D03*
X0205600Y0241933D03*
X0210400Y0244333D03*
X0212800Y0250933D03*
X0216400Y0255733D03*
X0223600Y0255133D03*
X0228400Y0250933D03*
X0235600Y0248533D03*
X0236800Y0241933D03*
X0236200Y0237733D03*
X0247600Y0245533D03*
X0254200Y0237133D03*
X0263800Y0246733D03*
X0269800Y0249133D03*
X0217600Y0246133D03*
X0196600Y0251533D03*
X0199000Y0257533D03*
X0188200Y0270133D03*
X0187000Y0273733D03*
X0175600Y0285733D03*
X0166800Y0263933D03*
X0181800Y0258933D03*
X0141800Y0278933D03*
X0281800Y0138933D03*
X0261800Y0118933D03*
X0247000Y0112333D03*
X0246800Y0103933D03*
X0221800Y0107533D03*
D25*
X0178000Y0107533D01*
X0173200Y0112333D01*
X0163000Y0107533D02*
X0162170Y0107418D01*
X0163000Y0107533D02*
X0189400Y0133933D01*
X0194800Y0133933D01*
X0196800Y0135193D01*
X0190600Y0127333D02*
X0208000Y0109933D01*
X0235600Y0109933D01*
X0245200Y0100333D01*
X0248200Y0100333D01*
X0250600Y0102733D01*
X0250600Y0105133D01*
X0244600Y0111133D01*
X0244600Y0129733D01*
X0246400Y0131533D01*
X0246400Y0156733D01*
X0225400Y0177733D01*
X0225400Y0211933D01*
X0260200Y0246733D01*
X0263800Y0246733D01*
X0266200Y0249133D02*
X0260800Y0249133D01*
X0257200Y0245533D01*
X0247600Y0245533D01*
X0239200Y0248533D02*
X0239200Y0240733D01*
X0236200Y0237733D01*
X0236800Y0241933D02*
X0205600Y0241933D01*
X0208600Y0244333D02*
X0210400Y0244333D01*
X0211000Y0243733D01*
X0218800Y0243733D01*
X0226000Y0250933D01*
X0223600Y0253333D01*
X0223600Y0255133D01*
X0226000Y0250933D02*
X0228400Y0250933D01*
X0230800Y0248533D01*
X0235600Y0248533D01*
X0239200Y0248533D02*
X0221800Y0265933D01*
X0192400Y0265933D01*
X0188200Y0270133D01*
X0187000Y0273733D02*
X0187000Y0277933D01*
X0176800Y0288133D01*
X0174400Y0288133D01*
X0171400Y0285133D01*
X0171400Y0173533D01*
X0174400Y0172333D02*
X0159400Y0157333D01*
X0163000Y0157333D02*
X0164200Y0157333D01*
X0179200Y0172333D01*
X0179200Y0221533D01*
X0196600Y0238933D01*
X0196600Y0251533D01*
X0200800Y0255733D02*
X0199000Y0257533D01*
X0200800Y0255733D02*
X0216400Y0255733D01*
X0212800Y0250933D02*
X0217600Y0246133D01*
X0208600Y0244333D02*
X0206200Y0246733D01*
X0196600Y0237133D01*
X0196600Y0204133D01*
X0196900Y0203833D01*
X0213700Y0203833D01*
X0219400Y0198133D01*
X0219400Y0189733D01*
X0219400Y0161533D01*
X0226600Y0154333D01*
X0225776Y0152004D01*
X0226000Y0151933D01*
X0227469Y0152004D01*
X0227200Y0143533D02*
X0218200Y0152533D01*
X0218200Y0181933D01*
X0210400Y0189733D01*
X0206800Y0189733D02*
X0195400Y0189733D01*
X0188200Y0182533D01*
X0188200Y0158533D01*
X0185800Y0157333D02*
X0187000Y0156133D01*
X0187000Y0154933D01*
X0185800Y0157333D02*
X0185800Y0190433D01*
X0197300Y0201933D01*
X0210000Y0201933D01*
X0211000Y0200933D01*
X0222800Y0200933D02*
X0222800Y0189933D01*
X0223000Y0189733D01*
X0212200Y0177733D02*
X0213400Y0176533D01*
X0213400Y0163333D01*
X0211600Y0161533D02*
X0209800Y0163333D01*
X0209800Y0174733D01*
X0215800Y0176533D02*
X0215800Y0130933D01*
X0216800Y0125587D01*
X0206800Y0144133D02*
X0192400Y0144133D01*
X0188200Y0148333D01*
X0182200Y0146533D02*
X0190600Y0154933D01*
X0190600Y0183133D01*
X0194800Y0187333D01*
X0198400Y0187333D01*
X0201400Y0184333D01*
X0201400Y0175333D01*
X0211600Y0161533D02*
X0211600Y0148933D01*
X0206800Y0144133D01*
X0190600Y0127333D02*
X0188200Y0127333D01*
X0167800Y0123733D02*
X0163000Y0118933D01*
X0167800Y0123733D02*
X0167800Y0139333D01*
X0175000Y0146533D01*
X0182200Y0146533D01*
X0177400Y0154933D02*
X0135400Y0154933D01*
X0101800Y0188533D01*
X0101800Y0188697D01*
X0098200Y0192733D02*
X0097600Y0192133D01*
X0097600Y0173533D01*
X0101800Y0169333D01*
X0101800Y0169012D01*
X0101800Y0174733D02*
X0121600Y0154933D01*
X0121600Y0142933D01*
X0121800Y0142378D01*
X0122200Y0142933D01*
X0126400Y0142933D01*
X0126800Y0142378D01*
X0127000Y0142933D01*
X0131800Y0142933D01*
X0131800Y0142378D01*
X0131800Y0142333D01*
X0134800Y0139333D01*
X0137800Y0142333D01*
X0141400Y0142333D01*
X0141800Y0142378D01*
X0142000Y0142933D01*
X0146800Y0142933D01*
X0146800Y0142378D01*
X0146800Y0142933D02*
X0151600Y0142933D01*
X0151800Y0142378D01*
X0152200Y0142933D01*
X0156400Y0142933D01*
X0156800Y0142378D01*
X0157000Y0142933D01*
X0167200Y0142933D01*
X0184600Y0160333D01*
X0184600Y0191533D01*
X0196900Y0203833D01*
X0199000Y0211333D02*
X0212800Y0225133D01*
X0212800Y0229333D01*
X0206200Y0246733D02*
X0175600Y0277333D01*
X0175600Y0285733D01*
X0187000Y0273733D02*
X0257200Y0273733D01*
X0274600Y0256333D01*
X0274600Y0253933D01*
X0269800Y0249133D01*
X0266200Y0249133D02*
X0326800Y0188533D01*
X0326800Y0188697D01*
X0321400Y0184333D02*
X0326800Y0178933D01*
X0326800Y0178854D01*
X0321400Y0184333D02*
X0240400Y0184333D01*
X0238000Y0183133D02*
X0238000Y0220933D01*
X0254200Y0237133D01*
X0238000Y0183133D02*
X0247600Y0173533D01*
X0247600Y0130933D01*
X0247000Y0130333D01*
X0247000Y0112333D01*
X0239800Y0152533D02*
X0231400Y0160933D01*
X0225400Y0163333D02*
X0236200Y0152533D01*
X0182200Y0159733D02*
X0177400Y0154933D01*
X0182200Y0159733D02*
X0182200Y0167533D01*
X0174400Y0172333D02*
X0174400Y0191533D01*
X0159400Y0175933D02*
X0122200Y0175933D01*
X0105400Y0192733D01*
X0098200Y0192733D01*
X0101800Y0178854D02*
X0101800Y0174733D01*
X0101800Y0159169D02*
X0101800Y0140533D01*
X0115000Y0127333D01*
X0115698Y0126689D01*
X0125800Y0125533D02*
X0126131Y0126295D01*
X0125800Y0125533D02*
X0142000Y0109333D01*
X0153400Y0109333D01*
X0158800Y0109933D02*
X0159595Y0109366D01*
X0158800Y0109933D02*
X0143800Y0124933D01*
X0143800Y0126133D01*
X0143454Y0126295D01*
X0146800Y0130933D02*
X0147400Y0130933D01*
X0141800Y0135488D02*
X0142000Y0136333D01*
X0144400Y0138733D01*
X0158800Y0138733D01*
X0159400Y0138133D01*
X0160600Y0138133D01*
X0159400Y0126133D02*
X0156400Y0126133D01*
X0155855Y0126295D01*
X0145000Y0111733D02*
X0143800Y0111733D01*
X0130000Y0125533D01*
X0130461Y0126295D01*
X0134792Y0126295D02*
X0134800Y0126733D01*
X0134800Y0139333D01*
D26*
X0131800Y0135488D02*
X0131800Y0127634D01*
X0130461Y0126295D01*
X0126800Y0126965D02*
X0126131Y0126295D01*
X0126800Y0126965D02*
X0126800Y0135488D01*
X0121800Y0135488D02*
X0121800Y0126295D01*
X0115698Y0126689D02*
X0115698Y0077870D01*
X0106052Y0068224D01*
X0109559Y0068224D01*
X0110756Y0069421D01*
X0122214Y0069421D01*
X0123411Y0068224D01*
X0158217Y0068224D01*
X0159989Y0069996D01*
X0159989Y0084957D01*
X0159989Y0090235D01*
X0162170Y0092416D01*
X0162170Y0107418D01*
X0161584Y0108004D01*
X0160957Y0108004D01*
X0159595Y0109366D01*
X0155855Y0126295D02*
X0155855Y0134543D01*
X0156800Y0135488D01*
X0151800Y0135488D02*
X0151800Y0126610D01*
X0152115Y0126295D01*
X0147784Y0126295D02*
X0146800Y0127280D01*
X0146800Y0130933D01*
X0146800Y0135488D01*
X0141800Y0135488D02*
X0141800Y0130645D01*
X0140476Y0129320D01*
X0140476Y0127648D01*
X0139123Y0126295D01*
D27*
X0070385Y0065664D02*
X0071709Y0063842D01*
X0073531Y0062518D01*
X0075674Y0061822D01*
X0076800Y0061733D01*
X0170750Y0061733D01*
X0170750Y0094368D01*
X0171365Y0094983D01*
X0262235Y0094983D01*
X0262850Y0094368D01*
X0262850Y0061733D01*
X0351800Y0061733D01*
X0352926Y0061822D01*
X0355069Y0062518D01*
X0356891Y0063842D01*
X0358215Y0065664D01*
X0358911Y0067807D01*
X0358990Y0068812D01*
X0356731Y0066553D01*
X0353532Y0065228D01*
X0350068Y0065228D01*
X0346869Y0066553D01*
X0344420Y0069002D01*
X0343094Y0072201D01*
X0343094Y0075665D01*
X0344420Y0078864D01*
X0346869Y0081313D01*
X0350068Y0082639D01*
X0353532Y0082639D01*
X0356731Y0081313D01*
X0359000Y0079045D01*
X0359000Y0283822D01*
X0356731Y0281553D01*
X0353532Y0280228D01*
X0350068Y0280228D01*
X0346869Y0281553D01*
X0344420Y0284002D01*
X0343094Y0287201D01*
X0343094Y0290665D01*
X0344420Y0293864D01*
X0346869Y0296313D01*
X0350068Y0297639D01*
X0353532Y0297639D01*
X0356731Y0296313D01*
X0358990Y0294054D01*
X0358911Y0295059D01*
X0358215Y0297202D01*
X0356891Y0299024D01*
X0355069Y0300348D01*
X0352926Y0301044D01*
X0351800Y0301133D01*
X0076800Y0301133D01*
X0075674Y0301044D01*
X0073531Y0300348D01*
X0071709Y0299024D01*
X0070385Y0297202D01*
X0069689Y0295059D01*
X0069610Y0294054D01*
X0071869Y0296313D01*
X0075068Y0297639D01*
X0078532Y0297639D01*
X0081731Y0296313D01*
X0084180Y0293864D01*
X0085505Y0290665D01*
X0085505Y0287201D01*
X0084180Y0284002D01*
X0081731Y0281553D01*
X0078532Y0280228D01*
X0075068Y0280228D01*
X0071869Y0281553D01*
X0069600Y0283822D01*
X0069600Y0079045D01*
X0071869Y0081313D01*
X0075068Y0082639D01*
X0078532Y0082639D01*
X0081731Y0081313D01*
X0084180Y0078864D01*
X0085505Y0075665D01*
X0085505Y0072201D01*
X0084180Y0069002D01*
X0081731Y0066553D01*
X0078532Y0065228D01*
X0075068Y0065228D01*
X0071869Y0066553D01*
X0069609Y0068812D01*
X0069689Y0067807D01*
X0070385Y0065664D01*
X0070630Y0065327D02*
X0074828Y0065327D01*
X0074725Y0062130D02*
X0170750Y0062130D01*
X0170750Y0063729D02*
X0163993Y0063729D01*
X0164029Y0063789D02*
X0164151Y0064247D01*
X0164151Y0069615D01*
X0160370Y0069615D01*
X0160370Y0062684D01*
X0162588Y0062684D01*
X0163046Y0062807D01*
X0163456Y0063044D01*
X0163792Y0063379D01*
X0164029Y0063789D01*
X0164151Y0065327D02*
X0170750Y0065327D01*
X0170750Y0066926D02*
X0164151Y0066926D01*
X0164151Y0068524D02*
X0170750Y0068524D01*
X0170750Y0070123D02*
X0160370Y0070123D01*
X0160370Y0070377D02*
X0164151Y0070377D01*
X0164151Y0075745D01*
X0164029Y0076203D01*
X0163792Y0076613D01*
X0163456Y0076948D01*
X0163046Y0077185D01*
X0162588Y0077308D01*
X0160370Y0077308D01*
X0160370Y0070377D01*
X0160370Y0069615D01*
X0159608Y0069615D01*
X0159608Y0062684D01*
X0157390Y0062684D01*
X0156932Y0062807D01*
X0156522Y0063044D01*
X0156186Y0063379D01*
X0155949Y0063789D01*
X0155827Y0064247D01*
X0155827Y0069615D01*
X0159608Y0069615D01*
X0159608Y0070377D01*
X0155827Y0070377D01*
X0155827Y0070771D01*
X0153752Y0070771D01*
X0153283Y0071239D01*
X0153283Y0099511D01*
X0120878Y0099511D01*
X0120409Y0099980D01*
X0120409Y0106942D01*
X0120878Y0107410D01*
X0151520Y0107410D01*
X0151297Y0107633D01*
X0141296Y0107633D01*
X0126396Y0122533D01*
X0124173Y0122533D01*
X0123965Y0122741D01*
X0123758Y0122533D01*
X0119842Y0122533D01*
X0119268Y0123107D01*
X0119106Y0122828D01*
X0118771Y0122493D01*
X0118361Y0122256D01*
X0117903Y0122133D01*
X0115882Y0122133D01*
X0115882Y0126505D01*
X0115513Y0126505D01*
X0111929Y0126505D01*
X0111929Y0123696D01*
X0112052Y0123238D01*
X0112289Y0122828D01*
X0112624Y0122493D01*
X0113034Y0122256D01*
X0113492Y0122133D01*
X0115513Y0122133D01*
X0115513Y0126505D01*
X0115513Y0126873D01*
X0111929Y0126873D01*
X0111929Y0129682D01*
X0112052Y0130140D01*
X0112289Y0130550D01*
X0112624Y0130885D01*
X0113034Y0131122D01*
X0113492Y0131245D01*
X0115513Y0131245D01*
X0115513Y0126873D01*
X0115882Y0126873D01*
X0115882Y0131245D01*
X0117903Y0131245D01*
X0118361Y0131122D01*
X0118771Y0130885D01*
X0119106Y0130550D01*
X0119343Y0130140D01*
X0119400Y0129929D01*
X0119400Y0132168D01*
X0118727Y0132841D01*
X0118727Y0138135D01*
X0119525Y0138933D01*
X0118727Y0139731D01*
X0118727Y0145025D01*
X0119547Y0145845D01*
X0119900Y0145845D01*
X0119900Y0154229D01*
X0106139Y0167990D01*
X0105530Y0166519D01*
X0104292Y0165282D01*
X0102675Y0164612D01*
X0100925Y0164612D01*
X0099308Y0165282D01*
X0098070Y0166519D01*
X0097400Y0168137D01*
X0097400Y0169887D01*
X0097822Y0170907D01*
X0095900Y0172829D01*
X0095900Y0192837D01*
X0096896Y0193833D01*
X0097496Y0194433D01*
X0106104Y0194433D01*
X0107100Y0193437D01*
X0122904Y0177633D01*
X0157297Y0177633D01*
X0157877Y0178213D01*
X0158865Y0178622D01*
X0159935Y0178622D01*
X0160923Y0178213D01*
X0161680Y0177456D01*
X0162089Y0176468D01*
X0162089Y0175398D01*
X0161680Y0174410D01*
X0160923Y0173653D01*
X0159935Y0173244D01*
X0158865Y0173244D01*
X0157877Y0173653D01*
X0157297Y0174233D01*
X0121496Y0174233D01*
X0106200Y0189529D01*
X0106200Y0186537D01*
X0136104Y0156633D01*
X0156779Y0156633D01*
X0156711Y0156798D01*
X0156711Y0157868D01*
X0157120Y0158856D01*
X0157877Y0159613D01*
X0158865Y0160022D01*
X0159685Y0160022D01*
X0170612Y0170949D01*
X0169877Y0171253D01*
X0169120Y0172010D01*
X0168711Y0172998D01*
X0168711Y0174068D01*
X0169120Y0175056D01*
X0169700Y0175636D01*
X0169700Y0285837D01*
X0172700Y0288837D01*
X0173696Y0289833D01*
X0177504Y0289833D01*
X0187704Y0279633D01*
X0188700Y0278637D01*
X0188700Y0275836D01*
X0189103Y0275433D01*
X0257904Y0275433D01*
X0258900Y0274437D01*
X0276300Y0257037D01*
X0276300Y0253229D01*
X0275304Y0252233D01*
X0272489Y0249418D01*
X0272489Y0248598D01*
X0272080Y0247610D01*
X0271323Y0246853D01*
X0270335Y0246444D01*
X0269265Y0246444D01*
X0268277Y0246853D01*
X0267520Y0247610D01*
X0267111Y0248598D01*
X0267111Y0249668D01*
X0267520Y0250656D01*
X0268277Y0251413D01*
X0269265Y0251822D01*
X0270085Y0251822D01*
X0272900Y0254637D01*
X0272900Y0255629D01*
X0256496Y0272033D01*
X0190103Y0272033D01*
X0190480Y0271656D01*
X0190889Y0270668D01*
X0190889Y0269848D01*
X0193104Y0267633D01*
X0222504Y0267633D01*
X0223500Y0266637D01*
X0240900Y0249237D01*
X0240900Y0240029D01*
X0239904Y0239033D01*
X0238889Y0238018D01*
X0238889Y0237198D01*
X0238480Y0236210D01*
X0237723Y0235453D01*
X0236735Y0235044D01*
X0235665Y0235044D01*
X0234677Y0235453D01*
X0233920Y0236210D01*
X0233511Y0237198D01*
X0233511Y0238268D01*
X0233920Y0239256D01*
X0234677Y0240013D01*
X0234847Y0240083D01*
X0234697Y0240233D01*
X0207703Y0240233D01*
X0207123Y0239653D01*
X0206135Y0239244D01*
X0205065Y0239244D01*
X0204077Y0239653D01*
X0203320Y0240410D01*
X0203016Y0241145D01*
X0198300Y0236429D01*
X0198300Y0213954D01*
X0198465Y0214022D01*
X0199285Y0214022D01*
X0211100Y0225837D01*
X0211100Y0227230D01*
X0210520Y0227810D01*
X0210111Y0228798D01*
X0210111Y0229868D01*
X0210520Y0230856D01*
X0211277Y0231613D01*
X0212265Y0232022D01*
X0213335Y0232022D01*
X0214323Y0231613D01*
X0215080Y0230856D01*
X0215489Y0229868D01*
X0215489Y0228798D01*
X0215080Y0227810D01*
X0214500Y0227230D01*
X0214500Y0224429D01*
X0201689Y0211618D01*
X0201689Y0210798D01*
X0201280Y0209810D01*
X0200523Y0209053D01*
X0199535Y0208644D01*
X0198465Y0208644D01*
X0198300Y0208712D01*
X0198300Y0205533D01*
X0214404Y0205533D01*
X0220104Y0199833D01*
X0220516Y0199422D01*
X0220111Y0200398D01*
X0220111Y0201468D01*
X0220520Y0202456D01*
X0221277Y0203213D01*
X0222265Y0203622D01*
X0223335Y0203622D01*
X0223700Y0203471D01*
X0223700Y0212637D01*
X0224696Y0213633D01*
X0259496Y0248433D01*
X0261697Y0248433D01*
X0262277Y0249013D01*
X0263265Y0249422D01*
X0264335Y0249422D01*
X0265323Y0249013D01*
X0266080Y0248256D01*
X0266489Y0247268D01*
X0266489Y0246198D01*
X0266080Y0245210D01*
X0265323Y0244453D01*
X0264335Y0244044D01*
X0263265Y0244044D01*
X0262277Y0244453D01*
X0261697Y0245033D01*
X0260904Y0245033D01*
X0255412Y0239541D01*
X0255723Y0239413D01*
X0256480Y0238656D01*
X0256889Y0237668D01*
X0256889Y0236598D01*
X0256480Y0235610D01*
X0255723Y0234853D01*
X0254735Y0234444D01*
X0253915Y0234444D01*
X0239700Y0220229D01*
X0239700Y0186954D01*
X0239865Y0187022D01*
X0240935Y0187022D01*
X0241923Y0186613D01*
X0242503Y0186033D01*
X0322104Y0186033D01*
X0325188Y0182949D01*
X0325925Y0183254D01*
X0327675Y0183254D01*
X0329292Y0182584D01*
X0330530Y0181347D01*
X0331200Y0179730D01*
X0331200Y0177979D01*
X0330530Y0176362D01*
X0329292Y0175124D01*
X0327675Y0174454D01*
X0325925Y0174454D01*
X0324308Y0175124D01*
X0323070Y0176362D01*
X0322400Y0177979D01*
X0322400Y0179730D01*
X0322751Y0180578D01*
X0320696Y0182633D01*
X0242503Y0182633D01*
X0241923Y0182053D01*
X0241612Y0181925D01*
X0249300Y0174237D01*
X0249300Y0130229D01*
X0248700Y0129629D01*
X0248700Y0114436D01*
X0249280Y0113856D01*
X0249689Y0112868D01*
X0249689Y0111798D01*
X0249280Y0110810D01*
X0248523Y0110053D01*
X0248212Y0109925D01*
X0252300Y0105837D01*
X0252300Y0102029D01*
X0251304Y0101033D01*
X0248904Y0098633D01*
X0244496Y0098633D01*
X0243500Y0099629D01*
X0234896Y0108233D01*
X0224421Y0108233D01*
X0224489Y0108068D01*
X0224489Y0106998D01*
X0224080Y0106010D01*
X0223323Y0105253D01*
X0222335Y0104844D01*
X0221265Y0104844D01*
X0220277Y0105253D01*
X0219697Y0105833D01*
X0177296Y0105833D01*
X0173485Y0109644D01*
X0172665Y0109644D01*
X0171677Y0110053D01*
X0170920Y0110810D01*
X0170511Y0111798D01*
X0170511Y0112868D01*
X0170920Y0113856D01*
X0171677Y0114613D01*
X0172665Y0115022D01*
X0173735Y0115022D01*
X0174723Y0114613D01*
X0175480Y0113856D01*
X0175889Y0112868D01*
X0175889Y0112048D01*
X0178704Y0109233D01*
X0206296Y0109233D01*
X0190099Y0125430D01*
X0189723Y0125053D01*
X0188735Y0124644D01*
X0187665Y0124644D01*
X0186677Y0125053D01*
X0185920Y0125810D01*
X0185511Y0126798D01*
X0185511Y0127868D01*
X0185920Y0128856D01*
X0186677Y0129613D01*
X0187665Y0130022D01*
X0188735Y0130022D01*
X0189723Y0129613D01*
X0190303Y0129033D01*
X0191304Y0129033D01*
X0203917Y0116420D01*
X0203917Y0124787D01*
X0216000Y0124787D01*
X0216000Y0126387D01*
X0216000Y0140851D01*
X0208026Y0140851D01*
X0207333Y0140741D01*
X0206665Y0140524D01*
X0206040Y0140206D01*
X0205472Y0139793D01*
X0204975Y0139297D01*
X0204563Y0138729D01*
X0204244Y0138103D01*
X0204027Y0137436D01*
X0203917Y0136742D01*
X0203917Y0126387D01*
X0216000Y0126387D01*
X0217600Y0126387D01*
X0217600Y0140851D01*
X0225574Y0140851D01*
X0226267Y0140741D01*
X0226935Y0140524D01*
X0227560Y0140206D01*
X0228128Y0139793D01*
X0228625Y0139297D01*
X0229037Y0138729D01*
X0229356Y0138103D01*
X0229573Y0137436D01*
X0229683Y0136742D01*
X0229683Y0126387D01*
X0217600Y0126387D01*
X0217600Y0124787D01*
X0229683Y0124787D01*
X0229683Y0114431D01*
X0229573Y0113738D01*
X0229356Y0113070D01*
X0229037Y0112444D01*
X0228625Y0111876D01*
X0228381Y0111633D01*
X0233585Y0111633D01*
X0233494Y0111724D01*
X0232900Y0113157D01*
X0232900Y0128049D01*
X0233494Y0129482D01*
X0238953Y0134941D01*
X0238953Y0135834D01*
X0237280Y0135834D01*
X0237280Y0139713D01*
X0236320Y0139713D01*
X0232047Y0139713D01*
X0232047Y0137397D01*
X0232170Y0136939D01*
X0232407Y0136529D01*
X0232742Y0136193D01*
X0233152Y0135957D01*
X0233610Y0135834D01*
X0236320Y0135834D01*
X0236320Y0139713D01*
X0236320Y0140672D01*
X0232047Y0140672D01*
X0232047Y0142989D01*
X0232170Y0143447D01*
X0232358Y0143773D01*
X0231024Y0143773D01*
X0229801Y0144280D01*
X0229889Y0144068D01*
X0229889Y0142998D01*
X0229480Y0142010D01*
X0228723Y0141253D01*
X0227735Y0140844D01*
X0226665Y0140844D01*
X0225677Y0141253D01*
X0224920Y0142010D01*
X0224511Y0142998D01*
X0224511Y0143818D01*
X0217496Y0150833D01*
X0217496Y0150833D01*
X0216500Y0151829D01*
X0216500Y0181229D01*
X0210685Y0187044D01*
X0209865Y0187044D01*
X0208877Y0187453D01*
X0208600Y0187730D01*
X0208323Y0187453D01*
X0207335Y0187044D01*
X0206265Y0187044D01*
X0205277Y0187453D01*
X0204697Y0188033D01*
X0200104Y0188033D01*
X0203100Y0185037D01*
X0203100Y0177436D01*
X0203680Y0176856D01*
X0204089Y0175868D01*
X0204089Y0174798D01*
X0203680Y0173810D01*
X0202923Y0173053D01*
X0201935Y0172644D01*
X0200865Y0172644D01*
X0200700Y0172712D01*
X0200700Y0164643D01*
X0208199Y0157144D01*
X0209900Y0157144D01*
X0209900Y0160829D01*
X0209096Y0161633D01*
X0208100Y0162629D01*
X0208100Y0172630D01*
X0207520Y0173210D01*
X0207111Y0174198D01*
X0207111Y0175268D01*
X0207520Y0176256D01*
X0208277Y0177013D01*
X0209265Y0177422D01*
X0209511Y0177422D01*
X0209511Y0178268D01*
X0209920Y0179256D01*
X0210677Y0180013D01*
X0211665Y0180422D01*
X0212735Y0180422D01*
X0213723Y0180013D01*
X0214480Y0179256D01*
X0214889Y0178268D01*
X0214889Y0177448D01*
X0215100Y0177237D01*
X0215100Y0165436D01*
X0215680Y0164856D01*
X0216089Y0163868D01*
X0216089Y0162798D01*
X0215680Y0161810D01*
X0214923Y0161053D01*
X0213935Y0160644D01*
X0213300Y0160644D01*
X0213300Y0148229D01*
X0212304Y0147233D01*
X0207504Y0142433D01*
X0201553Y0142433D01*
X0201553Y0140672D01*
X0197280Y0140672D01*
X0197280Y0139713D01*
X0201553Y0139713D01*
X0201553Y0137397D01*
X0201430Y0136939D01*
X0201193Y0136529D01*
X0200858Y0136193D01*
X0200448Y0135957D01*
X0199990Y0135834D01*
X0197280Y0135834D01*
X0197280Y0139713D01*
X0196320Y0139713D01*
X0192047Y0139713D01*
X0192047Y0137397D01*
X0192170Y0136939D01*
X0192407Y0136529D01*
X0192742Y0136193D01*
X0193152Y0135957D01*
X0193610Y0135834D01*
X0196320Y0135834D01*
X0196320Y0139713D01*
X0196320Y0140672D01*
X0192047Y0140672D01*
X0192047Y0142433D01*
X0191696Y0142433D01*
X0190700Y0143429D01*
X0188485Y0145644D01*
X0187665Y0145644D01*
X0186677Y0146053D01*
X0185920Y0146810D01*
X0185616Y0147545D01*
X0183900Y0145829D01*
X0182904Y0144833D01*
X0175704Y0144833D01*
X0169500Y0138629D01*
X0169500Y0123029D01*
X0165689Y0119218D01*
X0165689Y0118398D01*
X0165280Y0117410D01*
X0164523Y0116653D01*
X0163535Y0116244D01*
X0162465Y0116244D01*
X0161970Y0116449D01*
X0161970Y0113528D01*
X0162194Y0113528D01*
X0162652Y0113406D01*
X0163063Y0113169D01*
X0163398Y0112834D01*
X0163635Y0112423D01*
X0163757Y0111965D01*
X0163757Y0109747D01*
X0159976Y0109747D01*
X0159976Y0108985D01*
X0163757Y0108985D01*
X0163757Y0106767D01*
X0163635Y0106309D01*
X0163398Y0105899D01*
X0163063Y0105564D01*
X0162652Y0105327D01*
X0162194Y0105204D01*
X0161970Y0105204D01*
X0161970Y0092499D01*
X0161501Y0092031D01*
X0157886Y0092031D01*
X0157639Y0092277D01*
X0157639Y0088331D01*
X0159989Y0088331D01*
X0159989Y0084957D01*
X0159989Y0084957D01*
X0159989Y0088331D01*
X0162588Y0088331D01*
X0163046Y0088209D01*
X0163456Y0087972D01*
X0163792Y0087637D01*
X0164029Y0087226D01*
X0164151Y0086768D01*
X0164151Y0084957D01*
X0159989Y0084957D01*
X0159989Y0084957D01*
X0164151Y0084957D01*
X0164151Y0083145D01*
X0164029Y0082687D01*
X0163792Y0082277D01*
X0163456Y0081942D01*
X0163046Y0081705D01*
X0162588Y0081582D01*
X0159989Y0081582D01*
X0159989Y0084957D01*
X0159989Y0084957D01*
X0159989Y0081582D01*
X0157639Y0081582D01*
X0157639Y0077308D01*
X0159608Y0077308D01*
X0159608Y0070377D01*
X0160370Y0070377D01*
X0159608Y0070123D02*
X0110805Y0070123D01*
X0110839Y0069221D02*
X0110805Y0069187D01*
X0110805Y0072202D01*
X0110682Y0072659D01*
X0110445Y0073070D01*
X0110110Y0073405D01*
X0109699Y0073642D01*
X0109242Y0073765D01*
X0106728Y0073765D01*
X0106728Y0068901D01*
X0105376Y0068901D01*
X0105376Y0073765D01*
X0102862Y0073765D01*
X0102404Y0073642D01*
X0101994Y0073405D01*
X0101659Y0073070D01*
X0101422Y0072659D01*
X0101299Y0072202D01*
X0101299Y0068901D01*
X0105376Y0068901D01*
X0105376Y0067548D01*
X0106728Y0067548D01*
X0106728Y0062684D01*
X0109242Y0062684D01*
X0109699Y0062807D01*
X0110110Y0063044D01*
X0110445Y0063379D01*
X0110682Y0063789D01*
X0110693Y0063830D01*
X0110839Y0063684D01*
X0122131Y0063684D01*
X0122600Y0064153D01*
X0122600Y0068753D01*
X0122131Y0069221D01*
X0110839Y0069221D01*
X0110518Y0068901D02*
X0110370Y0068753D01*
X0110370Y0067548D01*
X0106728Y0067548D01*
X0106728Y0068901D01*
X0110518Y0068901D01*
X0110370Y0068524D02*
X0106728Y0068524D01*
X0105376Y0068524D02*
X0083703Y0068524D01*
X0084644Y0070123D02*
X0101299Y0070123D01*
X0101299Y0071721D02*
X0085307Y0071721D01*
X0085505Y0073320D02*
X0101909Y0073320D01*
X0105376Y0073320D02*
X0106728Y0073320D01*
X0106728Y0071721D02*
X0105376Y0071721D01*
X0105376Y0070123D02*
X0106728Y0070123D01*
X0105376Y0067548D02*
X0101299Y0067548D01*
X0101299Y0064247D01*
X0101422Y0063789D01*
X0101659Y0063379D01*
X0101994Y0063044D01*
X0102404Y0062807D01*
X0102862Y0062684D01*
X0105376Y0062684D01*
X0105376Y0067548D01*
X0105376Y0066926D02*
X0106728Y0066926D01*
X0106728Y0065327D02*
X0105376Y0065327D01*
X0105376Y0063729D02*
X0106728Y0063729D01*
X0110647Y0063729D02*
X0110794Y0063729D01*
X0122176Y0063729D02*
X0155985Y0063729D01*
X0155827Y0065327D02*
X0122600Y0065327D01*
X0122600Y0066926D02*
X0155827Y0066926D01*
X0155827Y0068524D02*
X0122600Y0068524D01*
X0110805Y0071721D02*
X0153283Y0071721D01*
X0153283Y0073320D02*
X0110195Y0073320D01*
X0101299Y0066926D02*
X0082104Y0066926D01*
X0078772Y0065327D02*
X0101299Y0065327D01*
X0101457Y0063729D02*
X0071865Y0063729D01*
X0071496Y0066926D02*
X0069975Y0066926D01*
X0069897Y0068524D02*
X0069632Y0068524D01*
X0069600Y0079714D02*
X0070269Y0079714D01*
X0069600Y0081312D02*
X0071868Y0081312D01*
X0069600Y0082911D02*
X0153283Y0082911D01*
X0153283Y0084509D02*
X0069600Y0084509D01*
X0069600Y0086108D02*
X0153283Y0086108D01*
X0153283Y0087706D02*
X0069600Y0087706D01*
X0069600Y0089305D02*
X0153283Y0089305D01*
X0153283Y0090903D02*
X0069600Y0090903D01*
X0069600Y0092502D02*
X0153283Y0092502D01*
X0153283Y0094100D02*
X0069600Y0094100D01*
X0069600Y0095699D02*
X0153283Y0095699D01*
X0153283Y0097297D02*
X0069600Y0097297D01*
X0069600Y0098896D02*
X0153283Y0098896D01*
X0161970Y0098896D02*
X0244233Y0098896D01*
X0242635Y0100494D02*
X0161970Y0100494D01*
X0161970Y0102093D02*
X0241036Y0102093D01*
X0239438Y0103691D02*
X0161970Y0103691D01*
X0162515Y0105290D02*
X0220240Y0105290D01*
X0223360Y0105290D02*
X0237839Y0105290D01*
X0236240Y0106888D02*
X0224443Y0106888D01*
X0228432Y0111684D02*
X0233534Y0111684D01*
X0232900Y0113282D02*
X0229425Y0113282D01*
X0229683Y0114881D02*
X0232900Y0114881D01*
X0232900Y0116479D02*
X0229683Y0116479D01*
X0229683Y0118078D02*
X0232900Y0118078D01*
X0232900Y0119677D02*
X0229683Y0119677D01*
X0229683Y0121275D02*
X0232900Y0121275D01*
X0232900Y0122874D02*
X0229683Y0122874D01*
X0229683Y0124472D02*
X0232900Y0124472D01*
X0232900Y0126071D02*
X0217600Y0126071D01*
X0217600Y0124787D02*
X0216000Y0124787D01*
X0216000Y0111633D01*
X0217600Y0111633D01*
X0217600Y0124787D01*
X0217600Y0124472D02*
X0216000Y0124472D01*
X0216000Y0122874D02*
X0217600Y0122874D01*
X0217600Y0121275D02*
X0216000Y0121275D01*
X0216000Y0119677D02*
X0217600Y0119677D01*
X0217600Y0118078D02*
X0216000Y0118078D01*
X0216000Y0116479D02*
X0217600Y0116479D01*
X0217600Y0114881D02*
X0216000Y0114881D01*
X0216000Y0113282D02*
X0217600Y0113282D01*
X0217600Y0111684D02*
X0216000Y0111684D01*
X0205443Y0110085D02*
X0177852Y0110085D01*
X0176253Y0111684D02*
X0203845Y0111684D01*
X0202246Y0113282D02*
X0175717Y0113282D01*
X0174075Y0114881D02*
X0200648Y0114881D01*
X0199049Y0116479D02*
X0164103Y0116479D01*
X0165556Y0118078D02*
X0197451Y0118078D01*
X0195852Y0119677D02*
X0166148Y0119677D01*
X0167746Y0121275D02*
X0194254Y0121275D01*
X0192655Y0122874D02*
X0169345Y0122874D01*
X0169500Y0124472D02*
X0191057Y0124472D01*
X0192668Y0127669D02*
X0203917Y0127669D01*
X0203917Y0129268D02*
X0190068Y0129268D01*
X0186332Y0129268D02*
X0169500Y0129268D01*
X0169500Y0130866D02*
X0203917Y0130866D01*
X0203917Y0132465D02*
X0169500Y0132465D01*
X0169500Y0134063D02*
X0203917Y0134063D01*
X0203917Y0135662D02*
X0169500Y0135662D01*
X0169500Y0137260D02*
X0192084Y0137260D01*
X0192047Y0138859D02*
X0169730Y0138859D01*
X0171328Y0140457D02*
X0196320Y0140457D01*
X0197280Y0140457D02*
X0206533Y0140457D01*
X0204657Y0138859D02*
X0201553Y0138859D01*
X0201516Y0137260D02*
X0203999Y0137260D01*
X0201553Y0142056D02*
X0224901Y0142056D01*
X0224511Y0143654D02*
X0208725Y0143654D01*
X0210324Y0145253D02*
X0223076Y0145253D01*
X0221478Y0146851D02*
X0211922Y0146851D01*
X0213300Y0148450D02*
X0219879Y0148450D01*
X0218281Y0150048D02*
X0213300Y0150048D01*
X0213300Y0151647D02*
X0216682Y0151647D01*
X0216500Y0153245D02*
X0213300Y0153245D01*
X0213300Y0154844D02*
X0216500Y0154844D01*
X0216500Y0156442D02*
X0213300Y0156442D01*
X0213300Y0158041D02*
X0216500Y0158041D01*
X0216500Y0159639D02*
X0213300Y0159639D01*
X0215108Y0161238D02*
X0216500Y0161238D01*
X0216500Y0162836D02*
X0216089Y0162836D01*
X0215854Y0164435D02*
X0216500Y0164435D01*
X0216500Y0166033D02*
X0215100Y0166033D01*
X0215100Y0167632D02*
X0216500Y0167632D01*
X0216500Y0169230D02*
X0215100Y0169230D01*
X0215100Y0170829D02*
X0216500Y0170829D01*
X0216500Y0172427D02*
X0215100Y0172427D01*
X0215100Y0174026D02*
X0216500Y0174026D01*
X0216500Y0175624D02*
X0215100Y0175624D01*
X0215100Y0177223D02*
X0216500Y0177223D01*
X0216500Y0178821D02*
X0214660Y0178821D01*
X0216500Y0180420D02*
X0212740Y0180420D01*
X0211660Y0180420D02*
X0203100Y0180420D01*
X0203100Y0182018D02*
X0215710Y0182018D01*
X0214112Y0183617D02*
X0203100Y0183617D01*
X0202922Y0185215D02*
X0212513Y0185215D01*
X0210915Y0186814D02*
X0201323Y0186814D01*
X0203100Y0178821D02*
X0209740Y0178821D01*
X0208784Y0177223D02*
X0203313Y0177223D01*
X0204089Y0175624D02*
X0207259Y0175624D01*
X0207182Y0174026D02*
X0203769Y0174026D01*
X0200700Y0172427D02*
X0208100Y0172427D01*
X0208100Y0170829D02*
X0200700Y0170829D01*
X0200700Y0169230D02*
X0208100Y0169230D01*
X0208100Y0167632D02*
X0200700Y0167632D01*
X0200700Y0166033D02*
X0208100Y0166033D01*
X0208100Y0164435D02*
X0200908Y0164435D01*
X0202507Y0162836D02*
X0208100Y0162836D01*
X0209491Y0161238D02*
X0204105Y0161238D01*
X0205704Y0159639D02*
X0209900Y0159639D01*
X0209900Y0158041D02*
X0207302Y0158041D01*
X0190475Y0143654D02*
X0174525Y0143654D01*
X0172927Y0142056D02*
X0192047Y0142056D01*
X0188876Y0145253D02*
X0183324Y0145253D01*
X0184922Y0146851D02*
X0185903Y0146851D01*
X0196320Y0138859D02*
X0197280Y0138859D01*
X0197280Y0137260D02*
X0196320Y0137260D01*
X0185511Y0127669D02*
X0169500Y0127669D01*
X0169500Y0126071D02*
X0185812Y0126071D01*
X0194267Y0126071D02*
X0216000Y0126071D01*
X0216000Y0127669D02*
X0217600Y0127669D01*
X0217600Y0129268D02*
X0216000Y0129268D01*
X0216000Y0130866D02*
X0217600Y0130866D01*
X0217600Y0132465D02*
X0216000Y0132465D01*
X0216000Y0134063D02*
X0217600Y0134063D01*
X0217600Y0135662D02*
X0216000Y0135662D01*
X0216000Y0137260D02*
X0217600Y0137260D01*
X0217600Y0138859D02*
X0216000Y0138859D01*
X0216000Y0140457D02*
X0217600Y0140457D01*
X0227067Y0140457D02*
X0236320Y0140457D01*
X0236320Y0138859D02*
X0237280Y0138859D01*
X0237280Y0137260D02*
X0236320Y0137260D01*
X0238953Y0135662D02*
X0229683Y0135662D01*
X0229683Y0134063D02*
X0238074Y0134063D01*
X0236476Y0132465D02*
X0229683Y0132465D01*
X0229683Y0130866D02*
X0234877Y0130866D01*
X0233405Y0129268D02*
X0229683Y0129268D01*
X0229683Y0127669D02*
X0232900Y0127669D01*
X0232084Y0137260D02*
X0229601Y0137260D01*
X0228943Y0138859D02*
X0232047Y0138859D01*
X0232047Y0142056D02*
X0229499Y0142056D01*
X0229889Y0143654D02*
X0232290Y0143654D01*
X0249300Y0143654D02*
X0359000Y0143654D01*
X0359000Y0142056D02*
X0249300Y0142056D01*
X0249300Y0140457D02*
X0359000Y0140457D01*
X0359000Y0138859D02*
X0249300Y0138859D01*
X0249300Y0137260D02*
X0359000Y0137260D01*
X0359000Y0135662D02*
X0249300Y0135662D01*
X0249300Y0134063D02*
X0359000Y0134063D01*
X0359000Y0132465D02*
X0249300Y0132465D01*
X0249300Y0130866D02*
X0359000Y0130866D01*
X0359000Y0129268D02*
X0248700Y0129268D01*
X0248700Y0127669D02*
X0359000Y0127669D01*
X0359000Y0126071D02*
X0248700Y0126071D01*
X0248700Y0124472D02*
X0359000Y0124472D01*
X0359000Y0122874D02*
X0248700Y0122874D01*
X0248700Y0121275D02*
X0359000Y0121275D01*
X0359000Y0119677D02*
X0248700Y0119677D01*
X0248700Y0118078D02*
X0359000Y0118078D01*
X0359000Y0116479D02*
X0248700Y0116479D01*
X0248700Y0114881D02*
X0359000Y0114881D01*
X0359000Y0113282D02*
X0249517Y0113282D01*
X0249642Y0111684D02*
X0359000Y0111684D01*
X0359000Y0110085D02*
X0248555Y0110085D01*
X0249650Y0108487D02*
X0359000Y0108487D01*
X0359000Y0106888D02*
X0251249Y0106888D01*
X0252300Y0105290D02*
X0359000Y0105290D01*
X0359000Y0103691D02*
X0252300Y0103691D01*
X0252300Y0102093D02*
X0359000Y0102093D01*
X0359000Y0100494D02*
X0250765Y0100494D01*
X0249167Y0098896D02*
X0359000Y0098896D01*
X0359000Y0097297D02*
X0309422Y0097297D01*
X0309056Y0097663D02*
X0307439Y0098333D01*
X0305689Y0098333D01*
X0304071Y0097663D01*
X0302834Y0096425D01*
X0302164Y0094808D01*
X0302164Y0093058D01*
X0302834Y0091441D01*
X0304071Y0090203D01*
X0305689Y0089533D01*
X0307439Y0089533D01*
X0309056Y0090203D01*
X0310294Y0091441D01*
X0310964Y0093058D01*
X0310964Y0094808D01*
X0310294Y0096425D01*
X0309056Y0097663D01*
X0310595Y0095699D02*
X0359000Y0095699D01*
X0359000Y0094100D02*
X0310964Y0094100D01*
X0310733Y0092502D02*
X0359000Y0092502D01*
X0359000Y0090903D02*
X0309757Y0090903D01*
X0303371Y0090903D02*
X0300453Y0090903D01*
X0300382Y0090806D02*
X0300827Y0091417D01*
X0301170Y0092091D01*
X0301403Y0092809D01*
X0301521Y0093555D01*
X0301521Y0093733D01*
X0296921Y0093733D01*
X0296921Y0089133D01*
X0297099Y0089133D01*
X0297845Y0089251D01*
X0298564Y0089485D01*
X0299237Y0089828D01*
X0299848Y0090272D01*
X0300382Y0090806D01*
X0301303Y0092502D02*
X0302394Y0092502D01*
X0302164Y0094100D02*
X0296921Y0094100D01*
X0296921Y0094133D02*
X0301521Y0094133D01*
X0301521Y0094311D01*
X0301403Y0095057D01*
X0301170Y0095776D01*
X0300827Y0096449D01*
X0300382Y0097060D01*
X0299848Y0097594D01*
X0299237Y0098038D01*
X0298564Y0098381D01*
X0297845Y0098615D01*
X0297099Y0098733D01*
X0296921Y0098733D01*
X0296921Y0094133D01*
X0296521Y0094133D01*
X0296521Y0093733D01*
X0291921Y0093733D01*
X0291921Y0093555D01*
X0292039Y0092809D01*
X0292273Y0092091D01*
X0292616Y0091417D01*
X0293060Y0090806D01*
X0293594Y0090272D01*
X0294206Y0089828D01*
X0294879Y0089485D01*
X0295597Y0089251D01*
X0296343Y0089133D01*
X0296521Y0089133D01*
X0296521Y0093733D01*
X0296921Y0093733D01*
X0296921Y0094133D01*
X0296521Y0094133D02*
X0296521Y0098733D01*
X0296343Y0098733D01*
X0295597Y0098615D01*
X0294879Y0098381D01*
X0294206Y0098038D01*
X0293594Y0097594D01*
X0293060Y0097060D01*
X0292616Y0096449D01*
X0292273Y0095776D01*
X0292039Y0095057D01*
X0291921Y0094311D01*
X0291921Y0094133D01*
X0296521Y0094133D01*
X0296521Y0094100D02*
X0291279Y0094100D01*
X0291279Y0094808D02*
X0290609Y0096425D01*
X0289371Y0097663D01*
X0287754Y0098333D01*
X0286004Y0098333D01*
X0284386Y0097663D01*
X0283149Y0096425D01*
X0282479Y0094808D01*
X0282479Y0093058D01*
X0283149Y0091441D01*
X0284386Y0090203D01*
X0286004Y0089533D01*
X0287754Y0089533D01*
X0289371Y0090203D01*
X0290609Y0091441D01*
X0291279Y0093058D01*
X0291279Y0094808D01*
X0290910Y0095699D02*
X0292248Y0095699D01*
X0293297Y0097297D02*
X0289737Y0097297D01*
X0291048Y0092502D02*
X0292139Y0092502D01*
X0292989Y0090903D02*
X0290072Y0090903D01*
X0295433Y0089305D02*
X0262850Y0089305D01*
X0262850Y0090903D02*
X0272636Y0090903D01*
X0272636Y0090353D02*
X0273456Y0089533D01*
X0280616Y0089533D01*
X0281436Y0090353D01*
X0281436Y0097513D01*
X0280616Y0098333D01*
X0273456Y0098333D01*
X0272636Y0097513D01*
X0272636Y0090353D01*
X0272636Y0092502D02*
X0262850Y0092502D01*
X0262850Y0094100D02*
X0272636Y0094100D01*
X0272636Y0095699D02*
X0161970Y0095699D01*
X0161970Y0097297D02*
X0272636Y0097297D01*
X0281436Y0097297D02*
X0284020Y0097297D01*
X0282848Y0095699D02*
X0281436Y0095699D01*
X0281436Y0094100D02*
X0282479Y0094100D01*
X0282709Y0092502D02*
X0281436Y0092502D01*
X0281436Y0090903D02*
X0283686Y0090903D01*
X0296521Y0090903D02*
X0296921Y0090903D01*
X0296921Y0089305D02*
X0296521Y0089305D01*
X0298010Y0089305D02*
X0359000Y0089305D01*
X0359000Y0087706D02*
X0262850Y0087706D01*
X0262850Y0086108D02*
X0359000Y0086108D01*
X0359000Y0084509D02*
X0262850Y0084509D01*
X0262850Y0082911D02*
X0359000Y0082911D01*
X0359000Y0081312D02*
X0356732Y0081312D01*
X0358331Y0079714D02*
X0359000Y0079714D01*
X0358968Y0068524D02*
X0358703Y0068524D01*
X0358625Y0066926D02*
X0357104Y0066926D01*
X0357970Y0065327D02*
X0353772Y0065327D01*
X0353875Y0062130D02*
X0262850Y0062130D01*
X0262850Y0063729D02*
X0356735Y0063729D01*
X0349828Y0065327D02*
X0262850Y0065327D01*
X0262850Y0066926D02*
X0346496Y0066926D01*
X0344897Y0068524D02*
X0262850Y0068524D01*
X0262850Y0070123D02*
X0343956Y0070123D01*
X0343293Y0071721D02*
X0262850Y0071721D01*
X0262850Y0073320D02*
X0343094Y0073320D01*
X0343094Y0074918D02*
X0262850Y0074918D01*
X0262850Y0076517D02*
X0343447Y0076517D01*
X0344110Y0078115D02*
X0262850Y0078115D01*
X0262850Y0079714D02*
X0345269Y0079714D01*
X0346868Y0081312D02*
X0262850Y0081312D01*
X0296521Y0092502D02*
X0296921Y0092502D01*
X0296921Y0095699D02*
X0296521Y0095699D01*
X0296521Y0097297D02*
X0296921Y0097297D01*
X0300145Y0097297D02*
X0303706Y0097297D01*
X0302533Y0095699D02*
X0301195Y0095699D01*
X0249300Y0145253D02*
X0359000Y0145253D01*
X0359000Y0146851D02*
X0249300Y0146851D01*
X0249300Y0148450D02*
X0359000Y0148450D01*
X0359000Y0150048D02*
X0249300Y0150048D01*
X0249300Y0151647D02*
X0359000Y0151647D01*
X0359000Y0153245D02*
X0249300Y0153245D01*
X0249300Y0154844D02*
X0323146Y0154844D01*
X0323220Y0154769D02*
X0330380Y0154769D01*
X0331200Y0155589D01*
X0331200Y0162749D01*
X0330380Y0163569D01*
X0323220Y0163569D01*
X0322400Y0162749D01*
X0322400Y0155589D01*
X0323220Y0154769D01*
X0322400Y0156442D02*
X0249300Y0156442D01*
X0249300Y0158041D02*
X0322400Y0158041D01*
X0322400Y0159639D02*
X0249300Y0159639D01*
X0249300Y0161238D02*
X0322400Y0161238D01*
X0322487Y0162836D02*
X0249300Y0162836D01*
X0249300Y0164435D02*
X0359000Y0164435D01*
X0359000Y0166033D02*
X0330044Y0166033D01*
X0330530Y0166519D02*
X0331200Y0168137D01*
X0331200Y0169887D01*
X0330530Y0171504D01*
X0329292Y0172742D01*
X0327675Y0173412D01*
X0325925Y0173412D01*
X0324308Y0172742D01*
X0323070Y0171504D01*
X0322400Y0169887D01*
X0322400Y0168137D01*
X0323070Y0166519D01*
X0324308Y0165282D01*
X0325925Y0164612D01*
X0327675Y0164612D01*
X0329292Y0165282D01*
X0330530Y0166519D01*
X0330991Y0167632D02*
X0359000Y0167632D01*
X0359000Y0169230D02*
X0331200Y0169230D01*
X0330810Y0170829D02*
X0359000Y0170829D01*
X0359000Y0172427D02*
X0329607Y0172427D01*
X0329793Y0175624D02*
X0359000Y0175624D01*
X0359000Y0174026D02*
X0249300Y0174026D01*
X0249300Y0172427D02*
X0323993Y0172427D01*
X0322790Y0170829D02*
X0249300Y0170829D01*
X0249300Y0169230D02*
X0322400Y0169230D01*
X0322609Y0167632D02*
X0249300Y0167632D01*
X0249300Y0166033D02*
X0323556Y0166033D01*
X0331113Y0162836D02*
X0359000Y0162836D01*
X0359000Y0161238D02*
X0331200Y0161238D01*
X0331200Y0159639D02*
X0359000Y0159639D01*
X0359000Y0158041D02*
X0331200Y0158041D01*
X0331200Y0156442D02*
X0359000Y0156442D01*
X0359000Y0154844D02*
X0330454Y0154844D01*
X0323807Y0175624D02*
X0247913Y0175624D01*
X0246314Y0177223D02*
X0322713Y0177223D01*
X0322400Y0178821D02*
X0244716Y0178821D01*
X0243117Y0180420D02*
X0322686Y0180420D01*
X0321310Y0182018D02*
X0241839Y0182018D01*
X0241437Y0186814D02*
X0322372Y0186814D01*
X0322352Y0186854D02*
X0322695Y0186181D01*
X0323139Y0185570D01*
X0323673Y0185036D01*
X0324284Y0184592D01*
X0324957Y0184249D01*
X0325676Y0184015D01*
X0326422Y0183897D01*
X0326600Y0183897D01*
X0326600Y0188497D01*
X0322000Y0188497D01*
X0322000Y0188319D01*
X0322118Y0187573D01*
X0322352Y0186854D01*
X0322000Y0188412D02*
X0239700Y0188412D01*
X0239700Y0190011D02*
X0322180Y0190011D01*
X0322118Y0189821D02*
X0322000Y0189075D01*
X0322000Y0188897D01*
X0326600Y0188897D01*
X0326600Y0193497D01*
X0326422Y0193497D01*
X0325676Y0193379D01*
X0324957Y0193145D01*
X0324284Y0192802D01*
X0323673Y0192358D01*
X0323139Y0191824D01*
X0322695Y0191213D01*
X0322352Y0190539D01*
X0322118Y0189821D01*
X0322983Y0191610D02*
X0239700Y0191610D01*
X0239700Y0193208D02*
X0325151Y0193208D01*
X0326600Y0193208D02*
X0327000Y0193208D01*
X0327000Y0193497D02*
X0327178Y0193497D01*
X0327924Y0193379D01*
X0328643Y0193145D01*
X0329316Y0192802D01*
X0329927Y0192358D01*
X0330461Y0191824D01*
X0330905Y0191213D01*
X0331248Y0190539D01*
X0331482Y0189821D01*
X0331600Y0189075D01*
X0331600Y0188897D01*
X0327000Y0188897D01*
X0326600Y0188897D01*
X0326600Y0188497D01*
X0327000Y0188497D01*
X0327000Y0188897D01*
X0327000Y0193497D01*
X0328449Y0193208D02*
X0359000Y0193208D01*
X0359000Y0191610D02*
X0330617Y0191610D01*
X0331420Y0190011D02*
X0359000Y0190011D01*
X0359000Y0188412D02*
X0331600Y0188412D01*
X0331600Y0188497D02*
X0327000Y0188497D01*
X0327000Y0183897D01*
X0327178Y0183897D01*
X0327924Y0184015D01*
X0328643Y0184249D01*
X0329316Y0184592D01*
X0329927Y0185036D01*
X0330461Y0185570D01*
X0330905Y0186181D01*
X0331248Y0186854D01*
X0331482Y0187573D01*
X0331600Y0188319D01*
X0331600Y0188497D01*
X0331228Y0186814D02*
X0359000Y0186814D01*
X0359000Y0185215D02*
X0330107Y0185215D01*
X0327000Y0185215D02*
X0326600Y0185215D01*
X0326600Y0186814D02*
X0327000Y0186814D01*
X0327000Y0188412D02*
X0326600Y0188412D01*
X0326600Y0190011D02*
X0327000Y0190011D01*
X0327000Y0191610D02*
X0326600Y0191610D01*
X0323493Y0185215D02*
X0322922Y0185215D01*
X0324520Y0183617D02*
X0359000Y0183617D01*
X0359000Y0182018D02*
X0329858Y0182018D01*
X0330914Y0180420D02*
X0359000Y0180420D01*
X0359000Y0178821D02*
X0331200Y0178821D01*
X0330887Y0177223D02*
X0359000Y0177223D01*
X0359000Y0194807D02*
X0239700Y0194807D01*
X0239700Y0196405D02*
X0359000Y0196405D01*
X0359000Y0198004D02*
X0239700Y0198004D01*
X0239700Y0199602D02*
X0359000Y0199602D01*
X0359000Y0201201D02*
X0239700Y0201201D01*
X0239700Y0202799D02*
X0359000Y0202799D01*
X0359000Y0204398D02*
X0239700Y0204398D01*
X0239700Y0205996D02*
X0359000Y0205996D01*
X0359000Y0207595D02*
X0239700Y0207595D01*
X0239700Y0209193D02*
X0359000Y0209193D01*
X0359000Y0210792D02*
X0239700Y0210792D01*
X0239700Y0212390D02*
X0359000Y0212390D01*
X0359000Y0213989D02*
X0239700Y0213989D01*
X0239700Y0215587D02*
X0359000Y0215587D01*
X0359000Y0217186D02*
X0239700Y0217186D01*
X0239700Y0218784D02*
X0359000Y0218784D01*
X0359000Y0220383D02*
X0239854Y0220383D01*
X0241452Y0221981D02*
X0359000Y0221981D01*
X0359000Y0223580D02*
X0243051Y0223580D01*
X0244649Y0225178D02*
X0359000Y0225178D01*
X0359000Y0226777D02*
X0246248Y0226777D01*
X0247846Y0228375D02*
X0359000Y0228375D01*
X0359000Y0229974D02*
X0249445Y0229974D01*
X0251043Y0231572D02*
X0359000Y0231572D01*
X0359000Y0233171D02*
X0252642Y0233171D01*
X0255520Y0234769D02*
X0359000Y0234769D01*
X0359000Y0236368D02*
X0256794Y0236368D01*
X0256765Y0237966D02*
X0359000Y0237966D01*
X0359000Y0239565D02*
X0255436Y0239565D01*
X0257034Y0241163D02*
X0359000Y0241163D01*
X0359000Y0242762D02*
X0258633Y0242762D01*
X0260231Y0244360D02*
X0262502Y0244360D01*
X0265098Y0244360D02*
X0359000Y0244360D01*
X0359000Y0245959D02*
X0266390Y0245959D01*
X0266369Y0247557D02*
X0267573Y0247557D01*
X0267111Y0249156D02*
X0264977Y0249156D01*
X0262623Y0249156D02*
X0240900Y0249156D01*
X0240900Y0247557D02*
X0258620Y0247557D01*
X0257022Y0245959D02*
X0240900Y0245959D01*
X0240900Y0244360D02*
X0255423Y0244360D01*
X0253825Y0242762D02*
X0240900Y0242762D01*
X0240900Y0241163D02*
X0252226Y0241163D01*
X0250628Y0239565D02*
X0240436Y0239565D01*
X0238889Y0237966D02*
X0249029Y0237966D01*
X0247431Y0236368D02*
X0238545Y0236368D01*
X0234229Y0239565D02*
X0206909Y0239565D01*
X0204291Y0239565D02*
X0201436Y0239565D01*
X0199837Y0237966D02*
X0233511Y0237966D01*
X0233855Y0236368D02*
X0198300Y0236368D01*
X0198300Y0234769D02*
X0245832Y0234769D01*
X0244234Y0233171D02*
X0198300Y0233171D01*
X0198300Y0231572D02*
X0211236Y0231572D01*
X0210155Y0229974D02*
X0198300Y0229974D01*
X0198300Y0228375D02*
X0210286Y0228375D01*
X0211100Y0226777D02*
X0198300Y0226777D01*
X0198300Y0225178D02*
X0210441Y0225178D01*
X0208843Y0223580D02*
X0198300Y0223580D01*
X0198300Y0221981D02*
X0207244Y0221981D01*
X0205645Y0220383D02*
X0198300Y0220383D01*
X0198300Y0218784D02*
X0204047Y0218784D01*
X0202448Y0217186D02*
X0198300Y0217186D01*
X0198300Y0215587D02*
X0200850Y0215587D01*
X0198385Y0213989D02*
X0198300Y0213989D01*
X0202461Y0212390D02*
X0223700Y0212390D01*
X0223700Y0210792D02*
X0201686Y0210792D01*
X0200663Y0209193D02*
X0223700Y0209193D01*
X0223700Y0207595D02*
X0198300Y0207595D01*
X0198300Y0205996D02*
X0223700Y0205996D01*
X0223700Y0204398D02*
X0215540Y0204398D01*
X0217138Y0202799D02*
X0220863Y0202799D01*
X0220111Y0201201D02*
X0218737Y0201201D01*
X0220335Y0199602D02*
X0220441Y0199602D01*
X0225051Y0213989D02*
X0204060Y0213989D01*
X0205658Y0215587D02*
X0226650Y0215587D01*
X0228248Y0217186D02*
X0207257Y0217186D01*
X0208855Y0218784D02*
X0229847Y0218784D01*
X0231445Y0220383D02*
X0210454Y0220383D01*
X0212052Y0221981D02*
X0233044Y0221981D01*
X0234643Y0223580D02*
X0213651Y0223580D01*
X0214500Y0225178D02*
X0236241Y0225178D01*
X0237840Y0226777D02*
X0214500Y0226777D01*
X0215314Y0228375D02*
X0239438Y0228375D01*
X0241037Y0229974D02*
X0215445Y0229974D01*
X0214364Y0231572D02*
X0242635Y0231572D01*
X0223596Y0250933D02*
X0218096Y0245433D01*
X0212855Y0245433D01*
X0212680Y0245856D01*
X0211923Y0246613D01*
X0210935Y0247022D01*
X0209865Y0247022D01*
X0208877Y0246613D01*
X0208801Y0246537D01*
X0207900Y0247437D01*
X0207900Y0247437D01*
X0206904Y0248433D01*
X0201304Y0254033D01*
X0214297Y0254033D01*
X0214877Y0253453D01*
X0215865Y0253044D01*
X0216935Y0253044D01*
X0217923Y0253453D01*
X0218680Y0254210D01*
X0219089Y0255198D01*
X0219089Y0256268D01*
X0218680Y0257256D01*
X0217923Y0258013D01*
X0216935Y0258422D01*
X0215865Y0258422D01*
X0214877Y0258013D01*
X0214297Y0257433D01*
X0201689Y0257433D01*
X0201689Y0258068D01*
X0201280Y0259056D01*
X0200523Y0259813D01*
X0199535Y0260222D01*
X0198465Y0260222D01*
X0197477Y0259813D01*
X0196720Y0259056D01*
X0196592Y0258746D01*
X0187893Y0267444D01*
X0188485Y0267444D01*
X0191696Y0264233D01*
X0193104Y0264233D01*
X0221096Y0264233D01*
X0234388Y0250941D01*
X0234077Y0250813D01*
X0233497Y0250233D01*
X0231504Y0250233D01*
X0231089Y0250648D01*
X0231089Y0251468D01*
X0230680Y0252456D01*
X0229923Y0253213D01*
X0228935Y0253622D01*
X0227865Y0253622D01*
X0226877Y0253213D01*
X0226501Y0252837D01*
X0225803Y0253534D01*
X0225880Y0253610D01*
X0226289Y0254598D01*
X0226289Y0255668D01*
X0225880Y0256656D01*
X0225123Y0257413D01*
X0224135Y0257822D01*
X0223065Y0257822D01*
X0222077Y0257413D01*
X0221320Y0256656D01*
X0220911Y0255668D01*
X0220911Y0254598D01*
X0221320Y0253610D01*
X0221900Y0253030D01*
X0221900Y0252629D01*
X0223596Y0250933D01*
X0223417Y0250754D02*
X0204583Y0250754D01*
X0206181Y0249156D02*
X0221819Y0249156D01*
X0220220Y0247557D02*
X0207780Y0247557D01*
X0206904Y0248433D02*
X0206904Y0248433D01*
X0212577Y0245959D02*
X0218622Y0245959D01*
X0222176Y0252353D02*
X0202984Y0252353D01*
X0201386Y0253951D02*
X0214379Y0253951D01*
X0218421Y0253951D02*
X0221179Y0253951D01*
X0220911Y0255550D02*
X0219089Y0255550D01*
X0218724Y0257148D02*
X0221813Y0257148D01*
X0225387Y0257148D02*
X0228180Y0257148D01*
X0229779Y0255550D02*
X0226289Y0255550D01*
X0226021Y0253951D02*
X0231377Y0253951D01*
X0230722Y0252353D02*
X0232976Y0252353D01*
X0234019Y0250754D02*
X0231089Y0250754D01*
X0236186Y0253951D02*
X0272214Y0253951D01*
X0272900Y0255550D02*
X0234587Y0255550D01*
X0232989Y0257148D02*
X0271380Y0257148D01*
X0269782Y0258747D02*
X0231390Y0258747D01*
X0229792Y0260345D02*
X0268183Y0260345D01*
X0266585Y0261944D02*
X0228193Y0261944D01*
X0226595Y0263543D02*
X0264986Y0263543D01*
X0263388Y0265141D02*
X0224996Y0265141D01*
X0223398Y0266740D02*
X0261789Y0266740D01*
X0260191Y0268338D02*
X0192399Y0268338D01*
X0190889Y0269937D02*
X0258592Y0269937D01*
X0256994Y0271535D02*
X0190530Y0271535D01*
X0189189Y0266740D02*
X0188598Y0266740D01*
X0190196Y0265141D02*
X0190788Y0265141D01*
X0191795Y0263543D02*
X0221786Y0263543D01*
X0223385Y0261944D02*
X0193393Y0261944D01*
X0194992Y0260345D02*
X0224983Y0260345D01*
X0226582Y0258747D02*
X0201408Y0258747D01*
X0196592Y0258747D02*
X0196590Y0258747D01*
X0194979Y0255550D02*
X0173100Y0255550D01*
X0173100Y0257148D02*
X0193380Y0257148D01*
X0191782Y0258747D02*
X0173100Y0258747D01*
X0173100Y0260345D02*
X0190183Y0260345D01*
X0188585Y0261944D02*
X0173100Y0261944D01*
X0173100Y0263543D02*
X0186986Y0263543D01*
X0185388Y0265141D02*
X0173100Y0265141D01*
X0173100Y0266740D02*
X0183789Y0266740D01*
X0182191Y0268338D02*
X0173100Y0268338D01*
X0173100Y0269937D02*
X0180592Y0269937D01*
X0178994Y0271535D02*
X0173100Y0271535D01*
X0173100Y0273134D02*
X0177395Y0273134D01*
X0175797Y0274732D02*
X0173100Y0274732D01*
X0173100Y0276331D02*
X0174198Y0276331D01*
X0173900Y0276629D02*
X0196307Y0254222D01*
X0196065Y0254222D01*
X0195077Y0253813D01*
X0194320Y0253056D01*
X0193911Y0252068D01*
X0193911Y0250998D01*
X0194320Y0250010D01*
X0194900Y0249430D01*
X0194900Y0239637D01*
X0178496Y0223233D01*
X0177500Y0222237D01*
X0177500Y0173037D01*
X0176100Y0171637D01*
X0176100Y0173037D01*
X0176100Y0189430D01*
X0176680Y0190010D01*
X0177089Y0190998D01*
X0177089Y0192068D01*
X0176680Y0193056D01*
X0175923Y0193813D01*
X0174935Y0194222D01*
X0173865Y0194222D01*
X0173100Y0193905D01*
X0173100Y0284429D01*
X0173192Y0284521D01*
X0173320Y0284210D01*
X0173900Y0283630D01*
X0173900Y0276629D01*
X0173900Y0277929D02*
X0173100Y0277929D01*
X0173100Y0279528D02*
X0173900Y0279528D01*
X0173900Y0281126D02*
X0173100Y0281126D01*
X0173100Y0282725D02*
X0173900Y0282725D01*
X0173273Y0284323D02*
X0173100Y0284323D01*
X0169700Y0284323D02*
X0084313Y0284323D01*
X0084975Y0285922D02*
X0169784Y0285922D01*
X0171383Y0287520D02*
X0085505Y0287520D01*
X0085505Y0289119D02*
X0172981Y0289119D01*
X0178219Y0289119D02*
X0343094Y0289119D01*
X0343116Y0290717D02*
X0085484Y0290717D01*
X0084822Y0292316D02*
X0343778Y0292316D01*
X0344470Y0293914D02*
X0084130Y0293914D01*
X0082532Y0295513D02*
X0346068Y0295513D01*
X0348795Y0297111D02*
X0079805Y0297111D01*
X0073795Y0297111D02*
X0070355Y0297111D01*
X0069836Y0295513D02*
X0071068Y0295513D01*
X0071480Y0298710D02*
X0357120Y0298710D01*
X0358245Y0297111D02*
X0354805Y0297111D01*
X0357532Y0295513D02*
X0358764Y0295513D01*
X0355124Y0300308D02*
X0073476Y0300308D01*
X0070697Y0282725D02*
X0069600Y0282725D01*
X0069600Y0281126D02*
X0072899Y0281126D01*
X0069600Y0279528D02*
X0169700Y0279528D01*
X0169700Y0281126D02*
X0080701Y0281126D01*
X0082903Y0282725D02*
X0169700Y0282725D01*
X0169700Y0277929D02*
X0069600Y0277929D01*
X0069600Y0276331D02*
X0169700Y0276331D01*
X0169700Y0274732D02*
X0069600Y0274732D01*
X0069600Y0273134D02*
X0169700Y0273134D01*
X0169700Y0271535D02*
X0069600Y0271535D01*
X0069600Y0269937D02*
X0169700Y0269937D01*
X0169700Y0268338D02*
X0069600Y0268338D01*
X0069600Y0266740D02*
X0169700Y0266740D01*
X0169700Y0265141D02*
X0069600Y0265141D01*
X0069600Y0263543D02*
X0169700Y0263543D01*
X0169700Y0261944D02*
X0069600Y0261944D01*
X0069600Y0260345D02*
X0169700Y0260345D01*
X0169700Y0258747D02*
X0069600Y0258747D01*
X0069600Y0257148D02*
X0169700Y0257148D01*
X0169700Y0255550D02*
X0069600Y0255550D01*
X0069600Y0253951D02*
X0169700Y0253951D01*
X0169700Y0252353D02*
X0069600Y0252353D01*
X0069600Y0250754D02*
X0169700Y0250754D01*
X0169700Y0249156D02*
X0069600Y0249156D01*
X0069600Y0247557D02*
X0169700Y0247557D01*
X0169700Y0245959D02*
X0069600Y0245959D01*
X0069600Y0244360D02*
X0169700Y0244360D01*
X0169700Y0242762D02*
X0069600Y0242762D01*
X0069600Y0241163D02*
X0169700Y0241163D01*
X0169700Y0239565D02*
X0069600Y0239565D01*
X0069600Y0237966D02*
X0169700Y0237966D01*
X0169700Y0236368D02*
X0069600Y0236368D01*
X0069600Y0234769D02*
X0169700Y0234769D01*
X0169700Y0233171D02*
X0069600Y0233171D01*
X0069600Y0231572D02*
X0169700Y0231572D01*
X0169700Y0229974D02*
X0069600Y0229974D01*
X0069600Y0228375D02*
X0169700Y0228375D01*
X0169700Y0226777D02*
X0069600Y0226777D01*
X0069600Y0225178D02*
X0169700Y0225178D01*
X0169700Y0223580D02*
X0069600Y0223580D01*
X0069600Y0221981D02*
X0169700Y0221981D01*
X0169700Y0220383D02*
X0069600Y0220383D01*
X0069600Y0218784D02*
X0169700Y0218784D01*
X0169700Y0217186D02*
X0069600Y0217186D01*
X0069600Y0215587D02*
X0169700Y0215587D01*
X0169700Y0213989D02*
X0069600Y0213989D01*
X0069600Y0212390D02*
X0169700Y0212390D01*
X0169700Y0210792D02*
X0069600Y0210792D01*
X0069600Y0209193D02*
X0169700Y0209193D01*
X0169700Y0207595D02*
X0069600Y0207595D01*
X0069600Y0205996D02*
X0169700Y0205996D01*
X0169700Y0204398D02*
X0069600Y0204398D01*
X0069600Y0202799D02*
X0169700Y0202799D01*
X0169700Y0201201D02*
X0069600Y0201201D01*
X0069600Y0199602D02*
X0169700Y0199602D01*
X0169700Y0198004D02*
X0069600Y0198004D01*
X0069600Y0196405D02*
X0169700Y0196405D01*
X0169700Y0194807D02*
X0069600Y0194807D01*
X0069600Y0193208D02*
X0096271Y0193208D01*
X0095900Y0191610D02*
X0069600Y0191610D01*
X0069600Y0190011D02*
X0095900Y0190011D01*
X0095900Y0188412D02*
X0069600Y0188412D01*
X0069600Y0186814D02*
X0095900Y0186814D01*
X0095900Y0185215D02*
X0069600Y0185215D01*
X0069600Y0183617D02*
X0095900Y0183617D01*
X0095900Y0182018D02*
X0069600Y0182018D01*
X0069600Y0180420D02*
X0095900Y0180420D01*
X0095900Y0178821D02*
X0069600Y0178821D01*
X0069600Y0177223D02*
X0095900Y0177223D01*
X0095900Y0175624D02*
X0069600Y0175624D01*
X0069600Y0174026D02*
X0095900Y0174026D01*
X0096302Y0172427D02*
X0069600Y0172427D01*
X0069600Y0170829D02*
X0097790Y0170829D01*
X0097400Y0169230D02*
X0069600Y0169230D01*
X0069600Y0167632D02*
X0097609Y0167632D01*
X0098556Y0166033D02*
X0069600Y0166033D01*
X0069600Y0164435D02*
X0109694Y0164435D01*
X0108096Y0166033D02*
X0105044Y0166033D01*
X0105991Y0167632D02*
X0106497Y0167632D01*
X0104316Y0163275D02*
X0103643Y0163618D01*
X0102924Y0163851D01*
X0102178Y0163969D01*
X0102000Y0163969D01*
X0102000Y0159369D01*
X0106600Y0159369D01*
X0106600Y0159547D01*
X0106482Y0160293D01*
X0106248Y0161012D01*
X0105905Y0161685D01*
X0105461Y0162296D01*
X0104927Y0162831D01*
X0104316Y0163275D01*
X0104919Y0162836D02*
X0111293Y0162836D01*
X0112891Y0161238D02*
X0106133Y0161238D01*
X0106585Y0159639D02*
X0114490Y0159639D01*
X0116088Y0158041D02*
X0106480Y0158041D01*
X0106482Y0158045D02*
X0106600Y0158792D01*
X0106600Y0158969D01*
X0102000Y0158969D01*
X0102000Y0154369D01*
X0102178Y0154369D01*
X0102924Y0154487D01*
X0103643Y0154721D01*
X0104316Y0155064D01*
X0104927Y0155508D01*
X0105461Y0156042D01*
X0105905Y0156654D01*
X0106248Y0157327D01*
X0106482Y0158045D01*
X0105752Y0156442D02*
X0117687Y0156442D01*
X0119285Y0154844D02*
X0103884Y0154844D01*
X0102000Y0154844D02*
X0101600Y0154844D01*
X0101600Y0154369D02*
X0101600Y0158969D01*
X0102000Y0158969D01*
X0102000Y0159369D01*
X0101600Y0159369D01*
X0101600Y0158969D01*
X0097000Y0158969D01*
X0097000Y0158792D01*
X0097118Y0158045D01*
X0097352Y0157327D01*
X0097695Y0156654D01*
X0098139Y0156042D01*
X0098673Y0155508D01*
X0099284Y0155064D01*
X0099957Y0154721D01*
X0100676Y0154487D01*
X0101422Y0154369D01*
X0101600Y0154369D01*
X0099716Y0154844D02*
X0069600Y0154844D01*
X0069600Y0156442D02*
X0097848Y0156442D01*
X0097120Y0158041D02*
X0069600Y0158041D01*
X0069600Y0159639D02*
X0097015Y0159639D01*
X0097000Y0159547D02*
X0097000Y0159369D01*
X0101600Y0159369D01*
X0101600Y0163969D01*
X0101422Y0163969D01*
X0100676Y0163851D01*
X0099957Y0163618D01*
X0099284Y0163275D01*
X0098673Y0162831D01*
X0098139Y0162296D01*
X0097695Y0161685D01*
X0097352Y0161012D01*
X0097118Y0160293D01*
X0097000Y0159547D01*
X0097467Y0161238D02*
X0069600Y0161238D01*
X0069600Y0162836D02*
X0098681Y0162836D01*
X0101600Y0162836D02*
X0102000Y0162836D01*
X0102000Y0161238D02*
X0101600Y0161238D01*
X0101600Y0159639D02*
X0102000Y0159639D01*
X0102000Y0158041D02*
X0101600Y0158041D01*
X0101600Y0156442D02*
X0102000Y0156442D01*
X0118955Y0145253D02*
X0069600Y0145253D01*
X0069600Y0146851D02*
X0119900Y0146851D01*
X0119900Y0148450D02*
X0069600Y0148450D01*
X0069600Y0150048D02*
X0119900Y0150048D01*
X0119900Y0151647D02*
X0069600Y0151647D01*
X0069600Y0153245D02*
X0119900Y0153245D01*
X0118727Y0143654D02*
X0069600Y0143654D01*
X0069600Y0142056D02*
X0118727Y0142056D01*
X0118727Y0140457D02*
X0069600Y0140457D01*
X0069600Y0138859D02*
X0119450Y0138859D01*
X0118727Y0137260D02*
X0069600Y0137260D01*
X0069600Y0135662D02*
X0118727Y0135662D01*
X0118727Y0134063D02*
X0069600Y0134063D01*
X0069600Y0132465D02*
X0119104Y0132465D01*
X0119400Y0130866D02*
X0118791Y0130866D01*
X0115882Y0130866D02*
X0115513Y0130866D01*
X0115513Y0129268D02*
X0115882Y0129268D01*
X0115882Y0127669D02*
X0115513Y0127669D01*
X0115513Y0126071D02*
X0115882Y0126071D01*
X0115882Y0124472D02*
X0115513Y0124472D01*
X0115513Y0122874D02*
X0115882Y0122874D01*
X0119133Y0122874D02*
X0119502Y0122874D01*
X0127654Y0121275D02*
X0069600Y0121275D01*
X0069600Y0119677D02*
X0129252Y0119677D01*
X0130851Y0118078D02*
X0069600Y0118078D01*
X0069600Y0116479D02*
X0132449Y0116479D01*
X0134048Y0114881D02*
X0069600Y0114881D01*
X0069600Y0113282D02*
X0135646Y0113282D01*
X0137245Y0111684D02*
X0069600Y0111684D01*
X0069600Y0110085D02*
X0138843Y0110085D01*
X0140442Y0108487D02*
X0069600Y0108487D01*
X0069600Y0106888D02*
X0120409Y0106888D01*
X0120409Y0105290D02*
X0069600Y0105290D01*
X0069600Y0103691D02*
X0120409Y0103691D01*
X0120409Y0102093D02*
X0069600Y0102093D01*
X0069600Y0100494D02*
X0120409Y0100494D01*
X0139859Y0118078D02*
X0157417Y0118078D01*
X0157417Y0119677D02*
X0138261Y0119677D01*
X0136662Y0121275D02*
X0157417Y0121275D01*
X0157417Y0122533D02*
X0157417Y0113528D01*
X0156996Y0113528D01*
X0156538Y0113406D01*
X0156128Y0113169D01*
X0155793Y0112834D01*
X0155556Y0112423D01*
X0155433Y0111965D01*
X0155433Y0111103D01*
X0154923Y0111613D01*
X0153935Y0112022D01*
X0152865Y0112022D01*
X0151877Y0111613D01*
X0151297Y0111033D01*
X0147621Y0111033D01*
X0147689Y0111198D01*
X0147689Y0112268D01*
X0147280Y0113256D01*
X0146523Y0114013D01*
X0145535Y0114422D01*
X0144465Y0114422D01*
X0143793Y0114144D01*
X0135404Y0122533D01*
X0136750Y0122533D01*
X0136957Y0122741D01*
X0137165Y0122533D01*
X0140930Y0122533D01*
X0140970Y0122493D01*
X0141381Y0122256D01*
X0141839Y0122133D01*
X0143453Y0122133D01*
X0143453Y0126295D01*
X0143454Y0126295D01*
X0143454Y0122133D01*
X0145068Y0122133D01*
X0145526Y0122256D01*
X0145937Y0122493D01*
X0145977Y0122533D01*
X0149742Y0122533D01*
X0149950Y0122741D01*
X0150157Y0122533D01*
X0157417Y0122533D01*
X0157417Y0116479D02*
X0141458Y0116479D01*
X0143056Y0114881D02*
X0157417Y0114881D01*
X0156325Y0113282D02*
X0147253Y0113282D01*
X0147689Y0111684D02*
X0152049Y0111684D01*
X0154751Y0111684D02*
X0155433Y0111684D01*
X0161970Y0114881D02*
X0172325Y0114881D01*
X0170683Y0113282D02*
X0162866Y0113282D01*
X0163757Y0111684D02*
X0170558Y0111684D01*
X0171645Y0110085D02*
X0163757Y0110085D01*
X0163757Y0108487D02*
X0174642Y0108487D01*
X0176240Y0106888D02*
X0163757Y0106888D01*
X0161970Y0094100D02*
X0170750Y0094100D01*
X0170750Y0092502D02*
X0161970Y0092502D01*
X0157639Y0090903D02*
X0170750Y0090903D01*
X0170750Y0089305D02*
X0157639Y0089305D01*
X0159989Y0087706D02*
X0159989Y0087706D01*
X0159989Y0086108D02*
X0159989Y0086108D01*
X0159989Y0084509D02*
X0159989Y0084509D01*
X0159989Y0082911D02*
X0159989Y0082911D01*
X0157639Y0081312D02*
X0170750Y0081312D01*
X0170750Y0079714D02*
X0157639Y0079714D01*
X0157639Y0078115D02*
X0170750Y0078115D01*
X0170750Y0076517D02*
X0163847Y0076517D01*
X0164151Y0074918D02*
X0170750Y0074918D01*
X0170750Y0073320D02*
X0164151Y0073320D01*
X0164151Y0071721D02*
X0170750Y0071721D01*
X0160370Y0071721D02*
X0159608Y0071721D01*
X0159608Y0073320D02*
X0160370Y0073320D01*
X0160370Y0074918D02*
X0159608Y0074918D01*
X0159608Y0076517D02*
X0160370Y0076517D01*
X0153283Y0076517D02*
X0085153Y0076517D01*
X0085505Y0074918D02*
X0153283Y0074918D01*
X0153283Y0078115D02*
X0084490Y0078115D01*
X0083331Y0079714D02*
X0153283Y0079714D01*
X0153283Y0081312D02*
X0081732Y0081312D01*
X0069600Y0122874D02*
X0112262Y0122874D01*
X0111929Y0124472D02*
X0069600Y0124472D01*
X0069600Y0126071D02*
X0111929Y0126071D01*
X0111929Y0127669D02*
X0069600Y0127669D01*
X0069600Y0129268D02*
X0111929Y0129268D01*
X0112605Y0130866D02*
X0069600Y0130866D01*
X0120310Y0172427D02*
X0168947Y0172427D01*
X0168711Y0174026D02*
X0161296Y0174026D01*
X0162089Y0175624D02*
X0169689Y0175624D01*
X0169700Y0177223D02*
X0161776Y0177223D01*
X0157504Y0174026D02*
X0118711Y0174026D01*
X0120105Y0175624D02*
X0117113Y0175624D01*
X0118506Y0177223D02*
X0115514Y0177223D01*
X0116907Y0178821D02*
X0113916Y0178821D01*
X0115309Y0180420D02*
X0112317Y0180420D01*
X0113710Y0182018D02*
X0110719Y0182018D01*
X0112112Y0183617D02*
X0109120Y0183617D01*
X0110513Y0185215D02*
X0107522Y0185215D01*
X0106200Y0186814D02*
X0108915Y0186814D01*
X0107316Y0188412D02*
X0106200Y0188412D01*
X0108928Y0191610D02*
X0169700Y0191610D01*
X0169700Y0193208D02*
X0107329Y0193208D01*
X0110526Y0190011D02*
X0169700Y0190011D01*
X0169700Y0188412D02*
X0112125Y0188412D01*
X0113723Y0186814D02*
X0169700Y0186814D01*
X0169700Y0185215D02*
X0115322Y0185215D01*
X0116920Y0183617D02*
X0169700Y0183617D01*
X0169700Y0182018D02*
X0118519Y0182018D01*
X0120117Y0180420D02*
X0169700Y0180420D01*
X0169700Y0178821D02*
X0121716Y0178821D01*
X0121908Y0170829D02*
X0170492Y0170829D01*
X0168893Y0169230D02*
X0123507Y0169230D01*
X0125105Y0167632D02*
X0167295Y0167632D01*
X0165696Y0166033D02*
X0126704Y0166033D01*
X0128302Y0164435D02*
X0164098Y0164435D01*
X0162499Y0162836D02*
X0129901Y0162836D01*
X0131499Y0161238D02*
X0160901Y0161238D01*
X0157941Y0159639D02*
X0133098Y0159639D01*
X0134696Y0158041D02*
X0156783Y0158041D01*
X0176100Y0172427D02*
X0176890Y0172427D01*
X0177500Y0174026D02*
X0176100Y0174026D01*
X0176100Y0175624D02*
X0177500Y0175624D01*
X0177500Y0177223D02*
X0176100Y0177223D01*
X0176100Y0178821D02*
X0177500Y0178821D01*
X0177500Y0180420D02*
X0176100Y0180420D01*
X0176100Y0182018D02*
X0177500Y0182018D01*
X0177500Y0183617D02*
X0176100Y0183617D01*
X0176100Y0185215D02*
X0177500Y0185215D01*
X0177500Y0186814D02*
X0176100Y0186814D01*
X0176100Y0188412D02*
X0177500Y0188412D01*
X0177500Y0190011D02*
X0176680Y0190011D01*
X0177089Y0191610D02*
X0177500Y0191610D01*
X0177500Y0193208D02*
X0176528Y0193208D01*
X0177500Y0194807D02*
X0173100Y0194807D01*
X0173100Y0196405D02*
X0177500Y0196405D01*
X0177500Y0198004D02*
X0173100Y0198004D01*
X0173100Y0199602D02*
X0177500Y0199602D01*
X0177500Y0201201D02*
X0173100Y0201201D01*
X0173100Y0202799D02*
X0177500Y0202799D01*
X0177500Y0204398D02*
X0173100Y0204398D01*
X0173100Y0205996D02*
X0177500Y0205996D01*
X0177500Y0207595D02*
X0173100Y0207595D01*
X0173100Y0209193D02*
X0177500Y0209193D01*
X0177500Y0210792D02*
X0173100Y0210792D01*
X0173100Y0212390D02*
X0177500Y0212390D01*
X0177500Y0213989D02*
X0173100Y0213989D01*
X0173100Y0215587D02*
X0177500Y0215587D01*
X0177500Y0217186D02*
X0173100Y0217186D01*
X0173100Y0218784D02*
X0177500Y0218784D01*
X0177500Y0220383D02*
X0173100Y0220383D01*
X0173100Y0221981D02*
X0177500Y0221981D01*
X0178843Y0223580D02*
X0173100Y0223580D01*
X0173100Y0225178D02*
X0180441Y0225178D01*
X0182040Y0226777D02*
X0173100Y0226777D01*
X0173100Y0228375D02*
X0183638Y0228375D01*
X0185237Y0229974D02*
X0173100Y0229974D01*
X0173100Y0231572D02*
X0186835Y0231572D01*
X0188434Y0233171D02*
X0173100Y0233171D01*
X0173100Y0234769D02*
X0190032Y0234769D01*
X0191631Y0236368D02*
X0173100Y0236368D01*
X0173100Y0237966D02*
X0193229Y0237966D01*
X0194828Y0239565D02*
X0173100Y0239565D01*
X0173100Y0241163D02*
X0194900Y0241163D01*
X0194900Y0242762D02*
X0173100Y0242762D01*
X0173100Y0244360D02*
X0194900Y0244360D01*
X0194900Y0245959D02*
X0173100Y0245959D01*
X0173100Y0247557D02*
X0194900Y0247557D01*
X0194900Y0249156D02*
X0173100Y0249156D01*
X0173100Y0250754D02*
X0194012Y0250754D01*
X0194029Y0252353D02*
X0173100Y0252353D01*
X0173100Y0253951D02*
X0195412Y0253951D01*
X0188700Y0276331D02*
X0359000Y0276331D01*
X0359000Y0277929D02*
X0188700Y0277929D01*
X0187810Y0279528D02*
X0359000Y0279528D01*
X0359000Y0281126D02*
X0355701Y0281126D01*
X0357903Y0282725D02*
X0359000Y0282725D01*
X0359000Y0274732D02*
X0258605Y0274732D01*
X0260204Y0273134D02*
X0359000Y0273134D01*
X0359000Y0271535D02*
X0261802Y0271535D01*
X0263401Y0269937D02*
X0359000Y0269937D01*
X0359000Y0268338D02*
X0264999Y0268338D01*
X0266598Y0266740D02*
X0359000Y0266740D01*
X0359000Y0265141D02*
X0268196Y0265141D01*
X0269795Y0263543D02*
X0359000Y0263543D01*
X0359000Y0261944D02*
X0271393Y0261944D01*
X0272992Y0260345D02*
X0359000Y0260345D01*
X0359000Y0258747D02*
X0274590Y0258747D01*
X0276189Y0257148D02*
X0359000Y0257148D01*
X0359000Y0255550D02*
X0276300Y0255550D01*
X0276300Y0253951D02*
X0359000Y0253951D01*
X0359000Y0252353D02*
X0275424Y0252353D01*
X0273826Y0250754D02*
X0359000Y0250754D01*
X0359000Y0249156D02*
X0272489Y0249156D01*
X0272027Y0247557D02*
X0359000Y0247557D01*
X0347899Y0281126D02*
X0186211Y0281126D01*
X0184613Y0282725D02*
X0345697Y0282725D01*
X0344287Y0284323D02*
X0183014Y0284323D01*
X0181416Y0285922D02*
X0343625Y0285922D01*
X0343094Y0287520D02*
X0179817Y0287520D01*
X0237784Y0252353D02*
X0270616Y0252353D01*
X0267619Y0250754D02*
X0239383Y0250754D01*
X0203917Y0124472D02*
X0195865Y0124472D01*
X0197464Y0122874D02*
X0203917Y0122874D01*
X0203917Y0121275D02*
X0199062Y0121275D01*
X0200661Y0119677D02*
X0203917Y0119677D01*
X0203917Y0118078D02*
X0202259Y0118078D01*
X0203858Y0116479D02*
X0203917Y0116479D01*
X0170750Y0087706D02*
X0163722Y0087706D01*
X0164151Y0086108D02*
X0170750Y0086108D01*
X0170750Y0084509D02*
X0164151Y0084509D01*
X0164088Y0082911D02*
X0170750Y0082911D01*
X0160370Y0068524D02*
X0159608Y0068524D01*
X0159608Y0066926D02*
X0160370Y0066926D01*
X0160370Y0065327D02*
X0159608Y0065327D01*
X0159608Y0063729D02*
X0160370Y0063729D01*
X0143453Y0122874D02*
X0143454Y0122874D01*
X0143453Y0124472D02*
X0143454Y0124472D01*
X0143453Y0126071D02*
X0143454Y0126071D01*
M02*
