G75*
%MOIN*%
%OFA0B0*%
%FSLAX25Y25*%
%IPPOS*%
%LPD*%
%AMOC8*
5,1,8,0,0,1.08239X$1,22.5*
%
%ADD10C,0.00000*%
%ADD11R,0.02500X0.05000*%
%ADD12R,0.04252X0.04134*%
%ADD13R,0.07874X0.08661*%
%ADD14R,0.03937X0.04331*%
%ADD15R,0.03346X0.04134*%
%ADD16R,0.06000X0.06000*%
%ADD17C,0.06000*%
%ADD18R,0.03150X0.02362*%
%ADD19R,0.01500X0.04303*%
%ADD20R,0.01575X0.05315*%
%ADD21R,0.08268X0.06299*%
%ADD22R,0.07087X0.07480*%
%ADD23R,0.07480X0.07480*%
%ADD24R,0.04724X0.04724*%
%ADD25R,0.04331X0.03937*%
%ADD26R,0.01772X0.07087*%
%ADD27R,0.29528X0.29528*%
%ADD28R,0.03346X0.05709*%
%ADD29R,0.05906X0.03543*%
%ADD30R,0.03543X0.05906*%
%ADD31R,0.23622X0.23622*%
%ADD32R,0.15748X0.04724*%
%ADD33R,0.04134X0.04252*%
%ADD34R,0.07008X0.12402*%
%ADD35R,0.04331X0.05118*%
%ADD36R,0.02362X0.05512*%
%ADD37R,0.04528X0.11811*%
%ADD38R,0.07520X0.16496*%
%ADD39R,0.16496X0.07520*%
%ADD40R,0.11811X0.04528*%
%ADD41R,0.04528X0.04528*%
%ADD42R,0.05906X0.05118*%
%ADD43R,0.05512X0.03937*%
%ADD44C,0.05000*%
%ADD45C,0.02000*%
%ADD46C,0.02578*%
%ADD47C,0.01600*%
%ADD48C,0.00600*%
%ADD49C,0.03200*%
%ADD50C,0.10000*%
%ADD51C,0.01200*%
D10*
X0081800Y0068933D02*
X0081800Y0293933D01*
X0081803Y0294175D01*
X0081812Y0294416D01*
X0081826Y0294657D01*
X0081847Y0294898D01*
X0081873Y0295138D01*
X0081905Y0295378D01*
X0081943Y0295617D01*
X0081986Y0295854D01*
X0082036Y0296091D01*
X0082091Y0296326D01*
X0082151Y0296560D01*
X0082218Y0296792D01*
X0082289Y0297023D01*
X0082367Y0297252D01*
X0082450Y0297479D01*
X0082538Y0297704D01*
X0082632Y0297927D01*
X0082731Y0298147D01*
X0082836Y0298365D01*
X0082945Y0298580D01*
X0083060Y0298793D01*
X0083180Y0299003D01*
X0083305Y0299209D01*
X0083435Y0299413D01*
X0083570Y0299614D01*
X0083710Y0299811D01*
X0083854Y0300005D01*
X0084003Y0300195D01*
X0084157Y0300381D01*
X0084315Y0300564D01*
X0084477Y0300743D01*
X0084644Y0300918D01*
X0084815Y0301089D01*
X0084990Y0301256D01*
X0085169Y0301418D01*
X0085352Y0301576D01*
X0085538Y0301730D01*
X0085728Y0301879D01*
X0085922Y0302023D01*
X0086119Y0302163D01*
X0086320Y0302298D01*
X0086524Y0302428D01*
X0086730Y0302553D01*
X0086940Y0302673D01*
X0087153Y0302788D01*
X0087368Y0302897D01*
X0087586Y0303002D01*
X0087806Y0303101D01*
X0088029Y0303195D01*
X0088254Y0303283D01*
X0088481Y0303366D01*
X0088710Y0303444D01*
X0088941Y0303515D01*
X0089173Y0303582D01*
X0089407Y0303642D01*
X0089642Y0303697D01*
X0089879Y0303747D01*
X0090116Y0303790D01*
X0090355Y0303828D01*
X0090595Y0303860D01*
X0090835Y0303886D01*
X0091076Y0303907D01*
X0091317Y0303921D01*
X0091558Y0303930D01*
X0091800Y0303933D01*
X0336800Y0303933D01*
X0337042Y0303930D01*
X0337283Y0303921D01*
X0337524Y0303907D01*
X0337765Y0303886D01*
X0338005Y0303860D01*
X0338245Y0303828D01*
X0338484Y0303790D01*
X0338721Y0303747D01*
X0338958Y0303697D01*
X0339193Y0303642D01*
X0339427Y0303582D01*
X0339659Y0303515D01*
X0339890Y0303444D01*
X0340119Y0303366D01*
X0340346Y0303283D01*
X0340571Y0303195D01*
X0340794Y0303101D01*
X0341014Y0303002D01*
X0341232Y0302897D01*
X0341447Y0302788D01*
X0341660Y0302673D01*
X0341870Y0302553D01*
X0342076Y0302428D01*
X0342280Y0302298D01*
X0342481Y0302163D01*
X0342678Y0302023D01*
X0342872Y0301879D01*
X0343062Y0301730D01*
X0343248Y0301576D01*
X0343431Y0301418D01*
X0343610Y0301256D01*
X0343785Y0301089D01*
X0343956Y0300918D01*
X0344123Y0300743D01*
X0344285Y0300564D01*
X0344443Y0300381D01*
X0344597Y0300195D01*
X0344746Y0300005D01*
X0344890Y0299811D01*
X0345030Y0299614D01*
X0345165Y0299413D01*
X0345295Y0299209D01*
X0345420Y0299003D01*
X0345540Y0298793D01*
X0345655Y0298580D01*
X0345764Y0298365D01*
X0345869Y0298147D01*
X0345968Y0297927D01*
X0346062Y0297704D01*
X0346150Y0297479D01*
X0346233Y0297252D01*
X0346311Y0297023D01*
X0346382Y0296792D01*
X0346449Y0296560D01*
X0346509Y0296326D01*
X0346564Y0296091D01*
X0346614Y0295854D01*
X0346657Y0295617D01*
X0346695Y0295378D01*
X0346727Y0295138D01*
X0346753Y0294898D01*
X0346774Y0294657D01*
X0346788Y0294416D01*
X0346797Y0294175D01*
X0346800Y0293933D01*
X0346800Y0068933D01*
X0346859Y0068751D01*
X0346912Y0068568D01*
X0346962Y0068383D01*
X0347007Y0068198D01*
X0347047Y0068011D01*
X0347083Y0067823D01*
X0347114Y0067635D01*
X0347141Y0067446D01*
X0347163Y0067256D01*
X0347181Y0067066D01*
X0347194Y0066875D01*
X0347202Y0066684D01*
X0347206Y0066493D01*
X0347205Y0066302D01*
X0347199Y0066111D01*
X0347189Y0065920D01*
X0347175Y0065730D01*
X0347155Y0065540D01*
X0347131Y0065350D01*
X0347103Y0065161D01*
X0347070Y0064973D01*
X0347032Y0064786D01*
X0346990Y0064599D01*
X0346944Y0064414D01*
X0346893Y0064230D01*
X0346837Y0064047D01*
X0346778Y0063866D01*
X0346713Y0063686D01*
X0346645Y0063507D01*
X0346572Y0063331D01*
X0346495Y0063156D01*
X0346414Y0062983D01*
X0346328Y0062812D01*
X0346239Y0062643D01*
X0346145Y0062477D01*
X0346047Y0062313D01*
X0345946Y0062151D01*
X0345840Y0061991D01*
X0345731Y0061835D01*
X0345618Y0061681D01*
X0345502Y0061529D01*
X0345381Y0061381D01*
X0345257Y0061235D01*
X0345130Y0061093D01*
X0344999Y0060954D01*
X0344865Y0060818D01*
X0344728Y0060685D01*
X0344587Y0060555D01*
X0344444Y0060429D01*
X0344297Y0060307D01*
X0344148Y0060188D01*
X0343995Y0060072D01*
X0343840Y0059961D01*
X0343683Y0059853D01*
X0343522Y0059749D01*
X0343360Y0059649D01*
X0343195Y0059553D01*
X0343027Y0059461D01*
X0342858Y0059373D01*
X0342686Y0059289D01*
X0342512Y0059209D01*
X0342337Y0059134D01*
X0342160Y0059062D01*
X0341981Y0058995D01*
X0341800Y0058933D01*
X0091800Y0058933D01*
X0091558Y0058936D01*
X0091317Y0058945D01*
X0091076Y0058959D01*
X0090835Y0058980D01*
X0090595Y0059006D01*
X0090355Y0059038D01*
X0090116Y0059076D01*
X0089879Y0059119D01*
X0089642Y0059169D01*
X0089407Y0059224D01*
X0089173Y0059284D01*
X0088941Y0059351D01*
X0088710Y0059422D01*
X0088481Y0059500D01*
X0088254Y0059583D01*
X0088029Y0059671D01*
X0087806Y0059765D01*
X0087586Y0059864D01*
X0087368Y0059969D01*
X0087153Y0060078D01*
X0086940Y0060193D01*
X0086730Y0060313D01*
X0086524Y0060438D01*
X0086320Y0060568D01*
X0086119Y0060703D01*
X0085922Y0060843D01*
X0085728Y0060987D01*
X0085538Y0061136D01*
X0085352Y0061290D01*
X0085169Y0061448D01*
X0084990Y0061610D01*
X0084815Y0061777D01*
X0084644Y0061948D01*
X0084477Y0062123D01*
X0084315Y0062302D01*
X0084157Y0062485D01*
X0084003Y0062671D01*
X0083854Y0062861D01*
X0083710Y0063055D01*
X0083570Y0063252D01*
X0083435Y0063453D01*
X0083305Y0063657D01*
X0083180Y0063863D01*
X0083060Y0064073D01*
X0082945Y0064286D01*
X0082836Y0064501D01*
X0082731Y0064719D01*
X0082632Y0064939D01*
X0082538Y0065162D01*
X0082450Y0065387D01*
X0082367Y0065614D01*
X0082289Y0065843D01*
X0082218Y0066074D01*
X0082151Y0066306D01*
X0082091Y0066540D01*
X0082036Y0066775D01*
X0081986Y0067012D01*
X0081943Y0067249D01*
X0081905Y0067488D01*
X0081873Y0067728D01*
X0081847Y0067968D01*
X0081826Y0068209D01*
X0081812Y0068450D01*
X0081803Y0068691D01*
X0081800Y0068933D01*
X0085894Y0073933D02*
X0085896Y0074086D01*
X0085902Y0074240D01*
X0085912Y0074393D01*
X0085926Y0074545D01*
X0085944Y0074698D01*
X0085966Y0074849D01*
X0085991Y0075000D01*
X0086021Y0075151D01*
X0086055Y0075301D01*
X0086092Y0075449D01*
X0086133Y0075597D01*
X0086178Y0075743D01*
X0086227Y0075889D01*
X0086280Y0076033D01*
X0086336Y0076175D01*
X0086396Y0076316D01*
X0086460Y0076456D01*
X0086527Y0076594D01*
X0086598Y0076730D01*
X0086673Y0076864D01*
X0086750Y0076996D01*
X0086832Y0077126D01*
X0086916Y0077254D01*
X0087004Y0077380D01*
X0087095Y0077503D01*
X0087189Y0077624D01*
X0087287Y0077742D01*
X0087387Y0077858D01*
X0087491Y0077971D01*
X0087597Y0078082D01*
X0087706Y0078190D01*
X0087818Y0078295D01*
X0087932Y0078396D01*
X0088050Y0078495D01*
X0088169Y0078591D01*
X0088291Y0078684D01*
X0088416Y0078773D01*
X0088543Y0078860D01*
X0088672Y0078942D01*
X0088803Y0079022D01*
X0088936Y0079098D01*
X0089071Y0079171D01*
X0089208Y0079240D01*
X0089347Y0079305D01*
X0089487Y0079367D01*
X0089629Y0079425D01*
X0089772Y0079480D01*
X0089917Y0079531D01*
X0090063Y0079578D01*
X0090210Y0079621D01*
X0090358Y0079660D01*
X0090507Y0079696D01*
X0090657Y0079727D01*
X0090808Y0079755D01*
X0090959Y0079779D01*
X0091112Y0079799D01*
X0091264Y0079815D01*
X0091417Y0079827D01*
X0091570Y0079835D01*
X0091723Y0079839D01*
X0091877Y0079839D01*
X0092030Y0079835D01*
X0092183Y0079827D01*
X0092336Y0079815D01*
X0092488Y0079799D01*
X0092641Y0079779D01*
X0092792Y0079755D01*
X0092943Y0079727D01*
X0093093Y0079696D01*
X0093242Y0079660D01*
X0093390Y0079621D01*
X0093537Y0079578D01*
X0093683Y0079531D01*
X0093828Y0079480D01*
X0093971Y0079425D01*
X0094113Y0079367D01*
X0094253Y0079305D01*
X0094392Y0079240D01*
X0094529Y0079171D01*
X0094664Y0079098D01*
X0094797Y0079022D01*
X0094928Y0078942D01*
X0095057Y0078860D01*
X0095184Y0078773D01*
X0095309Y0078684D01*
X0095431Y0078591D01*
X0095550Y0078495D01*
X0095668Y0078396D01*
X0095782Y0078295D01*
X0095894Y0078190D01*
X0096003Y0078082D01*
X0096109Y0077971D01*
X0096213Y0077858D01*
X0096313Y0077742D01*
X0096411Y0077624D01*
X0096505Y0077503D01*
X0096596Y0077380D01*
X0096684Y0077254D01*
X0096768Y0077126D01*
X0096850Y0076996D01*
X0096927Y0076864D01*
X0097002Y0076730D01*
X0097073Y0076594D01*
X0097140Y0076456D01*
X0097204Y0076316D01*
X0097264Y0076175D01*
X0097320Y0076033D01*
X0097373Y0075889D01*
X0097422Y0075743D01*
X0097467Y0075597D01*
X0097508Y0075449D01*
X0097545Y0075301D01*
X0097579Y0075151D01*
X0097609Y0075000D01*
X0097634Y0074849D01*
X0097656Y0074698D01*
X0097674Y0074545D01*
X0097688Y0074393D01*
X0097698Y0074240D01*
X0097704Y0074086D01*
X0097706Y0073933D01*
X0097704Y0073780D01*
X0097698Y0073626D01*
X0097688Y0073473D01*
X0097674Y0073321D01*
X0097656Y0073168D01*
X0097634Y0073017D01*
X0097609Y0072866D01*
X0097579Y0072715D01*
X0097545Y0072565D01*
X0097508Y0072417D01*
X0097467Y0072269D01*
X0097422Y0072123D01*
X0097373Y0071977D01*
X0097320Y0071833D01*
X0097264Y0071691D01*
X0097204Y0071550D01*
X0097140Y0071410D01*
X0097073Y0071272D01*
X0097002Y0071136D01*
X0096927Y0071002D01*
X0096850Y0070870D01*
X0096768Y0070740D01*
X0096684Y0070612D01*
X0096596Y0070486D01*
X0096505Y0070363D01*
X0096411Y0070242D01*
X0096313Y0070124D01*
X0096213Y0070008D01*
X0096109Y0069895D01*
X0096003Y0069784D01*
X0095894Y0069676D01*
X0095782Y0069571D01*
X0095668Y0069470D01*
X0095550Y0069371D01*
X0095431Y0069275D01*
X0095309Y0069182D01*
X0095184Y0069093D01*
X0095057Y0069006D01*
X0094928Y0068924D01*
X0094797Y0068844D01*
X0094664Y0068768D01*
X0094529Y0068695D01*
X0094392Y0068626D01*
X0094253Y0068561D01*
X0094113Y0068499D01*
X0093971Y0068441D01*
X0093828Y0068386D01*
X0093683Y0068335D01*
X0093537Y0068288D01*
X0093390Y0068245D01*
X0093242Y0068206D01*
X0093093Y0068170D01*
X0092943Y0068139D01*
X0092792Y0068111D01*
X0092641Y0068087D01*
X0092488Y0068067D01*
X0092336Y0068051D01*
X0092183Y0068039D01*
X0092030Y0068031D01*
X0091877Y0068027D01*
X0091723Y0068027D01*
X0091570Y0068031D01*
X0091417Y0068039D01*
X0091264Y0068051D01*
X0091112Y0068067D01*
X0090959Y0068087D01*
X0090808Y0068111D01*
X0090657Y0068139D01*
X0090507Y0068170D01*
X0090358Y0068206D01*
X0090210Y0068245D01*
X0090063Y0068288D01*
X0089917Y0068335D01*
X0089772Y0068386D01*
X0089629Y0068441D01*
X0089487Y0068499D01*
X0089347Y0068561D01*
X0089208Y0068626D01*
X0089071Y0068695D01*
X0088936Y0068768D01*
X0088803Y0068844D01*
X0088672Y0068924D01*
X0088543Y0069006D01*
X0088416Y0069093D01*
X0088291Y0069182D01*
X0088169Y0069275D01*
X0088050Y0069371D01*
X0087932Y0069470D01*
X0087818Y0069571D01*
X0087706Y0069676D01*
X0087597Y0069784D01*
X0087491Y0069895D01*
X0087387Y0070008D01*
X0087287Y0070124D01*
X0087189Y0070242D01*
X0087095Y0070363D01*
X0087004Y0070486D01*
X0086916Y0070612D01*
X0086832Y0070740D01*
X0086750Y0070870D01*
X0086673Y0071002D01*
X0086598Y0071136D01*
X0086527Y0071272D01*
X0086460Y0071410D01*
X0086396Y0071550D01*
X0086336Y0071691D01*
X0086280Y0071833D01*
X0086227Y0071977D01*
X0086178Y0072123D01*
X0086133Y0072269D01*
X0086092Y0072417D01*
X0086055Y0072565D01*
X0086021Y0072715D01*
X0085991Y0072866D01*
X0085966Y0073017D01*
X0085944Y0073168D01*
X0085926Y0073321D01*
X0085912Y0073473D01*
X0085902Y0073626D01*
X0085896Y0073780D01*
X0085894Y0073933D01*
X0330894Y0073933D02*
X0330896Y0074086D01*
X0330902Y0074240D01*
X0330912Y0074393D01*
X0330926Y0074545D01*
X0330944Y0074698D01*
X0330966Y0074849D01*
X0330991Y0075000D01*
X0331021Y0075151D01*
X0331055Y0075301D01*
X0331092Y0075449D01*
X0331133Y0075597D01*
X0331178Y0075743D01*
X0331227Y0075889D01*
X0331280Y0076033D01*
X0331336Y0076175D01*
X0331396Y0076316D01*
X0331460Y0076456D01*
X0331527Y0076594D01*
X0331598Y0076730D01*
X0331673Y0076864D01*
X0331750Y0076996D01*
X0331832Y0077126D01*
X0331916Y0077254D01*
X0332004Y0077380D01*
X0332095Y0077503D01*
X0332189Y0077624D01*
X0332287Y0077742D01*
X0332387Y0077858D01*
X0332491Y0077971D01*
X0332597Y0078082D01*
X0332706Y0078190D01*
X0332818Y0078295D01*
X0332932Y0078396D01*
X0333050Y0078495D01*
X0333169Y0078591D01*
X0333291Y0078684D01*
X0333416Y0078773D01*
X0333543Y0078860D01*
X0333672Y0078942D01*
X0333803Y0079022D01*
X0333936Y0079098D01*
X0334071Y0079171D01*
X0334208Y0079240D01*
X0334347Y0079305D01*
X0334487Y0079367D01*
X0334629Y0079425D01*
X0334772Y0079480D01*
X0334917Y0079531D01*
X0335063Y0079578D01*
X0335210Y0079621D01*
X0335358Y0079660D01*
X0335507Y0079696D01*
X0335657Y0079727D01*
X0335808Y0079755D01*
X0335959Y0079779D01*
X0336112Y0079799D01*
X0336264Y0079815D01*
X0336417Y0079827D01*
X0336570Y0079835D01*
X0336723Y0079839D01*
X0336877Y0079839D01*
X0337030Y0079835D01*
X0337183Y0079827D01*
X0337336Y0079815D01*
X0337488Y0079799D01*
X0337641Y0079779D01*
X0337792Y0079755D01*
X0337943Y0079727D01*
X0338093Y0079696D01*
X0338242Y0079660D01*
X0338390Y0079621D01*
X0338537Y0079578D01*
X0338683Y0079531D01*
X0338828Y0079480D01*
X0338971Y0079425D01*
X0339113Y0079367D01*
X0339253Y0079305D01*
X0339392Y0079240D01*
X0339529Y0079171D01*
X0339664Y0079098D01*
X0339797Y0079022D01*
X0339928Y0078942D01*
X0340057Y0078860D01*
X0340184Y0078773D01*
X0340309Y0078684D01*
X0340431Y0078591D01*
X0340550Y0078495D01*
X0340668Y0078396D01*
X0340782Y0078295D01*
X0340894Y0078190D01*
X0341003Y0078082D01*
X0341109Y0077971D01*
X0341213Y0077858D01*
X0341313Y0077742D01*
X0341411Y0077624D01*
X0341505Y0077503D01*
X0341596Y0077380D01*
X0341684Y0077254D01*
X0341768Y0077126D01*
X0341850Y0076996D01*
X0341927Y0076864D01*
X0342002Y0076730D01*
X0342073Y0076594D01*
X0342140Y0076456D01*
X0342204Y0076316D01*
X0342264Y0076175D01*
X0342320Y0076033D01*
X0342373Y0075889D01*
X0342422Y0075743D01*
X0342467Y0075597D01*
X0342508Y0075449D01*
X0342545Y0075301D01*
X0342579Y0075151D01*
X0342609Y0075000D01*
X0342634Y0074849D01*
X0342656Y0074698D01*
X0342674Y0074545D01*
X0342688Y0074393D01*
X0342698Y0074240D01*
X0342704Y0074086D01*
X0342706Y0073933D01*
X0342704Y0073780D01*
X0342698Y0073626D01*
X0342688Y0073473D01*
X0342674Y0073321D01*
X0342656Y0073168D01*
X0342634Y0073017D01*
X0342609Y0072866D01*
X0342579Y0072715D01*
X0342545Y0072565D01*
X0342508Y0072417D01*
X0342467Y0072269D01*
X0342422Y0072123D01*
X0342373Y0071977D01*
X0342320Y0071833D01*
X0342264Y0071691D01*
X0342204Y0071550D01*
X0342140Y0071410D01*
X0342073Y0071272D01*
X0342002Y0071136D01*
X0341927Y0071002D01*
X0341850Y0070870D01*
X0341768Y0070740D01*
X0341684Y0070612D01*
X0341596Y0070486D01*
X0341505Y0070363D01*
X0341411Y0070242D01*
X0341313Y0070124D01*
X0341213Y0070008D01*
X0341109Y0069895D01*
X0341003Y0069784D01*
X0340894Y0069676D01*
X0340782Y0069571D01*
X0340668Y0069470D01*
X0340550Y0069371D01*
X0340431Y0069275D01*
X0340309Y0069182D01*
X0340184Y0069093D01*
X0340057Y0069006D01*
X0339928Y0068924D01*
X0339797Y0068844D01*
X0339664Y0068768D01*
X0339529Y0068695D01*
X0339392Y0068626D01*
X0339253Y0068561D01*
X0339113Y0068499D01*
X0338971Y0068441D01*
X0338828Y0068386D01*
X0338683Y0068335D01*
X0338537Y0068288D01*
X0338390Y0068245D01*
X0338242Y0068206D01*
X0338093Y0068170D01*
X0337943Y0068139D01*
X0337792Y0068111D01*
X0337641Y0068087D01*
X0337488Y0068067D01*
X0337336Y0068051D01*
X0337183Y0068039D01*
X0337030Y0068031D01*
X0336877Y0068027D01*
X0336723Y0068027D01*
X0336570Y0068031D01*
X0336417Y0068039D01*
X0336264Y0068051D01*
X0336112Y0068067D01*
X0335959Y0068087D01*
X0335808Y0068111D01*
X0335657Y0068139D01*
X0335507Y0068170D01*
X0335358Y0068206D01*
X0335210Y0068245D01*
X0335063Y0068288D01*
X0334917Y0068335D01*
X0334772Y0068386D01*
X0334629Y0068441D01*
X0334487Y0068499D01*
X0334347Y0068561D01*
X0334208Y0068626D01*
X0334071Y0068695D01*
X0333936Y0068768D01*
X0333803Y0068844D01*
X0333672Y0068924D01*
X0333543Y0069006D01*
X0333416Y0069093D01*
X0333291Y0069182D01*
X0333169Y0069275D01*
X0333050Y0069371D01*
X0332932Y0069470D01*
X0332818Y0069571D01*
X0332706Y0069676D01*
X0332597Y0069784D01*
X0332491Y0069895D01*
X0332387Y0070008D01*
X0332287Y0070124D01*
X0332189Y0070242D01*
X0332095Y0070363D01*
X0332004Y0070486D01*
X0331916Y0070612D01*
X0331832Y0070740D01*
X0331750Y0070870D01*
X0331673Y0071002D01*
X0331598Y0071136D01*
X0331527Y0071272D01*
X0331460Y0071410D01*
X0331396Y0071550D01*
X0331336Y0071691D01*
X0331280Y0071833D01*
X0331227Y0071977D01*
X0331178Y0072123D01*
X0331133Y0072269D01*
X0331092Y0072417D01*
X0331055Y0072565D01*
X0331021Y0072715D01*
X0330991Y0072866D01*
X0330966Y0073017D01*
X0330944Y0073168D01*
X0330926Y0073321D01*
X0330912Y0073473D01*
X0330902Y0073626D01*
X0330896Y0073780D01*
X0330894Y0073933D01*
X0330894Y0288933D02*
X0330896Y0289086D01*
X0330902Y0289240D01*
X0330912Y0289393D01*
X0330926Y0289545D01*
X0330944Y0289698D01*
X0330966Y0289849D01*
X0330991Y0290000D01*
X0331021Y0290151D01*
X0331055Y0290301D01*
X0331092Y0290449D01*
X0331133Y0290597D01*
X0331178Y0290743D01*
X0331227Y0290889D01*
X0331280Y0291033D01*
X0331336Y0291175D01*
X0331396Y0291316D01*
X0331460Y0291456D01*
X0331527Y0291594D01*
X0331598Y0291730D01*
X0331673Y0291864D01*
X0331750Y0291996D01*
X0331832Y0292126D01*
X0331916Y0292254D01*
X0332004Y0292380D01*
X0332095Y0292503D01*
X0332189Y0292624D01*
X0332287Y0292742D01*
X0332387Y0292858D01*
X0332491Y0292971D01*
X0332597Y0293082D01*
X0332706Y0293190D01*
X0332818Y0293295D01*
X0332932Y0293396D01*
X0333050Y0293495D01*
X0333169Y0293591D01*
X0333291Y0293684D01*
X0333416Y0293773D01*
X0333543Y0293860D01*
X0333672Y0293942D01*
X0333803Y0294022D01*
X0333936Y0294098D01*
X0334071Y0294171D01*
X0334208Y0294240D01*
X0334347Y0294305D01*
X0334487Y0294367D01*
X0334629Y0294425D01*
X0334772Y0294480D01*
X0334917Y0294531D01*
X0335063Y0294578D01*
X0335210Y0294621D01*
X0335358Y0294660D01*
X0335507Y0294696D01*
X0335657Y0294727D01*
X0335808Y0294755D01*
X0335959Y0294779D01*
X0336112Y0294799D01*
X0336264Y0294815D01*
X0336417Y0294827D01*
X0336570Y0294835D01*
X0336723Y0294839D01*
X0336877Y0294839D01*
X0337030Y0294835D01*
X0337183Y0294827D01*
X0337336Y0294815D01*
X0337488Y0294799D01*
X0337641Y0294779D01*
X0337792Y0294755D01*
X0337943Y0294727D01*
X0338093Y0294696D01*
X0338242Y0294660D01*
X0338390Y0294621D01*
X0338537Y0294578D01*
X0338683Y0294531D01*
X0338828Y0294480D01*
X0338971Y0294425D01*
X0339113Y0294367D01*
X0339253Y0294305D01*
X0339392Y0294240D01*
X0339529Y0294171D01*
X0339664Y0294098D01*
X0339797Y0294022D01*
X0339928Y0293942D01*
X0340057Y0293860D01*
X0340184Y0293773D01*
X0340309Y0293684D01*
X0340431Y0293591D01*
X0340550Y0293495D01*
X0340668Y0293396D01*
X0340782Y0293295D01*
X0340894Y0293190D01*
X0341003Y0293082D01*
X0341109Y0292971D01*
X0341213Y0292858D01*
X0341313Y0292742D01*
X0341411Y0292624D01*
X0341505Y0292503D01*
X0341596Y0292380D01*
X0341684Y0292254D01*
X0341768Y0292126D01*
X0341850Y0291996D01*
X0341927Y0291864D01*
X0342002Y0291730D01*
X0342073Y0291594D01*
X0342140Y0291456D01*
X0342204Y0291316D01*
X0342264Y0291175D01*
X0342320Y0291033D01*
X0342373Y0290889D01*
X0342422Y0290743D01*
X0342467Y0290597D01*
X0342508Y0290449D01*
X0342545Y0290301D01*
X0342579Y0290151D01*
X0342609Y0290000D01*
X0342634Y0289849D01*
X0342656Y0289698D01*
X0342674Y0289545D01*
X0342688Y0289393D01*
X0342698Y0289240D01*
X0342704Y0289086D01*
X0342706Y0288933D01*
X0342704Y0288780D01*
X0342698Y0288626D01*
X0342688Y0288473D01*
X0342674Y0288321D01*
X0342656Y0288168D01*
X0342634Y0288017D01*
X0342609Y0287866D01*
X0342579Y0287715D01*
X0342545Y0287565D01*
X0342508Y0287417D01*
X0342467Y0287269D01*
X0342422Y0287123D01*
X0342373Y0286977D01*
X0342320Y0286833D01*
X0342264Y0286691D01*
X0342204Y0286550D01*
X0342140Y0286410D01*
X0342073Y0286272D01*
X0342002Y0286136D01*
X0341927Y0286002D01*
X0341850Y0285870D01*
X0341768Y0285740D01*
X0341684Y0285612D01*
X0341596Y0285486D01*
X0341505Y0285363D01*
X0341411Y0285242D01*
X0341313Y0285124D01*
X0341213Y0285008D01*
X0341109Y0284895D01*
X0341003Y0284784D01*
X0340894Y0284676D01*
X0340782Y0284571D01*
X0340668Y0284470D01*
X0340550Y0284371D01*
X0340431Y0284275D01*
X0340309Y0284182D01*
X0340184Y0284093D01*
X0340057Y0284006D01*
X0339928Y0283924D01*
X0339797Y0283844D01*
X0339664Y0283768D01*
X0339529Y0283695D01*
X0339392Y0283626D01*
X0339253Y0283561D01*
X0339113Y0283499D01*
X0338971Y0283441D01*
X0338828Y0283386D01*
X0338683Y0283335D01*
X0338537Y0283288D01*
X0338390Y0283245D01*
X0338242Y0283206D01*
X0338093Y0283170D01*
X0337943Y0283139D01*
X0337792Y0283111D01*
X0337641Y0283087D01*
X0337488Y0283067D01*
X0337336Y0283051D01*
X0337183Y0283039D01*
X0337030Y0283031D01*
X0336877Y0283027D01*
X0336723Y0283027D01*
X0336570Y0283031D01*
X0336417Y0283039D01*
X0336264Y0283051D01*
X0336112Y0283067D01*
X0335959Y0283087D01*
X0335808Y0283111D01*
X0335657Y0283139D01*
X0335507Y0283170D01*
X0335358Y0283206D01*
X0335210Y0283245D01*
X0335063Y0283288D01*
X0334917Y0283335D01*
X0334772Y0283386D01*
X0334629Y0283441D01*
X0334487Y0283499D01*
X0334347Y0283561D01*
X0334208Y0283626D01*
X0334071Y0283695D01*
X0333936Y0283768D01*
X0333803Y0283844D01*
X0333672Y0283924D01*
X0333543Y0284006D01*
X0333416Y0284093D01*
X0333291Y0284182D01*
X0333169Y0284275D01*
X0333050Y0284371D01*
X0332932Y0284470D01*
X0332818Y0284571D01*
X0332706Y0284676D01*
X0332597Y0284784D01*
X0332491Y0284895D01*
X0332387Y0285008D01*
X0332287Y0285124D01*
X0332189Y0285242D01*
X0332095Y0285363D01*
X0332004Y0285486D01*
X0331916Y0285612D01*
X0331832Y0285740D01*
X0331750Y0285870D01*
X0331673Y0286002D01*
X0331598Y0286136D01*
X0331527Y0286272D01*
X0331460Y0286410D01*
X0331396Y0286550D01*
X0331336Y0286691D01*
X0331280Y0286833D01*
X0331227Y0286977D01*
X0331178Y0287123D01*
X0331133Y0287269D01*
X0331092Y0287417D01*
X0331055Y0287565D01*
X0331021Y0287715D01*
X0330991Y0287866D01*
X0330966Y0288017D01*
X0330944Y0288168D01*
X0330926Y0288321D01*
X0330912Y0288473D01*
X0330902Y0288626D01*
X0330896Y0288780D01*
X0330894Y0288933D01*
X0085894Y0288933D02*
X0085896Y0289086D01*
X0085902Y0289240D01*
X0085912Y0289393D01*
X0085926Y0289545D01*
X0085944Y0289698D01*
X0085966Y0289849D01*
X0085991Y0290000D01*
X0086021Y0290151D01*
X0086055Y0290301D01*
X0086092Y0290449D01*
X0086133Y0290597D01*
X0086178Y0290743D01*
X0086227Y0290889D01*
X0086280Y0291033D01*
X0086336Y0291175D01*
X0086396Y0291316D01*
X0086460Y0291456D01*
X0086527Y0291594D01*
X0086598Y0291730D01*
X0086673Y0291864D01*
X0086750Y0291996D01*
X0086832Y0292126D01*
X0086916Y0292254D01*
X0087004Y0292380D01*
X0087095Y0292503D01*
X0087189Y0292624D01*
X0087287Y0292742D01*
X0087387Y0292858D01*
X0087491Y0292971D01*
X0087597Y0293082D01*
X0087706Y0293190D01*
X0087818Y0293295D01*
X0087932Y0293396D01*
X0088050Y0293495D01*
X0088169Y0293591D01*
X0088291Y0293684D01*
X0088416Y0293773D01*
X0088543Y0293860D01*
X0088672Y0293942D01*
X0088803Y0294022D01*
X0088936Y0294098D01*
X0089071Y0294171D01*
X0089208Y0294240D01*
X0089347Y0294305D01*
X0089487Y0294367D01*
X0089629Y0294425D01*
X0089772Y0294480D01*
X0089917Y0294531D01*
X0090063Y0294578D01*
X0090210Y0294621D01*
X0090358Y0294660D01*
X0090507Y0294696D01*
X0090657Y0294727D01*
X0090808Y0294755D01*
X0090959Y0294779D01*
X0091112Y0294799D01*
X0091264Y0294815D01*
X0091417Y0294827D01*
X0091570Y0294835D01*
X0091723Y0294839D01*
X0091877Y0294839D01*
X0092030Y0294835D01*
X0092183Y0294827D01*
X0092336Y0294815D01*
X0092488Y0294799D01*
X0092641Y0294779D01*
X0092792Y0294755D01*
X0092943Y0294727D01*
X0093093Y0294696D01*
X0093242Y0294660D01*
X0093390Y0294621D01*
X0093537Y0294578D01*
X0093683Y0294531D01*
X0093828Y0294480D01*
X0093971Y0294425D01*
X0094113Y0294367D01*
X0094253Y0294305D01*
X0094392Y0294240D01*
X0094529Y0294171D01*
X0094664Y0294098D01*
X0094797Y0294022D01*
X0094928Y0293942D01*
X0095057Y0293860D01*
X0095184Y0293773D01*
X0095309Y0293684D01*
X0095431Y0293591D01*
X0095550Y0293495D01*
X0095668Y0293396D01*
X0095782Y0293295D01*
X0095894Y0293190D01*
X0096003Y0293082D01*
X0096109Y0292971D01*
X0096213Y0292858D01*
X0096313Y0292742D01*
X0096411Y0292624D01*
X0096505Y0292503D01*
X0096596Y0292380D01*
X0096684Y0292254D01*
X0096768Y0292126D01*
X0096850Y0291996D01*
X0096927Y0291864D01*
X0097002Y0291730D01*
X0097073Y0291594D01*
X0097140Y0291456D01*
X0097204Y0291316D01*
X0097264Y0291175D01*
X0097320Y0291033D01*
X0097373Y0290889D01*
X0097422Y0290743D01*
X0097467Y0290597D01*
X0097508Y0290449D01*
X0097545Y0290301D01*
X0097579Y0290151D01*
X0097609Y0290000D01*
X0097634Y0289849D01*
X0097656Y0289698D01*
X0097674Y0289545D01*
X0097688Y0289393D01*
X0097698Y0289240D01*
X0097704Y0289086D01*
X0097706Y0288933D01*
X0097704Y0288780D01*
X0097698Y0288626D01*
X0097688Y0288473D01*
X0097674Y0288321D01*
X0097656Y0288168D01*
X0097634Y0288017D01*
X0097609Y0287866D01*
X0097579Y0287715D01*
X0097545Y0287565D01*
X0097508Y0287417D01*
X0097467Y0287269D01*
X0097422Y0287123D01*
X0097373Y0286977D01*
X0097320Y0286833D01*
X0097264Y0286691D01*
X0097204Y0286550D01*
X0097140Y0286410D01*
X0097073Y0286272D01*
X0097002Y0286136D01*
X0096927Y0286002D01*
X0096850Y0285870D01*
X0096768Y0285740D01*
X0096684Y0285612D01*
X0096596Y0285486D01*
X0096505Y0285363D01*
X0096411Y0285242D01*
X0096313Y0285124D01*
X0096213Y0285008D01*
X0096109Y0284895D01*
X0096003Y0284784D01*
X0095894Y0284676D01*
X0095782Y0284571D01*
X0095668Y0284470D01*
X0095550Y0284371D01*
X0095431Y0284275D01*
X0095309Y0284182D01*
X0095184Y0284093D01*
X0095057Y0284006D01*
X0094928Y0283924D01*
X0094797Y0283844D01*
X0094664Y0283768D01*
X0094529Y0283695D01*
X0094392Y0283626D01*
X0094253Y0283561D01*
X0094113Y0283499D01*
X0093971Y0283441D01*
X0093828Y0283386D01*
X0093683Y0283335D01*
X0093537Y0283288D01*
X0093390Y0283245D01*
X0093242Y0283206D01*
X0093093Y0283170D01*
X0092943Y0283139D01*
X0092792Y0283111D01*
X0092641Y0283087D01*
X0092488Y0283067D01*
X0092336Y0283051D01*
X0092183Y0283039D01*
X0092030Y0283031D01*
X0091877Y0283027D01*
X0091723Y0283027D01*
X0091570Y0283031D01*
X0091417Y0283039D01*
X0091264Y0283051D01*
X0091112Y0283067D01*
X0090959Y0283087D01*
X0090808Y0283111D01*
X0090657Y0283139D01*
X0090507Y0283170D01*
X0090358Y0283206D01*
X0090210Y0283245D01*
X0090063Y0283288D01*
X0089917Y0283335D01*
X0089772Y0283386D01*
X0089629Y0283441D01*
X0089487Y0283499D01*
X0089347Y0283561D01*
X0089208Y0283626D01*
X0089071Y0283695D01*
X0088936Y0283768D01*
X0088803Y0283844D01*
X0088672Y0283924D01*
X0088543Y0284006D01*
X0088416Y0284093D01*
X0088291Y0284182D01*
X0088169Y0284275D01*
X0088050Y0284371D01*
X0087932Y0284470D01*
X0087818Y0284571D01*
X0087706Y0284676D01*
X0087597Y0284784D01*
X0087491Y0284895D01*
X0087387Y0285008D01*
X0087287Y0285124D01*
X0087189Y0285242D01*
X0087095Y0285363D01*
X0087004Y0285486D01*
X0086916Y0285612D01*
X0086832Y0285740D01*
X0086750Y0285870D01*
X0086673Y0286002D01*
X0086598Y0286136D01*
X0086527Y0286272D01*
X0086460Y0286410D01*
X0086396Y0286550D01*
X0086336Y0286691D01*
X0086280Y0286833D01*
X0086227Y0286977D01*
X0086178Y0287123D01*
X0086133Y0287269D01*
X0086092Y0287417D01*
X0086055Y0287565D01*
X0086021Y0287715D01*
X0085991Y0287866D01*
X0085966Y0288017D01*
X0085944Y0288168D01*
X0085926Y0288321D01*
X0085912Y0288473D01*
X0085902Y0288626D01*
X0085896Y0288780D01*
X0085894Y0288933D01*
D11*
X0177568Y0280764D03*
X0186032Y0280764D03*
X0186032Y0297102D03*
X0177568Y0297102D03*
X0247568Y0297102D03*
X0256032Y0297102D03*
X0256032Y0280764D03*
X0247568Y0280764D03*
D12*
X0242300Y0252878D03*
X0242300Y0245988D03*
X0192300Y0245988D03*
X0192300Y0252878D03*
X0236800Y0202378D03*
X0236800Y0195488D03*
D13*
X0149206Y0101433D03*
X0137394Y0101433D03*
D14*
X0196800Y0195587D03*
X0196800Y0202280D03*
X0283454Y0123933D03*
X0290146Y0123933D03*
X0303954Y0123933D03*
X0310646Y0123933D03*
X0328454Y0143433D03*
X0335146Y0143433D03*
X0335146Y0103433D03*
X0328454Y0103433D03*
X0261800Y0104780D03*
X0261800Y0098087D03*
D15*
X0276800Y0105488D03*
X0276800Y0112378D03*
X0286800Y0112378D03*
X0286800Y0105488D03*
X0269300Y0242319D03*
X0264300Y0242319D03*
X0259300Y0242319D03*
X0254300Y0242319D03*
X0221800Y0267988D03*
X0216800Y0267988D03*
X0211800Y0267988D03*
X0206800Y0267988D03*
X0206800Y0274878D03*
X0211800Y0274878D03*
X0216800Y0274878D03*
X0221800Y0274878D03*
X0261800Y0280488D03*
X0261800Y0287378D03*
X0276800Y0290488D03*
X0276800Y0297378D03*
X0171800Y0287378D03*
X0171800Y0280488D03*
X0151800Y0277378D03*
X0151800Y0270488D03*
X0131800Y0270488D03*
X0131800Y0277378D03*
D16*
X0116800Y0188697D03*
X0277036Y0093933D03*
X0311800Y0159169D03*
D17*
X0311800Y0169012D03*
X0311800Y0178854D03*
X0311800Y0188697D03*
X0306564Y0093933D03*
X0296721Y0093933D03*
X0286879Y0093933D03*
X0116800Y0159169D03*
X0116800Y0169012D03*
X0116800Y0178854D03*
D18*
X0231800Y0270587D03*
X0231800Y0277280D03*
D19*
X0228050Y0260270D03*
X0225550Y0260270D03*
X0223050Y0260270D03*
X0220550Y0260270D03*
X0218050Y0260270D03*
X0215550Y0260270D03*
X0213050Y0260270D03*
X0210550Y0260270D03*
X0208050Y0260270D03*
X0205550Y0260270D03*
X0205550Y0237596D03*
X0208050Y0237596D03*
X0210550Y0237596D03*
X0213050Y0237596D03*
X0215550Y0237596D03*
X0218050Y0237596D03*
X0220550Y0237596D03*
X0223050Y0237596D03*
X0225550Y0237596D03*
X0228050Y0237596D03*
D20*
X0221918Y0283402D03*
X0219359Y0283402D03*
X0216800Y0283402D03*
X0214241Y0283402D03*
X0211682Y0283402D03*
D21*
X0204595Y0283894D03*
X0229005Y0283894D03*
D22*
X0232548Y0293933D03*
X0201052Y0293933D03*
D23*
X0212076Y0293933D03*
X0221524Y0293933D03*
D24*
X0276800Y0283067D03*
X0276800Y0274799D03*
X0291800Y0274799D03*
X0291800Y0283067D03*
X0151800Y0284799D03*
X0151800Y0293067D03*
X0131800Y0293067D03*
X0131800Y0284799D03*
D25*
X0291800Y0290587D03*
X0291800Y0297280D03*
X0307300Y0208780D03*
X0307300Y0202087D03*
X0137800Y0150280D03*
X0137800Y0143587D03*
X0137800Y0136780D03*
X0137800Y0130087D03*
D26*
X0202696Y0183520D03*
X0205255Y0183520D03*
X0207814Y0183520D03*
X0210373Y0183520D03*
X0212932Y0183520D03*
X0215491Y0183520D03*
X0218050Y0183520D03*
X0220609Y0183520D03*
X0223168Y0183520D03*
X0225727Y0183520D03*
X0228286Y0183520D03*
X0230845Y0183520D03*
X0230904Y0214228D03*
X0228345Y0214228D03*
X0225786Y0214228D03*
X0223227Y0214228D03*
X0220668Y0214228D03*
X0218109Y0214228D03*
X0215550Y0214228D03*
X0212991Y0214228D03*
X0210432Y0214228D03*
X0207873Y0214228D03*
X0205314Y0214228D03*
X0202755Y0214228D03*
D27*
X0101800Y0218933D03*
X0101800Y0253933D03*
X0116800Y0113433D03*
X0116800Y0078933D03*
X0151800Y0078933D03*
X0326800Y0218933D03*
X0326800Y0253933D03*
D28*
X0269300Y0264760D03*
X0264300Y0264760D03*
X0259300Y0264760D03*
X0254300Y0264760D03*
D29*
X0250233Y0163618D03*
X0250233Y0158618D03*
X0250233Y0153618D03*
X0250233Y0148618D03*
X0250233Y0143618D03*
X0250233Y0138618D03*
X0250233Y0133618D03*
X0250233Y0128618D03*
X0250233Y0123618D03*
X0250233Y0118618D03*
X0250233Y0113618D03*
X0250233Y0108618D03*
X0250233Y0103618D03*
X0250233Y0098618D03*
X0179367Y0098618D03*
X0179367Y0103618D03*
X0179367Y0108618D03*
X0179367Y0113618D03*
X0179367Y0118618D03*
X0179367Y0123618D03*
X0179367Y0128618D03*
X0179367Y0133618D03*
X0179367Y0138618D03*
X0179367Y0143618D03*
X0179367Y0148618D03*
X0179367Y0153618D03*
X0179367Y0158618D03*
X0179367Y0163618D03*
D30*
X0192300Y0169484D03*
X0197300Y0169484D03*
X0202300Y0169484D03*
X0207300Y0169484D03*
X0212300Y0169484D03*
X0217300Y0169484D03*
X0222300Y0169484D03*
X0227300Y0169484D03*
X0232300Y0169484D03*
X0237300Y0169484D03*
D31*
X0214800Y0128933D03*
D32*
X0151800Y0204524D03*
X0151800Y0253343D03*
D33*
X0248355Y0273933D03*
X0255245Y0273933D03*
D34*
X0180095Y0192933D03*
X0159505Y0192933D03*
D35*
X0325894Y0135047D03*
X0337706Y0135047D03*
X0337706Y0111819D03*
X0325894Y0111819D03*
D36*
X0320383Y0123433D03*
X0343217Y0123433D03*
D37*
X0295831Y0162406D03*
X0286816Y0162406D03*
X0277800Y0162406D03*
X0259769Y0162406D03*
X0259769Y0206461D03*
X0277800Y0206461D03*
X0295831Y0206461D03*
D38*
X0259808Y0188921D03*
X0259808Y0170929D03*
D39*
X0264296Y0202425D03*
D40*
X0255772Y0193449D03*
X0255772Y0184433D03*
X0255772Y0175417D03*
X0299828Y0175417D03*
X0299828Y0184433D03*
X0299828Y0193449D03*
D41*
X0286816Y0202858D03*
D42*
X0245800Y0204673D03*
X0245800Y0197193D03*
X0245800Y0182673D03*
X0245800Y0175193D03*
D43*
X0288658Y0146433D03*
X0291524Y0137673D03*
X0291524Y0130193D03*
X0282076Y0133933D03*
X0298942Y0142693D03*
X0302576Y0133933D03*
X0312024Y0130193D03*
X0312024Y0137673D03*
X0298942Y0150173D03*
D44*
X0269366Y0146433D02*
X0259808Y0155991D01*
X0259808Y0162445D01*
X0259769Y0162406D02*
X0259769Y0171421D01*
X0259278Y0171911D01*
X0259808Y0170929D02*
X0259808Y0173941D01*
X0260800Y0174933D01*
X0260540Y0175193D01*
X0245800Y0175193D01*
X0230904Y0214228D02*
X0235609Y0218933D01*
X0236800Y0218933D01*
X0202755Y0214228D02*
X0198050Y0218933D01*
X0196800Y0195587D02*
X0182749Y0195587D01*
X0180095Y0192933D01*
X0214800Y0128933D02*
X0214800Y0098018D01*
X0211055Y0098018D01*
X0210455Y0098618D01*
X0179367Y0098618D01*
X0152020Y0098618D01*
X0149206Y0101433D01*
X0149206Y0081528D01*
X0151800Y0078933D01*
X0137394Y0099528D02*
X0137394Y0101433D01*
X0138300Y0102339D01*
X0137394Y0099528D02*
X0116800Y0078933D01*
X0214800Y0098018D02*
X0251411Y0098018D01*
X0252400Y0098018D02*
X0254553Y0098018D01*
X0254621Y0098087D01*
X0261800Y0098087D01*
D45*
X0261800Y0090869D01*
X0270636Y0082033D01*
X0307169Y0082033D01*
X0311164Y0086028D01*
X0311164Y0095838D01*
X0308469Y0098533D01*
X0301321Y0098533D01*
X0296721Y0093933D01*
X0286879Y0093933D02*
X0286879Y0105409D01*
X0286800Y0105488D01*
X0286800Y0112378D02*
X0276800Y0112378D01*
X0276800Y0105488D02*
X0277036Y0105252D01*
X0277036Y0093933D01*
X0272213Y0084633D02*
X0291800Y0084633D01*
X0291800Y0112378D01*
X0286800Y0112378D01*
X0292078Y0112156D02*
X0313334Y0112156D01*
X0325822Y0099668D01*
X0331085Y0099668D01*
X0334850Y0103433D01*
X0335146Y0103433D01*
X0313800Y0112156D02*
X0313800Y0120690D01*
X0316380Y0123270D01*
X0316380Y0125990D01*
X0320800Y0130410D01*
X0320800Y0160012D01*
X0311800Y0169012D01*
X0306896Y0171054D02*
X0306896Y0158127D01*
X0304251Y0155482D01*
X0304411Y0155322D01*
X0304411Y0149736D01*
X0308300Y0145847D01*
X0308300Y0141398D01*
X0312024Y0137673D01*
X0308284Y0133933D02*
X0312024Y0130193D01*
X0312024Y0125311D01*
X0310646Y0123933D01*
X0303954Y0123933D02*
X0303800Y0123780D01*
X0303800Y0115044D01*
X0313334Y0112156D02*
X0313800Y0112156D01*
X0306564Y0093933D02*
X0306564Y0089770D01*
X0301427Y0084633D01*
X0291800Y0084633D01*
X0272213Y0084633D02*
X0266400Y0090446D01*
X0266400Y0100180D01*
X0261800Y0104780D01*
X0283454Y0123933D02*
X0283454Y0132555D01*
X0282076Y0133933D01*
X0294771Y0133933D01*
X0296400Y0135562D01*
X0296400Y0140151D01*
X0298942Y0142693D01*
X0293800Y0145031D02*
X0293800Y0139949D01*
X0291524Y0137673D01*
X0288765Y0140433D01*
X0275366Y0140433D01*
X0269366Y0146433D01*
X0288658Y0146433D02*
X0288658Y0149291D01*
X0294267Y0154900D01*
X0298758Y0154900D01*
X0298791Y0154933D01*
X0303702Y0154933D01*
X0304251Y0155482D01*
X0298942Y0150173D02*
X0293800Y0145031D01*
X0302576Y0133933D02*
X0308284Y0133933D01*
X0302800Y0133709D02*
X0299284Y0130193D01*
X0291524Y0130193D01*
X0306896Y0171054D02*
X0310097Y0174254D01*
X0313705Y0174254D01*
X0317300Y0177849D01*
X0317300Y0198933D01*
X0320936Y0202569D01*
X0342227Y0202569D01*
X0343090Y0203433D01*
X0343800Y0203433D01*
X0343800Y0268723D01*
X0342227Y0270297D01*
X0303290Y0270297D01*
X0294825Y0278761D01*
X0288775Y0278761D01*
X0280838Y0270824D01*
X0280838Y0266971D01*
X0266800Y0252933D01*
X0240800Y0222933D02*
X0233800Y0222933D01*
X0232800Y0221933D01*
X0230904Y0220037D01*
X0230904Y0214228D01*
X0231609Y0214933D01*
X0237800Y0214933D01*
X0237800Y0218933D01*
X0241300Y0222433D01*
X0240800Y0222933D01*
X0236800Y0218933D02*
X0233800Y0221933D01*
X0232800Y0221933D01*
X0232800Y0222933D02*
X0233800Y0222933D01*
X0232800Y0222933D02*
X0228345Y0218478D01*
X0228345Y0214228D01*
X0229800Y0214228D01*
X0229800Y0218933D01*
X0230904Y0220037D01*
X0229800Y0218933D02*
X0228595Y0217728D01*
X0228595Y0214478D01*
X0228345Y0214228D01*
X0225745Y0214228D02*
X0223227Y0214228D01*
X0225745Y0214228D02*
X0225745Y0213151D01*
X0225786Y0213110D01*
X0225786Y0207919D01*
X0225200Y0207333D01*
X0221800Y0203933D01*
X0211800Y0203933D01*
X0198454Y0203933D01*
X0196800Y0202280D01*
X0196800Y0195587D02*
X0199254Y0195587D01*
X0203911Y0190930D01*
X0207514Y0194533D01*
X0224487Y0194533D01*
X0230772Y0188248D01*
X0230772Y0183593D01*
X0230845Y0183520D01*
X0205255Y0183520D02*
X0203169Y0183520D01*
X0203911Y0184262D01*
X0203911Y0190930D01*
X0211800Y0203933D02*
X0207873Y0207860D01*
X0205314Y0214228D02*
X0205314Y0217169D01*
X0201300Y0221183D01*
X0201300Y0220433D01*
X0205300Y0216433D01*
X0205300Y0215332D01*
X0205273Y0215305D01*
X0205273Y0214228D01*
X0206900Y0229533D02*
X0202441Y0229533D01*
X0206900Y0229533D02*
X0207300Y0229933D01*
D46*
X0208800Y0233433D03*
X0212800Y0233833D03*
X0215800Y0228933D03*
X0222300Y0232933D03*
X0232700Y0237733D03*
X0235800Y0240933D03*
X0232800Y0243433D03*
X0232800Y0249433D03*
X0234300Y0256933D03*
X0237300Y0260433D03*
X0236300Y0270433D03*
X0231800Y0270587D03*
X0228800Y0283933D03*
X0232300Y0293933D03*
X0221800Y0293933D03*
X0212300Y0293933D03*
X0201300Y0293933D03*
X0204800Y0283933D03*
X0188200Y0270133D03*
X0187000Y0273733D03*
X0181300Y0262433D03*
X0192300Y0260433D03*
X0199000Y0257533D03*
X0202800Y0262433D03*
X0207800Y0255933D03*
X0212300Y0255933D03*
X0216900Y0255233D03*
X0220300Y0249433D03*
X0221600Y0243133D03*
X0210189Y0244344D03*
X0205600Y0241933D03*
X0203300Y0245933D03*
X0200600Y0249033D03*
X0192300Y0245988D03*
X0194300Y0236422D03*
X0180300Y0242433D03*
X0151800Y0253433D03*
X0155800Y0270933D03*
X0148300Y0273433D03*
X0156300Y0282933D03*
X0147300Y0286933D03*
X0136300Y0286933D03*
X0135300Y0273433D03*
X0174800Y0285433D03*
X0215550Y0263433D03*
X0223100Y0255633D03*
X0242300Y0245933D03*
X0247600Y0245533D03*
X0250300Y0241433D03*
X0246800Y0236933D03*
X0254200Y0237133D03*
X0257800Y0237433D03*
X0263800Y0246733D03*
X0269800Y0249133D03*
X0266800Y0252933D03*
X0261800Y0259933D03*
X0254800Y0255933D03*
X0249300Y0257433D03*
X0249800Y0267933D03*
X0238300Y0236933D03*
X0265800Y0209433D03*
X0271800Y0209433D03*
X0276800Y0197433D03*
X0276800Y0187933D03*
X0277300Y0179933D03*
X0278300Y0172433D03*
X0288800Y0172933D03*
X0289800Y0178933D03*
X0299800Y0179933D03*
X0299800Y0188933D03*
X0289800Y0188433D03*
X0289800Y0196933D03*
X0266800Y0180433D03*
X0259800Y0181933D03*
X0259800Y0194433D03*
X0245800Y0197433D03*
X0236800Y0195433D03*
X0231800Y0197433D03*
X0236800Y0202333D03*
X0222800Y0200433D03*
X0219800Y0197433D03*
X0223000Y0189733D03*
X0219622Y0188933D03*
X0215800Y0189933D03*
X0206800Y0189733D03*
X0210300Y0200433D03*
X0210300Y0206933D03*
X0222800Y0206933D03*
X0234400Y0184333D03*
X0245800Y0181933D03*
X0252233Y0163618D03*
X0252233Y0158618D03*
X0255550Y0149683D03*
X0262300Y0142933D03*
X0269366Y0146433D03*
X0275550Y0136933D03*
X0271800Y0133433D03*
X0274300Y0130933D03*
X0270550Y0122933D03*
X0270611Y0118933D03*
X0272800Y0114433D03*
X0276800Y0116334D03*
X0272800Y0107933D03*
X0268300Y0103433D03*
X0274050Y0099433D03*
X0281800Y0101433D03*
X0284300Y0088933D03*
X0258300Y0112433D03*
X0250000Y0108833D03*
X0244300Y0103433D03*
X0221800Y0107533D03*
X0215300Y0102433D03*
X0225300Y0118433D03*
X0232300Y0124933D03*
X0216800Y0128933D03*
X0225300Y0139433D03*
X0213111Y0143933D03*
X0204300Y0139433D03*
X0188200Y0148333D03*
X0187000Y0154933D03*
X0188200Y0158533D03*
X0194789Y0156933D03*
X0192789Y0169484D03*
X0197800Y0169484D03*
X0205800Y0174733D03*
X0207822Y0177611D03*
X0212200Y0178233D03*
X0215800Y0178033D03*
X0222111Y0176244D03*
X0225400Y0177733D03*
X0236909Y0164542D03*
X0223900Y0160833D03*
X0218200Y0158533D03*
X0211300Y0158433D03*
X0212400Y0164333D03*
X0230200Y0146533D03*
X0237200Y0147533D03*
X0238800Y0152533D03*
X0267800Y0155933D03*
X0290300Y0123933D03*
X0303800Y0123933D03*
X0303800Y0115044D03*
X0317889Y0118933D03*
X0316800Y0130933D03*
X0330300Y0137933D03*
X0333800Y0138933D03*
X0312800Y0150933D03*
X0307300Y0150933D03*
X0320689Y0188433D03*
X0304300Y0231433D03*
X0288300Y0250433D03*
X0309800Y0260933D03*
X0309800Y0266433D03*
X0296300Y0272933D03*
X0197000Y0208833D03*
X0185300Y0204933D03*
X0174400Y0206533D03*
X0151800Y0203933D03*
X0158900Y0179433D03*
X0161988Y0173744D03*
X0166300Y0176433D03*
X0171900Y0173033D03*
X0180700Y0167533D03*
X0163000Y0157333D03*
X0159400Y0157333D03*
X0159300Y0152433D03*
X0153800Y0146433D03*
X0145800Y0151433D03*
X0139300Y0161933D03*
X0133300Y0155433D03*
X0160600Y0138133D03*
X0159400Y0126133D03*
X0156300Y0121433D03*
X0163000Y0118933D03*
X0167200Y0119333D03*
X0172300Y0126933D03*
X0186300Y0130933D03*
X0174300Y0141433D03*
X0181367Y0143622D03*
X0186800Y0118433D03*
X0185800Y0103433D03*
X0204300Y0118433D03*
X0165300Y0092433D03*
X0152300Y0092433D03*
X0138300Y0092433D03*
X0137394Y0099022D03*
X0127300Y0096433D03*
X0140800Y0109366D03*
X0146400Y0117333D03*
X0145800Y0121433D03*
X0141000Y0119733D03*
X0148400Y0130933D03*
X0102800Y0096433D03*
X0138300Y0078933D03*
X0151800Y0078933D03*
X0165300Y0078933D03*
X0165300Y0065433D03*
X0151800Y0065933D03*
X0138300Y0065433D03*
X0337300Y0115433D03*
X0122800Y0231433D03*
D47*
X0084689Y0067807D02*
X0085385Y0065664D01*
X0086709Y0063842D01*
X0088531Y0062518D01*
X0090674Y0061822D01*
X0091800Y0061733D01*
X0168750Y0061733D01*
X0168750Y0094368D01*
X0169365Y0094983D01*
X0258295Y0094983D01*
X0258154Y0095226D01*
X0258031Y0095684D01*
X0258031Y0097902D01*
X0261616Y0097902D01*
X0261984Y0097902D01*
X0261984Y0094121D01*
X0264000Y0094121D01*
X0264000Y0089969D01*
X0264365Y0089087D01*
X0270178Y0083274D01*
X0270853Y0082598D01*
X0271736Y0082233D01*
X0301904Y0082233D01*
X0302786Y0082598D01*
X0308598Y0088411D01*
X0308964Y0089293D01*
X0308964Y0090165D01*
X0309056Y0090203D01*
X0310294Y0091441D01*
X0310964Y0093058D01*
X0310964Y0094808D01*
X0310294Y0096425D01*
X0309056Y0097663D01*
X0307439Y0098333D01*
X0305689Y0098333D01*
X0304071Y0097663D01*
X0302834Y0096425D01*
X0302164Y0094808D01*
X0302164Y0093058D01*
X0302834Y0091441D01*
X0303837Y0090437D01*
X0300433Y0087033D01*
X0294200Y0087033D01*
X0294200Y0089832D01*
X0294206Y0089828D01*
X0294879Y0089485D01*
X0295597Y0089251D01*
X0296343Y0089133D01*
X0296521Y0089133D01*
X0296521Y0093733D01*
X0296921Y0093733D01*
X0296921Y0089133D01*
X0297099Y0089133D01*
X0297845Y0089251D01*
X0298564Y0089485D01*
X0299237Y0089828D01*
X0299848Y0090272D01*
X0300382Y0090806D01*
X0300827Y0091417D01*
X0301170Y0092091D01*
X0301403Y0092809D01*
X0301521Y0093555D01*
X0301521Y0093733D01*
X0296921Y0093733D01*
X0296921Y0094133D01*
X0296521Y0094133D01*
X0296521Y0098733D01*
X0296343Y0098733D01*
X0295597Y0098615D01*
X0294879Y0098381D01*
X0294206Y0098038D01*
X0294200Y0098034D01*
X0294200Y0109756D01*
X0312340Y0109756D01*
X0324463Y0097633D01*
X0325345Y0097268D01*
X0331562Y0097268D01*
X0332444Y0097633D01*
X0334679Y0099868D01*
X0337695Y0099868D01*
X0338515Y0100688D01*
X0338515Y0106178D01*
X0337695Y0106998D01*
X0332598Y0106998D01*
X0331800Y0106200D01*
X0331002Y0106998D01*
X0327594Y0106998D01*
X0327594Y0107860D01*
X0328640Y0107860D01*
X0329460Y0108680D01*
X0329460Y0114958D01*
X0328640Y0115778D01*
X0323448Y0115778D01*
X0320578Y0118648D01*
X0320578Y0119277D01*
X0322144Y0119277D01*
X0322964Y0120097D01*
X0322964Y0126769D01*
X0322144Y0127589D01*
X0321373Y0127589D01*
X0322159Y0128375D01*
X0322835Y0129050D01*
X0323200Y0129932D01*
X0323200Y0131088D01*
X0328640Y0131088D01*
X0329460Y0131908D01*
X0329460Y0133347D01*
X0334140Y0133347D01*
X0334140Y0131908D01*
X0334960Y0131088D01*
X0340451Y0131088D01*
X0341271Y0131908D01*
X0341271Y0138186D01*
X0340451Y0139006D01*
X0339405Y0139006D01*
X0339405Y0141578D01*
X0338515Y0142469D01*
X0338515Y0146178D01*
X0337695Y0146998D01*
X0332598Y0146998D01*
X0332024Y0146424D01*
X0331862Y0146704D01*
X0331527Y0147039D01*
X0331117Y0147276D01*
X0330659Y0147398D01*
X0328638Y0147398D01*
X0328638Y0143617D01*
X0328269Y0143617D01*
X0328269Y0143249D01*
X0324685Y0143249D01*
X0324685Y0141031D01*
X0324808Y0140573D01*
X0325045Y0140162D01*
X0325380Y0139827D01*
X0325790Y0139590D01*
X0326248Y0139468D01*
X0328269Y0139468D01*
X0328269Y0143249D01*
X0328638Y0143249D01*
X0328638Y0139468D01*
X0330659Y0139468D01*
X0331117Y0139590D01*
X0331527Y0139827D01*
X0331862Y0140162D01*
X0332024Y0140442D01*
X0332598Y0139868D01*
X0336006Y0139868D01*
X0336006Y0139006D01*
X0334960Y0139006D01*
X0334140Y0138186D01*
X0334140Y0136747D01*
X0329460Y0136747D01*
X0329460Y0138186D01*
X0328640Y0139006D01*
X0323200Y0139006D01*
X0323200Y0160489D01*
X0322835Y0161371D01*
X0322159Y0162046D01*
X0316162Y0168044D01*
X0316200Y0168137D01*
X0316200Y0169887D01*
X0315530Y0171504D01*
X0314888Y0172146D01*
X0315065Y0172220D01*
X0315740Y0172895D01*
X0318659Y0175814D01*
X0319335Y0176489D01*
X0319700Y0177372D01*
X0319700Y0197939D01*
X0321930Y0200169D01*
X0342704Y0200169D01*
X0343586Y0200535D01*
X0344000Y0200949D01*
X0344000Y0127589D01*
X0341456Y0127589D01*
X0340636Y0126769D01*
X0340636Y0120097D01*
X0341456Y0119277D01*
X0344000Y0119277D01*
X0344000Y0079045D01*
X0341731Y0081313D01*
X0338532Y0082639D01*
X0335068Y0082639D01*
X0331869Y0081313D01*
X0329420Y0078864D01*
X0328094Y0075665D01*
X0328094Y0072201D01*
X0329420Y0069002D01*
X0331869Y0066553D01*
X0335068Y0065228D01*
X0338532Y0065228D01*
X0341731Y0066553D01*
X0343984Y0068805D01*
X0343968Y0068576D01*
X0344000Y0068479D01*
X0344000Y0068376D01*
X0344155Y0068002D01*
X0344337Y0067270D01*
X0344349Y0065673D01*
X0343867Y0064150D01*
X0342938Y0062850D01*
X0341652Y0061902D01*
X0341254Y0061733D01*
X0260850Y0061733D01*
X0260850Y0094121D01*
X0261616Y0094121D01*
X0261616Y0097902D01*
X0261616Y0098271D01*
X0258031Y0098271D01*
X0258031Y0100489D01*
X0258154Y0100947D01*
X0258288Y0101178D01*
X0258184Y0101075D01*
X0257082Y0100618D01*
X0254986Y0100618D01*
X0254986Y0098704D01*
X0250319Y0098704D01*
X0250319Y0098532D01*
X0250319Y0095046D01*
X0253423Y0095046D01*
X0253881Y0095169D01*
X0254291Y0095406D01*
X0254626Y0095741D01*
X0254863Y0096152D01*
X0254986Y0096609D01*
X0254986Y0098532D01*
X0250319Y0098532D01*
X0250147Y0098532D01*
X0250147Y0095046D01*
X0247043Y0095046D01*
X0246586Y0095169D01*
X0246175Y0095406D01*
X0245840Y0095741D01*
X0245603Y0096152D01*
X0245480Y0096609D01*
X0245480Y0098532D01*
X0250147Y0098532D01*
X0250147Y0098704D01*
X0245480Y0098704D01*
X0245480Y0100627D01*
X0245603Y0101085D01*
X0245840Y0101495D01*
X0245880Y0101535D01*
X0245880Y0105970D01*
X0246029Y0106118D01*
X0245880Y0106267D01*
X0245880Y0110970D01*
X0246029Y0111118D01*
X0245880Y0111267D01*
X0245880Y0115970D01*
X0246029Y0116118D01*
X0245880Y0116267D01*
X0245880Y0120970D01*
X0246029Y0121118D01*
X0245880Y0121267D01*
X0245880Y0121433D01*
X0238104Y0121433D01*
X0224489Y0107818D01*
X0224489Y0106998D01*
X0224080Y0106010D01*
X0223323Y0105253D01*
X0222335Y0104844D01*
X0221265Y0104844D01*
X0220277Y0105253D01*
X0219520Y0106010D01*
X0219111Y0106998D01*
X0219111Y0108068D01*
X0219520Y0109056D01*
X0220277Y0109813D01*
X0221265Y0110222D01*
X0222085Y0110222D01*
X0227310Y0115447D01*
X0227306Y0115445D01*
X0226848Y0115322D01*
X0215600Y0115322D01*
X0215600Y0128133D01*
X0214000Y0128133D01*
X0214000Y0115322D01*
X0202752Y0115322D01*
X0202294Y0115445D01*
X0201884Y0115682D01*
X0201549Y0116017D01*
X0201312Y0116427D01*
X0201189Y0116885D01*
X0201189Y0128133D01*
X0214000Y0128133D01*
X0214000Y0129733D01*
X0201189Y0129733D01*
X0201189Y0140981D01*
X0201312Y0141439D01*
X0201549Y0141849D01*
X0201884Y0142184D01*
X0202294Y0142421D01*
X0202752Y0142544D01*
X0210776Y0142544D01*
X0210422Y0143398D01*
X0210422Y0144468D01*
X0210831Y0145456D01*
X0211588Y0146213D01*
X0212576Y0146622D01*
X0213619Y0146622D01*
X0234220Y0164463D01*
X0234220Y0165077D01*
X0234243Y0165131D01*
X0229948Y0165131D01*
X0229800Y0165280D01*
X0229652Y0165131D01*
X0224948Y0165131D01*
X0224800Y0165280D01*
X0224652Y0165131D01*
X0219948Y0165131D01*
X0219800Y0165280D01*
X0219652Y0165131D01*
X0214980Y0165131D01*
X0215089Y0164868D01*
X0215089Y0164048D01*
X0216604Y0162533D01*
X0221797Y0162533D01*
X0222377Y0163113D01*
X0223365Y0163522D01*
X0224435Y0163522D01*
X0225423Y0163113D01*
X0226180Y0162356D01*
X0226589Y0161368D01*
X0226589Y0160298D01*
X0226180Y0159310D01*
X0225423Y0158553D01*
X0224435Y0158144D01*
X0223365Y0158144D01*
X0222377Y0158553D01*
X0221797Y0159133D01*
X0220862Y0159133D01*
X0220889Y0159068D01*
X0220889Y0157998D01*
X0220480Y0157010D01*
X0219723Y0156253D01*
X0218735Y0155844D01*
X0217665Y0155844D01*
X0216677Y0156253D01*
X0216127Y0156803D01*
X0213434Y0156764D01*
X0212823Y0156153D01*
X0211835Y0155744D01*
X0210765Y0155744D01*
X0209777Y0156153D01*
X0209020Y0156910D01*
X0208611Y0157898D01*
X0208611Y0158968D01*
X0209020Y0159956D01*
X0209777Y0160713D01*
X0210765Y0161122D01*
X0211835Y0161122D01*
X0212823Y0160713D01*
X0213373Y0160163D01*
X0214154Y0160175D01*
X0212685Y0161644D01*
X0211865Y0161644D01*
X0210877Y0162053D01*
X0210120Y0162810D01*
X0209711Y0163798D01*
X0209711Y0164868D01*
X0209858Y0165222D01*
X0209800Y0165280D01*
X0209652Y0165131D01*
X0204948Y0165131D01*
X0204800Y0165280D01*
X0204652Y0165131D01*
X0199948Y0165131D01*
X0199800Y0165280D01*
X0199652Y0165131D01*
X0194948Y0165131D01*
X0194800Y0165280D01*
X0194652Y0165131D01*
X0192706Y0165131D01*
X0199000Y0158837D01*
X0199000Y0122529D01*
X0198004Y0121533D01*
X0183720Y0107249D01*
X0183720Y0106267D01*
X0183571Y0106118D01*
X0183720Y0105970D01*
X0183720Y0101535D01*
X0183760Y0101495D01*
X0183997Y0101085D01*
X0184120Y0100627D01*
X0184120Y0098704D01*
X0179453Y0098704D01*
X0179453Y0098532D01*
X0184120Y0098532D01*
X0184120Y0096609D01*
X0183997Y0096152D01*
X0183760Y0095741D01*
X0183425Y0095406D01*
X0183014Y0095169D01*
X0182557Y0095046D01*
X0179453Y0095046D01*
X0179453Y0098532D01*
X0179281Y0098532D01*
X0179281Y0095046D01*
X0176177Y0095046D01*
X0175719Y0095169D01*
X0175309Y0095406D01*
X0174974Y0095741D01*
X0174737Y0096152D01*
X0174614Y0096609D01*
X0174614Y0098532D01*
X0179281Y0098532D01*
X0179281Y0098704D01*
X0174614Y0098704D01*
X0174614Y0100627D01*
X0174737Y0101085D01*
X0174974Y0101495D01*
X0175014Y0101535D01*
X0175014Y0102319D01*
X0174963Y0102370D01*
X0169880Y0106733D01*
X0154661Y0106733D01*
X0154820Y0106459D01*
X0154943Y0106001D01*
X0154943Y0102233D01*
X0150006Y0102233D01*
X0150006Y0100633D01*
X0154942Y0100633D01*
X0154943Y0096865D01*
X0154820Y0096408D01*
X0154583Y0095997D01*
X0154248Y0095662D01*
X0153962Y0095497D01*
X0166801Y0095497D01*
X0167259Y0095374D01*
X0167669Y0095137D01*
X0168004Y0094802D01*
X0168241Y0094392D01*
X0168364Y0093934D01*
X0168364Y0079733D01*
X0152600Y0079733D01*
X0152600Y0078133D01*
X0152600Y0062369D01*
X0166801Y0062369D01*
X0167259Y0062492D01*
X0167669Y0062729D01*
X0168004Y0063064D01*
X0168241Y0063475D01*
X0168364Y0063932D01*
X0168364Y0078133D01*
X0152600Y0078133D01*
X0151000Y0078133D01*
X0151000Y0062369D01*
X0136799Y0062369D01*
X0136341Y0062492D01*
X0135931Y0062729D01*
X0135596Y0063064D01*
X0135359Y0063475D01*
X0135236Y0063932D01*
X0135236Y0078133D01*
X0151000Y0078133D01*
X0151000Y0079733D01*
X0135236Y0079733D01*
X0135236Y0091854D01*
X0132964Y0089581D01*
X0132964Y0063589D01*
X0132144Y0062769D01*
X0101456Y0062769D01*
X0100636Y0063589D01*
X0100636Y0094277D01*
X0101456Y0095097D01*
X0127448Y0095097D01*
X0129621Y0097269D01*
X0101456Y0097269D01*
X0100636Y0098089D01*
X0100636Y0128777D01*
X0101456Y0129597D01*
X0119000Y0129597D01*
X0119000Y0154903D01*
X0118643Y0154721D01*
X0117924Y0154487D01*
X0117178Y0154369D01*
X0117000Y0154369D01*
X0117000Y0158969D01*
X0116600Y0158969D01*
X0116600Y0154369D01*
X0116422Y0154369D01*
X0115676Y0154487D01*
X0114957Y0154721D01*
X0114284Y0155064D01*
X0113673Y0155508D01*
X0113139Y0156042D01*
X0112695Y0156654D01*
X0112352Y0157327D01*
X0112118Y0158045D01*
X0112000Y0158792D01*
X0112000Y0158969D01*
X0116600Y0158969D01*
X0116600Y0159369D01*
X0112000Y0159369D01*
X0112000Y0159547D01*
X0112118Y0160293D01*
X0112352Y0161012D01*
X0112695Y0161685D01*
X0113139Y0162296D01*
X0113673Y0162831D01*
X0114284Y0163275D01*
X0114957Y0163618D01*
X0115676Y0163851D01*
X0116422Y0163969D01*
X0116600Y0163969D01*
X0116600Y0159369D01*
X0117000Y0159369D01*
X0117000Y0163969D01*
X0117178Y0163969D01*
X0117924Y0163851D01*
X0118643Y0163618D01*
X0119316Y0163275D01*
X0119927Y0162831D01*
X0120276Y0162482D01*
X0120469Y0162948D01*
X0154601Y0197080D01*
X0154601Y0199714D01*
X0155421Y0200534D01*
X0163589Y0200534D01*
X0164409Y0199714D01*
X0164409Y0197080D01*
X0164930Y0196558D01*
X0165905Y0194206D01*
X0165905Y0191660D01*
X0164930Y0189308D01*
X0164409Y0188786D01*
X0164409Y0186152D01*
X0163589Y0185332D01*
X0160955Y0185332D01*
X0131800Y0156177D01*
X0131800Y0153933D01*
X0137743Y0153933D01*
X0138431Y0153648D01*
X0140545Y0153648D01*
X0141365Y0152828D01*
X0141365Y0147731D01*
X0140567Y0146933D01*
X0141365Y0146135D01*
X0141365Y0145403D01*
X0157185Y0161222D01*
X0164611Y0161222D01*
X0165607Y0160226D01*
X0165893Y0159940D01*
X0166889Y0158944D01*
X0166889Y0151248D01*
X0174015Y0144122D01*
X0174835Y0144122D01*
X0175014Y0144048D01*
X0175014Y0145970D01*
X0175163Y0146118D01*
X0175014Y0146267D01*
X0175014Y0150970D01*
X0175163Y0151118D01*
X0175014Y0151267D01*
X0175014Y0155970D01*
X0175163Y0156118D01*
X0175014Y0156267D01*
X0175014Y0160970D01*
X0175163Y0161118D01*
X0175014Y0161267D01*
X0175014Y0165970D01*
X0175787Y0166742D01*
X0172185Y0170344D01*
X0171365Y0170344D01*
X0170377Y0170753D01*
X0169620Y0171510D01*
X0169399Y0172044D01*
X0164091Y0172044D01*
X0163511Y0171464D01*
X0162523Y0171055D01*
X0161453Y0171055D01*
X0160465Y0171464D01*
X0159709Y0172221D01*
X0159299Y0173209D01*
X0159299Y0174279D01*
X0159709Y0175267D01*
X0160465Y0176024D01*
X0161453Y0176433D01*
X0162523Y0176433D01*
X0163511Y0176024D01*
X0164091Y0175444D01*
X0168811Y0175444D01*
X0169293Y0175926D01*
X0170289Y0176922D01*
X0176107Y0176922D01*
X0175296Y0177733D01*
X0161003Y0177733D01*
X0160423Y0177153D01*
X0159435Y0176744D01*
X0158365Y0176744D01*
X0157377Y0177153D01*
X0156620Y0177910D01*
X0156211Y0178898D01*
X0156211Y0179968D01*
X0156620Y0180956D01*
X0157377Y0181713D01*
X0158365Y0182122D01*
X0159435Y0182122D01*
X0160423Y0181713D01*
X0161003Y0181133D01*
X0176704Y0181133D01*
X0177700Y0180137D01*
X0189128Y0168709D01*
X0189128Y0173017D01*
X0189948Y0173837D01*
X0194652Y0173837D01*
X0194800Y0173689D01*
X0194948Y0173837D01*
X0199652Y0173837D01*
X0199800Y0173689D01*
X0199948Y0173837D01*
X0203261Y0173837D01*
X0203111Y0174198D01*
X0203111Y0175268D01*
X0203520Y0176256D01*
X0204277Y0177013D01*
X0205133Y0177367D01*
X0205133Y0178146D01*
X0205311Y0178576D01*
X0201230Y0178576D01*
X0200410Y0179396D01*
X0200410Y0187643D01*
X0201230Y0188463D01*
X0201511Y0188463D01*
X0201511Y0189936D01*
X0199387Y0192060D01*
X0199348Y0192021D01*
X0198384Y0192021D01*
X0197576Y0191687D01*
X0184999Y0191687D01*
X0184999Y0186152D01*
X0184179Y0185332D01*
X0176011Y0185332D01*
X0175191Y0186152D01*
X0175191Y0199714D01*
X0176011Y0200534D01*
X0184179Y0200534D01*
X0184999Y0199714D01*
X0184999Y0199487D01*
X0193136Y0199487D01*
X0193031Y0199877D01*
X0193031Y0202095D01*
X0196616Y0202095D01*
X0196616Y0202464D01*
X0193031Y0202464D01*
X0193031Y0204682D01*
X0193154Y0205140D01*
X0193391Y0205550D01*
X0193726Y0205885D01*
X0194137Y0206122D01*
X0194595Y0206245D01*
X0196222Y0206245D01*
X0195477Y0206553D01*
X0194897Y0207133D01*
X0177404Y0207133D01*
X0177089Y0206818D01*
X0177089Y0205998D01*
X0176680Y0205010D01*
X0175923Y0204253D01*
X0174935Y0203844D01*
X0173865Y0203844D01*
X0172877Y0204253D01*
X0172120Y0205010D01*
X0171711Y0205998D01*
X0171711Y0207068D01*
X0172120Y0208056D01*
X0172877Y0208813D01*
X0173865Y0209222D01*
X0174685Y0209222D01*
X0175996Y0210533D01*
X0194897Y0210533D01*
X0195477Y0211113D01*
X0196465Y0211522D01*
X0197535Y0211522D01*
X0198523Y0211113D01*
X0199280Y0210356D01*
X0199689Y0209368D01*
X0199689Y0208298D01*
X0199280Y0207310D01*
X0198523Y0206553D01*
X0197778Y0206245D01*
X0199005Y0206245D01*
X0199463Y0206122D01*
X0199874Y0205885D01*
X0200209Y0205550D01*
X0200446Y0205140D01*
X0200568Y0204682D01*
X0200568Y0202464D01*
X0196984Y0202464D01*
X0196984Y0202095D01*
X0200568Y0202095D01*
X0200568Y0199877D01*
X0200446Y0199419D01*
X0200209Y0199009D01*
X0199874Y0198674D01*
X0199844Y0198657D01*
X0200168Y0198332D01*
X0200168Y0197806D01*
X0200614Y0197621D01*
X0203911Y0194324D01*
X0206155Y0196568D01*
X0207037Y0196933D01*
X0217111Y0196933D01*
X0217111Y0197968D01*
X0217520Y0198956D01*
X0218277Y0199713D01*
X0219265Y0200122D01*
X0220335Y0200122D01*
X0221323Y0199713D01*
X0221403Y0199633D01*
X0230197Y0199633D01*
X0230277Y0199713D01*
X0231265Y0200122D01*
X0232335Y0200122D01*
X0233274Y0199733D01*
X0233274Y0205025D01*
X0234094Y0205845D01*
X0236024Y0205845D01*
X0236552Y0206373D01*
X0237396Y0207216D01*
X0238499Y0207673D01*
X0241447Y0207673D01*
X0241447Y0207812D01*
X0242267Y0208632D01*
X0249333Y0208632D01*
X0250153Y0207812D01*
X0250153Y0204952D01*
X0250261Y0204952D01*
X0250325Y0204925D01*
X0254648Y0204925D01*
X0254648Y0206765D01*
X0255468Y0207585D01*
X0256105Y0207585D01*
X0256105Y0212533D01*
X0234724Y0212533D01*
X0233190Y0210999D01*
X0233190Y0210105D01*
X0232370Y0209285D01*
X0227818Y0209285D01*
X0227777Y0209245D01*
X0227367Y0209008D01*
X0226909Y0208885D01*
X0225786Y0208885D01*
X0225786Y0209983D01*
X0225786Y0209983D01*
X0225786Y0208885D01*
X0224663Y0208885D01*
X0224507Y0208927D01*
X0224350Y0208885D01*
X0223227Y0208885D01*
X0223227Y0209983D01*
X0223227Y0208885D01*
X0222104Y0208885D01*
X0221647Y0209008D01*
X0221236Y0209245D01*
X0221196Y0209285D01*
X0212463Y0209285D01*
X0212423Y0209245D01*
X0212012Y0209008D01*
X0211555Y0208885D01*
X0210432Y0208885D01*
X0210432Y0209983D01*
X0210432Y0209983D01*
X0210432Y0208885D01*
X0209309Y0208885D01*
X0209152Y0208927D01*
X0208996Y0208885D01*
X0207873Y0208885D01*
X0207873Y0209983D01*
X0207873Y0209983D01*
X0207873Y0208885D01*
X0206750Y0208885D01*
X0206292Y0209008D01*
X0205882Y0209245D01*
X0205841Y0209285D01*
X0201289Y0209285D01*
X0200469Y0210105D01*
X0200469Y0210999D01*
X0198935Y0212533D01*
X0117964Y0212533D01*
X0117964Y0203589D01*
X0117144Y0202769D01*
X0086456Y0202769D01*
X0085636Y0203589D01*
X0085636Y0234277D01*
X0086456Y0235097D01*
X0117144Y0235097D01*
X0117964Y0234277D01*
X0117964Y0225333D01*
X0136349Y0225333D01*
X0135774Y0225908D01*
X0117964Y0243718D01*
X0117964Y0238589D01*
X0117144Y0237769D01*
X0086456Y0237769D01*
X0085636Y0238589D01*
X0085636Y0269277D01*
X0086456Y0270097D01*
X0117144Y0270097D01*
X0117964Y0269277D01*
X0117964Y0260333D01*
X0118073Y0260333D01*
X0120425Y0259359D01*
X0143851Y0235933D01*
X0191611Y0235933D01*
X0191611Y0236000D01*
X0191389Y0236222D01*
X0190100Y0237511D01*
X0190100Y0242521D01*
X0189594Y0242521D01*
X0188774Y0243341D01*
X0188774Y0248635D01*
X0189348Y0249209D01*
X0189069Y0249371D01*
X0188734Y0249706D01*
X0188497Y0250116D01*
X0188374Y0250574D01*
X0188374Y0252644D01*
X0192066Y0252644D01*
X0192066Y0253111D01*
X0188374Y0253111D01*
X0188374Y0255182D01*
X0188415Y0255333D01*
X0163844Y0255333D01*
X0162555Y0256622D01*
X0152156Y0267021D01*
X0149547Y0267021D01*
X0148727Y0267841D01*
X0148727Y0268288D01*
X0134873Y0268288D01*
X0134873Y0267841D01*
X0134053Y0267021D01*
X0129547Y0267021D01*
X0128727Y0267841D01*
X0128727Y0273135D01*
X0129525Y0273933D01*
X0128727Y0274731D01*
X0128727Y0280025D01*
X0129547Y0280845D01*
X0129600Y0280845D01*
X0129600Y0281037D01*
X0128858Y0281037D01*
X0128038Y0281857D01*
X0128038Y0287741D01*
X0128858Y0288561D01*
X0133768Y0288561D01*
X0133024Y0289305D01*
X0128858Y0289305D01*
X0128038Y0290125D01*
X0128038Y0296009D01*
X0128858Y0296829D01*
X0134742Y0296829D01*
X0135562Y0296009D01*
X0135562Y0291575D01*
X0136104Y0291033D01*
X0148038Y0291033D01*
X0148038Y0296009D01*
X0148858Y0296829D01*
X0154742Y0296829D01*
X0155562Y0296009D01*
X0155562Y0291975D01*
X0168727Y0278810D01*
X0168727Y0283135D01*
X0169525Y0283933D01*
X0168727Y0284731D01*
X0168727Y0290025D01*
X0169547Y0290845D01*
X0174053Y0290845D01*
X0174873Y0290025D01*
X0174873Y0288471D01*
X0175222Y0288122D01*
X0175335Y0288122D01*
X0176323Y0287713D01*
X0177080Y0286956D01*
X0177489Y0285968D01*
X0177489Y0284898D01*
X0177392Y0284664D01*
X0179398Y0284664D01*
X0180218Y0283844D01*
X0180218Y0280520D01*
X0183082Y0277655D01*
X0182982Y0278027D01*
X0182982Y0280764D01*
X0186032Y0280764D01*
X0186032Y0280764D01*
X0186032Y0285064D01*
X0184545Y0285064D01*
X0184087Y0284941D01*
X0183677Y0284704D01*
X0183342Y0284369D01*
X0183105Y0283959D01*
X0182982Y0283501D01*
X0182982Y0280764D01*
X0186032Y0280764D01*
X0186032Y0280764D01*
X0186032Y0285064D01*
X0187519Y0285064D01*
X0187977Y0284941D01*
X0188387Y0284704D01*
X0188723Y0284369D01*
X0188960Y0283959D01*
X0189082Y0283501D01*
X0189082Y0280764D01*
X0186032Y0280764D01*
X0186032Y0280764D01*
X0186032Y0276464D01*
X0184545Y0276464D01*
X0184174Y0276563D01*
X0185101Y0275637D01*
X0185477Y0276013D01*
X0186465Y0276422D01*
X0187535Y0276422D01*
X0188523Y0276013D01*
X0189280Y0275256D01*
X0189689Y0274268D01*
X0189689Y0273198D01*
X0189416Y0272540D01*
X0189723Y0272413D01*
X0190480Y0271656D01*
X0190889Y0270668D01*
X0190889Y0269598D01*
X0190480Y0268610D01*
X0189723Y0267853D01*
X0188735Y0267444D01*
X0187665Y0267444D01*
X0186677Y0267853D01*
X0186097Y0268433D01*
X0176704Y0268433D01*
X0178704Y0266433D01*
X0203727Y0266433D01*
X0203727Y0270635D01*
X0204301Y0271209D01*
X0204022Y0271371D01*
X0203686Y0271706D01*
X0203449Y0272116D01*
X0203327Y0272574D01*
X0203327Y0274841D01*
X0206763Y0274841D01*
X0206763Y0274915D01*
X0206763Y0278745D01*
X0204890Y0278745D01*
X0204432Y0278622D01*
X0204022Y0278385D01*
X0203686Y0278050D01*
X0203449Y0277640D01*
X0203327Y0277182D01*
X0203327Y0274915D01*
X0206763Y0274915D01*
X0206837Y0274915D01*
X0206837Y0278745D01*
X0208710Y0278745D01*
X0209168Y0278622D01*
X0209578Y0278385D01*
X0209600Y0278364D01*
X0209600Y0279168D01*
X0209424Y0279067D01*
X0208966Y0278944D01*
X0205370Y0278944D01*
X0205370Y0283119D01*
X0205370Y0284669D01*
X0205370Y0288562D01*
X0205290Y0288516D01*
X0204832Y0288393D01*
X0203820Y0288393D01*
X0203820Y0284669D01*
X0205370Y0284669D01*
X0209094Y0284669D01*
X0209094Y0283402D01*
X0211682Y0283402D01*
X0211682Y0283402D01*
X0211682Y0287859D01*
X0212706Y0287859D01*
X0213164Y0287736D01*
X0213575Y0287499D01*
X0213615Y0287459D01*
X0223119Y0287459D01*
X0223194Y0287738D01*
X0223430Y0288149D01*
X0223675Y0288393D01*
X0222324Y0288393D01*
X0222324Y0293133D01*
X0220724Y0293133D01*
X0212876Y0293133D01*
X0212876Y0294733D01*
X0217616Y0294733D01*
X0220724Y0294733D01*
X0220724Y0293133D01*
X0220724Y0288393D01*
X0217547Y0288393D01*
X0217089Y0288516D01*
X0216800Y0288683D01*
X0216511Y0288516D01*
X0216053Y0288393D01*
X0212876Y0288393D01*
X0212876Y0293133D01*
X0211276Y0293133D01*
X0211276Y0288393D01*
X0209925Y0288393D01*
X0210169Y0288149D01*
X0210380Y0287785D01*
X0210658Y0287859D01*
X0211682Y0287859D01*
X0211682Y0283402D01*
X0211682Y0283402D01*
X0211682Y0293539D01*
X0211288Y0293933D01*
X0201300Y0293933D01*
X0201052Y0293933D01*
X0201052Y0287437D01*
X0204595Y0283894D01*
X0204595Y0277083D01*
X0206800Y0274878D01*
X0206763Y0276331D02*
X0206837Y0276331D01*
X0206837Y0277929D02*
X0206763Y0277929D01*
X0205370Y0279528D02*
X0203820Y0279528D01*
X0203820Y0278944D02*
X0203820Y0283119D01*
X0198661Y0283119D01*
X0198661Y0280507D01*
X0198784Y0280049D01*
X0199021Y0279639D01*
X0199356Y0279304D01*
X0199767Y0279067D01*
X0200224Y0278944D01*
X0203820Y0278944D01*
X0203617Y0277929D02*
X0189056Y0277929D01*
X0189082Y0278027D02*
X0189082Y0280764D01*
X0186032Y0280764D01*
X0186032Y0280764D01*
X0186032Y0276464D01*
X0187519Y0276464D01*
X0187977Y0276586D01*
X0188387Y0276823D01*
X0188723Y0277159D01*
X0188960Y0277569D01*
X0189082Y0278027D01*
X0189082Y0279528D02*
X0199132Y0279528D01*
X0198661Y0281126D02*
X0189082Y0281126D01*
X0189082Y0282725D02*
X0198661Y0282725D01*
X0198661Y0284669D02*
X0203820Y0284669D01*
X0203820Y0283119D01*
X0205370Y0283119D01*
X0209094Y0283119D01*
X0209094Y0283402D01*
X0211682Y0283402D01*
X0211682Y0284323D02*
X0211682Y0284323D01*
X0211682Y0285922D02*
X0211682Y0285922D01*
X0211682Y0287520D02*
X0211682Y0287520D01*
X0211276Y0289119D02*
X0212876Y0289119D01*
X0212876Y0290717D02*
X0211276Y0290717D01*
X0211276Y0292316D02*
X0212876Y0292316D01*
X0212876Y0293914D02*
X0220724Y0293914D01*
X0221524Y0293933D02*
X0221800Y0293933D01*
X0232300Y0293933D01*
X0232548Y0293933D01*
X0232548Y0287437D01*
X0229005Y0283894D01*
X0229780Y0284323D02*
X0244851Y0284323D01*
X0244877Y0284369D02*
X0244640Y0283959D01*
X0244518Y0283501D01*
X0244518Y0280764D01*
X0247568Y0280764D01*
X0247568Y0280764D01*
X0247568Y0285064D01*
X0249055Y0285064D01*
X0249512Y0284941D01*
X0249923Y0284704D01*
X0250258Y0284369D01*
X0250284Y0284324D01*
X0250794Y0284834D01*
X0250794Y0284834D01*
X0254166Y0288206D01*
X0254166Y0288206D01*
X0255338Y0289378D01*
X0258727Y0289378D01*
X0258727Y0290025D01*
X0259547Y0290845D01*
X0264053Y0290845D01*
X0264873Y0290025D01*
X0264873Y0289378D01*
X0265050Y0289378D01*
X0273038Y0281390D01*
X0273038Y0286009D01*
X0273858Y0286829D01*
X0274600Y0286829D01*
X0274600Y0287021D01*
X0274547Y0287021D01*
X0273727Y0287841D01*
X0273727Y0293135D01*
X0274301Y0293709D01*
X0274022Y0293871D01*
X0273686Y0294206D01*
X0273449Y0294616D01*
X0273327Y0295074D01*
X0273327Y0297341D01*
X0276763Y0297341D01*
X0276763Y0297415D01*
X0273327Y0297415D01*
X0273327Y0299682D01*
X0273449Y0300140D01*
X0273686Y0300550D01*
X0274022Y0300885D01*
X0274432Y0301122D01*
X0274473Y0301133D01*
X0091800Y0301133D01*
X0090674Y0301044D01*
X0088531Y0300348D01*
X0086709Y0299024D01*
X0085385Y0297202D01*
X0084689Y0295059D01*
X0084610Y0294054D01*
X0086869Y0296313D01*
X0090068Y0297639D01*
X0093532Y0297639D01*
X0096731Y0296313D01*
X0099180Y0293864D01*
X0100505Y0290665D01*
X0100505Y0287201D01*
X0099180Y0284002D01*
X0096731Y0281553D01*
X0093532Y0280228D01*
X0090068Y0280228D01*
X0086869Y0281553D01*
X0084600Y0283822D01*
X0084600Y0079045D01*
X0086869Y0081313D01*
X0090068Y0082639D01*
X0093532Y0082639D01*
X0096731Y0081313D01*
X0099180Y0078864D01*
X0100505Y0075665D01*
X0100505Y0072201D01*
X0099180Y0069002D01*
X0096731Y0066553D01*
X0093532Y0065228D01*
X0090068Y0065228D01*
X0086869Y0066553D01*
X0084609Y0068812D01*
X0084689Y0067807D01*
X0084632Y0068524D02*
X0084897Y0068524D01*
X0084975Y0066926D02*
X0086496Y0066926D01*
X0085630Y0065327D02*
X0089828Y0065327D01*
X0089725Y0062130D02*
X0168750Y0062130D01*
X0168750Y0063729D02*
X0168309Y0063729D01*
X0168364Y0065327D02*
X0168750Y0065327D01*
X0168750Y0066926D02*
X0168364Y0066926D01*
X0168364Y0068524D02*
X0168750Y0068524D01*
X0168750Y0070123D02*
X0168364Y0070123D01*
X0168364Y0071721D02*
X0168750Y0071721D01*
X0168750Y0073320D02*
X0168364Y0073320D01*
X0168364Y0074918D02*
X0168750Y0074918D01*
X0168750Y0076517D02*
X0168364Y0076517D01*
X0168364Y0078115D02*
X0168750Y0078115D01*
X0168750Y0079714D02*
X0152600Y0079714D01*
X0152600Y0079733D02*
X0151000Y0079733D01*
X0151000Y0095302D01*
X0152600Y0095302D01*
X0152600Y0079733D01*
X0152600Y0081312D02*
X0151000Y0081312D01*
X0151000Y0079714D02*
X0132964Y0079714D01*
X0132964Y0081312D02*
X0135236Y0081312D01*
X0135236Y0082911D02*
X0132964Y0082911D01*
X0132964Y0084509D02*
X0135236Y0084509D01*
X0135236Y0086108D02*
X0132964Y0086108D01*
X0132964Y0087706D02*
X0135236Y0087706D01*
X0135236Y0089305D02*
X0132964Y0089305D01*
X0134286Y0090903D02*
X0135236Y0090903D01*
X0138879Y0095497D02*
X0139085Y0095702D01*
X0141911Y0095702D01*
X0142731Y0096522D01*
X0142731Y0106344D01*
X0141911Y0107164D01*
X0132964Y0107164D01*
X0132964Y0128777D01*
X0132144Y0129597D01*
X0131800Y0129597D01*
X0131800Y0147933D01*
X0134235Y0147933D01*
X0134235Y0147731D01*
X0135033Y0146933D01*
X0134235Y0146135D01*
X0134235Y0141038D01*
X0134800Y0140473D01*
X0134800Y0139893D01*
X0134235Y0139328D01*
X0134235Y0134231D01*
X0134809Y0133657D01*
X0134529Y0133495D01*
X0134194Y0133160D01*
X0133957Y0132750D01*
X0133835Y0132292D01*
X0133835Y0130271D01*
X0137616Y0130271D01*
X0137616Y0129902D01*
X0137984Y0129902D01*
X0137984Y0126318D01*
X0139600Y0126318D01*
X0139600Y0122064D01*
X0139477Y0122013D01*
X0138720Y0121256D01*
X0138311Y0120268D01*
X0138311Y0119198D01*
X0138720Y0118210D01*
X0139477Y0117453D01*
X0140465Y0117044D01*
X0140800Y0117044D01*
X0140800Y0115029D01*
X0141796Y0114033D01*
X0148265Y0107564D01*
X0145032Y0107564D01*
X0144574Y0107441D01*
X0144163Y0107204D01*
X0143828Y0106869D01*
X0143591Y0106459D01*
X0143469Y0106001D01*
X0143469Y0102233D01*
X0148405Y0102233D01*
X0148405Y0100633D01*
X0143469Y0100633D01*
X0143469Y0096865D01*
X0143591Y0096408D01*
X0143828Y0095997D01*
X0144163Y0095662D01*
X0144449Y0095497D01*
X0138879Y0095497D01*
X0139081Y0095699D02*
X0144126Y0095699D01*
X0143469Y0097297D02*
X0142731Y0097297D01*
X0142731Y0098896D02*
X0143469Y0098896D01*
X0143469Y0100494D02*
X0142731Y0100494D01*
X0142731Y0102093D02*
X0148405Y0102093D01*
X0150006Y0102093D02*
X0175014Y0102093D01*
X0174614Y0100494D02*
X0154943Y0100494D01*
X0154943Y0098896D02*
X0174614Y0098896D01*
X0174614Y0097297D02*
X0154943Y0097297D01*
X0154285Y0095699D02*
X0175016Y0095699D01*
X0179281Y0095699D02*
X0179453Y0095699D01*
X0179453Y0097297D02*
X0179281Y0097297D01*
X0183718Y0095699D02*
X0245882Y0095699D01*
X0245480Y0097297D02*
X0184120Y0097297D01*
X0184120Y0098896D02*
X0245480Y0098896D01*
X0245480Y0100494D02*
X0184120Y0100494D01*
X0183720Y0102093D02*
X0245880Y0102093D01*
X0245880Y0103691D02*
X0183720Y0103691D01*
X0183720Y0105290D02*
X0220240Y0105290D01*
X0219156Y0106888D02*
X0183720Y0106888D01*
X0184958Y0108487D02*
X0219285Y0108487D01*
X0220935Y0110085D02*
X0186557Y0110085D01*
X0188155Y0111684D02*
X0223547Y0111684D01*
X0225145Y0113282D02*
X0189754Y0113282D01*
X0191352Y0114881D02*
X0226744Y0114881D01*
X0228286Y0116423D02*
X0228288Y0116427D01*
X0228411Y0116885D01*
X0228411Y0128133D01*
X0215600Y0128133D01*
X0215600Y0129733D01*
X0228411Y0129733D01*
X0228411Y0140981D01*
X0228288Y0141439D01*
X0228051Y0141849D01*
X0227716Y0142184D01*
X0227306Y0142421D01*
X0226848Y0142544D01*
X0215600Y0142544D01*
X0215600Y0129733D01*
X0214000Y0129733D01*
X0214000Y0141391D01*
X0214634Y0141653D01*
X0215391Y0142410D01*
X0215800Y0143398D01*
X0215800Y0144013D01*
X0236401Y0161853D01*
X0237444Y0161853D01*
X0238432Y0162263D01*
X0239189Y0163019D01*
X0239598Y0164007D01*
X0239598Y0164809D01*
X0239766Y0164854D01*
X0240177Y0165091D01*
X0240512Y0165426D01*
X0240749Y0165837D01*
X0240872Y0166295D01*
X0240872Y0169398D01*
X0237386Y0169398D01*
X0237386Y0169570D01*
X0240872Y0169570D01*
X0240872Y0172674D01*
X0240749Y0173132D01*
X0240512Y0173542D01*
X0240177Y0173877D01*
X0239766Y0174114D01*
X0239309Y0174237D01*
X0237386Y0174237D01*
X0237386Y0169570D01*
X0237214Y0169570D01*
X0237214Y0174237D01*
X0236100Y0174237D01*
X0236100Y0182230D01*
X0236680Y0182810D01*
X0237089Y0183798D01*
X0237089Y0184868D01*
X0236680Y0185856D01*
X0235923Y0186613D01*
X0234935Y0187022D01*
X0233865Y0187022D01*
X0233172Y0186735D01*
X0233172Y0188725D01*
X0232807Y0189608D01*
X0227181Y0195233D01*
X0230197Y0195233D01*
X0230277Y0195153D01*
X0231265Y0194744D01*
X0232335Y0194744D01*
X0232874Y0194967D01*
X0232874Y0193184D01*
X0232997Y0192726D01*
X0233234Y0192316D01*
X0233569Y0191981D01*
X0233979Y0191744D01*
X0234437Y0191621D01*
X0236567Y0191621D01*
X0236567Y0195255D01*
X0237033Y0195255D01*
X0237033Y0191621D01*
X0239163Y0191621D01*
X0239621Y0191744D01*
X0240031Y0191981D01*
X0240366Y0192316D01*
X0240603Y0192726D01*
X0240726Y0193184D01*
X0240726Y0195255D01*
X0237034Y0195255D01*
X0237034Y0195722D01*
X0240726Y0195722D01*
X0240726Y0197792D01*
X0240603Y0198250D01*
X0240366Y0198660D01*
X0240031Y0198995D01*
X0239752Y0199157D01*
X0240326Y0199731D01*
X0240326Y0201661D01*
X0240338Y0201673D01*
X0241447Y0201673D01*
X0241447Y0201534D01*
X0241772Y0201210D01*
X0241742Y0201192D01*
X0241407Y0200857D01*
X0241170Y0200447D01*
X0241047Y0199989D01*
X0241047Y0197672D01*
X0245320Y0197672D01*
X0245320Y0196713D01*
X0241047Y0196713D01*
X0241047Y0194397D01*
X0241170Y0193939D01*
X0241407Y0193529D01*
X0241742Y0193193D01*
X0242152Y0192957D01*
X0242610Y0192834D01*
X0245320Y0192834D01*
X0245320Y0196713D01*
X0246280Y0196713D01*
X0246280Y0197672D01*
X0250553Y0197672D01*
X0250553Y0198925D01*
X0254648Y0198925D01*
X0254648Y0198315D01*
X0254608Y0198275D01*
X0254371Y0197864D01*
X0254277Y0197513D01*
X0249630Y0197513D01*
X0249172Y0197390D01*
X0248762Y0197153D01*
X0248427Y0196818D01*
X0248366Y0196713D01*
X0246280Y0196713D01*
X0246280Y0192834D01*
X0248067Y0192834D01*
X0248067Y0190948D01*
X0248190Y0190490D01*
X0248427Y0190080D01*
X0248762Y0189745D01*
X0249172Y0189508D01*
X0249630Y0189385D01*
X0255441Y0189385D01*
X0255441Y0189721D01*
X0256104Y0189721D01*
X0256104Y0189385D01*
X0259008Y0189385D01*
X0259008Y0188497D01*
X0256104Y0188497D01*
X0256104Y0188121D01*
X0255441Y0188121D01*
X0255441Y0188497D01*
X0249630Y0188497D01*
X0249172Y0188374D01*
X0248762Y0188137D01*
X0248427Y0187802D01*
X0248190Y0187392D01*
X0248093Y0187032D01*
X0246280Y0187032D01*
X0246280Y0183153D01*
X0245320Y0183153D01*
X0245320Y0182194D01*
X0241047Y0182194D01*
X0241047Y0179877D01*
X0241170Y0179419D01*
X0241407Y0179009D01*
X0241742Y0178674D01*
X0241772Y0178657D01*
X0241447Y0178332D01*
X0241447Y0172054D01*
X0242267Y0171234D01*
X0249333Y0171234D01*
X0249392Y0171293D01*
X0254648Y0171293D01*
X0254648Y0164814D01*
X0254586Y0164965D01*
X0254586Y0165970D01*
X0253766Y0166790D01*
X0246700Y0166790D01*
X0245880Y0165970D01*
X0245880Y0161267D01*
X0246029Y0161118D01*
X0245880Y0160970D01*
X0245880Y0156267D01*
X0246029Y0156118D01*
X0245880Y0155970D01*
X0245880Y0151267D01*
X0246029Y0151118D01*
X0245880Y0150970D01*
X0245880Y0147857D01*
X0241489Y0152248D01*
X0241489Y0153068D01*
X0241080Y0154056D01*
X0240323Y0154813D01*
X0239335Y0155222D01*
X0238265Y0155222D01*
X0237277Y0154813D01*
X0236520Y0154056D01*
X0236111Y0153068D01*
X0236111Y0151998D01*
X0236520Y0151010D01*
X0237277Y0150253D01*
X0237353Y0150222D01*
X0236665Y0150222D01*
X0235677Y0149813D01*
X0234920Y0149056D01*
X0234511Y0148068D01*
X0234511Y0146998D01*
X0234920Y0146010D01*
X0235677Y0145253D01*
X0236665Y0144844D01*
X0237485Y0144844D01*
X0244415Y0137914D01*
X0245411Y0136918D01*
X0245880Y0136918D01*
X0245880Y0136267D01*
X0246029Y0136118D01*
X0245880Y0135970D01*
X0245880Y0135633D01*
X0243504Y0135633D01*
X0232889Y0146248D01*
X0232889Y0147068D01*
X0232480Y0148056D01*
X0231723Y0148813D01*
X0230735Y0149222D01*
X0229665Y0149222D01*
X0228677Y0148813D01*
X0227920Y0148056D01*
X0227511Y0147068D01*
X0227511Y0145998D01*
X0227920Y0145010D01*
X0228677Y0144253D01*
X0229665Y0143844D01*
X0230485Y0143844D01*
X0242096Y0132233D01*
X0245880Y0132233D01*
X0245880Y0131267D01*
X0246029Y0131118D01*
X0245880Y0130970D01*
X0245880Y0130318D01*
X0235281Y0130318D01*
X0234285Y0129322D01*
X0232585Y0127622D01*
X0231765Y0127622D01*
X0230777Y0127213D01*
X0230020Y0126456D01*
X0229611Y0125468D01*
X0229611Y0124398D01*
X0230020Y0123410D01*
X0230777Y0122653D01*
X0231765Y0122244D01*
X0232835Y0122244D01*
X0233823Y0122653D01*
X0234580Y0123410D01*
X0234989Y0124398D01*
X0234989Y0125218D01*
X0236689Y0126918D01*
X0245880Y0126918D01*
X0245880Y0126267D01*
X0246029Y0126118D01*
X0245880Y0125970D01*
X0245880Y0124833D01*
X0236696Y0124833D01*
X0228286Y0116423D01*
X0228302Y0116479D02*
X0228342Y0116479D01*
X0228411Y0118078D02*
X0229941Y0118078D01*
X0228411Y0119677D02*
X0231539Y0119677D01*
X0233138Y0121275D02*
X0228411Y0121275D01*
X0228411Y0122874D02*
X0230557Y0122874D01*
X0229611Y0124472D02*
X0228411Y0124472D01*
X0228411Y0126071D02*
X0229861Y0126071D01*
X0228411Y0127669D02*
X0232632Y0127669D01*
X0234230Y0129268D02*
X0215600Y0129268D01*
X0215600Y0130866D02*
X0214000Y0130866D01*
X0214000Y0129268D02*
X0199000Y0129268D01*
X0199000Y0130866D02*
X0201189Y0130866D01*
X0201189Y0132465D02*
X0199000Y0132465D01*
X0199000Y0134063D02*
X0201189Y0134063D01*
X0201189Y0135662D02*
X0199000Y0135662D01*
X0199000Y0137260D02*
X0201189Y0137260D01*
X0201189Y0138859D02*
X0199000Y0138859D01*
X0199000Y0140457D02*
X0201189Y0140457D01*
X0201755Y0142056D02*
X0199000Y0142056D01*
X0199000Y0143654D02*
X0210422Y0143654D01*
X0210747Y0145253D02*
X0199000Y0145253D01*
X0199000Y0146851D02*
X0213884Y0146851D01*
X0215730Y0148450D02*
X0199000Y0148450D01*
X0199000Y0150048D02*
X0217576Y0150048D01*
X0219421Y0151647D02*
X0199000Y0151647D01*
X0199000Y0153245D02*
X0221267Y0153245D01*
X0223113Y0154844D02*
X0199000Y0154844D01*
X0199000Y0156442D02*
X0209488Y0156442D01*
X0208611Y0158041D02*
X0199000Y0158041D01*
X0198198Y0159639D02*
X0208889Y0159639D01*
X0210109Y0162836D02*
X0195001Y0162836D01*
X0196599Y0161238D02*
X0213091Y0161238D01*
X0216301Y0162836D02*
X0222100Y0162836D01*
X0225700Y0162836D02*
X0232342Y0162836D01*
X0230497Y0161238D02*
X0226589Y0161238D01*
X0226316Y0159639D02*
X0228651Y0159639D01*
X0226805Y0158041D02*
X0220889Y0158041D01*
X0219912Y0156442D02*
X0224959Y0156442D01*
X0226461Y0153245D02*
X0236184Y0153245D01*
X0236257Y0151647D02*
X0224615Y0151647D01*
X0222769Y0150048D02*
X0236245Y0150048D01*
X0234669Y0148450D02*
X0232086Y0148450D01*
X0232889Y0146851D02*
X0234572Y0146851D01*
X0233885Y0145253D02*
X0235679Y0145253D01*
X0235483Y0143654D02*
X0238675Y0143654D01*
X0237082Y0142056D02*
X0240273Y0142056D01*
X0238680Y0140457D02*
X0241872Y0140457D01*
X0240279Y0138859D02*
X0243470Y0138859D01*
X0244415Y0137914D02*
X0244415Y0137914D01*
X0245069Y0137260D02*
X0241877Y0137260D01*
X0243476Y0135662D02*
X0245880Y0135662D01*
X0245880Y0130866D02*
X0228411Y0130866D01*
X0228411Y0132465D02*
X0241864Y0132465D01*
X0240266Y0134063D02*
X0228411Y0134063D01*
X0228411Y0135662D02*
X0238667Y0135662D01*
X0237069Y0137260D02*
X0228411Y0137260D01*
X0228411Y0138859D02*
X0235470Y0138859D01*
X0233872Y0140457D02*
X0228411Y0140457D01*
X0227845Y0142056D02*
X0232273Y0142056D01*
X0230675Y0143654D02*
X0215800Y0143654D01*
X0215600Y0142056D02*
X0215036Y0142056D01*
X0215600Y0140457D02*
X0214000Y0140457D01*
X0214000Y0138859D02*
X0215600Y0138859D01*
X0215600Y0137260D02*
X0214000Y0137260D01*
X0214000Y0135662D02*
X0215600Y0135662D01*
X0215600Y0134063D02*
X0214000Y0134063D01*
X0214000Y0132465D02*
X0215600Y0132465D01*
X0215600Y0127669D02*
X0214000Y0127669D01*
X0214000Y0126071D02*
X0215600Y0126071D01*
X0215600Y0124472D02*
X0214000Y0124472D01*
X0214000Y0122874D02*
X0215600Y0122874D01*
X0215600Y0121275D02*
X0214000Y0121275D01*
X0214000Y0119677D02*
X0215600Y0119677D01*
X0215600Y0118078D02*
X0214000Y0118078D01*
X0214000Y0116479D02*
X0215600Y0116479D01*
X0225158Y0108487D02*
X0245880Y0108487D01*
X0245880Y0110085D02*
X0226757Y0110085D01*
X0228355Y0111684D02*
X0245880Y0111684D01*
X0245880Y0113282D02*
X0229954Y0113282D01*
X0231552Y0114881D02*
X0245880Y0114881D01*
X0245880Y0116479D02*
X0233151Y0116479D01*
X0234749Y0118078D02*
X0245880Y0118078D01*
X0245880Y0119677D02*
X0236348Y0119677D01*
X0237946Y0121275D02*
X0245880Y0121275D01*
X0245981Y0126071D02*
X0235842Y0126071D01*
X0236335Y0124472D02*
X0234989Y0124472D01*
X0234736Y0122874D02*
X0234043Y0122874D01*
X0224443Y0106888D02*
X0245880Y0106888D01*
X0245880Y0105290D02*
X0223360Y0105290D01*
X0201298Y0116479D02*
X0192951Y0116479D01*
X0194549Y0118078D02*
X0201189Y0118078D01*
X0201189Y0119677D02*
X0196148Y0119677D01*
X0197746Y0121275D02*
X0201189Y0121275D01*
X0201189Y0122874D02*
X0199000Y0122874D01*
X0199000Y0124472D02*
X0201189Y0124472D01*
X0201189Y0126071D02*
X0199000Y0126071D01*
X0199000Y0127669D02*
X0201189Y0127669D01*
X0195600Y0127669D02*
X0192300Y0127669D01*
X0192300Y0126071D02*
X0195600Y0126071D01*
X0195600Y0124472D02*
X0191943Y0124472D01*
X0192300Y0124829D02*
X0192300Y0155915D01*
X0192509Y0155410D01*
X0193266Y0154653D01*
X0194254Y0154244D01*
X0195324Y0154244D01*
X0195600Y0154358D01*
X0195600Y0123937D01*
X0183720Y0112057D01*
X0183720Y0115970D01*
X0183571Y0116118D01*
X0183720Y0116267D01*
X0183720Y0120970D01*
X0183571Y0121118D01*
X0183720Y0121267D01*
X0183720Y0122033D01*
X0189504Y0122033D01*
X0191304Y0123833D01*
X0192300Y0124829D01*
X0190345Y0122874D02*
X0194536Y0122874D01*
X0192938Y0121275D02*
X0183720Y0121275D01*
X0183720Y0119677D02*
X0191339Y0119677D01*
X0189741Y0118078D02*
X0183720Y0118078D01*
X0183720Y0116479D02*
X0188142Y0116479D01*
X0186544Y0114881D02*
X0183720Y0114881D01*
X0183720Y0113282D02*
X0184945Y0113282D01*
X0175014Y0120318D02*
X0172319Y0120318D01*
X0162404Y0130233D01*
X0151021Y0130233D01*
X0151089Y0130398D01*
X0151089Y0131218D01*
X0151504Y0131633D01*
X0175014Y0131633D01*
X0175014Y0131267D01*
X0175163Y0131118D01*
X0175014Y0130970D01*
X0175014Y0126267D01*
X0175163Y0126118D01*
X0175014Y0125970D01*
X0175014Y0121267D01*
X0175163Y0121118D01*
X0175014Y0120970D01*
X0175014Y0120318D01*
X0175014Y0121275D02*
X0171362Y0121275D01*
X0169764Y0122874D02*
X0175014Y0122874D01*
X0175014Y0124472D02*
X0168165Y0124472D01*
X0166567Y0126071D02*
X0175115Y0126071D01*
X0175014Y0127669D02*
X0164968Y0127669D01*
X0163370Y0129268D02*
X0175014Y0129268D01*
X0175014Y0130866D02*
X0151089Y0130866D01*
X0146996Y0126833D02*
X0156779Y0126833D01*
X0156711Y0126668D01*
X0156711Y0125598D01*
X0157120Y0124610D01*
X0157877Y0123853D01*
X0158865Y0123444D01*
X0159935Y0123444D01*
X0160465Y0123664D01*
X0162507Y0121622D01*
X0162465Y0121622D01*
X0161477Y0121213D01*
X0160897Y0120633D01*
X0147296Y0120633D01*
X0146685Y0120022D01*
X0145865Y0120022D01*
X0145400Y0119829D01*
X0145400Y0120934D01*
X0143000Y0123334D01*
X0143000Y0138529D01*
X0159115Y0154644D01*
X0159935Y0154644D01*
X0160923Y0155053D01*
X0161200Y0155330D01*
X0161300Y0155230D01*
X0161300Y0150837D01*
X0145296Y0134833D01*
X0144300Y0133837D01*
X0144300Y0129529D01*
X0146000Y0127829D01*
X0146996Y0126833D01*
X0146160Y0127669D02*
X0143000Y0127669D01*
X0143000Y0126071D02*
X0156711Y0126071D01*
X0157258Y0124472D02*
X0143000Y0124472D01*
X0143461Y0122874D02*
X0161255Y0122874D01*
X0161627Y0121275D02*
X0145059Y0121275D01*
X0140800Y0116479D02*
X0132964Y0116479D01*
X0132964Y0114881D02*
X0140948Y0114881D01*
X0142546Y0113282D02*
X0132964Y0113282D01*
X0132964Y0111684D02*
X0144145Y0111684D01*
X0145743Y0110085D02*
X0132964Y0110085D01*
X0132964Y0108487D02*
X0147342Y0108487D01*
X0143848Y0106888D02*
X0142187Y0106888D01*
X0142731Y0105290D02*
X0143469Y0105290D01*
X0143469Y0103691D02*
X0142731Y0103691D01*
X0154943Y0103691D02*
X0173424Y0103691D01*
X0171562Y0105290D02*
X0154943Y0105290D01*
X0152600Y0094100D02*
X0151000Y0094100D01*
X0151000Y0092502D02*
X0152600Y0092502D01*
X0152600Y0090903D02*
X0151000Y0090903D01*
X0151000Y0089305D02*
X0152600Y0089305D01*
X0152600Y0087706D02*
X0151000Y0087706D01*
X0151000Y0086108D02*
X0152600Y0086108D01*
X0152600Y0084509D02*
X0151000Y0084509D01*
X0151000Y0082911D02*
X0152600Y0082911D01*
X0152600Y0078115D02*
X0151000Y0078115D01*
X0151000Y0076517D02*
X0152600Y0076517D01*
X0152600Y0074918D02*
X0151000Y0074918D01*
X0151000Y0073320D02*
X0152600Y0073320D01*
X0152600Y0071721D02*
X0151000Y0071721D01*
X0151000Y0070123D02*
X0152600Y0070123D01*
X0152600Y0068524D02*
X0151000Y0068524D01*
X0151000Y0066926D02*
X0152600Y0066926D01*
X0152600Y0065327D02*
X0151000Y0065327D01*
X0151000Y0063729D02*
X0152600Y0063729D01*
X0135291Y0063729D02*
X0132964Y0063729D01*
X0132964Y0065327D02*
X0135236Y0065327D01*
X0135236Y0066926D02*
X0132964Y0066926D01*
X0132964Y0068524D02*
X0135236Y0068524D01*
X0135236Y0070123D02*
X0132964Y0070123D01*
X0132964Y0071721D02*
X0135236Y0071721D01*
X0135236Y0073320D02*
X0132964Y0073320D01*
X0132964Y0074918D02*
X0135236Y0074918D01*
X0135236Y0076517D02*
X0132964Y0076517D01*
X0132964Y0078115D02*
X0135236Y0078115D01*
X0128050Y0095699D02*
X0084600Y0095699D01*
X0084600Y0097297D02*
X0101428Y0097297D01*
X0100636Y0098896D02*
X0084600Y0098896D01*
X0084600Y0100494D02*
X0100636Y0100494D01*
X0100636Y0102093D02*
X0084600Y0102093D01*
X0084600Y0103691D02*
X0100636Y0103691D01*
X0100636Y0105290D02*
X0084600Y0105290D01*
X0084600Y0106888D02*
X0100636Y0106888D01*
X0100636Y0108487D02*
X0084600Y0108487D01*
X0084600Y0110085D02*
X0100636Y0110085D01*
X0100636Y0111684D02*
X0084600Y0111684D01*
X0084600Y0113282D02*
X0100636Y0113282D01*
X0100636Y0114881D02*
X0084600Y0114881D01*
X0084600Y0116479D02*
X0100636Y0116479D01*
X0100636Y0118078D02*
X0084600Y0118078D01*
X0084600Y0119677D02*
X0100636Y0119677D01*
X0100636Y0121275D02*
X0084600Y0121275D01*
X0084600Y0122874D02*
X0100636Y0122874D01*
X0100636Y0124472D02*
X0084600Y0124472D01*
X0084600Y0126071D02*
X0100636Y0126071D01*
X0100636Y0127669D02*
X0084600Y0127669D01*
X0084600Y0129268D02*
X0101127Y0129268D01*
X0084600Y0130866D02*
X0119000Y0130866D01*
X0119000Y0132465D02*
X0084600Y0132465D01*
X0084600Y0134063D02*
X0119000Y0134063D01*
X0119000Y0135662D02*
X0084600Y0135662D01*
X0084600Y0137260D02*
X0119000Y0137260D01*
X0119000Y0138859D02*
X0084600Y0138859D01*
X0084600Y0140457D02*
X0119000Y0140457D01*
X0119000Y0142056D02*
X0084600Y0142056D01*
X0084600Y0143654D02*
X0119000Y0143654D01*
X0119000Y0145253D02*
X0084600Y0145253D01*
X0084600Y0146851D02*
X0119000Y0146851D01*
X0119000Y0148450D02*
X0084600Y0148450D01*
X0084600Y0150048D02*
X0119000Y0150048D01*
X0119000Y0151647D02*
X0084600Y0151647D01*
X0084600Y0153245D02*
X0119000Y0153245D01*
X0119000Y0154844D02*
X0118884Y0154844D01*
X0117000Y0154844D02*
X0116600Y0154844D01*
X0116600Y0156442D02*
X0117000Y0156442D01*
X0117000Y0158041D02*
X0116600Y0158041D01*
X0116600Y0159639D02*
X0117000Y0159639D01*
X0117000Y0161238D02*
X0116600Y0161238D01*
X0116600Y0162836D02*
X0117000Y0162836D01*
X0117675Y0164612D02*
X0119292Y0165282D01*
X0120530Y0166519D01*
X0121200Y0168137D01*
X0121200Y0169887D01*
X0120530Y0171504D01*
X0119292Y0172742D01*
X0117675Y0173412D01*
X0115925Y0173412D01*
X0114308Y0172742D01*
X0113070Y0171504D01*
X0112400Y0169887D01*
X0112400Y0168137D01*
X0113070Y0166519D01*
X0114308Y0165282D01*
X0115925Y0164612D01*
X0117675Y0164612D01*
X0120044Y0166033D02*
X0123554Y0166033D01*
X0121955Y0164435D02*
X0084600Y0164435D01*
X0084600Y0166033D02*
X0113556Y0166033D01*
X0112609Y0167632D02*
X0084600Y0167632D01*
X0084600Y0169230D02*
X0112400Y0169230D01*
X0112790Y0170829D02*
X0084600Y0170829D01*
X0084600Y0172427D02*
X0113993Y0172427D01*
X0114308Y0175124D02*
X0115925Y0174454D01*
X0117675Y0174454D01*
X0119292Y0175124D01*
X0120530Y0176362D01*
X0121200Y0177979D01*
X0121200Y0179730D01*
X0120530Y0181347D01*
X0119292Y0182584D01*
X0117675Y0183254D01*
X0115925Y0183254D01*
X0114308Y0182584D01*
X0113070Y0181347D01*
X0112400Y0179730D01*
X0112400Y0177979D01*
X0113070Y0176362D01*
X0114308Y0175124D01*
X0113807Y0175624D02*
X0084600Y0175624D01*
X0084600Y0174026D02*
X0131547Y0174026D01*
X0133145Y0175624D02*
X0119793Y0175624D01*
X0120887Y0177223D02*
X0134744Y0177223D01*
X0136342Y0178821D02*
X0121200Y0178821D01*
X0120914Y0180420D02*
X0137941Y0180420D01*
X0139539Y0182018D02*
X0119858Y0182018D01*
X0120380Y0184297D02*
X0121200Y0185117D01*
X0121200Y0192277D01*
X0120380Y0193097D01*
X0113220Y0193097D01*
X0112400Y0192277D01*
X0112400Y0185117D01*
X0113220Y0184297D01*
X0120380Y0184297D01*
X0121200Y0185215D02*
X0142736Y0185215D01*
X0141138Y0183617D02*
X0084600Y0183617D01*
X0084600Y0185215D02*
X0112400Y0185215D01*
X0112400Y0186814D02*
X0084600Y0186814D01*
X0084600Y0188412D02*
X0112400Y0188412D01*
X0112400Y0190011D02*
X0084600Y0190011D01*
X0084600Y0191610D02*
X0112400Y0191610D01*
X0121200Y0191610D02*
X0149130Y0191610D01*
X0150729Y0193208D02*
X0084600Y0193208D01*
X0084600Y0194807D02*
X0152327Y0194807D01*
X0153926Y0196405D02*
X0084600Y0196405D01*
X0084600Y0198004D02*
X0154601Y0198004D01*
X0154601Y0199602D02*
X0084600Y0199602D01*
X0084600Y0201201D02*
X0142907Y0201201D01*
X0142526Y0201582D02*
X0143346Y0200761D01*
X0160254Y0200761D01*
X0161074Y0201582D01*
X0161074Y0207466D01*
X0160254Y0208286D01*
X0143346Y0208286D01*
X0142526Y0207466D01*
X0142526Y0201582D01*
X0142526Y0202799D02*
X0117173Y0202799D01*
X0117964Y0204398D02*
X0142526Y0204398D01*
X0142526Y0205996D02*
X0117964Y0205996D01*
X0117964Y0207595D02*
X0142655Y0207595D01*
X0160945Y0207595D02*
X0171929Y0207595D01*
X0171712Y0205996D02*
X0161074Y0205996D01*
X0161074Y0204398D02*
X0172733Y0204398D01*
X0176067Y0204398D02*
X0193031Y0204398D01*
X0193031Y0202799D02*
X0161074Y0202799D01*
X0160693Y0201201D02*
X0193031Y0201201D01*
X0193105Y0199602D02*
X0184999Y0199602D01*
X0184999Y0191610D02*
X0199837Y0191610D01*
X0201436Y0190011D02*
X0184999Y0190011D01*
X0184999Y0188412D02*
X0201179Y0188412D01*
X0200410Y0186814D02*
X0184999Y0186814D01*
X0175191Y0186814D02*
X0164409Y0186814D01*
X0164409Y0188412D02*
X0175191Y0188412D01*
X0175191Y0190011D02*
X0165222Y0190011D01*
X0165884Y0191610D02*
X0175191Y0191610D01*
X0175191Y0193208D02*
X0165905Y0193208D01*
X0165656Y0194807D02*
X0175191Y0194807D01*
X0175191Y0196405D02*
X0164994Y0196405D01*
X0164409Y0198004D02*
X0175191Y0198004D01*
X0175191Y0199602D02*
X0164409Y0199602D01*
X0173795Y0209193D02*
X0117964Y0209193D01*
X0117964Y0210792D02*
X0195156Y0210792D01*
X0198844Y0210792D02*
X0200469Y0210792D01*
X0199689Y0209193D02*
X0205971Y0209193D01*
X0207873Y0209193D02*
X0207873Y0209193D01*
X0210432Y0209193D02*
X0210432Y0209193D01*
X0212334Y0209193D02*
X0221325Y0209193D01*
X0223227Y0209193D02*
X0223227Y0209193D01*
X0223227Y0209983D02*
X0223227Y0209983D01*
X0225786Y0209193D02*
X0225786Y0209193D01*
X0227688Y0209193D02*
X0256105Y0209193D01*
X0256105Y0207595D02*
X0250153Y0207595D01*
X0250153Y0205996D02*
X0254648Y0205996D01*
X0256105Y0210792D02*
X0233190Y0210792D01*
X0234582Y0212390D02*
X0256105Y0212390D01*
X0263432Y0212390D02*
X0274136Y0212390D01*
X0274136Y0212533D02*
X0274136Y0207039D01*
X0273903Y0206806D01*
X0273124Y0207585D01*
X0263432Y0207585D01*
X0263432Y0212533D01*
X0274136Y0212533D01*
X0274136Y0210792D02*
X0263432Y0210792D01*
X0263432Y0209193D02*
X0274136Y0209193D01*
X0274136Y0207595D02*
X0263432Y0207595D01*
X0254451Y0198004D02*
X0250553Y0198004D01*
X0246280Y0198004D02*
X0245320Y0198004D01*
X0245320Y0197673D02*
X0245320Y0200714D01*
X0245516Y0200714D01*
X0245978Y0200253D01*
X0246280Y0199951D01*
X0246280Y0197673D01*
X0245320Y0197673D01*
X0245320Y0196405D02*
X0246280Y0196405D01*
X0246280Y0194807D02*
X0245320Y0194807D01*
X0245320Y0193208D02*
X0246280Y0193208D01*
X0248067Y0191610D02*
X0230805Y0191610D01*
X0229206Y0193208D02*
X0232874Y0193208D01*
X0232874Y0194807D02*
X0232486Y0194807D01*
X0233424Y0195255D02*
X0233891Y0195722D01*
X0236566Y0195722D01*
X0236566Y0195255D01*
X0233424Y0195255D01*
X0231114Y0194807D02*
X0227608Y0194807D01*
X0231800Y0197433D02*
X0219800Y0197433D01*
X0218166Y0199602D02*
X0200495Y0199602D01*
X0200568Y0201201D02*
X0233274Y0201201D01*
X0233274Y0202799D02*
X0200568Y0202799D01*
X0200568Y0204398D02*
X0233274Y0204398D01*
X0236176Y0205996D02*
X0199682Y0205996D01*
X0199398Y0207595D02*
X0238309Y0207595D01*
X0240326Y0201201D02*
X0241756Y0201201D01*
X0241047Y0199602D02*
X0240197Y0199602D01*
X0240669Y0198004D02*
X0241047Y0198004D01*
X0241047Y0196405D02*
X0240726Y0196405D01*
X0240726Y0194807D02*
X0241047Y0194807D01*
X0240726Y0193208D02*
X0241727Y0193208D01*
X0237033Y0193208D02*
X0236567Y0193208D01*
X0236567Y0194807D02*
X0237033Y0194807D01*
X0237033Y0195722D02*
X0237033Y0198911D01*
X0236567Y0198911D01*
X0236567Y0195722D01*
X0237033Y0195722D01*
X0237033Y0196405D02*
X0236567Y0196405D01*
X0236567Y0198004D02*
X0237033Y0198004D01*
X0245320Y0199602D02*
X0246280Y0199602D01*
X0248495Y0190011D02*
X0232403Y0190011D01*
X0233172Y0188412D02*
X0249315Y0188412D01*
X0246280Y0186814D02*
X0245320Y0186814D01*
X0245320Y0187032D02*
X0242610Y0187032D01*
X0242152Y0186910D01*
X0241742Y0186673D01*
X0241407Y0186337D01*
X0241170Y0185927D01*
X0241047Y0185469D01*
X0241047Y0183153D01*
X0245320Y0183153D01*
X0245320Y0187032D01*
X0245320Y0185215D02*
X0246280Y0185215D01*
X0246280Y0183617D02*
X0245320Y0183617D01*
X0245320Y0182194D02*
X0246280Y0182194D01*
X0246280Y0179152D01*
X0245320Y0179152D01*
X0245320Y0182194D01*
X0245320Y0182018D02*
X0246280Y0182018D01*
X0246280Y0180420D02*
X0245320Y0180420D01*
X0241594Y0178821D02*
X0236100Y0178821D01*
X0236100Y0177223D02*
X0241447Y0177223D01*
X0241447Y0175624D02*
X0236100Y0175624D01*
X0237214Y0174026D02*
X0237386Y0174026D01*
X0237386Y0172427D02*
X0237214Y0172427D01*
X0237214Y0170829D02*
X0237386Y0170829D01*
X0240872Y0170829D02*
X0254648Y0170829D01*
X0254648Y0169230D02*
X0240872Y0169230D01*
X0240872Y0167632D02*
X0254648Y0167632D01*
X0254648Y0166033D02*
X0254522Y0166033D01*
X0245944Y0166033D02*
X0240802Y0166033D01*
X0239598Y0164435D02*
X0245880Y0164435D01*
X0245880Y0162836D02*
X0239006Y0162836D01*
X0235690Y0161238D02*
X0245909Y0161238D01*
X0245880Y0159639D02*
X0233844Y0159639D01*
X0231999Y0158041D02*
X0245880Y0158041D01*
X0245880Y0156442D02*
X0230153Y0156442D01*
X0228307Y0154844D02*
X0237352Y0154844D01*
X0240248Y0154844D02*
X0245880Y0154844D01*
X0245880Y0153245D02*
X0241416Y0153245D01*
X0242090Y0151647D02*
X0245880Y0151647D01*
X0245880Y0150048D02*
X0243689Y0150048D01*
X0245287Y0148450D02*
X0245880Y0148450D01*
X0254586Y0149751D02*
X0254586Y0150970D01*
X0254437Y0151118D01*
X0254586Y0151267D01*
X0254586Y0151743D01*
X0272850Y0133479D01*
X0275100Y0131229D01*
X0275100Y0118437D01*
X0274520Y0117857D01*
X0274500Y0117808D01*
X0274500Y0118637D01*
X0274500Y0129837D01*
X0254586Y0149751D01*
X0254586Y0150048D02*
X0256281Y0150048D01*
X0255888Y0148450D02*
X0257879Y0148450D01*
X0257486Y0146851D02*
X0259478Y0146851D01*
X0259085Y0145253D02*
X0261076Y0145253D01*
X0260683Y0143654D02*
X0262675Y0143654D01*
X0262282Y0142056D02*
X0264273Y0142056D01*
X0263880Y0140457D02*
X0265872Y0140457D01*
X0265479Y0138859D02*
X0267470Y0138859D01*
X0267077Y0137260D02*
X0269069Y0137260D01*
X0268676Y0135662D02*
X0270667Y0135662D01*
X0270274Y0134063D02*
X0272266Y0134063D01*
X0271873Y0132465D02*
X0273864Y0132465D01*
X0273471Y0130866D02*
X0275100Y0130866D01*
X0275100Y0129268D02*
X0274500Y0129268D01*
X0274500Y0127669D02*
X0275100Y0127669D01*
X0275100Y0126071D02*
X0274500Y0126071D01*
X0274500Y0124472D02*
X0275100Y0124472D01*
X0275100Y0122874D02*
X0274500Y0122874D01*
X0274500Y0121275D02*
X0275100Y0121275D01*
X0275100Y0119677D02*
X0274500Y0119677D01*
X0274500Y0118078D02*
X0274741Y0118078D01*
X0274111Y0116840D02*
X0274111Y0115799D01*
X0274225Y0115523D01*
X0273727Y0115025D01*
X0273727Y0109731D01*
X0274525Y0108933D01*
X0273727Y0108135D01*
X0273727Y0102841D01*
X0274547Y0102021D01*
X0274636Y0102021D01*
X0274636Y0098333D01*
X0273456Y0098333D01*
X0273439Y0098316D01*
X0273439Y0106294D01*
X0272443Y0107290D01*
X0272000Y0107733D01*
X0272000Y0114729D01*
X0274111Y0116840D01*
X0274111Y0116479D02*
X0273751Y0116479D01*
X0273727Y0114881D02*
X0272152Y0114881D01*
X0272000Y0113282D02*
X0273727Y0113282D01*
X0273727Y0111684D02*
X0272000Y0111684D01*
X0272000Y0110085D02*
X0273727Y0110085D01*
X0274079Y0108487D02*
X0272000Y0108487D01*
X0272845Y0106888D02*
X0273727Y0106888D01*
X0273727Y0105290D02*
X0273439Y0105290D01*
X0273439Y0103691D02*
X0273727Y0103691D01*
X0273439Y0102093D02*
X0274475Y0102093D01*
X0274636Y0100494D02*
X0273439Y0100494D01*
X0273439Y0098896D02*
X0274636Y0098896D01*
X0270039Y0098896D02*
X0268800Y0098896D01*
X0268800Y0100494D02*
X0270039Y0100494D01*
X0268800Y0100657D02*
X0268435Y0101539D01*
X0267759Y0102214D01*
X0265168Y0104805D01*
X0265168Y0107525D01*
X0264348Y0108345D01*
X0261631Y0108345D01*
X0261300Y0108676D01*
X0261300Y0113030D01*
X0260843Y0114132D01*
X0259999Y0114976D01*
X0258897Y0115433D01*
X0257703Y0115433D01*
X0256601Y0114976D01*
X0255757Y0114132D01*
X0255300Y0113030D01*
X0255300Y0106676D01*
X0255242Y0106618D01*
X0254586Y0106618D01*
X0254586Y0110970D01*
X0254437Y0111118D01*
X0254586Y0111267D01*
X0254586Y0115970D01*
X0254437Y0116118D01*
X0254586Y0116267D01*
X0254586Y0117233D01*
X0268508Y0117233D01*
X0269088Y0116653D01*
X0269108Y0116645D01*
X0268600Y0116137D01*
X0268600Y0106325D01*
X0270039Y0104886D01*
X0270039Y0091253D01*
X0271035Y0090258D01*
X0272300Y0088992D01*
X0272300Y0088829D01*
X0273296Y0087833D01*
X0282504Y0087833D01*
X0284731Y0090060D01*
X0286004Y0089533D01*
X0287754Y0089533D01*
X0289371Y0090203D01*
X0289400Y0090232D01*
X0289400Y0087033D01*
X0273207Y0087033D01*
X0268800Y0091440D01*
X0268800Y0100657D01*
X0267881Y0102093D02*
X0270039Y0102093D01*
X0270039Y0103691D02*
X0266282Y0103691D01*
X0265168Y0105290D02*
X0269635Y0105290D01*
X0268600Y0106888D02*
X0265168Y0106888D01*
X0268600Y0108487D02*
X0261489Y0108487D01*
X0261300Y0110085D02*
X0268600Y0110085D01*
X0268600Y0111684D02*
X0261300Y0111684D01*
X0261195Y0113282D02*
X0268600Y0113282D01*
X0268600Y0114881D02*
X0260095Y0114881D01*
X0256505Y0114881D02*
X0254586Y0114881D01*
X0254586Y0116479D02*
X0268942Y0116479D01*
X0268508Y0120633D02*
X0254586Y0120633D01*
X0254586Y0120970D01*
X0254437Y0121118D01*
X0254586Y0121267D01*
X0254586Y0125970D01*
X0254437Y0126118D01*
X0254586Y0126267D01*
X0254586Y0130970D01*
X0254437Y0131118D01*
X0254586Y0131267D01*
X0254586Y0135970D01*
X0254437Y0136118D01*
X0254586Y0136267D01*
X0254586Y0140970D01*
X0254437Y0141118D01*
X0254586Y0141267D01*
X0254586Y0144943D01*
X0271100Y0128429D01*
X0271100Y0121622D01*
X0270076Y0121622D01*
X0269088Y0121213D01*
X0268508Y0120633D01*
X0269238Y0121275D02*
X0254586Y0121275D01*
X0254586Y0122874D02*
X0271100Y0122874D01*
X0271100Y0124472D02*
X0254586Y0124472D01*
X0254485Y0126071D02*
X0271100Y0126071D01*
X0271100Y0127669D02*
X0254586Y0127669D01*
X0254586Y0129268D02*
X0270261Y0129268D01*
X0268663Y0130866D02*
X0254586Y0130866D01*
X0254586Y0132465D02*
X0267064Y0132465D01*
X0265466Y0134063D02*
X0254586Y0134063D01*
X0254586Y0135662D02*
X0263867Y0135662D01*
X0262269Y0137260D02*
X0254586Y0137260D01*
X0254586Y0138859D02*
X0260670Y0138859D01*
X0259072Y0140457D02*
X0254586Y0140457D01*
X0254586Y0142056D02*
X0257473Y0142056D01*
X0255875Y0143654D02*
X0254586Y0143654D01*
X0254586Y0151647D02*
X0254682Y0151647D01*
X0263708Y0157606D02*
X0263708Y0161281D01*
X0264148Y0161281D01*
X0264968Y0162101D01*
X0264968Y0179528D01*
X0265008Y0179568D01*
X0265245Y0179978D01*
X0265368Y0180436D01*
X0265368Y0188121D01*
X0262799Y0188121D01*
X0262783Y0188137D01*
X0262373Y0188374D01*
X0261915Y0188497D01*
X0260608Y0188497D01*
X0260608Y0189385D01*
X0261915Y0189385D01*
X0262373Y0189508D01*
X0262743Y0189721D01*
X0265368Y0189721D01*
X0265368Y0197111D01*
X0268300Y0194179D01*
X0268300Y0160676D01*
X0265257Y0157632D01*
X0264800Y0156530D01*
X0264800Y0156514D01*
X0263708Y0157606D01*
X0263708Y0158041D02*
X0265665Y0158041D01*
X0267264Y0159639D02*
X0263708Y0159639D01*
X0263708Y0161238D02*
X0268300Y0161238D01*
X0268300Y0162836D02*
X0264968Y0162836D01*
X0264968Y0164435D02*
X0268300Y0164435D01*
X0268300Y0166033D02*
X0264968Y0166033D01*
X0264968Y0167632D02*
X0268300Y0167632D01*
X0268300Y0169230D02*
X0264968Y0169230D01*
X0264968Y0170829D02*
X0268300Y0170829D01*
X0268300Y0172427D02*
X0264968Y0172427D01*
X0264968Y0174026D02*
X0268300Y0174026D01*
X0268300Y0175624D02*
X0264968Y0175624D01*
X0264968Y0177223D02*
X0268300Y0177223D01*
X0268300Y0178821D02*
X0264968Y0178821D01*
X0265363Y0180420D02*
X0268300Y0180420D01*
X0268300Y0182018D02*
X0265368Y0182018D01*
X0265368Y0183617D02*
X0268300Y0183617D01*
X0268300Y0185215D02*
X0265368Y0185215D01*
X0265368Y0186814D02*
X0268300Y0186814D01*
X0268300Y0188412D02*
X0262230Y0188412D01*
X0265368Y0190011D02*
X0268300Y0190011D01*
X0268300Y0191610D02*
X0265368Y0191610D01*
X0265368Y0193208D02*
X0268300Y0193208D01*
X0267672Y0194807D02*
X0265368Y0194807D01*
X0265368Y0196405D02*
X0266074Y0196405D01*
X0273411Y0197553D02*
X0273944Y0198085D01*
X0273944Y0199425D01*
X0274361Y0199425D01*
X0274591Y0199520D01*
X0274956Y0199155D01*
X0280644Y0199155D01*
X0281464Y0199975D01*
X0281464Y0212533D01*
X0292168Y0212533D01*
X0292168Y0207175D01*
X0292119Y0207057D01*
X0292119Y0205864D01*
X0292168Y0205746D01*
X0292168Y0199975D01*
X0292988Y0199155D01*
X0298675Y0199155D01*
X0299495Y0199975D01*
X0299495Y0205780D01*
X0304186Y0205780D01*
X0304309Y0205657D01*
X0304029Y0205495D01*
X0303694Y0205160D01*
X0303457Y0204750D01*
X0303335Y0204292D01*
X0303335Y0202271D01*
X0307116Y0202271D01*
X0307116Y0201902D01*
X0307484Y0201902D01*
X0307484Y0198318D01*
X0309702Y0198318D01*
X0310160Y0198441D01*
X0310571Y0198678D01*
X0310906Y0199013D01*
X0311143Y0199423D01*
X0311265Y0199881D01*
X0311265Y0201902D01*
X0307484Y0201902D01*
X0307484Y0202271D01*
X0311265Y0202271D01*
X0311265Y0202960D01*
X0311456Y0202769D01*
X0317742Y0202769D01*
X0315265Y0200293D01*
X0314900Y0199410D01*
X0314900Y0192378D01*
X0314316Y0192802D01*
X0313643Y0193145D01*
X0312924Y0193379D01*
X0312178Y0193497D01*
X0312000Y0193497D01*
X0312000Y0188897D01*
X0311600Y0188897D01*
X0311600Y0193497D01*
X0311422Y0193497D01*
X0310676Y0193379D01*
X0309957Y0193145D01*
X0309284Y0192802D01*
X0308673Y0192358D01*
X0308139Y0191824D01*
X0307695Y0191213D01*
X0307352Y0190539D01*
X0307118Y0189821D01*
X0307000Y0189075D01*
X0307000Y0188897D01*
X0311600Y0188897D01*
X0311600Y0188497D01*
X0307000Y0188497D01*
X0307000Y0188319D01*
X0307065Y0187911D01*
X0306838Y0188137D01*
X0306428Y0188374D01*
X0305970Y0188497D01*
X0300159Y0188497D01*
X0300159Y0184765D01*
X0299496Y0184765D01*
X0299496Y0188497D01*
X0293685Y0188497D01*
X0293227Y0188374D01*
X0292817Y0188137D01*
X0292482Y0187802D01*
X0292245Y0187392D01*
X0292122Y0186934D01*
X0292122Y0184765D01*
X0299496Y0184765D01*
X0299496Y0184101D01*
X0300159Y0184101D01*
X0300159Y0180369D01*
X0305970Y0180369D01*
X0306428Y0180492D01*
X0306838Y0180729D01*
X0307173Y0181064D01*
X0307410Y0181475D01*
X0307533Y0181932D01*
X0307533Y0184101D01*
X0300160Y0184101D01*
X0300160Y0184765D01*
X0307533Y0184765D01*
X0307533Y0186498D01*
X0307695Y0186181D01*
X0308139Y0185570D01*
X0308673Y0185036D01*
X0309284Y0184592D01*
X0309957Y0184249D01*
X0310676Y0184015D01*
X0311422Y0183897D01*
X0311600Y0183897D01*
X0311600Y0188497D01*
X0312000Y0188497D01*
X0312000Y0183897D01*
X0312178Y0183897D01*
X0312924Y0184015D01*
X0313643Y0184249D01*
X0314316Y0184592D01*
X0314900Y0185016D01*
X0314900Y0181977D01*
X0314292Y0182584D01*
X0312675Y0183254D01*
X0310925Y0183254D01*
X0309308Y0182584D01*
X0308070Y0181347D01*
X0307400Y0179730D01*
X0307400Y0177979D01*
X0308070Y0176362D01*
X0308440Y0175992D01*
X0308062Y0175614D01*
X0308062Y0175614D01*
X0307133Y0174685D01*
X0307133Y0178261D01*
X0306313Y0179081D01*
X0293342Y0179081D01*
X0292522Y0178261D01*
X0292522Y0172574D01*
X0293342Y0171754D01*
X0304588Y0171754D01*
X0304496Y0171531D01*
X0304496Y0159121D01*
X0302891Y0157517D01*
X0302707Y0157333D01*
X0299495Y0157333D01*
X0299495Y0168891D01*
X0298675Y0169711D01*
X0292988Y0169711D01*
X0292168Y0168891D01*
X0292168Y0156195D01*
X0286624Y0150651D01*
X0286272Y0149802D01*
X0285322Y0149802D01*
X0284502Y0148981D01*
X0284502Y0143885D01*
X0285322Y0143065D01*
X0291400Y0143065D01*
X0291400Y0141192D01*
X0290799Y0141793D01*
X0290124Y0142468D01*
X0289242Y0142833D01*
X0276360Y0142833D01*
X0273266Y0145927D01*
X0273266Y0147209D01*
X0272672Y0148642D01*
X0268381Y0152933D01*
X0268397Y0152933D01*
X0269499Y0153390D01*
X0273736Y0157627D01*
X0273736Y0156263D01*
X0273859Y0155805D01*
X0274096Y0155395D01*
X0274431Y0155060D01*
X0274841Y0154823D01*
X0275299Y0154700D01*
X0277468Y0154700D01*
X0277468Y0162074D01*
X0278132Y0162074D01*
X0278132Y0162737D01*
X0281864Y0162737D01*
X0281864Y0168548D01*
X0281741Y0169006D01*
X0281504Y0169416D01*
X0281169Y0169751D01*
X0280759Y0169988D01*
X0280301Y0170111D01*
X0278132Y0170111D01*
X0278132Y0162737D01*
X0277468Y0162737D01*
X0277468Y0170111D01*
X0275299Y0170111D01*
X0274841Y0169988D01*
X0274431Y0169751D01*
X0274300Y0169620D01*
X0274300Y0196018D01*
X0273843Y0197121D01*
X0273411Y0197553D01*
X0273862Y0198004D02*
X0314900Y0198004D01*
X0314900Y0196405D02*
X0307021Y0196405D01*
X0307133Y0196292D02*
X0306313Y0197113D01*
X0293342Y0197113D01*
X0292522Y0196292D01*
X0292522Y0190605D01*
X0293342Y0189785D01*
X0306313Y0189785D01*
X0307133Y0190605D01*
X0307133Y0196292D01*
X0307133Y0194807D02*
X0314900Y0194807D01*
X0314900Y0193208D02*
X0313449Y0193208D01*
X0312000Y0193208D02*
X0311600Y0193208D01*
X0310151Y0193208D02*
X0307133Y0193208D01*
X0307133Y0191610D02*
X0307983Y0191610D01*
X0307180Y0190011D02*
X0306539Y0190011D01*
X0306285Y0188412D02*
X0307000Y0188412D01*
X0307533Y0185215D02*
X0308493Y0185215D01*
X0307533Y0183617D02*
X0314900Y0183617D01*
X0314858Y0182018D02*
X0314900Y0182018D01*
X0312000Y0185215D02*
X0311600Y0185215D01*
X0311600Y0186814D02*
X0312000Y0186814D01*
X0312000Y0188412D02*
X0311600Y0188412D01*
X0311600Y0190011D02*
X0312000Y0190011D01*
X0312000Y0191610D02*
X0311600Y0191610D01*
X0311191Y0199602D02*
X0314979Y0199602D01*
X0316173Y0201201D02*
X0311265Y0201201D01*
X0311265Y0202799D02*
X0311427Y0202799D01*
X0307484Y0201201D02*
X0307116Y0201201D01*
X0307116Y0201902D02*
X0307116Y0198318D01*
X0304898Y0198318D01*
X0304440Y0198441D01*
X0304029Y0198678D01*
X0303694Y0199013D01*
X0303457Y0199423D01*
X0303335Y0199881D01*
X0303335Y0201902D01*
X0307116Y0201902D01*
X0307116Y0199602D02*
X0307484Y0199602D01*
X0303409Y0199602D02*
X0299122Y0199602D01*
X0299495Y0201201D02*
X0303335Y0201201D01*
X0303335Y0202799D02*
X0299495Y0202799D01*
X0299495Y0204398D02*
X0303363Y0204398D01*
X0292168Y0204398D02*
X0290480Y0204398D01*
X0290480Y0205702D02*
X0290480Y0200015D01*
X0289659Y0199194D01*
X0283972Y0199194D01*
X0283152Y0200015D01*
X0283152Y0205702D01*
X0283972Y0206522D01*
X0289659Y0206522D01*
X0290480Y0205702D01*
X0290185Y0205996D02*
X0292119Y0205996D01*
X0292168Y0207595D02*
X0281464Y0207595D01*
X0281464Y0209193D02*
X0292168Y0209193D01*
X0292168Y0210792D02*
X0281464Y0210792D01*
X0281464Y0212390D02*
X0292168Y0212390D01*
X0283446Y0205996D02*
X0281464Y0205996D01*
X0281464Y0204398D02*
X0283152Y0204398D01*
X0283152Y0202799D02*
X0281464Y0202799D01*
X0281464Y0201201D02*
X0283152Y0201201D01*
X0283564Y0199602D02*
X0281091Y0199602D01*
X0274140Y0196405D02*
X0292635Y0196405D01*
X0292522Y0194807D02*
X0274300Y0194807D01*
X0274300Y0193208D02*
X0292522Y0193208D01*
X0292522Y0191610D02*
X0274300Y0191610D01*
X0274300Y0190011D02*
X0293116Y0190011D01*
X0293370Y0188412D02*
X0274300Y0188412D01*
X0274300Y0186814D02*
X0292122Y0186814D01*
X0292122Y0185215D02*
X0274300Y0185215D01*
X0274300Y0183617D02*
X0292122Y0183617D01*
X0292122Y0184101D02*
X0292122Y0181932D01*
X0292245Y0181475D01*
X0292482Y0181064D01*
X0292817Y0180729D01*
X0293227Y0180492D01*
X0293685Y0180369D01*
X0299496Y0180369D01*
X0299496Y0184101D01*
X0292122Y0184101D01*
X0292122Y0182018D02*
X0274300Y0182018D01*
X0274300Y0180420D02*
X0293496Y0180420D01*
X0293082Y0178821D02*
X0274300Y0178821D01*
X0274300Y0177223D02*
X0292522Y0177223D01*
X0292522Y0175624D02*
X0274300Y0175624D01*
X0274300Y0174026D02*
X0292522Y0174026D01*
X0292668Y0172427D02*
X0274300Y0172427D01*
X0274300Y0170829D02*
X0304496Y0170829D01*
X0304496Y0169230D02*
X0299156Y0169230D01*
X0299495Y0167632D02*
X0304496Y0167632D01*
X0304496Y0166033D02*
X0299495Y0166033D01*
X0299495Y0164435D02*
X0304496Y0164435D01*
X0304496Y0162836D02*
X0299495Y0162836D01*
X0299495Y0161238D02*
X0304496Y0161238D01*
X0304496Y0159639D02*
X0299495Y0159639D01*
X0299495Y0158041D02*
X0303415Y0158041D01*
X0306811Y0154648D02*
X0307576Y0155413D01*
X0308220Y0154769D01*
X0315380Y0154769D01*
X0316200Y0155589D01*
X0316200Y0161218D01*
X0318400Y0159018D01*
X0318400Y0131404D01*
X0316180Y0129184D01*
X0316180Y0132741D01*
X0315360Y0133561D01*
X0312050Y0133561D01*
X0311307Y0134305D01*
X0315360Y0134305D01*
X0316180Y0135125D01*
X0316180Y0140222D01*
X0315360Y0141042D01*
X0312050Y0141042D01*
X0310700Y0142392D01*
X0310700Y0146325D01*
X0310335Y0147207D01*
X0309659Y0147882D01*
X0306811Y0150731D01*
X0306811Y0154648D01*
X0307006Y0154844D02*
X0308146Y0154844D01*
X0306811Y0153245D02*
X0318400Y0153245D01*
X0318400Y0151647D02*
X0306811Y0151647D01*
X0307493Y0150048D02*
X0318400Y0150048D01*
X0318400Y0148450D02*
X0309092Y0148450D01*
X0310482Y0146851D02*
X0318400Y0146851D01*
X0318400Y0145253D02*
X0310700Y0145253D01*
X0310700Y0143654D02*
X0318400Y0143654D01*
X0318400Y0142056D02*
X0311036Y0142056D01*
X0315945Y0140457D02*
X0318400Y0140457D01*
X0318400Y0138859D02*
X0316180Y0138859D01*
X0316180Y0137260D02*
X0318400Y0137260D01*
X0318400Y0135662D02*
X0316180Y0135662D01*
X0318400Y0134063D02*
X0311548Y0134063D01*
X0307869Y0130955D02*
X0307869Y0127645D01*
X0308056Y0127457D01*
X0307524Y0126924D01*
X0307362Y0127204D01*
X0307027Y0127539D01*
X0306617Y0127776D01*
X0306159Y0127898D01*
X0304138Y0127898D01*
X0304138Y0124117D01*
X0307278Y0124117D01*
X0307278Y0123749D01*
X0304138Y0123749D01*
X0304138Y0124117D01*
X0303769Y0124117D01*
X0303769Y0123749D01*
X0300185Y0123749D01*
X0300185Y0121531D01*
X0300308Y0121073D01*
X0300545Y0120662D01*
X0300880Y0120327D01*
X0301290Y0120090D01*
X0301748Y0119968D01*
X0303769Y0119968D01*
X0303769Y0123749D01*
X0304138Y0123749D01*
X0304138Y0119968D01*
X0306159Y0119968D01*
X0306617Y0120090D01*
X0307027Y0120327D01*
X0307362Y0120662D01*
X0307524Y0120942D01*
X0308098Y0120368D01*
X0311400Y0120368D01*
X0311400Y0114555D01*
X0292814Y0114555D01*
X0292277Y0114778D01*
X0289873Y0114778D01*
X0289873Y0115025D01*
X0289053Y0115845D01*
X0284547Y0115845D01*
X0283727Y0115025D01*
X0283727Y0114778D01*
X0279873Y0114778D01*
X0279873Y0115025D01*
X0279375Y0115523D01*
X0279489Y0115799D01*
X0279489Y0116869D01*
X0279080Y0117857D01*
X0278500Y0118437D01*
X0278500Y0130804D01*
X0278740Y0130565D01*
X0281054Y0130565D01*
X0281054Y0127498D01*
X0280905Y0127498D01*
X0280085Y0126678D01*
X0280085Y0121188D01*
X0280905Y0120368D01*
X0286002Y0120368D01*
X0286576Y0120942D01*
X0286738Y0120662D01*
X0287073Y0120327D01*
X0287483Y0120090D01*
X0287941Y0119968D01*
X0289962Y0119968D01*
X0289962Y0123749D01*
X0286822Y0123749D01*
X0286822Y0124117D01*
X0289962Y0124117D01*
X0289962Y0123749D01*
X0290331Y0123749D01*
X0290331Y0124117D01*
X0293915Y0124117D01*
X0293915Y0126335D01*
X0293792Y0126793D01*
X0293774Y0126824D01*
X0294860Y0126824D01*
X0295680Y0127645D01*
X0295680Y0127793D01*
X0299762Y0127793D01*
X0300644Y0128158D01*
X0303050Y0130565D01*
X0305911Y0130565D01*
X0306731Y0131385D01*
X0306731Y0131533D01*
X0307290Y0131533D01*
X0307869Y0130955D01*
X0307869Y0130866D02*
X0306213Y0130866D01*
X0307869Y0129268D02*
X0301753Y0129268D01*
X0301748Y0127898D02*
X0301290Y0127776D01*
X0300880Y0127539D01*
X0300545Y0127204D01*
X0300308Y0126793D01*
X0300185Y0126335D01*
X0300185Y0124117D01*
X0303769Y0124117D01*
X0303769Y0127898D01*
X0301748Y0127898D01*
X0301105Y0127669D02*
X0295680Y0127669D01*
X0293915Y0126071D02*
X0300185Y0126071D01*
X0300185Y0124472D02*
X0293915Y0124472D01*
X0293915Y0123749D02*
X0290331Y0123749D01*
X0290331Y0119968D01*
X0292352Y0119968D01*
X0292810Y0120090D01*
X0293220Y0120327D01*
X0293555Y0120662D01*
X0293792Y0121073D01*
X0293915Y0121531D01*
X0293915Y0123749D01*
X0293915Y0122874D02*
X0300185Y0122874D01*
X0300254Y0121275D02*
X0293846Y0121275D01*
X0290331Y0121275D02*
X0289962Y0121275D01*
X0289962Y0122874D02*
X0290331Y0122874D01*
X0290331Y0124117D02*
X0289962Y0124117D01*
X0289962Y0126824D01*
X0290331Y0126824D01*
X0290331Y0124117D01*
X0290331Y0124472D02*
X0289962Y0124472D01*
X0289962Y0126071D02*
X0290331Y0126071D01*
X0281054Y0127669D02*
X0278500Y0127669D01*
X0278500Y0126071D02*
X0280085Y0126071D01*
X0280085Y0124472D02*
X0278500Y0124472D01*
X0278500Y0122874D02*
X0280085Y0122874D01*
X0280085Y0121275D02*
X0278500Y0121275D01*
X0278500Y0119677D02*
X0311400Y0119677D01*
X0311400Y0118078D02*
X0278859Y0118078D01*
X0279489Y0116479D02*
X0311400Y0116479D01*
X0311400Y0114881D02*
X0289873Y0114881D01*
X0283727Y0114881D02*
X0279873Y0114881D01*
X0279873Y0109978D02*
X0283727Y0109978D01*
X0283727Y0109731D01*
X0284525Y0108933D01*
X0283727Y0108135D01*
X0283727Y0102841D01*
X0284479Y0102089D01*
X0284479Y0097701D01*
X0284386Y0097663D01*
X0283149Y0096425D01*
X0282479Y0094808D01*
X0282479Y0093058D01*
X0282608Y0092745D01*
X0281436Y0091573D01*
X0281436Y0097513D01*
X0280616Y0098333D01*
X0279436Y0098333D01*
X0279436Y0102404D01*
X0279873Y0102841D01*
X0279873Y0108135D01*
X0279075Y0108933D01*
X0279873Y0109731D01*
X0279873Y0109978D01*
X0279521Y0108487D02*
X0284079Y0108487D01*
X0283727Y0106888D02*
X0279873Y0106888D01*
X0279873Y0105290D02*
X0283727Y0105290D01*
X0283727Y0103691D02*
X0279873Y0103691D01*
X0279436Y0102093D02*
X0284475Y0102093D01*
X0284479Y0100494D02*
X0279436Y0100494D01*
X0279436Y0098896D02*
X0284479Y0098896D01*
X0284020Y0097297D02*
X0281436Y0097297D01*
X0281436Y0095699D02*
X0282848Y0095699D01*
X0282479Y0094100D02*
X0281436Y0094100D01*
X0281436Y0092502D02*
X0282365Y0092502D01*
X0283976Y0089305D02*
X0289400Y0089305D01*
X0289400Y0087706D02*
X0272534Y0087706D01*
X0271988Y0089305D02*
X0270935Y0089305D01*
X0270389Y0090903D02*
X0269337Y0090903D01*
X0268800Y0092502D02*
X0270039Y0092502D01*
X0270039Y0094100D02*
X0268800Y0094100D01*
X0268800Y0095699D02*
X0270039Y0095699D01*
X0270039Y0097297D02*
X0268800Y0097297D01*
X0264000Y0094100D02*
X0260850Y0094100D01*
X0260850Y0092502D02*
X0264000Y0092502D01*
X0264000Y0090903D02*
X0260850Y0090903D01*
X0260850Y0089305D02*
X0264275Y0089305D01*
X0265746Y0087706D02*
X0260850Y0087706D01*
X0260850Y0086108D02*
X0267344Y0086108D01*
X0268943Y0084509D02*
X0260850Y0084509D01*
X0260850Y0082911D02*
X0270541Y0082911D01*
X0260850Y0081312D02*
X0331868Y0081312D01*
X0330269Y0079714D02*
X0260850Y0079714D01*
X0260850Y0078115D02*
X0329110Y0078115D01*
X0328447Y0076517D02*
X0260850Y0076517D01*
X0260850Y0074918D02*
X0328094Y0074918D01*
X0328094Y0073320D02*
X0260850Y0073320D01*
X0260850Y0071721D02*
X0328293Y0071721D01*
X0328956Y0070123D02*
X0260850Y0070123D01*
X0260850Y0068524D02*
X0329897Y0068524D01*
X0331496Y0066926D02*
X0260850Y0066926D01*
X0260850Y0065327D02*
X0334828Y0065327D01*
X0338772Y0065327D02*
X0344239Y0065327D01*
X0344339Y0066926D02*
X0342104Y0066926D01*
X0343703Y0068524D02*
X0343985Y0068524D01*
X0343566Y0063729D02*
X0260850Y0063729D01*
X0260850Y0062130D02*
X0341962Y0062130D01*
X0343331Y0079714D02*
X0344000Y0079714D01*
X0344000Y0081312D02*
X0341732Y0081312D01*
X0344000Y0082911D02*
X0303098Y0082911D01*
X0304697Y0084509D02*
X0344000Y0084509D01*
X0344000Y0086108D02*
X0306295Y0086108D01*
X0307894Y0087706D02*
X0344000Y0087706D01*
X0344000Y0089305D02*
X0308964Y0089305D01*
X0309757Y0090903D02*
X0344000Y0090903D01*
X0344000Y0092502D02*
X0310733Y0092502D01*
X0310964Y0094100D02*
X0344000Y0094100D01*
X0344000Y0095699D02*
X0310595Y0095699D01*
X0309422Y0097297D02*
X0325273Y0097297D01*
X0323200Y0098896D02*
X0294200Y0098896D01*
X0294200Y0100494D02*
X0321602Y0100494D01*
X0320003Y0102093D02*
X0294200Y0102093D01*
X0294200Y0103691D02*
X0318405Y0103691D01*
X0316806Y0105290D02*
X0294200Y0105290D01*
X0294200Y0106888D02*
X0315207Y0106888D01*
X0313609Y0108487D02*
X0294200Y0108487D01*
X0296921Y0098733D02*
X0296921Y0094133D01*
X0301521Y0094133D01*
X0301521Y0094311D01*
X0301403Y0095057D01*
X0301170Y0095776D01*
X0300827Y0096449D01*
X0300382Y0097060D01*
X0299848Y0097594D01*
X0299237Y0098038D01*
X0298564Y0098381D01*
X0297845Y0098615D01*
X0297099Y0098733D01*
X0296921Y0098733D01*
X0296921Y0097297D02*
X0296521Y0097297D01*
X0296521Y0095699D02*
X0296921Y0095699D01*
X0296921Y0094100D02*
X0302164Y0094100D01*
X0302394Y0092502D02*
X0301303Y0092502D01*
X0300453Y0090903D02*
X0303371Y0090903D01*
X0302704Y0089305D02*
X0298010Y0089305D01*
X0296921Y0089305D02*
X0296521Y0089305D01*
X0295433Y0089305D02*
X0294200Y0089305D01*
X0294200Y0087706D02*
X0301106Y0087706D01*
X0296921Y0090903D02*
X0296521Y0090903D01*
X0296521Y0092502D02*
X0296921Y0092502D01*
X0301195Y0095699D02*
X0302533Y0095699D01*
X0303706Y0097297D02*
X0300145Y0097297D01*
X0321148Y0118078D02*
X0336659Y0118078D01*
X0336765Y0118122D02*
X0335777Y0117713D01*
X0335020Y0116956D01*
X0334611Y0115968D01*
X0334611Y0115429D01*
X0334140Y0114958D01*
X0334140Y0108680D01*
X0334960Y0107860D01*
X0340451Y0107860D01*
X0341271Y0108680D01*
X0341271Y0114958D01*
X0340451Y0115778D01*
X0339989Y0115778D01*
X0339989Y0115968D01*
X0339580Y0116956D01*
X0338823Y0117713D01*
X0337835Y0118122D01*
X0336765Y0118122D01*
X0337941Y0118078D02*
X0344000Y0118078D01*
X0344000Y0116479D02*
X0339777Y0116479D01*
X0341271Y0114881D02*
X0344000Y0114881D01*
X0344000Y0113282D02*
X0341271Y0113282D01*
X0341271Y0111684D02*
X0344000Y0111684D01*
X0344000Y0110085D02*
X0341271Y0110085D01*
X0341078Y0108487D02*
X0344000Y0108487D01*
X0344000Y0106888D02*
X0337805Y0106888D01*
X0338515Y0105290D02*
X0344000Y0105290D01*
X0344000Y0103691D02*
X0338515Y0103691D01*
X0338515Y0102093D02*
X0344000Y0102093D01*
X0344000Y0100494D02*
X0338322Y0100494D01*
X0333707Y0098896D02*
X0344000Y0098896D01*
X0344000Y0097297D02*
X0331634Y0097297D01*
X0331112Y0106888D02*
X0332488Y0106888D01*
X0334333Y0108487D02*
X0329267Y0108487D01*
X0329460Y0110085D02*
X0334140Y0110085D01*
X0334140Y0111684D02*
X0329460Y0111684D01*
X0329460Y0113282D02*
X0334140Y0113282D01*
X0334140Y0114881D02*
X0329460Y0114881D01*
X0334823Y0116479D02*
X0322747Y0116479D01*
X0322543Y0119677D02*
X0341057Y0119677D01*
X0340636Y0121275D02*
X0322964Y0121275D01*
X0322964Y0122874D02*
X0340636Y0122874D01*
X0340636Y0124472D02*
X0322964Y0124472D01*
X0322964Y0126071D02*
X0340636Y0126071D01*
X0344000Y0127669D02*
X0321454Y0127669D01*
X0322925Y0129268D02*
X0344000Y0129268D01*
X0344000Y0130866D02*
X0323200Y0130866D01*
X0318400Y0132465D02*
X0316180Y0132465D01*
X0316180Y0130866D02*
X0317862Y0130866D01*
X0316264Y0129268D02*
X0316180Y0129268D01*
X0307869Y0127669D02*
X0306802Y0127669D01*
X0304138Y0127669D02*
X0303769Y0127669D01*
X0303769Y0126071D02*
X0304138Y0126071D01*
X0304138Y0124472D02*
X0303769Y0124472D01*
X0303769Y0122874D02*
X0304138Y0122874D01*
X0304138Y0121275D02*
X0303769Y0121275D01*
X0281054Y0129268D02*
X0278500Y0129268D01*
X0290536Y0142056D02*
X0291400Y0142056D01*
X0284733Y0143654D02*
X0275539Y0143654D01*
X0273940Y0145253D02*
X0284502Y0145253D01*
X0284502Y0146851D02*
X0273266Y0146851D01*
X0272752Y0148450D02*
X0284502Y0148450D01*
X0286374Y0150048D02*
X0271266Y0150048D01*
X0269668Y0151647D02*
X0287620Y0151647D01*
X0289218Y0153245D02*
X0269150Y0153245D01*
X0270953Y0154844D02*
X0274805Y0154844D01*
X0273736Y0156442D02*
X0272552Y0156442D01*
X0277468Y0156442D02*
X0278132Y0156442D01*
X0278132Y0154844D02*
X0277468Y0154844D01*
X0278132Y0154700D02*
X0280301Y0154700D01*
X0280759Y0154823D01*
X0281169Y0155060D01*
X0281504Y0155395D01*
X0281741Y0155805D01*
X0281864Y0156263D01*
X0281864Y0162074D01*
X0278132Y0162074D01*
X0278132Y0154700D01*
X0280795Y0154844D02*
X0290817Y0154844D01*
X0290480Y0155920D02*
X0290480Y0168891D01*
X0289659Y0169711D01*
X0283972Y0169711D01*
X0283152Y0168891D01*
X0283152Y0155920D01*
X0283972Y0155100D01*
X0289659Y0155100D01*
X0290480Y0155920D01*
X0290480Y0156442D02*
X0292168Y0156442D01*
X0292168Y0158041D02*
X0290480Y0158041D01*
X0290480Y0159639D02*
X0292168Y0159639D01*
X0292168Y0161238D02*
X0290480Y0161238D01*
X0290480Y0162836D02*
X0292168Y0162836D01*
X0292168Y0164435D02*
X0290480Y0164435D01*
X0290480Y0166033D02*
X0292168Y0166033D01*
X0292168Y0167632D02*
X0290480Y0167632D01*
X0290140Y0169230D02*
X0292507Y0169230D01*
X0283491Y0169230D02*
X0281611Y0169230D01*
X0281864Y0167632D02*
X0283152Y0167632D01*
X0283152Y0166033D02*
X0281864Y0166033D01*
X0281864Y0164435D02*
X0283152Y0164435D01*
X0283152Y0162836D02*
X0281864Y0162836D01*
X0281864Y0161238D02*
X0283152Y0161238D01*
X0283152Y0159639D02*
X0281864Y0159639D01*
X0281864Y0158041D02*
X0283152Y0158041D01*
X0283152Y0156442D02*
X0281864Y0156442D01*
X0278132Y0158041D02*
X0277468Y0158041D01*
X0277468Y0159639D02*
X0278132Y0159639D01*
X0278132Y0161238D02*
X0277468Y0161238D01*
X0277468Y0162836D02*
X0278132Y0162836D01*
X0278132Y0164435D02*
X0277468Y0164435D01*
X0277468Y0166033D02*
X0278132Y0166033D01*
X0278132Y0167632D02*
X0277468Y0167632D01*
X0277468Y0169230D02*
X0278132Y0169230D01*
X0299496Y0180420D02*
X0300159Y0180420D01*
X0300159Y0182018D02*
X0299496Y0182018D01*
X0299496Y0183617D02*
X0300159Y0183617D01*
X0300159Y0185215D02*
X0299496Y0185215D01*
X0299496Y0186814D02*
X0300159Y0186814D01*
X0300159Y0188412D02*
X0299496Y0188412D01*
X0307533Y0182018D02*
X0308742Y0182018D01*
X0307686Y0180420D02*
X0306159Y0180420D01*
X0306573Y0178821D02*
X0307400Y0178821D01*
X0307133Y0177223D02*
X0307713Y0177223D01*
X0308073Y0175624D02*
X0307133Y0175624D01*
X0315273Y0172427D02*
X0344000Y0172427D01*
X0344000Y0170829D02*
X0315810Y0170829D01*
X0316200Y0169230D02*
X0344000Y0169230D01*
X0344000Y0167632D02*
X0316574Y0167632D01*
X0318173Y0166033D02*
X0344000Y0166033D01*
X0344000Y0164435D02*
X0319771Y0164435D01*
X0321370Y0162836D02*
X0344000Y0162836D01*
X0344000Y0161238D02*
X0322890Y0161238D01*
X0323200Y0159639D02*
X0344000Y0159639D01*
X0344000Y0158041D02*
X0323200Y0158041D01*
X0323200Y0156442D02*
X0344000Y0156442D01*
X0344000Y0154844D02*
X0323200Y0154844D01*
X0323200Y0153245D02*
X0344000Y0153245D01*
X0344000Y0151647D02*
X0323200Y0151647D01*
X0323200Y0150048D02*
X0344000Y0150048D01*
X0344000Y0148450D02*
X0323200Y0148450D01*
X0323200Y0146851D02*
X0325192Y0146851D01*
X0325045Y0146704D02*
X0324808Y0146293D01*
X0324685Y0145835D01*
X0324685Y0143617D01*
X0328269Y0143617D01*
X0328269Y0147398D01*
X0326248Y0147398D01*
X0325790Y0147276D01*
X0325380Y0147039D01*
X0325045Y0146704D01*
X0324685Y0145253D02*
X0323200Y0145253D01*
X0323200Y0143654D02*
X0324685Y0143654D01*
X0324685Y0142056D02*
X0323200Y0142056D01*
X0323200Y0140457D02*
X0324875Y0140457D01*
X0328269Y0140457D02*
X0328638Y0140457D01*
X0328638Y0142056D02*
X0328269Y0142056D01*
X0328269Y0143654D02*
X0328638Y0143654D01*
X0328638Y0145253D02*
X0328269Y0145253D01*
X0328269Y0146851D02*
X0328638Y0146851D01*
X0331715Y0146851D02*
X0332451Y0146851D01*
X0337842Y0146851D02*
X0344000Y0146851D01*
X0344000Y0145253D02*
X0338515Y0145253D01*
X0338515Y0143654D02*
X0344000Y0143654D01*
X0344000Y0142056D02*
X0338928Y0142056D01*
X0339405Y0140457D02*
X0344000Y0140457D01*
X0344000Y0138859D02*
X0340598Y0138859D01*
X0341271Y0137260D02*
X0344000Y0137260D01*
X0344000Y0135662D02*
X0341271Y0135662D01*
X0341271Y0134063D02*
X0344000Y0134063D01*
X0344000Y0132465D02*
X0341271Y0132465D01*
X0334140Y0132465D02*
X0329460Y0132465D01*
X0329460Y0137260D02*
X0334140Y0137260D01*
X0334813Y0138859D02*
X0328787Y0138859D01*
X0318400Y0154844D02*
X0315454Y0154844D01*
X0316200Y0156442D02*
X0318400Y0156442D01*
X0318400Y0158041D02*
X0316200Y0158041D01*
X0316200Y0159639D02*
X0317778Y0159639D01*
X0315740Y0172895D02*
X0315740Y0172895D01*
X0316871Y0174026D02*
X0344000Y0174026D01*
X0344000Y0175624D02*
X0318470Y0175624D01*
X0318659Y0175814D02*
X0318659Y0175814D01*
X0319638Y0177223D02*
X0344000Y0177223D01*
X0344000Y0178821D02*
X0319700Y0178821D01*
X0319700Y0180420D02*
X0344000Y0180420D01*
X0344000Y0182018D02*
X0319700Y0182018D01*
X0319700Y0183617D02*
X0344000Y0183617D01*
X0344000Y0185215D02*
X0319700Y0185215D01*
X0319700Y0186814D02*
X0344000Y0186814D01*
X0344000Y0188412D02*
X0319700Y0188412D01*
X0319700Y0190011D02*
X0344000Y0190011D01*
X0344000Y0191610D02*
X0319700Y0191610D01*
X0319700Y0193208D02*
X0344000Y0193208D01*
X0344000Y0194807D02*
X0319700Y0194807D01*
X0319700Y0196405D02*
X0344000Y0196405D01*
X0344000Y0198004D02*
X0319765Y0198004D01*
X0321363Y0199602D02*
X0344000Y0199602D01*
X0310636Y0225333D02*
X0292251Y0225333D01*
X0292826Y0225908D01*
X0310636Y0243718D01*
X0310636Y0238589D01*
X0311456Y0237769D01*
X0341400Y0237769D01*
X0341400Y0235097D01*
X0311456Y0235097D01*
X0310636Y0234277D01*
X0310636Y0225333D01*
X0310636Y0226777D02*
X0293695Y0226777D01*
X0295293Y0228375D02*
X0310636Y0228375D01*
X0310636Y0229974D02*
X0296892Y0229974D01*
X0298490Y0231572D02*
X0310636Y0231572D01*
X0310636Y0233171D02*
X0300089Y0233171D01*
X0301687Y0234769D02*
X0311129Y0234769D01*
X0311259Y0237966D02*
X0304884Y0237966D01*
X0303286Y0236368D02*
X0341400Y0236368D01*
X0310636Y0239565D02*
X0306483Y0239565D01*
X0308081Y0241163D02*
X0310636Y0241163D01*
X0310636Y0242762D02*
X0309680Y0242762D01*
X0299570Y0250754D02*
X0271981Y0250754D01*
X0272080Y0250656D02*
X0271323Y0251413D01*
X0271012Y0251541D01*
X0290508Y0271037D01*
X0294742Y0271037D01*
X0295562Y0271857D01*
X0295562Y0274630D01*
X0301255Y0268937D01*
X0301930Y0268262D01*
X0302812Y0267897D01*
X0310636Y0267897D01*
X0310636Y0260333D01*
X0310527Y0260333D01*
X0308175Y0259359D01*
X0284749Y0235933D01*
X0256613Y0235933D01*
X0256889Y0236598D01*
X0256889Y0237668D01*
X0256480Y0238656D01*
X0256284Y0238852D01*
X0256553Y0238852D01*
X0256800Y0239099D01*
X0257047Y0238852D01*
X0261553Y0238852D01*
X0261800Y0239099D01*
X0262047Y0238852D01*
X0266553Y0238852D01*
X0266800Y0239099D01*
X0267047Y0238852D01*
X0271553Y0238852D01*
X0272373Y0239672D01*
X0272373Y0244966D01*
X0271553Y0245786D01*
X0271500Y0245786D01*
X0271500Y0247030D01*
X0272080Y0247610D01*
X0272489Y0248598D01*
X0272489Y0249668D01*
X0272080Y0250656D01*
X0272489Y0249156D02*
X0297972Y0249156D01*
X0296373Y0247557D02*
X0272027Y0247557D01*
X0271500Y0245959D02*
X0294775Y0245959D01*
X0293176Y0244360D02*
X0272373Y0244360D01*
X0272373Y0242762D02*
X0291578Y0242762D01*
X0289979Y0241163D02*
X0272373Y0241163D01*
X0272266Y0239565D02*
X0288381Y0239565D01*
X0286782Y0237966D02*
X0256765Y0237966D01*
X0256794Y0236368D02*
X0285184Y0236368D01*
X0269300Y0242319D02*
X0264300Y0242319D01*
X0259300Y0242319D02*
X0254300Y0242319D01*
X0251227Y0242762D02*
X0250833Y0242762D01*
X0251227Y0243156D02*
X0247304Y0239233D01*
X0245896Y0239233D01*
X0237903Y0239233D01*
X0237323Y0238653D01*
X0236335Y0238244D01*
X0235389Y0238244D01*
X0235389Y0237198D01*
X0234980Y0236210D01*
X0234703Y0235933D01*
X0251787Y0235933D01*
X0251511Y0236598D01*
X0251511Y0237668D01*
X0251920Y0238656D01*
X0252116Y0238852D01*
X0252047Y0238852D01*
X0251227Y0239672D01*
X0251227Y0243156D01*
X0251227Y0241163D02*
X0249234Y0241163D01*
X0247636Y0239565D02*
X0251334Y0239565D01*
X0251635Y0237966D02*
X0235389Y0237966D01*
X0235045Y0236368D02*
X0251606Y0236368D01*
X0245896Y0242633D02*
X0245683Y0242633D01*
X0245866Y0242816D01*
X0246103Y0243226D01*
X0246226Y0243684D01*
X0246226Y0245755D01*
X0242534Y0245755D01*
X0242534Y0246222D01*
X0246226Y0246222D01*
X0246226Y0248292D01*
X0246213Y0248342D01*
X0258377Y0260506D01*
X0261553Y0260506D01*
X0261800Y0260752D01*
X0262047Y0260506D01*
X0263768Y0260506D01*
X0245896Y0242633D01*
X0245812Y0242762D02*
X0246025Y0242762D01*
X0246226Y0244360D02*
X0247623Y0244360D01*
X0249222Y0245959D02*
X0242534Y0245959D01*
X0242533Y0245755D02*
X0242533Y0242633D01*
X0242067Y0242633D01*
X0242067Y0245755D01*
X0242533Y0245755D01*
X0242066Y0245755D02*
X0238626Y0245755D01*
X0239093Y0246222D01*
X0242066Y0246222D01*
X0242066Y0245755D01*
X0242066Y0245959D02*
X0238830Y0245959D01*
X0238374Y0245503D02*
X0238374Y0243684D01*
X0238497Y0243226D01*
X0238734Y0242816D01*
X0238917Y0242633D01*
X0237903Y0242633D01*
X0237323Y0243213D01*
X0236335Y0243622D01*
X0235265Y0243622D01*
X0234277Y0243213D01*
X0233520Y0242456D01*
X0233111Y0241468D01*
X0233111Y0240422D01*
X0232165Y0240422D01*
X0231177Y0240013D01*
X0230597Y0239433D01*
X0230200Y0239433D01*
X0230200Y0240327D01*
X0229380Y0241147D01*
X0219946Y0241147D01*
X0219905Y0241188D01*
X0219495Y0241425D01*
X0219037Y0241547D01*
X0218050Y0241547D01*
X0218050Y0237596D01*
X0218050Y0237596D01*
X0218050Y0241547D01*
X0217063Y0241547D01*
X0216605Y0241425D01*
X0216195Y0241188D01*
X0216154Y0241147D01*
X0212750Y0241147D01*
X0212750Y0243500D01*
X0212878Y0243809D01*
X0212878Y0244833D01*
X0237704Y0244833D01*
X0238374Y0245503D01*
X0238374Y0244360D02*
X0212878Y0244360D01*
X0212750Y0242762D02*
X0233826Y0242762D01*
X0233111Y0241163D02*
X0219929Y0241163D01*
X0218050Y0241163D02*
X0218050Y0241163D01*
X0218050Y0239565D02*
X0218050Y0239565D01*
X0218050Y0237966D02*
X0218050Y0237966D01*
X0218050Y0237596D02*
X0218050Y0233644D01*
X0219037Y0233644D01*
X0219495Y0233767D01*
X0219905Y0234004D01*
X0219946Y0234044D01*
X0225179Y0234044D01*
X0224293Y0233158D01*
X0218693Y0227558D01*
X0218607Y0227352D01*
X0217198Y0225942D01*
X0217198Y0225942D01*
X0215909Y0224653D01*
X0215909Y0224435D01*
X0214750Y0225594D01*
X0213461Y0226883D01*
X0213327Y0227017D01*
X0212846Y0228179D01*
X0206981Y0234044D01*
X0209380Y0234044D01*
X0210111Y0234044D01*
X0210111Y0233298D01*
X0210520Y0232310D01*
X0211277Y0231553D01*
X0212265Y0231144D01*
X0213335Y0231144D01*
X0214323Y0231553D01*
X0215080Y0232310D01*
X0215489Y0233298D01*
X0215489Y0234044D01*
X0216154Y0234044D01*
X0216195Y0234004D01*
X0216605Y0233767D01*
X0217063Y0233644D01*
X0218050Y0233644D01*
X0218050Y0237596D01*
X0218050Y0237596D01*
X0218050Y0236368D02*
X0218050Y0236368D01*
X0218050Y0234769D02*
X0218050Y0234769D01*
X0215436Y0233171D02*
X0224305Y0233171D01*
X0222707Y0231572D02*
X0214342Y0231572D01*
X0211258Y0231572D02*
X0209452Y0231572D01*
X0210164Y0233171D02*
X0207854Y0233171D01*
X0207300Y0229933D02*
X0212550Y0224683D01*
X0212550Y0223433D01*
X0212550Y0221933D01*
X0212925Y0221558D01*
X0212925Y0220058D01*
X0212420Y0219553D01*
X0213823Y0218151D01*
X0214768Y0218151D01*
X0215550Y0218933D01*
X0212925Y0221558D01*
X0210416Y0221558D01*
X0207420Y0224553D01*
X0207420Y0222358D01*
X0210607Y0219172D01*
X0211898Y0219172D01*
X0212718Y0218352D01*
X0212718Y0217061D01*
X0213823Y0215956D01*
X0213823Y0218151D01*
X0213823Y0223410D01*
X0212550Y0224683D01*
X0212550Y0223433D02*
X0215550Y0220433D01*
X0215550Y0221683D01*
X0213823Y0223410D01*
X0215166Y0225178D02*
X0216434Y0225178D01*
X0218109Y0223742D02*
X0223900Y0229533D01*
X0229719Y0229533D01*
X0224119Y0223933D02*
X0221619Y0221433D01*
X0218109Y0221433D01*
X0220109Y0219433D01*
X0220668Y0219433D01*
X0220668Y0221183D01*
X0218109Y0223742D01*
X0218109Y0221433D01*
X0218109Y0218933D01*
X0218609Y0219433D01*
X0220109Y0219433D01*
X0220668Y0219433D02*
X0220668Y0217933D01*
X0218109Y0217933D01*
X0218109Y0218933D01*
X0218109Y0217933D02*
X0218109Y0216787D01*
X0220668Y0214228D01*
X0220668Y0217933D01*
X0218109Y0215374D01*
X0218109Y0214228D01*
X0218109Y0216787D01*
X0218109Y0214228D02*
X0220668Y0214228D01*
X0220827Y0214387D01*
X0220827Y0220642D01*
X0221619Y0221433D01*
X0215550Y0220433D02*
X0215550Y0218933D01*
X0215550Y0214228D01*
X0215550Y0216424D01*
X0213823Y0218151D01*
X0212718Y0217061D02*
X0212718Y0214502D01*
X0212991Y0214228D01*
X0215550Y0214228D01*
X0213823Y0215956D01*
X0210432Y0214228D02*
X0207873Y0214228D01*
X0207873Y0214228D01*
X0210432Y0214228D01*
X0210432Y0214228D01*
X0207873Y0214228D01*
X0205314Y0214228D02*
X0205273Y0214228D01*
X0202755Y0214228D01*
X0199077Y0212390D02*
X0117964Y0212390D01*
X0117964Y0226777D02*
X0134905Y0226777D01*
X0133307Y0228375D02*
X0117964Y0228375D01*
X0117964Y0229974D02*
X0131708Y0229974D01*
X0130110Y0231572D02*
X0117964Y0231572D01*
X0117964Y0233171D02*
X0128511Y0233171D01*
X0126913Y0234769D02*
X0117471Y0234769D01*
X0117341Y0237966D02*
X0123716Y0237966D01*
X0125314Y0236368D02*
X0084600Y0236368D01*
X0084600Y0237966D02*
X0086259Y0237966D01*
X0085636Y0239565D02*
X0084600Y0239565D01*
X0084600Y0241163D02*
X0085636Y0241163D01*
X0085636Y0242762D02*
X0084600Y0242762D01*
X0084600Y0244360D02*
X0085636Y0244360D01*
X0085636Y0245959D02*
X0084600Y0245959D01*
X0084600Y0247557D02*
X0085636Y0247557D01*
X0085636Y0249156D02*
X0084600Y0249156D01*
X0084600Y0250754D02*
X0085636Y0250754D01*
X0085636Y0252353D02*
X0084600Y0252353D01*
X0084600Y0253951D02*
X0085636Y0253951D01*
X0085636Y0255550D02*
X0084600Y0255550D01*
X0084600Y0257148D02*
X0085636Y0257148D01*
X0085636Y0258747D02*
X0084600Y0258747D01*
X0084600Y0260345D02*
X0085636Y0260345D01*
X0085636Y0261944D02*
X0084600Y0261944D01*
X0084600Y0263543D02*
X0085636Y0263543D01*
X0085636Y0265141D02*
X0084600Y0265141D01*
X0084600Y0266740D02*
X0085636Y0266740D01*
X0085636Y0268338D02*
X0084600Y0268338D01*
X0084600Y0269937D02*
X0086296Y0269937D01*
X0084600Y0271535D02*
X0128727Y0271535D01*
X0128727Y0269937D02*
X0117304Y0269937D01*
X0117964Y0268338D02*
X0128727Y0268338D01*
X0131800Y0270488D02*
X0151845Y0270488D01*
X0152200Y0270133D01*
X0151800Y0270488D02*
X0164755Y0257533D01*
X0199000Y0257533D01*
X0200820Y0255550D02*
X0203850Y0255550D01*
X0203850Y0254687D02*
X0203850Y0257089D01*
X0203400Y0257539D01*
X0203400Y0263002D01*
X0203431Y0263033D01*
X0177296Y0263033D01*
X0155562Y0284767D01*
X0155562Y0281857D01*
X0154742Y0281037D01*
X0154000Y0281037D01*
X0154000Y0280845D01*
X0154053Y0280845D01*
X0154873Y0280025D01*
X0154873Y0274731D01*
X0154075Y0273933D01*
X0154873Y0273135D01*
X0154873Y0270526D01*
X0165666Y0259733D01*
X0197397Y0259733D01*
X0197477Y0259813D01*
X0198465Y0260222D01*
X0199535Y0260222D01*
X0200523Y0259813D01*
X0201280Y0259056D01*
X0201689Y0258068D01*
X0201689Y0256998D01*
X0201280Y0256010D01*
X0200523Y0255253D01*
X0199535Y0254844D01*
X0198465Y0254844D01*
X0197477Y0255253D01*
X0197397Y0255333D01*
X0196185Y0255333D01*
X0196226Y0255182D01*
X0196226Y0253111D01*
X0192534Y0253111D01*
X0192534Y0252644D01*
X0196226Y0252644D01*
X0196226Y0250574D01*
X0196103Y0250116D01*
X0195866Y0249706D01*
X0195531Y0249371D01*
X0195252Y0249209D01*
X0195826Y0248635D01*
X0195826Y0248133D01*
X0198062Y0248133D01*
X0197911Y0248498D01*
X0197911Y0249568D01*
X0198320Y0250556D01*
X0199077Y0251313D01*
X0200065Y0251722D01*
X0200885Y0251722D01*
X0203850Y0254687D01*
X0203114Y0253951D02*
X0196226Y0253951D01*
X0196226Y0252353D02*
X0201516Y0252353D01*
X0198519Y0250754D02*
X0196226Y0250754D01*
X0195305Y0249156D02*
X0197911Y0249156D01*
X0203289Y0249156D02*
X0237219Y0249156D01*
X0237800Y0249737D02*
X0236296Y0248233D01*
X0208296Y0248233D01*
X0207300Y0247237D01*
X0206300Y0246237D01*
X0206300Y0244554D01*
X0206135Y0244622D01*
X0205667Y0244622D01*
X0205989Y0245398D01*
X0205989Y0246468D01*
X0205580Y0247456D01*
X0204823Y0248213D01*
X0203835Y0248622D01*
X0203289Y0248622D01*
X0203289Y0249318D01*
X0207250Y0253279D01*
X0207250Y0256719D01*
X0213654Y0256719D01*
X0213695Y0256679D01*
X0214105Y0256442D01*
X0214452Y0256349D01*
X0214211Y0255768D01*
X0214211Y0254698D01*
X0214620Y0253710D01*
X0215377Y0252953D01*
X0216211Y0252608D01*
X0218575Y0250244D01*
X0238307Y0250244D01*
X0237800Y0249737D01*
X0241866Y0252444D02*
X0219486Y0252444D01*
X0216900Y0255030D01*
X0216900Y0255233D01*
X0218050Y0256383D01*
X0218050Y0260270D01*
X0215550Y0260270D02*
X0215550Y0257584D01*
X0215550Y0260270D01*
X0215550Y0260270D01*
X0215550Y0257889D01*
X0214380Y0256719D01*
X0213086Y0256719D01*
X0212300Y0255933D01*
X0214211Y0255550D02*
X0207250Y0255550D01*
X0207250Y0253951D02*
X0214520Y0253951D01*
X0216466Y0252353D02*
X0206324Y0252353D01*
X0204726Y0250754D02*
X0218065Y0250754D01*
X0225601Y0254644D02*
X0225715Y0254919D01*
X0230125Y0254919D01*
X0231490Y0256283D01*
X0232661Y0257455D01*
X0232661Y0266614D01*
X0240100Y0259175D01*
X0240100Y0256345D01*
X0239594Y0256345D01*
X0238774Y0255525D01*
X0238774Y0254644D01*
X0225601Y0254644D01*
X0223100Y0255633D02*
X0223050Y0255683D01*
X0223050Y0260270D01*
X0220550Y0260270D01*
X0219547Y0264521D02*
X0223208Y0264521D01*
X0223700Y0264029D01*
X0223700Y0263822D01*
X0217446Y0263822D01*
X0217405Y0263862D01*
X0216995Y0264099D01*
X0216537Y0264222D01*
X0215550Y0264222D01*
X0215550Y0260271D01*
X0215550Y0264222D01*
X0214563Y0264222D01*
X0214105Y0264099D01*
X0213695Y0263862D01*
X0213685Y0263852D01*
X0213016Y0264521D01*
X0214053Y0264521D01*
X0214300Y0264768D01*
X0214547Y0264521D01*
X0219053Y0264521D01*
X0219300Y0264768D01*
X0219547Y0264521D01*
X0215550Y0263543D02*
X0215550Y0263543D01*
X0215550Y0261944D02*
X0215550Y0261944D01*
X0215550Y0260345D02*
X0215550Y0260345D01*
X0215550Y0260271D02*
X0215550Y0260271D01*
X0215550Y0258747D02*
X0215550Y0258747D01*
X0215550Y0257584D02*
X0215550Y0257584D01*
X0216800Y0267988D02*
X0221800Y0267988D01*
X0225802Y0271535D02*
X0227025Y0271535D01*
X0227025Y0270312D02*
X0225300Y0272037D01*
X0225165Y0272172D01*
X0225273Y0272574D01*
X0225273Y0274841D01*
X0221837Y0274841D01*
X0221837Y0274915D01*
X0221837Y0278687D01*
X0221271Y0279253D01*
X0221271Y0279344D01*
X0221200Y0279344D01*
X0221200Y0278745D01*
X0221763Y0278745D01*
X0221763Y0274915D01*
X0221837Y0274915D01*
X0225273Y0274915D01*
X0225273Y0275251D01*
X0225444Y0275080D01*
X0229264Y0275080D01*
X0229268Y0275076D01*
X0229008Y0275076D01*
X0228197Y0274265D01*
X0228197Y0274265D01*
X0227025Y0273093D01*
X0227025Y0270312D01*
X0227066Y0273134D02*
X0225273Y0273134D01*
X0225273Y0274732D02*
X0228664Y0274732D01*
X0226356Y0277280D02*
X0231800Y0277280D01*
X0234775Y0277929D02*
X0244544Y0277929D01*
X0244518Y0278027D02*
X0244640Y0277569D01*
X0244864Y0277181D01*
X0244848Y0277164D01*
X0244611Y0276754D01*
X0244488Y0276296D01*
X0244488Y0274738D01*
X0244151Y0275076D01*
X0234332Y0275076D01*
X0234775Y0275519D01*
X0234775Y0279041D01*
X0234378Y0279438D01*
X0234579Y0279639D01*
X0234816Y0280049D01*
X0234939Y0280507D01*
X0234939Y0283119D01*
X0229780Y0283119D01*
X0229780Y0284669D01*
X0229780Y0288393D01*
X0228768Y0288393D01*
X0228310Y0288516D01*
X0228230Y0288562D01*
X0228230Y0284669D01*
X0229780Y0284669D01*
X0234939Y0284669D01*
X0234939Y0287280D01*
X0234816Y0287738D01*
X0234579Y0288149D01*
X0234335Y0288393D01*
X0236328Y0288393D01*
X0236786Y0288516D01*
X0237197Y0288753D01*
X0237532Y0289088D01*
X0237769Y0289498D01*
X0237891Y0289956D01*
X0237891Y0293133D01*
X0233348Y0293133D01*
X0233348Y0288843D01*
X0231748Y0288843D01*
X0231748Y0293133D01*
X0233348Y0293133D01*
X0233348Y0294733D01*
X0237891Y0294733D01*
X0237891Y0297910D01*
X0237769Y0298368D01*
X0237532Y0298778D01*
X0237197Y0299114D01*
X0236786Y0299351D01*
X0236328Y0299473D01*
X0233348Y0299473D01*
X0233348Y0294733D01*
X0231748Y0294733D01*
X0231748Y0293133D01*
X0227205Y0293133D01*
X0227205Y0289956D01*
X0227327Y0289498D01*
X0227564Y0289088D01*
X0227809Y0288843D01*
X0226461Y0288843D01*
X0226705Y0289088D01*
X0226942Y0289498D01*
X0227065Y0289956D01*
X0227065Y0293133D01*
X0222324Y0293133D01*
X0222324Y0294733D01*
X0220724Y0294733D01*
X0220724Y0299473D01*
X0217547Y0299473D01*
X0217089Y0299351D01*
X0216800Y0299183D01*
X0216511Y0299351D01*
X0216053Y0299473D01*
X0212876Y0299473D01*
X0212876Y0294733D01*
X0211276Y0294733D01*
X0211276Y0299473D01*
X0208098Y0299473D01*
X0207641Y0299351D01*
X0207230Y0299114D01*
X0206895Y0298778D01*
X0206658Y0298368D01*
X0206535Y0297910D01*
X0206535Y0294733D01*
X0211276Y0294733D01*
X0211276Y0293133D01*
X0206535Y0293133D01*
X0206535Y0289956D01*
X0206658Y0289498D01*
X0206895Y0289088D01*
X0207139Y0288843D01*
X0205791Y0288843D01*
X0206036Y0289088D01*
X0206273Y0289498D01*
X0206395Y0289956D01*
X0206395Y0293133D01*
X0201852Y0293133D01*
X0201852Y0288843D01*
X0200252Y0288843D01*
X0200252Y0293133D01*
X0201852Y0293133D01*
X0201852Y0294733D01*
X0206395Y0294733D01*
X0206395Y0297910D01*
X0206273Y0298368D01*
X0206036Y0298778D01*
X0205700Y0299114D01*
X0205290Y0299351D01*
X0204832Y0299473D01*
X0201852Y0299473D01*
X0201852Y0294733D01*
X0200252Y0294733D01*
X0200252Y0293133D01*
X0195709Y0293133D01*
X0195709Y0289956D01*
X0195831Y0289498D01*
X0196068Y0289088D01*
X0196403Y0288753D01*
X0196814Y0288516D01*
X0197272Y0288393D01*
X0199265Y0288393D01*
X0199021Y0288149D01*
X0198784Y0287738D01*
X0198661Y0287280D01*
X0198661Y0284669D01*
X0198661Y0285922D02*
X0177489Y0285922D01*
X0176516Y0287520D02*
X0198726Y0287520D01*
X0200252Y0289119D02*
X0201852Y0289119D01*
X0201852Y0290717D02*
X0200252Y0290717D01*
X0200252Y0292316D02*
X0201852Y0292316D01*
X0201852Y0293914D02*
X0211276Y0293914D01*
X0211682Y0293539D02*
X0212076Y0293933D01*
X0212300Y0293933D01*
X0221524Y0293933D01*
X0222324Y0293914D02*
X0231748Y0293914D01*
X0231748Y0294733D02*
X0227205Y0294733D01*
X0227205Y0297910D01*
X0227327Y0298368D01*
X0227564Y0298778D01*
X0227899Y0299114D01*
X0228310Y0299351D01*
X0228768Y0299473D01*
X0231748Y0299473D01*
X0231748Y0294733D01*
X0231748Y0295513D02*
X0233348Y0295513D01*
X0233348Y0297111D02*
X0231748Y0297111D01*
X0231748Y0298710D02*
X0233348Y0298710D01*
X0237571Y0298710D02*
X0244918Y0298710D01*
X0244918Y0300182D02*
X0244918Y0294022D01*
X0245738Y0293202D01*
X0249398Y0293202D01*
X0250218Y0294022D01*
X0250218Y0300182D01*
X0249398Y0301002D01*
X0245738Y0301002D01*
X0244918Y0300182D01*
X0245044Y0300308D02*
X0188556Y0300308D01*
X0188682Y0300182D02*
X0187862Y0301002D01*
X0184202Y0301002D01*
X0183382Y0300182D01*
X0183382Y0294022D01*
X0184202Y0293202D01*
X0187862Y0293202D01*
X0188682Y0294022D01*
X0188682Y0300182D01*
X0188682Y0298710D02*
X0196029Y0298710D01*
X0196068Y0298778D02*
X0195831Y0298368D01*
X0195709Y0297910D01*
X0195709Y0294733D01*
X0200252Y0294733D01*
X0200252Y0299473D01*
X0197272Y0299473D01*
X0196814Y0299351D01*
X0196403Y0299114D01*
X0196068Y0298778D01*
X0195709Y0297111D02*
X0188682Y0297111D01*
X0188682Y0295513D02*
X0195709Y0295513D01*
X0195709Y0292316D02*
X0155562Y0292316D01*
X0155562Y0293914D02*
X0175026Y0293914D01*
X0174918Y0294022D02*
X0175738Y0293202D01*
X0179398Y0293202D01*
X0180218Y0294022D01*
X0180218Y0300182D01*
X0179398Y0301002D01*
X0175738Y0301002D01*
X0174918Y0300182D01*
X0174918Y0294022D01*
X0174918Y0295513D02*
X0155562Y0295513D01*
X0156820Y0290717D02*
X0169419Y0290717D01*
X0168727Y0289119D02*
X0158419Y0289119D01*
X0160017Y0287520D02*
X0168727Y0287520D01*
X0168727Y0285922D02*
X0161616Y0285922D01*
X0163214Y0284323D02*
X0169135Y0284323D01*
X0168727Y0282725D02*
X0164813Y0282725D01*
X0166411Y0281126D02*
X0168727Y0281126D01*
X0168727Y0279528D02*
X0168010Y0279528D01*
X0163998Y0276331D02*
X0154873Y0276331D01*
X0154873Y0277929D02*
X0162400Y0277929D01*
X0160801Y0279528D02*
X0154873Y0279528D01*
X0154831Y0281126D02*
X0159203Y0281126D01*
X0157604Y0282725D02*
X0155562Y0282725D01*
X0155562Y0284323D02*
X0156006Y0284323D01*
X0151800Y0284799D02*
X0151800Y0277378D01*
X0148727Y0277929D02*
X0134873Y0277929D01*
X0134873Y0276331D02*
X0148727Y0276331D01*
X0148727Y0274732D02*
X0134873Y0274732D01*
X0134873Y0274731D02*
X0134873Y0280025D01*
X0134053Y0280845D01*
X0134000Y0280845D01*
X0134000Y0281037D01*
X0134742Y0281037D01*
X0135562Y0281857D01*
X0135562Y0287633D01*
X0148038Y0287633D01*
X0148038Y0281857D01*
X0148858Y0281037D01*
X0149600Y0281037D01*
X0149600Y0280845D01*
X0149547Y0280845D01*
X0148727Y0280025D01*
X0148727Y0274731D01*
X0149525Y0273933D01*
X0148727Y0273135D01*
X0148727Y0272688D01*
X0134873Y0272688D01*
X0134873Y0273135D01*
X0134075Y0273933D01*
X0134873Y0274731D01*
X0134873Y0273134D02*
X0148727Y0273134D01*
X0154873Y0273134D02*
X0167195Y0273134D01*
X0165597Y0274732D02*
X0154873Y0274732D01*
X0154873Y0271535D02*
X0168794Y0271535D01*
X0170392Y0269937D02*
X0155463Y0269937D01*
X0157061Y0268338D02*
X0171991Y0268338D01*
X0173589Y0266740D02*
X0158660Y0266740D01*
X0160258Y0265141D02*
X0175188Y0265141D01*
X0176786Y0263543D02*
X0161857Y0263543D01*
X0163455Y0261944D02*
X0203400Y0261944D01*
X0203400Y0260345D02*
X0165054Y0260345D01*
X0162028Y0257148D02*
X0160773Y0257148D01*
X0160779Y0257145D02*
X0160369Y0257382D01*
X0159911Y0257505D01*
X0152181Y0257505D01*
X0152181Y0253724D01*
X0151419Y0253724D01*
X0151419Y0257505D01*
X0143689Y0257505D01*
X0143231Y0257382D01*
X0142821Y0257145D01*
X0142486Y0256810D01*
X0142249Y0256399D01*
X0142126Y0255942D01*
X0142126Y0253724D01*
X0151419Y0253724D01*
X0151419Y0252961D01*
X0152181Y0252961D01*
X0152181Y0249180D01*
X0159911Y0249180D01*
X0160369Y0249303D01*
X0160779Y0249540D01*
X0161114Y0249875D01*
X0161351Y0250286D01*
X0161474Y0250743D01*
X0161474Y0252961D01*
X0152181Y0252961D01*
X0152181Y0253724D01*
X0161474Y0253724D01*
X0161474Y0255942D01*
X0161351Y0256399D01*
X0161114Y0256810D01*
X0160779Y0257145D01*
X0160430Y0258747D02*
X0121037Y0258747D01*
X0122636Y0257148D02*
X0142827Y0257148D01*
X0142126Y0255550D02*
X0124234Y0255550D01*
X0125833Y0253951D02*
X0142126Y0253951D01*
X0142126Y0252961D02*
X0142126Y0250743D01*
X0142249Y0250286D01*
X0142486Y0249875D01*
X0142821Y0249540D01*
X0143231Y0249303D01*
X0143689Y0249180D01*
X0151419Y0249180D01*
X0151419Y0252961D01*
X0142126Y0252961D01*
X0142126Y0252353D02*
X0127431Y0252353D01*
X0129030Y0250754D02*
X0142126Y0250754D01*
X0135424Y0244360D02*
X0188774Y0244360D01*
X0188774Y0245959D02*
X0133825Y0245959D01*
X0132227Y0247557D02*
X0188774Y0247557D01*
X0189295Y0249156D02*
X0130628Y0249156D01*
X0137022Y0242762D02*
X0189353Y0242762D01*
X0190100Y0241163D02*
X0138621Y0241163D01*
X0140219Y0239565D02*
X0190100Y0239565D01*
X0190100Y0237966D02*
X0141818Y0237966D01*
X0143416Y0236368D02*
X0191243Y0236368D01*
X0192300Y0238422D02*
X0192300Y0245988D01*
X0192355Y0245933D01*
X0203300Y0245933D01*
X0205989Y0245959D02*
X0206300Y0245959D01*
X0205478Y0247557D02*
X0207620Y0247557D01*
X0210189Y0244344D02*
X0210550Y0243983D01*
X0210550Y0237596D01*
X0212750Y0241163D02*
X0216171Y0241163D01*
X0221108Y0229974D02*
X0211051Y0229974D01*
X0212649Y0228375D02*
X0219510Y0228375D01*
X0218032Y0226777D02*
X0213568Y0226777D01*
X0210416Y0221558D02*
X0212420Y0219553D01*
X0210607Y0219172D02*
X0208048Y0219172D01*
X0207420Y0219799D01*
X0207420Y0222358D01*
X0223227Y0214228D02*
X0225786Y0214228D01*
X0223227Y0214228D01*
X0223227Y0214228D01*
X0225786Y0214228D02*
X0225786Y0214228D01*
X0228345Y0214228D02*
X0230904Y0214228D01*
X0217126Y0198004D02*
X0200168Y0198004D01*
X0201830Y0196405D02*
X0205992Y0196405D01*
X0204394Y0194807D02*
X0203428Y0194807D01*
X0200410Y0185215D02*
X0160838Y0185215D01*
X0159240Y0183617D02*
X0200410Y0183617D01*
X0200410Y0182018D02*
X0159685Y0182018D01*
X0158115Y0182018D02*
X0157641Y0182018D01*
X0156398Y0180420D02*
X0156043Y0180420D01*
X0156243Y0178821D02*
X0154444Y0178821D01*
X0152846Y0177223D02*
X0157307Y0177223D01*
X0160493Y0177223D02*
X0175806Y0177223D01*
X0177417Y0180420D02*
X0200410Y0180420D01*
X0200985Y0178821D02*
X0179016Y0178821D01*
X0180614Y0177223D02*
X0204784Y0177223D01*
X0203259Y0175624D02*
X0182213Y0175624D01*
X0183811Y0174026D02*
X0203182Y0174026D01*
X0209711Y0164435D02*
X0193402Y0164435D01*
X0189128Y0169230D02*
X0188607Y0169230D01*
X0189128Y0170829D02*
X0187008Y0170829D01*
X0185410Y0172427D02*
X0189128Y0172427D01*
X0174897Y0167632D02*
X0143254Y0167632D01*
X0141656Y0166033D02*
X0175078Y0166033D01*
X0175014Y0164435D02*
X0140057Y0164435D01*
X0138459Y0162836D02*
X0175014Y0162836D01*
X0175043Y0161238D02*
X0136860Y0161238D01*
X0135262Y0159639D02*
X0155602Y0159639D01*
X0154004Y0158041D02*
X0133663Y0158041D01*
X0132065Y0156442D02*
X0152405Y0156442D01*
X0150807Y0154844D02*
X0131800Y0154844D01*
X0131800Y0146851D02*
X0134951Y0146851D01*
X0134235Y0145253D02*
X0131800Y0145253D01*
X0131800Y0143654D02*
X0134235Y0143654D01*
X0134235Y0142056D02*
X0131800Y0142056D01*
X0131800Y0140457D02*
X0134800Y0140457D01*
X0134235Y0138859D02*
X0131800Y0138859D01*
X0131800Y0137260D02*
X0134235Y0137260D01*
X0134235Y0135662D02*
X0131800Y0135662D01*
X0131800Y0134063D02*
X0134403Y0134063D01*
X0133881Y0132465D02*
X0131800Y0132465D01*
X0131800Y0130866D02*
X0133835Y0130866D01*
X0133835Y0129902D02*
X0133835Y0127881D01*
X0133957Y0127423D01*
X0134194Y0127013D01*
X0134529Y0126678D01*
X0134940Y0126441D01*
X0135398Y0126318D01*
X0137616Y0126318D01*
X0137616Y0129902D01*
X0133835Y0129902D01*
X0133835Y0129268D02*
X0132473Y0129268D01*
X0132964Y0127669D02*
X0133891Y0127669D01*
X0132964Y0126071D02*
X0139600Y0126071D01*
X0139600Y0124472D02*
X0132964Y0124472D01*
X0132964Y0122874D02*
X0139600Y0122874D01*
X0138739Y0121275D02*
X0132964Y0121275D01*
X0132964Y0119677D02*
X0138311Y0119677D01*
X0138852Y0118078D02*
X0132964Y0118078D01*
X0137616Y0127669D02*
X0137984Y0127669D01*
X0137984Y0129268D02*
X0137616Y0129268D01*
X0143000Y0129268D02*
X0144561Y0129268D01*
X0144300Y0130866D02*
X0143000Y0130866D01*
X0143000Y0132465D02*
X0144300Y0132465D01*
X0144526Y0134063D02*
X0143000Y0134063D01*
X0143000Y0135662D02*
X0146124Y0135662D01*
X0147723Y0137260D02*
X0143000Y0137260D01*
X0143330Y0138859D02*
X0149321Y0138859D01*
X0150920Y0140457D02*
X0144928Y0140457D01*
X0146527Y0142056D02*
X0152518Y0142056D01*
X0154117Y0143654D02*
X0148125Y0143654D01*
X0149724Y0145253D02*
X0155715Y0145253D01*
X0157314Y0146851D02*
X0151322Y0146851D01*
X0152921Y0148450D02*
X0158912Y0148450D01*
X0160511Y0150048D02*
X0154519Y0150048D01*
X0156118Y0151647D02*
X0161300Y0151647D01*
X0161300Y0153245D02*
X0157716Y0153245D01*
X0160417Y0154844D02*
X0161300Y0154844D01*
X0166889Y0154844D02*
X0175014Y0154844D01*
X0175014Y0156442D02*
X0166889Y0156442D01*
X0166889Y0158041D02*
X0175014Y0158041D01*
X0175014Y0159639D02*
X0166194Y0159639D01*
X0166889Y0153245D02*
X0175014Y0153245D01*
X0175014Y0151647D02*
X0166889Y0151647D01*
X0168089Y0150048D02*
X0175014Y0150048D01*
X0175014Y0148450D02*
X0169688Y0148450D01*
X0171286Y0146851D02*
X0175014Y0146851D01*
X0175014Y0145253D02*
X0172885Y0145253D01*
X0183571Y0146118D02*
X0183720Y0146267D01*
X0183720Y0146633D01*
X0186097Y0146633D01*
X0186677Y0146053D01*
X0187665Y0145644D01*
X0188735Y0145644D01*
X0188900Y0145713D01*
X0188900Y0126237D01*
X0188096Y0125433D01*
X0183720Y0125433D01*
X0183720Y0125970D01*
X0183571Y0126118D01*
X0183720Y0126267D01*
X0183720Y0130970D01*
X0183571Y0131118D01*
X0183720Y0131267D01*
X0183720Y0135970D01*
X0183571Y0136118D01*
X0183720Y0136267D01*
X0183720Y0140970D01*
X0183571Y0141118D01*
X0183720Y0141267D01*
X0183720Y0142049D01*
X0184500Y0142829D01*
X0184500Y0144237D01*
X0183720Y0145018D01*
X0183720Y0145970D01*
X0183571Y0146118D01*
X0183720Y0145253D02*
X0188900Y0145253D01*
X0188900Y0143654D02*
X0184500Y0143654D01*
X0183727Y0142056D02*
X0188900Y0142056D01*
X0188900Y0140457D02*
X0183720Y0140457D01*
X0183720Y0138859D02*
X0188900Y0138859D01*
X0188900Y0137260D02*
X0183720Y0137260D01*
X0183720Y0135662D02*
X0188900Y0135662D01*
X0188900Y0134063D02*
X0183720Y0134063D01*
X0183720Y0132465D02*
X0188900Y0132465D01*
X0188900Y0130866D02*
X0183720Y0130866D01*
X0183720Y0129268D02*
X0188900Y0129268D01*
X0188900Y0127669D02*
X0183720Y0127669D01*
X0183619Y0126071D02*
X0188733Y0126071D01*
X0192300Y0129268D02*
X0195600Y0129268D01*
X0195600Y0130866D02*
X0192300Y0130866D01*
X0192300Y0132465D02*
X0195600Y0132465D01*
X0195600Y0134063D02*
X0192300Y0134063D01*
X0192300Y0135662D02*
X0195600Y0135662D01*
X0195600Y0137260D02*
X0192300Y0137260D01*
X0192300Y0138859D02*
X0195600Y0138859D01*
X0195600Y0140457D02*
X0192300Y0140457D01*
X0192300Y0142056D02*
X0195600Y0142056D01*
X0195600Y0143654D02*
X0192300Y0143654D01*
X0192300Y0145253D02*
X0195600Y0145253D01*
X0195600Y0146851D02*
X0192300Y0146851D01*
X0192300Y0148450D02*
X0195600Y0148450D01*
X0195600Y0150048D02*
X0192300Y0150048D01*
X0192300Y0151647D02*
X0195600Y0151647D01*
X0195600Y0153245D02*
X0192300Y0153245D01*
X0192300Y0154844D02*
X0193076Y0154844D01*
X0213112Y0156442D02*
X0216488Y0156442D01*
X0220923Y0148450D02*
X0228314Y0148450D01*
X0227511Y0146851D02*
X0219078Y0146851D01*
X0217232Y0145253D02*
X0227820Y0145253D01*
X0234188Y0164435D02*
X0215089Y0164435D01*
X0214825Y0177544D02*
X0214889Y0177698D01*
X0214889Y0178176D01*
X0215491Y0178176D01*
X0216614Y0178176D01*
X0217072Y0178299D01*
X0217426Y0178503D01*
X0217496Y0178433D01*
X0218385Y0177544D01*
X0214825Y0177544D01*
X0215491Y0178176D02*
X0215491Y0183520D01*
X0215491Y0178176D01*
X0215491Y0178821D02*
X0215491Y0178821D01*
X0215491Y0180420D02*
X0215491Y0180420D01*
X0215491Y0182018D02*
X0215491Y0182018D01*
X0215491Y0183520D02*
X0215491Y0183520D01*
X0220336Y0183793D02*
X0220336Y0187643D01*
X0219622Y0188357D01*
X0219622Y0188933D01*
X0220336Y0183793D02*
X0220609Y0183520D01*
X0233172Y0186814D02*
X0233363Y0186814D01*
X0235437Y0186814D02*
X0241987Y0186814D01*
X0241047Y0185215D02*
X0236945Y0185215D01*
X0237014Y0183617D02*
X0241047Y0183617D01*
X0241047Y0182018D02*
X0236100Y0182018D01*
X0236100Y0180420D02*
X0241047Y0180420D01*
X0241447Y0174026D02*
X0239920Y0174026D01*
X0240872Y0172427D02*
X0241447Y0172427D01*
X0255441Y0188412D02*
X0256104Y0188412D01*
X0290067Y0199602D02*
X0292541Y0199602D01*
X0292168Y0201201D02*
X0290480Y0201201D01*
X0290480Y0202799D02*
X0292168Y0202799D01*
X0242533Y0242762D02*
X0242067Y0242762D01*
X0242067Y0244360D02*
X0242533Y0244360D01*
X0242533Y0246222D02*
X0242533Y0247333D01*
X0242067Y0247333D01*
X0242067Y0246222D01*
X0242533Y0246222D01*
X0246226Y0247557D02*
X0250820Y0247557D01*
X0252419Y0249156D02*
X0247027Y0249156D01*
X0248626Y0250754D02*
X0254017Y0250754D01*
X0255616Y0252353D02*
X0250224Y0252353D01*
X0251823Y0253951D02*
X0257214Y0253951D01*
X0258813Y0255550D02*
X0253421Y0255550D01*
X0255020Y0257148D02*
X0260411Y0257148D01*
X0262010Y0258747D02*
X0256618Y0258747D01*
X0258217Y0260345D02*
X0263608Y0260345D01*
X0253568Y0260506D02*
X0245826Y0252763D01*
X0245826Y0255525D01*
X0245006Y0256345D01*
X0244500Y0256345D01*
X0244500Y0260998D01*
X0243211Y0262287D01*
X0234775Y0270723D01*
X0234775Y0271076D01*
X0242494Y0271076D01*
X0243791Y0269779D01*
X0243791Y0269779D01*
X0244963Y0268607D01*
X0251640Y0268607D01*
X0251227Y0268194D01*
X0251227Y0261326D01*
X0252047Y0260506D01*
X0253568Y0260506D01*
X0253408Y0260345D02*
X0244500Y0260345D01*
X0244500Y0258747D02*
X0251810Y0258747D01*
X0250211Y0257148D02*
X0244500Y0257148D01*
X0245801Y0255550D02*
X0248613Y0255550D01*
X0247014Y0253951D02*
X0245826Y0253951D01*
X0242300Y0252878D02*
X0241866Y0252444D01*
X0242300Y0252878D02*
X0242300Y0260087D01*
X0231800Y0270587D01*
X0235561Y0269937D02*
X0243633Y0269937D01*
X0245527Y0273700D02*
X0245060Y0274167D01*
X0248122Y0274167D01*
X0248122Y0273700D01*
X0245527Y0273700D01*
X0244497Y0276331D02*
X0234775Y0276331D01*
X0234468Y0279528D02*
X0244518Y0279528D01*
X0244518Y0280764D02*
X0244518Y0278027D01*
X0244518Y0280764D02*
X0247568Y0280764D01*
X0247568Y0285064D01*
X0246081Y0285064D01*
X0245623Y0284941D01*
X0245212Y0284704D01*
X0244877Y0284369D01*
X0244518Y0282725D02*
X0234939Y0282725D01*
X0234939Y0281126D02*
X0244518Y0281126D01*
X0247568Y0281126D02*
X0247568Y0281126D01*
X0247568Y0280764D02*
X0247568Y0280764D01*
X0247568Y0282725D02*
X0247568Y0282725D01*
X0247568Y0284323D02*
X0247568Y0284323D01*
X0251882Y0285922D02*
X0234939Y0285922D01*
X0234874Y0287520D02*
X0253480Y0287520D01*
X0255079Y0289119D02*
X0237550Y0289119D01*
X0237891Y0290717D02*
X0259419Y0290717D01*
X0257862Y0293202D02*
X0254202Y0293202D01*
X0253382Y0294022D01*
X0253382Y0300182D01*
X0254202Y0301002D01*
X0257862Y0301002D01*
X0258682Y0300182D01*
X0258682Y0294022D01*
X0257862Y0293202D01*
X0258574Y0293914D02*
X0273978Y0293914D01*
X0273727Y0292316D02*
X0237891Y0292316D01*
X0237891Y0295513D02*
X0244918Y0295513D01*
X0244918Y0297111D02*
X0237891Y0297111D01*
X0233348Y0293914D02*
X0245026Y0293914D01*
X0250109Y0293914D02*
X0253491Y0293914D01*
X0253382Y0295513D02*
X0250218Y0295513D01*
X0250218Y0297111D02*
X0253382Y0297111D01*
X0253382Y0298710D02*
X0250218Y0298710D01*
X0250092Y0300308D02*
X0253508Y0300308D01*
X0258556Y0300308D02*
X0273547Y0300308D01*
X0273327Y0298710D02*
X0258682Y0298710D01*
X0258682Y0297111D02*
X0273327Y0297111D01*
X0273327Y0295513D02*
X0258682Y0295513D01*
X0264181Y0290717D02*
X0273727Y0290717D01*
X0273727Y0289119D02*
X0265309Y0289119D01*
X0266907Y0287520D02*
X0274048Y0287520D01*
X0273038Y0285922D02*
X0268506Y0285922D01*
X0270104Y0284323D02*
X0273038Y0284323D01*
X0273038Y0282725D02*
X0271703Y0282725D01*
X0275123Y0279305D02*
X0279742Y0279305D01*
X0280562Y0280125D01*
X0280562Y0286009D01*
X0279742Y0286829D01*
X0279000Y0286829D01*
X0279000Y0287021D01*
X0279053Y0287021D01*
X0279873Y0287841D01*
X0279873Y0293135D01*
X0279299Y0293709D01*
X0279578Y0293871D01*
X0279914Y0294206D01*
X0280151Y0294616D01*
X0280273Y0295074D01*
X0280273Y0297341D01*
X0276837Y0297341D01*
X0276837Y0297415D01*
X0280273Y0297415D01*
X0280273Y0299682D01*
X0280151Y0300140D01*
X0279914Y0300550D01*
X0279578Y0300885D01*
X0279168Y0301122D01*
X0279127Y0301133D01*
X0336800Y0301133D01*
X0337926Y0301044D01*
X0340069Y0300348D01*
X0341891Y0299024D01*
X0343215Y0297202D01*
X0343911Y0295059D01*
X0343990Y0294054D01*
X0341731Y0296313D01*
X0338532Y0297639D01*
X0335068Y0297639D01*
X0331869Y0296313D01*
X0329420Y0293864D01*
X0328094Y0290665D01*
X0328094Y0287201D01*
X0329420Y0284002D01*
X0331869Y0281553D01*
X0335068Y0280228D01*
X0338532Y0280228D01*
X0341731Y0281553D01*
X0344000Y0283822D01*
X0344000Y0271917D01*
X0343586Y0272331D01*
X0342704Y0272697D01*
X0304284Y0272697D01*
X0296184Y0280796D01*
X0295562Y0281054D01*
X0295562Y0286009D01*
X0294742Y0286829D01*
X0294000Y0286829D01*
X0294000Y0287218D01*
X0294545Y0287218D01*
X0295365Y0288038D01*
X0295365Y0293135D01*
X0294791Y0293709D01*
X0295071Y0293871D01*
X0295406Y0294206D01*
X0295643Y0294616D01*
X0295765Y0295074D01*
X0295765Y0297095D01*
X0291984Y0297095D01*
X0291984Y0297464D01*
X0291616Y0297464D01*
X0291616Y0301048D01*
X0289398Y0301048D01*
X0288940Y0300925D01*
X0288529Y0300688D01*
X0288194Y0300353D01*
X0287957Y0299943D01*
X0287835Y0299485D01*
X0287835Y0297464D01*
X0291616Y0297464D01*
X0291616Y0297095D01*
X0287835Y0297095D01*
X0287835Y0295074D01*
X0287957Y0294616D01*
X0288194Y0294206D01*
X0288529Y0293871D01*
X0288809Y0293709D01*
X0288235Y0293135D01*
X0288235Y0288038D01*
X0289055Y0287218D01*
X0289600Y0287218D01*
X0289600Y0286829D01*
X0288858Y0286829D01*
X0288038Y0286009D01*
X0288038Y0281054D01*
X0287416Y0280796D01*
X0280562Y0273943D01*
X0280562Y0277741D01*
X0279742Y0278561D01*
X0275866Y0278561D01*
X0275123Y0279305D01*
X0279965Y0279528D02*
X0286147Y0279528D01*
X0284549Y0277929D02*
X0280374Y0277929D01*
X0280562Y0276331D02*
X0282950Y0276331D01*
X0281352Y0274732D02*
X0280562Y0274732D01*
X0280562Y0281126D02*
X0288038Y0281126D01*
X0288038Y0282725D02*
X0280562Y0282725D01*
X0280562Y0284323D02*
X0288038Y0284323D01*
X0288038Y0285922D02*
X0280562Y0285922D01*
X0279552Y0287520D02*
X0288753Y0287520D01*
X0288235Y0289119D02*
X0279873Y0289119D01*
X0279873Y0290717D02*
X0288235Y0290717D01*
X0288235Y0292316D02*
X0279873Y0292316D01*
X0279622Y0293914D02*
X0288486Y0293914D01*
X0287835Y0295513D02*
X0280273Y0295513D01*
X0280273Y0297111D02*
X0291616Y0297111D01*
X0291984Y0297111D02*
X0333795Y0297111D01*
X0331068Y0295513D02*
X0295765Y0295513D01*
X0295114Y0293914D02*
X0329470Y0293914D01*
X0328778Y0292316D02*
X0295365Y0292316D01*
X0295365Y0290717D02*
X0328116Y0290717D01*
X0328094Y0289119D02*
X0295365Y0289119D01*
X0294847Y0287520D02*
X0328094Y0287520D01*
X0328625Y0285922D02*
X0295562Y0285922D01*
X0295562Y0284323D02*
X0329287Y0284323D01*
X0330697Y0282725D02*
X0295562Y0282725D01*
X0295562Y0281126D02*
X0332899Y0281126D01*
X0340701Y0281126D02*
X0344000Y0281126D01*
X0344000Y0279528D02*
X0297453Y0279528D01*
X0299051Y0277929D02*
X0344000Y0277929D01*
X0344000Y0276331D02*
X0300650Y0276331D01*
X0302248Y0274732D02*
X0344000Y0274732D01*
X0344000Y0273134D02*
X0303847Y0273134D01*
X0300256Y0269937D02*
X0289408Y0269937D01*
X0287809Y0268338D02*
X0301854Y0268338D01*
X0298657Y0271535D02*
X0295240Y0271535D01*
X0295562Y0273134D02*
X0297059Y0273134D01*
X0286211Y0266740D02*
X0310636Y0266740D01*
X0310636Y0265141D02*
X0284612Y0265141D01*
X0283014Y0263543D02*
X0310636Y0263543D01*
X0310636Y0261944D02*
X0281415Y0261944D01*
X0279817Y0260345D02*
X0310636Y0260345D01*
X0307563Y0258747D02*
X0278218Y0258747D01*
X0276620Y0257148D02*
X0305964Y0257148D01*
X0304366Y0255550D02*
X0275021Y0255550D01*
X0273423Y0253951D02*
X0302767Y0253951D01*
X0301169Y0252353D02*
X0271824Y0252353D01*
X0251227Y0261944D02*
X0243554Y0261944D01*
X0241955Y0263543D02*
X0251227Y0263543D01*
X0251227Y0265141D02*
X0240357Y0265141D01*
X0238758Y0266740D02*
X0251227Y0266740D01*
X0251371Y0268338D02*
X0237160Y0268338D01*
X0234134Y0265141D02*
X0232661Y0265141D01*
X0232661Y0263543D02*
X0235733Y0263543D01*
X0237331Y0261944D02*
X0232661Y0261944D01*
X0232661Y0260345D02*
X0238930Y0260345D01*
X0240100Y0258747D02*
X0232661Y0258747D01*
X0232355Y0257148D02*
X0240100Y0257148D01*
X0238799Y0255550D02*
X0230757Y0255550D01*
X0231490Y0256283D02*
X0231490Y0256283D01*
X0237774Y0242762D02*
X0238788Y0242762D01*
X0230729Y0239565D02*
X0230200Y0239565D01*
X0203791Y0257148D02*
X0201689Y0257148D01*
X0201408Y0258747D02*
X0203400Y0258747D01*
X0203727Y0266740D02*
X0178398Y0266740D01*
X0176799Y0268338D02*
X0186192Y0268338D01*
X0190208Y0268338D02*
X0203727Y0268338D01*
X0203727Y0269937D02*
X0190889Y0269937D01*
X0190530Y0271535D02*
X0203857Y0271535D01*
X0203327Y0273134D02*
X0189662Y0273134D01*
X0189497Y0274732D02*
X0203327Y0274732D01*
X0203327Y0276331D02*
X0187756Y0276331D01*
X0186244Y0276331D02*
X0184407Y0276331D01*
X0183008Y0277929D02*
X0182808Y0277929D01*
X0182982Y0279528D02*
X0181210Y0279528D01*
X0180218Y0281126D02*
X0182982Y0281126D01*
X0182982Y0282725D02*
X0180218Y0282725D01*
X0179738Y0284323D02*
X0183315Y0284323D01*
X0186032Y0284323D02*
X0186032Y0284323D01*
X0186032Y0282725D02*
X0186032Y0282725D01*
X0186032Y0281126D02*
X0186032Y0281126D01*
X0186032Y0279528D02*
X0186032Y0279528D01*
X0186032Y0277929D02*
X0186032Y0277929D01*
X0188749Y0284323D02*
X0203820Y0284323D01*
X0205370Y0284323D02*
X0209094Y0284323D01*
X0205370Y0282725D02*
X0203820Y0282725D01*
X0203820Y0281126D02*
X0205370Y0281126D01*
X0205370Y0285922D02*
X0203820Y0285922D01*
X0203820Y0287520D02*
X0205370Y0287520D01*
X0206054Y0289119D02*
X0206877Y0289119D01*
X0206535Y0290717D02*
X0206395Y0290717D01*
X0206395Y0292316D02*
X0206535Y0292316D01*
X0206535Y0295513D02*
X0206395Y0295513D01*
X0206395Y0297111D02*
X0206535Y0297111D01*
X0206855Y0298710D02*
X0206075Y0298710D01*
X0201852Y0298710D02*
X0200252Y0298710D01*
X0200252Y0297111D02*
X0201852Y0297111D01*
X0201852Y0295513D02*
X0200252Y0295513D01*
X0200252Y0293914D02*
X0188574Y0293914D01*
X0183491Y0293914D02*
X0180109Y0293914D01*
X0180218Y0295513D02*
X0183382Y0295513D01*
X0183382Y0297111D02*
X0180218Y0297111D01*
X0180218Y0298710D02*
X0183382Y0298710D01*
X0183508Y0300308D02*
X0180092Y0300308D01*
X0175044Y0300308D02*
X0088476Y0300308D01*
X0086480Y0298710D02*
X0174918Y0298710D01*
X0174918Y0297111D02*
X0094805Y0297111D01*
X0097532Y0295513D02*
X0128038Y0295513D01*
X0128038Y0293914D02*
X0099130Y0293914D01*
X0099822Y0292316D02*
X0128038Y0292316D01*
X0128038Y0290717D02*
X0100484Y0290717D01*
X0100505Y0289119D02*
X0133210Y0289119D01*
X0135562Y0287520D02*
X0148038Y0287520D01*
X0148038Y0285922D02*
X0135562Y0285922D01*
X0135562Y0284323D02*
X0148038Y0284323D01*
X0148038Y0282725D02*
X0135562Y0282725D01*
X0134831Y0281126D02*
X0148769Y0281126D01*
X0148727Y0279528D02*
X0134873Y0279528D01*
X0131800Y0277378D02*
X0131800Y0284799D01*
X0128038Y0284323D02*
X0099313Y0284323D01*
X0099975Y0285922D02*
X0128038Y0285922D01*
X0128038Y0287520D02*
X0100505Y0287520D01*
X0097903Y0282725D02*
X0128038Y0282725D01*
X0128769Y0281126D02*
X0095701Y0281126D01*
X0087899Y0281126D02*
X0084600Y0281126D01*
X0084600Y0279528D02*
X0128727Y0279528D01*
X0128727Y0277929D02*
X0084600Y0277929D01*
X0084600Y0276331D02*
X0128727Y0276331D01*
X0128727Y0274732D02*
X0084600Y0274732D01*
X0084600Y0273134D02*
X0128727Y0273134D01*
X0117964Y0266740D02*
X0152437Y0266740D01*
X0154036Y0265141D02*
X0117964Y0265141D01*
X0117964Y0263543D02*
X0155634Y0263543D01*
X0157233Y0261944D02*
X0117964Y0261944D01*
X0117964Y0260345D02*
X0158831Y0260345D01*
X0161474Y0255550D02*
X0163627Y0255550D01*
X0161474Y0253951D02*
X0188374Y0253951D01*
X0188374Y0252353D02*
X0161474Y0252353D01*
X0161474Y0250754D02*
X0188374Y0250754D01*
X0192300Y0238422D02*
X0194300Y0236422D01*
X0193918Y0205996D02*
X0177088Y0205996D01*
X0147532Y0190011D02*
X0121200Y0190011D01*
X0121200Y0188412D02*
X0145933Y0188412D01*
X0144335Y0186814D02*
X0121200Y0186814D01*
X0113742Y0182018D02*
X0084600Y0182018D01*
X0084600Y0180420D02*
X0112686Y0180420D01*
X0112400Y0178821D02*
X0084600Y0178821D01*
X0084600Y0177223D02*
X0112713Y0177223D01*
X0119607Y0172427D02*
X0129948Y0172427D01*
X0128350Y0170829D02*
X0120810Y0170829D01*
X0121200Y0169230D02*
X0126751Y0169230D01*
X0125153Y0167632D02*
X0120991Y0167632D01*
X0120423Y0162836D02*
X0119919Y0162836D01*
X0113681Y0162836D02*
X0084600Y0162836D01*
X0084600Y0161238D02*
X0112467Y0161238D01*
X0112015Y0159639D02*
X0084600Y0159639D01*
X0084600Y0158041D02*
X0112120Y0158041D01*
X0112848Y0156442D02*
X0084600Y0156442D01*
X0084600Y0154844D02*
X0114716Y0154844D01*
X0140948Y0153245D02*
X0149208Y0153245D01*
X0147610Y0151647D02*
X0141365Y0151647D01*
X0141365Y0150048D02*
X0146011Y0150048D01*
X0144412Y0148450D02*
X0141365Y0148450D01*
X0140649Y0146851D02*
X0142814Y0146851D01*
X0144853Y0169230D02*
X0173299Y0169230D01*
X0170301Y0170829D02*
X0146451Y0170829D01*
X0148050Y0172427D02*
X0159623Y0172427D01*
X0159299Y0174026D02*
X0149649Y0174026D01*
X0151247Y0175624D02*
X0160066Y0175624D01*
X0163911Y0175624D02*
X0168991Y0175624D01*
X0122117Y0239565D02*
X0117964Y0239565D01*
X0117964Y0241163D02*
X0120519Y0241163D01*
X0118920Y0242762D02*
X0117964Y0242762D01*
X0086129Y0234769D02*
X0084600Y0234769D01*
X0084600Y0233171D02*
X0085636Y0233171D01*
X0085636Y0231572D02*
X0084600Y0231572D01*
X0084600Y0229974D02*
X0085636Y0229974D01*
X0085636Y0228375D02*
X0084600Y0228375D01*
X0084600Y0226777D02*
X0085636Y0226777D01*
X0085636Y0225178D02*
X0084600Y0225178D01*
X0084600Y0223580D02*
X0085636Y0223580D01*
X0085636Y0221981D02*
X0084600Y0221981D01*
X0084600Y0220383D02*
X0085636Y0220383D01*
X0085636Y0218784D02*
X0084600Y0218784D01*
X0084600Y0217186D02*
X0085636Y0217186D01*
X0085636Y0215587D02*
X0084600Y0215587D01*
X0084600Y0213989D02*
X0085636Y0213989D01*
X0085636Y0212390D02*
X0084600Y0212390D01*
X0084600Y0210792D02*
X0085636Y0210792D01*
X0085636Y0209193D02*
X0084600Y0209193D01*
X0084600Y0207595D02*
X0085636Y0207595D01*
X0085636Y0205996D02*
X0084600Y0205996D01*
X0084600Y0204398D02*
X0085636Y0204398D01*
X0086427Y0202799D02*
X0084600Y0202799D01*
X0151419Y0250754D02*
X0152181Y0250754D01*
X0152181Y0252353D02*
X0151419Y0252353D01*
X0151419Y0253951D02*
X0152181Y0253951D01*
X0152181Y0255550D02*
X0151419Y0255550D01*
X0151419Y0257148D02*
X0152181Y0257148D01*
X0174800Y0285433D02*
X0172855Y0287378D01*
X0171800Y0287378D01*
X0174873Y0289119D02*
X0196050Y0289119D01*
X0195709Y0290717D02*
X0174181Y0290717D01*
X0148038Y0292316D02*
X0135562Y0292316D01*
X0135562Y0293914D02*
X0148038Y0293914D01*
X0148038Y0295513D02*
X0135562Y0295513D01*
X0088795Y0297111D02*
X0085355Y0297111D01*
X0084836Y0295513D02*
X0086068Y0295513D01*
X0085697Y0282725D02*
X0084600Y0282725D01*
X0206800Y0267988D02*
X0211800Y0267988D01*
X0211800Y0274878D02*
X0211800Y0278402D01*
X0212743Y0279344D01*
X0215608Y0279344D01*
X0216428Y0280164D01*
X0216428Y0283030D01*
X0216800Y0283402D01*
X0219000Y0283043D02*
X0219000Y0279625D01*
X0216800Y0277425D01*
X0216800Y0274878D01*
X0221763Y0276331D02*
X0221837Y0276331D01*
X0221837Y0277929D02*
X0221763Y0277929D01*
X0223471Y0280164D02*
X0226356Y0277280D01*
X0228230Y0279480D02*
X0228230Y0283119D01*
X0225312Y0283119D01*
X0224382Y0284049D01*
X0224105Y0284325D01*
X0224105Y0284669D01*
X0228230Y0284669D01*
X0228230Y0283119D01*
X0229780Y0283119D01*
X0229780Y0279861D01*
X0229645Y0279861D01*
X0229264Y0279480D01*
X0228230Y0279480D01*
X0228230Y0279528D02*
X0229312Y0279528D01*
X0229780Y0281126D02*
X0228230Y0281126D01*
X0228230Y0282725D02*
X0229780Y0282725D01*
X0228230Y0284323D02*
X0224108Y0284323D01*
X0221918Y0283402D02*
X0223471Y0281849D01*
X0223471Y0280164D01*
X0219359Y0283402D02*
X0219000Y0283043D01*
X0223135Y0287520D02*
X0213539Y0287520D01*
X0220724Y0289119D02*
X0222324Y0289119D01*
X0222324Y0290717D02*
X0220724Y0290717D01*
X0220724Y0292316D02*
X0222324Y0292316D01*
X0222324Y0294733D02*
X0227065Y0294733D01*
X0227065Y0297910D01*
X0226942Y0298368D01*
X0226705Y0298778D01*
X0226370Y0299114D01*
X0225959Y0299351D01*
X0225502Y0299473D01*
X0222324Y0299473D01*
X0222324Y0294733D01*
X0222324Y0295513D02*
X0220724Y0295513D01*
X0220724Y0297111D02*
X0222324Y0297111D01*
X0222324Y0298710D02*
X0220724Y0298710D01*
X0212876Y0298710D02*
X0211276Y0298710D01*
X0211276Y0297111D02*
X0212876Y0297111D01*
X0212876Y0295513D02*
X0211276Y0295513D01*
X0227065Y0295513D02*
X0227205Y0295513D01*
X0227205Y0297111D02*
X0227065Y0297111D01*
X0226745Y0298710D02*
X0227525Y0298710D01*
X0227205Y0292316D02*
X0227065Y0292316D01*
X0227065Y0290717D02*
X0227205Y0290717D01*
X0227546Y0289119D02*
X0226723Y0289119D01*
X0228230Y0287520D02*
X0229780Y0287520D01*
X0229780Y0285922D02*
X0228230Y0285922D01*
X0231748Y0289119D02*
X0233348Y0289119D01*
X0233348Y0290717D02*
X0231748Y0290717D01*
X0231748Y0292316D02*
X0233348Y0292316D01*
X0276800Y0290488D02*
X0276800Y0283067D01*
X0291800Y0283067D02*
X0291800Y0290587D01*
X0291984Y0297464D02*
X0295765Y0297464D01*
X0295765Y0299485D01*
X0295643Y0299943D01*
X0295406Y0300353D01*
X0295071Y0300688D01*
X0294660Y0300925D01*
X0294202Y0301048D01*
X0291984Y0301048D01*
X0291984Y0297464D01*
X0291984Y0298710D02*
X0291616Y0298710D01*
X0291616Y0300308D02*
X0291984Y0300308D01*
X0295432Y0300308D02*
X0340124Y0300308D01*
X0342120Y0298710D02*
X0295765Y0298710D01*
X0288168Y0300308D02*
X0280053Y0300308D01*
X0280273Y0298710D02*
X0287835Y0298710D01*
X0339805Y0297111D02*
X0343245Y0297111D01*
X0343764Y0295513D02*
X0342532Y0295513D01*
X0342903Y0282725D02*
X0344000Y0282725D01*
X0255405Y0113282D02*
X0254586Y0113282D01*
X0254586Y0111684D02*
X0255300Y0111684D01*
X0255300Y0110085D02*
X0254586Y0110085D01*
X0254586Y0108487D02*
X0255300Y0108487D01*
X0255300Y0106888D02*
X0254586Y0106888D01*
X0254986Y0100494D02*
X0258033Y0100494D01*
X0258031Y0098896D02*
X0254986Y0098896D01*
X0254986Y0097297D02*
X0258031Y0097297D01*
X0258031Y0095699D02*
X0254584Y0095699D01*
X0250319Y0095699D02*
X0250147Y0095699D01*
X0250147Y0097297D02*
X0250319Y0097297D01*
X0261616Y0097297D02*
X0261984Y0097297D01*
X0261984Y0095699D02*
X0261616Y0095699D01*
X0168750Y0094100D02*
X0168319Y0094100D01*
X0168364Y0092502D02*
X0168750Y0092502D01*
X0168750Y0090903D02*
X0168364Y0090903D01*
X0168364Y0089305D02*
X0168750Y0089305D01*
X0168750Y0087706D02*
X0168364Y0087706D01*
X0168364Y0086108D02*
X0168750Y0086108D01*
X0168750Y0084509D02*
X0168364Y0084509D01*
X0168364Y0082911D02*
X0168750Y0082911D01*
X0168750Y0081312D02*
X0168364Y0081312D01*
X0100636Y0081312D02*
X0096732Y0081312D01*
X0098331Y0079714D02*
X0100636Y0079714D01*
X0100636Y0078115D02*
X0099490Y0078115D01*
X0100153Y0076517D02*
X0100636Y0076517D01*
X0100636Y0074918D02*
X0100505Y0074918D01*
X0100505Y0073320D02*
X0100636Y0073320D01*
X0100636Y0071721D02*
X0100307Y0071721D01*
X0100636Y0070123D02*
X0099644Y0070123D01*
X0098703Y0068524D02*
X0100636Y0068524D01*
X0100636Y0066926D02*
X0097104Y0066926D01*
X0093772Y0065327D02*
X0100636Y0065327D01*
X0100636Y0063729D02*
X0086865Y0063729D01*
X0085269Y0079714D02*
X0084600Y0079714D01*
X0084600Y0081312D02*
X0086868Y0081312D01*
X0084600Y0082911D02*
X0100636Y0082911D01*
X0100636Y0084509D02*
X0084600Y0084509D01*
X0084600Y0086108D02*
X0100636Y0086108D01*
X0100636Y0087706D02*
X0084600Y0087706D01*
X0084600Y0089305D02*
X0100636Y0089305D01*
X0100636Y0090903D02*
X0084600Y0090903D01*
X0084600Y0092502D02*
X0100636Y0092502D01*
X0100636Y0094100D02*
X0084600Y0094100D01*
D48*
X0137800Y0139433D02*
X0157889Y0159522D01*
X0163907Y0159522D01*
X0165189Y0158240D01*
X0165189Y0150544D01*
X0174300Y0141433D01*
X0179367Y0143618D02*
X0181363Y0143618D01*
X0181367Y0143622D01*
X0182800Y0143533D02*
X0179600Y0143533D01*
X0179367Y0143618D01*
X0179600Y0148333D02*
X0179367Y0148618D01*
X0179600Y0148333D02*
X0188200Y0148333D01*
X0185800Y0153733D02*
X0179600Y0153733D01*
X0179367Y0153618D01*
X0179600Y0158533D02*
X0179367Y0158618D01*
X0179600Y0158533D02*
X0188200Y0158533D01*
X0190600Y0160933D02*
X0184000Y0167533D01*
X0180700Y0167533D01*
X0179367Y0165566D02*
X0179367Y0163618D01*
X0180267Y0164666D01*
X0179367Y0165566D02*
X0171900Y0173033D01*
X0170993Y0175222D02*
X0178008Y0175222D01*
X0194789Y0158441D01*
X0194789Y0156933D01*
X0197300Y0158133D02*
X0176000Y0179433D01*
X0158900Y0179433D01*
X0161988Y0173744D02*
X0169515Y0173744D01*
X0170993Y0175222D01*
X0190600Y0160933D02*
X0190600Y0125533D01*
X0188800Y0123733D01*
X0179600Y0123733D01*
X0179367Y0123618D01*
X0179367Y0118618D02*
X0171615Y0118618D01*
X0161700Y0128533D01*
X0147700Y0128533D01*
X0146000Y0130233D01*
X0146000Y0133133D01*
X0163000Y0150133D01*
X0163000Y0157333D01*
X0159400Y0157333D02*
X0141300Y0139233D01*
X0141300Y0122630D01*
X0143700Y0120230D01*
X0143700Y0116633D01*
X0146715Y0113618D01*
X0179367Y0113618D01*
X0179600Y0108733D02*
X0179367Y0108618D01*
X0179600Y0108733D02*
X0182800Y0108733D01*
X0197300Y0123233D01*
X0197300Y0158133D01*
X0187000Y0154933D02*
X0185800Y0153733D01*
X0192300Y0169484D02*
X0192789Y0169484D01*
X0197300Y0169484D02*
X0197800Y0169484D01*
X0197600Y0169933D02*
X0197300Y0169484D01*
X0205800Y0174733D02*
X0206800Y0173733D01*
X0225000Y0173733D01*
X0227800Y0176533D01*
X0227800Y0183133D01*
X0228286Y0183520D01*
X0225727Y0183520D02*
X0225400Y0183733D01*
X0225400Y0190933D01*
X0223700Y0192633D01*
X0209700Y0192633D01*
X0206800Y0189733D01*
X0203911Y0184262D02*
X0203438Y0184262D01*
X0202696Y0183520D01*
X0207814Y0183520D02*
X0207822Y0177611D01*
X0210011Y0177326D02*
X0211493Y0175844D01*
X0221707Y0175844D01*
X0222107Y0176244D01*
X0222111Y0176244D01*
X0224400Y0178733D02*
X0219600Y0178733D01*
X0218200Y0180133D01*
X0218200Y0183133D01*
X0218050Y0183520D01*
X0215491Y0183520D02*
X0215300Y0183329D01*
X0215300Y0178533D01*
X0215800Y0178033D01*
X0212700Y0178733D02*
X0212700Y0183033D01*
X0212800Y0183133D01*
X0212932Y0183520D01*
X0210373Y0183520D02*
X0210373Y0179502D01*
X0210011Y0179140D01*
X0210011Y0177326D01*
X0212200Y0178233D02*
X0212700Y0178733D01*
X0207814Y0183520D02*
X0208000Y0183733D01*
X0215800Y0189933D02*
X0217526Y0189933D01*
X0218715Y0191122D01*
X0221611Y0191122D01*
X0223000Y0189733D01*
X0223000Y0183733D01*
X0223168Y0183520D01*
X0224400Y0178733D02*
X0225400Y0177733D01*
X0232300Y0169484D02*
X0234400Y0171584D01*
X0234400Y0184333D01*
X0237300Y0194633D02*
X0236800Y0195133D01*
X0236800Y0195433D01*
X0236800Y0195488D01*
X0236800Y0195733D01*
X0225200Y0207333D01*
X0236800Y0202378D02*
X0236800Y0202333D01*
X0237300Y0194633D02*
X0237300Y0169484D01*
X0239200Y0166612D01*
X0239200Y0159133D01*
X0218200Y0138133D01*
X0218200Y0133790D01*
X0214800Y0128933D01*
X0232300Y0124933D02*
X0235985Y0128618D01*
X0250233Y0128618D01*
X0250233Y0123618D02*
X0249800Y0123133D01*
X0237400Y0123133D01*
X0221800Y0107533D01*
X0250000Y0108618D02*
X0250000Y0108833D01*
X0250000Y0108618D02*
X0250233Y0108618D01*
X0258300Y0106433D02*
X0258300Y0105433D01*
X0258300Y0106433D02*
X0259300Y0106433D01*
X0261377Y0104356D02*
X0260707Y0103687D01*
X0261377Y0104356D02*
X0261800Y0104780D01*
X0261800Y0104133D01*
X0270300Y0107029D02*
X0271739Y0105590D01*
X0271739Y0091958D01*
X0273663Y0090033D01*
X0273800Y0090033D01*
X0274300Y0089533D01*
X0274000Y0089533D01*
X0274300Y0089533D02*
X0281800Y0089533D01*
X0286000Y0093733D01*
X0286879Y0093933D01*
X0276800Y0105488D02*
X0276400Y0106333D01*
X0270300Y0107029D02*
X0270300Y0115433D01*
X0272800Y0117933D01*
X0272800Y0129133D01*
X0253600Y0148333D01*
X0250400Y0148333D01*
X0250233Y0148618D01*
X0249800Y0144133D02*
X0250233Y0143618D01*
X0249800Y0144133D02*
X0247200Y0144133D01*
X0238800Y0152533D01*
X0237200Y0147533D02*
X0246115Y0138618D01*
X0250233Y0138618D01*
X0249800Y0133933D02*
X0242800Y0133933D01*
X0230200Y0146533D01*
X0218200Y0158533D02*
X0211300Y0158433D01*
X0215900Y0160833D02*
X0212400Y0164333D01*
X0215900Y0160833D02*
X0223900Y0160833D01*
X0236909Y0164542D02*
X0213111Y0143933D01*
X0179367Y0138618D02*
X0179000Y0138133D01*
X0160600Y0138133D01*
X0150800Y0133333D02*
X0148400Y0130933D01*
X0150800Y0133333D02*
X0179000Y0133333D01*
X0179367Y0133618D01*
X0167200Y0119333D02*
X0160400Y0126133D01*
X0159400Y0126133D01*
X0163000Y0118933D02*
X0148000Y0118933D01*
X0146400Y0117333D01*
X0142500Y0118233D02*
X0142500Y0115733D01*
X0149800Y0108433D01*
X0170510Y0108433D01*
X0176119Y0103618D01*
X0179367Y0103618D01*
X0142500Y0118233D02*
X0141000Y0119733D01*
X0125400Y0158433D02*
X0125400Y0158828D01*
X0125894Y0159323D01*
X0151800Y0203933D02*
X0151800Y0204524D01*
X0174400Y0206533D02*
X0176700Y0208833D01*
X0197000Y0208833D01*
X0207873Y0207860D02*
X0207873Y0214228D01*
X0212800Y0233833D02*
X0212800Y0237133D01*
X0213050Y0237596D01*
X0210550Y0237596D02*
X0210400Y0237733D01*
X0208050Y0237596D02*
X0208000Y0237733D01*
X0208000Y0245533D01*
X0209000Y0246533D01*
X0237000Y0246533D01*
X0239500Y0249033D01*
X0244500Y0249033D01*
X0259000Y0263533D01*
X0259000Y0264733D01*
X0259300Y0264760D01*
X0259600Y0264733D01*
X0263800Y0264733D01*
X0264300Y0264760D01*
X0266200Y0268933D02*
X0269800Y0265333D01*
X0269300Y0264760D01*
X0269200Y0264733D01*
X0269200Y0263533D01*
X0246600Y0240933D01*
X0235800Y0240933D01*
X0232700Y0237733D02*
X0228400Y0237733D01*
X0228050Y0237596D01*
X0242300Y0245988D02*
X0242300Y0246033D01*
X0254300Y0242319D02*
X0254200Y0241933D01*
X0254200Y0237133D01*
X0259300Y0242319D02*
X0259600Y0242533D01*
X0259600Y0249133D01*
X0272200Y0261733D01*
X0272200Y0270133D01*
X0262000Y0280333D01*
X0261800Y0280488D01*
X0261400Y0280933D01*
X0256600Y0280933D01*
X0256032Y0280764D01*
X0256032Y0274720D01*
X0255245Y0273933D01*
X0248355Y0273933D02*
X0247600Y0273933D01*
X0247600Y0280933D01*
X0247568Y0280764D01*
X0247000Y0280333D01*
X0235600Y0280333D01*
X0234400Y0279133D01*
X0229600Y0283933D01*
X0229005Y0283894D01*
X0234400Y0279133D02*
X0234400Y0275533D01*
X0233800Y0274933D01*
X0221800Y0274933D01*
X0221800Y0274878D01*
X0223600Y0271333D02*
X0214600Y0271333D01*
X0211600Y0268333D01*
X0211800Y0267988D01*
X0210400Y0264733D02*
X0178000Y0264733D01*
X0153400Y0289333D01*
X0135400Y0289333D01*
X0131800Y0292933D01*
X0131800Y0293067D01*
X0151800Y0293067D02*
X0152200Y0292933D01*
X0175000Y0270133D01*
X0188200Y0270133D01*
X0187000Y0273733D02*
X0184600Y0273733D01*
X0178000Y0280333D01*
X0177568Y0280764D01*
X0177400Y0280933D01*
X0172000Y0280933D01*
X0171800Y0280488D01*
X0186032Y0280764D02*
X0186400Y0280933D01*
X0203800Y0280933D01*
X0204595Y0283894D01*
X0223600Y0271333D02*
X0227800Y0267133D01*
X0227800Y0260533D01*
X0228050Y0260270D01*
X0225550Y0260270D02*
X0225400Y0260533D01*
X0225400Y0264733D01*
X0222400Y0267733D01*
X0221800Y0267988D01*
X0220600Y0260533D02*
X0220550Y0260270D01*
X0215550Y0260270D02*
X0215200Y0259933D01*
X0213050Y0260270D02*
X0212800Y0260533D01*
X0212800Y0262333D01*
X0210400Y0264733D01*
X0205550Y0260270D02*
X0205550Y0253983D01*
X0200600Y0249033D01*
X0205600Y0241933D02*
X0205600Y0237733D01*
X0205550Y0237596D01*
X0231400Y0270133D02*
X0231800Y0270587D01*
X0247600Y0280933D02*
X0263800Y0297133D01*
X0276400Y0297133D01*
X0276800Y0297378D01*
X0277000Y0297733D01*
X0291400Y0297733D01*
X0291800Y0297280D01*
X0291800Y0274799D02*
X0291400Y0274333D01*
X0263800Y0246733D01*
X0269800Y0249133D02*
X0269800Y0242533D01*
X0269300Y0242319D01*
X0254300Y0264760D02*
X0254800Y0265333D01*
X0254800Y0266533D01*
X0257200Y0268933D01*
X0266200Y0268933D01*
X0261400Y0286933D02*
X0261400Y0286978D01*
X0261800Y0287378D01*
X0259769Y0206461D02*
X0262800Y0203429D01*
X0262800Y0202425D01*
X0262800Y0201925D01*
X0259808Y0188921D02*
X0261800Y0186929D01*
X0261800Y0183433D01*
X0256772Y0183433D01*
X0255772Y0184433D01*
X0255772Y0175417D02*
X0259278Y0171911D01*
X0259808Y0171382D01*
X0259808Y0170929D01*
X0253230Y0163618D02*
X0252300Y0163618D01*
X0252233Y0163618D01*
X0250233Y0163618D01*
X0251548Y0164933D01*
X0255191Y0161290D01*
X0255559Y0161290D01*
X0256086Y0160763D01*
X0256086Y0154710D01*
X0273862Y0136933D01*
X0275550Y0136933D01*
X0274550Y0134183D02*
X0276800Y0131933D01*
X0276800Y0116334D01*
X0276800Y0115933D01*
X0270611Y0118933D02*
X0250548Y0118933D01*
X0250233Y0118618D01*
X0250233Y0133618D02*
X0249800Y0133933D01*
X0250400Y0153133D02*
X0250233Y0153618D01*
X0255115Y0153618D01*
X0274550Y0134183D01*
X0282076Y0125311D02*
X0283454Y0123933D01*
X0290146Y0123933D02*
X0290300Y0123933D01*
X0303800Y0123933D01*
X0303954Y0123933D01*
X0310646Y0128815D02*
X0312024Y0130193D01*
X0302800Y0133709D02*
X0302576Y0133933D01*
X0323189Y0148698D02*
X0323189Y0185933D01*
X0320689Y0188433D01*
X0311800Y0188533D02*
X0311800Y0188697D01*
X0323189Y0148698D02*
X0328454Y0143433D01*
X0335146Y0143433D02*
X0337706Y0140874D01*
X0337706Y0135047D01*
X0325894Y0135047D01*
X0317889Y0118933D02*
X0324889Y0111933D01*
X0325780Y0111933D01*
X0325894Y0111819D01*
X0325894Y0105992D01*
X0328454Y0103433D01*
X0337706Y0111819D02*
X0337706Y0115028D01*
X0337300Y0115433D01*
X0292300Y0112378D02*
X0292078Y0112156D01*
X0291800Y0111878D01*
X0291800Y0112378D02*
X0292300Y0112378D01*
X0251411Y0098018D02*
X0250233Y0098618D01*
X0250233Y0158618D02*
X0252233Y0158618D01*
X0250379Y0158618D02*
X0250379Y0159069D01*
X0250400Y0159133D01*
X0250379Y0158618D02*
X0250233Y0158618D01*
X0253230Y0163618D02*
X0256105Y0160744D01*
X0152200Y0270133D02*
X0151800Y0270488D01*
X0151600Y0270733D01*
X0131800Y0270733D02*
X0131800Y0270488D01*
D49*
X0204595Y0283894D02*
X0204635Y0283933D01*
X0204800Y0283933D01*
X0228800Y0283933D02*
X0228839Y0283894D01*
X0229005Y0283894D01*
X0298150Y0208780D02*
X0307300Y0208780D01*
X0307300Y0202087D02*
X0311800Y0197587D01*
X0311800Y0188533D01*
X0311800Y0188697D02*
X0307536Y0184433D01*
X0299828Y0184433D01*
X0290300Y0184433D01*
X0278300Y0172433D01*
X0277800Y0171933D01*
X0277800Y0162406D01*
X0271300Y0159433D02*
X0267800Y0155933D01*
X0271300Y0159433D02*
X0271300Y0195421D01*
X0264296Y0202425D01*
X0273765Y0202425D01*
X0277800Y0206461D01*
X0264296Y0202425D02*
X0262800Y0202425D01*
X0262800Y0201925D02*
X0249691Y0201925D01*
X0249664Y0201952D01*
X0248521Y0201952D01*
X0245800Y0204673D01*
X0239095Y0204673D01*
X0236800Y0202378D01*
X0236800Y0195488D02*
X0244095Y0195488D01*
X0245800Y0197193D01*
X0249544Y0193449D01*
X0255772Y0193449D01*
X0258300Y0190921D01*
X0258300Y0187413D01*
X0259808Y0188921D01*
X0259808Y0187425D01*
X0266800Y0180433D01*
X0258300Y0183933D02*
X0258300Y0187413D01*
X0258300Y0183933D02*
X0257040Y0182673D01*
X0245800Y0182673D01*
X0245800Y0175193D02*
X0255548Y0175193D01*
X0255772Y0175417D01*
X0259808Y0170929D02*
X0259808Y0162445D01*
X0259769Y0162406D01*
X0295119Y0206461D02*
X0295831Y0206461D01*
X0298150Y0208780D01*
X0258300Y0112433D02*
X0258300Y0105433D01*
X0256485Y0103618D01*
X0250233Y0103618D01*
X0259300Y0106433D02*
X0261377Y0104356D01*
X0149206Y0101433D02*
X0141003Y0109636D01*
X0141003Y0109569D01*
X0140800Y0109366D01*
X0141003Y0109636D02*
X0137511Y0113128D01*
X0137511Y0121178D01*
X0137800Y0121467D01*
X0137800Y0130087D01*
X0137800Y0136780D02*
X0137800Y0139433D01*
X0137800Y0143587D01*
X0137800Y0150280D02*
X0137146Y0150933D01*
X0125400Y0150933D01*
X0137394Y0101433D02*
X0137394Y0099022D01*
D50*
X0116800Y0113433D02*
X0125400Y0122033D01*
X0125400Y0150933D01*
X0125400Y0158433D01*
X0125894Y0159323D02*
X0159505Y0192933D01*
X0198050Y0218933D02*
X0101800Y0218933D01*
X0101800Y0253933D02*
X0116800Y0253933D01*
X0141200Y0229533D01*
X0202441Y0229533D01*
X0207420Y0224553D01*
X0224119Y0223933D02*
X0229719Y0229533D01*
X0287400Y0229533D01*
X0311800Y0253933D01*
X0326800Y0253933D01*
X0326800Y0218933D02*
X0237800Y0218933D01*
X0236800Y0218933D01*
D51*
X0229297Y0256919D02*
X0224386Y0256919D01*
X0223100Y0255633D01*
X0229297Y0256919D02*
X0230661Y0258283D01*
X0230661Y0267273D01*
X0229025Y0268908D01*
X0229025Y0272265D01*
X0229836Y0273076D01*
X0243323Y0273076D01*
X0245791Y0270607D01*
X0250919Y0270607D01*
X0251622Y0271310D01*
X0251622Y0282834D01*
X0256166Y0287378D01*
X0261800Y0287378D01*
X0264221Y0287378D01*
X0276800Y0274799D01*
M02*
