G75*
%MOIN*%
%OFA0B0*%
%FSLAX25Y25*%
%IPPOS*%
%LPD*%
%AMOC8*
5,1,8,0,0,1.08239X$1,22.5*
%
%ADD10C,0.00000*%
%ADD11R,0.06000X0.06000*%
%ADD12C,0.06000*%
%ADD13R,0.03346X0.04134*%
%ADD14C,0.11811*%
%ADD15R,0.02756X0.04724*%
%ADD16R,0.03937X0.05512*%
%ADD17R,0.05906X0.07480*%
%ADD18R,0.04724X0.11024*%
%ADD19R,0.04724X0.03150*%
%ADD20R,0.04724X0.04724*%
D10*
X0081800Y0068933D02*
X0081800Y0293933D01*
X0081803Y0294175D01*
X0081812Y0294416D01*
X0081826Y0294657D01*
X0081847Y0294898D01*
X0081873Y0295138D01*
X0081905Y0295378D01*
X0081943Y0295617D01*
X0081986Y0295854D01*
X0082036Y0296091D01*
X0082091Y0296326D01*
X0082151Y0296560D01*
X0082218Y0296792D01*
X0082289Y0297023D01*
X0082367Y0297252D01*
X0082450Y0297479D01*
X0082538Y0297704D01*
X0082632Y0297927D01*
X0082731Y0298147D01*
X0082836Y0298365D01*
X0082945Y0298580D01*
X0083060Y0298793D01*
X0083180Y0299003D01*
X0083305Y0299209D01*
X0083435Y0299413D01*
X0083570Y0299614D01*
X0083710Y0299811D01*
X0083854Y0300005D01*
X0084003Y0300195D01*
X0084157Y0300381D01*
X0084315Y0300564D01*
X0084477Y0300743D01*
X0084644Y0300918D01*
X0084815Y0301089D01*
X0084990Y0301256D01*
X0085169Y0301418D01*
X0085352Y0301576D01*
X0085538Y0301730D01*
X0085728Y0301879D01*
X0085922Y0302023D01*
X0086119Y0302163D01*
X0086320Y0302298D01*
X0086524Y0302428D01*
X0086730Y0302553D01*
X0086940Y0302673D01*
X0087153Y0302788D01*
X0087368Y0302897D01*
X0087586Y0303002D01*
X0087806Y0303101D01*
X0088029Y0303195D01*
X0088254Y0303283D01*
X0088481Y0303366D01*
X0088710Y0303444D01*
X0088941Y0303515D01*
X0089173Y0303582D01*
X0089407Y0303642D01*
X0089642Y0303697D01*
X0089879Y0303747D01*
X0090116Y0303790D01*
X0090355Y0303828D01*
X0090595Y0303860D01*
X0090835Y0303886D01*
X0091076Y0303907D01*
X0091317Y0303921D01*
X0091558Y0303930D01*
X0091800Y0303933D01*
X0336800Y0303933D01*
X0337042Y0303930D01*
X0337283Y0303921D01*
X0337524Y0303907D01*
X0337765Y0303886D01*
X0338005Y0303860D01*
X0338245Y0303828D01*
X0338484Y0303790D01*
X0338721Y0303747D01*
X0338958Y0303697D01*
X0339193Y0303642D01*
X0339427Y0303582D01*
X0339659Y0303515D01*
X0339890Y0303444D01*
X0340119Y0303366D01*
X0340346Y0303283D01*
X0340571Y0303195D01*
X0340794Y0303101D01*
X0341014Y0303002D01*
X0341232Y0302897D01*
X0341447Y0302788D01*
X0341660Y0302673D01*
X0341870Y0302553D01*
X0342076Y0302428D01*
X0342280Y0302298D01*
X0342481Y0302163D01*
X0342678Y0302023D01*
X0342872Y0301879D01*
X0343062Y0301730D01*
X0343248Y0301576D01*
X0343431Y0301418D01*
X0343610Y0301256D01*
X0343785Y0301089D01*
X0343956Y0300918D01*
X0344123Y0300743D01*
X0344285Y0300564D01*
X0344443Y0300381D01*
X0344597Y0300195D01*
X0344746Y0300005D01*
X0344890Y0299811D01*
X0345030Y0299614D01*
X0345165Y0299413D01*
X0345295Y0299209D01*
X0345420Y0299003D01*
X0345540Y0298793D01*
X0345655Y0298580D01*
X0345764Y0298365D01*
X0345869Y0298147D01*
X0345968Y0297927D01*
X0346062Y0297704D01*
X0346150Y0297479D01*
X0346233Y0297252D01*
X0346311Y0297023D01*
X0346382Y0296792D01*
X0346449Y0296560D01*
X0346509Y0296326D01*
X0346564Y0296091D01*
X0346614Y0295854D01*
X0346657Y0295617D01*
X0346695Y0295378D01*
X0346727Y0295138D01*
X0346753Y0294898D01*
X0346774Y0294657D01*
X0346788Y0294416D01*
X0346797Y0294175D01*
X0346800Y0293933D01*
X0346800Y0068933D01*
X0346859Y0068751D01*
X0346912Y0068568D01*
X0346962Y0068383D01*
X0347007Y0068198D01*
X0347047Y0068011D01*
X0347083Y0067823D01*
X0347114Y0067635D01*
X0347141Y0067446D01*
X0347163Y0067256D01*
X0347181Y0067066D01*
X0347194Y0066875D01*
X0347202Y0066684D01*
X0347206Y0066493D01*
X0347205Y0066302D01*
X0347199Y0066111D01*
X0347189Y0065920D01*
X0347175Y0065730D01*
X0347155Y0065540D01*
X0347131Y0065350D01*
X0347103Y0065161D01*
X0347070Y0064973D01*
X0347032Y0064786D01*
X0346990Y0064599D01*
X0346944Y0064414D01*
X0346893Y0064230D01*
X0346837Y0064047D01*
X0346778Y0063866D01*
X0346713Y0063686D01*
X0346645Y0063507D01*
X0346572Y0063331D01*
X0346495Y0063156D01*
X0346414Y0062983D01*
X0346328Y0062812D01*
X0346239Y0062643D01*
X0346145Y0062477D01*
X0346047Y0062313D01*
X0345946Y0062151D01*
X0345840Y0061991D01*
X0345731Y0061835D01*
X0345618Y0061681D01*
X0345502Y0061529D01*
X0345381Y0061381D01*
X0345257Y0061235D01*
X0345130Y0061093D01*
X0344999Y0060954D01*
X0344865Y0060818D01*
X0344728Y0060685D01*
X0344587Y0060555D01*
X0344444Y0060429D01*
X0344297Y0060307D01*
X0344148Y0060188D01*
X0343995Y0060072D01*
X0343840Y0059961D01*
X0343683Y0059853D01*
X0343522Y0059749D01*
X0343360Y0059649D01*
X0343195Y0059553D01*
X0343027Y0059461D01*
X0342858Y0059373D01*
X0342686Y0059289D01*
X0342512Y0059209D01*
X0342337Y0059134D01*
X0342160Y0059062D01*
X0341981Y0058995D01*
X0341800Y0058933D01*
X0091800Y0058933D01*
X0091558Y0058936D01*
X0091317Y0058945D01*
X0091076Y0058959D01*
X0090835Y0058980D01*
X0090595Y0059006D01*
X0090355Y0059038D01*
X0090116Y0059076D01*
X0089879Y0059119D01*
X0089642Y0059169D01*
X0089407Y0059224D01*
X0089173Y0059284D01*
X0088941Y0059351D01*
X0088710Y0059422D01*
X0088481Y0059500D01*
X0088254Y0059583D01*
X0088029Y0059671D01*
X0087806Y0059765D01*
X0087586Y0059864D01*
X0087368Y0059969D01*
X0087153Y0060078D01*
X0086940Y0060193D01*
X0086730Y0060313D01*
X0086524Y0060438D01*
X0086320Y0060568D01*
X0086119Y0060703D01*
X0085922Y0060843D01*
X0085728Y0060987D01*
X0085538Y0061136D01*
X0085352Y0061290D01*
X0085169Y0061448D01*
X0084990Y0061610D01*
X0084815Y0061777D01*
X0084644Y0061948D01*
X0084477Y0062123D01*
X0084315Y0062302D01*
X0084157Y0062485D01*
X0084003Y0062671D01*
X0083854Y0062861D01*
X0083710Y0063055D01*
X0083570Y0063252D01*
X0083435Y0063453D01*
X0083305Y0063657D01*
X0083180Y0063863D01*
X0083060Y0064073D01*
X0082945Y0064286D01*
X0082836Y0064501D01*
X0082731Y0064719D01*
X0082632Y0064939D01*
X0082538Y0065162D01*
X0082450Y0065387D01*
X0082367Y0065614D01*
X0082289Y0065843D01*
X0082218Y0066074D01*
X0082151Y0066306D01*
X0082091Y0066540D01*
X0082036Y0066775D01*
X0081986Y0067012D01*
X0081943Y0067249D01*
X0081905Y0067488D01*
X0081873Y0067728D01*
X0081847Y0067968D01*
X0081826Y0068209D01*
X0081812Y0068450D01*
X0081803Y0068691D01*
X0081800Y0068933D01*
X0085894Y0073933D02*
X0085896Y0074086D01*
X0085902Y0074240D01*
X0085912Y0074393D01*
X0085926Y0074545D01*
X0085944Y0074698D01*
X0085966Y0074849D01*
X0085991Y0075000D01*
X0086021Y0075151D01*
X0086055Y0075301D01*
X0086092Y0075449D01*
X0086133Y0075597D01*
X0086178Y0075743D01*
X0086227Y0075889D01*
X0086280Y0076033D01*
X0086336Y0076175D01*
X0086396Y0076316D01*
X0086460Y0076456D01*
X0086527Y0076594D01*
X0086598Y0076730D01*
X0086673Y0076864D01*
X0086750Y0076996D01*
X0086832Y0077126D01*
X0086916Y0077254D01*
X0087004Y0077380D01*
X0087095Y0077503D01*
X0087189Y0077624D01*
X0087287Y0077742D01*
X0087387Y0077858D01*
X0087491Y0077971D01*
X0087597Y0078082D01*
X0087706Y0078190D01*
X0087818Y0078295D01*
X0087932Y0078396D01*
X0088050Y0078495D01*
X0088169Y0078591D01*
X0088291Y0078684D01*
X0088416Y0078773D01*
X0088543Y0078860D01*
X0088672Y0078942D01*
X0088803Y0079022D01*
X0088936Y0079098D01*
X0089071Y0079171D01*
X0089208Y0079240D01*
X0089347Y0079305D01*
X0089487Y0079367D01*
X0089629Y0079425D01*
X0089772Y0079480D01*
X0089917Y0079531D01*
X0090063Y0079578D01*
X0090210Y0079621D01*
X0090358Y0079660D01*
X0090507Y0079696D01*
X0090657Y0079727D01*
X0090808Y0079755D01*
X0090959Y0079779D01*
X0091112Y0079799D01*
X0091264Y0079815D01*
X0091417Y0079827D01*
X0091570Y0079835D01*
X0091723Y0079839D01*
X0091877Y0079839D01*
X0092030Y0079835D01*
X0092183Y0079827D01*
X0092336Y0079815D01*
X0092488Y0079799D01*
X0092641Y0079779D01*
X0092792Y0079755D01*
X0092943Y0079727D01*
X0093093Y0079696D01*
X0093242Y0079660D01*
X0093390Y0079621D01*
X0093537Y0079578D01*
X0093683Y0079531D01*
X0093828Y0079480D01*
X0093971Y0079425D01*
X0094113Y0079367D01*
X0094253Y0079305D01*
X0094392Y0079240D01*
X0094529Y0079171D01*
X0094664Y0079098D01*
X0094797Y0079022D01*
X0094928Y0078942D01*
X0095057Y0078860D01*
X0095184Y0078773D01*
X0095309Y0078684D01*
X0095431Y0078591D01*
X0095550Y0078495D01*
X0095668Y0078396D01*
X0095782Y0078295D01*
X0095894Y0078190D01*
X0096003Y0078082D01*
X0096109Y0077971D01*
X0096213Y0077858D01*
X0096313Y0077742D01*
X0096411Y0077624D01*
X0096505Y0077503D01*
X0096596Y0077380D01*
X0096684Y0077254D01*
X0096768Y0077126D01*
X0096850Y0076996D01*
X0096927Y0076864D01*
X0097002Y0076730D01*
X0097073Y0076594D01*
X0097140Y0076456D01*
X0097204Y0076316D01*
X0097264Y0076175D01*
X0097320Y0076033D01*
X0097373Y0075889D01*
X0097422Y0075743D01*
X0097467Y0075597D01*
X0097508Y0075449D01*
X0097545Y0075301D01*
X0097579Y0075151D01*
X0097609Y0075000D01*
X0097634Y0074849D01*
X0097656Y0074698D01*
X0097674Y0074545D01*
X0097688Y0074393D01*
X0097698Y0074240D01*
X0097704Y0074086D01*
X0097706Y0073933D01*
X0097704Y0073780D01*
X0097698Y0073626D01*
X0097688Y0073473D01*
X0097674Y0073321D01*
X0097656Y0073168D01*
X0097634Y0073017D01*
X0097609Y0072866D01*
X0097579Y0072715D01*
X0097545Y0072565D01*
X0097508Y0072417D01*
X0097467Y0072269D01*
X0097422Y0072123D01*
X0097373Y0071977D01*
X0097320Y0071833D01*
X0097264Y0071691D01*
X0097204Y0071550D01*
X0097140Y0071410D01*
X0097073Y0071272D01*
X0097002Y0071136D01*
X0096927Y0071002D01*
X0096850Y0070870D01*
X0096768Y0070740D01*
X0096684Y0070612D01*
X0096596Y0070486D01*
X0096505Y0070363D01*
X0096411Y0070242D01*
X0096313Y0070124D01*
X0096213Y0070008D01*
X0096109Y0069895D01*
X0096003Y0069784D01*
X0095894Y0069676D01*
X0095782Y0069571D01*
X0095668Y0069470D01*
X0095550Y0069371D01*
X0095431Y0069275D01*
X0095309Y0069182D01*
X0095184Y0069093D01*
X0095057Y0069006D01*
X0094928Y0068924D01*
X0094797Y0068844D01*
X0094664Y0068768D01*
X0094529Y0068695D01*
X0094392Y0068626D01*
X0094253Y0068561D01*
X0094113Y0068499D01*
X0093971Y0068441D01*
X0093828Y0068386D01*
X0093683Y0068335D01*
X0093537Y0068288D01*
X0093390Y0068245D01*
X0093242Y0068206D01*
X0093093Y0068170D01*
X0092943Y0068139D01*
X0092792Y0068111D01*
X0092641Y0068087D01*
X0092488Y0068067D01*
X0092336Y0068051D01*
X0092183Y0068039D01*
X0092030Y0068031D01*
X0091877Y0068027D01*
X0091723Y0068027D01*
X0091570Y0068031D01*
X0091417Y0068039D01*
X0091264Y0068051D01*
X0091112Y0068067D01*
X0090959Y0068087D01*
X0090808Y0068111D01*
X0090657Y0068139D01*
X0090507Y0068170D01*
X0090358Y0068206D01*
X0090210Y0068245D01*
X0090063Y0068288D01*
X0089917Y0068335D01*
X0089772Y0068386D01*
X0089629Y0068441D01*
X0089487Y0068499D01*
X0089347Y0068561D01*
X0089208Y0068626D01*
X0089071Y0068695D01*
X0088936Y0068768D01*
X0088803Y0068844D01*
X0088672Y0068924D01*
X0088543Y0069006D01*
X0088416Y0069093D01*
X0088291Y0069182D01*
X0088169Y0069275D01*
X0088050Y0069371D01*
X0087932Y0069470D01*
X0087818Y0069571D01*
X0087706Y0069676D01*
X0087597Y0069784D01*
X0087491Y0069895D01*
X0087387Y0070008D01*
X0087287Y0070124D01*
X0087189Y0070242D01*
X0087095Y0070363D01*
X0087004Y0070486D01*
X0086916Y0070612D01*
X0086832Y0070740D01*
X0086750Y0070870D01*
X0086673Y0071002D01*
X0086598Y0071136D01*
X0086527Y0071272D01*
X0086460Y0071410D01*
X0086396Y0071550D01*
X0086336Y0071691D01*
X0086280Y0071833D01*
X0086227Y0071977D01*
X0086178Y0072123D01*
X0086133Y0072269D01*
X0086092Y0072417D01*
X0086055Y0072565D01*
X0086021Y0072715D01*
X0085991Y0072866D01*
X0085966Y0073017D01*
X0085944Y0073168D01*
X0085926Y0073321D01*
X0085912Y0073473D01*
X0085902Y0073626D01*
X0085896Y0073780D01*
X0085894Y0073933D01*
X0330894Y0073933D02*
X0330896Y0074086D01*
X0330902Y0074240D01*
X0330912Y0074393D01*
X0330926Y0074545D01*
X0330944Y0074698D01*
X0330966Y0074849D01*
X0330991Y0075000D01*
X0331021Y0075151D01*
X0331055Y0075301D01*
X0331092Y0075449D01*
X0331133Y0075597D01*
X0331178Y0075743D01*
X0331227Y0075889D01*
X0331280Y0076033D01*
X0331336Y0076175D01*
X0331396Y0076316D01*
X0331460Y0076456D01*
X0331527Y0076594D01*
X0331598Y0076730D01*
X0331673Y0076864D01*
X0331750Y0076996D01*
X0331832Y0077126D01*
X0331916Y0077254D01*
X0332004Y0077380D01*
X0332095Y0077503D01*
X0332189Y0077624D01*
X0332287Y0077742D01*
X0332387Y0077858D01*
X0332491Y0077971D01*
X0332597Y0078082D01*
X0332706Y0078190D01*
X0332818Y0078295D01*
X0332932Y0078396D01*
X0333050Y0078495D01*
X0333169Y0078591D01*
X0333291Y0078684D01*
X0333416Y0078773D01*
X0333543Y0078860D01*
X0333672Y0078942D01*
X0333803Y0079022D01*
X0333936Y0079098D01*
X0334071Y0079171D01*
X0334208Y0079240D01*
X0334347Y0079305D01*
X0334487Y0079367D01*
X0334629Y0079425D01*
X0334772Y0079480D01*
X0334917Y0079531D01*
X0335063Y0079578D01*
X0335210Y0079621D01*
X0335358Y0079660D01*
X0335507Y0079696D01*
X0335657Y0079727D01*
X0335808Y0079755D01*
X0335959Y0079779D01*
X0336112Y0079799D01*
X0336264Y0079815D01*
X0336417Y0079827D01*
X0336570Y0079835D01*
X0336723Y0079839D01*
X0336877Y0079839D01*
X0337030Y0079835D01*
X0337183Y0079827D01*
X0337336Y0079815D01*
X0337488Y0079799D01*
X0337641Y0079779D01*
X0337792Y0079755D01*
X0337943Y0079727D01*
X0338093Y0079696D01*
X0338242Y0079660D01*
X0338390Y0079621D01*
X0338537Y0079578D01*
X0338683Y0079531D01*
X0338828Y0079480D01*
X0338971Y0079425D01*
X0339113Y0079367D01*
X0339253Y0079305D01*
X0339392Y0079240D01*
X0339529Y0079171D01*
X0339664Y0079098D01*
X0339797Y0079022D01*
X0339928Y0078942D01*
X0340057Y0078860D01*
X0340184Y0078773D01*
X0340309Y0078684D01*
X0340431Y0078591D01*
X0340550Y0078495D01*
X0340668Y0078396D01*
X0340782Y0078295D01*
X0340894Y0078190D01*
X0341003Y0078082D01*
X0341109Y0077971D01*
X0341213Y0077858D01*
X0341313Y0077742D01*
X0341411Y0077624D01*
X0341505Y0077503D01*
X0341596Y0077380D01*
X0341684Y0077254D01*
X0341768Y0077126D01*
X0341850Y0076996D01*
X0341927Y0076864D01*
X0342002Y0076730D01*
X0342073Y0076594D01*
X0342140Y0076456D01*
X0342204Y0076316D01*
X0342264Y0076175D01*
X0342320Y0076033D01*
X0342373Y0075889D01*
X0342422Y0075743D01*
X0342467Y0075597D01*
X0342508Y0075449D01*
X0342545Y0075301D01*
X0342579Y0075151D01*
X0342609Y0075000D01*
X0342634Y0074849D01*
X0342656Y0074698D01*
X0342674Y0074545D01*
X0342688Y0074393D01*
X0342698Y0074240D01*
X0342704Y0074086D01*
X0342706Y0073933D01*
X0342704Y0073780D01*
X0342698Y0073626D01*
X0342688Y0073473D01*
X0342674Y0073321D01*
X0342656Y0073168D01*
X0342634Y0073017D01*
X0342609Y0072866D01*
X0342579Y0072715D01*
X0342545Y0072565D01*
X0342508Y0072417D01*
X0342467Y0072269D01*
X0342422Y0072123D01*
X0342373Y0071977D01*
X0342320Y0071833D01*
X0342264Y0071691D01*
X0342204Y0071550D01*
X0342140Y0071410D01*
X0342073Y0071272D01*
X0342002Y0071136D01*
X0341927Y0071002D01*
X0341850Y0070870D01*
X0341768Y0070740D01*
X0341684Y0070612D01*
X0341596Y0070486D01*
X0341505Y0070363D01*
X0341411Y0070242D01*
X0341313Y0070124D01*
X0341213Y0070008D01*
X0341109Y0069895D01*
X0341003Y0069784D01*
X0340894Y0069676D01*
X0340782Y0069571D01*
X0340668Y0069470D01*
X0340550Y0069371D01*
X0340431Y0069275D01*
X0340309Y0069182D01*
X0340184Y0069093D01*
X0340057Y0069006D01*
X0339928Y0068924D01*
X0339797Y0068844D01*
X0339664Y0068768D01*
X0339529Y0068695D01*
X0339392Y0068626D01*
X0339253Y0068561D01*
X0339113Y0068499D01*
X0338971Y0068441D01*
X0338828Y0068386D01*
X0338683Y0068335D01*
X0338537Y0068288D01*
X0338390Y0068245D01*
X0338242Y0068206D01*
X0338093Y0068170D01*
X0337943Y0068139D01*
X0337792Y0068111D01*
X0337641Y0068087D01*
X0337488Y0068067D01*
X0337336Y0068051D01*
X0337183Y0068039D01*
X0337030Y0068031D01*
X0336877Y0068027D01*
X0336723Y0068027D01*
X0336570Y0068031D01*
X0336417Y0068039D01*
X0336264Y0068051D01*
X0336112Y0068067D01*
X0335959Y0068087D01*
X0335808Y0068111D01*
X0335657Y0068139D01*
X0335507Y0068170D01*
X0335358Y0068206D01*
X0335210Y0068245D01*
X0335063Y0068288D01*
X0334917Y0068335D01*
X0334772Y0068386D01*
X0334629Y0068441D01*
X0334487Y0068499D01*
X0334347Y0068561D01*
X0334208Y0068626D01*
X0334071Y0068695D01*
X0333936Y0068768D01*
X0333803Y0068844D01*
X0333672Y0068924D01*
X0333543Y0069006D01*
X0333416Y0069093D01*
X0333291Y0069182D01*
X0333169Y0069275D01*
X0333050Y0069371D01*
X0332932Y0069470D01*
X0332818Y0069571D01*
X0332706Y0069676D01*
X0332597Y0069784D01*
X0332491Y0069895D01*
X0332387Y0070008D01*
X0332287Y0070124D01*
X0332189Y0070242D01*
X0332095Y0070363D01*
X0332004Y0070486D01*
X0331916Y0070612D01*
X0331832Y0070740D01*
X0331750Y0070870D01*
X0331673Y0071002D01*
X0331598Y0071136D01*
X0331527Y0071272D01*
X0331460Y0071410D01*
X0331396Y0071550D01*
X0331336Y0071691D01*
X0331280Y0071833D01*
X0331227Y0071977D01*
X0331178Y0072123D01*
X0331133Y0072269D01*
X0331092Y0072417D01*
X0331055Y0072565D01*
X0331021Y0072715D01*
X0330991Y0072866D01*
X0330966Y0073017D01*
X0330944Y0073168D01*
X0330926Y0073321D01*
X0330912Y0073473D01*
X0330902Y0073626D01*
X0330896Y0073780D01*
X0330894Y0073933D01*
X0330894Y0288933D02*
X0330896Y0289086D01*
X0330902Y0289240D01*
X0330912Y0289393D01*
X0330926Y0289545D01*
X0330944Y0289698D01*
X0330966Y0289849D01*
X0330991Y0290000D01*
X0331021Y0290151D01*
X0331055Y0290301D01*
X0331092Y0290449D01*
X0331133Y0290597D01*
X0331178Y0290743D01*
X0331227Y0290889D01*
X0331280Y0291033D01*
X0331336Y0291175D01*
X0331396Y0291316D01*
X0331460Y0291456D01*
X0331527Y0291594D01*
X0331598Y0291730D01*
X0331673Y0291864D01*
X0331750Y0291996D01*
X0331832Y0292126D01*
X0331916Y0292254D01*
X0332004Y0292380D01*
X0332095Y0292503D01*
X0332189Y0292624D01*
X0332287Y0292742D01*
X0332387Y0292858D01*
X0332491Y0292971D01*
X0332597Y0293082D01*
X0332706Y0293190D01*
X0332818Y0293295D01*
X0332932Y0293396D01*
X0333050Y0293495D01*
X0333169Y0293591D01*
X0333291Y0293684D01*
X0333416Y0293773D01*
X0333543Y0293860D01*
X0333672Y0293942D01*
X0333803Y0294022D01*
X0333936Y0294098D01*
X0334071Y0294171D01*
X0334208Y0294240D01*
X0334347Y0294305D01*
X0334487Y0294367D01*
X0334629Y0294425D01*
X0334772Y0294480D01*
X0334917Y0294531D01*
X0335063Y0294578D01*
X0335210Y0294621D01*
X0335358Y0294660D01*
X0335507Y0294696D01*
X0335657Y0294727D01*
X0335808Y0294755D01*
X0335959Y0294779D01*
X0336112Y0294799D01*
X0336264Y0294815D01*
X0336417Y0294827D01*
X0336570Y0294835D01*
X0336723Y0294839D01*
X0336877Y0294839D01*
X0337030Y0294835D01*
X0337183Y0294827D01*
X0337336Y0294815D01*
X0337488Y0294799D01*
X0337641Y0294779D01*
X0337792Y0294755D01*
X0337943Y0294727D01*
X0338093Y0294696D01*
X0338242Y0294660D01*
X0338390Y0294621D01*
X0338537Y0294578D01*
X0338683Y0294531D01*
X0338828Y0294480D01*
X0338971Y0294425D01*
X0339113Y0294367D01*
X0339253Y0294305D01*
X0339392Y0294240D01*
X0339529Y0294171D01*
X0339664Y0294098D01*
X0339797Y0294022D01*
X0339928Y0293942D01*
X0340057Y0293860D01*
X0340184Y0293773D01*
X0340309Y0293684D01*
X0340431Y0293591D01*
X0340550Y0293495D01*
X0340668Y0293396D01*
X0340782Y0293295D01*
X0340894Y0293190D01*
X0341003Y0293082D01*
X0341109Y0292971D01*
X0341213Y0292858D01*
X0341313Y0292742D01*
X0341411Y0292624D01*
X0341505Y0292503D01*
X0341596Y0292380D01*
X0341684Y0292254D01*
X0341768Y0292126D01*
X0341850Y0291996D01*
X0341927Y0291864D01*
X0342002Y0291730D01*
X0342073Y0291594D01*
X0342140Y0291456D01*
X0342204Y0291316D01*
X0342264Y0291175D01*
X0342320Y0291033D01*
X0342373Y0290889D01*
X0342422Y0290743D01*
X0342467Y0290597D01*
X0342508Y0290449D01*
X0342545Y0290301D01*
X0342579Y0290151D01*
X0342609Y0290000D01*
X0342634Y0289849D01*
X0342656Y0289698D01*
X0342674Y0289545D01*
X0342688Y0289393D01*
X0342698Y0289240D01*
X0342704Y0289086D01*
X0342706Y0288933D01*
X0342704Y0288780D01*
X0342698Y0288626D01*
X0342688Y0288473D01*
X0342674Y0288321D01*
X0342656Y0288168D01*
X0342634Y0288017D01*
X0342609Y0287866D01*
X0342579Y0287715D01*
X0342545Y0287565D01*
X0342508Y0287417D01*
X0342467Y0287269D01*
X0342422Y0287123D01*
X0342373Y0286977D01*
X0342320Y0286833D01*
X0342264Y0286691D01*
X0342204Y0286550D01*
X0342140Y0286410D01*
X0342073Y0286272D01*
X0342002Y0286136D01*
X0341927Y0286002D01*
X0341850Y0285870D01*
X0341768Y0285740D01*
X0341684Y0285612D01*
X0341596Y0285486D01*
X0341505Y0285363D01*
X0341411Y0285242D01*
X0341313Y0285124D01*
X0341213Y0285008D01*
X0341109Y0284895D01*
X0341003Y0284784D01*
X0340894Y0284676D01*
X0340782Y0284571D01*
X0340668Y0284470D01*
X0340550Y0284371D01*
X0340431Y0284275D01*
X0340309Y0284182D01*
X0340184Y0284093D01*
X0340057Y0284006D01*
X0339928Y0283924D01*
X0339797Y0283844D01*
X0339664Y0283768D01*
X0339529Y0283695D01*
X0339392Y0283626D01*
X0339253Y0283561D01*
X0339113Y0283499D01*
X0338971Y0283441D01*
X0338828Y0283386D01*
X0338683Y0283335D01*
X0338537Y0283288D01*
X0338390Y0283245D01*
X0338242Y0283206D01*
X0338093Y0283170D01*
X0337943Y0283139D01*
X0337792Y0283111D01*
X0337641Y0283087D01*
X0337488Y0283067D01*
X0337336Y0283051D01*
X0337183Y0283039D01*
X0337030Y0283031D01*
X0336877Y0283027D01*
X0336723Y0283027D01*
X0336570Y0283031D01*
X0336417Y0283039D01*
X0336264Y0283051D01*
X0336112Y0283067D01*
X0335959Y0283087D01*
X0335808Y0283111D01*
X0335657Y0283139D01*
X0335507Y0283170D01*
X0335358Y0283206D01*
X0335210Y0283245D01*
X0335063Y0283288D01*
X0334917Y0283335D01*
X0334772Y0283386D01*
X0334629Y0283441D01*
X0334487Y0283499D01*
X0334347Y0283561D01*
X0334208Y0283626D01*
X0334071Y0283695D01*
X0333936Y0283768D01*
X0333803Y0283844D01*
X0333672Y0283924D01*
X0333543Y0284006D01*
X0333416Y0284093D01*
X0333291Y0284182D01*
X0333169Y0284275D01*
X0333050Y0284371D01*
X0332932Y0284470D01*
X0332818Y0284571D01*
X0332706Y0284676D01*
X0332597Y0284784D01*
X0332491Y0284895D01*
X0332387Y0285008D01*
X0332287Y0285124D01*
X0332189Y0285242D01*
X0332095Y0285363D01*
X0332004Y0285486D01*
X0331916Y0285612D01*
X0331832Y0285740D01*
X0331750Y0285870D01*
X0331673Y0286002D01*
X0331598Y0286136D01*
X0331527Y0286272D01*
X0331460Y0286410D01*
X0331396Y0286550D01*
X0331336Y0286691D01*
X0331280Y0286833D01*
X0331227Y0286977D01*
X0331178Y0287123D01*
X0331133Y0287269D01*
X0331092Y0287417D01*
X0331055Y0287565D01*
X0331021Y0287715D01*
X0330991Y0287866D01*
X0330966Y0288017D01*
X0330944Y0288168D01*
X0330926Y0288321D01*
X0330912Y0288473D01*
X0330902Y0288626D01*
X0330896Y0288780D01*
X0330894Y0288933D01*
X0085894Y0288933D02*
X0085896Y0289086D01*
X0085902Y0289240D01*
X0085912Y0289393D01*
X0085926Y0289545D01*
X0085944Y0289698D01*
X0085966Y0289849D01*
X0085991Y0290000D01*
X0086021Y0290151D01*
X0086055Y0290301D01*
X0086092Y0290449D01*
X0086133Y0290597D01*
X0086178Y0290743D01*
X0086227Y0290889D01*
X0086280Y0291033D01*
X0086336Y0291175D01*
X0086396Y0291316D01*
X0086460Y0291456D01*
X0086527Y0291594D01*
X0086598Y0291730D01*
X0086673Y0291864D01*
X0086750Y0291996D01*
X0086832Y0292126D01*
X0086916Y0292254D01*
X0087004Y0292380D01*
X0087095Y0292503D01*
X0087189Y0292624D01*
X0087287Y0292742D01*
X0087387Y0292858D01*
X0087491Y0292971D01*
X0087597Y0293082D01*
X0087706Y0293190D01*
X0087818Y0293295D01*
X0087932Y0293396D01*
X0088050Y0293495D01*
X0088169Y0293591D01*
X0088291Y0293684D01*
X0088416Y0293773D01*
X0088543Y0293860D01*
X0088672Y0293942D01*
X0088803Y0294022D01*
X0088936Y0294098D01*
X0089071Y0294171D01*
X0089208Y0294240D01*
X0089347Y0294305D01*
X0089487Y0294367D01*
X0089629Y0294425D01*
X0089772Y0294480D01*
X0089917Y0294531D01*
X0090063Y0294578D01*
X0090210Y0294621D01*
X0090358Y0294660D01*
X0090507Y0294696D01*
X0090657Y0294727D01*
X0090808Y0294755D01*
X0090959Y0294779D01*
X0091112Y0294799D01*
X0091264Y0294815D01*
X0091417Y0294827D01*
X0091570Y0294835D01*
X0091723Y0294839D01*
X0091877Y0294839D01*
X0092030Y0294835D01*
X0092183Y0294827D01*
X0092336Y0294815D01*
X0092488Y0294799D01*
X0092641Y0294779D01*
X0092792Y0294755D01*
X0092943Y0294727D01*
X0093093Y0294696D01*
X0093242Y0294660D01*
X0093390Y0294621D01*
X0093537Y0294578D01*
X0093683Y0294531D01*
X0093828Y0294480D01*
X0093971Y0294425D01*
X0094113Y0294367D01*
X0094253Y0294305D01*
X0094392Y0294240D01*
X0094529Y0294171D01*
X0094664Y0294098D01*
X0094797Y0294022D01*
X0094928Y0293942D01*
X0095057Y0293860D01*
X0095184Y0293773D01*
X0095309Y0293684D01*
X0095431Y0293591D01*
X0095550Y0293495D01*
X0095668Y0293396D01*
X0095782Y0293295D01*
X0095894Y0293190D01*
X0096003Y0293082D01*
X0096109Y0292971D01*
X0096213Y0292858D01*
X0096313Y0292742D01*
X0096411Y0292624D01*
X0096505Y0292503D01*
X0096596Y0292380D01*
X0096684Y0292254D01*
X0096768Y0292126D01*
X0096850Y0291996D01*
X0096927Y0291864D01*
X0097002Y0291730D01*
X0097073Y0291594D01*
X0097140Y0291456D01*
X0097204Y0291316D01*
X0097264Y0291175D01*
X0097320Y0291033D01*
X0097373Y0290889D01*
X0097422Y0290743D01*
X0097467Y0290597D01*
X0097508Y0290449D01*
X0097545Y0290301D01*
X0097579Y0290151D01*
X0097609Y0290000D01*
X0097634Y0289849D01*
X0097656Y0289698D01*
X0097674Y0289545D01*
X0097688Y0289393D01*
X0097698Y0289240D01*
X0097704Y0289086D01*
X0097706Y0288933D01*
X0097704Y0288780D01*
X0097698Y0288626D01*
X0097688Y0288473D01*
X0097674Y0288321D01*
X0097656Y0288168D01*
X0097634Y0288017D01*
X0097609Y0287866D01*
X0097579Y0287715D01*
X0097545Y0287565D01*
X0097508Y0287417D01*
X0097467Y0287269D01*
X0097422Y0287123D01*
X0097373Y0286977D01*
X0097320Y0286833D01*
X0097264Y0286691D01*
X0097204Y0286550D01*
X0097140Y0286410D01*
X0097073Y0286272D01*
X0097002Y0286136D01*
X0096927Y0286002D01*
X0096850Y0285870D01*
X0096768Y0285740D01*
X0096684Y0285612D01*
X0096596Y0285486D01*
X0096505Y0285363D01*
X0096411Y0285242D01*
X0096313Y0285124D01*
X0096213Y0285008D01*
X0096109Y0284895D01*
X0096003Y0284784D01*
X0095894Y0284676D01*
X0095782Y0284571D01*
X0095668Y0284470D01*
X0095550Y0284371D01*
X0095431Y0284275D01*
X0095309Y0284182D01*
X0095184Y0284093D01*
X0095057Y0284006D01*
X0094928Y0283924D01*
X0094797Y0283844D01*
X0094664Y0283768D01*
X0094529Y0283695D01*
X0094392Y0283626D01*
X0094253Y0283561D01*
X0094113Y0283499D01*
X0093971Y0283441D01*
X0093828Y0283386D01*
X0093683Y0283335D01*
X0093537Y0283288D01*
X0093390Y0283245D01*
X0093242Y0283206D01*
X0093093Y0283170D01*
X0092943Y0283139D01*
X0092792Y0283111D01*
X0092641Y0283087D01*
X0092488Y0283067D01*
X0092336Y0283051D01*
X0092183Y0283039D01*
X0092030Y0283031D01*
X0091877Y0283027D01*
X0091723Y0283027D01*
X0091570Y0283031D01*
X0091417Y0283039D01*
X0091264Y0283051D01*
X0091112Y0283067D01*
X0090959Y0283087D01*
X0090808Y0283111D01*
X0090657Y0283139D01*
X0090507Y0283170D01*
X0090358Y0283206D01*
X0090210Y0283245D01*
X0090063Y0283288D01*
X0089917Y0283335D01*
X0089772Y0283386D01*
X0089629Y0283441D01*
X0089487Y0283499D01*
X0089347Y0283561D01*
X0089208Y0283626D01*
X0089071Y0283695D01*
X0088936Y0283768D01*
X0088803Y0283844D01*
X0088672Y0283924D01*
X0088543Y0284006D01*
X0088416Y0284093D01*
X0088291Y0284182D01*
X0088169Y0284275D01*
X0088050Y0284371D01*
X0087932Y0284470D01*
X0087818Y0284571D01*
X0087706Y0284676D01*
X0087597Y0284784D01*
X0087491Y0284895D01*
X0087387Y0285008D01*
X0087287Y0285124D01*
X0087189Y0285242D01*
X0087095Y0285363D01*
X0087004Y0285486D01*
X0086916Y0285612D01*
X0086832Y0285740D01*
X0086750Y0285870D01*
X0086673Y0286002D01*
X0086598Y0286136D01*
X0086527Y0286272D01*
X0086460Y0286410D01*
X0086396Y0286550D01*
X0086336Y0286691D01*
X0086280Y0286833D01*
X0086227Y0286977D01*
X0086178Y0287123D01*
X0086133Y0287269D01*
X0086092Y0287417D01*
X0086055Y0287565D01*
X0086021Y0287715D01*
X0085991Y0287866D01*
X0085966Y0288017D01*
X0085944Y0288168D01*
X0085926Y0288321D01*
X0085912Y0288473D01*
X0085902Y0288626D01*
X0085896Y0288780D01*
X0085894Y0288933D01*
D11*
X0116800Y0188697D03*
X0277036Y0093933D03*
X0311800Y0159169D03*
D12*
X0311800Y0169012D03*
X0311800Y0178854D03*
X0311800Y0188697D03*
X0306564Y0093933D03*
X0296721Y0093933D03*
X0286879Y0093933D03*
X0116800Y0159169D03*
X0116800Y0169012D03*
X0116800Y0178854D03*
D13*
X0121800Y0142378D03*
X0126800Y0142378D03*
X0131800Y0142378D03*
X0131800Y0135488D03*
X0126800Y0135488D03*
X0121800Y0135488D03*
X0141800Y0135488D03*
X0146800Y0135488D03*
X0151800Y0135488D03*
X0156800Y0135488D03*
X0156800Y0142378D03*
X0151800Y0142378D03*
X0146800Y0142378D03*
X0141800Y0142378D03*
D14*
X0091800Y0073933D03*
X0336800Y0073933D03*
X0336800Y0288933D03*
X0091800Y0288933D03*
D15*
X0121800Y0126295D03*
X0126131Y0126295D03*
X0130461Y0126295D03*
X0134792Y0126295D03*
X0139123Y0126295D03*
X0143454Y0126295D03*
X0147784Y0126295D03*
X0152115Y0126295D03*
X0155855Y0126295D03*
D16*
X0115698Y0126689D03*
D17*
X0106052Y0068224D03*
D18*
X0159989Y0069996D03*
D19*
X0159989Y0084957D03*
D20*
X0159595Y0109366D03*
M02*
