%
M48
M72
T01C0.01378
T02C0.04000
T03C0.11811
%
T01
X102800Y96433
X127300Y96433
X137394Y99022
X138300Y92433
X152300Y92433
X165300Y92433
X165300Y78933
X151800Y78933
X138300Y78933
X138300Y65433
X151800Y65933
X165300Y65433
X185800Y103433
X186800Y118433
X172300Y126933
X167200Y119333
X163000Y118933
X156300Y121433
X159400Y126133
X148400Y130933
X145800Y121433
X146400Y117333
X141000Y119733
X140800Y109366
X160600Y138133
X153800Y146433
X159300Y152433
X159400Y157333
X163000Y157333
X161988Y173744
X166300Y176433
X171900Y173033
X180700Y167533
X188200Y158533
X187000Y154933
X188200Y148333
X181367Y143622
X174300Y141433
X186300Y130933
X204300Y139433
X213111Y143933
X225300Y139433
X230200Y146533
X237200Y147533
X238800Y152533
X252233Y158618
X252233Y163618
X267800Y155933
X255550Y149683
X262300Y142933
X269366Y146433
X275550Y136933
X271800Y133433
X274300Y130933
X270550Y122933
X270611Y118933
X272800Y114433
X276800Y116334
X272800Y107933
X268300Y103433
X274050Y99433
X281800Y101433
X284300Y88933
X258300Y112433
X250000Y108833
X244300Y103433
X221800Y107533
X215300Y102433
X225300Y118433
X232300Y124933
X216800Y128933
X204300Y118433
X194789Y156933
X192789Y169484
X197800Y169484
X205800Y174733
X207822Y177611
X212200Y178233
X215800Y178033
X222111Y176244
X225400Y177733
X234400Y184333
X245800Y181933
X259800Y181933
X266800Y180433
X277300Y179933
X278300Y172433
X288800Y172933
X289800Y178933
X299800Y179933
X299800Y188933
X289800Y188433
X289800Y196933
X276800Y197433
X276800Y187933
X259800Y194433
X245800Y197433
X236800Y195433
X231800Y197433
X236800Y202333
X222800Y200433
X219800Y197433
X223000Y189733
X219622Y188933
X215800Y189933
X206800Y189733
X210300Y200433
X210300Y206933
X222800Y206933
X197000Y208833
X185300Y204933
X174400Y206533
X151800Y203933
X158900Y179433
X139300Y161933
X133300Y155433
X145800Y151433
X211300Y158433
X212400Y164333
X218200Y158533
X223900Y160833
X236909Y164542
X265800Y209433
X271800Y209433
X257800Y237433
X254200Y237133
X250300Y241433
X246800Y236933
X238300Y236933
X235800Y240933
X232800Y243433
X232700Y237733
X222300Y232933
X215800Y228933
X212800Y233833
X208800Y233433
X205600Y241933
X203300Y245933
X200600Y249033
X199000Y257533
X192300Y260433
X202800Y262433
X207800Y255933
X212300Y255933
X216900Y255233
X220300Y249433
X221600Y243133
X232800Y249433
X234300Y256933
X237300Y260433
X236300Y270433
X231800Y270587
X228800Y283933
X232300Y293933
X221800Y293933
X212300Y293933
X201300Y293933
X204800Y283933
X188200Y270133
X187000Y273733
X181300Y262433
X192300Y245988
X194300Y236422
X180300Y242433
X210189Y244344
X223100Y255633
X215550Y263433
X242300Y245933
X247600Y245533
X249300Y257433
X254800Y255933
X261800Y259933
X266800Y252933
X269800Y249133
X263800Y246733
X288300Y250433
X309800Y260933
X309800Y266433
X296300Y272933
X249800Y267933
X304300Y231433
X320689Y188433
X312800Y150933
X307300Y150933
X330300Y137933
X333800Y138933
X316800Y130933
X303800Y123933
X303800Y115044
X317889Y118933
X337300Y115433
X290300Y123933
X151800Y253433
X155800Y270933
X148300Y273433
X156300Y282933
X147300Y286933
X136300Y286933
X135300Y273433
X174800Y285433
X122800Y231433
T02
X116800Y188697
X116800Y178854
X116800Y169012
X116800Y159169
X277036Y93933
X286879Y93933
X296721Y93933
X306564Y93933
X311800Y159169
X311800Y169012
X311800Y178854
X311800Y188697
T03
X91800Y73933
X336800Y73933
X336800Y288933
X91800Y288933
M30
