G75*
%MOIN*%
%OFA0B0*%
%FSLAX25Y25*%
%IPPOS*%
%LPD*%
%AMOC8*
5,1,8,0,0,1.08239X$1,22.5*
%
%ADD10C,0.00000*%
%ADD11C,0.00512*%
%ADD12C,0.00600*%
%ADD13C,0.00400*%
%ADD14C,0.00300*%
%ADD15C,0.00500*%
%ADD16C,0.00800*%
%ADD17R,0.00800X0.00100*%
%ADD18R,0.01300X0.00100*%
%ADD19R,0.00500X0.00100*%
%ADD20R,0.00600X0.00100*%
%ADD21R,0.01500X0.00100*%
%ADD22R,0.01700X0.00100*%
%ADD23R,0.01900X0.00100*%
%ADD24R,0.02700X0.00100*%
%ADD25R,0.00200X0.00100*%
%ADD26R,0.00700X0.00100*%
%ADD27R,0.00100X0.00100*%
%ADD28R,0.00400X0.00100*%
%ADD29R,0.02100X0.00100*%
%ADD30R,0.00300X0.00100*%
%ADD31R,0.01100X0.00100*%
%ADD32R,0.01000X0.00100*%
%ADD33R,0.01600X0.00100*%
%ADD34R,0.00900X0.00100*%
%ADD35R,0.03100X0.00100*%
%ADD36R,0.02200X0.00100*%
%ADD37R,0.01200X0.00100*%
%ADD38R,0.01800X0.00100*%
%ADD39R,0.04000X0.00100*%
%ADD40R,0.05500X0.00100*%
%ADD41R,0.05400X0.00100*%
%ADD42R,0.02300X0.00100*%
%ADD43R,0.02500X0.00100*%
%ADD44R,0.02600X0.00100*%
%ADD45R,0.02800X0.00100*%
%ADD46R,0.04300X0.00100*%
%ADD47R,0.03200X0.00100*%
%ADD48R,0.04200X0.00100*%
%ADD49R,0.04100X0.00100*%
%ADD50R,0.03500X0.00100*%
%ADD51R,0.05300X0.00100*%
%ADD52R,0.03900X0.00100*%
%ADD53R,0.03800X0.00100*%
%ADD54R,0.05100X0.00100*%
%ADD55R,0.03400X0.00100*%
%ADD56R,0.04900X0.00100*%
%ADD57R,0.04600X0.00100*%
%ADD58R,0.03300X0.00100*%
%ADD59R,0.04700X0.00100*%
%ADD60R,0.05600X0.00100*%
%ADD61R,0.09200X0.00100*%
%ADD62R,0.04800X0.00100*%
%ADD63R,0.09600X0.00100*%
%ADD64R,0.01400X0.00100*%
%ADD65R,0.09400X0.00100*%
%ADD66R,0.05000X0.00100*%
%ADD67R,0.10800X0.00100*%
%ADD68R,0.05200X0.00100*%
%ADD69R,0.05700X0.00100*%
%ADD70R,0.06000X0.00100*%
%ADD71R,0.06100X0.00100*%
%ADD72R,0.03700X0.00100*%
%ADD73R,0.03600X0.00100*%
%ADD74R,0.03000X0.00100*%
%ADD75R,0.02900X0.00100*%
%ADD76R,0.05800X0.00100*%
%ADD77R,0.04400X0.00100*%
%ADD78R,0.10700X0.00100*%
%ADD79R,0.02400X0.00100*%
%ADD80R,0.07100X0.00100*%
%ADD81R,0.04500X0.00100*%
%ADD82R,0.08600X0.00100*%
%ADD83R,0.08500X0.00100*%
%ADD84R,0.08400X0.00100*%
%ADD85R,0.08300X0.00100*%
%ADD86R,0.08100X0.00100*%
%ADD87R,0.08000X0.00100*%
%ADD88R,0.07700X0.00100*%
%ADD89R,0.10100X0.00100*%
%ADD90R,0.07000X0.00100*%
%ADD91R,0.07500X0.00100*%
%ADD92R,0.07600X0.00100*%
%ADD93R,0.05900X0.00100*%
%ADD94R,0.07300X0.00100*%
%ADD95R,0.06800X0.00100*%
%ADD96R,0.11700X0.00100*%
%ADD97R,0.02000X0.00100*%
D10*
X0081800Y0068933D02*
X0081800Y0293933D01*
X0081803Y0294175D01*
X0081812Y0294416D01*
X0081826Y0294657D01*
X0081847Y0294898D01*
X0081873Y0295138D01*
X0081905Y0295378D01*
X0081943Y0295617D01*
X0081986Y0295854D01*
X0082036Y0296091D01*
X0082091Y0296326D01*
X0082151Y0296560D01*
X0082218Y0296792D01*
X0082289Y0297023D01*
X0082367Y0297252D01*
X0082450Y0297479D01*
X0082538Y0297704D01*
X0082632Y0297927D01*
X0082731Y0298147D01*
X0082836Y0298365D01*
X0082945Y0298580D01*
X0083060Y0298793D01*
X0083180Y0299003D01*
X0083305Y0299209D01*
X0083435Y0299413D01*
X0083570Y0299614D01*
X0083710Y0299811D01*
X0083854Y0300005D01*
X0084003Y0300195D01*
X0084157Y0300381D01*
X0084315Y0300564D01*
X0084477Y0300743D01*
X0084644Y0300918D01*
X0084815Y0301089D01*
X0084990Y0301256D01*
X0085169Y0301418D01*
X0085352Y0301576D01*
X0085538Y0301730D01*
X0085728Y0301879D01*
X0085922Y0302023D01*
X0086119Y0302163D01*
X0086320Y0302298D01*
X0086524Y0302428D01*
X0086730Y0302553D01*
X0086940Y0302673D01*
X0087153Y0302788D01*
X0087368Y0302897D01*
X0087586Y0303002D01*
X0087806Y0303101D01*
X0088029Y0303195D01*
X0088254Y0303283D01*
X0088481Y0303366D01*
X0088710Y0303444D01*
X0088941Y0303515D01*
X0089173Y0303582D01*
X0089407Y0303642D01*
X0089642Y0303697D01*
X0089879Y0303747D01*
X0090116Y0303790D01*
X0090355Y0303828D01*
X0090595Y0303860D01*
X0090835Y0303886D01*
X0091076Y0303907D01*
X0091317Y0303921D01*
X0091558Y0303930D01*
X0091800Y0303933D01*
X0336800Y0303933D01*
X0337042Y0303930D01*
X0337283Y0303921D01*
X0337524Y0303907D01*
X0337765Y0303886D01*
X0338005Y0303860D01*
X0338245Y0303828D01*
X0338484Y0303790D01*
X0338721Y0303747D01*
X0338958Y0303697D01*
X0339193Y0303642D01*
X0339427Y0303582D01*
X0339659Y0303515D01*
X0339890Y0303444D01*
X0340119Y0303366D01*
X0340346Y0303283D01*
X0340571Y0303195D01*
X0340794Y0303101D01*
X0341014Y0303002D01*
X0341232Y0302897D01*
X0341447Y0302788D01*
X0341660Y0302673D01*
X0341870Y0302553D01*
X0342076Y0302428D01*
X0342280Y0302298D01*
X0342481Y0302163D01*
X0342678Y0302023D01*
X0342872Y0301879D01*
X0343062Y0301730D01*
X0343248Y0301576D01*
X0343431Y0301418D01*
X0343610Y0301256D01*
X0343785Y0301089D01*
X0343956Y0300918D01*
X0344123Y0300743D01*
X0344285Y0300564D01*
X0344443Y0300381D01*
X0344597Y0300195D01*
X0344746Y0300005D01*
X0344890Y0299811D01*
X0345030Y0299614D01*
X0345165Y0299413D01*
X0345295Y0299209D01*
X0345420Y0299003D01*
X0345540Y0298793D01*
X0345655Y0298580D01*
X0345764Y0298365D01*
X0345869Y0298147D01*
X0345968Y0297927D01*
X0346062Y0297704D01*
X0346150Y0297479D01*
X0346233Y0297252D01*
X0346311Y0297023D01*
X0346382Y0296792D01*
X0346449Y0296560D01*
X0346509Y0296326D01*
X0346564Y0296091D01*
X0346614Y0295854D01*
X0346657Y0295617D01*
X0346695Y0295378D01*
X0346727Y0295138D01*
X0346753Y0294898D01*
X0346774Y0294657D01*
X0346788Y0294416D01*
X0346797Y0294175D01*
X0346800Y0293933D01*
X0346800Y0068933D01*
X0346859Y0068751D01*
X0346912Y0068568D01*
X0346962Y0068383D01*
X0347007Y0068198D01*
X0347047Y0068011D01*
X0347083Y0067823D01*
X0347114Y0067635D01*
X0347141Y0067446D01*
X0347163Y0067256D01*
X0347181Y0067066D01*
X0347194Y0066875D01*
X0347202Y0066684D01*
X0347206Y0066493D01*
X0347205Y0066302D01*
X0347199Y0066111D01*
X0347189Y0065920D01*
X0347175Y0065730D01*
X0347155Y0065540D01*
X0347131Y0065350D01*
X0347103Y0065161D01*
X0347070Y0064973D01*
X0347032Y0064786D01*
X0346990Y0064599D01*
X0346944Y0064414D01*
X0346893Y0064230D01*
X0346837Y0064047D01*
X0346778Y0063866D01*
X0346713Y0063686D01*
X0346645Y0063507D01*
X0346572Y0063331D01*
X0346495Y0063156D01*
X0346414Y0062983D01*
X0346328Y0062812D01*
X0346239Y0062643D01*
X0346145Y0062477D01*
X0346047Y0062313D01*
X0345946Y0062151D01*
X0345840Y0061991D01*
X0345731Y0061835D01*
X0345618Y0061681D01*
X0345502Y0061529D01*
X0345381Y0061381D01*
X0345257Y0061235D01*
X0345130Y0061093D01*
X0344999Y0060954D01*
X0344865Y0060818D01*
X0344728Y0060685D01*
X0344587Y0060555D01*
X0344444Y0060429D01*
X0344297Y0060307D01*
X0344148Y0060188D01*
X0343995Y0060072D01*
X0343840Y0059961D01*
X0343683Y0059853D01*
X0343522Y0059749D01*
X0343360Y0059649D01*
X0343195Y0059553D01*
X0343027Y0059461D01*
X0342858Y0059373D01*
X0342686Y0059289D01*
X0342512Y0059209D01*
X0342337Y0059134D01*
X0342160Y0059062D01*
X0341981Y0058995D01*
X0341800Y0058933D01*
X0091800Y0058933D01*
X0091558Y0058936D01*
X0091317Y0058945D01*
X0091076Y0058959D01*
X0090835Y0058980D01*
X0090595Y0059006D01*
X0090355Y0059038D01*
X0090116Y0059076D01*
X0089879Y0059119D01*
X0089642Y0059169D01*
X0089407Y0059224D01*
X0089173Y0059284D01*
X0088941Y0059351D01*
X0088710Y0059422D01*
X0088481Y0059500D01*
X0088254Y0059583D01*
X0088029Y0059671D01*
X0087806Y0059765D01*
X0087586Y0059864D01*
X0087368Y0059969D01*
X0087153Y0060078D01*
X0086940Y0060193D01*
X0086730Y0060313D01*
X0086524Y0060438D01*
X0086320Y0060568D01*
X0086119Y0060703D01*
X0085922Y0060843D01*
X0085728Y0060987D01*
X0085538Y0061136D01*
X0085352Y0061290D01*
X0085169Y0061448D01*
X0084990Y0061610D01*
X0084815Y0061777D01*
X0084644Y0061948D01*
X0084477Y0062123D01*
X0084315Y0062302D01*
X0084157Y0062485D01*
X0084003Y0062671D01*
X0083854Y0062861D01*
X0083710Y0063055D01*
X0083570Y0063252D01*
X0083435Y0063453D01*
X0083305Y0063657D01*
X0083180Y0063863D01*
X0083060Y0064073D01*
X0082945Y0064286D01*
X0082836Y0064501D01*
X0082731Y0064719D01*
X0082632Y0064939D01*
X0082538Y0065162D01*
X0082450Y0065387D01*
X0082367Y0065614D01*
X0082289Y0065843D01*
X0082218Y0066074D01*
X0082151Y0066306D01*
X0082091Y0066540D01*
X0082036Y0066775D01*
X0081986Y0067012D01*
X0081943Y0067249D01*
X0081905Y0067488D01*
X0081873Y0067728D01*
X0081847Y0067968D01*
X0081826Y0068209D01*
X0081812Y0068450D01*
X0081803Y0068691D01*
X0081800Y0068933D01*
X0085894Y0073933D02*
X0085896Y0074086D01*
X0085902Y0074240D01*
X0085912Y0074393D01*
X0085926Y0074545D01*
X0085944Y0074698D01*
X0085966Y0074849D01*
X0085991Y0075000D01*
X0086021Y0075151D01*
X0086055Y0075301D01*
X0086092Y0075449D01*
X0086133Y0075597D01*
X0086178Y0075743D01*
X0086227Y0075889D01*
X0086280Y0076033D01*
X0086336Y0076175D01*
X0086396Y0076316D01*
X0086460Y0076456D01*
X0086527Y0076594D01*
X0086598Y0076730D01*
X0086673Y0076864D01*
X0086750Y0076996D01*
X0086832Y0077126D01*
X0086916Y0077254D01*
X0087004Y0077380D01*
X0087095Y0077503D01*
X0087189Y0077624D01*
X0087287Y0077742D01*
X0087387Y0077858D01*
X0087491Y0077971D01*
X0087597Y0078082D01*
X0087706Y0078190D01*
X0087818Y0078295D01*
X0087932Y0078396D01*
X0088050Y0078495D01*
X0088169Y0078591D01*
X0088291Y0078684D01*
X0088416Y0078773D01*
X0088543Y0078860D01*
X0088672Y0078942D01*
X0088803Y0079022D01*
X0088936Y0079098D01*
X0089071Y0079171D01*
X0089208Y0079240D01*
X0089347Y0079305D01*
X0089487Y0079367D01*
X0089629Y0079425D01*
X0089772Y0079480D01*
X0089917Y0079531D01*
X0090063Y0079578D01*
X0090210Y0079621D01*
X0090358Y0079660D01*
X0090507Y0079696D01*
X0090657Y0079727D01*
X0090808Y0079755D01*
X0090959Y0079779D01*
X0091112Y0079799D01*
X0091264Y0079815D01*
X0091417Y0079827D01*
X0091570Y0079835D01*
X0091723Y0079839D01*
X0091877Y0079839D01*
X0092030Y0079835D01*
X0092183Y0079827D01*
X0092336Y0079815D01*
X0092488Y0079799D01*
X0092641Y0079779D01*
X0092792Y0079755D01*
X0092943Y0079727D01*
X0093093Y0079696D01*
X0093242Y0079660D01*
X0093390Y0079621D01*
X0093537Y0079578D01*
X0093683Y0079531D01*
X0093828Y0079480D01*
X0093971Y0079425D01*
X0094113Y0079367D01*
X0094253Y0079305D01*
X0094392Y0079240D01*
X0094529Y0079171D01*
X0094664Y0079098D01*
X0094797Y0079022D01*
X0094928Y0078942D01*
X0095057Y0078860D01*
X0095184Y0078773D01*
X0095309Y0078684D01*
X0095431Y0078591D01*
X0095550Y0078495D01*
X0095668Y0078396D01*
X0095782Y0078295D01*
X0095894Y0078190D01*
X0096003Y0078082D01*
X0096109Y0077971D01*
X0096213Y0077858D01*
X0096313Y0077742D01*
X0096411Y0077624D01*
X0096505Y0077503D01*
X0096596Y0077380D01*
X0096684Y0077254D01*
X0096768Y0077126D01*
X0096850Y0076996D01*
X0096927Y0076864D01*
X0097002Y0076730D01*
X0097073Y0076594D01*
X0097140Y0076456D01*
X0097204Y0076316D01*
X0097264Y0076175D01*
X0097320Y0076033D01*
X0097373Y0075889D01*
X0097422Y0075743D01*
X0097467Y0075597D01*
X0097508Y0075449D01*
X0097545Y0075301D01*
X0097579Y0075151D01*
X0097609Y0075000D01*
X0097634Y0074849D01*
X0097656Y0074698D01*
X0097674Y0074545D01*
X0097688Y0074393D01*
X0097698Y0074240D01*
X0097704Y0074086D01*
X0097706Y0073933D01*
X0097704Y0073780D01*
X0097698Y0073626D01*
X0097688Y0073473D01*
X0097674Y0073321D01*
X0097656Y0073168D01*
X0097634Y0073017D01*
X0097609Y0072866D01*
X0097579Y0072715D01*
X0097545Y0072565D01*
X0097508Y0072417D01*
X0097467Y0072269D01*
X0097422Y0072123D01*
X0097373Y0071977D01*
X0097320Y0071833D01*
X0097264Y0071691D01*
X0097204Y0071550D01*
X0097140Y0071410D01*
X0097073Y0071272D01*
X0097002Y0071136D01*
X0096927Y0071002D01*
X0096850Y0070870D01*
X0096768Y0070740D01*
X0096684Y0070612D01*
X0096596Y0070486D01*
X0096505Y0070363D01*
X0096411Y0070242D01*
X0096313Y0070124D01*
X0096213Y0070008D01*
X0096109Y0069895D01*
X0096003Y0069784D01*
X0095894Y0069676D01*
X0095782Y0069571D01*
X0095668Y0069470D01*
X0095550Y0069371D01*
X0095431Y0069275D01*
X0095309Y0069182D01*
X0095184Y0069093D01*
X0095057Y0069006D01*
X0094928Y0068924D01*
X0094797Y0068844D01*
X0094664Y0068768D01*
X0094529Y0068695D01*
X0094392Y0068626D01*
X0094253Y0068561D01*
X0094113Y0068499D01*
X0093971Y0068441D01*
X0093828Y0068386D01*
X0093683Y0068335D01*
X0093537Y0068288D01*
X0093390Y0068245D01*
X0093242Y0068206D01*
X0093093Y0068170D01*
X0092943Y0068139D01*
X0092792Y0068111D01*
X0092641Y0068087D01*
X0092488Y0068067D01*
X0092336Y0068051D01*
X0092183Y0068039D01*
X0092030Y0068031D01*
X0091877Y0068027D01*
X0091723Y0068027D01*
X0091570Y0068031D01*
X0091417Y0068039D01*
X0091264Y0068051D01*
X0091112Y0068067D01*
X0090959Y0068087D01*
X0090808Y0068111D01*
X0090657Y0068139D01*
X0090507Y0068170D01*
X0090358Y0068206D01*
X0090210Y0068245D01*
X0090063Y0068288D01*
X0089917Y0068335D01*
X0089772Y0068386D01*
X0089629Y0068441D01*
X0089487Y0068499D01*
X0089347Y0068561D01*
X0089208Y0068626D01*
X0089071Y0068695D01*
X0088936Y0068768D01*
X0088803Y0068844D01*
X0088672Y0068924D01*
X0088543Y0069006D01*
X0088416Y0069093D01*
X0088291Y0069182D01*
X0088169Y0069275D01*
X0088050Y0069371D01*
X0087932Y0069470D01*
X0087818Y0069571D01*
X0087706Y0069676D01*
X0087597Y0069784D01*
X0087491Y0069895D01*
X0087387Y0070008D01*
X0087287Y0070124D01*
X0087189Y0070242D01*
X0087095Y0070363D01*
X0087004Y0070486D01*
X0086916Y0070612D01*
X0086832Y0070740D01*
X0086750Y0070870D01*
X0086673Y0071002D01*
X0086598Y0071136D01*
X0086527Y0071272D01*
X0086460Y0071410D01*
X0086396Y0071550D01*
X0086336Y0071691D01*
X0086280Y0071833D01*
X0086227Y0071977D01*
X0086178Y0072123D01*
X0086133Y0072269D01*
X0086092Y0072417D01*
X0086055Y0072565D01*
X0086021Y0072715D01*
X0085991Y0072866D01*
X0085966Y0073017D01*
X0085944Y0073168D01*
X0085926Y0073321D01*
X0085912Y0073473D01*
X0085902Y0073626D01*
X0085896Y0073780D01*
X0085894Y0073933D01*
X0330894Y0073933D02*
X0330896Y0074086D01*
X0330902Y0074240D01*
X0330912Y0074393D01*
X0330926Y0074545D01*
X0330944Y0074698D01*
X0330966Y0074849D01*
X0330991Y0075000D01*
X0331021Y0075151D01*
X0331055Y0075301D01*
X0331092Y0075449D01*
X0331133Y0075597D01*
X0331178Y0075743D01*
X0331227Y0075889D01*
X0331280Y0076033D01*
X0331336Y0076175D01*
X0331396Y0076316D01*
X0331460Y0076456D01*
X0331527Y0076594D01*
X0331598Y0076730D01*
X0331673Y0076864D01*
X0331750Y0076996D01*
X0331832Y0077126D01*
X0331916Y0077254D01*
X0332004Y0077380D01*
X0332095Y0077503D01*
X0332189Y0077624D01*
X0332287Y0077742D01*
X0332387Y0077858D01*
X0332491Y0077971D01*
X0332597Y0078082D01*
X0332706Y0078190D01*
X0332818Y0078295D01*
X0332932Y0078396D01*
X0333050Y0078495D01*
X0333169Y0078591D01*
X0333291Y0078684D01*
X0333416Y0078773D01*
X0333543Y0078860D01*
X0333672Y0078942D01*
X0333803Y0079022D01*
X0333936Y0079098D01*
X0334071Y0079171D01*
X0334208Y0079240D01*
X0334347Y0079305D01*
X0334487Y0079367D01*
X0334629Y0079425D01*
X0334772Y0079480D01*
X0334917Y0079531D01*
X0335063Y0079578D01*
X0335210Y0079621D01*
X0335358Y0079660D01*
X0335507Y0079696D01*
X0335657Y0079727D01*
X0335808Y0079755D01*
X0335959Y0079779D01*
X0336112Y0079799D01*
X0336264Y0079815D01*
X0336417Y0079827D01*
X0336570Y0079835D01*
X0336723Y0079839D01*
X0336877Y0079839D01*
X0337030Y0079835D01*
X0337183Y0079827D01*
X0337336Y0079815D01*
X0337488Y0079799D01*
X0337641Y0079779D01*
X0337792Y0079755D01*
X0337943Y0079727D01*
X0338093Y0079696D01*
X0338242Y0079660D01*
X0338390Y0079621D01*
X0338537Y0079578D01*
X0338683Y0079531D01*
X0338828Y0079480D01*
X0338971Y0079425D01*
X0339113Y0079367D01*
X0339253Y0079305D01*
X0339392Y0079240D01*
X0339529Y0079171D01*
X0339664Y0079098D01*
X0339797Y0079022D01*
X0339928Y0078942D01*
X0340057Y0078860D01*
X0340184Y0078773D01*
X0340309Y0078684D01*
X0340431Y0078591D01*
X0340550Y0078495D01*
X0340668Y0078396D01*
X0340782Y0078295D01*
X0340894Y0078190D01*
X0341003Y0078082D01*
X0341109Y0077971D01*
X0341213Y0077858D01*
X0341313Y0077742D01*
X0341411Y0077624D01*
X0341505Y0077503D01*
X0341596Y0077380D01*
X0341684Y0077254D01*
X0341768Y0077126D01*
X0341850Y0076996D01*
X0341927Y0076864D01*
X0342002Y0076730D01*
X0342073Y0076594D01*
X0342140Y0076456D01*
X0342204Y0076316D01*
X0342264Y0076175D01*
X0342320Y0076033D01*
X0342373Y0075889D01*
X0342422Y0075743D01*
X0342467Y0075597D01*
X0342508Y0075449D01*
X0342545Y0075301D01*
X0342579Y0075151D01*
X0342609Y0075000D01*
X0342634Y0074849D01*
X0342656Y0074698D01*
X0342674Y0074545D01*
X0342688Y0074393D01*
X0342698Y0074240D01*
X0342704Y0074086D01*
X0342706Y0073933D01*
X0342704Y0073780D01*
X0342698Y0073626D01*
X0342688Y0073473D01*
X0342674Y0073321D01*
X0342656Y0073168D01*
X0342634Y0073017D01*
X0342609Y0072866D01*
X0342579Y0072715D01*
X0342545Y0072565D01*
X0342508Y0072417D01*
X0342467Y0072269D01*
X0342422Y0072123D01*
X0342373Y0071977D01*
X0342320Y0071833D01*
X0342264Y0071691D01*
X0342204Y0071550D01*
X0342140Y0071410D01*
X0342073Y0071272D01*
X0342002Y0071136D01*
X0341927Y0071002D01*
X0341850Y0070870D01*
X0341768Y0070740D01*
X0341684Y0070612D01*
X0341596Y0070486D01*
X0341505Y0070363D01*
X0341411Y0070242D01*
X0341313Y0070124D01*
X0341213Y0070008D01*
X0341109Y0069895D01*
X0341003Y0069784D01*
X0340894Y0069676D01*
X0340782Y0069571D01*
X0340668Y0069470D01*
X0340550Y0069371D01*
X0340431Y0069275D01*
X0340309Y0069182D01*
X0340184Y0069093D01*
X0340057Y0069006D01*
X0339928Y0068924D01*
X0339797Y0068844D01*
X0339664Y0068768D01*
X0339529Y0068695D01*
X0339392Y0068626D01*
X0339253Y0068561D01*
X0339113Y0068499D01*
X0338971Y0068441D01*
X0338828Y0068386D01*
X0338683Y0068335D01*
X0338537Y0068288D01*
X0338390Y0068245D01*
X0338242Y0068206D01*
X0338093Y0068170D01*
X0337943Y0068139D01*
X0337792Y0068111D01*
X0337641Y0068087D01*
X0337488Y0068067D01*
X0337336Y0068051D01*
X0337183Y0068039D01*
X0337030Y0068031D01*
X0336877Y0068027D01*
X0336723Y0068027D01*
X0336570Y0068031D01*
X0336417Y0068039D01*
X0336264Y0068051D01*
X0336112Y0068067D01*
X0335959Y0068087D01*
X0335808Y0068111D01*
X0335657Y0068139D01*
X0335507Y0068170D01*
X0335358Y0068206D01*
X0335210Y0068245D01*
X0335063Y0068288D01*
X0334917Y0068335D01*
X0334772Y0068386D01*
X0334629Y0068441D01*
X0334487Y0068499D01*
X0334347Y0068561D01*
X0334208Y0068626D01*
X0334071Y0068695D01*
X0333936Y0068768D01*
X0333803Y0068844D01*
X0333672Y0068924D01*
X0333543Y0069006D01*
X0333416Y0069093D01*
X0333291Y0069182D01*
X0333169Y0069275D01*
X0333050Y0069371D01*
X0332932Y0069470D01*
X0332818Y0069571D01*
X0332706Y0069676D01*
X0332597Y0069784D01*
X0332491Y0069895D01*
X0332387Y0070008D01*
X0332287Y0070124D01*
X0332189Y0070242D01*
X0332095Y0070363D01*
X0332004Y0070486D01*
X0331916Y0070612D01*
X0331832Y0070740D01*
X0331750Y0070870D01*
X0331673Y0071002D01*
X0331598Y0071136D01*
X0331527Y0071272D01*
X0331460Y0071410D01*
X0331396Y0071550D01*
X0331336Y0071691D01*
X0331280Y0071833D01*
X0331227Y0071977D01*
X0331178Y0072123D01*
X0331133Y0072269D01*
X0331092Y0072417D01*
X0331055Y0072565D01*
X0331021Y0072715D01*
X0330991Y0072866D01*
X0330966Y0073017D01*
X0330944Y0073168D01*
X0330926Y0073321D01*
X0330912Y0073473D01*
X0330902Y0073626D01*
X0330896Y0073780D01*
X0330894Y0073933D01*
X0330894Y0288933D02*
X0330896Y0289086D01*
X0330902Y0289240D01*
X0330912Y0289393D01*
X0330926Y0289545D01*
X0330944Y0289698D01*
X0330966Y0289849D01*
X0330991Y0290000D01*
X0331021Y0290151D01*
X0331055Y0290301D01*
X0331092Y0290449D01*
X0331133Y0290597D01*
X0331178Y0290743D01*
X0331227Y0290889D01*
X0331280Y0291033D01*
X0331336Y0291175D01*
X0331396Y0291316D01*
X0331460Y0291456D01*
X0331527Y0291594D01*
X0331598Y0291730D01*
X0331673Y0291864D01*
X0331750Y0291996D01*
X0331832Y0292126D01*
X0331916Y0292254D01*
X0332004Y0292380D01*
X0332095Y0292503D01*
X0332189Y0292624D01*
X0332287Y0292742D01*
X0332387Y0292858D01*
X0332491Y0292971D01*
X0332597Y0293082D01*
X0332706Y0293190D01*
X0332818Y0293295D01*
X0332932Y0293396D01*
X0333050Y0293495D01*
X0333169Y0293591D01*
X0333291Y0293684D01*
X0333416Y0293773D01*
X0333543Y0293860D01*
X0333672Y0293942D01*
X0333803Y0294022D01*
X0333936Y0294098D01*
X0334071Y0294171D01*
X0334208Y0294240D01*
X0334347Y0294305D01*
X0334487Y0294367D01*
X0334629Y0294425D01*
X0334772Y0294480D01*
X0334917Y0294531D01*
X0335063Y0294578D01*
X0335210Y0294621D01*
X0335358Y0294660D01*
X0335507Y0294696D01*
X0335657Y0294727D01*
X0335808Y0294755D01*
X0335959Y0294779D01*
X0336112Y0294799D01*
X0336264Y0294815D01*
X0336417Y0294827D01*
X0336570Y0294835D01*
X0336723Y0294839D01*
X0336877Y0294839D01*
X0337030Y0294835D01*
X0337183Y0294827D01*
X0337336Y0294815D01*
X0337488Y0294799D01*
X0337641Y0294779D01*
X0337792Y0294755D01*
X0337943Y0294727D01*
X0338093Y0294696D01*
X0338242Y0294660D01*
X0338390Y0294621D01*
X0338537Y0294578D01*
X0338683Y0294531D01*
X0338828Y0294480D01*
X0338971Y0294425D01*
X0339113Y0294367D01*
X0339253Y0294305D01*
X0339392Y0294240D01*
X0339529Y0294171D01*
X0339664Y0294098D01*
X0339797Y0294022D01*
X0339928Y0293942D01*
X0340057Y0293860D01*
X0340184Y0293773D01*
X0340309Y0293684D01*
X0340431Y0293591D01*
X0340550Y0293495D01*
X0340668Y0293396D01*
X0340782Y0293295D01*
X0340894Y0293190D01*
X0341003Y0293082D01*
X0341109Y0292971D01*
X0341213Y0292858D01*
X0341313Y0292742D01*
X0341411Y0292624D01*
X0341505Y0292503D01*
X0341596Y0292380D01*
X0341684Y0292254D01*
X0341768Y0292126D01*
X0341850Y0291996D01*
X0341927Y0291864D01*
X0342002Y0291730D01*
X0342073Y0291594D01*
X0342140Y0291456D01*
X0342204Y0291316D01*
X0342264Y0291175D01*
X0342320Y0291033D01*
X0342373Y0290889D01*
X0342422Y0290743D01*
X0342467Y0290597D01*
X0342508Y0290449D01*
X0342545Y0290301D01*
X0342579Y0290151D01*
X0342609Y0290000D01*
X0342634Y0289849D01*
X0342656Y0289698D01*
X0342674Y0289545D01*
X0342688Y0289393D01*
X0342698Y0289240D01*
X0342704Y0289086D01*
X0342706Y0288933D01*
X0342704Y0288780D01*
X0342698Y0288626D01*
X0342688Y0288473D01*
X0342674Y0288321D01*
X0342656Y0288168D01*
X0342634Y0288017D01*
X0342609Y0287866D01*
X0342579Y0287715D01*
X0342545Y0287565D01*
X0342508Y0287417D01*
X0342467Y0287269D01*
X0342422Y0287123D01*
X0342373Y0286977D01*
X0342320Y0286833D01*
X0342264Y0286691D01*
X0342204Y0286550D01*
X0342140Y0286410D01*
X0342073Y0286272D01*
X0342002Y0286136D01*
X0341927Y0286002D01*
X0341850Y0285870D01*
X0341768Y0285740D01*
X0341684Y0285612D01*
X0341596Y0285486D01*
X0341505Y0285363D01*
X0341411Y0285242D01*
X0341313Y0285124D01*
X0341213Y0285008D01*
X0341109Y0284895D01*
X0341003Y0284784D01*
X0340894Y0284676D01*
X0340782Y0284571D01*
X0340668Y0284470D01*
X0340550Y0284371D01*
X0340431Y0284275D01*
X0340309Y0284182D01*
X0340184Y0284093D01*
X0340057Y0284006D01*
X0339928Y0283924D01*
X0339797Y0283844D01*
X0339664Y0283768D01*
X0339529Y0283695D01*
X0339392Y0283626D01*
X0339253Y0283561D01*
X0339113Y0283499D01*
X0338971Y0283441D01*
X0338828Y0283386D01*
X0338683Y0283335D01*
X0338537Y0283288D01*
X0338390Y0283245D01*
X0338242Y0283206D01*
X0338093Y0283170D01*
X0337943Y0283139D01*
X0337792Y0283111D01*
X0337641Y0283087D01*
X0337488Y0283067D01*
X0337336Y0283051D01*
X0337183Y0283039D01*
X0337030Y0283031D01*
X0336877Y0283027D01*
X0336723Y0283027D01*
X0336570Y0283031D01*
X0336417Y0283039D01*
X0336264Y0283051D01*
X0336112Y0283067D01*
X0335959Y0283087D01*
X0335808Y0283111D01*
X0335657Y0283139D01*
X0335507Y0283170D01*
X0335358Y0283206D01*
X0335210Y0283245D01*
X0335063Y0283288D01*
X0334917Y0283335D01*
X0334772Y0283386D01*
X0334629Y0283441D01*
X0334487Y0283499D01*
X0334347Y0283561D01*
X0334208Y0283626D01*
X0334071Y0283695D01*
X0333936Y0283768D01*
X0333803Y0283844D01*
X0333672Y0283924D01*
X0333543Y0284006D01*
X0333416Y0284093D01*
X0333291Y0284182D01*
X0333169Y0284275D01*
X0333050Y0284371D01*
X0332932Y0284470D01*
X0332818Y0284571D01*
X0332706Y0284676D01*
X0332597Y0284784D01*
X0332491Y0284895D01*
X0332387Y0285008D01*
X0332287Y0285124D01*
X0332189Y0285242D01*
X0332095Y0285363D01*
X0332004Y0285486D01*
X0331916Y0285612D01*
X0331832Y0285740D01*
X0331750Y0285870D01*
X0331673Y0286002D01*
X0331598Y0286136D01*
X0331527Y0286272D01*
X0331460Y0286410D01*
X0331396Y0286550D01*
X0331336Y0286691D01*
X0331280Y0286833D01*
X0331227Y0286977D01*
X0331178Y0287123D01*
X0331133Y0287269D01*
X0331092Y0287417D01*
X0331055Y0287565D01*
X0331021Y0287715D01*
X0330991Y0287866D01*
X0330966Y0288017D01*
X0330944Y0288168D01*
X0330926Y0288321D01*
X0330912Y0288473D01*
X0330902Y0288626D01*
X0330896Y0288780D01*
X0330894Y0288933D01*
X0085894Y0288933D02*
X0085896Y0289086D01*
X0085902Y0289240D01*
X0085912Y0289393D01*
X0085926Y0289545D01*
X0085944Y0289698D01*
X0085966Y0289849D01*
X0085991Y0290000D01*
X0086021Y0290151D01*
X0086055Y0290301D01*
X0086092Y0290449D01*
X0086133Y0290597D01*
X0086178Y0290743D01*
X0086227Y0290889D01*
X0086280Y0291033D01*
X0086336Y0291175D01*
X0086396Y0291316D01*
X0086460Y0291456D01*
X0086527Y0291594D01*
X0086598Y0291730D01*
X0086673Y0291864D01*
X0086750Y0291996D01*
X0086832Y0292126D01*
X0086916Y0292254D01*
X0087004Y0292380D01*
X0087095Y0292503D01*
X0087189Y0292624D01*
X0087287Y0292742D01*
X0087387Y0292858D01*
X0087491Y0292971D01*
X0087597Y0293082D01*
X0087706Y0293190D01*
X0087818Y0293295D01*
X0087932Y0293396D01*
X0088050Y0293495D01*
X0088169Y0293591D01*
X0088291Y0293684D01*
X0088416Y0293773D01*
X0088543Y0293860D01*
X0088672Y0293942D01*
X0088803Y0294022D01*
X0088936Y0294098D01*
X0089071Y0294171D01*
X0089208Y0294240D01*
X0089347Y0294305D01*
X0089487Y0294367D01*
X0089629Y0294425D01*
X0089772Y0294480D01*
X0089917Y0294531D01*
X0090063Y0294578D01*
X0090210Y0294621D01*
X0090358Y0294660D01*
X0090507Y0294696D01*
X0090657Y0294727D01*
X0090808Y0294755D01*
X0090959Y0294779D01*
X0091112Y0294799D01*
X0091264Y0294815D01*
X0091417Y0294827D01*
X0091570Y0294835D01*
X0091723Y0294839D01*
X0091877Y0294839D01*
X0092030Y0294835D01*
X0092183Y0294827D01*
X0092336Y0294815D01*
X0092488Y0294799D01*
X0092641Y0294779D01*
X0092792Y0294755D01*
X0092943Y0294727D01*
X0093093Y0294696D01*
X0093242Y0294660D01*
X0093390Y0294621D01*
X0093537Y0294578D01*
X0093683Y0294531D01*
X0093828Y0294480D01*
X0093971Y0294425D01*
X0094113Y0294367D01*
X0094253Y0294305D01*
X0094392Y0294240D01*
X0094529Y0294171D01*
X0094664Y0294098D01*
X0094797Y0294022D01*
X0094928Y0293942D01*
X0095057Y0293860D01*
X0095184Y0293773D01*
X0095309Y0293684D01*
X0095431Y0293591D01*
X0095550Y0293495D01*
X0095668Y0293396D01*
X0095782Y0293295D01*
X0095894Y0293190D01*
X0096003Y0293082D01*
X0096109Y0292971D01*
X0096213Y0292858D01*
X0096313Y0292742D01*
X0096411Y0292624D01*
X0096505Y0292503D01*
X0096596Y0292380D01*
X0096684Y0292254D01*
X0096768Y0292126D01*
X0096850Y0291996D01*
X0096927Y0291864D01*
X0097002Y0291730D01*
X0097073Y0291594D01*
X0097140Y0291456D01*
X0097204Y0291316D01*
X0097264Y0291175D01*
X0097320Y0291033D01*
X0097373Y0290889D01*
X0097422Y0290743D01*
X0097467Y0290597D01*
X0097508Y0290449D01*
X0097545Y0290301D01*
X0097579Y0290151D01*
X0097609Y0290000D01*
X0097634Y0289849D01*
X0097656Y0289698D01*
X0097674Y0289545D01*
X0097688Y0289393D01*
X0097698Y0289240D01*
X0097704Y0289086D01*
X0097706Y0288933D01*
X0097704Y0288780D01*
X0097698Y0288626D01*
X0097688Y0288473D01*
X0097674Y0288321D01*
X0097656Y0288168D01*
X0097634Y0288017D01*
X0097609Y0287866D01*
X0097579Y0287715D01*
X0097545Y0287565D01*
X0097508Y0287417D01*
X0097467Y0287269D01*
X0097422Y0287123D01*
X0097373Y0286977D01*
X0097320Y0286833D01*
X0097264Y0286691D01*
X0097204Y0286550D01*
X0097140Y0286410D01*
X0097073Y0286272D01*
X0097002Y0286136D01*
X0096927Y0286002D01*
X0096850Y0285870D01*
X0096768Y0285740D01*
X0096684Y0285612D01*
X0096596Y0285486D01*
X0096505Y0285363D01*
X0096411Y0285242D01*
X0096313Y0285124D01*
X0096213Y0285008D01*
X0096109Y0284895D01*
X0096003Y0284784D01*
X0095894Y0284676D01*
X0095782Y0284571D01*
X0095668Y0284470D01*
X0095550Y0284371D01*
X0095431Y0284275D01*
X0095309Y0284182D01*
X0095184Y0284093D01*
X0095057Y0284006D01*
X0094928Y0283924D01*
X0094797Y0283844D01*
X0094664Y0283768D01*
X0094529Y0283695D01*
X0094392Y0283626D01*
X0094253Y0283561D01*
X0094113Y0283499D01*
X0093971Y0283441D01*
X0093828Y0283386D01*
X0093683Y0283335D01*
X0093537Y0283288D01*
X0093390Y0283245D01*
X0093242Y0283206D01*
X0093093Y0283170D01*
X0092943Y0283139D01*
X0092792Y0283111D01*
X0092641Y0283087D01*
X0092488Y0283067D01*
X0092336Y0283051D01*
X0092183Y0283039D01*
X0092030Y0283031D01*
X0091877Y0283027D01*
X0091723Y0283027D01*
X0091570Y0283031D01*
X0091417Y0283039D01*
X0091264Y0283051D01*
X0091112Y0283067D01*
X0090959Y0283087D01*
X0090808Y0283111D01*
X0090657Y0283139D01*
X0090507Y0283170D01*
X0090358Y0283206D01*
X0090210Y0283245D01*
X0090063Y0283288D01*
X0089917Y0283335D01*
X0089772Y0283386D01*
X0089629Y0283441D01*
X0089487Y0283499D01*
X0089347Y0283561D01*
X0089208Y0283626D01*
X0089071Y0283695D01*
X0088936Y0283768D01*
X0088803Y0283844D01*
X0088672Y0283924D01*
X0088543Y0284006D01*
X0088416Y0284093D01*
X0088291Y0284182D01*
X0088169Y0284275D01*
X0088050Y0284371D01*
X0087932Y0284470D01*
X0087818Y0284571D01*
X0087706Y0284676D01*
X0087597Y0284784D01*
X0087491Y0284895D01*
X0087387Y0285008D01*
X0087287Y0285124D01*
X0087189Y0285242D01*
X0087095Y0285363D01*
X0087004Y0285486D01*
X0086916Y0285612D01*
X0086832Y0285740D01*
X0086750Y0285870D01*
X0086673Y0286002D01*
X0086598Y0286136D01*
X0086527Y0286272D01*
X0086460Y0286410D01*
X0086396Y0286550D01*
X0086336Y0286691D01*
X0086280Y0286833D01*
X0086227Y0286977D01*
X0086178Y0287123D01*
X0086133Y0287269D01*
X0086092Y0287417D01*
X0086055Y0287565D01*
X0086021Y0287715D01*
X0085991Y0287866D01*
X0085966Y0288017D01*
X0085944Y0288168D01*
X0085926Y0288321D01*
X0085912Y0288473D01*
X0085902Y0288626D01*
X0085896Y0288780D01*
X0085894Y0288933D01*
D11*
X0091800Y0288933D02*
X0091800Y0276256D01*
X0095543Y0278697D02*
X0098057Y0278697D01*
X0096800Y0288677D01*
X0097824Y0278697D01*
X0097312Y0278697D02*
X0096800Y0288677D01*
X0095776Y0278697D01*
X0095543Y0278697D02*
X0096800Y0288677D01*
X0096288Y0278697D01*
X0092056Y0283933D02*
X0102036Y0282676D01*
X0102036Y0285190D01*
X0092056Y0283933D01*
X0102036Y0282909D01*
X0102036Y0283421D02*
X0092056Y0283933D01*
X0102036Y0284957D01*
X0102036Y0284445D02*
X0092056Y0283933D01*
X0336544Y0283933D01*
X0326564Y0282909D01*
X0326564Y0282676D02*
X0326564Y0285190D01*
X0336544Y0283933D01*
X0326564Y0284957D01*
X0326564Y0284445D02*
X0336544Y0283933D01*
X0326564Y0283421D01*
X0326564Y0282676D02*
X0336544Y0283933D01*
X0336800Y0288933D02*
X0336800Y0276256D01*
X0104477Y0288933D02*
X0091800Y0288933D01*
X0096800Y0288677D02*
X0096800Y0074189D01*
X0097824Y0084169D01*
X0098057Y0084169D02*
X0095543Y0084169D01*
X0096800Y0074189D01*
X0095776Y0084169D01*
X0096288Y0084169D02*
X0096800Y0074189D01*
X0097312Y0084169D01*
X0098057Y0084169D02*
X0096800Y0074189D01*
X0091800Y0073933D02*
X0104477Y0073933D01*
D12*
X0094238Y0169217D02*
X0091394Y0169217D01*
X0091394Y0171350D01*
X0091392Y0171424D01*
X0091386Y0171499D01*
X0091376Y0171572D01*
X0091363Y0171646D01*
X0091346Y0171718D01*
X0091324Y0171789D01*
X0091300Y0171860D01*
X0091271Y0171928D01*
X0091239Y0171996D01*
X0091203Y0172061D01*
X0091165Y0172124D01*
X0091122Y0172186D01*
X0091077Y0172245D01*
X0091029Y0172302D01*
X0090978Y0172356D01*
X0090924Y0172407D01*
X0090867Y0172455D01*
X0090808Y0172500D01*
X0090746Y0172543D01*
X0090683Y0172581D01*
X0090618Y0172617D01*
X0090550Y0172649D01*
X0090482Y0172678D01*
X0090411Y0172702D01*
X0090340Y0172724D01*
X0090268Y0172741D01*
X0090194Y0172754D01*
X0090121Y0172764D01*
X0090046Y0172770D01*
X0089972Y0172772D01*
X0089260Y0172772D01*
X0089186Y0172770D01*
X0089111Y0172764D01*
X0089038Y0172754D01*
X0088964Y0172741D01*
X0088892Y0172724D01*
X0088821Y0172702D01*
X0088750Y0172678D01*
X0088682Y0172649D01*
X0088614Y0172617D01*
X0088549Y0172581D01*
X0088486Y0172543D01*
X0088424Y0172500D01*
X0088365Y0172455D01*
X0088308Y0172407D01*
X0088254Y0172356D01*
X0088203Y0172302D01*
X0088155Y0172245D01*
X0088110Y0172186D01*
X0088067Y0172124D01*
X0088029Y0172061D01*
X0087993Y0171996D01*
X0087961Y0171928D01*
X0087932Y0171860D01*
X0087908Y0171789D01*
X0087886Y0171718D01*
X0087869Y0171646D01*
X0087856Y0171572D01*
X0087846Y0171499D01*
X0087840Y0171424D01*
X0087838Y0171350D01*
X0087838Y0169217D01*
X0089260Y0175371D02*
X0089260Y0178926D01*
X0087838Y0177860D02*
X0090683Y0177860D01*
X0089260Y0175371D02*
X0094238Y0176793D01*
X0094238Y0172772D02*
X0094238Y0169217D01*
X0088194Y0181279D02*
X0088194Y0181634D01*
X0087838Y0181634D01*
X0087838Y0181279D01*
X0088194Y0181279D01*
X0089616Y0183986D02*
X0091394Y0183986D01*
X0091394Y0186120D01*
X0091394Y0183987D02*
X0091498Y0183989D01*
X0091602Y0183995D01*
X0091705Y0184004D01*
X0091808Y0184017D01*
X0091911Y0184034D01*
X0092012Y0184055D01*
X0092113Y0184079D01*
X0092213Y0184108D01*
X0092312Y0184139D01*
X0092410Y0184175D01*
X0092506Y0184214D01*
X0092601Y0184256D01*
X0092694Y0184302D01*
X0092786Y0184351D01*
X0092876Y0184403D01*
X0092963Y0184459D01*
X0093049Y0184518D01*
X0093132Y0184580D01*
X0093213Y0184645D01*
X0093292Y0184713D01*
X0093368Y0184784D01*
X0093441Y0184857D01*
X0093512Y0184933D01*
X0093580Y0185012D01*
X0093645Y0185093D01*
X0093707Y0185176D01*
X0093766Y0185262D01*
X0093822Y0185349D01*
X0093874Y0185439D01*
X0093923Y0185531D01*
X0093969Y0185624D01*
X0094011Y0185719D01*
X0094050Y0185815D01*
X0094086Y0185913D01*
X0094117Y0186012D01*
X0094146Y0186112D01*
X0094170Y0186213D01*
X0094191Y0186314D01*
X0094208Y0186417D01*
X0094221Y0186520D01*
X0094230Y0186623D01*
X0094236Y0186727D01*
X0094238Y0186831D01*
X0092816Y0190141D02*
X0094238Y0191918D01*
X0087838Y0191918D01*
X0087838Y0190141D02*
X0087838Y0193696D01*
X0089616Y0187542D02*
X0089972Y0187542D01*
X0090046Y0187540D01*
X0090121Y0187534D01*
X0090194Y0187524D01*
X0090268Y0187511D01*
X0090340Y0187494D01*
X0090411Y0187472D01*
X0090482Y0187448D01*
X0090550Y0187419D01*
X0090618Y0187387D01*
X0090683Y0187351D01*
X0090746Y0187313D01*
X0090808Y0187270D01*
X0090867Y0187225D01*
X0090924Y0187177D01*
X0090978Y0187126D01*
X0091029Y0187072D01*
X0091077Y0187015D01*
X0091122Y0186956D01*
X0091165Y0186894D01*
X0091203Y0186831D01*
X0091239Y0186766D01*
X0091271Y0186698D01*
X0091300Y0186630D01*
X0091324Y0186559D01*
X0091346Y0186488D01*
X0091363Y0186416D01*
X0091376Y0186342D01*
X0091386Y0186269D01*
X0091392Y0186194D01*
X0091394Y0186120D01*
X0089616Y0187542D02*
X0089533Y0187540D01*
X0089450Y0187534D01*
X0089367Y0187524D01*
X0089284Y0187511D01*
X0089203Y0187493D01*
X0089122Y0187472D01*
X0089043Y0187447D01*
X0088965Y0187418D01*
X0088888Y0187386D01*
X0088813Y0187350D01*
X0088739Y0187311D01*
X0088668Y0187268D01*
X0088598Y0187222D01*
X0088531Y0187172D01*
X0088466Y0187120D01*
X0088404Y0187065D01*
X0088344Y0187006D01*
X0088287Y0186945D01*
X0088233Y0186882D01*
X0088182Y0186816D01*
X0088135Y0186747D01*
X0088090Y0186677D01*
X0088049Y0186604D01*
X0088012Y0186530D01*
X0087977Y0186454D01*
X0087947Y0186376D01*
X0087920Y0186298D01*
X0087897Y0186217D01*
X0087877Y0186136D01*
X0087862Y0186054D01*
X0087850Y0185972D01*
X0087842Y0185889D01*
X0087838Y0185806D01*
X0087838Y0185722D01*
X0087842Y0185639D01*
X0087850Y0185556D01*
X0087862Y0185474D01*
X0087877Y0185392D01*
X0087897Y0185311D01*
X0087920Y0185230D01*
X0087947Y0185152D01*
X0087977Y0185074D01*
X0088012Y0184998D01*
X0088049Y0184924D01*
X0088090Y0184851D01*
X0088135Y0184781D01*
X0088182Y0184712D01*
X0088233Y0184646D01*
X0088287Y0184583D01*
X0088344Y0184522D01*
X0088404Y0184463D01*
X0088466Y0184408D01*
X0088531Y0184356D01*
X0088598Y0184306D01*
X0088668Y0184260D01*
X0088739Y0184217D01*
X0088813Y0184178D01*
X0088888Y0184142D01*
X0088965Y0184110D01*
X0089043Y0184081D01*
X0089122Y0184056D01*
X0089203Y0184035D01*
X0089284Y0184017D01*
X0089367Y0184004D01*
X0089450Y0183994D01*
X0089533Y0183988D01*
X0089616Y0183986D01*
X0203862Y0286495D02*
X0205639Y0286495D01*
X0203862Y0286495D02*
X0203779Y0286497D01*
X0203696Y0286503D01*
X0203613Y0286513D01*
X0203530Y0286526D01*
X0203449Y0286544D01*
X0203368Y0286565D01*
X0203289Y0286590D01*
X0203211Y0286619D01*
X0203134Y0286651D01*
X0203059Y0286687D01*
X0202985Y0286726D01*
X0202914Y0286769D01*
X0202844Y0286815D01*
X0202777Y0286865D01*
X0202712Y0286917D01*
X0202650Y0286972D01*
X0202590Y0287031D01*
X0202533Y0287092D01*
X0202479Y0287155D01*
X0202428Y0287221D01*
X0202381Y0287290D01*
X0202336Y0287360D01*
X0202295Y0287433D01*
X0202258Y0287507D01*
X0202223Y0287583D01*
X0202193Y0287661D01*
X0202166Y0287739D01*
X0202143Y0287820D01*
X0202123Y0287901D01*
X0202108Y0287983D01*
X0202096Y0288065D01*
X0202088Y0288148D01*
X0202084Y0288231D01*
X0202084Y0288315D01*
X0202088Y0288398D01*
X0202096Y0288481D01*
X0202108Y0288563D01*
X0202123Y0288645D01*
X0202143Y0288726D01*
X0202166Y0288807D01*
X0202193Y0288885D01*
X0202223Y0288963D01*
X0202258Y0289039D01*
X0202295Y0289113D01*
X0202336Y0289186D01*
X0202381Y0289256D01*
X0202428Y0289325D01*
X0202479Y0289391D01*
X0202533Y0289454D01*
X0202590Y0289515D01*
X0202650Y0289574D01*
X0202712Y0289629D01*
X0202777Y0289681D01*
X0202844Y0289731D01*
X0202914Y0289777D01*
X0202985Y0289820D01*
X0203059Y0289859D01*
X0203134Y0289895D01*
X0203211Y0289927D01*
X0203289Y0289956D01*
X0203368Y0289981D01*
X0203449Y0290002D01*
X0203530Y0290020D01*
X0203613Y0290033D01*
X0203696Y0290043D01*
X0203779Y0290049D01*
X0203862Y0290051D01*
X0203506Y0290050D02*
X0204928Y0290050D01*
X0203506Y0290051D02*
X0203432Y0290053D01*
X0203357Y0290059D01*
X0203284Y0290069D01*
X0203210Y0290082D01*
X0203138Y0290099D01*
X0203067Y0290121D01*
X0202996Y0290145D01*
X0202928Y0290174D01*
X0202860Y0290206D01*
X0202795Y0290242D01*
X0202732Y0290280D01*
X0202670Y0290323D01*
X0202611Y0290368D01*
X0202554Y0290416D01*
X0202500Y0290467D01*
X0202449Y0290521D01*
X0202401Y0290578D01*
X0202356Y0290637D01*
X0202313Y0290699D01*
X0202275Y0290762D01*
X0202239Y0290827D01*
X0202207Y0290895D01*
X0202178Y0290963D01*
X0202154Y0291034D01*
X0202132Y0291105D01*
X0202115Y0291177D01*
X0202102Y0291251D01*
X0202092Y0291324D01*
X0202086Y0291399D01*
X0202084Y0291473D01*
X0202086Y0291547D01*
X0202092Y0291622D01*
X0202102Y0291695D01*
X0202115Y0291769D01*
X0202132Y0291841D01*
X0202154Y0291912D01*
X0202178Y0291983D01*
X0202207Y0292051D01*
X0202239Y0292119D01*
X0202275Y0292184D01*
X0202313Y0292247D01*
X0202356Y0292309D01*
X0202401Y0292368D01*
X0202449Y0292425D01*
X0202500Y0292479D01*
X0202554Y0292530D01*
X0202611Y0292578D01*
X0202670Y0292623D01*
X0202732Y0292666D01*
X0202795Y0292704D01*
X0202860Y0292740D01*
X0202928Y0292772D01*
X0202996Y0292801D01*
X0203067Y0292825D01*
X0203138Y0292847D01*
X0203210Y0292864D01*
X0203284Y0292877D01*
X0203357Y0292887D01*
X0203432Y0292893D01*
X0203506Y0292895D01*
X0205639Y0292895D01*
X0208771Y0290050D02*
X0211793Y0286495D01*
X0208238Y0286495D01*
X0211794Y0291472D02*
X0211765Y0291557D01*
X0211732Y0291639D01*
X0211695Y0291721D01*
X0211655Y0291801D01*
X0211612Y0291878D01*
X0211565Y0291954D01*
X0211515Y0292028D01*
X0211462Y0292100D01*
X0211406Y0292169D01*
X0211347Y0292236D01*
X0211285Y0292300D01*
X0211220Y0292361D01*
X0211153Y0292420D01*
X0211083Y0292475D01*
X0211011Y0292528D01*
X0210937Y0292577D01*
X0210860Y0292623D01*
X0210782Y0292665D01*
X0210702Y0292705D01*
X0210620Y0292740D01*
X0210537Y0292773D01*
X0210453Y0292801D01*
X0210367Y0292826D01*
X0210280Y0292847D01*
X0210193Y0292864D01*
X0210105Y0292878D01*
X0210016Y0292887D01*
X0209927Y0292893D01*
X0209838Y0292895D01*
X0209759Y0292893D01*
X0209681Y0292887D01*
X0209603Y0292878D01*
X0209526Y0292864D01*
X0209449Y0292847D01*
X0209374Y0292826D01*
X0209299Y0292801D01*
X0209226Y0292773D01*
X0209154Y0292741D01*
X0209084Y0292706D01*
X0209015Y0292667D01*
X0208949Y0292625D01*
X0208885Y0292580D01*
X0208823Y0292532D01*
X0208764Y0292481D01*
X0208707Y0292426D01*
X0208652Y0292369D01*
X0208601Y0292310D01*
X0208553Y0292248D01*
X0208508Y0292184D01*
X0208466Y0292118D01*
X0208427Y0292049D01*
X0208392Y0291979D01*
X0208360Y0291907D01*
X0208332Y0291834D01*
X0208307Y0291759D01*
X0208286Y0291684D01*
X0208269Y0291607D01*
X0208255Y0291530D01*
X0208246Y0291452D01*
X0208240Y0291374D01*
X0208238Y0291295D01*
X0208237Y0291295D02*
X0208239Y0291213D01*
X0208245Y0291131D01*
X0208255Y0291050D01*
X0208268Y0290969D01*
X0208286Y0290889D01*
X0208307Y0290810D01*
X0208332Y0290732D01*
X0208360Y0290656D01*
X0208393Y0290580D01*
X0208428Y0290507D01*
X0208468Y0290435D01*
X0208510Y0290365D01*
X0208556Y0290297D01*
X0208605Y0290232D01*
X0208657Y0290169D01*
X0208713Y0290108D01*
X0208770Y0290050D01*
X0214146Y0286850D02*
X0214146Y0286495D01*
X0214501Y0286495D01*
X0214501Y0286850D01*
X0214146Y0286850D01*
X0216853Y0286495D02*
X0220409Y0286495D01*
X0217387Y0290050D01*
X0218453Y0292895D02*
X0218542Y0292893D01*
X0218631Y0292887D01*
X0218720Y0292878D01*
X0218808Y0292864D01*
X0218895Y0292847D01*
X0218982Y0292826D01*
X0219068Y0292801D01*
X0219152Y0292773D01*
X0219235Y0292740D01*
X0219317Y0292705D01*
X0219397Y0292665D01*
X0219475Y0292623D01*
X0219552Y0292577D01*
X0219626Y0292528D01*
X0219698Y0292475D01*
X0219768Y0292420D01*
X0219835Y0292361D01*
X0219900Y0292300D01*
X0219962Y0292236D01*
X0220021Y0292169D01*
X0220077Y0292100D01*
X0220130Y0292028D01*
X0220180Y0291954D01*
X0220227Y0291878D01*
X0220270Y0291801D01*
X0220310Y0291721D01*
X0220347Y0291639D01*
X0220380Y0291557D01*
X0220409Y0291472D01*
X0217386Y0290050D02*
X0217329Y0290108D01*
X0217273Y0290169D01*
X0217221Y0290232D01*
X0217172Y0290297D01*
X0217126Y0290365D01*
X0217084Y0290435D01*
X0217044Y0290507D01*
X0217009Y0290580D01*
X0216976Y0290656D01*
X0216948Y0290732D01*
X0216923Y0290810D01*
X0216902Y0290889D01*
X0216884Y0290969D01*
X0216871Y0291050D01*
X0216861Y0291131D01*
X0216855Y0291213D01*
X0216853Y0291295D01*
X0216855Y0291374D01*
X0216861Y0291452D01*
X0216870Y0291530D01*
X0216884Y0291607D01*
X0216901Y0291684D01*
X0216922Y0291759D01*
X0216947Y0291834D01*
X0216975Y0291907D01*
X0217007Y0291979D01*
X0217042Y0292049D01*
X0217081Y0292118D01*
X0217123Y0292184D01*
X0217168Y0292248D01*
X0217216Y0292310D01*
X0217267Y0292369D01*
X0217322Y0292426D01*
X0217379Y0292481D01*
X0217438Y0292532D01*
X0217500Y0292580D01*
X0217564Y0292625D01*
X0217630Y0292667D01*
X0217699Y0292706D01*
X0217769Y0292741D01*
X0217841Y0292773D01*
X0217914Y0292801D01*
X0217989Y0292826D01*
X0218064Y0292847D01*
X0218141Y0292864D01*
X0218218Y0292878D01*
X0218296Y0292887D01*
X0218374Y0292893D01*
X0218453Y0292895D01*
X0223719Y0292894D02*
X0223823Y0292892D01*
X0223927Y0292886D01*
X0224030Y0292877D01*
X0224133Y0292864D01*
X0224236Y0292847D01*
X0224337Y0292826D01*
X0224438Y0292802D01*
X0224538Y0292773D01*
X0224637Y0292742D01*
X0224735Y0292706D01*
X0224831Y0292667D01*
X0224926Y0292625D01*
X0225019Y0292579D01*
X0225111Y0292530D01*
X0225201Y0292478D01*
X0225288Y0292422D01*
X0225374Y0292363D01*
X0225457Y0292301D01*
X0225538Y0292236D01*
X0225617Y0292168D01*
X0225693Y0292097D01*
X0225766Y0292024D01*
X0225837Y0291948D01*
X0225905Y0291869D01*
X0225970Y0291788D01*
X0226032Y0291705D01*
X0226091Y0291619D01*
X0226147Y0291532D01*
X0226199Y0291442D01*
X0226248Y0291350D01*
X0226294Y0291257D01*
X0226336Y0291162D01*
X0226375Y0291066D01*
X0226411Y0290968D01*
X0226442Y0290869D01*
X0226471Y0290769D01*
X0226495Y0290668D01*
X0226516Y0290567D01*
X0226533Y0290464D01*
X0226546Y0290361D01*
X0226555Y0290258D01*
X0226561Y0290154D01*
X0226563Y0290050D01*
X0226563Y0288273D01*
X0226563Y0290050D02*
X0224430Y0290050D01*
X0224356Y0290048D01*
X0224281Y0290042D01*
X0224208Y0290032D01*
X0224134Y0290019D01*
X0224062Y0290002D01*
X0223991Y0289980D01*
X0223920Y0289956D01*
X0223852Y0289927D01*
X0223784Y0289895D01*
X0223719Y0289859D01*
X0223656Y0289821D01*
X0223594Y0289778D01*
X0223535Y0289733D01*
X0223478Y0289685D01*
X0223424Y0289634D01*
X0223373Y0289580D01*
X0223325Y0289523D01*
X0223280Y0289464D01*
X0223237Y0289402D01*
X0223199Y0289339D01*
X0223163Y0289274D01*
X0223131Y0289206D01*
X0223102Y0289138D01*
X0223078Y0289067D01*
X0223056Y0288996D01*
X0223039Y0288924D01*
X0223026Y0288850D01*
X0223016Y0288777D01*
X0223010Y0288702D01*
X0223008Y0288628D01*
X0223007Y0288628D02*
X0223007Y0288273D01*
X0223009Y0288190D01*
X0223015Y0288107D01*
X0223025Y0288024D01*
X0223038Y0287941D01*
X0223056Y0287860D01*
X0223077Y0287779D01*
X0223102Y0287700D01*
X0223131Y0287622D01*
X0223163Y0287545D01*
X0223199Y0287470D01*
X0223238Y0287396D01*
X0223281Y0287325D01*
X0223327Y0287255D01*
X0223377Y0287188D01*
X0223429Y0287123D01*
X0223484Y0287061D01*
X0223543Y0287001D01*
X0223604Y0286944D01*
X0223667Y0286890D01*
X0223733Y0286839D01*
X0223802Y0286792D01*
X0223872Y0286747D01*
X0223945Y0286706D01*
X0224019Y0286669D01*
X0224095Y0286634D01*
X0224173Y0286604D01*
X0224251Y0286577D01*
X0224332Y0286554D01*
X0224413Y0286534D01*
X0224495Y0286519D01*
X0224577Y0286507D01*
X0224660Y0286499D01*
X0224743Y0286495D01*
X0224827Y0286495D01*
X0224910Y0286499D01*
X0224993Y0286507D01*
X0225075Y0286519D01*
X0225157Y0286534D01*
X0225238Y0286554D01*
X0225319Y0286577D01*
X0225397Y0286604D01*
X0225475Y0286634D01*
X0225551Y0286669D01*
X0225625Y0286706D01*
X0225698Y0286747D01*
X0225768Y0286792D01*
X0225837Y0286839D01*
X0225903Y0286890D01*
X0225966Y0286944D01*
X0226027Y0287001D01*
X0226086Y0287061D01*
X0226141Y0287123D01*
X0226193Y0287188D01*
X0226243Y0287255D01*
X0226289Y0287325D01*
X0226332Y0287396D01*
X0226371Y0287470D01*
X0226407Y0287545D01*
X0226439Y0287622D01*
X0226468Y0287700D01*
X0226493Y0287779D01*
X0226514Y0287860D01*
X0226532Y0287941D01*
X0226545Y0288024D01*
X0226555Y0288107D01*
X0226561Y0288190D01*
X0226563Y0288273D01*
D13*
X0328444Y0189455D02*
X0328444Y0187411D01*
X0328446Y0187342D01*
X0328451Y0187273D01*
X0328461Y0187204D01*
X0328474Y0187136D01*
X0328491Y0187069D01*
X0328511Y0187003D01*
X0328535Y0186938D01*
X0328562Y0186874D01*
X0328593Y0186812D01*
X0328627Y0186752D01*
X0328664Y0186694D01*
X0328705Y0186638D01*
X0328748Y0186584D01*
X0328794Y0186532D01*
X0328843Y0186483D01*
X0328895Y0186437D01*
X0328949Y0186394D01*
X0329005Y0186353D01*
X0329063Y0186316D01*
X0329123Y0186282D01*
X0329185Y0186251D01*
X0329249Y0186224D01*
X0329314Y0186200D01*
X0329380Y0186180D01*
X0329447Y0186163D01*
X0329515Y0186150D01*
X0329584Y0186140D01*
X0329653Y0186135D01*
X0329722Y0186133D01*
X0331000Y0186133D01*
X0331000Y0190733D01*
X0329722Y0190733D01*
X0329653Y0190731D01*
X0329584Y0190726D01*
X0329515Y0190716D01*
X0329447Y0190703D01*
X0329380Y0190686D01*
X0329314Y0190666D01*
X0329249Y0190642D01*
X0329185Y0190615D01*
X0329123Y0190584D01*
X0329063Y0190550D01*
X0329005Y0190513D01*
X0328949Y0190472D01*
X0328895Y0190429D01*
X0328843Y0190383D01*
X0328794Y0190334D01*
X0328748Y0190282D01*
X0328705Y0190228D01*
X0328664Y0190172D01*
X0328627Y0190114D01*
X0328593Y0190054D01*
X0328562Y0189992D01*
X0328535Y0189928D01*
X0328511Y0189863D01*
X0328491Y0189797D01*
X0328474Y0189730D01*
X0328461Y0189662D01*
X0328451Y0189593D01*
X0328446Y0189524D01*
X0328444Y0189455D01*
X0333244Y0190733D02*
X0333244Y0186133D01*
X0335800Y0190733D01*
X0335800Y0186133D01*
X0338044Y0186133D02*
X0338044Y0188689D01*
X0338811Y0188689D01*
X0340600Y0189711D02*
X0340598Y0189773D01*
X0340593Y0189834D01*
X0340583Y0189895D01*
X0340570Y0189956D01*
X0340554Y0190015D01*
X0340534Y0190073D01*
X0340510Y0190130D01*
X0340483Y0190186D01*
X0340453Y0190240D01*
X0340419Y0190292D01*
X0340383Y0190341D01*
X0340343Y0190389D01*
X0340301Y0190434D01*
X0340256Y0190476D01*
X0340208Y0190516D01*
X0340159Y0190552D01*
X0340107Y0190586D01*
X0340053Y0190616D01*
X0339997Y0190643D01*
X0339940Y0190667D01*
X0339882Y0190687D01*
X0339823Y0190703D01*
X0339762Y0190716D01*
X0339701Y0190726D01*
X0339640Y0190731D01*
X0339578Y0190733D01*
X0338044Y0190733D01*
X0340600Y0189711D02*
X0340600Y0187155D01*
X0340598Y0187093D01*
X0340593Y0187032D01*
X0340583Y0186971D01*
X0340570Y0186910D01*
X0340554Y0186851D01*
X0340534Y0186793D01*
X0340510Y0186736D01*
X0340483Y0186680D01*
X0340453Y0186626D01*
X0340419Y0186574D01*
X0340383Y0186525D01*
X0340343Y0186477D01*
X0340301Y0186432D01*
X0340256Y0186390D01*
X0340208Y0186350D01*
X0340159Y0186314D01*
X0340107Y0186280D01*
X0340053Y0186250D01*
X0339997Y0186223D01*
X0339940Y0186199D01*
X0339882Y0186179D01*
X0339823Y0186163D01*
X0339762Y0186150D01*
X0339701Y0186140D01*
X0339640Y0186135D01*
X0339578Y0186133D01*
X0338044Y0186133D01*
X0339067Y0181733D02*
X0337533Y0177133D01*
X0337917Y0178283D02*
X0340217Y0178283D01*
X0340600Y0177133D02*
X0339067Y0181733D01*
X0339067Y0171233D02*
X0340600Y0171233D01*
X0339067Y0171233D02*
X0339004Y0171231D01*
X0338941Y0171225D01*
X0338879Y0171216D01*
X0338818Y0171202D01*
X0338757Y0171185D01*
X0338698Y0171164D01*
X0338640Y0171139D01*
X0338583Y0171111D01*
X0338529Y0171080D01*
X0338477Y0171045D01*
X0338426Y0171007D01*
X0338378Y0170966D01*
X0338333Y0170922D01*
X0338291Y0170876D01*
X0338251Y0170827D01*
X0338215Y0170776D01*
X0338182Y0170722D01*
X0338152Y0170667D01*
X0338126Y0170609D01*
X0338103Y0170551D01*
X0338084Y0170491D01*
X0338069Y0170430D01*
X0338057Y0170368D01*
X0338049Y0170305D01*
X0338045Y0170242D01*
X0338045Y0170180D01*
X0338049Y0170117D01*
X0338057Y0170054D01*
X0338069Y0169992D01*
X0338084Y0169931D01*
X0338103Y0169871D01*
X0338126Y0169813D01*
X0338152Y0169755D01*
X0338182Y0169700D01*
X0338215Y0169646D01*
X0338251Y0169595D01*
X0338291Y0169546D01*
X0338333Y0169500D01*
X0338378Y0169456D01*
X0338426Y0169415D01*
X0338477Y0169377D01*
X0338529Y0169342D01*
X0338583Y0169311D01*
X0338640Y0169283D01*
X0338698Y0169258D01*
X0338757Y0169237D01*
X0338818Y0169220D01*
X0338879Y0169206D01*
X0338941Y0169197D01*
X0339004Y0169191D01*
X0339067Y0169189D01*
X0340089Y0169189D01*
X0339322Y0169189D02*
X0339252Y0169187D01*
X0339181Y0169181D01*
X0339112Y0169172D01*
X0339043Y0169158D01*
X0338974Y0169141D01*
X0338907Y0169120D01*
X0338841Y0169095D01*
X0338777Y0169067D01*
X0338714Y0169035D01*
X0338653Y0169000D01*
X0338594Y0168961D01*
X0338537Y0168920D01*
X0338483Y0168875D01*
X0338431Y0168827D01*
X0338382Y0168777D01*
X0338335Y0168723D01*
X0338292Y0168668D01*
X0338252Y0168610D01*
X0338215Y0168550D01*
X0338182Y0168488D01*
X0338152Y0168424D01*
X0338125Y0168359D01*
X0338102Y0168293D01*
X0338083Y0168225D01*
X0338068Y0168156D01*
X0338056Y0168087D01*
X0338048Y0168017D01*
X0338044Y0167946D01*
X0338044Y0167876D01*
X0338048Y0167805D01*
X0338056Y0167735D01*
X0338068Y0167666D01*
X0338083Y0167597D01*
X0338102Y0167529D01*
X0338125Y0167463D01*
X0338152Y0167398D01*
X0338182Y0167334D01*
X0338215Y0167272D01*
X0338252Y0167212D01*
X0338292Y0167154D01*
X0338335Y0167099D01*
X0338382Y0167045D01*
X0338431Y0166995D01*
X0338483Y0166947D01*
X0338537Y0166902D01*
X0338594Y0166861D01*
X0338653Y0166822D01*
X0338714Y0166787D01*
X0338777Y0166755D01*
X0338841Y0166727D01*
X0338907Y0166702D01*
X0338974Y0166681D01*
X0339043Y0166664D01*
X0339112Y0166650D01*
X0339181Y0166641D01*
X0339252Y0166635D01*
X0339322Y0166633D01*
X0340600Y0166633D01*
X0340600Y0161733D02*
X0339322Y0161733D01*
X0339259Y0161731D01*
X0339196Y0161725D01*
X0339134Y0161716D01*
X0339073Y0161702D01*
X0339012Y0161685D01*
X0338953Y0161664D01*
X0338895Y0161639D01*
X0338838Y0161611D01*
X0338784Y0161580D01*
X0338732Y0161545D01*
X0338681Y0161507D01*
X0338633Y0161466D01*
X0338588Y0161422D01*
X0338546Y0161376D01*
X0338506Y0161327D01*
X0338470Y0161276D01*
X0338437Y0161222D01*
X0338407Y0161167D01*
X0338381Y0161109D01*
X0338358Y0161051D01*
X0338339Y0160991D01*
X0338324Y0160930D01*
X0338312Y0160868D01*
X0338304Y0160805D01*
X0338300Y0160742D01*
X0338300Y0160680D01*
X0338304Y0160617D01*
X0338312Y0160554D01*
X0338324Y0160492D01*
X0338339Y0160431D01*
X0338358Y0160371D01*
X0338381Y0160313D01*
X0338407Y0160255D01*
X0338437Y0160200D01*
X0338470Y0160146D01*
X0338506Y0160095D01*
X0338546Y0160046D01*
X0338588Y0160000D01*
X0338633Y0159956D01*
X0338681Y0159915D01*
X0338732Y0159877D01*
X0338784Y0159842D01*
X0338838Y0159811D01*
X0338895Y0159783D01*
X0338953Y0159758D01*
X0339012Y0159737D01*
X0339073Y0159720D01*
X0339134Y0159706D01*
X0339196Y0159697D01*
X0339259Y0159691D01*
X0339322Y0159689D01*
X0340600Y0159689D01*
X0339322Y0159689D02*
X0339252Y0159687D01*
X0339181Y0159681D01*
X0339112Y0159672D01*
X0339043Y0159658D01*
X0338974Y0159641D01*
X0338907Y0159620D01*
X0338841Y0159595D01*
X0338777Y0159567D01*
X0338714Y0159535D01*
X0338653Y0159500D01*
X0338594Y0159461D01*
X0338537Y0159420D01*
X0338483Y0159375D01*
X0338431Y0159327D01*
X0338382Y0159277D01*
X0338335Y0159223D01*
X0338292Y0159168D01*
X0338252Y0159110D01*
X0338215Y0159050D01*
X0338182Y0158988D01*
X0338152Y0158924D01*
X0338125Y0158859D01*
X0338102Y0158793D01*
X0338083Y0158725D01*
X0338068Y0158656D01*
X0338056Y0158587D01*
X0338048Y0158517D01*
X0338044Y0158446D01*
X0338044Y0158376D01*
X0338048Y0158305D01*
X0338056Y0158235D01*
X0338068Y0158166D01*
X0338083Y0158097D01*
X0338102Y0158029D01*
X0338125Y0157963D01*
X0338152Y0157898D01*
X0338182Y0157834D01*
X0338215Y0157772D01*
X0338252Y0157712D01*
X0338292Y0157654D01*
X0338335Y0157599D01*
X0338382Y0157545D01*
X0338431Y0157495D01*
X0338483Y0157447D01*
X0338537Y0157402D01*
X0338594Y0157361D01*
X0338653Y0157322D01*
X0338714Y0157287D01*
X0338777Y0157255D01*
X0338841Y0157227D01*
X0338907Y0157202D01*
X0338974Y0157181D01*
X0339043Y0157164D01*
X0339112Y0157150D01*
X0339181Y0157141D01*
X0339252Y0157135D01*
X0339322Y0157133D01*
X0340600Y0157133D01*
X0340600Y0161733D01*
X0336300Y0166633D02*
X0336044Y0166633D01*
X0336044Y0166889D01*
X0336300Y0166889D01*
X0336300Y0166633D01*
X0334300Y0166633D02*
X0333022Y0166633D01*
X0332952Y0166635D01*
X0332881Y0166641D01*
X0332812Y0166650D01*
X0332743Y0166664D01*
X0332674Y0166681D01*
X0332607Y0166702D01*
X0332541Y0166727D01*
X0332477Y0166755D01*
X0332414Y0166787D01*
X0332353Y0166822D01*
X0332294Y0166861D01*
X0332237Y0166902D01*
X0332183Y0166947D01*
X0332131Y0166995D01*
X0332082Y0167045D01*
X0332035Y0167099D01*
X0331992Y0167154D01*
X0331952Y0167212D01*
X0331915Y0167272D01*
X0331882Y0167334D01*
X0331852Y0167398D01*
X0331825Y0167463D01*
X0331802Y0167529D01*
X0331783Y0167597D01*
X0331768Y0167666D01*
X0331756Y0167735D01*
X0331748Y0167805D01*
X0331744Y0167876D01*
X0331744Y0167946D01*
X0331748Y0168017D01*
X0331756Y0168087D01*
X0331768Y0168156D01*
X0331783Y0168225D01*
X0331802Y0168293D01*
X0331825Y0168359D01*
X0331852Y0168424D01*
X0331882Y0168488D01*
X0331915Y0168550D01*
X0331952Y0168610D01*
X0331992Y0168668D01*
X0332035Y0168723D01*
X0332082Y0168777D01*
X0332131Y0168827D01*
X0332183Y0168875D01*
X0332237Y0168920D01*
X0332294Y0168961D01*
X0332353Y0169000D01*
X0332414Y0169035D01*
X0332477Y0169067D01*
X0332541Y0169095D01*
X0332607Y0169120D01*
X0332674Y0169141D01*
X0332743Y0169158D01*
X0332812Y0169172D01*
X0332881Y0169181D01*
X0332952Y0169187D01*
X0333022Y0169189D01*
X0332767Y0169189D02*
X0333789Y0169189D01*
X0332767Y0169189D02*
X0332704Y0169191D01*
X0332641Y0169197D01*
X0332579Y0169206D01*
X0332518Y0169220D01*
X0332457Y0169237D01*
X0332398Y0169258D01*
X0332340Y0169283D01*
X0332283Y0169311D01*
X0332229Y0169342D01*
X0332177Y0169377D01*
X0332126Y0169415D01*
X0332078Y0169456D01*
X0332033Y0169500D01*
X0331991Y0169546D01*
X0331951Y0169595D01*
X0331915Y0169646D01*
X0331882Y0169700D01*
X0331852Y0169755D01*
X0331826Y0169813D01*
X0331803Y0169871D01*
X0331784Y0169931D01*
X0331769Y0169992D01*
X0331757Y0170054D01*
X0331749Y0170117D01*
X0331745Y0170180D01*
X0331745Y0170242D01*
X0331749Y0170305D01*
X0331757Y0170368D01*
X0331769Y0170430D01*
X0331784Y0170491D01*
X0331803Y0170551D01*
X0331826Y0170609D01*
X0331852Y0170667D01*
X0331882Y0170722D01*
X0331915Y0170776D01*
X0331951Y0170827D01*
X0331991Y0170876D01*
X0332033Y0170922D01*
X0332078Y0170966D01*
X0332126Y0171007D01*
X0332177Y0171045D01*
X0332229Y0171080D01*
X0332283Y0171111D01*
X0332340Y0171139D01*
X0332398Y0171164D01*
X0332457Y0171185D01*
X0332518Y0171202D01*
X0332579Y0171216D01*
X0332641Y0171225D01*
X0332704Y0171231D01*
X0332767Y0171233D01*
X0334300Y0171233D01*
X0330056Y0171233D02*
X0328522Y0166633D01*
X0326989Y0171233D01*
X0304500Y0081744D02*
X0309100Y0080211D01*
X0304500Y0078677D01*
X0304500Y0075966D02*
X0304500Y0074433D01*
X0304500Y0075966D02*
X0304502Y0076029D01*
X0304508Y0076092D01*
X0304517Y0076154D01*
X0304531Y0076215D01*
X0304548Y0076276D01*
X0304569Y0076335D01*
X0304594Y0076393D01*
X0304622Y0076450D01*
X0304653Y0076504D01*
X0304688Y0076556D01*
X0304726Y0076607D01*
X0304767Y0076655D01*
X0304811Y0076700D01*
X0304857Y0076742D01*
X0304906Y0076782D01*
X0304957Y0076818D01*
X0305011Y0076851D01*
X0305066Y0076881D01*
X0305124Y0076907D01*
X0305182Y0076930D01*
X0305242Y0076949D01*
X0305303Y0076964D01*
X0305365Y0076976D01*
X0305428Y0076984D01*
X0305491Y0076988D01*
X0305553Y0076988D01*
X0305616Y0076984D01*
X0305679Y0076976D01*
X0305741Y0076964D01*
X0305802Y0076949D01*
X0305862Y0076930D01*
X0305920Y0076907D01*
X0305978Y0076881D01*
X0306033Y0076851D01*
X0306087Y0076818D01*
X0306138Y0076782D01*
X0306187Y0076742D01*
X0306233Y0076700D01*
X0306277Y0076655D01*
X0306318Y0076607D01*
X0306356Y0076556D01*
X0306391Y0076504D01*
X0306422Y0076450D01*
X0306450Y0076393D01*
X0306475Y0076335D01*
X0306496Y0076276D01*
X0306513Y0076215D01*
X0306527Y0076154D01*
X0306536Y0076092D01*
X0306542Y0076029D01*
X0306544Y0075966D01*
X0306544Y0074944D01*
X0306544Y0075711D02*
X0306546Y0075781D01*
X0306552Y0075852D01*
X0306561Y0075921D01*
X0306575Y0075990D01*
X0306592Y0076059D01*
X0306613Y0076126D01*
X0306638Y0076192D01*
X0306666Y0076256D01*
X0306698Y0076319D01*
X0306733Y0076380D01*
X0306772Y0076439D01*
X0306813Y0076496D01*
X0306858Y0076550D01*
X0306906Y0076602D01*
X0306956Y0076651D01*
X0307010Y0076698D01*
X0307065Y0076741D01*
X0307123Y0076781D01*
X0307183Y0076818D01*
X0307245Y0076851D01*
X0307309Y0076881D01*
X0307374Y0076908D01*
X0307440Y0076931D01*
X0307508Y0076950D01*
X0307577Y0076965D01*
X0307646Y0076977D01*
X0307716Y0076985D01*
X0307787Y0076989D01*
X0307857Y0076989D01*
X0307928Y0076985D01*
X0307998Y0076977D01*
X0308067Y0076965D01*
X0308136Y0076950D01*
X0308204Y0076931D01*
X0308270Y0076908D01*
X0308335Y0076881D01*
X0308399Y0076851D01*
X0308461Y0076818D01*
X0308521Y0076781D01*
X0308579Y0076741D01*
X0308634Y0076698D01*
X0308688Y0076651D01*
X0308738Y0076602D01*
X0308786Y0076550D01*
X0308831Y0076496D01*
X0308872Y0076439D01*
X0308911Y0076380D01*
X0308946Y0076319D01*
X0308978Y0076256D01*
X0309006Y0076192D01*
X0309031Y0076126D01*
X0309052Y0076059D01*
X0309069Y0075990D01*
X0309083Y0075921D01*
X0309092Y0075852D01*
X0309098Y0075781D01*
X0309100Y0075711D01*
X0309100Y0074433D01*
X0309100Y0072689D02*
X0309100Y0072433D01*
X0308844Y0072433D01*
X0308844Y0072689D01*
X0309100Y0072689D01*
X0309100Y0069411D02*
X0309100Y0068133D01*
X0309100Y0069411D02*
X0309098Y0069481D01*
X0309092Y0069552D01*
X0309083Y0069621D01*
X0309069Y0069690D01*
X0309052Y0069759D01*
X0309031Y0069826D01*
X0309006Y0069892D01*
X0308978Y0069956D01*
X0308946Y0070019D01*
X0308911Y0070080D01*
X0308872Y0070139D01*
X0308831Y0070196D01*
X0308786Y0070250D01*
X0308738Y0070302D01*
X0308688Y0070351D01*
X0308634Y0070398D01*
X0308579Y0070441D01*
X0308521Y0070481D01*
X0308461Y0070518D01*
X0308399Y0070551D01*
X0308335Y0070581D01*
X0308270Y0070608D01*
X0308204Y0070631D01*
X0308136Y0070650D01*
X0308067Y0070665D01*
X0307998Y0070677D01*
X0307928Y0070685D01*
X0307857Y0070689D01*
X0307787Y0070689D01*
X0307716Y0070685D01*
X0307646Y0070677D01*
X0307577Y0070665D01*
X0307508Y0070650D01*
X0307440Y0070631D01*
X0307374Y0070608D01*
X0307309Y0070581D01*
X0307245Y0070551D01*
X0307183Y0070518D01*
X0307123Y0070481D01*
X0307065Y0070441D01*
X0307010Y0070398D01*
X0306956Y0070351D01*
X0306906Y0070302D01*
X0306858Y0070250D01*
X0306813Y0070196D01*
X0306772Y0070139D01*
X0306733Y0070080D01*
X0306698Y0070019D01*
X0306666Y0069956D01*
X0306638Y0069892D01*
X0306613Y0069826D01*
X0306592Y0069759D01*
X0306575Y0069690D01*
X0306561Y0069621D01*
X0306552Y0069552D01*
X0306546Y0069481D01*
X0306544Y0069411D01*
X0306544Y0069666D02*
X0306544Y0068644D01*
X0306544Y0069666D02*
X0306542Y0069729D01*
X0306536Y0069792D01*
X0306527Y0069854D01*
X0306513Y0069915D01*
X0306496Y0069976D01*
X0306475Y0070035D01*
X0306450Y0070093D01*
X0306422Y0070150D01*
X0306391Y0070204D01*
X0306356Y0070256D01*
X0306318Y0070307D01*
X0306277Y0070355D01*
X0306233Y0070400D01*
X0306187Y0070442D01*
X0306138Y0070482D01*
X0306087Y0070518D01*
X0306033Y0070551D01*
X0305978Y0070581D01*
X0305920Y0070607D01*
X0305862Y0070630D01*
X0305802Y0070649D01*
X0305741Y0070664D01*
X0305679Y0070676D01*
X0305616Y0070684D01*
X0305553Y0070688D01*
X0305491Y0070688D01*
X0305428Y0070684D01*
X0305365Y0070676D01*
X0305303Y0070664D01*
X0305242Y0070649D01*
X0305182Y0070630D01*
X0305124Y0070607D01*
X0305066Y0070581D01*
X0305011Y0070551D01*
X0304957Y0070518D01*
X0304906Y0070482D01*
X0304857Y0070442D01*
X0304811Y0070400D01*
X0304767Y0070355D01*
X0304726Y0070307D01*
X0304688Y0070256D01*
X0304653Y0070204D01*
X0304622Y0070150D01*
X0304594Y0070093D01*
X0304569Y0070035D01*
X0304548Y0069976D01*
X0304531Y0069915D01*
X0304517Y0069854D01*
X0304508Y0069792D01*
X0304502Y0069729D01*
X0304500Y0069666D01*
X0304500Y0068133D01*
X0299600Y0070155D02*
X0299600Y0071689D01*
X0297044Y0071689D01*
X0297044Y0070922D01*
X0296022Y0069133D02*
X0295960Y0069135D01*
X0295899Y0069140D01*
X0295838Y0069150D01*
X0295777Y0069163D01*
X0295718Y0069179D01*
X0295660Y0069199D01*
X0295603Y0069223D01*
X0295547Y0069250D01*
X0295493Y0069280D01*
X0295441Y0069314D01*
X0295392Y0069350D01*
X0295344Y0069390D01*
X0295299Y0069432D01*
X0295257Y0069477D01*
X0295218Y0069525D01*
X0295181Y0069574D01*
X0295147Y0069626D01*
X0295117Y0069680D01*
X0295090Y0069736D01*
X0295066Y0069793D01*
X0295046Y0069851D01*
X0295030Y0069910D01*
X0295017Y0069971D01*
X0295007Y0070032D01*
X0295002Y0070093D01*
X0295000Y0070155D01*
X0295000Y0071689D01*
X0295000Y0073933D02*
X0299600Y0076489D01*
X0295000Y0076489D01*
X0295000Y0078733D02*
X0295000Y0080011D01*
X0295002Y0080080D01*
X0295007Y0080149D01*
X0295017Y0080218D01*
X0295030Y0080286D01*
X0295047Y0080353D01*
X0295067Y0080419D01*
X0295091Y0080484D01*
X0295118Y0080548D01*
X0295149Y0080610D01*
X0295183Y0080670D01*
X0295220Y0080728D01*
X0295261Y0080784D01*
X0295304Y0080838D01*
X0295350Y0080890D01*
X0295399Y0080939D01*
X0295451Y0080985D01*
X0295505Y0081028D01*
X0295561Y0081069D01*
X0295619Y0081106D01*
X0295679Y0081140D01*
X0295741Y0081171D01*
X0295805Y0081198D01*
X0295870Y0081222D01*
X0295936Y0081242D01*
X0296003Y0081259D01*
X0296071Y0081272D01*
X0296140Y0081282D01*
X0296209Y0081287D01*
X0296278Y0081289D01*
X0298322Y0081289D01*
X0298391Y0081287D01*
X0298460Y0081282D01*
X0298529Y0081272D01*
X0298597Y0081259D01*
X0298664Y0081242D01*
X0298730Y0081222D01*
X0298795Y0081198D01*
X0298859Y0081171D01*
X0298921Y0081140D01*
X0298981Y0081106D01*
X0299039Y0081069D01*
X0299095Y0081028D01*
X0299149Y0080985D01*
X0299201Y0080939D01*
X0299250Y0080890D01*
X0299296Y0080838D01*
X0299339Y0080784D01*
X0299380Y0080728D01*
X0299417Y0080670D01*
X0299451Y0080610D01*
X0299482Y0080548D01*
X0299509Y0080484D01*
X0299533Y0080419D01*
X0299553Y0080353D01*
X0299570Y0080286D01*
X0299583Y0080218D01*
X0299593Y0080149D01*
X0299598Y0080080D01*
X0299600Y0080011D01*
X0299600Y0078733D01*
X0295000Y0078733D01*
X0295000Y0073933D02*
X0299600Y0073933D01*
X0299600Y0070155D02*
X0299598Y0070093D01*
X0299593Y0070032D01*
X0299583Y0069971D01*
X0299570Y0069910D01*
X0299554Y0069851D01*
X0299534Y0069793D01*
X0299510Y0069736D01*
X0299483Y0069680D01*
X0299453Y0069626D01*
X0299419Y0069574D01*
X0299383Y0069525D01*
X0299343Y0069477D01*
X0299301Y0069432D01*
X0299256Y0069390D01*
X0299208Y0069350D01*
X0299159Y0069314D01*
X0299107Y0069280D01*
X0299053Y0069250D01*
X0298997Y0069223D01*
X0298940Y0069199D01*
X0298882Y0069179D01*
X0298823Y0069163D01*
X0298762Y0069150D01*
X0298701Y0069140D01*
X0298640Y0069135D01*
X0298578Y0069133D01*
X0296022Y0069133D01*
X0288078Y0071688D02*
X0288015Y0071686D01*
X0287952Y0071680D01*
X0287889Y0071671D01*
X0287827Y0071657D01*
X0287766Y0071640D01*
X0287706Y0071619D01*
X0287648Y0071595D01*
X0287591Y0071567D01*
X0287536Y0071535D01*
X0287483Y0071500D01*
X0287432Y0071462D01*
X0287384Y0071421D01*
X0287338Y0071378D01*
X0287295Y0071331D01*
X0287255Y0071282D01*
X0287218Y0071231D01*
X0287184Y0071177D01*
X0287183Y0071178D02*
X0286417Y0069772D01*
X0284500Y0070283D02*
X0284502Y0070365D01*
X0284507Y0070447D01*
X0284516Y0070529D01*
X0284528Y0070610D01*
X0284544Y0070691D01*
X0284563Y0070771D01*
X0284586Y0070850D01*
X0284612Y0070928D01*
X0284641Y0071005D01*
X0284674Y0071080D01*
X0284710Y0071154D01*
X0284748Y0071227D01*
X0284790Y0071298D01*
X0284835Y0071366D01*
X0284883Y0071433D01*
X0286416Y0069772D02*
X0286382Y0069718D01*
X0286345Y0069667D01*
X0286305Y0069618D01*
X0286262Y0069571D01*
X0286216Y0069528D01*
X0286168Y0069487D01*
X0286117Y0069449D01*
X0286064Y0069414D01*
X0286009Y0069382D01*
X0285952Y0069354D01*
X0285894Y0069330D01*
X0285834Y0069309D01*
X0285773Y0069292D01*
X0285711Y0069278D01*
X0285648Y0069269D01*
X0285585Y0069263D01*
X0285522Y0069261D01*
X0285460Y0069263D01*
X0285399Y0069268D01*
X0285338Y0069278D01*
X0285277Y0069291D01*
X0285218Y0069307D01*
X0285160Y0069327D01*
X0285103Y0069351D01*
X0285047Y0069378D01*
X0284993Y0069408D01*
X0284941Y0069442D01*
X0284892Y0069478D01*
X0284844Y0069518D01*
X0284799Y0069560D01*
X0284757Y0069605D01*
X0284717Y0069653D01*
X0284681Y0069702D01*
X0284647Y0069754D01*
X0284617Y0069808D01*
X0284590Y0069864D01*
X0284566Y0069921D01*
X0284546Y0069979D01*
X0284530Y0070038D01*
X0284517Y0070099D01*
X0284507Y0070160D01*
X0284502Y0070221D01*
X0284500Y0070283D01*
X0288461Y0069133D02*
X0288524Y0069197D01*
X0288583Y0069265D01*
X0288640Y0069334D01*
X0288694Y0069406D01*
X0288745Y0069480D01*
X0288793Y0069556D01*
X0288837Y0069633D01*
X0288878Y0069713D01*
X0288916Y0069794D01*
X0288951Y0069877D01*
X0288982Y0069961D01*
X0289009Y0070047D01*
X0289033Y0070133D01*
X0289054Y0070221D01*
X0289070Y0070309D01*
X0289083Y0070398D01*
X0289093Y0070487D01*
X0289098Y0070576D01*
X0289100Y0070666D01*
X0289098Y0070728D01*
X0289093Y0070789D01*
X0289083Y0070850D01*
X0289070Y0070911D01*
X0289054Y0070970D01*
X0289034Y0071028D01*
X0289010Y0071085D01*
X0288983Y0071141D01*
X0288953Y0071195D01*
X0288919Y0071247D01*
X0288883Y0071296D01*
X0288843Y0071344D01*
X0288801Y0071389D01*
X0288756Y0071431D01*
X0288708Y0071471D01*
X0288659Y0071507D01*
X0288607Y0071541D01*
X0288553Y0071571D01*
X0288497Y0071598D01*
X0288440Y0071622D01*
X0288382Y0071642D01*
X0288323Y0071658D01*
X0288262Y0071671D01*
X0288201Y0071681D01*
X0288140Y0071686D01*
X0288078Y0071688D01*
X0289100Y0073633D02*
X0289100Y0074911D01*
X0289098Y0074980D01*
X0289093Y0075049D01*
X0289083Y0075118D01*
X0289070Y0075186D01*
X0289053Y0075253D01*
X0289033Y0075319D01*
X0289009Y0075384D01*
X0288982Y0075448D01*
X0288951Y0075510D01*
X0288917Y0075570D01*
X0288880Y0075628D01*
X0288839Y0075684D01*
X0288796Y0075738D01*
X0288750Y0075790D01*
X0288701Y0075839D01*
X0288649Y0075885D01*
X0288595Y0075928D01*
X0288539Y0075969D01*
X0288481Y0076006D01*
X0288421Y0076040D01*
X0288359Y0076071D01*
X0288295Y0076098D01*
X0288230Y0076122D01*
X0288164Y0076142D01*
X0288097Y0076159D01*
X0288029Y0076172D01*
X0287960Y0076182D01*
X0287891Y0076187D01*
X0287822Y0076189D01*
X0285778Y0076189D01*
X0285709Y0076187D01*
X0285640Y0076182D01*
X0285571Y0076172D01*
X0285503Y0076159D01*
X0285436Y0076142D01*
X0285370Y0076122D01*
X0285305Y0076098D01*
X0285241Y0076071D01*
X0285179Y0076040D01*
X0285119Y0076006D01*
X0285061Y0075969D01*
X0285005Y0075928D01*
X0284951Y0075885D01*
X0284899Y0075839D01*
X0284850Y0075790D01*
X0284804Y0075738D01*
X0284761Y0075684D01*
X0284720Y0075628D01*
X0284683Y0075570D01*
X0284649Y0075510D01*
X0284618Y0075448D01*
X0284591Y0075384D01*
X0284567Y0075319D01*
X0284547Y0075253D01*
X0284530Y0075186D01*
X0284517Y0075118D01*
X0284507Y0075049D01*
X0284502Y0074980D01*
X0284500Y0074911D01*
X0284500Y0073633D01*
X0289100Y0073633D01*
X0289100Y0078027D02*
X0284500Y0079561D01*
X0289100Y0081094D01*
X0287950Y0080711D02*
X0287950Y0078411D01*
X0278600Y0077392D02*
X0278600Y0079436D01*
X0278600Y0077392D02*
X0274000Y0077392D01*
X0274000Y0075514D02*
X0274000Y0074492D01*
X0274002Y0074430D01*
X0274007Y0074369D01*
X0274017Y0074308D01*
X0274030Y0074247D01*
X0274046Y0074188D01*
X0274066Y0074130D01*
X0274090Y0074073D01*
X0274117Y0074017D01*
X0274147Y0073963D01*
X0274181Y0073911D01*
X0274218Y0073862D01*
X0274257Y0073814D01*
X0274299Y0073769D01*
X0274344Y0073727D01*
X0274392Y0073687D01*
X0274441Y0073651D01*
X0274493Y0073617D01*
X0274547Y0073587D01*
X0274603Y0073560D01*
X0274660Y0073536D01*
X0274718Y0073516D01*
X0274777Y0073500D01*
X0274838Y0073487D01*
X0274899Y0073477D01*
X0274960Y0073472D01*
X0275022Y0073470D01*
X0277578Y0073470D01*
X0277640Y0073472D01*
X0277701Y0073477D01*
X0277762Y0073487D01*
X0277823Y0073500D01*
X0277882Y0073516D01*
X0277940Y0073536D01*
X0277997Y0073560D01*
X0278053Y0073587D01*
X0278107Y0073617D01*
X0278159Y0073651D01*
X0278208Y0073687D01*
X0278256Y0073727D01*
X0278301Y0073769D01*
X0278343Y0073814D01*
X0278383Y0073862D01*
X0278419Y0073911D01*
X0278453Y0073963D01*
X0278483Y0074017D01*
X0278510Y0074073D01*
X0278534Y0074130D01*
X0278554Y0074188D01*
X0278570Y0074247D01*
X0278583Y0074308D01*
X0278593Y0074369D01*
X0278598Y0074430D01*
X0278600Y0074492D01*
X0278600Y0075514D01*
X0276683Y0071178D02*
X0275917Y0069772D01*
X0274000Y0070283D02*
X0274002Y0070365D01*
X0274007Y0070447D01*
X0274016Y0070529D01*
X0274028Y0070610D01*
X0274044Y0070691D01*
X0274063Y0070771D01*
X0274086Y0070850D01*
X0274112Y0070928D01*
X0274141Y0071005D01*
X0274174Y0071080D01*
X0274210Y0071154D01*
X0274248Y0071227D01*
X0274290Y0071298D01*
X0274335Y0071366D01*
X0274383Y0071433D01*
X0275916Y0069772D02*
X0275882Y0069718D01*
X0275845Y0069667D01*
X0275805Y0069618D01*
X0275762Y0069571D01*
X0275716Y0069528D01*
X0275668Y0069487D01*
X0275617Y0069449D01*
X0275564Y0069414D01*
X0275509Y0069382D01*
X0275452Y0069354D01*
X0275394Y0069330D01*
X0275334Y0069309D01*
X0275273Y0069292D01*
X0275211Y0069278D01*
X0275148Y0069269D01*
X0275085Y0069263D01*
X0275022Y0069261D01*
X0274960Y0069263D01*
X0274899Y0069268D01*
X0274838Y0069278D01*
X0274777Y0069291D01*
X0274718Y0069307D01*
X0274660Y0069327D01*
X0274603Y0069351D01*
X0274547Y0069378D01*
X0274493Y0069408D01*
X0274441Y0069442D01*
X0274392Y0069478D01*
X0274344Y0069518D01*
X0274299Y0069560D01*
X0274257Y0069605D01*
X0274217Y0069653D01*
X0274181Y0069702D01*
X0274147Y0069754D01*
X0274117Y0069808D01*
X0274090Y0069864D01*
X0274066Y0069921D01*
X0274046Y0069979D01*
X0274030Y0070038D01*
X0274017Y0070099D01*
X0274007Y0070160D01*
X0274002Y0070221D01*
X0274000Y0070283D01*
X0277961Y0069133D02*
X0278024Y0069197D01*
X0278083Y0069265D01*
X0278140Y0069334D01*
X0278194Y0069406D01*
X0278245Y0069480D01*
X0278293Y0069556D01*
X0278337Y0069633D01*
X0278378Y0069713D01*
X0278416Y0069794D01*
X0278451Y0069877D01*
X0278482Y0069961D01*
X0278509Y0070047D01*
X0278533Y0070133D01*
X0278554Y0070221D01*
X0278570Y0070309D01*
X0278583Y0070398D01*
X0278593Y0070487D01*
X0278598Y0070576D01*
X0278600Y0070666D01*
X0278598Y0070728D01*
X0278593Y0070789D01*
X0278583Y0070850D01*
X0278570Y0070911D01*
X0278554Y0070970D01*
X0278534Y0071028D01*
X0278510Y0071085D01*
X0278483Y0071141D01*
X0278453Y0071195D01*
X0278419Y0071247D01*
X0278383Y0071296D01*
X0278343Y0071344D01*
X0278301Y0071389D01*
X0278256Y0071431D01*
X0278208Y0071471D01*
X0278159Y0071507D01*
X0278107Y0071541D01*
X0278053Y0071571D01*
X0277997Y0071598D01*
X0277940Y0071622D01*
X0277882Y0071642D01*
X0277823Y0071658D01*
X0277762Y0071671D01*
X0277701Y0071681D01*
X0277640Y0071686D01*
X0277578Y0071688D01*
X0277515Y0071686D01*
X0277452Y0071680D01*
X0277389Y0071671D01*
X0277327Y0071657D01*
X0277266Y0071640D01*
X0277206Y0071619D01*
X0277148Y0071595D01*
X0277091Y0071567D01*
X0277036Y0071535D01*
X0276983Y0071500D01*
X0276932Y0071462D01*
X0276884Y0071421D01*
X0276838Y0071378D01*
X0276795Y0071331D01*
X0276755Y0071282D01*
X0276718Y0071231D01*
X0276684Y0071177D01*
D14*
X0157409Y0135933D02*
X0157409Y0136739D01*
X0157407Y0136794D01*
X0157401Y0136849D01*
X0157392Y0136903D01*
X0157379Y0136956D01*
X0157362Y0137009D01*
X0157342Y0137060D01*
X0157319Y0137110D01*
X0157292Y0137158D01*
X0157261Y0137204D01*
X0157228Y0137248D01*
X0157192Y0137289D01*
X0157153Y0137328D01*
X0157112Y0137364D01*
X0157068Y0137397D01*
X0157022Y0137428D01*
X0156974Y0137455D01*
X0156924Y0137478D01*
X0156873Y0137498D01*
X0156820Y0137515D01*
X0156767Y0137528D01*
X0156713Y0137537D01*
X0156658Y0137543D01*
X0156603Y0137545D01*
X0156548Y0137543D01*
X0156493Y0137537D01*
X0156439Y0137528D01*
X0156386Y0137515D01*
X0156333Y0137498D01*
X0156282Y0137478D01*
X0156232Y0137455D01*
X0156184Y0137428D01*
X0156138Y0137397D01*
X0156094Y0137364D01*
X0156053Y0137328D01*
X0156014Y0137289D01*
X0155978Y0137248D01*
X0155945Y0137204D01*
X0155914Y0137158D01*
X0155887Y0137110D01*
X0155864Y0137060D01*
X0155844Y0137009D01*
X0155827Y0136956D01*
X0155814Y0136903D01*
X0155805Y0136849D01*
X0155799Y0136794D01*
X0155797Y0136739D01*
X0155798Y0136739D02*
X0155798Y0135933D01*
X0155798Y0136900D02*
X0154509Y0137545D01*
X0154509Y0138793D02*
X0154509Y0140404D01*
X0154091Y0140966D02*
X0151835Y0140322D01*
X0151835Y0141933D01*
X0152409Y0142318D02*
X0150153Y0141673D01*
X0150153Y0143284D01*
X0150798Y0142801D02*
X0149509Y0142801D01*
X0147409Y0142640D02*
X0147409Y0141673D01*
X0147409Y0142640D02*
X0147407Y0142689D01*
X0147401Y0142738D01*
X0147392Y0142787D01*
X0147379Y0142834D01*
X0147362Y0142881D01*
X0147342Y0142926D01*
X0147319Y0142969D01*
X0147292Y0143011D01*
X0147262Y0143050D01*
X0147229Y0143087D01*
X0147193Y0143121D01*
X0147155Y0143152D01*
X0147115Y0143181D01*
X0147073Y0143206D01*
X0147028Y0143228D01*
X0146983Y0143246D01*
X0146936Y0143261D01*
X0146888Y0143272D01*
X0146839Y0143280D01*
X0146790Y0143284D01*
X0146740Y0143284D01*
X0146691Y0143280D01*
X0146642Y0143272D01*
X0146594Y0143261D01*
X0146547Y0143246D01*
X0146502Y0143228D01*
X0146457Y0143206D01*
X0146415Y0143181D01*
X0146375Y0143152D01*
X0146337Y0143121D01*
X0146301Y0143087D01*
X0146268Y0143050D01*
X0146238Y0143011D01*
X0146211Y0142969D01*
X0146188Y0142926D01*
X0146168Y0142881D01*
X0146151Y0142834D01*
X0146138Y0142787D01*
X0146129Y0142738D01*
X0146123Y0142689D01*
X0146121Y0142640D01*
X0146120Y0142640D02*
X0146120Y0141996D01*
X0146121Y0142479D02*
X0146119Y0142534D01*
X0146113Y0142589D01*
X0146104Y0142643D01*
X0146091Y0142696D01*
X0146074Y0142749D01*
X0146054Y0142800D01*
X0146031Y0142850D01*
X0146004Y0142898D01*
X0145973Y0142944D01*
X0145940Y0142988D01*
X0145904Y0143029D01*
X0145865Y0143068D01*
X0145824Y0143104D01*
X0145780Y0143137D01*
X0145734Y0143168D01*
X0145686Y0143195D01*
X0145636Y0143218D01*
X0145585Y0143238D01*
X0145532Y0143255D01*
X0145479Y0143268D01*
X0145425Y0143277D01*
X0145370Y0143283D01*
X0145315Y0143285D01*
X0145260Y0143283D01*
X0145205Y0143277D01*
X0145151Y0143268D01*
X0145098Y0143255D01*
X0145045Y0143238D01*
X0144994Y0143218D01*
X0144944Y0143195D01*
X0144896Y0143168D01*
X0144850Y0143137D01*
X0144806Y0143104D01*
X0144765Y0143068D01*
X0144726Y0143029D01*
X0144690Y0142988D01*
X0144657Y0142944D01*
X0144626Y0142898D01*
X0144599Y0142850D01*
X0144576Y0142800D01*
X0144556Y0142749D01*
X0144539Y0142696D01*
X0144526Y0142643D01*
X0144517Y0142589D01*
X0144511Y0142534D01*
X0144509Y0142479D01*
X0144509Y0141673D01*
X0144509Y0140404D02*
X0144509Y0138793D01*
X0144509Y0139599D02*
X0147409Y0139599D01*
X0146765Y0138793D01*
X0147409Y0136739D02*
X0147407Y0136794D01*
X0147401Y0136849D01*
X0147392Y0136903D01*
X0147379Y0136956D01*
X0147362Y0137009D01*
X0147342Y0137060D01*
X0147319Y0137110D01*
X0147292Y0137158D01*
X0147261Y0137204D01*
X0147228Y0137248D01*
X0147192Y0137289D01*
X0147153Y0137328D01*
X0147112Y0137364D01*
X0147068Y0137397D01*
X0147022Y0137428D01*
X0146974Y0137455D01*
X0146924Y0137478D01*
X0146873Y0137498D01*
X0146820Y0137515D01*
X0146767Y0137528D01*
X0146713Y0137537D01*
X0146658Y0137543D01*
X0146603Y0137545D01*
X0146548Y0137543D01*
X0146493Y0137537D01*
X0146439Y0137528D01*
X0146386Y0137515D01*
X0146333Y0137498D01*
X0146282Y0137478D01*
X0146232Y0137455D01*
X0146184Y0137428D01*
X0146138Y0137397D01*
X0146094Y0137364D01*
X0146053Y0137328D01*
X0146014Y0137289D01*
X0145978Y0137248D01*
X0145945Y0137204D01*
X0145914Y0137158D01*
X0145887Y0137110D01*
X0145864Y0137060D01*
X0145844Y0137009D01*
X0145827Y0136956D01*
X0145814Y0136903D01*
X0145805Y0136849D01*
X0145799Y0136794D01*
X0145797Y0136739D01*
X0145798Y0136739D02*
X0145798Y0135933D01*
X0145798Y0136900D02*
X0144509Y0137545D01*
X0144509Y0135933D02*
X0147409Y0135933D01*
X0147409Y0136739D01*
X0149509Y0135933D02*
X0152409Y0135933D01*
X0152409Y0136739D01*
X0152407Y0136794D01*
X0152401Y0136849D01*
X0152392Y0136903D01*
X0152379Y0136956D01*
X0152362Y0137009D01*
X0152342Y0137060D01*
X0152319Y0137110D01*
X0152292Y0137158D01*
X0152261Y0137204D01*
X0152228Y0137248D01*
X0152192Y0137289D01*
X0152153Y0137328D01*
X0152112Y0137364D01*
X0152068Y0137397D01*
X0152022Y0137428D01*
X0151974Y0137455D01*
X0151924Y0137478D01*
X0151873Y0137498D01*
X0151820Y0137515D01*
X0151767Y0137528D01*
X0151713Y0137537D01*
X0151658Y0137543D01*
X0151603Y0137545D01*
X0151548Y0137543D01*
X0151493Y0137537D01*
X0151439Y0137528D01*
X0151386Y0137515D01*
X0151333Y0137498D01*
X0151282Y0137478D01*
X0151232Y0137455D01*
X0151184Y0137428D01*
X0151138Y0137397D01*
X0151094Y0137364D01*
X0151053Y0137328D01*
X0151014Y0137289D01*
X0150978Y0137248D01*
X0150945Y0137204D01*
X0150914Y0137158D01*
X0150887Y0137110D01*
X0150864Y0137060D01*
X0150844Y0137009D01*
X0150827Y0136956D01*
X0150814Y0136903D01*
X0150805Y0136849D01*
X0150799Y0136794D01*
X0150797Y0136739D01*
X0150798Y0136739D02*
X0150798Y0135933D01*
X0151191Y0136193D02*
X0152480Y0135548D01*
X0152480Y0135387D02*
X0152480Y0134582D01*
X0152479Y0135387D02*
X0152481Y0135442D01*
X0152487Y0135497D01*
X0152496Y0135551D01*
X0152509Y0135604D01*
X0152526Y0135657D01*
X0152546Y0135708D01*
X0152569Y0135758D01*
X0152596Y0135806D01*
X0152627Y0135852D01*
X0152660Y0135896D01*
X0152696Y0135937D01*
X0152735Y0135976D01*
X0152776Y0136012D01*
X0152820Y0136045D01*
X0152866Y0136076D01*
X0152914Y0136103D01*
X0152964Y0136126D01*
X0153015Y0136146D01*
X0153068Y0136163D01*
X0153121Y0136176D01*
X0153175Y0136185D01*
X0153230Y0136191D01*
X0153285Y0136193D01*
X0153340Y0136191D01*
X0153395Y0136185D01*
X0153449Y0136176D01*
X0153502Y0136163D01*
X0153555Y0136146D01*
X0153606Y0136126D01*
X0153656Y0136103D01*
X0153704Y0136076D01*
X0153750Y0136045D01*
X0153794Y0136012D01*
X0153835Y0135976D01*
X0153874Y0135937D01*
X0153910Y0135896D01*
X0153943Y0135852D01*
X0153974Y0135806D01*
X0154001Y0135758D01*
X0154024Y0135708D01*
X0154044Y0135657D01*
X0154061Y0135604D01*
X0154074Y0135551D01*
X0154083Y0135497D01*
X0154089Y0135442D01*
X0154091Y0135387D01*
X0154091Y0134582D01*
X0151191Y0134582D01*
X0150798Y0136900D02*
X0149509Y0137545D01*
X0149509Y0138793D02*
X0149509Y0140404D01*
X0149509Y0139599D02*
X0152409Y0139599D01*
X0151765Y0138793D01*
X0151191Y0139053D02*
X0151191Y0137442D01*
X0152802Y0138811D01*
X0154091Y0138328D02*
X0154089Y0138269D01*
X0154084Y0138211D01*
X0154074Y0138153D01*
X0154062Y0138096D01*
X0154045Y0138040D01*
X0154026Y0137985D01*
X0154002Y0137931D01*
X0153976Y0137879D01*
X0153946Y0137829D01*
X0153913Y0137780D01*
X0153877Y0137734D01*
X0153838Y0137690D01*
X0153797Y0137649D01*
X0153753Y0137610D01*
X0153707Y0137574D01*
X0153658Y0137542D01*
X0153608Y0137512D01*
X0153556Y0137485D01*
X0153502Y0137462D01*
X0153447Y0137442D01*
X0152802Y0138811D02*
X0152839Y0138848D01*
X0152879Y0138882D01*
X0152921Y0138914D01*
X0152966Y0138942D01*
X0153012Y0138968D01*
X0153059Y0138990D01*
X0153108Y0139009D01*
X0153158Y0139025D01*
X0153209Y0139037D01*
X0153261Y0139046D01*
X0153313Y0139051D01*
X0153366Y0139053D01*
X0153418Y0139051D01*
X0153469Y0139046D01*
X0153520Y0139036D01*
X0153570Y0139024D01*
X0153619Y0139007D01*
X0153667Y0138987D01*
X0153713Y0138964D01*
X0153758Y0138938D01*
X0153800Y0138908D01*
X0153841Y0138876D01*
X0153879Y0138841D01*
X0153914Y0138803D01*
X0153946Y0138762D01*
X0153976Y0138720D01*
X0154002Y0138675D01*
X0154025Y0138629D01*
X0154045Y0138581D01*
X0154062Y0138532D01*
X0154074Y0138482D01*
X0154084Y0138431D01*
X0154089Y0138380D01*
X0154091Y0138328D01*
X0154509Y0138793D02*
X0156120Y0140163D01*
X0157409Y0139679D02*
X0157407Y0139620D01*
X0157402Y0139562D01*
X0157392Y0139504D01*
X0157380Y0139447D01*
X0157363Y0139391D01*
X0157344Y0139336D01*
X0157320Y0139282D01*
X0157294Y0139230D01*
X0157264Y0139180D01*
X0157231Y0139131D01*
X0157195Y0139085D01*
X0157156Y0139041D01*
X0157115Y0139000D01*
X0157071Y0138961D01*
X0157025Y0138925D01*
X0156976Y0138893D01*
X0156926Y0138863D01*
X0156874Y0138836D01*
X0156820Y0138813D01*
X0156765Y0138793D01*
X0156120Y0140163D02*
X0156157Y0140200D01*
X0156197Y0140234D01*
X0156239Y0140266D01*
X0156284Y0140294D01*
X0156330Y0140320D01*
X0156377Y0140342D01*
X0156426Y0140361D01*
X0156476Y0140377D01*
X0156527Y0140389D01*
X0156579Y0140398D01*
X0156631Y0140403D01*
X0156684Y0140405D01*
X0156684Y0140404D02*
X0156736Y0140402D01*
X0156787Y0140397D01*
X0156838Y0140387D01*
X0156888Y0140375D01*
X0156937Y0140358D01*
X0156985Y0140338D01*
X0157031Y0140315D01*
X0157076Y0140289D01*
X0157118Y0140259D01*
X0157159Y0140227D01*
X0157197Y0140192D01*
X0157232Y0140154D01*
X0157264Y0140113D01*
X0157294Y0140071D01*
X0157320Y0140026D01*
X0157343Y0139980D01*
X0157363Y0139932D01*
X0157380Y0139883D01*
X0157392Y0139833D01*
X0157402Y0139782D01*
X0157407Y0139731D01*
X0157409Y0139679D01*
X0157409Y0141673D02*
X0157409Y0142640D01*
X0157407Y0142689D01*
X0157401Y0142738D01*
X0157392Y0142787D01*
X0157379Y0142834D01*
X0157362Y0142881D01*
X0157342Y0142926D01*
X0157319Y0142969D01*
X0157292Y0143011D01*
X0157262Y0143050D01*
X0157229Y0143087D01*
X0157193Y0143121D01*
X0157155Y0143152D01*
X0157115Y0143181D01*
X0157073Y0143206D01*
X0157028Y0143228D01*
X0156983Y0143246D01*
X0156936Y0143261D01*
X0156888Y0143272D01*
X0156839Y0143280D01*
X0156790Y0143284D01*
X0156740Y0143284D01*
X0156691Y0143280D01*
X0156642Y0143272D01*
X0156594Y0143261D01*
X0156547Y0143246D01*
X0156502Y0143228D01*
X0156457Y0143206D01*
X0156415Y0143181D01*
X0156375Y0143152D01*
X0156337Y0143121D01*
X0156301Y0143087D01*
X0156268Y0143050D01*
X0156238Y0143011D01*
X0156211Y0142969D01*
X0156188Y0142926D01*
X0156168Y0142881D01*
X0156151Y0142834D01*
X0156138Y0142787D01*
X0156129Y0142738D01*
X0156123Y0142689D01*
X0156121Y0142640D01*
X0156120Y0142640D02*
X0156120Y0141996D01*
X0156121Y0142479D02*
X0156119Y0142534D01*
X0156113Y0142589D01*
X0156104Y0142643D01*
X0156091Y0142696D01*
X0156074Y0142749D01*
X0156054Y0142800D01*
X0156031Y0142850D01*
X0156004Y0142898D01*
X0155973Y0142944D01*
X0155940Y0142988D01*
X0155904Y0143029D01*
X0155865Y0143068D01*
X0155824Y0143104D01*
X0155780Y0143137D01*
X0155734Y0143168D01*
X0155686Y0143195D01*
X0155636Y0143218D01*
X0155585Y0143238D01*
X0155532Y0143255D01*
X0155479Y0143268D01*
X0155425Y0143277D01*
X0155370Y0143283D01*
X0155315Y0143285D01*
X0155260Y0143283D01*
X0155205Y0143277D01*
X0155151Y0143268D01*
X0155098Y0143255D01*
X0155045Y0143238D01*
X0154994Y0143218D01*
X0154944Y0143195D01*
X0154896Y0143168D01*
X0154850Y0143137D01*
X0154806Y0143104D01*
X0154765Y0143068D01*
X0154726Y0143029D01*
X0154690Y0142988D01*
X0154657Y0142944D01*
X0154626Y0142898D01*
X0154599Y0142850D01*
X0154576Y0142800D01*
X0154556Y0142749D01*
X0154539Y0142696D01*
X0154526Y0142643D01*
X0154517Y0142589D01*
X0154511Y0142534D01*
X0154509Y0142479D01*
X0154509Y0141673D01*
X0152480Y0141449D02*
X0151191Y0141449D01*
X0154509Y0135933D02*
X0157409Y0135933D01*
X0137409Y0135933D02*
X0137409Y0136739D01*
X0137407Y0136794D01*
X0137401Y0136849D01*
X0137392Y0136903D01*
X0137379Y0136956D01*
X0137362Y0137009D01*
X0137342Y0137060D01*
X0137319Y0137110D01*
X0137292Y0137158D01*
X0137261Y0137204D01*
X0137228Y0137248D01*
X0137192Y0137289D01*
X0137153Y0137328D01*
X0137112Y0137364D01*
X0137068Y0137397D01*
X0137022Y0137428D01*
X0136974Y0137455D01*
X0136924Y0137478D01*
X0136873Y0137498D01*
X0136820Y0137515D01*
X0136767Y0137528D01*
X0136713Y0137537D01*
X0136658Y0137543D01*
X0136603Y0137545D01*
X0136548Y0137543D01*
X0136493Y0137537D01*
X0136439Y0137528D01*
X0136386Y0137515D01*
X0136333Y0137498D01*
X0136282Y0137478D01*
X0136232Y0137455D01*
X0136184Y0137428D01*
X0136138Y0137397D01*
X0136094Y0137364D01*
X0136053Y0137328D01*
X0136014Y0137289D01*
X0135978Y0137248D01*
X0135945Y0137204D01*
X0135914Y0137158D01*
X0135887Y0137110D01*
X0135864Y0137060D01*
X0135844Y0137009D01*
X0135827Y0136956D01*
X0135814Y0136903D01*
X0135805Y0136849D01*
X0135799Y0136794D01*
X0135797Y0136739D01*
X0135798Y0136739D02*
X0135798Y0135933D01*
X0135798Y0136900D02*
X0134509Y0137545D01*
X0134509Y0138793D02*
X0134509Y0140404D01*
X0134509Y0139599D02*
X0137409Y0139599D01*
X0136765Y0138793D01*
X0136603Y0141673D02*
X0136442Y0141673D01*
X0136442Y0141674D02*
X0136394Y0141676D01*
X0136346Y0141681D01*
X0136299Y0141690D01*
X0136252Y0141703D01*
X0136207Y0141719D01*
X0136163Y0141738D01*
X0136120Y0141760D01*
X0136079Y0141786D01*
X0136040Y0141814D01*
X0136004Y0141846D01*
X0135970Y0141880D01*
X0135939Y0141916D01*
X0135910Y0141955D01*
X0135884Y0141996D01*
X0135862Y0142039D01*
X0135843Y0142083D01*
X0135827Y0142128D01*
X0135814Y0142175D01*
X0135805Y0142222D01*
X0135800Y0142270D01*
X0135798Y0142318D01*
X0135798Y0143284D01*
X0136603Y0143284D01*
X0136603Y0143285D02*
X0136658Y0143283D01*
X0136713Y0143277D01*
X0136767Y0143268D01*
X0136820Y0143255D01*
X0136873Y0143238D01*
X0136924Y0143218D01*
X0136974Y0143195D01*
X0137022Y0143168D01*
X0137068Y0143137D01*
X0137112Y0143104D01*
X0137153Y0143068D01*
X0137192Y0143029D01*
X0137228Y0142988D01*
X0137261Y0142944D01*
X0137292Y0142898D01*
X0137319Y0142850D01*
X0137342Y0142800D01*
X0137362Y0142749D01*
X0137379Y0142696D01*
X0137392Y0142643D01*
X0137401Y0142589D01*
X0137407Y0142534D01*
X0137409Y0142479D01*
X0137407Y0142424D01*
X0137401Y0142369D01*
X0137392Y0142315D01*
X0137379Y0142262D01*
X0137362Y0142209D01*
X0137342Y0142158D01*
X0137319Y0142108D01*
X0137292Y0142060D01*
X0137261Y0142014D01*
X0137228Y0141970D01*
X0137192Y0141929D01*
X0137153Y0141890D01*
X0137112Y0141854D01*
X0137068Y0141821D01*
X0137022Y0141790D01*
X0136974Y0141763D01*
X0136924Y0141740D01*
X0136873Y0141720D01*
X0136820Y0141703D01*
X0136767Y0141690D01*
X0136713Y0141681D01*
X0136658Y0141675D01*
X0136603Y0141673D01*
X0135798Y0143285D02*
X0135728Y0143283D01*
X0135659Y0143277D01*
X0135589Y0143268D01*
X0135521Y0143255D01*
X0135453Y0143238D01*
X0135386Y0143218D01*
X0135321Y0143193D01*
X0135257Y0143166D01*
X0135194Y0143135D01*
X0135133Y0143100D01*
X0135075Y0143063D01*
X0135018Y0143022D01*
X0134964Y0142978D01*
X0134912Y0142932D01*
X0134862Y0142882D01*
X0134816Y0142830D01*
X0134772Y0142776D01*
X0134731Y0142719D01*
X0134694Y0142661D01*
X0134659Y0142600D01*
X0134628Y0142537D01*
X0134601Y0142473D01*
X0134576Y0142408D01*
X0134556Y0142341D01*
X0134539Y0142273D01*
X0134526Y0142205D01*
X0134517Y0142135D01*
X0134511Y0142066D01*
X0134509Y0141996D01*
X0134509Y0135933D02*
X0137409Y0135933D01*
X0127409Y0135933D02*
X0127409Y0136739D01*
X0127407Y0136794D01*
X0127401Y0136849D01*
X0127392Y0136903D01*
X0127379Y0136956D01*
X0127362Y0137009D01*
X0127342Y0137060D01*
X0127319Y0137110D01*
X0127292Y0137158D01*
X0127261Y0137204D01*
X0127228Y0137248D01*
X0127192Y0137289D01*
X0127153Y0137328D01*
X0127112Y0137364D01*
X0127068Y0137397D01*
X0127022Y0137428D01*
X0126974Y0137455D01*
X0126924Y0137478D01*
X0126873Y0137498D01*
X0126820Y0137515D01*
X0126767Y0137528D01*
X0126713Y0137537D01*
X0126658Y0137543D01*
X0126603Y0137545D01*
X0126548Y0137543D01*
X0126493Y0137537D01*
X0126439Y0137528D01*
X0126386Y0137515D01*
X0126333Y0137498D01*
X0126282Y0137478D01*
X0126232Y0137455D01*
X0126184Y0137428D01*
X0126138Y0137397D01*
X0126094Y0137364D01*
X0126053Y0137328D01*
X0126014Y0137289D01*
X0125978Y0137248D01*
X0125945Y0137204D01*
X0125914Y0137158D01*
X0125887Y0137110D01*
X0125864Y0137060D01*
X0125844Y0137009D01*
X0125827Y0136956D01*
X0125814Y0136903D01*
X0125805Y0136849D01*
X0125799Y0136794D01*
X0125797Y0136739D01*
X0125798Y0136739D02*
X0125798Y0135933D01*
X0125798Y0136900D02*
X0124509Y0137545D01*
X0124509Y0138793D02*
X0124509Y0140404D01*
X0124091Y0141127D02*
X0124089Y0141173D01*
X0124084Y0141219D01*
X0124075Y0141264D01*
X0124063Y0141309D01*
X0124047Y0141352D01*
X0124028Y0141394D01*
X0124005Y0141435D01*
X0123980Y0141473D01*
X0123952Y0141510D01*
X0123921Y0141544D01*
X0123887Y0141576D01*
X0123851Y0141605D01*
X0123813Y0141631D01*
X0123773Y0141654D01*
X0123731Y0141674D01*
X0123688Y0141691D01*
X0123446Y0141772D02*
X0121835Y0140483D01*
X0121191Y0141127D02*
X0121193Y0141173D01*
X0121198Y0141219D01*
X0121207Y0141264D01*
X0121219Y0141309D01*
X0121235Y0141352D01*
X0121254Y0141394D01*
X0121277Y0141435D01*
X0121302Y0141473D01*
X0121330Y0141510D01*
X0121361Y0141544D01*
X0121395Y0141576D01*
X0121431Y0141605D01*
X0121469Y0141631D01*
X0121509Y0141654D01*
X0121551Y0141674D01*
X0121594Y0141691D01*
X0121191Y0141127D02*
X0121193Y0141081D01*
X0121198Y0141035D01*
X0121207Y0140990D01*
X0121219Y0140945D01*
X0121235Y0140902D01*
X0121254Y0140860D01*
X0121277Y0140819D01*
X0121302Y0140781D01*
X0121330Y0140744D01*
X0121361Y0140710D01*
X0121395Y0140678D01*
X0121431Y0140649D01*
X0121469Y0140623D01*
X0121509Y0140600D01*
X0121551Y0140580D01*
X0121594Y0140563D01*
X0122641Y0141933D02*
X0122731Y0141931D01*
X0122822Y0141926D01*
X0122911Y0141918D01*
X0123001Y0141906D01*
X0123090Y0141890D01*
X0123178Y0141872D01*
X0123266Y0141850D01*
X0123353Y0141825D01*
X0123438Y0141796D01*
X0123523Y0141764D01*
X0123606Y0141729D01*
X0123688Y0141691D01*
X0124091Y0141127D02*
X0124089Y0141081D01*
X0124084Y0141035D01*
X0124075Y0140990D01*
X0124063Y0140945D01*
X0124047Y0140902D01*
X0124028Y0140860D01*
X0124005Y0140819D01*
X0123980Y0140781D01*
X0123952Y0140744D01*
X0123921Y0140710D01*
X0123887Y0140678D01*
X0123851Y0140649D01*
X0123813Y0140623D01*
X0123773Y0140600D01*
X0123731Y0140580D01*
X0123688Y0140563D01*
X0124509Y0141673D02*
X0124509Y0143284D01*
X0124509Y0141673D02*
X0126120Y0143043D01*
X0127409Y0142559D02*
X0127407Y0142500D01*
X0127402Y0142442D01*
X0127392Y0142384D01*
X0127380Y0142327D01*
X0127363Y0142271D01*
X0127344Y0142216D01*
X0127320Y0142162D01*
X0127294Y0142110D01*
X0127264Y0142060D01*
X0127231Y0142011D01*
X0127195Y0141965D01*
X0127156Y0141921D01*
X0127115Y0141880D01*
X0127071Y0141841D01*
X0127025Y0141805D01*
X0126976Y0141773D01*
X0126926Y0141743D01*
X0126874Y0141716D01*
X0126820Y0141693D01*
X0126765Y0141673D01*
X0126120Y0143043D02*
X0126157Y0143080D01*
X0126197Y0143114D01*
X0126239Y0143146D01*
X0126284Y0143174D01*
X0126330Y0143200D01*
X0126377Y0143222D01*
X0126426Y0143241D01*
X0126476Y0143257D01*
X0126527Y0143269D01*
X0126579Y0143278D01*
X0126631Y0143283D01*
X0126684Y0143285D01*
X0126684Y0143284D02*
X0126736Y0143282D01*
X0126787Y0143277D01*
X0126838Y0143267D01*
X0126888Y0143255D01*
X0126937Y0143238D01*
X0126985Y0143218D01*
X0127031Y0143195D01*
X0127076Y0143169D01*
X0127118Y0143139D01*
X0127159Y0143107D01*
X0127197Y0143072D01*
X0127232Y0143034D01*
X0127264Y0142993D01*
X0127294Y0142951D01*
X0127320Y0142906D01*
X0127343Y0142860D01*
X0127363Y0142812D01*
X0127380Y0142763D01*
X0127392Y0142713D01*
X0127402Y0142662D01*
X0127407Y0142611D01*
X0127409Y0142559D01*
X0126120Y0140163D02*
X0124509Y0138793D01*
X0124091Y0138328D02*
X0124089Y0138380D01*
X0124084Y0138431D01*
X0124074Y0138482D01*
X0124062Y0138532D01*
X0124045Y0138581D01*
X0124025Y0138629D01*
X0124002Y0138675D01*
X0123976Y0138720D01*
X0123946Y0138762D01*
X0123914Y0138803D01*
X0123879Y0138841D01*
X0123841Y0138876D01*
X0123800Y0138908D01*
X0123758Y0138938D01*
X0123713Y0138964D01*
X0123667Y0138987D01*
X0123619Y0139007D01*
X0123570Y0139024D01*
X0123520Y0139036D01*
X0123469Y0139046D01*
X0123418Y0139051D01*
X0123366Y0139053D01*
X0122802Y0138811D02*
X0121191Y0137442D01*
X0121191Y0139053D01*
X0121594Y0141691D02*
X0121676Y0141729D01*
X0121759Y0141764D01*
X0121844Y0141796D01*
X0121929Y0141825D01*
X0122016Y0141850D01*
X0122104Y0141872D01*
X0122192Y0141890D01*
X0122281Y0141906D01*
X0122371Y0141918D01*
X0122460Y0141926D01*
X0122551Y0141931D01*
X0122641Y0141933D01*
X0122641Y0140321D02*
X0122731Y0140323D01*
X0122822Y0140328D01*
X0122911Y0140336D01*
X0123001Y0140348D01*
X0123090Y0140364D01*
X0123178Y0140382D01*
X0123266Y0140404D01*
X0123353Y0140429D01*
X0123438Y0140458D01*
X0123523Y0140490D01*
X0123606Y0140525D01*
X0123688Y0140563D01*
X0124091Y0138328D02*
X0124089Y0138269D01*
X0124084Y0138211D01*
X0124074Y0138153D01*
X0124062Y0138096D01*
X0124045Y0138040D01*
X0124026Y0137985D01*
X0124002Y0137931D01*
X0123976Y0137879D01*
X0123946Y0137829D01*
X0123913Y0137780D01*
X0123877Y0137734D01*
X0123838Y0137690D01*
X0123797Y0137649D01*
X0123753Y0137610D01*
X0123707Y0137574D01*
X0123658Y0137542D01*
X0123608Y0137512D01*
X0123556Y0137485D01*
X0123502Y0137462D01*
X0123447Y0137442D01*
X0122802Y0138811D02*
X0122839Y0138848D01*
X0122879Y0138882D01*
X0122921Y0138914D01*
X0122966Y0138942D01*
X0123012Y0138968D01*
X0123059Y0138990D01*
X0123108Y0139009D01*
X0123158Y0139025D01*
X0123209Y0139037D01*
X0123261Y0139046D01*
X0123313Y0139051D01*
X0123366Y0139053D01*
X0126765Y0138793D02*
X0126820Y0138813D01*
X0126874Y0138836D01*
X0126926Y0138863D01*
X0126976Y0138893D01*
X0127025Y0138925D01*
X0127071Y0138961D01*
X0127115Y0139000D01*
X0127156Y0139041D01*
X0127195Y0139085D01*
X0127231Y0139131D01*
X0127264Y0139180D01*
X0127294Y0139230D01*
X0127320Y0139282D01*
X0127344Y0139336D01*
X0127363Y0139391D01*
X0127380Y0139447D01*
X0127392Y0139504D01*
X0127402Y0139562D01*
X0127407Y0139620D01*
X0127409Y0139679D01*
X0127407Y0139731D01*
X0127402Y0139782D01*
X0127392Y0139833D01*
X0127380Y0139883D01*
X0127363Y0139932D01*
X0127343Y0139980D01*
X0127320Y0140026D01*
X0127294Y0140071D01*
X0127264Y0140113D01*
X0127232Y0140154D01*
X0127197Y0140192D01*
X0127159Y0140227D01*
X0127118Y0140259D01*
X0127076Y0140289D01*
X0127031Y0140315D01*
X0126985Y0140338D01*
X0126937Y0140358D01*
X0126888Y0140375D01*
X0126838Y0140387D01*
X0126787Y0140397D01*
X0126736Y0140402D01*
X0126684Y0140404D01*
X0126684Y0140405D02*
X0126631Y0140403D01*
X0126579Y0140398D01*
X0126527Y0140389D01*
X0126476Y0140377D01*
X0126426Y0140361D01*
X0126377Y0140342D01*
X0126330Y0140320D01*
X0126284Y0140294D01*
X0126239Y0140266D01*
X0126197Y0140234D01*
X0126157Y0140200D01*
X0126120Y0140163D01*
X0122641Y0140322D02*
X0122551Y0140324D01*
X0122460Y0140329D01*
X0122371Y0140337D01*
X0122281Y0140349D01*
X0122192Y0140365D01*
X0122104Y0140383D01*
X0122016Y0140405D01*
X0121929Y0140430D01*
X0121844Y0140459D01*
X0121759Y0140491D01*
X0121676Y0140526D01*
X0121594Y0140564D01*
X0121191Y0136193D02*
X0122480Y0135548D01*
X0122480Y0135387D02*
X0122480Y0134582D01*
X0122479Y0135387D02*
X0122481Y0135442D01*
X0122487Y0135497D01*
X0122496Y0135551D01*
X0122509Y0135604D01*
X0122526Y0135657D01*
X0122546Y0135708D01*
X0122569Y0135758D01*
X0122596Y0135806D01*
X0122627Y0135852D01*
X0122660Y0135896D01*
X0122696Y0135937D01*
X0122735Y0135976D01*
X0122776Y0136012D01*
X0122820Y0136045D01*
X0122866Y0136076D01*
X0122914Y0136103D01*
X0122964Y0136126D01*
X0123015Y0136146D01*
X0123068Y0136163D01*
X0123121Y0136176D01*
X0123175Y0136185D01*
X0123230Y0136191D01*
X0123285Y0136193D01*
X0123340Y0136191D01*
X0123395Y0136185D01*
X0123449Y0136176D01*
X0123502Y0136163D01*
X0123555Y0136146D01*
X0123606Y0136126D01*
X0123656Y0136103D01*
X0123704Y0136076D01*
X0123750Y0136045D01*
X0123794Y0136012D01*
X0123835Y0135976D01*
X0123874Y0135937D01*
X0123910Y0135896D01*
X0123943Y0135852D01*
X0123974Y0135806D01*
X0124001Y0135758D01*
X0124024Y0135708D01*
X0124044Y0135657D01*
X0124061Y0135604D01*
X0124074Y0135551D01*
X0124083Y0135497D01*
X0124089Y0135442D01*
X0124091Y0135387D01*
X0124091Y0134582D01*
X0121191Y0134582D01*
X0124509Y0135933D02*
X0127409Y0135933D01*
D15*
X0105265Y0127083D02*
X0159989Y0127083D01*
X0159989Y0064091D01*
X0105265Y0064091D01*
X0105265Y0127083D01*
X0113926Y0062909D02*
X0113926Y0058972D01*
X0113925Y0058972D02*
X0113927Y0059058D01*
X0113932Y0059144D01*
X0113942Y0059229D01*
X0113955Y0059314D01*
X0113972Y0059398D01*
X0113992Y0059482D01*
X0114016Y0059564D01*
X0114044Y0059645D01*
X0114075Y0059726D01*
X0114109Y0059804D01*
X0114147Y0059881D01*
X0114189Y0059957D01*
X0114233Y0060030D01*
X0114281Y0060101D01*
X0114332Y0060171D01*
X0114386Y0060238D01*
X0114442Y0060302D01*
X0114502Y0060364D01*
X0114564Y0060424D01*
X0114628Y0060480D01*
X0114695Y0060534D01*
X0114765Y0060585D01*
X0114836Y0060633D01*
X0114910Y0060677D01*
X0114985Y0060719D01*
X0115062Y0060757D01*
X0115140Y0060791D01*
X0115221Y0060822D01*
X0115302Y0060850D01*
X0115384Y0060874D01*
X0115468Y0060894D01*
X0115552Y0060911D01*
X0115637Y0060924D01*
X0115722Y0060934D01*
X0115808Y0060939D01*
X0115894Y0060941D01*
X0135580Y0062909D01*
X0155265Y0060941D01*
X0155351Y0060939D01*
X0155437Y0060934D01*
X0155522Y0060924D01*
X0155607Y0060911D01*
X0155691Y0060894D01*
X0155775Y0060874D01*
X0155857Y0060850D01*
X0155938Y0060822D01*
X0156019Y0060791D01*
X0156097Y0060757D01*
X0156174Y0060719D01*
X0156250Y0060677D01*
X0156323Y0060633D01*
X0156394Y0060585D01*
X0156464Y0060534D01*
X0156531Y0060480D01*
X0156595Y0060424D01*
X0156657Y0060364D01*
X0156717Y0060302D01*
X0156773Y0060238D01*
X0156827Y0060171D01*
X0156878Y0060101D01*
X0156926Y0060030D01*
X0156970Y0059957D01*
X0157012Y0059881D01*
X0157050Y0059804D01*
X0157084Y0059726D01*
X0157115Y0059645D01*
X0157143Y0059564D01*
X0157167Y0059482D01*
X0157187Y0059398D01*
X0157204Y0059314D01*
X0157217Y0059229D01*
X0157227Y0059144D01*
X0157232Y0059058D01*
X0157234Y0058972D01*
X0157233Y0058972D02*
X0157233Y0062909D01*
X0157234Y0058972D02*
X0157232Y0058886D01*
X0157227Y0058800D01*
X0157217Y0058715D01*
X0157204Y0058630D01*
X0157187Y0058546D01*
X0157167Y0058462D01*
X0157143Y0058380D01*
X0157115Y0058299D01*
X0157084Y0058218D01*
X0157050Y0058140D01*
X0157012Y0058063D01*
X0156970Y0057988D01*
X0156926Y0057914D01*
X0156878Y0057843D01*
X0156827Y0057773D01*
X0156773Y0057706D01*
X0156717Y0057642D01*
X0156657Y0057580D01*
X0156595Y0057520D01*
X0156531Y0057464D01*
X0156464Y0057410D01*
X0156394Y0057359D01*
X0156323Y0057311D01*
X0156250Y0057267D01*
X0156174Y0057225D01*
X0156097Y0057187D01*
X0156019Y0057153D01*
X0155938Y0057122D01*
X0155857Y0057094D01*
X0155775Y0057070D01*
X0155691Y0057050D01*
X0155607Y0057033D01*
X0155522Y0057020D01*
X0155437Y0057010D01*
X0155351Y0057005D01*
X0155265Y0057003D01*
X0155265Y0057004D02*
X0115894Y0057004D01*
X0115894Y0057003D02*
X0115808Y0057005D01*
X0115722Y0057010D01*
X0115637Y0057020D01*
X0115552Y0057033D01*
X0115468Y0057050D01*
X0115384Y0057070D01*
X0115302Y0057094D01*
X0115221Y0057122D01*
X0115140Y0057153D01*
X0115062Y0057187D01*
X0114985Y0057225D01*
X0114910Y0057267D01*
X0114836Y0057311D01*
X0114765Y0057359D01*
X0114695Y0057410D01*
X0114628Y0057464D01*
X0114564Y0057520D01*
X0114502Y0057580D01*
X0114442Y0057642D01*
X0114386Y0057706D01*
X0114332Y0057773D01*
X0114281Y0057843D01*
X0114233Y0057914D01*
X0114189Y0057988D01*
X0114147Y0058063D01*
X0114109Y0058140D01*
X0114075Y0058218D01*
X0114044Y0058299D01*
X0114016Y0058380D01*
X0113992Y0058462D01*
X0113972Y0058546D01*
X0113955Y0058630D01*
X0113942Y0058715D01*
X0113932Y0058800D01*
X0113927Y0058886D01*
X0113925Y0058972D01*
D16*
X0115748Y0074333D02*
X0115748Y0078533D01*
X0114582Y0078533D02*
X0116915Y0078533D01*
X0119948Y0078533D02*
X0118548Y0074333D01*
X0118898Y0075383D02*
X0120998Y0075383D01*
X0121348Y0074333D02*
X0119948Y0078533D01*
X0124215Y0078533D02*
X0125615Y0078533D01*
X0124215Y0078533D02*
X0124155Y0078531D01*
X0124096Y0078525D01*
X0124037Y0078516D01*
X0123978Y0078502D01*
X0123921Y0078485D01*
X0123865Y0078465D01*
X0123810Y0078441D01*
X0123757Y0078413D01*
X0123706Y0078382D01*
X0123657Y0078348D01*
X0123610Y0078310D01*
X0123566Y0078270D01*
X0123524Y0078227D01*
X0123486Y0078182D01*
X0123450Y0078134D01*
X0123417Y0078084D01*
X0123388Y0078032D01*
X0123362Y0077978D01*
X0123339Y0077922D01*
X0123321Y0077865D01*
X0123305Y0077808D01*
X0123294Y0077749D01*
X0123286Y0077690D01*
X0123282Y0077630D01*
X0123282Y0077570D01*
X0123286Y0077510D01*
X0123294Y0077451D01*
X0123305Y0077392D01*
X0123321Y0077335D01*
X0123339Y0077278D01*
X0123362Y0077222D01*
X0123388Y0077168D01*
X0123417Y0077116D01*
X0123450Y0077066D01*
X0123486Y0077018D01*
X0123524Y0076973D01*
X0123566Y0076930D01*
X0123610Y0076890D01*
X0123657Y0076852D01*
X0123706Y0076818D01*
X0123757Y0076787D01*
X0123810Y0076759D01*
X0123865Y0076735D01*
X0123921Y0076715D01*
X0123978Y0076698D01*
X0124037Y0076684D01*
X0124096Y0076675D01*
X0124155Y0076669D01*
X0124215Y0076667D01*
X0124215Y0076666D02*
X0125148Y0076666D01*
X0124448Y0076667D02*
X0124381Y0076665D01*
X0124315Y0076659D01*
X0124249Y0076650D01*
X0124184Y0076637D01*
X0124119Y0076620D01*
X0124056Y0076599D01*
X0123994Y0076575D01*
X0123933Y0076547D01*
X0123874Y0076516D01*
X0123817Y0076482D01*
X0123762Y0076444D01*
X0123709Y0076403D01*
X0123659Y0076360D01*
X0123611Y0076313D01*
X0123566Y0076264D01*
X0123524Y0076213D01*
X0123485Y0076159D01*
X0123449Y0076103D01*
X0123416Y0076045D01*
X0123386Y0075985D01*
X0123361Y0075923D01*
X0123338Y0075861D01*
X0123319Y0075797D01*
X0123304Y0075732D01*
X0123293Y0075666D01*
X0123285Y0075600D01*
X0123281Y0075533D01*
X0123281Y0075467D01*
X0123285Y0075400D01*
X0123293Y0075334D01*
X0123304Y0075268D01*
X0123319Y0075203D01*
X0123338Y0075139D01*
X0123361Y0075077D01*
X0123386Y0075015D01*
X0123416Y0074955D01*
X0123449Y0074897D01*
X0123485Y0074841D01*
X0123524Y0074787D01*
X0123566Y0074736D01*
X0123611Y0074687D01*
X0123659Y0074640D01*
X0123709Y0074597D01*
X0123762Y0074556D01*
X0123817Y0074518D01*
X0123874Y0074484D01*
X0123933Y0074453D01*
X0123994Y0074425D01*
X0124056Y0074401D01*
X0124119Y0074380D01*
X0124184Y0074363D01*
X0124249Y0074350D01*
X0124315Y0074341D01*
X0124381Y0074335D01*
X0124448Y0074333D01*
X0125615Y0074333D01*
X0127998Y0074333D02*
X0127998Y0078533D01*
X0129398Y0076200D01*
X0130798Y0078533D01*
X0130798Y0074333D01*
X0133332Y0075500D02*
X0133332Y0077366D01*
X0133331Y0077366D02*
X0133333Y0077434D01*
X0133339Y0077501D01*
X0133349Y0077569D01*
X0133362Y0077635D01*
X0133380Y0077701D01*
X0133401Y0077765D01*
X0133426Y0077828D01*
X0133455Y0077890D01*
X0133487Y0077950D01*
X0133523Y0078007D01*
X0133562Y0078063D01*
X0133604Y0078116D01*
X0133649Y0078167D01*
X0133697Y0078215D01*
X0133748Y0078260D01*
X0133801Y0078302D01*
X0133857Y0078341D01*
X0133915Y0078377D01*
X0133974Y0078409D01*
X0134036Y0078438D01*
X0134099Y0078463D01*
X0134163Y0078484D01*
X0134229Y0078502D01*
X0134295Y0078515D01*
X0134363Y0078525D01*
X0134430Y0078531D01*
X0134498Y0078533D01*
X0135665Y0078533D01*
X0135665Y0074333D01*
X0134498Y0074333D01*
X0134433Y0074335D01*
X0134367Y0074340D01*
X0134303Y0074349D01*
X0134238Y0074362D01*
X0134175Y0074379D01*
X0134113Y0074398D01*
X0134051Y0074422D01*
X0133992Y0074449D01*
X0133934Y0074479D01*
X0133877Y0074512D01*
X0133823Y0074548D01*
X0133770Y0074588D01*
X0133720Y0074630D01*
X0133673Y0074675D01*
X0133628Y0074722D01*
X0133586Y0074772D01*
X0133546Y0074825D01*
X0133510Y0074879D01*
X0133477Y0074935D01*
X0133447Y0074994D01*
X0133420Y0075053D01*
X0133396Y0075115D01*
X0133377Y0075177D01*
X0133360Y0075240D01*
X0133347Y0075305D01*
X0133338Y0075369D01*
X0133333Y0075435D01*
X0133331Y0075500D01*
X0140698Y0076083D02*
X0141982Y0076783D01*
X0141515Y0078533D02*
X0141435Y0078531D01*
X0141354Y0078526D01*
X0141274Y0078516D01*
X0141195Y0078504D01*
X0141116Y0078487D01*
X0141038Y0078467D01*
X0140962Y0078443D01*
X0140886Y0078416D01*
X0140812Y0078385D01*
X0140739Y0078351D01*
X0140667Y0078314D01*
X0140598Y0078273D01*
X0140530Y0078230D01*
X0140465Y0078183D01*
X0141981Y0076783D02*
X0142030Y0076814D01*
X0142077Y0076848D01*
X0142122Y0076885D01*
X0142165Y0076924D01*
X0142205Y0076966D01*
X0142242Y0077010D01*
X0142277Y0077056D01*
X0142308Y0077105D01*
X0142337Y0077155D01*
X0142363Y0077207D01*
X0142385Y0077260D01*
X0142404Y0077315D01*
X0142420Y0077371D01*
X0142432Y0077427D01*
X0142441Y0077484D01*
X0142446Y0077542D01*
X0142448Y0077600D01*
X0142446Y0077659D01*
X0142441Y0077717D01*
X0142431Y0077775D01*
X0142419Y0077832D01*
X0142402Y0077888D01*
X0142382Y0077943D01*
X0142359Y0077997D01*
X0142333Y0078049D01*
X0142303Y0078100D01*
X0142270Y0078148D01*
X0142234Y0078195D01*
X0142195Y0078239D01*
X0142154Y0078280D01*
X0142110Y0078319D01*
X0142063Y0078355D01*
X0142015Y0078388D01*
X0141964Y0078418D01*
X0141912Y0078444D01*
X0141858Y0078467D01*
X0141803Y0078487D01*
X0141747Y0078504D01*
X0141690Y0078516D01*
X0141632Y0078526D01*
X0141574Y0078531D01*
X0141515Y0078533D01*
X0142565Y0074916D02*
X0142503Y0074856D01*
X0142438Y0074799D01*
X0142371Y0074745D01*
X0142301Y0074693D01*
X0142230Y0074645D01*
X0142156Y0074600D01*
X0142080Y0074558D01*
X0142003Y0074520D01*
X0141923Y0074485D01*
X0141843Y0074453D01*
X0141761Y0074425D01*
X0141678Y0074401D01*
X0141594Y0074380D01*
X0141509Y0074363D01*
X0141424Y0074350D01*
X0141338Y0074341D01*
X0141251Y0074335D01*
X0141165Y0074333D01*
X0141106Y0074335D01*
X0141048Y0074340D01*
X0140990Y0074350D01*
X0140933Y0074362D01*
X0140877Y0074379D01*
X0140822Y0074399D01*
X0140768Y0074422D01*
X0140716Y0074448D01*
X0140665Y0074478D01*
X0140617Y0074511D01*
X0140570Y0074547D01*
X0140526Y0074586D01*
X0140485Y0074627D01*
X0140446Y0074671D01*
X0140410Y0074718D01*
X0140377Y0074766D01*
X0140347Y0074817D01*
X0140321Y0074869D01*
X0140298Y0074923D01*
X0140278Y0074978D01*
X0140261Y0075034D01*
X0140249Y0075091D01*
X0140239Y0075149D01*
X0140234Y0075207D01*
X0140232Y0075266D01*
X0140234Y0075324D01*
X0140239Y0075382D01*
X0140248Y0075439D01*
X0140260Y0075495D01*
X0140276Y0075551D01*
X0140295Y0075606D01*
X0140317Y0075659D01*
X0140343Y0075711D01*
X0140372Y0075761D01*
X0140403Y0075810D01*
X0140438Y0075856D01*
X0140475Y0075900D01*
X0140515Y0075942D01*
X0140558Y0075981D01*
X0140603Y0076018D01*
X0140650Y0076052D01*
X0140699Y0076083D01*
X0144538Y0074333D02*
X0145471Y0076200D01*
X0145705Y0076200D02*
X0146871Y0076200D01*
X0145705Y0076199D02*
X0145638Y0076201D01*
X0145572Y0076207D01*
X0145506Y0076216D01*
X0145441Y0076229D01*
X0145376Y0076246D01*
X0145313Y0076267D01*
X0145251Y0076291D01*
X0145190Y0076319D01*
X0145131Y0076350D01*
X0145074Y0076384D01*
X0145019Y0076422D01*
X0144966Y0076463D01*
X0144916Y0076506D01*
X0144868Y0076553D01*
X0144823Y0076602D01*
X0144781Y0076653D01*
X0144742Y0076707D01*
X0144706Y0076763D01*
X0144673Y0076821D01*
X0144643Y0076881D01*
X0144618Y0076943D01*
X0144595Y0077005D01*
X0144576Y0077069D01*
X0144561Y0077134D01*
X0144550Y0077200D01*
X0144542Y0077266D01*
X0144538Y0077333D01*
X0144538Y0077399D01*
X0144542Y0077466D01*
X0144550Y0077532D01*
X0144561Y0077598D01*
X0144576Y0077663D01*
X0144595Y0077727D01*
X0144618Y0077789D01*
X0144643Y0077851D01*
X0144673Y0077911D01*
X0144706Y0077969D01*
X0144742Y0078025D01*
X0144781Y0078079D01*
X0144823Y0078130D01*
X0144868Y0078179D01*
X0144916Y0078226D01*
X0144966Y0078269D01*
X0145019Y0078310D01*
X0145074Y0078348D01*
X0145131Y0078382D01*
X0145190Y0078413D01*
X0145251Y0078441D01*
X0145313Y0078465D01*
X0145376Y0078486D01*
X0145441Y0078503D01*
X0145506Y0078516D01*
X0145572Y0078525D01*
X0145638Y0078531D01*
X0145705Y0078533D01*
X0146871Y0078533D01*
X0146871Y0074333D01*
X0149382Y0074333D02*
X0149382Y0078533D01*
X0149382Y0076666D02*
X0151715Y0076666D01*
X0151715Y0078533D02*
X0151715Y0074333D01*
X0129361Y0090519D02*
X0129263Y0090515D01*
X0129164Y0090509D01*
X0129067Y0090498D01*
X0128969Y0090484D01*
X0128872Y0090466D01*
X0128776Y0090445D01*
X0128681Y0090420D01*
X0128587Y0090391D01*
X0128493Y0090359D01*
X0128402Y0090324D01*
X0128311Y0090285D01*
X0129361Y0090519D02*
X0129409Y0090518D01*
X0129457Y0090513D01*
X0129504Y0090504D01*
X0129550Y0090491D01*
X0129596Y0090475D01*
X0129639Y0090456D01*
X0129681Y0090433D01*
X0129722Y0090406D01*
X0129759Y0090377D01*
X0129795Y0090345D01*
X0129828Y0090310D01*
X0129858Y0090272D01*
X0129884Y0090232D01*
X0129908Y0090191D01*
X0129928Y0090147D01*
X0129945Y0090102D01*
X0129958Y0090056D01*
X0129967Y0090009D01*
X0129973Y0089961D01*
X0129975Y0089913D01*
X0129973Y0089866D01*
X0129967Y0089818D01*
X0129958Y0089771D01*
X0129945Y0089725D01*
X0129928Y0089680D01*
X0129908Y0089636D01*
X0129884Y0089595D01*
X0129857Y0089555D01*
X0129827Y0089518D01*
X0129794Y0089483D01*
X0129759Y0089450D01*
X0129721Y0089421D01*
X0129681Y0089395D01*
X0129638Y0089372D01*
X0129595Y0089352D01*
X0128428Y0088886D01*
X0128385Y0088866D01*
X0128342Y0088843D01*
X0128302Y0088817D01*
X0128264Y0088788D01*
X0128229Y0088755D01*
X0128196Y0088720D01*
X0128166Y0088683D01*
X0128139Y0088643D01*
X0128115Y0088602D01*
X0128095Y0088558D01*
X0128078Y0088513D01*
X0128065Y0088467D01*
X0128056Y0088420D01*
X0128050Y0088372D01*
X0128048Y0088325D01*
X0128050Y0088277D01*
X0128056Y0088229D01*
X0128065Y0088182D01*
X0128078Y0088136D01*
X0128095Y0088091D01*
X0128115Y0088047D01*
X0128139Y0088006D01*
X0128165Y0087966D01*
X0128195Y0087928D01*
X0128228Y0087893D01*
X0128264Y0087861D01*
X0128301Y0087832D01*
X0128342Y0087805D01*
X0128384Y0087782D01*
X0128427Y0087763D01*
X0128473Y0087747D01*
X0128519Y0087734D01*
X0128566Y0087725D01*
X0128614Y0087720D01*
X0128662Y0087719D01*
X0126045Y0088652D02*
X0126045Y0089586D01*
X0126044Y0089586D02*
X0126042Y0089646D01*
X0126036Y0089705D01*
X0126027Y0089764D01*
X0126013Y0089823D01*
X0125996Y0089880D01*
X0125976Y0089936D01*
X0125952Y0089991D01*
X0125924Y0090044D01*
X0125893Y0090095D01*
X0125859Y0090144D01*
X0125821Y0090191D01*
X0125781Y0090235D01*
X0125738Y0090277D01*
X0125693Y0090315D01*
X0125645Y0090351D01*
X0125595Y0090384D01*
X0125543Y0090413D01*
X0125489Y0090439D01*
X0125433Y0090462D01*
X0125376Y0090480D01*
X0125319Y0090496D01*
X0125260Y0090507D01*
X0125201Y0090515D01*
X0125141Y0090519D01*
X0125081Y0090519D01*
X0125021Y0090515D01*
X0124962Y0090507D01*
X0124903Y0090496D01*
X0124846Y0090480D01*
X0124789Y0090462D01*
X0124733Y0090439D01*
X0124679Y0090413D01*
X0124627Y0090384D01*
X0124577Y0090351D01*
X0124529Y0090315D01*
X0124484Y0090277D01*
X0124441Y0090235D01*
X0124401Y0090191D01*
X0124363Y0090144D01*
X0124329Y0090095D01*
X0124298Y0090044D01*
X0124270Y0089991D01*
X0124246Y0089936D01*
X0124226Y0089880D01*
X0124209Y0089823D01*
X0124195Y0089764D01*
X0124186Y0089705D01*
X0124180Y0089646D01*
X0124178Y0089586D01*
X0124178Y0088652D01*
X0124180Y0088592D01*
X0124186Y0088533D01*
X0124195Y0088474D01*
X0124209Y0088415D01*
X0124226Y0088358D01*
X0124246Y0088302D01*
X0124270Y0088247D01*
X0124298Y0088194D01*
X0124329Y0088143D01*
X0124363Y0088094D01*
X0124401Y0088047D01*
X0124441Y0088003D01*
X0124484Y0087961D01*
X0124529Y0087923D01*
X0124577Y0087887D01*
X0124627Y0087854D01*
X0124679Y0087825D01*
X0124733Y0087799D01*
X0124789Y0087776D01*
X0124846Y0087758D01*
X0124903Y0087742D01*
X0124962Y0087731D01*
X0125021Y0087723D01*
X0125081Y0087719D01*
X0125141Y0087719D01*
X0125201Y0087723D01*
X0125260Y0087731D01*
X0125319Y0087742D01*
X0125376Y0087758D01*
X0125433Y0087776D01*
X0125489Y0087799D01*
X0125543Y0087825D01*
X0125595Y0087854D01*
X0125645Y0087887D01*
X0125693Y0087923D01*
X0125738Y0087961D01*
X0125781Y0088003D01*
X0125821Y0088047D01*
X0125859Y0088094D01*
X0125893Y0088143D01*
X0125924Y0088194D01*
X0125952Y0088247D01*
X0125976Y0088302D01*
X0125996Y0088358D01*
X0126013Y0088415D01*
X0126027Y0088474D01*
X0126036Y0088533D01*
X0126042Y0088592D01*
X0126044Y0088652D01*
X0122137Y0088419D02*
X0122137Y0089819D01*
X0122135Y0089869D01*
X0122130Y0089919D01*
X0122121Y0089968D01*
X0122109Y0090016D01*
X0122093Y0090064D01*
X0122074Y0090110D01*
X0122051Y0090154D01*
X0122026Y0090197D01*
X0121997Y0090238D01*
X0121966Y0090277D01*
X0121932Y0090314D01*
X0121895Y0090348D01*
X0121856Y0090379D01*
X0121815Y0090408D01*
X0121772Y0090433D01*
X0121728Y0090456D01*
X0121682Y0090475D01*
X0121634Y0090491D01*
X0121586Y0090503D01*
X0121537Y0090512D01*
X0121487Y0090517D01*
X0121437Y0090519D01*
X0120504Y0090519D01*
X0122137Y0088419D02*
X0122135Y0088369D01*
X0122130Y0088319D01*
X0122121Y0088270D01*
X0122109Y0088222D01*
X0122093Y0088174D01*
X0122074Y0088128D01*
X0122051Y0088084D01*
X0122026Y0088041D01*
X0121997Y0088000D01*
X0121966Y0087961D01*
X0121932Y0087924D01*
X0121895Y0087890D01*
X0121856Y0087859D01*
X0121815Y0087830D01*
X0121772Y0087805D01*
X0121728Y0087782D01*
X0121682Y0087763D01*
X0121634Y0087747D01*
X0121586Y0087735D01*
X0121537Y0087726D01*
X0121487Y0087721D01*
X0121437Y0087719D01*
X0120504Y0087719D01*
X0118465Y0087719D02*
X0118465Y0091919D01*
X0116598Y0090519D02*
X0118465Y0089119D01*
X0117648Y0089702D02*
X0116598Y0087719D01*
X0114795Y0088419D02*
X0114795Y0089586D01*
X0114795Y0089119D02*
X0112928Y0089119D01*
X0112928Y0089586D01*
X0112930Y0089646D01*
X0112936Y0089705D01*
X0112945Y0089764D01*
X0112959Y0089823D01*
X0112976Y0089880D01*
X0112996Y0089936D01*
X0113020Y0089991D01*
X0113048Y0090044D01*
X0113079Y0090095D01*
X0113113Y0090144D01*
X0113151Y0090191D01*
X0113191Y0090235D01*
X0113234Y0090277D01*
X0113279Y0090315D01*
X0113327Y0090351D01*
X0113377Y0090384D01*
X0113429Y0090413D01*
X0113483Y0090439D01*
X0113539Y0090462D01*
X0113596Y0090480D01*
X0113653Y0090496D01*
X0113712Y0090507D01*
X0113771Y0090515D01*
X0113831Y0090519D01*
X0113891Y0090519D01*
X0113951Y0090515D01*
X0114010Y0090507D01*
X0114069Y0090496D01*
X0114126Y0090480D01*
X0114183Y0090462D01*
X0114239Y0090439D01*
X0114293Y0090413D01*
X0114345Y0090384D01*
X0114395Y0090351D01*
X0114443Y0090315D01*
X0114488Y0090277D01*
X0114531Y0090235D01*
X0114571Y0090191D01*
X0114609Y0090144D01*
X0114643Y0090095D01*
X0114674Y0090044D01*
X0114702Y0089991D01*
X0114726Y0089936D01*
X0114746Y0089880D01*
X0114763Y0089823D01*
X0114777Y0089764D01*
X0114786Y0089705D01*
X0114792Y0089646D01*
X0114794Y0089586D01*
X0114795Y0088419D02*
X0114793Y0088369D01*
X0114788Y0088319D01*
X0114779Y0088270D01*
X0114767Y0088222D01*
X0114751Y0088174D01*
X0114732Y0088128D01*
X0114709Y0088084D01*
X0114684Y0088041D01*
X0114655Y0088000D01*
X0114624Y0087961D01*
X0114590Y0087924D01*
X0114553Y0087890D01*
X0114514Y0087859D01*
X0114473Y0087830D01*
X0114430Y0087805D01*
X0114386Y0087782D01*
X0114340Y0087763D01*
X0114292Y0087747D01*
X0114244Y0087735D01*
X0114195Y0087726D01*
X0114145Y0087721D01*
X0114095Y0087719D01*
X0112928Y0087719D01*
X0110849Y0088419D02*
X0110849Y0091919D01*
X0111316Y0090519D02*
X0109916Y0090519D01*
X0110849Y0088419D02*
X0110847Y0088369D01*
X0110842Y0088319D01*
X0110833Y0088270D01*
X0110821Y0088222D01*
X0110805Y0088174D01*
X0110786Y0088128D01*
X0110763Y0088084D01*
X0110738Y0088041D01*
X0110709Y0088000D01*
X0110678Y0087961D01*
X0110644Y0087924D01*
X0110607Y0087890D01*
X0110568Y0087859D01*
X0110527Y0087830D01*
X0110484Y0087805D01*
X0110440Y0087782D01*
X0110394Y0087763D01*
X0110346Y0087747D01*
X0110298Y0087735D01*
X0110249Y0087726D01*
X0110199Y0087721D01*
X0110149Y0087719D01*
X0109916Y0087719D01*
X0123385Y0093231D02*
X0124318Y0093231D01*
X0124377Y0093233D01*
X0124435Y0093238D01*
X0124493Y0093248D01*
X0124550Y0093260D01*
X0124606Y0093277D01*
X0124661Y0093297D01*
X0124715Y0093320D01*
X0124767Y0093346D01*
X0124818Y0093376D01*
X0124866Y0093409D01*
X0124913Y0093445D01*
X0124957Y0093484D01*
X0124998Y0093525D01*
X0125037Y0093569D01*
X0125073Y0093616D01*
X0125106Y0093664D01*
X0125136Y0093715D01*
X0125162Y0093767D01*
X0125185Y0093821D01*
X0125205Y0093876D01*
X0125222Y0093932D01*
X0125234Y0093989D01*
X0125244Y0094047D01*
X0125249Y0094105D01*
X0125251Y0094164D01*
X0125251Y0096497D01*
X0125249Y0096558D01*
X0125243Y0096619D01*
X0125233Y0096679D01*
X0125219Y0096738D01*
X0125201Y0096797D01*
X0125180Y0096854D01*
X0125155Y0096910D01*
X0125126Y0096963D01*
X0125094Y0097015D01*
X0125058Y0097065D01*
X0125019Y0097112D01*
X0124978Y0097157D01*
X0124933Y0097198D01*
X0124886Y0097237D01*
X0124836Y0097273D01*
X0124785Y0097305D01*
X0124731Y0097334D01*
X0124675Y0097359D01*
X0124618Y0097380D01*
X0124559Y0097398D01*
X0124500Y0097412D01*
X0124440Y0097422D01*
X0124379Y0097428D01*
X0124318Y0097430D01*
X0124318Y0097431D02*
X0123385Y0097431D01*
X0127548Y0096264D02*
X0127548Y0094397D01*
X0127550Y0094332D01*
X0127555Y0094266D01*
X0127564Y0094202D01*
X0127577Y0094137D01*
X0127594Y0094074D01*
X0127613Y0094012D01*
X0127637Y0093950D01*
X0127664Y0093891D01*
X0127694Y0093832D01*
X0127727Y0093776D01*
X0127763Y0093722D01*
X0127803Y0093669D01*
X0127845Y0093619D01*
X0127890Y0093572D01*
X0127937Y0093527D01*
X0127987Y0093485D01*
X0128040Y0093445D01*
X0128094Y0093409D01*
X0128151Y0093376D01*
X0128209Y0093346D01*
X0128268Y0093319D01*
X0128330Y0093295D01*
X0128392Y0093276D01*
X0128455Y0093259D01*
X0128520Y0093246D01*
X0128584Y0093237D01*
X0128650Y0093232D01*
X0128715Y0093230D01*
X0128715Y0093231D02*
X0129882Y0093231D01*
X0129882Y0097431D01*
X0128715Y0097431D01*
X0128647Y0097429D01*
X0128580Y0097423D01*
X0128512Y0097413D01*
X0128446Y0097400D01*
X0128380Y0097382D01*
X0128316Y0097361D01*
X0128253Y0097336D01*
X0128191Y0097307D01*
X0128132Y0097275D01*
X0128074Y0097239D01*
X0128018Y0097200D01*
X0127965Y0097158D01*
X0127914Y0097113D01*
X0127866Y0097065D01*
X0127821Y0097014D01*
X0127779Y0096961D01*
X0127740Y0096905D01*
X0127704Y0096848D01*
X0127672Y0096788D01*
X0127643Y0096726D01*
X0127618Y0096663D01*
X0127597Y0096599D01*
X0127579Y0096533D01*
X0127566Y0096467D01*
X0127556Y0096399D01*
X0127550Y0096332D01*
X0127548Y0096264D01*
X0128661Y0087719D02*
X0128781Y0087723D01*
X0128899Y0087730D01*
X0129018Y0087741D01*
X0129136Y0087755D01*
X0129254Y0087773D01*
X0129371Y0087794D01*
X0129488Y0087819D01*
X0129604Y0087847D01*
X0129718Y0087879D01*
X0129832Y0087914D01*
X0129945Y0087953D01*
X0132982Y0093231D02*
X0132923Y0093233D01*
X0132865Y0093238D01*
X0132807Y0093248D01*
X0132750Y0093260D01*
X0132694Y0093277D01*
X0132639Y0093297D01*
X0132585Y0093320D01*
X0132533Y0093346D01*
X0132482Y0093376D01*
X0132434Y0093409D01*
X0132387Y0093445D01*
X0132343Y0093484D01*
X0132302Y0093525D01*
X0132263Y0093569D01*
X0132227Y0093616D01*
X0132194Y0093664D01*
X0132164Y0093715D01*
X0132138Y0093767D01*
X0132115Y0093821D01*
X0132095Y0093876D01*
X0132078Y0093932D01*
X0132066Y0093989D01*
X0132056Y0094047D01*
X0132051Y0094105D01*
X0132049Y0094164D01*
X0132515Y0094981D02*
X0133798Y0095681D01*
X0133332Y0097431D02*
X0133252Y0097429D01*
X0133171Y0097424D01*
X0133091Y0097414D01*
X0133012Y0097402D01*
X0132933Y0097385D01*
X0132855Y0097365D01*
X0132779Y0097341D01*
X0132703Y0097314D01*
X0132629Y0097283D01*
X0132556Y0097249D01*
X0132484Y0097212D01*
X0132415Y0097171D01*
X0132347Y0097128D01*
X0132282Y0097081D01*
X0133798Y0095680D02*
X0133847Y0095711D01*
X0133894Y0095745D01*
X0133939Y0095782D01*
X0133982Y0095821D01*
X0134022Y0095863D01*
X0134059Y0095907D01*
X0134094Y0095953D01*
X0134125Y0096002D01*
X0134154Y0096052D01*
X0134180Y0096104D01*
X0134202Y0096157D01*
X0134221Y0096212D01*
X0134237Y0096268D01*
X0134249Y0096324D01*
X0134258Y0096381D01*
X0134263Y0096439D01*
X0134265Y0096497D01*
X0134263Y0096556D01*
X0134258Y0096614D01*
X0134248Y0096672D01*
X0134236Y0096729D01*
X0134219Y0096785D01*
X0134199Y0096840D01*
X0134176Y0096894D01*
X0134150Y0096946D01*
X0134120Y0096997D01*
X0134087Y0097045D01*
X0134051Y0097092D01*
X0134012Y0097136D01*
X0133971Y0097177D01*
X0133927Y0097216D01*
X0133880Y0097252D01*
X0133832Y0097285D01*
X0133781Y0097315D01*
X0133729Y0097341D01*
X0133675Y0097364D01*
X0133620Y0097384D01*
X0133564Y0097401D01*
X0133507Y0097413D01*
X0133449Y0097423D01*
X0133391Y0097428D01*
X0133332Y0097430D01*
X0134382Y0093813D02*
X0134320Y0093753D01*
X0134255Y0093696D01*
X0134188Y0093642D01*
X0134118Y0093590D01*
X0134047Y0093542D01*
X0133973Y0093497D01*
X0133897Y0093455D01*
X0133820Y0093417D01*
X0133740Y0093382D01*
X0133660Y0093350D01*
X0133578Y0093322D01*
X0133495Y0093298D01*
X0133411Y0093277D01*
X0133326Y0093260D01*
X0133241Y0093247D01*
X0133155Y0093238D01*
X0133068Y0093232D01*
X0132982Y0093230D01*
X0132048Y0094164D02*
X0132050Y0094222D01*
X0132055Y0094280D01*
X0132064Y0094337D01*
X0132076Y0094393D01*
X0132092Y0094449D01*
X0132111Y0094504D01*
X0132133Y0094557D01*
X0132159Y0094609D01*
X0132188Y0094659D01*
X0132219Y0094708D01*
X0132254Y0094754D01*
X0132291Y0094798D01*
X0132331Y0094840D01*
X0132374Y0094879D01*
X0132419Y0094916D01*
X0132466Y0094950D01*
X0132515Y0094981D01*
X0136332Y0095097D02*
X0136332Y0094164D01*
X0136334Y0094104D01*
X0136340Y0094045D01*
X0136349Y0093986D01*
X0136363Y0093927D01*
X0136380Y0093870D01*
X0136400Y0093814D01*
X0136424Y0093759D01*
X0136452Y0093706D01*
X0136483Y0093655D01*
X0136517Y0093606D01*
X0136555Y0093559D01*
X0136595Y0093515D01*
X0136638Y0093473D01*
X0136683Y0093435D01*
X0136731Y0093399D01*
X0136781Y0093366D01*
X0136833Y0093337D01*
X0136887Y0093311D01*
X0136943Y0093288D01*
X0137000Y0093270D01*
X0137057Y0093254D01*
X0137116Y0093243D01*
X0137175Y0093235D01*
X0137235Y0093231D01*
X0137295Y0093231D01*
X0137355Y0093235D01*
X0137414Y0093243D01*
X0137473Y0093254D01*
X0137530Y0093270D01*
X0137587Y0093288D01*
X0137643Y0093311D01*
X0137697Y0093337D01*
X0137749Y0093366D01*
X0137799Y0093399D01*
X0137847Y0093435D01*
X0137892Y0093473D01*
X0137935Y0093515D01*
X0137975Y0093559D01*
X0138013Y0093606D01*
X0138047Y0093655D01*
X0138078Y0093706D01*
X0138106Y0093759D01*
X0138130Y0093814D01*
X0138150Y0093870D01*
X0138167Y0093927D01*
X0138181Y0093986D01*
X0138190Y0094045D01*
X0138196Y0094104D01*
X0138198Y0094164D01*
X0138198Y0095097D01*
X0138196Y0095157D01*
X0138190Y0095216D01*
X0138181Y0095275D01*
X0138167Y0095334D01*
X0138150Y0095391D01*
X0138130Y0095447D01*
X0138106Y0095502D01*
X0138078Y0095555D01*
X0138047Y0095606D01*
X0138013Y0095655D01*
X0137975Y0095702D01*
X0137935Y0095746D01*
X0137892Y0095788D01*
X0137847Y0095826D01*
X0137799Y0095862D01*
X0137749Y0095895D01*
X0137697Y0095924D01*
X0137643Y0095950D01*
X0137587Y0095973D01*
X0137530Y0095991D01*
X0137473Y0096007D01*
X0137414Y0096018D01*
X0137355Y0096026D01*
X0137295Y0096030D01*
X0137235Y0096030D01*
X0137175Y0096026D01*
X0137116Y0096018D01*
X0137057Y0096007D01*
X0137000Y0095991D01*
X0136943Y0095973D01*
X0136887Y0095950D01*
X0136833Y0095924D01*
X0136781Y0095895D01*
X0136731Y0095862D01*
X0136683Y0095826D01*
X0136638Y0095788D01*
X0136595Y0095746D01*
X0136555Y0095702D01*
X0136517Y0095655D01*
X0136483Y0095606D01*
X0136452Y0095555D01*
X0136424Y0095502D01*
X0136400Y0095447D01*
X0136380Y0095391D01*
X0136363Y0095334D01*
X0136349Y0095275D01*
X0136340Y0095216D01*
X0136334Y0095157D01*
X0136332Y0095097D01*
X0139759Y0095564D02*
X0139759Y0096031D01*
X0141159Y0096031D01*
X0141159Y0093231D01*
X0143157Y0093231D02*
X0144090Y0093231D01*
X0144140Y0093233D01*
X0144190Y0093238D01*
X0144239Y0093247D01*
X0144287Y0093259D01*
X0144335Y0093275D01*
X0144381Y0093294D01*
X0144425Y0093317D01*
X0144468Y0093342D01*
X0144509Y0093371D01*
X0144548Y0093402D01*
X0144585Y0093436D01*
X0144619Y0093473D01*
X0144650Y0093512D01*
X0144679Y0093553D01*
X0144704Y0093596D01*
X0144727Y0093640D01*
X0144746Y0093686D01*
X0144762Y0093734D01*
X0144774Y0093782D01*
X0144783Y0093831D01*
X0144788Y0093881D01*
X0144790Y0093931D01*
X0144790Y0095331D01*
X0144788Y0095381D01*
X0144783Y0095431D01*
X0144774Y0095480D01*
X0144762Y0095528D01*
X0144746Y0095576D01*
X0144727Y0095622D01*
X0144704Y0095666D01*
X0144679Y0095709D01*
X0144650Y0095750D01*
X0144619Y0095789D01*
X0144585Y0095826D01*
X0144548Y0095860D01*
X0144509Y0095891D01*
X0144468Y0095920D01*
X0144425Y0095945D01*
X0144381Y0095968D01*
X0144335Y0095987D01*
X0144287Y0096003D01*
X0144239Y0096015D01*
X0144190Y0096024D01*
X0144140Y0096029D01*
X0144090Y0096031D01*
X0143157Y0096031D01*
X0146715Y0096031D02*
X0146715Y0093231D01*
X0148915Y0093231D02*
X0148915Y0095331D01*
X0148917Y0095381D01*
X0148922Y0095431D01*
X0148931Y0095480D01*
X0148943Y0095528D01*
X0148959Y0095576D01*
X0148978Y0095622D01*
X0149001Y0095666D01*
X0149026Y0095709D01*
X0149055Y0095750D01*
X0149086Y0095789D01*
X0149120Y0095826D01*
X0149157Y0095860D01*
X0149196Y0095891D01*
X0149237Y0095920D01*
X0149280Y0095945D01*
X0149324Y0095968D01*
X0149370Y0095987D01*
X0149418Y0096003D01*
X0149466Y0096015D01*
X0149515Y0096024D01*
X0149565Y0096029D01*
X0149615Y0096031D01*
X0151715Y0096031D01*
X0151715Y0093231D01*
X0150315Y0093231D02*
X0150315Y0096031D01*
X0146832Y0097197D02*
X0146598Y0097197D01*
X0146598Y0097431D01*
X0146832Y0097431D01*
X0146832Y0097197D01*
D17*
X0176950Y0086233D03*
X0179550Y0084533D03*
X0180350Y0086133D03*
X0183750Y0084633D03*
X0183950Y0084533D03*
X0183850Y0082033D03*
X0180850Y0081333D03*
X0184550Y0078733D03*
X0185050Y0075133D03*
X0190150Y0076233D03*
X0190150Y0072433D03*
X0190150Y0068233D03*
X0190150Y0068133D03*
X0187350Y0064933D03*
X0193550Y0063233D03*
X0193550Y0062433D03*
X0194750Y0063233D03*
X0180450Y0063233D03*
X0176250Y0061933D03*
X0174750Y0064433D03*
X0174650Y0064833D03*
X0235750Y0072333D03*
X0237250Y0073333D03*
X0241750Y0071433D03*
X0241750Y0071033D03*
X0241650Y0068233D03*
X0243950Y0063433D03*
X0245250Y0062933D03*
X0246550Y0063733D03*
X0246550Y0063833D03*
X0245750Y0064733D03*
X0248850Y0064733D03*
X0248850Y0064633D03*
X0248850Y0064833D03*
X0251650Y0068733D03*
X0251550Y0071033D03*
X0251650Y0071433D03*
X0256150Y0073233D03*
X0258950Y0078733D03*
X0257750Y0081533D03*
X0255350Y0083733D03*
X0253950Y0083233D03*
X0250250Y0084133D03*
X0249050Y0084033D03*
X0251350Y0078633D03*
X0242050Y0078633D03*
X0241750Y0077933D03*
X0242050Y0080333D03*
X0256150Y0061433D03*
D18*
X0256200Y0061533D03*
X0252800Y0070333D03*
X0252800Y0070433D03*
X0252800Y0070533D03*
X0252800Y0070633D03*
X0254200Y0072433D03*
X0256100Y0073433D03*
X0257900Y0074133D03*
X0250200Y0074233D03*
X0243200Y0074233D03*
X0240500Y0075933D03*
X0239600Y0075833D03*
X0235500Y0072433D03*
X0234600Y0070033D03*
X0237500Y0063333D03*
X0243800Y0064633D03*
X0245700Y0064933D03*
X0255900Y0083233D03*
X0195300Y0080133D03*
X0195300Y0076133D03*
X0189900Y0076733D03*
X0189900Y0073033D03*
X0186100Y0074133D03*
X0186000Y0074233D03*
X0185900Y0074333D03*
X0185800Y0074433D03*
X0185400Y0078033D03*
X0185300Y0078133D03*
X0184800Y0081433D03*
X0185100Y0083833D03*
X0184800Y0084033D03*
X0184400Y0087033D03*
X0184200Y0087133D03*
X0184000Y0087233D03*
X0179600Y0084333D03*
X0179600Y0083233D03*
X0180900Y0080733D03*
X0180900Y0080433D03*
X0180900Y0080333D03*
X0180900Y0080233D03*
X0176100Y0083333D03*
X0176100Y0084533D03*
X0176800Y0086333D03*
X0176800Y0086433D03*
X0176800Y0087533D03*
X0175900Y0091833D03*
X0189900Y0068833D03*
D19*
X0190300Y0067733D03*
X0189600Y0065633D03*
X0188600Y0064833D03*
X0187700Y0063333D03*
X0187600Y0062933D03*
X0187500Y0062433D03*
X0189400Y0063133D03*
X0190200Y0063233D03*
X0191100Y0063333D03*
X0191400Y0064833D03*
X0193400Y0065933D03*
X0193400Y0066033D03*
X0193400Y0066133D03*
X0193400Y0066233D03*
X0196200Y0065133D03*
X0197400Y0065333D03*
X0198500Y0064833D03*
X0197200Y0063333D03*
X0190300Y0072133D03*
X0190300Y0075933D03*
X0195700Y0075533D03*
X0195700Y0079633D03*
X0184600Y0075633D03*
X0184500Y0075733D03*
X0184400Y0075833D03*
X0183900Y0079233D03*
X0183800Y0079333D03*
X0183400Y0082333D03*
X0180900Y0081633D03*
X0180900Y0081533D03*
X0182900Y0085133D03*
X0183100Y0085033D03*
X0179200Y0090433D03*
X0176100Y0083033D03*
X0174700Y0065833D03*
X0175800Y0064833D03*
X0176300Y0063333D03*
X0175100Y0062633D03*
X0177400Y0062333D03*
X0179300Y0063333D03*
X0178400Y0064833D03*
X0181500Y0065733D03*
X0182800Y0063333D03*
X0184000Y0063333D03*
X0173500Y0064833D03*
X0234400Y0067133D03*
X0236000Y0065333D03*
X0235700Y0064633D03*
X0235800Y0064533D03*
X0235900Y0064433D03*
X0236000Y0064333D03*
X0236100Y0064233D03*
X0236200Y0064133D03*
X0236300Y0064033D03*
X0236800Y0063633D03*
X0236900Y0063533D03*
X0237400Y0064433D03*
X0239500Y0063233D03*
X0240300Y0062433D03*
X0240300Y0062333D03*
X0239900Y0061933D03*
X0243000Y0062633D03*
X0243000Y0062733D03*
X0242700Y0065033D03*
X0242700Y0065133D03*
X0242700Y0065233D03*
X0242700Y0065333D03*
X0241500Y0065333D03*
X0241500Y0065233D03*
X0241500Y0065133D03*
X0241500Y0065033D03*
X0241500Y0065433D03*
X0241500Y0065533D03*
X0241500Y0065633D03*
X0241500Y0065733D03*
X0241500Y0065833D03*
X0241500Y0065933D03*
X0241500Y0066033D03*
X0241500Y0066133D03*
X0241500Y0066233D03*
X0241500Y0066333D03*
X0241500Y0066433D03*
X0241500Y0066533D03*
X0241500Y0066633D03*
X0241500Y0066733D03*
X0241500Y0066833D03*
X0241500Y0066933D03*
X0241500Y0067033D03*
X0241500Y0067133D03*
X0241500Y0067233D03*
X0241500Y0067333D03*
X0241500Y0067433D03*
X0241500Y0067533D03*
X0241500Y0067633D03*
X0241500Y0067733D03*
X0241500Y0067833D03*
X0241500Y0067933D03*
X0235800Y0071533D03*
X0234600Y0071433D03*
X0234500Y0071133D03*
X0234400Y0070833D03*
X0234300Y0070433D03*
X0234500Y0070333D03*
X0234600Y0070233D03*
X0235500Y0072933D03*
X0235400Y0073033D03*
X0235600Y0073233D03*
X0235600Y0073333D03*
X0235700Y0073433D03*
X0236000Y0073633D03*
X0236000Y0073733D03*
X0236100Y0073833D03*
X0236300Y0074033D03*
X0236400Y0074133D03*
X0236500Y0074233D03*
X0236700Y0074433D03*
X0237000Y0074733D03*
X0237500Y0074933D03*
X0237500Y0074333D03*
X0237200Y0073433D03*
X0241600Y0074033D03*
X0241600Y0074133D03*
X0241600Y0074233D03*
X0241600Y0074333D03*
X0241600Y0074433D03*
X0241600Y0074533D03*
X0241600Y0074633D03*
X0241600Y0074733D03*
X0241600Y0074833D03*
X0241600Y0074933D03*
X0241600Y0075033D03*
X0241600Y0075133D03*
X0241600Y0075233D03*
X0241600Y0075333D03*
X0241600Y0075433D03*
X0241600Y0075533D03*
X0241600Y0075633D03*
X0241600Y0075733D03*
X0241600Y0075833D03*
X0241600Y0075933D03*
X0241600Y0076033D03*
X0241600Y0076133D03*
X0241600Y0076233D03*
X0241600Y0076333D03*
X0241600Y0076433D03*
X0241600Y0076533D03*
X0241600Y0076633D03*
X0241600Y0076733D03*
X0241600Y0076833D03*
X0241600Y0076933D03*
X0241600Y0077033D03*
X0241600Y0077133D03*
X0241600Y0077233D03*
X0241600Y0077333D03*
X0241600Y0077433D03*
X0241600Y0077533D03*
X0241600Y0077633D03*
X0241100Y0078733D03*
X0241900Y0078833D03*
X0241900Y0078933D03*
X0241900Y0079033D03*
X0241900Y0079133D03*
X0241900Y0079233D03*
X0241900Y0079333D03*
X0241900Y0079433D03*
X0241900Y0079533D03*
X0241900Y0079633D03*
X0241900Y0079733D03*
X0241900Y0079833D03*
X0241900Y0079933D03*
X0241900Y0080033D03*
X0241100Y0080933D03*
X0241100Y0081033D03*
X0241100Y0081133D03*
X0240900Y0076233D03*
X0241600Y0072233D03*
X0241600Y0072133D03*
X0241600Y0072033D03*
X0241600Y0071933D03*
X0241600Y0071833D03*
X0241600Y0071733D03*
X0241600Y0071633D03*
X0251700Y0070733D03*
X0251700Y0070633D03*
X0251700Y0070533D03*
X0251700Y0070433D03*
X0251700Y0070333D03*
X0251700Y0070233D03*
X0251700Y0070133D03*
X0251700Y0070033D03*
X0251700Y0069933D03*
X0251700Y0069833D03*
X0251700Y0069733D03*
X0251700Y0069633D03*
X0251700Y0069533D03*
X0251700Y0069433D03*
X0251700Y0069333D03*
X0251700Y0069233D03*
X0251700Y0069133D03*
X0251700Y0069033D03*
X0251700Y0068933D03*
X0251800Y0068133D03*
X0251800Y0068033D03*
X0251800Y0067933D03*
X0251800Y0067233D03*
X0251800Y0067133D03*
X0251800Y0067033D03*
X0251800Y0066333D03*
X0251800Y0066233D03*
X0251800Y0066133D03*
X0253800Y0064033D03*
X0253800Y0063933D03*
X0253800Y0063833D03*
X0253800Y0063733D03*
X0253800Y0063633D03*
X0253800Y0063533D03*
X0253800Y0063433D03*
X0253800Y0063333D03*
X0253800Y0063233D03*
X0253800Y0063133D03*
X0253800Y0063033D03*
X0253800Y0062933D03*
X0253800Y0062833D03*
X0253800Y0062733D03*
X0253800Y0062633D03*
X0253800Y0062533D03*
X0253800Y0062433D03*
X0253800Y0062333D03*
X0253800Y0062233D03*
X0253800Y0062133D03*
X0253800Y0062033D03*
X0253800Y0061933D03*
X0253800Y0061833D03*
X0253800Y0061733D03*
X0253800Y0061633D03*
X0253800Y0061533D03*
X0255300Y0062333D03*
X0255300Y0063333D03*
X0253900Y0070533D03*
X0253400Y0071133D03*
X0253400Y0071233D03*
X0251800Y0071733D03*
X0251800Y0071833D03*
X0251800Y0071933D03*
X0251800Y0072033D03*
X0251800Y0072133D03*
X0251800Y0074033D03*
X0251800Y0074133D03*
X0251800Y0074233D03*
X0251800Y0074333D03*
X0251800Y0074433D03*
X0251800Y0074533D03*
X0251800Y0074633D03*
X0251800Y0074733D03*
X0251800Y0074833D03*
X0251800Y0074933D03*
X0251800Y0075033D03*
X0251800Y0075133D03*
X0251800Y0075233D03*
X0251800Y0075333D03*
X0251800Y0075433D03*
X0251800Y0075533D03*
X0251800Y0075633D03*
X0251800Y0075733D03*
X0251800Y0075833D03*
X0251800Y0075933D03*
X0251800Y0076033D03*
X0251800Y0076133D03*
X0251800Y0076233D03*
X0251800Y0076333D03*
X0251800Y0076433D03*
X0251800Y0076533D03*
X0251800Y0076633D03*
X0251800Y0076733D03*
X0251800Y0076833D03*
X0251800Y0076933D03*
X0251800Y0077033D03*
X0251800Y0077133D03*
X0251800Y0077233D03*
X0251800Y0077333D03*
X0251800Y0077433D03*
X0251800Y0077533D03*
X0251500Y0079033D03*
X0251500Y0079133D03*
X0251500Y0079233D03*
X0251500Y0079333D03*
X0251500Y0079433D03*
X0251500Y0079533D03*
X0251500Y0079633D03*
X0251500Y0079733D03*
X0251500Y0079833D03*
X0251500Y0079933D03*
X0252300Y0081033D03*
X0253000Y0084133D03*
X0255500Y0083633D03*
X0256000Y0083433D03*
X0256400Y0083133D03*
X0256800Y0082733D03*
X0256900Y0082633D03*
X0257000Y0082533D03*
X0257300Y0082233D03*
X0257600Y0082033D03*
X0258200Y0081133D03*
X0257300Y0080333D03*
X0258700Y0080033D03*
X0258800Y0079833D03*
X0259000Y0079433D03*
X0259100Y0076633D03*
X0258800Y0076233D03*
X0259000Y0076133D03*
X0257700Y0073833D03*
X0257800Y0073733D03*
X0257800Y0073633D03*
X0257900Y0073433D03*
X0257800Y0073333D03*
X0257600Y0073133D03*
X0256800Y0072233D03*
X0255800Y0072233D03*
X0255900Y0071633D03*
X0250300Y0083933D03*
X0247900Y0083433D03*
X0247900Y0082833D03*
X0247100Y0082933D03*
X0247000Y0082833D03*
X0246900Y0082733D03*
D20*
X0247850Y0082933D03*
X0249450Y0083133D03*
X0249850Y0084433D03*
X0253050Y0084233D03*
X0255450Y0082933D03*
X0255550Y0083033D03*
X0256450Y0083033D03*
X0256550Y0082933D03*
X0256650Y0082833D03*
X0257150Y0082433D03*
X0257250Y0082333D03*
X0257450Y0082133D03*
X0257650Y0081933D03*
X0257450Y0081233D03*
X0258750Y0076333D03*
X0257450Y0075033D03*
X0257750Y0073233D03*
X0257550Y0073033D03*
X0257450Y0072933D03*
X0257350Y0072833D03*
X0257250Y0072733D03*
X0257150Y0072633D03*
X0257050Y0072533D03*
X0256950Y0072433D03*
X0256850Y0072333D03*
X0256650Y0072133D03*
X0255950Y0072133D03*
X0256150Y0073133D03*
X0253450Y0071033D03*
X0251750Y0071633D03*
X0251750Y0072233D03*
X0251650Y0070833D03*
X0251650Y0068833D03*
X0251750Y0068233D03*
X0251750Y0067333D03*
X0251750Y0066433D03*
X0251550Y0063633D03*
X0251550Y0063533D03*
X0251550Y0063433D03*
X0251550Y0063333D03*
X0251550Y0063233D03*
X0251550Y0063133D03*
X0251550Y0063033D03*
X0251550Y0062933D03*
X0251550Y0062833D03*
X0251550Y0062733D03*
X0251550Y0062633D03*
X0251550Y0062533D03*
X0251550Y0062433D03*
X0251550Y0062333D03*
X0251550Y0062233D03*
X0251550Y0062133D03*
X0251550Y0062033D03*
X0251550Y0061933D03*
X0251550Y0061833D03*
X0251550Y0061733D03*
X0251550Y0061633D03*
X0251550Y0061533D03*
X0255350Y0062133D03*
X0255350Y0062233D03*
X0255450Y0062033D03*
X0256850Y0061933D03*
X0256950Y0062133D03*
X0257050Y0062233D03*
X0257050Y0062333D03*
X0257050Y0062433D03*
X0257050Y0062533D03*
X0257050Y0062633D03*
X0257050Y0062733D03*
X0257050Y0062833D03*
X0257050Y0062933D03*
X0257050Y0063033D03*
X0257050Y0063133D03*
X0257050Y0063233D03*
X0257050Y0063333D03*
X0256950Y0063433D03*
X0255350Y0063433D03*
X0247450Y0064733D03*
X0247450Y0064833D03*
X0247450Y0064933D03*
X0247450Y0065033D03*
X0247450Y0065133D03*
X0247450Y0065233D03*
X0247450Y0065333D03*
X0246650Y0064033D03*
X0246250Y0063633D03*
X0245550Y0063633D03*
X0245350Y0063033D03*
X0243050Y0062533D03*
X0242650Y0064833D03*
X0242650Y0064933D03*
X0241550Y0064933D03*
X0241550Y0068033D03*
X0241650Y0068933D03*
X0241650Y0069033D03*
X0241650Y0069133D03*
X0241650Y0069233D03*
X0241650Y0069333D03*
X0241650Y0069433D03*
X0241650Y0069533D03*
X0241650Y0069633D03*
X0241650Y0069733D03*
X0241650Y0069833D03*
X0241650Y0069933D03*
X0241650Y0070033D03*
X0241650Y0070133D03*
X0241650Y0070233D03*
X0241650Y0070333D03*
X0241650Y0070433D03*
X0241650Y0070533D03*
X0241650Y0070633D03*
X0241650Y0070733D03*
X0241650Y0070833D03*
X0241650Y0071533D03*
X0241650Y0072333D03*
X0241650Y0073833D03*
X0241650Y0073933D03*
X0240850Y0074233D03*
X0239950Y0075433D03*
X0239950Y0075533D03*
X0239050Y0074633D03*
X0237450Y0074433D03*
X0236650Y0074333D03*
X0236250Y0073933D03*
X0235850Y0073533D03*
X0235450Y0073133D03*
X0241650Y0077733D03*
X0241950Y0080133D03*
X0251450Y0080133D03*
X0251450Y0080033D03*
X0251450Y0078933D03*
X0251450Y0078833D03*
X0251750Y0077733D03*
X0251750Y0077633D03*
X0252250Y0080933D03*
X0252250Y0081133D03*
X0251750Y0073933D03*
X0237850Y0063533D03*
X0236950Y0063433D03*
X0236650Y0063733D03*
X0236550Y0063833D03*
X0236450Y0063933D03*
X0234450Y0067233D03*
X0234350Y0067833D03*
X0197350Y0065233D03*
X0192450Y0062433D03*
X0191150Y0062833D03*
X0190250Y0063333D03*
X0190450Y0065733D03*
X0190450Y0065833D03*
X0190250Y0067833D03*
X0190250Y0067933D03*
X0183850Y0065833D03*
X0183850Y0065733D03*
X0179650Y0066233D03*
X0179650Y0064833D03*
X0179250Y0062433D03*
X0176350Y0062433D03*
X0176250Y0062733D03*
X0175850Y0065733D03*
X0190250Y0072233D03*
X0190250Y0076033D03*
X0195650Y0075633D03*
X0184150Y0079033D03*
X0184050Y0079133D03*
X0181250Y0080133D03*
X0180450Y0080133D03*
X0179750Y0082933D03*
X0179450Y0084633D03*
X0180350Y0085933D03*
X0182750Y0087833D03*
X0182950Y0087733D03*
X0183250Y0084933D03*
X0183450Y0084833D03*
X0183550Y0082233D03*
X0176950Y0087733D03*
D21*
X0176800Y0087433D03*
X0176900Y0086733D03*
X0176100Y0084433D03*
X0176100Y0084333D03*
X0176100Y0083433D03*
X0179500Y0083333D03*
X0180900Y0080833D03*
X0185100Y0081233D03*
X0185300Y0083733D03*
X0180500Y0086733D03*
X0175900Y0091333D03*
X0175900Y0091433D03*
X0185700Y0077833D03*
X0185800Y0077733D03*
X0186200Y0074033D03*
X0186300Y0073933D03*
X0189800Y0073233D03*
X0189800Y0076833D03*
X0189800Y0076933D03*
X0195200Y0080233D03*
X0189800Y0069133D03*
X0243900Y0064733D03*
X0256200Y0061633D03*
X0258600Y0078833D03*
D22*
X0253600Y0084333D03*
X0246700Y0082233D03*
X0246700Y0082133D03*
X0246700Y0082033D03*
X0246700Y0081933D03*
X0246700Y0081833D03*
X0246200Y0082633D03*
X0244000Y0064833D03*
X0242100Y0064733D03*
X0242100Y0064633D03*
X0242100Y0064533D03*
X0242100Y0064433D03*
X0239700Y0062233D03*
X0256200Y0061733D03*
X0195100Y0076433D03*
X0189700Y0077133D03*
X0186300Y0077333D03*
X0186000Y0077533D03*
X0185900Y0077633D03*
X0185400Y0081033D03*
X0185800Y0083433D03*
X0180900Y0080933D03*
X0179500Y0083433D03*
X0179700Y0084133D03*
X0180500Y0086833D03*
X0180500Y0086933D03*
X0179200Y0089333D03*
X0176900Y0087233D03*
X0176900Y0087133D03*
X0176100Y0084233D03*
X0176100Y0084133D03*
X0176100Y0083733D03*
X0176100Y0083633D03*
X0176100Y0083533D03*
X0186600Y0073633D03*
X0186700Y0073533D03*
X0189700Y0073433D03*
X0189700Y0069433D03*
D23*
X0189600Y0069633D03*
X0189600Y0069733D03*
X0189600Y0073633D03*
X0189600Y0073733D03*
X0187000Y0073233D03*
X0186900Y0073333D03*
X0186500Y0077133D03*
X0186400Y0077233D03*
X0189600Y0077333D03*
X0185700Y0080833D03*
X0186300Y0083133D03*
X0186100Y0083233D03*
X0185500Y0086533D03*
X0179800Y0084033D03*
X0179700Y0083933D03*
X0179600Y0083833D03*
X0179600Y0083733D03*
X0179500Y0083633D03*
X0180900Y0081033D03*
X0195000Y0080533D03*
X0195000Y0076633D03*
X0241500Y0063833D03*
X0256200Y0063733D03*
X0256200Y0061833D03*
D24*
X0241700Y0061833D03*
X0241700Y0061933D03*
X0241700Y0062033D03*
X0239800Y0073433D03*
X0251700Y0084433D03*
X0251700Y0084533D03*
X0251700Y0084633D03*
X0194600Y0081033D03*
X0189200Y0078033D03*
X0187800Y0076133D03*
X0187900Y0076033D03*
X0188000Y0075933D03*
X0189200Y0074533D03*
X0188400Y0071833D03*
X0189200Y0070833D03*
X0189200Y0070733D03*
X0187100Y0079933D03*
X0187300Y0085633D03*
X0187100Y0085733D03*
D25*
X0182550Y0085333D03*
X0182350Y0085433D03*
X0182750Y0082733D03*
X0183350Y0079733D03*
X0183450Y0079633D03*
X0183550Y0079533D03*
X0183950Y0076233D03*
X0190450Y0075733D03*
X0190450Y0071733D03*
X0190450Y0067433D03*
X0190450Y0067333D03*
X0190450Y0066133D03*
X0190450Y0066033D03*
X0190450Y0065933D03*
X0190450Y0065633D03*
X0190450Y0065533D03*
X0190450Y0065433D03*
X0190450Y0065333D03*
X0190450Y0065233D03*
X0190450Y0065133D03*
X0190450Y0065033D03*
X0189750Y0065033D03*
X0189750Y0064933D03*
X0189750Y0064833D03*
X0189750Y0065133D03*
X0189750Y0065233D03*
X0189750Y0065333D03*
X0189750Y0065433D03*
X0189750Y0065733D03*
X0189750Y0065833D03*
X0188950Y0065533D03*
X0188950Y0065433D03*
X0188950Y0065233D03*
X0188950Y0065133D03*
X0188850Y0064933D03*
X0188250Y0065133D03*
X0188250Y0065233D03*
X0188250Y0065333D03*
X0188250Y0065433D03*
X0188250Y0065533D03*
X0188350Y0065633D03*
X0187650Y0065533D03*
X0187650Y0065333D03*
X0187650Y0065233D03*
X0187650Y0065133D03*
X0187650Y0065033D03*
X0187650Y0064733D03*
X0187650Y0064633D03*
X0187650Y0064533D03*
X0187650Y0064433D03*
X0187050Y0065033D03*
X0186950Y0065233D03*
X0186950Y0065333D03*
X0186950Y0065433D03*
X0186550Y0065333D03*
X0186550Y0065233D03*
X0186550Y0065133D03*
X0186450Y0065033D03*
X0185850Y0065033D03*
X0185850Y0065133D03*
X0185850Y0065333D03*
X0185850Y0065533D03*
X0185850Y0065633D03*
X0186350Y0065733D03*
X0186450Y0065633D03*
X0187250Y0065833D03*
X0188650Y0063733D03*
X0188650Y0063333D03*
X0188650Y0063233D03*
X0188650Y0063133D03*
X0188650Y0063033D03*
X0188650Y0062933D03*
X0188650Y0062833D03*
X0188650Y0062733D03*
X0188650Y0062633D03*
X0188650Y0062533D03*
X0188650Y0062433D03*
X0188650Y0062333D03*
X0188050Y0062533D03*
X0188050Y0062633D03*
X0188050Y0062733D03*
X0187950Y0063233D03*
X0187450Y0063133D03*
X0187450Y0063033D03*
X0187450Y0062833D03*
X0187450Y0062733D03*
X0187450Y0062633D03*
X0187450Y0062533D03*
X0187350Y0062333D03*
X0189150Y0063233D03*
X0189550Y0063333D03*
X0190250Y0063733D03*
X0190950Y0063233D03*
X0191350Y0063233D03*
X0191450Y0063133D03*
X0191450Y0063033D03*
X0191950Y0063033D03*
X0191950Y0062933D03*
X0191950Y0062833D03*
X0191950Y0062733D03*
X0191950Y0062433D03*
X0191950Y0062333D03*
X0192650Y0062633D03*
X0192650Y0062733D03*
X0192650Y0062833D03*
X0192650Y0062933D03*
X0192650Y0063033D03*
X0192650Y0063133D03*
X0192650Y0063233D03*
X0192650Y0063333D03*
X0193250Y0063333D03*
X0193250Y0063433D03*
X0193250Y0063533D03*
X0193250Y0063633D03*
X0193250Y0063733D03*
X0193250Y0063133D03*
X0193250Y0063033D03*
X0193250Y0062933D03*
X0193250Y0062833D03*
X0193250Y0062733D03*
X0193250Y0062633D03*
X0193250Y0062333D03*
X0193650Y0062333D03*
X0194450Y0062333D03*
X0194450Y0062433D03*
X0194450Y0062533D03*
X0194450Y0062633D03*
X0194450Y0062733D03*
X0194450Y0062833D03*
X0194450Y0062933D03*
X0194450Y0063033D03*
X0194450Y0063133D03*
X0195050Y0063033D03*
X0195050Y0062933D03*
X0195050Y0062833D03*
X0195050Y0062733D03*
X0195050Y0062633D03*
X0195050Y0062533D03*
X0195050Y0062433D03*
X0195050Y0062333D03*
X0195750Y0062333D03*
X0195750Y0062433D03*
X0195750Y0062733D03*
X0195750Y0062833D03*
X0195750Y0062933D03*
X0195750Y0063033D03*
X0195750Y0063133D03*
X0195750Y0063233D03*
X0195750Y0063333D03*
X0195750Y0063433D03*
X0195750Y0063533D03*
X0195750Y0063633D03*
X0195050Y0063333D03*
X0194850Y0064933D03*
X0194750Y0065033D03*
X0194750Y0065133D03*
X0194750Y0065333D03*
X0194750Y0065533D03*
X0195250Y0065733D03*
X0195350Y0065633D03*
X0195450Y0065333D03*
X0195450Y0065133D03*
X0195350Y0065033D03*
X0195950Y0065333D03*
X0195950Y0065433D03*
X0195950Y0065533D03*
X0195850Y0065633D03*
X0195850Y0065833D03*
X0196050Y0065233D03*
X0196350Y0065233D03*
X0196350Y0065333D03*
X0196450Y0065533D03*
X0196450Y0065633D03*
X0196550Y0065733D03*
X0196950Y0065833D03*
X0197050Y0065733D03*
X0197150Y0065633D03*
X0197250Y0065533D03*
X0197250Y0065433D03*
X0197150Y0065133D03*
X0197050Y0065033D03*
X0196950Y0064833D03*
X0197550Y0065033D03*
X0197550Y0065133D03*
X0198150Y0065133D03*
X0198150Y0065233D03*
X0198150Y0065333D03*
X0198150Y0065433D03*
X0198150Y0065533D03*
X0198850Y0065433D03*
X0198850Y0065333D03*
X0198850Y0065233D03*
X0198850Y0065133D03*
X0197650Y0066233D03*
X0196150Y0064733D03*
X0196250Y0064633D03*
X0197250Y0063533D03*
X0197250Y0063433D03*
X0197250Y0063133D03*
X0197250Y0063033D03*
X0197250Y0062933D03*
X0197250Y0062833D03*
X0197250Y0062733D03*
X0197250Y0062633D03*
X0197250Y0062533D03*
X0197250Y0062433D03*
X0197250Y0062333D03*
X0197850Y0062533D03*
X0197850Y0062633D03*
X0197850Y0063033D03*
X0197850Y0063133D03*
X0197950Y0063233D03*
X0198350Y0063233D03*
X0198450Y0063133D03*
X0198450Y0062533D03*
X0192950Y0064833D03*
X0192950Y0064933D03*
X0193050Y0065333D03*
X0193050Y0065433D03*
X0193050Y0065533D03*
X0193150Y0065633D03*
X0193150Y0065733D03*
X0193150Y0065833D03*
X0192750Y0065533D03*
X0192750Y0065433D03*
X0192350Y0065333D03*
X0192350Y0065233D03*
X0192350Y0065133D03*
X0192350Y0065033D03*
X0192350Y0064833D03*
X0191750Y0065133D03*
X0191750Y0065233D03*
X0191750Y0065433D03*
X0191750Y0065533D03*
X0191650Y0065633D03*
X0191550Y0065733D03*
X0191050Y0065533D03*
X0191050Y0065433D03*
X0191150Y0065033D03*
X0192350Y0065533D03*
X0192350Y0065633D03*
X0192350Y0065833D03*
X0192650Y0065933D03*
X0191950Y0063333D03*
X0191950Y0063233D03*
X0191950Y0063133D03*
X0190850Y0062633D03*
X0190850Y0062533D03*
X0185050Y0062533D03*
X0185050Y0062433D03*
X0185050Y0062333D03*
X0185050Y0062633D03*
X0185050Y0062733D03*
X0185050Y0062833D03*
X0185050Y0062933D03*
X0185050Y0063033D03*
X0185050Y0063133D03*
X0185050Y0063233D03*
X0185050Y0063333D03*
X0185050Y0063433D03*
X0184350Y0063033D03*
X0184350Y0062733D03*
X0184350Y0062633D03*
X0184250Y0062533D03*
X0183650Y0063033D03*
X0183150Y0063033D03*
X0182550Y0063133D03*
X0182550Y0062533D03*
X0181350Y0062333D03*
X0180750Y0062333D03*
X0180750Y0062433D03*
X0180750Y0062533D03*
X0180750Y0062633D03*
X0180750Y0062733D03*
X0180750Y0062833D03*
X0180750Y0062933D03*
X0180750Y0063033D03*
X0180750Y0063333D03*
X0180150Y0063133D03*
X0180150Y0063033D03*
X0180150Y0062933D03*
X0180150Y0062833D03*
X0180150Y0062733D03*
X0180150Y0062633D03*
X0180150Y0062533D03*
X0180150Y0062433D03*
X0180150Y0062333D03*
X0179650Y0062633D03*
X0179650Y0062733D03*
X0179650Y0062833D03*
X0179650Y0062933D03*
X0179650Y0063033D03*
X0179550Y0063133D03*
X0179550Y0062533D03*
X0178950Y0062633D03*
X0178950Y0062733D03*
X0178950Y0062833D03*
X0178950Y0062933D03*
X0178950Y0063033D03*
X0178350Y0063033D03*
X0178350Y0062933D03*
X0178350Y0062833D03*
X0178350Y0062733D03*
X0178350Y0062633D03*
X0178350Y0062533D03*
X0178350Y0062433D03*
X0178350Y0062333D03*
X0177750Y0062633D03*
X0177750Y0062733D03*
X0177750Y0062833D03*
X0177750Y0062933D03*
X0177750Y0063033D03*
X0177650Y0063233D03*
X0177150Y0063133D03*
X0177050Y0063033D03*
X0177050Y0062933D03*
X0177050Y0062833D03*
X0177050Y0062733D03*
X0176550Y0062633D03*
X0176550Y0062533D03*
X0176550Y0062933D03*
X0176550Y0063133D03*
X0175950Y0063133D03*
X0175950Y0062933D03*
X0175850Y0063333D03*
X0175450Y0063233D03*
X0175350Y0063133D03*
X0175350Y0063033D03*
X0175350Y0062933D03*
X0175250Y0062833D03*
X0175250Y0062733D03*
X0174950Y0062733D03*
X0174950Y0062833D03*
X0174850Y0062933D03*
X0174850Y0063033D03*
X0174850Y0063133D03*
X0174750Y0063233D03*
X0175150Y0062133D03*
X0175850Y0062233D03*
X0176550Y0062033D03*
X0176650Y0062133D03*
X0178350Y0063133D03*
X0178350Y0063233D03*
X0178350Y0063333D03*
X0178350Y0063433D03*
X0178350Y0063533D03*
X0178350Y0063633D03*
X0178350Y0063733D03*
X0178150Y0065033D03*
X0178050Y0065133D03*
X0178050Y0065233D03*
X0178050Y0065333D03*
X0178050Y0065433D03*
X0178050Y0065533D03*
X0178150Y0065633D03*
X0178250Y0065733D03*
X0178750Y0065533D03*
X0178750Y0065433D03*
X0178750Y0065333D03*
X0178750Y0065233D03*
X0178750Y0065133D03*
X0178750Y0065033D03*
X0179650Y0064733D03*
X0180150Y0065233D03*
X0180150Y0065333D03*
X0180150Y0065433D03*
X0180150Y0065533D03*
X0180150Y0065633D03*
X0180150Y0065733D03*
X0180150Y0065833D03*
X0180050Y0066033D03*
X0181350Y0065533D03*
X0181350Y0065433D03*
X0181350Y0065333D03*
X0181350Y0065233D03*
X0181350Y0065133D03*
X0181350Y0065033D03*
X0181350Y0064933D03*
X0181350Y0064833D03*
X0181950Y0064833D03*
X0181950Y0064933D03*
X0181950Y0065033D03*
X0181950Y0065133D03*
X0181950Y0065233D03*
X0181950Y0065333D03*
X0181950Y0065433D03*
X0181950Y0065533D03*
X0181950Y0065733D03*
X0182650Y0065633D03*
X0182650Y0065333D03*
X0182650Y0065033D03*
X0182550Y0064833D03*
X0183150Y0065233D03*
X0183250Y0065133D03*
X0183250Y0065033D03*
X0183850Y0065033D03*
X0183850Y0065133D03*
X0183850Y0065233D03*
X0183850Y0065333D03*
X0183850Y0065433D03*
X0183850Y0065533D03*
X0183850Y0065633D03*
X0183850Y0065933D03*
X0183850Y0066033D03*
X0183850Y0066133D03*
X0184550Y0066133D03*
X0184550Y0066233D03*
X0184550Y0065833D03*
X0184550Y0065733D03*
X0184550Y0065633D03*
X0184550Y0065533D03*
X0184550Y0065433D03*
X0184550Y0065333D03*
X0184550Y0065233D03*
X0184550Y0065133D03*
X0184550Y0065033D03*
X0184550Y0064933D03*
X0184550Y0064833D03*
X0176850Y0065033D03*
X0176250Y0065233D03*
X0176150Y0065133D03*
X0176150Y0065033D03*
X0176250Y0065433D03*
X0176150Y0065633D03*
X0175550Y0065633D03*
X0175050Y0065633D03*
X0175050Y0065533D03*
X0175050Y0065433D03*
X0175050Y0065033D03*
X0175050Y0064733D03*
X0175550Y0065033D03*
X0174450Y0065333D03*
X0174350Y0065533D03*
X0174450Y0065633D03*
X0174250Y0065833D03*
X0173850Y0065533D03*
X0173850Y0065433D03*
X0173850Y0065233D03*
X0174250Y0064733D03*
X0174250Y0064633D03*
X0173150Y0065433D03*
X0173150Y0065533D03*
X0176850Y0065833D03*
X0176850Y0065933D03*
X0195850Y0079433D03*
X0181950Y0088233D03*
X0179650Y0087333D03*
X0235050Y0072733D03*
X0237150Y0073533D03*
X0237750Y0074133D03*
X0236950Y0074833D03*
X0240050Y0075033D03*
X0241250Y0078833D03*
X0241250Y0078933D03*
X0241250Y0079033D03*
X0241250Y0079133D03*
X0241250Y0079233D03*
X0241250Y0079333D03*
X0241250Y0079433D03*
X0241250Y0079533D03*
X0241250Y0079633D03*
X0241250Y0079733D03*
X0241250Y0079833D03*
X0240450Y0080333D03*
X0240450Y0080433D03*
X0240450Y0080533D03*
X0240450Y0080633D03*
X0240450Y0080733D03*
X0240450Y0080833D03*
X0240450Y0080933D03*
X0240450Y0081033D03*
X0240450Y0081133D03*
X0240450Y0081233D03*
X0240450Y0081333D03*
X0240450Y0081433D03*
X0240450Y0081533D03*
X0240450Y0081633D03*
X0240450Y0081733D03*
X0240450Y0081833D03*
X0245450Y0082233D03*
X0245450Y0082333D03*
X0245450Y0082433D03*
X0248050Y0082633D03*
X0250450Y0083433D03*
X0250450Y0083533D03*
X0252950Y0083633D03*
X0252950Y0083733D03*
X0255250Y0082633D03*
X0257450Y0080433D03*
X0257150Y0074333D03*
X0255650Y0072433D03*
X0254150Y0071733D03*
X0253350Y0071533D03*
X0252350Y0071533D03*
X0252350Y0071433D03*
X0252350Y0071333D03*
X0252450Y0068933D03*
X0252450Y0068833D03*
X0252450Y0068733D03*
X0252450Y0068633D03*
X0252450Y0068533D03*
X0252450Y0068433D03*
X0252450Y0068333D03*
X0252450Y0068233D03*
X0252450Y0068133D03*
X0252450Y0068033D03*
X0252450Y0067933D03*
X0252450Y0067833D03*
X0252450Y0067733D03*
X0252450Y0067633D03*
X0252450Y0067533D03*
X0252450Y0067433D03*
X0252450Y0067333D03*
X0252450Y0067233D03*
X0252450Y0067133D03*
X0252450Y0067033D03*
X0252450Y0066933D03*
X0252450Y0066833D03*
X0252450Y0066733D03*
X0252450Y0066633D03*
X0252450Y0066533D03*
X0252450Y0066433D03*
X0252450Y0066333D03*
X0252450Y0066233D03*
X0252450Y0066133D03*
X0252450Y0066033D03*
X0252450Y0065933D03*
X0252450Y0065833D03*
X0252450Y0065733D03*
X0252450Y0065633D03*
X0252450Y0065533D03*
X0252450Y0065433D03*
X0252450Y0065333D03*
X0252450Y0065233D03*
X0246850Y0064433D03*
X0245250Y0063933D03*
X0242950Y0063033D03*
X0239950Y0061833D03*
X0239550Y0063133D03*
X0238050Y0063833D03*
X0237350Y0064333D03*
X0235250Y0064933D03*
X0235950Y0066133D03*
D26*
X0236100Y0066233D03*
X0234800Y0067433D03*
X0234600Y0067333D03*
X0234300Y0069933D03*
X0241700Y0070933D03*
X0241700Y0068833D03*
X0241600Y0068133D03*
X0241600Y0064833D03*
X0243100Y0062433D03*
X0243500Y0062133D03*
X0246600Y0063933D03*
X0247500Y0064533D03*
X0247500Y0064633D03*
X0248900Y0064933D03*
X0248900Y0065033D03*
X0248900Y0065133D03*
X0248900Y0065233D03*
X0248900Y0065333D03*
X0251700Y0066033D03*
X0251700Y0066933D03*
X0251700Y0067833D03*
X0251600Y0070933D03*
X0251700Y0071533D03*
X0251700Y0072333D03*
X0252600Y0072333D03*
X0253500Y0070933D03*
X0253900Y0070633D03*
X0254300Y0071933D03*
X0255800Y0071533D03*
X0257500Y0074233D03*
X0251700Y0073833D03*
X0251700Y0077833D03*
X0251400Y0078733D03*
X0251400Y0080233D03*
X0252200Y0080833D03*
X0252200Y0081233D03*
X0250300Y0084033D03*
X0248000Y0083533D03*
X0253500Y0084533D03*
X0255600Y0083133D03*
X0255900Y0082033D03*
X0258600Y0079133D03*
X0258800Y0079233D03*
X0258900Y0079333D03*
X0242000Y0078733D03*
X0241700Y0077833D03*
X0242000Y0080233D03*
X0241200Y0080833D03*
X0241200Y0081233D03*
X0239400Y0075933D03*
X0239900Y0075633D03*
X0237600Y0075033D03*
X0237400Y0064533D03*
X0237800Y0063433D03*
X0238000Y0062833D03*
X0239800Y0062033D03*
X0255400Y0063533D03*
X0255500Y0063633D03*
X0256200Y0064133D03*
X0256800Y0063633D03*
X0256900Y0063533D03*
X0256900Y0062033D03*
X0255500Y0061933D03*
X0198200Y0062433D03*
X0190200Y0068033D03*
X0187400Y0065733D03*
X0184000Y0062433D03*
X0182800Y0062433D03*
X0182800Y0063233D03*
X0182900Y0065733D03*
X0174700Y0065233D03*
X0173500Y0065733D03*
X0184700Y0075533D03*
X0184800Y0075433D03*
X0184900Y0075333D03*
X0185000Y0075233D03*
X0184400Y0078833D03*
X0184300Y0078933D03*
X0183700Y0082133D03*
X0183600Y0084733D03*
X0180400Y0086033D03*
X0175900Y0090833D03*
X0175900Y0092133D03*
X0180900Y0081433D03*
X0190200Y0076133D03*
X0190200Y0072333D03*
X0195600Y0075733D03*
X0195600Y0079733D03*
D27*
X0195900Y0079333D03*
X0195900Y0075233D03*
X0190500Y0075633D03*
X0190500Y0071633D03*
X0183900Y0076333D03*
X0183800Y0076433D03*
X0183700Y0076533D03*
X0183200Y0079833D03*
X0181600Y0079833D03*
X0181500Y0079933D03*
X0180200Y0079933D03*
X0180900Y0081933D03*
X0180900Y0082033D03*
X0179800Y0082733D03*
X0179400Y0084833D03*
X0180300Y0085533D03*
X0182200Y0085533D03*
X0182600Y0082833D03*
X0181700Y0088333D03*
X0178900Y0088633D03*
X0177200Y0086133D03*
X0176100Y0084833D03*
X0175900Y0084833D03*
X0176200Y0065533D03*
X0175500Y0065533D03*
X0175500Y0065433D03*
X0175100Y0064633D03*
X0174300Y0064533D03*
X0174400Y0065433D03*
X0173200Y0065033D03*
X0174800Y0063333D03*
X0175400Y0063333D03*
X0175100Y0062233D03*
X0175800Y0062133D03*
X0176600Y0062233D03*
X0176600Y0063033D03*
X0182600Y0062633D03*
X0182600Y0065133D03*
X0182600Y0065233D03*
X0182600Y0065533D03*
X0183200Y0065633D03*
X0182000Y0065833D03*
X0185800Y0065433D03*
X0185800Y0065233D03*
X0186500Y0065433D03*
X0187700Y0065433D03*
X0187700Y0065833D03*
X0187700Y0064833D03*
X0188600Y0063633D03*
X0189100Y0063333D03*
X0188000Y0063133D03*
X0189400Y0065733D03*
X0189400Y0065833D03*
X0190500Y0067233D03*
X0192700Y0065833D03*
X0192700Y0065733D03*
X0192700Y0065633D03*
X0192800Y0065333D03*
X0194700Y0065233D03*
X0194700Y0065433D03*
X0195400Y0065433D03*
X0195400Y0065233D03*
X0195900Y0065733D03*
X0196500Y0065833D03*
X0197000Y0064933D03*
X0197600Y0064933D03*
X0197600Y0064833D03*
X0197600Y0065433D03*
X0197600Y0065533D03*
X0197600Y0065633D03*
X0197600Y0065733D03*
X0197600Y0065833D03*
X0197600Y0065933D03*
X0197600Y0066033D03*
X0197600Y0066133D03*
X0191400Y0062533D03*
X0237300Y0062933D03*
X0238200Y0063933D03*
X0240400Y0062933D03*
X0240400Y0062833D03*
X0242900Y0063133D03*
X0243800Y0063233D03*
X0243400Y0061933D03*
X0253800Y0070433D03*
X0253300Y0071633D03*
X0258100Y0081633D03*
X0256000Y0082233D03*
X0253700Y0083433D03*
X0253300Y0084733D03*
X0250500Y0083333D03*
X0250000Y0084633D03*
X0248200Y0082533D03*
X0247300Y0083333D03*
X0239600Y0076133D03*
X0240100Y0074933D03*
X0239200Y0074833D03*
X0237800Y0074033D03*
D28*
X0239150Y0074733D03*
X0239950Y0075333D03*
X0240950Y0074533D03*
X0240950Y0074433D03*
X0240950Y0074333D03*
X0235650Y0072733D03*
X0235550Y0072833D03*
X0234950Y0072333D03*
X0234950Y0072233D03*
X0234850Y0072133D03*
X0234850Y0072033D03*
X0234850Y0071933D03*
X0234750Y0071833D03*
X0234750Y0071733D03*
X0234650Y0071633D03*
X0234650Y0071533D03*
X0234550Y0071333D03*
X0234550Y0071233D03*
X0234450Y0071033D03*
X0234450Y0070933D03*
X0234350Y0070733D03*
X0234250Y0070633D03*
X0234250Y0070533D03*
X0234150Y0069833D03*
X0234150Y0069733D03*
X0234150Y0069633D03*
X0234150Y0069533D03*
X0234150Y0069433D03*
X0234150Y0069333D03*
X0234150Y0069233D03*
X0234150Y0069133D03*
X0234150Y0069033D03*
X0234150Y0068933D03*
X0234150Y0068833D03*
X0234150Y0068733D03*
X0234450Y0067033D03*
X0234450Y0066933D03*
X0234450Y0066833D03*
X0234550Y0066733D03*
X0234550Y0066633D03*
X0234650Y0066533D03*
X0234650Y0066433D03*
X0234750Y0066333D03*
X0234850Y0066133D03*
X0234850Y0066033D03*
X0234950Y0065933D03*
X0234950Y0065833D03*
X0235050Y0065733D03*
X0235050Y0065633D03*
X0235150Y0065533D03*
X0235150Y0065433D03*
X0235250Y0065333D03*
X0235750Y0064833D03*
X0237950Y0063633D03*
X0237850Y0063033D03*
X0237850Y0062933D03*
X0240350Y0062633D03*
X0240350Y0062533D03*
X0242950Y0062833D03*
X0243450Y0062033D03*
X0243850Y0063333D03*
X0245350Y0063833D03*
X0245450Y0063733D03*
X0245450Y0063133D03*
X0245750Y0064633D03*
X0246750Y0064233D03*
X0246750Y0064133D03*
X0252350Y0069033D03*
X0252350Y0069133D03*
X0253250Y0070733D03*
X0253350Y0071333D03*
X0254250Y0071833D03*
X0257950Y0073533D03*
X0258250Y0073833D03*
X0258350Y0074233D03*
X0258450Y0074333D03*
X0258450Y0074433D03*
X0258450Y0074533D03*
X0258550Y0074633D03*
X0258650Y0074833D03*
X0258650Y0074933D03*
X0258750Y0075133D03*
X0258750Y0075233D03*
X0258850Y0075433D03*
X0258850Y0075533D03*
X0258950Y0075733D03*
X0259050Y0075833D03*
X0259050Y0075933D03*
X0259050Y0076033D03*
X0259150Y0076733D03*
X0259150Y0076833D03*
X0259150Y0076933D03*
X0259150Y0077033D03*
X0259150Y0077133D03*
X0259150Y0077233D03*
X0259150Y0077333D03*
X0259150Y0077433D03*
X0259150Y0077533D03*
X0259150Y0077633D03*
X0259150Y0077733D03*
X0259150Y0077833D03*
X0259150Y0077933D03*
X0259150Y0078033D03*
X0259150Y0078133D03*
X0259150Y0078233D03*
X0259150Y0078333D03*
X0259150Y0078433D03*
X0259150Y0078533D03*
X0259150Y0078633D03*
X0258950Y0079533D03*
X0258850Y0079633D03*
X0258850Y0079733D03*
X0258750Y0079933D03*
X0258650Y0080133D03*
X0258650Y0080233D03*
X0258550Y0080333D03*
X0258550Y0080433D03*
X0258450Y0080533D03*
X0258450Y0080633D03*
X0258350Y0080733D03*
X0258350Y0080833D03*
X0258250Y0080933D03*
X0258250Y0081033D03*
X0258150Y0081233D03*
X0257650Y0081733D03*
X0257650Y0081833D03*
X0257250Y0081133D03*
X0255950Y0082133D03*
X0255350Y0082833D03*
X0255550Y0083533D03*
X0256050Y0083533D03*
X0253850Y0083333D03*
X0253050Y0084033D03*
X0253450Y0084633D03*
X0250350Y0083833D03*
X0250350Y0083733D03*
X0247850Y0083333D03*
X0247350Y0083233D03*
X0198550Y0065833D03*
X0196450Y0064433D03*
X0196150Y0065033D03*
X0195050Y0064833D03*
X0195050Y0065833D03*
X0194550Y0063333D03*
X0193650Y0063333D03*
X0192050Y0062533D03*
X0191350Y0062933D03*
X0190950Y0062733D03*
X0190950Y0062433D03*
X0191150Y0062333D03*
X0190350Y0064833D03*
X0190350Y0064933D03*
X0191350Y0065833D03*
X0192450Y0066033D03*
X0192450Y0066133D03*
X0192450Y0066233D03*
X0190350Y0067633D03*
X0187250Y0064833D03*
X0186150Y0064833D03*
X0186150Y0065833D03*
X0183750Y0064933D03*
X0183050Y0064833D03*
X0182750Y0065433D03*
X0182850Y0065833D03*
X0181950Y0063133D03*
X0180750Y0063133D03*
X0179250Y0062333D03*
X0177450Y0063333D03*
X0176050Y0064933D03*
X0175850Y0065833D03*
X0174850Y0065133D03*
X0174450Y0065733D03*
X0173450Y0065833D03*
X0175350Y0061933D03*
X0178450Y0065833D03*
X0179450Y0066133D03*
X0179950Y0066133D03*
X0179350Y0065033D03*
X0182850Y0062333D03*
X0183950Y0062333D03*
X0187850Y0062333D03*
X0197250Y0063233D03*
X0198150Y0063333D03*
X0198150Y0062333D03*
X0190350Y0071933D03*
X0190350Y0072033D03*
X0190350Y0075833D03*
X0195750Y0075433D03*
X0195750Y0079533D03*
X0184250Y0075933D03*
X0183250Y0082433D03*
X0183050Y0082533D03*
X0179750Y0082833D03*
X0179450Y0084733D03*
X0180350Y0085733D03*
X0180350Y0085833D03*
X0182550Y0087933D03*
D29*
X0180900Y0081133D03*
X0186000Y0080633D03*
X0186800Y0076933D03*
X0189500Y0077433D03*
X0189500Y0073933D03*
X0187300Y0072933D03*
X0189500Y0070033D03*
X0189500Y0069933D03*
X0194900Y0076733D03*
X0194900Y0080633D03*
X0240000Y0064333D03*
X0240000Y0064233D03*
X0242000Y0062133D03*
X0248200Y0064033D03*
X0248200Y0064133D03*
X0248200Y0064233D03*
X0248200Y0064333D03*
X0248200Y0064433D03*
X0253800Y0081933D03*
X0251900Y0084733D03*
D30*
X0253000Y0083933D03*
X0253000Y0083833D03*
X0255500Y0083433D03*
X0255300Y0082733D03*
X0257600Y0081633D03*
X0258900Y0075633D03*
X0258800Y0075333D03*
X0258700Y0075033D03*
X0258600Y0074733D03*
X0256200Y0073033D03*
X0255700Y0072333D03*
X0255900Y0071733D03*
X0256400Y0071733D03*
X0253300Y0071433D03*
X0252400Y0071633D03*
X0252400Y0071733D03*
X0252400Y0071833D03*
X0252400Y0071933D03*
X0252400Y0072033D03*
X0252400Y0072133D03*
X0252400Y0072233D03*
X0252300Y0070233D03*
X0252300Y0070133D03*
X0252300Y0070033D03*
X0252300Y0069933D03*
X0252300Y0069833D03*
X0252300Y0069733D03*
X0252300Y0069633D03*
X0252300Y0069533D03*
X0252300Y0069433D03*
X0252300Y0069333D03*
X0252300Y0069233D03*
X0249600Y0064733D03*
X0249600Y0064633D03*
X0249600Y0064533D03*
X0249600Y0064433D03*
X0249600Y0064333D03*
X0249600Y0064233D03*
X0249600Y0064133D03*
X0249600Y0064033D03*
X0249600Y0063933D03*
X0249600Y0063833D03*
X0249600Y0063733D03*
X0246800Y0064333D03*
X0245800Y0064533D03*
X0246000Y0063233D03*
X0245500Y0063233D03*
X0242900Y0062933D03*
X0242900Y0062233D03*
X0241400Y0062833D03*
X0240400Y0062733D03*
X0240500Y0062133D03*
X0238000Y0063733D03*
X0237300Y0063033D03*
X0235700Y0064733D03*
X0235800Y0064933D03*
X0236200Y0065433D03*
X0234800Y0066233D03*
X0234200Y0067933D03*
X0234200Y0068033D03*
X0234200Y0068133D03*
X0234200Y0068233D03*
X0234200Y0068333D03*
X0234200Y0068433D03*
X0234200Y0068533D03*
X0234200Y0068633D03*
X0236100Y0072233D03*
X0237600Y0074233D03*
X0237500Y0074733D03*
X0237500Y0074833D03*
X0239500Y0076033D03*
X0240000Y0075233D03*
X0240000Y0075133D03*
X0241000Y0075133D03*
X0241000Y0075033D03*
X0241000Y0074933D03*
X0241000Y0074833D03*
X0241000Y0074733D03*
X0241000Y0074633D03*
X0241000Y0076333D03*
X0241000Y0076433D03*
X0241000Y0076533D03*
X0241000Y0076633D03*
X0241000Y0076733D03*
X0241000Y0076833D03*
X0241000Y0076933D03*
X0241000Y0077033D03*
X0241000Y0077133D03*
X0241000Y0077233D03*
X0241000Y0077333D03*
X0241000Y0077433D03*
X0241000Y0077533D03*
X0241000Y0077633D03*
X0241000Y0077733D03*
X0241000Y0077833D03*
X0241000Y0077933D03*
X0241000Y0078033D03*
X0241000Y0078133D03*
X0241000Y0078233D03*
X0241000Y0078333D03*
X0241000Y0078433D03*
X0241000Y0078533D03*
X0241000Y0078633D03*
X0240500Y0081933D03*
X0247900Y0083233D03*
X0248000Y0082733D03*
X0249500Y0083233D03*
X0250400Y0083633D03*
X0250500Y0084333D03*
X0249900Y0084533D03*
X0199500Y0066033D03*
X0199500Y0065933D03*
X0199500Y0065833D03*
X0199500Y0065733D03*
X0199500Y0065633D03*
X0199500Y0065533D03*
X0199500Y0065433D03*
X0199500Y0065333D03*
X0199500Y0065233D03*
X0199500Y0065133D03*
X0199500Y0065033D03*
X0199500Y0064933D03*
X0199500Y0064833D03*
X0198800Y0065033D03*
X0198700Y0064933D03*
X0198300Y0064933D03*
X0198200Y0065033D03*
X0198200Y0065633D03*
X0198300Y0065733D03*
X0198700Y0065733D03*
X0198800Y0065633D03*
X0198800Y0065533D03*
X0196400Y0065433D03*
X0196200Y0064933D03*
X0196200Y0064833D03*
X0196300Y0064533D03*
X0195800Y0063733D03*
X0195000Y0063133D03*
X0195800Y0062633D03*
X0195800Y0062533D03*
X0197100Y0063733D03*
X0197200Y0063633D03*
X0197800Y0062933D03*
X0197800Y0062833D03*
X0197800Y0062733D03*
X0198500Y0062733D03*
X0198500Y0062633D03*
X0198500Y0062833D03*
X0198500Y0062933D03*
X0198500Y0063033D03*
X0195300Y0064933D03*
X0195400Y0065533D03*
X0194900Y0065733D03*
X0194800Y0065633D03*
X0193500Y0065633D03*
X0193500Y0065533D03*
X0193500Y0065433D03*
X0193500Y0065333D03*
X0193500Y0065233D03*
X0193500Y0065133D03*
X0193500Y0065033D03*
X0193500Y0064933D03*
X0193500Y0064833D03*
X0192900Y0065033D03*
X0192900Y0065133D03*
X0192900Y0065233D03*
X0192300Y0065433D03*
X0192300Y0065733D03*
X0192300Y0065933D03*
X0192300Y0064933D03*
X0191700Y0065033D03*
X0191600Y0064933D03*
X0191200Y0064933D03*
X0191100Y0065633D03*
X0191200Y0065733D03*
X0189700Y0065533D03*
X0189000Y0065333D03*
X0188900Y0065033D03*
X0188400Y0064933D03*
X0188300Y0065033D03*
X0188400Y0065733D03*
X0188600Y0065833D03*
X0188800Y0065733D03*
X0188900Y0065633D03*
X0187600Y0065633D03*
X0187100Y0065633D03*
X0187000Y0065533D03*
X0187000Y0065133D03*
X0186400Y0064933D03*
X0185900Y0064933D03*
X0185200Y0064933D03*
X0185200Y0064833D03*
X0185200Y0065033D03*
X0185200Y0065133D03*
X0185200Y0065233D03*
X0185200Y0065333D03*
X0185200Y0065433D03*
X0185200Y0065533D03*
X0185200Y0065633D03*
X0185200Y0065733D03*
X0185200Y0065833D03*
X0185200Y0065933D03*
X0185200Y0066033D03*
X0185200Y0066133D03*
X0185200Y0066233D03*
X0186000Y0065733D03*
X0186500Y0065533D03*
X0186800Y0063733D03*
X0186800Y0063633D03*
X0186800Y0063533D03*
X0186800Y0063433D03*
X0186800Y0063333D03*
X0186800Y0063233D03*
X0186800Y0063133D03*
X0186800Y0063033D03*
X0186800Y0062933D03*
X0186800Y0062833D03*
X0186800Y0062733D03*
X0186800Y0062633D03*
X0186800Y0062533D03*
X0186800Y0062433D03*
X0186800Y0062333D03*
X0187500Y0063233D03*
X0187900Y0062833D03*
X0188000Y0062433D03*
X0189500Y0062433D03*
X0189500Y0062333D03*
X0189500Y0062533D03*
X0189500Y0062633D03*
X0189500Y0062733D03*
X0189500Y0062833D03*
X0189500Y0062933D03*
X0189500Y0063033D03*
X0189500Y0063233D03*
X0190200Y0063133D03*
X0190200Y0063033D03*
X0190200Y0062933D03*
X0190200Y0062833D03*
X0190200Y0062733D03*
X0190200Y0062633D03*
X0190200Y0062533D03*
X0190100Y0062433D03*
X0190100Y0062333D03*
X0190200Y0063433D03*
X0190200Y0063533D03*
X0190200Y0063633D03*
X0191400Y0062433D03*
X0192000Y0062633D03*
X0192500Y0062333D03*
X0192600Y0062533D03*
X0193300Y0062533D03*
X0193800Y0062533D03*
X0193900Y0062633D03*
X0193900Y0062733D03*
X0193900Y0062833D03*
X0193900Y0062933D03*
X0193900Y0063033D03*
X0193800Y0063133D03*
X0193500Y0065733D03*
X0193500Y0065833D03*
X0190400Y0067533D03*
X0185100Y0063533D03*
X0184300Y0063133D03*
X0184200Y0063233D03*
X0183800Y0063233D03*
X0183700Y0063133D03*
X0183200Y0062933D03*
X0183200Y0062833D03*
X0183200Y0062733D03*
X0183100Y0062633D03*
X0183100Y0062533D03*
X0183700Y0062533D03*
X0183100Y0063133D03*
X0182000Y0063033D03*
X0182000Y0062933D03*
X0182000Y0062833D03*
X0182000Y0062733D03*
X0182000Y0062633D03*
X0182000Y0062533D03*
X0182000Y0062433D03*
X0182000Y0062333D03*
X0181400Y0062433D03*
X0181400Y0062533D03*
X0181400Y0062633D03*
X0181400Y0062733D03*
X0181400Y0062833D03*
X0181400Y0062933D03*
X0181400Y0063033D03*
X0181400Y0063133D03*
X0181500Y0063333D03*
X0182000Y0063333D03*
X0182000Y0063433D03*
X0182000Y0063533D03*
X0182000Y0063633D03*
X0182000Y0063733D03*
X0182700Y0064933D03*
X0183200Y0064933D03*
X0183000Y0065333D03*
X0183700Y0064833D03*
X0181900Y0065633D03*
X0181500Y0065833D03*
X0181400Y0065633D03*
X0180100Y0065933D03*
X0180100Y0065133D03*
X0180000Y0065033D03*
X0179300Y0065133D03*
X0178600Y0064933D03*
X0178200Y0064933D03*
X0177500Y0064933D03*
X0177500Y0064833D03*
X0177500Y0065033D03*
X0177500Y0065133D03*
X0177500Y0065233D03*
X0177500Y0065333D03*
X0177500Y0065433D03*
X0177500Y0065533D03*
X0177500Y0065633D03*
X0177500Y0065733D03*
X0177500Y0065833D03*
X0177500Y0065933D03*
X0177500Y0066033D03*
X0177500Y0066133D03*
X0177500Y0066233D03*
X0176800Y0066233D03*
X0176800Y0066133D03*
X0176800Y0066033D03*
X0176800Y0065733D03*
X0176800Y0065633D03*
X0176800Y0065533D03*
X0176800Y0065433D03*
X0176800Y0065333D03*
X0176800Y0065233D03*
X0176800Y0065133D03*
X0176800Y0064933D03*
X0176800Y0064833D03*
X0175600Y0064933D03*
X0175000Y0064933D03*
X0175000Y0065333D03*
X0174900Y0065733D03*
X0173800Y0065633D03*
X0173800Y0065133D03*
X0173800Y0065033D03*
X0173700Y0064933D03*
X0173300Y0064933D03*
X0173200Y0065633D03*
X0175100Y0064533D03*
X0176000Y0063233D03*
X0175900Y0063033D03*
X0176000Y0062833D03*
X0176500Y0062833D03*
X0176500Y0063233D03*
X0177200Y0063233D03*
X0177700Y0063133D03*
X0177700Y0062533D03*
X0177600Y0062433D03*
X0177200Y0062433D03*
X0177100Y0062533D03*
X0177100Y0062633D03*
X0175900Y0062033D03*
X0175200Y0062033D03*
X0175100Y0062333D03*
X0175100Y0062433D03*
X0175100Y0062533D03*
X0179000Y0062533D03*
X0179000Y0063133D03*
X0179100Y0063233D03*
X0179500Y0063233D03*
X0180300Y0063333D03*
X0179300Y0065933D03*
X0179300Y0066033D03*
X0178700Y0065633D03*
X0178600Y0065733D03*
X0184200Y0076033D03*
X0184100Y0076133D03*
X0183700Y0079433D03*
X0181400Y0080033D03*
X0180300Y0080033D03*
X0180900Y0081733D03*
X0180900Y0081833D03*
X0182900Y0082633D03*
X0182700Y0085233D03*
X0180300Y0085633D03*
X0182100Y0088133D03*
X0182300Y0088033D03*
X0177000Y0087833D03*
X0190400Y0071833D03*
X0195800Y0075333D03*
D31*
X0195400Y0080033D03*
X0190000Y0076533D03*
X0190000Y0072833D03*
X0190000Y0072733D03*
X0190000Y0068633D03*
X0185700Y0074533D03*
X0185600Y0074633D03*
X0185500Y0074733D03*
X0184900Y0078433D03*
X0184300Y0081733D03*
X0179600Y0084433D03*
X0176100Y0084633D03*
X0176100Y0083233D03*
X0183800Y0087333D03*
X0199500Y0066233D03*
X0199500Y0066133D03*
X0185100Y0063733D03*
X0185100Y0063633D03*
X0235600Y0065233D03*
X0237500Y0063233D03*
X0238300Y0062633D03*
X0238600Y0062533D03*
X0238900Y0062433D03*
X0239200Y0062333D03*
X0239700Y0062133D03*
X0239400Y0063533D03*
X0239400Y0063633D03*
X0239500Y0063733D03*
X0239500Y0063833D03*
X0241600Y0063633D03*
X0241600Y0063533D03*
X0241600Y0063433D03*
X0243900Y0063733D03*
X0244000Y0063633D03*
X0245800Y0063533D03*
X0245700Y0064833D03*
X0243100Y0074333D03*
X0243100Y0074433D03*
X0243100Y0076733D03*
X0243100Y0076833D03*
X0240600Y0074133D03*
X0239100Y0074233D03*
X0239000Y0074333D03*
X0239000Y0074433D03*
X0235400Y0072633D03*
X0250300Y0074433D03*
X0250300Y0074533D03*
X0250300Y0074633D03*
X0250300Y0074733D03*
X0250300Y0074833D03*
X0250300Y0074933D03*
X0250300Y0075033D03*
X0250300Y0075133D03*
X0250300Y0075233D03*
X0250300Y0075333D03*
X0250300Y0075433D03*
X0250300Y0075533D03*
X0250300Y0075633D03*
X0250300Y0075733D03*
X0250300Y0075833D03*
X0250300Y0075933D03*
X0250300Y0076033D03*
X0250300Y0076133D03*
X0250300Y0076233D03*
X0250300Y0076333D03*
X0250300Y0076433D03*
X0250300Y0076533D03*
X0250300Y0076633D03*
X0250300Y0076733D03*
X0250300Y0076833D03*
X0254300Y0072233D03*
X0254400Y0072033D03*
X0256100Y0073333D03*
X0257900Y0073933D03*
X0258800Y0076533D03*
X0257700Y0081333D03*
X0255900Y0081833D03*
X0255800Y0083333D03*
X0255000Y0083933D03*
X0254700Y0084033D03*
X0254400Y0084133D03*
X0254200Y0084233D03*
X0254000Y0083033D03*
X0253900Y0082833D03*
X0249400Y0082833D03*
X0247500Y0083033D03*
D32*
X0247550Y0083133D03*
X0248150Y0083633D03*
X0249350Y0082933D03*
X0249750Y0084333D03*
X0251750Y0083433D03*
X0251750Y0083333D03*
X0251750Y0083233D03*
X0251750Y0083133D03*
X0253950Y0082933D03*
X0254050Y0083133D03*
X0253650Y0084433D03*
X0255250Y0083833D03*
X0257750Y0081433D03*
X0258650Y0076433D03*
X0256250Y0071933D03*
X0255650Y0071433D03*
X0255250Y0071233D03*
X0254550Y0070933D03*
X0254050Y0070733D03*
X0254350Y0072133D03*
X0243050Y0074533D03*
X0243050Y0074633D03*
X0243050Y0074733D03*
X0243050Y0074833D03*
X0243050Y0074933D03*
X0243050Y0075033D03*
X0243050Y0075133D03*
X0243050Y0075233D03*
X0243050Y0075333D03*
X0243050Y0075433D03*
X0243050Y0075533D03*
X0243050Y0075633D03*
X0243050Y0075733D03*
X0243050Y0075833D03*
X0243050Y0075933D03*
X0243050Y0076033D03*
X0243050Y0076133D03*
X0243050Y0076233D03*
X0243050Y0076333D03*
X0243050Y0076433D03*
X0243050Y0076533D03*
X0243050Y0076633D03*
X0240850Y0079933D03*
X0240850Y0080033D03*
X0240850Y0080133D03*
X0240850Y0080233D03*
X0237150Y0074633D03*
X0237250Y0073233D03*
X0241750Y0068633D03*
X0235650Y0065133D03*
X0237550Y0063133D03*
X0238150Y0062733D03*
X0239350Y0063433D03*
X0241650Y0063333D03*
X0241650Y0063233D03*
X0241650Y0063133D03*
X0241650Y0063033D03*
X0243650Y0062233D03*
X0245850Y0063433D03*
X0195450Y0075933D03*
X0195450Y0079933D03*
X0190050Y0076433D03*
X0190050Y0072633D03*
X0190050Y0068533D03*
X0190050Y0068433D03*
X0191450Y0065333D03*
X0175850Y0065333D03*
X0184750Y0078533D03*
X0184150Y0081833D03*
X0184450Y0084233D03*
X0184250Y0084333D03*
X0180450Y0086333D03*
X0179150Y0088733D03*
X0179150Y0090333D03*
X0175850Y0090933D03*
X0175850Y0092033D03*
X0179650Y0083133D03*
D33*
X0180350Y0087133D03*
X0179150Y0089033D03*
X0179150Y0089133D03*
X0179150Y0089933D03*
X0179150Y0090033D03*
X0176850Y0087333D03*
X0176950Y0086933D03*
X0176950Y0086833D03*
X0184650Y0086933D03*
X0184850Y0086833D03*
X0185050Y0086733D03*
X0185450Y0083633D03*
X0185650Y0083533D03*
X0185250Y0081133D03*
X0189750Y0077033D03*
X0189750Y0073333D03*
X0186550Y0073733D03*
X0186450Y0073833D03*
X0189750Y0069333D03*
X0189750Y0069233D03*
X0195150Y0076333D03*
X0195150Y0080333D03*
X0239450Y0075733D03*
X0246150Y0082533D03*
X0249850Y0084233D03*
X0253950Y0070833D03*
X0256150Y0063933D03*
X0243550Y0062333D03*
D34*
X0244100Y0062433D03*
X0244300Y0062533D03*
X0244600Y0062633D03*
X0244800Y0062733D03*
X0245000Y0062833D03*
X0245800Y0063333D03*
X0244000Y0063533D03*
X0241600Y0062933D03*
X0239400Y0063333D03*
X0237400Y0064633D03*
X0235600Y0065033D03*
X0234700Y0070133D03*
X0239000Y0074533D03*
X0238500Y0075433D03*
X0238600Y0075533D03*
X0238900Y0075633D03*
X0238200Y0075333D03*
X0238000Y0075233D03*
X0237800Y0075133D03*
X0241700Y0068733D03*
X0248800Y0064533D03*
X0251600Y0066533D03*
X0251600Y0068633D03*
X0254700Y0071033D03*
X0255000Y0071133D03*
X0255500Y0071333D03*
X0256200Y0071833D03*
X0251600Y0077933D03*
X0251300Y0080333D03*
X0251700Y0083533D03*
X0251700Y0083633D03*
X0249400Y0083033D03*
X0248800Y0083933D03*
X0248600Y0083833D03*
X0248400Y0083733D03*
X0249300Y0084133D03*
X0255900Y0081933D03*
X0258600Y0079033D03*
X0195500Y0079833D03*
X0195500Y0075833D03*
X0190100Y0076333D03*
X0190100Y0072533D03*
X0190100Y0068333D03*
X0185400Y0074833D03*
X0185300Y0074933D03*
X0185200Y0075033D03*
X0184700Y0078633D03*
X0184000Y0081933D03*
X0184100Y0084433D03*
X0183600Y0087433D03*
X0183400Y0087533D03*
X0183200Y0087633D03*
X0180400Y0086233D03*
X0180000Y0087233D03*
X0176900Y0087633D03*
X0176100Y0084733D03*
X0176100Y0083133D03*
X0179700Y0083033D03*
X0179700Y0064933D03*
X0181700Y0063233D03*
X0184000Y0062933D03*
X0184000Y0062833D03*
X0176200Y0062333D03*
X0173500Y0065333D03*
D35*
X0188500Y0075533D03*
X0188600Y0075433D03*
X0189000Y0075033D03*
X0189000Y0078333D03*
X0187700Y0079533D03*
X0188900Y0081633D03*
X0188000Y0085333D03*
X0244400Y0071933D03*
X0251000Y0065133D03*
X0251000Y0065033D03*
X0251000Y0064933D03*
X0251000Y0064833D03*
X0248200Y0063633D03*
X0248200Y0063533D03*
X0248200Y0063433D03*
X0253800Y0073433D03*
D36*
X0251550Y0064033D03*
X0251550Y0063933D03*
X0251550Y0063833D03*
X0251550Y0063733D03*
X0194850Y0076833D03*
X0194850Y0080733D03*
X0189450Y0077533D03*
X0187050Y0076733D03*
X0186950Y0076833D03*
X0189450Y0074033D03*
X0187650Y0072633D03*
X0187550Y0072733D03*
X0187450Y0072833D03*
X0189450Y0070133D03*
X0186150Y0080533D03*
X0186850Y0082833D03*
X0186650Y0082933D03*
D37*
X0184650Y0084133D03*
X0184450Y0081633D03*
X0184650Y0081533D03*
X0185050Y0078333D03*
X0185150Y0078233D03*
X0180850Y0080533D03*
X0180850Y0080633D03*
X0180450Y0086433D03*
X0180450Y0086533D03*
X0179150Y0088833D03*
X0179150Y0090233D03*
X0175850Y0091033D03*
X0175850Y0091133D03*
X0175850Y0091933D03*
X0189950Y0076633D03*
X0189950Y0072933D03*
X0189950Y0068733D03*
X0195350Y0076033D03*
X0234650Y0067533D03*
X0237450Y0064733D03*
X0241550Y0063733D03*
X0243750Y0064233D03*
X0243750Y0064333D03*
X0243750Y0064433D03*
X0243750Y0064533D03*
X0243850Y0063933D03*
X0243850Y0063833D03*
X0239150Y0074133D03*
X0237150Y0074533D03*
X0237250Y0073133D03*
X0235450Y0072533D03*
X0240550Y0076033D03*
X0240550Y0076133D03*
X0243150Y0076933D03*
X0250250Y0076933D03*
X0250250Y0074333D03*
X0252850Y0072433D03*
X0254250Y0072333D03*
X0256250Y0072033D03*
X0257950Y0074033D03*
X0253850Y0082733D03*
X0251750Y0082833D03*
X0251750Y0082933D03*
X0251750Y0083033D03*
X0249550Y0082633D03*
X0249450Y0082733D03*
X0256150Y0064033D03*
D38*
X0256150Y0063833D03*
X0244050Y0064933D03*
X0195050Y0076533D03*
X0195050Y0080433D03*
X0189650Y0077233D03*
X0186150Y0077433D03*
X0185550Y0080933D03*
X0186050Y0083333D03*
X0185250Y0086633D03*
X0180550Y0087033D03*
X0179150Y0089233D03*
X0179150Y0089433D03*
X0179150Y0089533D03*
X0179150Y0089633D03*
X0179150Y0089733D03*
X0179150Y0089833D03*
X0176950Y0087033D03*
X0176050Y0084033D03*
X0176050Y0083933D03*
X0176050Y0083833D03*
X0179450Y0083533D03*
X0186850Y0073433D03*
X0189650Y0073533D03*
X0189650Y0069533D03*
D39*
X0190950Y0080433D03*
X0190750Y0080533D03*
X0193950Y0081833D03*
X0190050Y0084333D03*
X0189850Y0084433D03*
X0239050Y0072333D03*
X0239050Y0072133D03*
X0239050Y0065933D03*
X0239050Y0065333D03*
X0239050Y0065233D03*
X0240950Y0063933D03*
X0254250Y0074233D03*
X0254250Y0074333D03*
D40*
X0255000Y0075933D03*
X0255000Y0077133D03*
X0254700Y0079433D03*
X0251800Y0082133D03*
X0251700Y0082533D03*
X0249800Y0081633D03*
X0249800Y0081533D03*
X0249800Y0081433D03*
X0243600Y0081533D03*
X0243600Y0081633D03*
X0238300Y0071433D03*
X0238300Y0071333D03*
X0238400Y0070633D03*
X0238300Y0066933D03*
X0238300Y0066733D03*
X0238300Y0066633D03*
X0241700Y0064033D03*
D41*
X0241650Y0064133D03*
X0238350Y0066433D03*
X0238350Y0066533D03*
X0238450Y0069433D03*
X0238450Y0070533D03*
X0243550Y0081433D03*
X0251650Y0082333D03*
X0251650Y0082433D03*
X0254650Y0079333D03*
X0193250Y0082733D03*
X0192750Y0083033D03*
D42*
X0187200Y0082633D03*
X0187000Y0082733D03*
X0186300Y0080433D03*
X0187200Y0076633D03*
X0187300Y0076533D03*
X0189400Y0077633D03*
X0189400Y0074133D03*
X0187700Y0072533D03*
X0187800Y0072433D03*
X0189400Y0070233D03*
X0180900Y0081233D03*
X0186100Y0086233D03*
X0186300Y0086133D03*
X0239900Y0064433D03*
X0253900Y0081833D03*
D43*
X0253500Y0073033D03*
X0253500Y0072833D03*
X0253500Y0072733D03*
X0253500Y0072633D03*
X0253500Y0072533D03*
X0239900Y0073533D03*
X0239900Y0073633D03*
X0239900Y0073733D03*
X0239900Y0073833D03*
X0239800Y0064533D03*
X0194700Y0077033D03*
X0189300Y0077833D03*
X0187500Y0076333D03*
X0187400Y0076433D03*
X0189300Y0074333D03*
X0188100Y0072133D03*
X0189300Y0070533D03*
X0186600Y0080233D03*
X0186700Y0085933D03*
D44*
X0186950Y0085833D03*
X0187750Y0082333D03*
X0187850Y0082233D03*
X0188050Y0082133D03*
X0186950Y0080033D03*
X0186750Y0080133D03*
X0189250Y0077933D03*
X0187650Y0076233D03*
X0189250Y0074433D03*
X0188250Y0072033D03*
X0188350Y0071933D03*
X0189250Y0070633D03*
X0194650Y0077133D03*
X0194650Y0080933D03*
X0239850Y0074033D03*
X0239850Y0073933D03*
X0239750Y0064633D03*
D45*
X0239650Y0064733D03*
X0194550Y0077233D03*
X0189150Y0078133D03*
X0188150Y0075833D03*
X0189150Y0074633D03*
X0188550Y0071733D03*
X0188650Y0071633D03*
X0188750Y0071533D03*
X0188850Y0071433D03*
X0189150Y0070933D03*
X0187250Y0079833D03*
X0188150Y0082033D03*
D46*
X0191500Y0080133D03*
X0191600Y0080033D03*
X0193800Y0082033D03*
X0238900Y0072733D03*
X0238900Y0071733D03*
X0238900Y0071633D03*
X0246700Y0075733D03*
X0246700Y0076433D03*
X0254400Y0074833D03*
X0254400Y0074733D03*
X0254400Y0073933D03*
X0238900Y0064933D03*
X0238900Y0064833D03*
D47*
X0244750Y0065033D03*
X0244750Y0065133D03*
X0250450Y0065933D03*
X0194350Y0077533D03*
X0194350Y0081333D03*
X0189250Y0081433D03*
X0189050Y0081533D03*
X0187850Y0079433D03*
X0188950Y0078433D03*
X0188750Y0075333D03*
X0188950Y0075133D03*
X0188150Y0085233D03*
D48*
X0190250Y0084233D03*
X0193850Y0081933D03*
X0193850Y0078333D03*
X0238950Y0072633D03*
X0238950Y0071833D03*
X0238950Y0066233D03*
X0238950Y0065033D03*
X0254350Y0074033D03*
X0254350Y0074633D03*
D49*
X0254300Y0074533D03*
X0254300Y0074433D03*
X0254300Y0074133D03*
X0246700Y0074733D03*
X0239000Y0072533D03*
X0239000Y0072433D03*
X0239000Y0072033D03*
X0239000Y0071933D03*
X0239000Y0066133D03*
X0239000Y0066033D03*
X0239000Y0065133D03*
X0193900Y0078233D03*
X0191300Y0080233D03*
X0191100Y0080333D03*
D50*
X0189900Y0081033D03*
X0188500Y0079033D03*
X0188800Y0078733D03*
X0194200Y0081533D03*
X0244400Y0072033D03*
X0244500Y0069233D03*
X0248900Y0069233D03*
X0250300Y0066733D03*
X0250300Y0066633D03*
X0250300Y0065733D03*
X0250300Y0065633D03*
X0250300Y0065533D03*
X0250300Y0065433D03*
X0254500Y0080633D03*
X0254500Y0080733D03*
X0254500Y0081133D03*
X0254500Y0081233D03*
D51*
X0254600Y0079233D03*
X0254900Y0076033D03*
X0249400Y0072733D03*
X0245100Y0066733D03*
X0245100Y0065633D03*
X0245100Y0065533D03*
X0245100Y0065433D03*
X0238400Y0066333D03*
X0238400Y0067033D03*
X0251700Y0082233D03*
X0193300Y0082633D03*
D52*
X0194000Y0081733D03*
X0190600Y0080633D03*
X0189600Y0084533D03*
X0194000Y0078133D03*
X0239100Y0072233D03*
X0244400Y0072233D03*
X0244400Y0072333D03*
X0249000Y0072333D03*
X0254700Y0081733D03*
X0252500Y0082633D03*
X0239100Y0065833D03*
X0239100Y0065433D03*
D53*
X0239150Y0065533D03*
X0239150Y0065633D03*
X0239150Y0065733D03*
X0248950Y0072133D03*
X0248950Y0072233D03*
X0254650Y0080333D03*
X0254650Y0081533D03*
X0254650Y0081633D03*
X0194050Y0078033D03*
X0190450Y0080733D03*
X0190250Y0080833D03*
X0189450Y0084633D03*
D54*
X0193400Y0082533D03*
X0193200Y0079133D03*
X0238600Y0069833D03*
X0238600Y0069733D03*
X0238600Y0069633D03*
X0238600Y0069533D03*
X0238500Y0067233D03*
X0238500Y0067133D03*
X0245100Y0066633D03*
X0245100Y0065733D03*
X0243900Y0072633D03*
X0246700Y0076933D03*
X0249500Y0072633D03*
X0249500Y0072533D03*
X0254800Y0076133D03*
X0254800Y0076833D03*
X0254800Y0076933D03*
X0254800Y0077033D03*
X0254800Y0078233D03*
X0254500Y0079133D03*
D55*
X0254450Y0080833D03*
X0254450Y0080933D03*
X0254450Y0081033D03*
X0248850Y0069533D03*
X0250350Y0065833D03*
X0244450Y0069533D03*
X0194250Y0077733D03*
X0194250Y0081433D03*
X0189750Y0081133D03*
X0189550Y0081233D03*
X0188350Y0079133D03*
X0188850Y0078633D03*
X0188750Y0084933D03*
D56*
X0191500Y0083633D03*
X0191700Y0083533D03*
X0191900Y0083433D03*
X0193500Y0082433D03*
X0193000Y0079233D03*
X0193500Y0078833D03*
X0238600Y0068133D03*
X0238600Y0068033D03*
X0238600Y0067933D03*
X0238600Y0067833D03*
X0238600Y0067733D03*
X0238600Y0067333D03*
X0245100Y0065833D03*
X0246700Y0076833D03*
X0254700Y0076333D03*
X0254700Y0076233D03*
D57*
X0246650Y0075633D03*
X0246650Y0074933D03*
X0245150Y0065933D03*
X0193650Y0078633D03*
X0192250Y0079633D03*
X0192150Y0079733D03*
X0193650Y0082233D03*
D58*
X0189400Y0081333D03*
X0188000Y0079333D03*
X0188100Y0079233D03*
X0188900Y0078533D03*
X0188900Y0075233D03*
X0194300Y0077633D03*
X0188600Y0085033D03*
X0188400Y0085133D03*
X0250400Y0066833D03*
D59*
X0249700Y0071333D03*
X0243700Y0071333D03*
X0245100Y0066833D03*
X0246700Y0075033D03*
X0246700Y0075533D03*
X0246700Y0076533D03*
X0192500Y0079533D03*
X0191300Y0083733D03*
D60*
X0192950Y0082933D03*
X0193150Y0082833D03*
X0238250Y0071233D03*
X0238250Y0071133D03*
X0238250Y0071033D03*
X0238250Y0066833D03*
X0243650Y0081733D03*
X0249750Y0081733D03*
X0255050Y0078133D03*
X0255050Y0075833D03*
X0255050Y0075333D03*
X0255050Y0075233D03*
X0255050Y0075133D03*
D61*
X0247450Y0067433D03*
D62*
X0249650Y0071133D03*
X0243750Y0071133D03*
X0238650Y0067633D03*
X0238650Y0067533D03*
X0238650Y0067433D03*
X0246650Y0075133D03*
X0246650Y0075233D03*
X0246650Y0075333D03*
X0246650Y0075433D03*
X0246650Y0076633D03*
X0246650Y0076733D03*
X0193550Y0078733D03*
X0192850Y0079333D03*
X0192650Y0079433D03*
X0193550Y0082333D03*
D63*
X0247250Y0067633D03*
X0247250Y0067533D03*
D64*
X0234750Y0067633D03*
X0234750Y0067733D03*
X0258650Y0078933D03*
X0195250Y0076233D03*
X0189850Y0073133D03*
X0189850Y0069033D03*
X0189850Y0068933D03*
X0185550Y0077933D03*
X0184950Y0081333D03*
X0184950Y0083933D03*
X0180450Y0086633D03*
X0179650Y0084233D03*
X0176850Y0086533D03*
X0176850Y0086633D03*
X0179150Y0088933D03*
X0179150Y0090133D03*
X0175850Y0091233D03*
X0175850Y0091533D03*
X0175850Y0091633D03*
X0175850Y0091733D03*
D65*
X0247350Y0067733D03*
D66*
X0249550Y0071233D03*
X0249550Y0072433D03*
X0243850Y0072433D03*
X0243850Y0072533D03*
X0243850Y0071233D03*
X0240550Y0073133D03*
X0238650Y0070333D03*
X0238650Y0070233D03*
X0238650Y0070133D03*
X0238650Y0070033D03*
X0238650Y0069933D03*
X0238550Y0068233D03*
X0254750Y0076433D03*
X0254750Y0076533D03*
X0254750Y0076633D03*
X0254750Y0076733D03*
X0254750Y0078333D03*
X0254750Y0078433D03*
X0254750Y0078533D03*
X0254750Y0078633D03*
X0193450Y0078933D03*
X0193350Y0079033D03*
D67*
X0246650Y0068533D03*
X0246650Y0068433D03*
X0246650Y0068333D03*
D68*
X0243950Y0072733D03*
X0238550Y0070433D03*
X0238450Y0068333D03*
X0243450Y0081333D03*
X0242950Y0082033D03*
X0242950Y0082133D03*
X0249950Y0081333D03*
X0254550Y0079033D03*
X0254550Y0078933D03*
X0254550Y0078833D03*
X0254550Y0078733D03*
X0192550Y0083133D03*
X0192350Y0083233D03*
X0192150Y0083333D03*
D69*
X0238200Y0070933D03*
X0238300Y0070733D03*
X0238200Y0068433D03*
X0255100Y0075433D03*
X0255100Y0075533D03*
X0254800Y0079533D03*
X0254800Y0080233D03*
X0251900Y0082033D03*
D70*
X0255250Y0078033D03*
X0255250Y0077933D03*
X0255250Y0077833D03*
X0255250Y0077733D03*
X0255250Y0077633D03*
X0255250Y0077533D03*
X0255250Y0077433D03*
X0255250Y0077333D03*
X0255250Y0077233D03*
X0238150Y0069333D03*
X0238050Y0068933D03*
X0238050Y0068833D03*
X0238050Y0068733D03*
X0238050Y0068633D03*
X0238050Y0068533D03*
D71*
X0238100Y0069033D03*
X0238100Y0069133D03*
X0238100Y0069233D03*
D72*
X0244500Y0069333D03*
X0244500Y0070333D03*
X0244400Y0072133D03*
X0248900Y0070433D03*
X0248900Y0070333D03*
X0248900Y0070233D03*
X0248900Y0069433D03*
X0248900Y0069333D03*
X0254600Y0080433D03*
X0254600Y0081433D03*
X0194100Y0081633D03*
X0194100Y0077933D03*
X0190100Y0080933D03*
X0189200Y0084733D03*
D73*
X0189050Y0084833D03*
X0188650Y0078933D03*
X0188750Y0078833D03*
X0194150Y0077833D03*
X0244450Y0070433D03*
X0244450Y0070233D03*
X0244450Y0069433D03*
X0248950Y0072033D03*
X0254550Y0080533D03*
X0254550Y0081333D03*
D74*
X0253750Y0073333D03*
X0248950Y0071933D03*
X0248850Y0070133D03*
X0239650Y0073233D03*
X0194450Y0077433D03*
X0194450Y0081233D03*
X0188750Y0081733D03*
X0188550Y0081833D03*
X0187550Y0079633D03*
X0188350Y0075633D03*
X0189050Y0074933D03*
X0189050Y0074833D03*
X0188950Y0071333D03*
X0189050Y0071233D03*
X0187750Y0085433D03*
D75*
X0187600Y0085533D03*
X0188400Y0081933D03*
X0187400Y0079733D03*
X0189100Y0078233D03*
X0188300Y0075733D03*
X0189100Y0074733D03*
X0189100Y0071133D03*
X0189100Y0071033D03*
X0194500Y0077333D03*
X0194500Y0081133D03*
X0239700Y0073333D03*
X0244500Y0070533D03*
X0244500Y0070133D03*
X0248900Y0070533D03*
X0253700Y0073233D03*
D76*
X0255150Y0075633D03*
X0255150Y0075733D03*
X0254850Y0079933D03*
X0254850Y0080033D03*
X0254850Y0080133D03*
X0238250Y0070833D03*
D77*
X0238850Y0071533D03*
X0238850Y0072833D03*
X0246650Y0074833D03*
X0252750Y0073133D03*
X0254450Y0073733D03*
X0254450Y0073833D03*
X0254450Y0074933D03*
X0193750Y0078433D03*
X0191750Y0079933D03*
X0190650Y0084033D03*
X0190450Y0084133D03*
D78*
X0246700Y0078333D03*
X0246700Y0078233D03*
X0246700Y0078133D03*
X0246700Y0078033D03*
X0246700Y0073733D03*
X0246700Y0073633D03*
X0246700Y0073533D03*
X0246700Y0072833D03*
D79*
X0253450Y0072933D03*
X0194750Y0076933D03*
X0194750Y0080833D03*
X0189350Y0077733D03*
X0189350Y0074233D03*
X0187950Y0072333D03*
X0188050Y0072233D03*
X0189350Y0070433D03*
X0189350Y0070333D03*
X0186450Y0080333D03*
X0187550Y0082433D03*
X0187350Y0082533D03*
X0186450Y0086033D03*
D80*
X0246800Y0073433D03*
X0246800Y0073333D03*
X0246800Y0073233D03*
X0246800Y0073133D03*
X0246800Y0073033D03*
X0246800Y0072933D03*
D81*
X0238800Y0072933D03*
X0238800Y0073033D03*
X0254500Y0073533D03*
X0254500Y0073633D03*
X0254500Y0075033D03*
X0193700Y0078533D03*
X0192000Y0079833D03*
X0193700Y0082133D03*
X0191100Y0083833D03*
X0190900Y0083933D03*
D82*
X0246650Y0073833D03*
D83*
X0246700Y0073933D03*
D84*
X0246650Y0074033D03*
X0246650Y0074133D03*
D85*
X0246700Y0077033D03*
D86*
X0246700Y0077133D03*
D87*
X0246650Y0077233D03*
D88*
X0246700Y0077333D03*
X0246700Y0079433D03*
X0246700Y0079533D03*
D89*
X0246700Y0080433D03*
X0246700Y0078533D03*
X0246700Y0078433D03*
D90*
X0246650Y0079133D03*
D91*
X0246700Y0079233D03*
D92*
X0246650Y0079333D03*
X0246650Y0079633D03*
D93*
X0254900Y0079633D03*
X0254900Y0079733D03*
X0254900Y0079833D03*
D94*
X0246700Y0079733D03*
D95*
X0246650Y0079833D03*
D96*
X0246700Y0080533D03*
X0246700Y0080633D03*
X0246700Y0080733D03*
D97*
X0251850Y0082733D03*
X0189550Y0073833D03*
X0187250Y0073033D03*
X0187150Y0073133D03*
X0186650Y0077033D03*
X0185850Y0080733D03*
X0186450Y0083033D03*
X0185850Y0086333D03*
X0185650Y0086433D03*
X0189550Y0069833D03*
M02*
